<?xml version="1.0" encoding="UTF-8" standalone="no"?>
<svg
   xmlns:dc="http://purl.org/dc/elements/1.1/"
   xmlns:cc="http://creativecommons.org/ns#"
   xmlns:rdf="http://www.w3.org/1999/02/22-rdf-syntax-ns#"
   xmlns:svg="http://www.w3.org/2000/svg"
   xmlns="http://www.w3.org/2000/svg"
   xmlns:sodipodi="http://sodipodi.sourceforge.net/DTD/sodipodi-0.dtd"
   xmlns:inkscape="http://www.inkscape.org/namespaces/inkscape"
   inkscape:version="1.0.1 (3bc2e813f5, 2020-09-07)"
   sodipodi:docname="1-uniform_n7.svg"
   id="C:\1-uniform_7.svg"
   height="978.98535"
   width="1000.0"
   version="1.0">
  <metadata
     id="metadata30087">
    <rdf:RDF>
      <cc:Work
         rdf:about="">
        <dc:format>image/svg+xml</dc:format>
        <dc:type
           rdf:resource="http://purl.org/dc/dcmitype/StillImage" />
        <dc:title></dc:title>
      </cc:Work>
    </rdf:RDF>
  </metadata>
  <defs
     id="defs30085" />
  <sodipodi:namedview
     inkscape:current-layer="C:\1-uniform_7.svg"
     inkscape:window-maximized="1"
     inkscape:window-y="-9"
     inkscape:window-x="-9"
     inkscape:cy="423.18075"
     inkscape:cx="605.76393"
     inkscape:zoom="0.89199255"
     showgrid="false"
     id="namedview30083"
     inkscape:window-height="1001"
     inkscape:window-width="1920"
     inkscape:pageshadow="2"
     inkscape:pageopacity="0"
     guidetolerance="10"
     gridtolerance="10"
     objecttolerance="10"
     borderopacity="1"
     inkscape:document-rotation="0"
     bordercolor="#666666"
     pagecolor="#ffffff" />
  <!-- X Coordinate transform: fx(x)=(x+132.5)*0.7905138-->
  <!-- Y Coordinate transform: fy(y)=(1119.2083-y)*0.7905138 -->
  <!-- Flac geometry view -->
  <path
     style="color:#000000;font-style:normal;font-variant:normal;font-weight:normal;font-stretch:normal;font-size:medium;line-height:normal;font-family:sans-serif;font-variant-ligatures:normal;font-variant-position:normal;font-variant-caps:normal;font-variant-numeric:normal;font-variant-alternates:normal;font-variant-east-asian:normal;font-feature-settings:normal;font-variation-settings:normal;text-indent:0;text-align:start;text-decoration:none;text-decoration-line:none;text-decoration-style:solid;text-decoration-color:#000000;letter-spacing:normal;word-spacing:normal;text-transform:none;writing-mode:lr-tb;direction:ltr;text-orientation:mixed;dominant-baseline:auto;baseline-shift:baseline;text-anchor:start;white-space:normal;shape-padding:0;shape-margin:0;inline-size:0;clip-rule:nonzero;display:inline;overflow:visible;visibility:visible;isolation:auto;mix-blend-mode:normal;color-interpolation:sRGB;color-interpolation-filters:linearRGB;solid-color:#000000;solid-opacity:1;vector-effect:none;fill:#000000;fill-opacity:0.8;fill-rule:nonzero;stroke:none;stroke-width:14;stroke-linecap:butt;stroke-linejoin:miter;stroke-miterlimit:4;stroke-dasharray:none;stroke-dashoffset:0;stroke-opacity:1;color-rendering:auto;image-rendering:auto;shape-rendering:auto;text-rendering:auto;enable-background:accumulate;stop-color:#000000;stop-opacity:1;opacity:1"
     d="M 100.70117 71.730469 L 98.681641 75.230469 L 76.896484 112.96094 L 92.617188 140.18945 L 61.175781 140.18945 L 59.154297 143.68945 L 37.373047 181.41992 L 61.175781 222.65039 L 92.619141 222.65039 L 76.896484 249.88086 L 92.619141 277.11133 L 61.175781 277.11133 L 59.154297 280.61133 L 37.373047 318.3418 L 61.175781 359.57227 L 92.619141 359.57227 L 76.896484 386.80273 L 78.917969 390.30273 L 92.617188 414.03125 L 61.175781 414.03125 L 59.154297 417.53125 L 37.373047 455.26172 L 61.175781 496.49219 L 92.619141 496.49219 L 76.896484 523.72266 L 78.917969 527.22266 L 92.619141 550.95312 L 61.175781 550.95312 L 37.373047 592.18359 L 61.175781 633.41406 L 65.216797 633.41406 L 92.619141 633.41406 L 76.896484 660.64453 L 78.917969 664.14453 L 92.617188 687.87305 L 61.175781 687.87305 L 37.373047 729.10352 L 61.175781 770.33594 L 65.216797 770.33594 L 92.617188 770.33594 L 76.896484 797.56445 L 92.619141 824.79492 L 61.175781 824.79492 L 37.373047 866.02539 L 61.175781 907.25586 L 65.216797 907.25586 L 108.78516 907.25586 L 124.50586 880.02539 L 140.22656 907.25586 L 144.26953 907.25586 L 187.83594 907.25586 L 203.55859 880.02539 L 219.2793 907.25586 L 223.32031 907.25586 L 266.88672 907.25586 L 282.60938 880.02539 L 298.33008 907.25586 L 302.37109 907.25586 L 345.93945 907.25586 L 361.66016 880.02539 L 377.38086 907.25586 L 381.42383 907.25586 L 424.99023 907.25586 L 440.71094 880.02539 L 456.43164 907.25586 L 460.47461 907.25586 L 504.04102 907.25586 L 519.76172 880.02539 L 535.48438 907.25586 L 583.0918 907.25586 L 585.11328 903.75586 L 598.81445 880.02539 L 614.53516 907.25586 L 662.14453 907.25586 L 664.16602 903.75586 L 677.86523 880.02539 L 693.58594 907.25586 L 741.19531 907.25586 L 743.2168 903.75586 L 756.91797 880.02539 L 772.63867 907.25586 L 820.24805 907.25586 L 822.26758 903.75586 L 835.96875 880.02539 L 851.68945 907.25586 L 899.29883 907.25586 L 901.31836 903.75586 L 923.10352 866.02539 L 907.38086 838.79492 L 938.82422 838.79492 L 940.8457 835.29492 L 962.62695 797.56445 L 938.82422 756.33594 L 907.38086 756.33594 L 923.10352 729.10352 L 907.38086 701.87305 L 938.82422 701.87305 L 940.8457 698.37305 L 962.62695 660.64453 L 938.82422 619.41406 L 907.38086 619.41406 L 923.10352 592.18359 L 921.08203 588.68359 L 907.38086 564.95312 L 938.82422 564.95312 L 940.8457 561.45312 L 962.62695 523.72266 L 938.82422 482.49219 L 907.38086 482.49219 L 923.10352 455.26172 L 921.08203 451.76172 L 907.38086 428.03125 L 938.82422 428.03125 L 962.62695 386.80273 L 938.82422 345.57227 L 934.7832 345.57227 L 907.38086 345.57227 L 923.10352 318.3418 L 921.08203 314.8418 L 907.38086 291.11133 L 938.82422 291.11133 L 962.62695 249.88086 L 938.82422 208.65039 L 934.7832 208.65039 L 907.38086 208.65039 L 923.10352 181.41992 L 907.38086 154.18945 L 938.82422 154.18945 L 962.62695 112.96094 L 938.82422 71.730469 L 934.7832 71.730469 L 891.21484 71.730469 L 875.49219 98.960938 L 859.77148 71.730469 L 855.73047 71.730469 L 812.16406 71.730469 L 796.44141 98.960938 L 780.7207 71.730469 L 776.67969 71.730469 L 733.11328 71.730469 L 717.39062 98.960938 L 701.66992 71.730469 L 697.62891 71.730469 L 654.0625 71.730469 L 638.33984 98.960938 L 622.61914 71.730469 L 618.57617 71.730469 L 575.00977 71.730469 L 559.28906 98.960938 L 543.56836 71.730469 L 495.95898 71.730469 L 493.9375 75.230469 L 480.23633 98.960938 L 464.51562 71.730469 L 416.9082 71.730469 L 414.88672 75.230469 L 401.18555 98.960938 L 385.46484 71.730469 L 337.85547 71.730469 L 335.83398 75.230469 L 322.13477 98.960938 L 306.41406 71.730469 L 258.80469 71.730469 L 256.7832 75.230469 L 243.08203 98.960938 L 227.36133 71.730469 L 179.75195 71.730469 L 177.73242 75.230469 L 164.03125 98.960938 L 148.31055 71.730469 L 100.70117 71.730469 z M 108.7832 85.730469 L 140.22852 85.730469 L 155.94922 112.96094 L 140.22852 140.18945 L 108.78516 140.18945 L 93.0625 112.96094 L 108.7832 85.730469 z M 187.83594 85.730469 L 219.2793 85.730469 L 235 112.96094 L 219.2793 140.18945 L 187.83594 140.18945 L 172.11523 112.96094 L 187.83594 85.730469 z M 266.88672 85.730469 L 298.33008 85.730469 L 314.05078 112.96094 L 298.33008 140.18945 L 266.88672 140.18945 L 251.16602 112.96094 L 266.88672 85.730469 z M 345.9375 85.730469 L 377.38086 85.730469 L 393.10352 112.96094 L 377.38086 140.18945 L 345.9375 140.18945 L 330.2168 112.96094 L 345.9375 85.730469 z M 424.99023 85.730469 L 456.43164 85.730469 L 472.1543 112.96094 L 456.43164 140.18945 L 424.99023 140.18945 L 409.26953 112.96094 L 424.99023 85.730469 z M 504.04102 85.730469 L 535.48438 85.730469 L 551.20703 112.96094 L 535.48438 140.18945 L 504.04102 140.18945 L 488.32031 112.96094 L 504.04102 85.730469 z M 583.0918 85.730469 L 614.53711 85.730469 L 630.25781 112.96094 L 614.53516 140.18945 L 583.0918 140.18945 L 567.37109 112.96094 L 583.0918 85.730469 z M 662.14453 85.730469 L 693.58789 85.730469 L 709.30859 112.96094 L 693.58594 140.18945 L 662.14453 140.18945 L 646.42383 112.96094 L 662.14453 85.730469 z M 741.19531 85.730469 L 772.63867 85.730469 L 788.35938 112.96094 L 772.63867 140.18945 L 741.19531 140.18945 L 725.47461 112.96094 L 741.19531 85.730469 z M 820.24805 85.730469 L 851.68945 85.730469 L 867.41016 112.96094 L 851.68945 140.18945 L 820.24805 140.18945 L 804.52539 112.96094 L 820.24805 85.730469 z M 899.29883 85.730469 L 930.74219 85.730469 L 946.46289 112.96094 L 930.74219 140.18945 L 899.29883 140.18945 L 883.57617 112.96094 L 899.29883 85.730469 z M 559.28906 126.95898 L 566.92773 140.18945 L 551.65039 140.18945 L 559.28906 126.95898 z M 164.03125 126.96094 L 171.66992 140.18945 L 156.39453 140.18945 L 164.03125 126.96094 z M 243.08203 126.96094 L 250.7207 140.18945 L 235.44531 140.18945 L 243.08203 126.96094 z M 322.13477 126.96094 L 329.77148 140.18945 L 314.49609 140.18945 L 322.13477 126.96094 z M 401.1875 126.96094 L 408.82422 140.18945 L 393.54883 140.18945 L 401.1875 126.96094 z M 480.23828 126.96094 L 487.875 140.18945 L 472.59961 140.18945 L 480.23828 126.96094 z M 638.33984 126.96094 L 645.97852 140.18945 L 630.70312 140.18945 L 638.33984 126.96094 z M 717.39062 126.96094 L 725.0293 140.18945 L 709.75391 140.18945 L 717.39062 126.96094 z M 796.44141 126.96094 L 804.08008 140.18945 L 788.80469 140.18945 L 796.44141 126.96094 z M 875.49219 126.96094 L 883.13086 140.18945 L 867.85547 140.18945 L 875.49219 126.96094 z M 69.257812 154.18945 L 100.70117 154.18945 L 116.42383 181.41992 L 100.70117 208.65039 L 69.257812 208.65039 L 53.537109 181.41992 L 69.257812 154.18945 z M 116.86719 154.18945 L 132.14453 154.18945 L 124.50586 167.41992 L 116.86719 154.18945 z M 148.31055 154.18945 L 179.75195 154.18945 L 195.47461 181.41992 L 179.75195 208.65039 L 148.31055 208.65039 L 132.58984 181.41992 L 148.31055 154.18945 z M 195.91797 154.18945 L 211.19531 154.18945 L 203.55664 167.41992 L 195.91797 154.18945 z M 227.36133 154.18945 L 258.80469 154.18945 L 274.52539 181.41992 L 258.80469 208.65039 L 227.36133 208.65039 L 211.64062 181.41992 L 227.36133 154.18945 z M 274.96875 154.18945 L 290.24805 154.18945 L 282.60938 167.41992 L 274.96875 154.18945 z M 306.41211 154.18945 L 306.41406 154.18945 L 337.85547 154.18945 L 353.57617 181.41992 L 337.85547 208.65039 L 306.41406 208.65039 L 290.69141 181.41992 L 306.41211 154.18945 z M 354.01953 154.18945 L 369.29883 154.18945 L 361.66016 167.41992 L 354.01953 154.18945 z M 385.46289 154.18945 L 385.46484 154.18945 L 416.9082 154.18945 L 432.62891 181.41992 L 416.9082 208.65039 L 385.46484 208.65039 L 369.74219 181.41992 L 385.46289 154.18945 z M 433.07227 154.18945 L 448.34961 154.18945 L 440.71094 167.41992 L 433.07227 154.18945 z M 464.51562 154.18945 L 495.95898 154.18945 L 511.67969 181.41992 L 495.95898 208.65039 L 464.51562 208.65039 L 448.79297 181.41992 L 464.51562 154.18945 z M 512.12305 154.18945 L 527.40234 154.18945 L 519.76172 167.41992 L 512.12305 154.18945 z M 543.56836 154.18945 L 575.00977 154.18945 L 590.73047 181.41992 L 575.00977 208.65039 L 543.56836 208.65039 L 543.56641 208.65039 L 527.8457 181.41992 L 543.56836 154.18945 z M 591.17383 154.18945 L 606.45312 154.18945 L 598.8125 167.41992 L 591.17383 154.18945 z M 622.61914 154.18945 L 654.0625 154.18945 L 669.7832 181.41992 L 654.06055 208.65039 L 622.61914 208.65039 L 606.89648 181.41992 L 622.61914 154.18945 z M 670.22656 154.18945 L 685.50391 154.18945 L 677.86523 167.41992 L 670.22656 154.18945 z M 701.66992 154.18945 L 733.11328 154.18945 L 748.83398 181.41992 L 733.11328 208.65039 L 701.66992 208.65039 L 685.94922 181.41992 L 701.66992 154.18945 z M 749.27734 154.18945 L 764.55664 154.18945 L 756.91797 167.41992 L 749.27734 154.18945 z M 780.7207 154.18945 L 812.16406 154.18945 L 827.88477 181.41992 L 812.16406 208.65039 L 780.7207 208.65039 L 765 181.41992 L 780.7207 154.18945 z M 828.33008 154.18945 L 843.60742 154.18945 L 835.96875 167.41992 L 828.33008 154.18945 z M 859.77148 154.18945 L 891.21484 154.18945 L 891.2168 154.18945 L 906.9375 181.41992 L 891.21484 208.65039 L 859.77344 208.65039 L 844.05078 181.41992 L 859.77148 154.18945 z M 124.50586 195.41992 L 132.14453 208.65039 L 116.86719 208.65039 L 124.50586 195.41992 z M 203.55859 195.41992 L 211.19727 208.65039 L 195.91797 208.65039 L 203.55859 195.41992 z M 282.60938 195.41992 L 290.24805 208.65039 L 274.96875 208.65039 L 282.60938 195.41992 z M 361.66016 195.41992 L 369.29883 208.65039 L 354.02148 208.65039 L 361.66016 195.41992 z M 440.71094 195.41992 L 448.34961 208.65039 L 433.07227 208.65039 L 440.71094 195.41992 z M 519.76172 195.41992 L 527.40234 208.65039 L 512.12305 208.65039 L 519.76172 195.41992 z M 598.8125 195.41992 L 606.45312 208.65039 L 591.17383 208.65039 L 598.8125 195.41992 z M 677.86523 195.41992 L 685.50391 208.65039 L 670.22656 208.65039 L 677.86523 195.41992 z M 756.91797 195.41992 L 764.55664 208.65039 L 749.27734 208.65039 L 756.91797 195.41992 z M 835.96875 195.41992 L 843.60742 208.65039 L 828.33008 208.65039 L 835.96875 195.41992 z M 108.7832 222.65039 L 108.78516 222.65039 L 140.22656 222.65039 L 140.22852 222.65039 L 155.94922 249.88086 L 140.22852 277.11133 L 108.78516 277.11133 L 93.0625 249.88086 L 108.7832 222.65039 z M 156.39258 222.65039 L 171.66992 222.65039 L 164.03125 235.88086 L 156.39258 222.65039 z M 187.83594 222.65039 L 219.2793 222.65039 L 235 249.88086 L 219.2793 277.11133 L 187.83594 277.11133 L 172.11523 249.88086 L 187.83594 222.65039 z M 235.44336 222.65039 L 250.72266 222.65039 L 243.08203 235.88086 L 235.44336 222.65039 z M 266.88672 222.65039 L 298.33008 222.65039 L 314.05078 249.88086 L 298.33008 277.11133 L 266.88672 277.11133 L 251.16602 249.88086 L 266.88672 222.65039 z M 314.49609 222.65039 L 329.77344 222.65039 L 322.13477 235.88086 L 314.49609 222.65039 z M 345.9375 222.65039 L 345.93945 222.65039 L 377.38086 222.65039 L 393.10352 249.88086 L 377.38086 277.11133 L 345.9375 277.11133 L 330.2168 249.88086 L 345.9375 222.65039 z M 393.54688 222.65039 L 408.82617 222.65039 L 401.1875 235.88086 L 393.54688 222.65039 z M 424.99023 222.65039 L 456.43164 222.65039 L 456.43359 222.65039 L 472.1543 249.88086 L 456.43164 277.11133 L 424.99023 277.11133 L 409.26953 249.88086 L 424.99023 222.65039 z M 472.59766 222.65039 L 487.87695 222.65039 L 480.23828 235.88086 L 472.59766 222.65039 z M 504.04102 222.65039 L 535.48438 222.65039 L 551.20703 249.88086 L 535.48438 277.11133 L 504.04102 277.11133 L 488.32031 249.88086 L 504.04102 222.65039 z M 551.65039 222.65039 L 566.92773 222.65039 L 559.28906 235.88086 L 551.65039 222.65039 z M 583.0918 222.65039 L 614.53516 222.65039 L 630.25781 249.88086 L 614.53516 277.11133 L 583.0918 277.11133 L 567.37109 249.88086 L 583.0918 222.65039 z M 630.70117 222.65039 L 645.98047 222.65039 L 638.33984 235.88086 L 630.70117 222.65039 z M 662.14453 222.65039 L 693.58594 222.65039 L 709.30859 249.88086 L 693.58594 277.11133 L 662.14453 277.11133 L 646.42383 249.88086 L 662.14453 222.65039 z M 709.75195 222.65039 L 725.03125 222.65039 L 717.39062 235.88086 L 709.75195 222.65039 z M 741.19531 222.65039 L 772.63867 222.65039 L 788.35938 249.88086 L 772.63867 277.11133 L 741.19531 277.11133 L 725.47461 249.88086 L 741.19531 222.65039 z M 788.80273 222.65039 L 804.08203 222.65039 L 796.44141 235.88086 L 788.80273 222.65039 z M 820.24805 222.65039 L 851.68945 222.65039 L 867.41016 249.88086 L 851.68945 277.11133 L 820.24805 277.11133 L 804.52539 249.88086 L 820.24805 222.65039 z M 867.85352 222.65039 L 883.13281 222.65039 L 875.49219 235.88086 L 867.85352 222.65039 z M 899.29883 222.65039 L 930.74219 222.65039 L 946.46289 249.88086 L 930.74219 277.11133 L 899.29883 277.11133 L 883.57617 249.88086 L 899.29883 222.65039 z M 164.03125 263.88086 L 171.66992 277.11133 L 156.39258 277.11133 L 164.03125 263.88086 z M 243.08203 263.88086 L 250.72266 277.11133 L 235.44336 277.11133 L 243.08203 263.88086 z M 322.13477 263.88086 L 329.77344 277.11133 L 314.49609 277.11133 L 322.13477 263.88086 z M 401.1875 263.88086 L 408.82617 277.11133 L 393.54688 277.11133 L 401.1875 263.88086 z M 480.23828 263.88086 L 487.87695 277.11133 L 472.59766 277.11133 L 480.23828 263.88086 z M 559.28906 263.88086 L 566.92773 277.11133 L 551.65039 277.11133 L 559.28906 263.88086 z M 638.33984 263.88086 L 645.97852 277.11133 L 630.70117 277.11133 L 638.33984 263.88086 z M 717.39062 263.88086 L 725.03125 277.11133 L 709.75195 277.11133 L 717.39062 263.88086 z M 796.44141 263.88086 L 804.08203 277.11133 L 788.80273 277.11133 L 796.44141 263.88086 z M 875.49219 263.88086 L 883.13281 277.11133 L 867.85352 277.11133 L 875.49219 263.88086 z M 69.257812 291.11133 L 100.70117 291.11133 L 116.42383 318.3418 L 100.70117 345.57227 L 69.257812 345.57227 L 53.537109 318.3418 L 69.257812 291.11133 z M 116.86719 291.11133 L 132.14648 291.11133 L 124.50781 304.3418 L 116.86719 291.11133 z M 148.31055 291.11133 L 179.75195 291.11133 L 195.47461 318.3418 L 179.75195 345.57227 L 148.31055 345.57227 L 132.58984 318.3418 L 148.31055 291.11133 z M 195.91797 291.11133 L 211.19727 291.11133 L 203.55859 304.3418 L 195.91797 291.11133 z M 227.36133 291.11133 L 258.80469 291.11133 L 274.52539 318.3418 L 258.80469 345.57227 L 227.36133 345.57227 L 211.64062 318.3418 L 227.36133 291.11133 z M 274.96875 291.11133 L 290.24805 291.11133 L 282.60938 304.3418 L 274.96875 291.11133 z M 306.41406 291.11133 L 337.85547 291.11133 L 353.57617 318.3418 L 337.85547 345.57227 L 306.41406 345.57227 L 290.69336 318.3418 L 306.41406 291.11133 z M 354.01953 291.11133 L 369.29883 291.11133 L 361.66016 304.3418 L 354.01953 291.11133 z M 385.46484 291.11133 L 416.9082 291.11133 L 432.62891 318.3418 L 416.9082 345.57227 L 385.46484 345.57227 L 369.74219 318.3418 L 385.46484 291.11133 z M 433.07227 291.11133 L 448.34961 291.11133 L 440.71094 304.3418 L 433.07227 291.11133 z M 464.51562 291.11133 L 495.95898 291.11133 L 511.67969 318.3418 L 495.95898 345.57227 L 464.51562 345.57227 L 448.79297 318.3418 L 464.51562 291.11133 z M 512.12305 291.11133 L 527.40234 291.11133 L 519.76172 304.3418 L 512.12305 291.11133 z M 543.56836 291.11133 L 575.00977 291.11133 L 590.73047 318.3418 L 575.00977 345.57227 L 543.56836 345.57227 L 543.56641 345.57227 L 527.8457 318.3418 L 543.56836 291.11133 z M 591.17383 291.11133 L 606.45312 291.11133 L 598.8125 304.3418 L 591.17383 291.11133 z M 622.61914 291.11133 L 654.0625 291.11133 L 669.7832 318.3418 L 654.06055 345.57227 L 622.61914 345.57227 L 622.61719 345.57227 L 606.89648 318.3418 L 622.61914 291.11133 z M 670.22656 291.11133 L 685.50391 291.11133 L 677.86523 304.3418 L 670.22656 291.11133 z M 701.66992 291.11133 L 733.11328 291.11133 L 748.83398 318.3418 L 733.11328 345.57227 L 701.66992 345.57227 L 685.94922 318.3418 L 701.66992 291.11133 z M 749.27734 291.11133 L 764.55664 291.11133 L 756.91797 304.3418 L 749.27734 291.11133 z M 780.7207 291.11133 L 812.16406 291.11133 L 827.88477 318.3418 L 812.16406 345.57227 L 780.7207 345.57227 L 765 318.3418 L 780.7207 291.11133 z M 828.33008 291.11133 L 843.60742 291.11133 L 835.96875 304.3418 L 828.33008 291.11133 z M 859.77148 291.11133 L 891.21484 291.11133 L 906.93555 318.3418 L 891.21484 345.57227 L 859.77344 345.57227 L 844.05078 318.3418 L 859.77148 291.11133 z M 203.55859 332.3418 L 211.19727 345.57227 L 195.91797 345.57227 L 203.55859 332.3418 z M 282.60938 332.3418 L 290.24805 345.57227 L 274.9707 345.57227 L 282.60938 332.3418 z M 361.66016 332.3418 L 369.29883 345.57227 L 354.02148 345.57227 L 361.66016 332.3418 z M 440.71094 332.3418 L 448.34961 345.57227 L 433.07227 345.57227 L 440.71094 332.3418 z M 519.76172 332.3418 L 527.40234 345.57227 L 512.12305 345.57227 L 519.76172 332.3418 z M 598.8125 332.3418 L 606.45312 345.57227 L 591.17383 345.57227 L 598.8125 332.3418 z M 677.86523 332.3418 L 685.50391 345.57227 L 670.22656 345.57227 L 677.86523 332.3418 z M 756.91797 332.3418 L 764.55664 345.57227 L 749.27734 345.57227 L 756.91797 332.3418 z M 835.96875 332.3418 L 843.60742 345.57227 L 828.33008 345.57227 L 835.96875 332.3418 z M 124.50586 332.34375 L 132.14453 345.57227 L 116.86719 345.57227 L 124.50586 332.34375 z M 108.78516 359.57227 L 140.22656 359.57227 L 140.22852 359.57227 L 155.94922 386.80273 L 140.22852 414.03125 L 108.78516 414.03125 L 93.064453 386.80273 L 108.78516 359.57227 z M 156.39258 359.57227 L 171.66992 359.57227 L 164.03125 372.80273 L 156.39258 359.57227 z M 187.83594 359.57227 L 219.2793 359.57227 L 235 386.80273 L 219.2793 414.03125 L 187.83594 414.03125 L 172.11523 386.80273 L 187.83594 359.57227 z M 235.44336 359.57227 L 250.7207 359.57227 L 243.08203 372.80273 L 235.44336 359.57227 z M 266.88672 359.57227 L 298.33008 359.57227 L 314.05078 386.80273 L 298.33008 414.03125 L 266.88672 414.03125 L 251.16602 386.80273 L 266.88672 359.57227 z M 314.49609 359.57227 L 329.77344 359.57227 L 322.13477 372.80273 L 314.49609 359.57227 z M 345.9375 359.57227 L 345.93945 359.57227 L 377.38086 359.57227 L 393.10352 386.80273 L 377.38281 414.03125 L 377.38086 414.03125 L 345.9375 414.03125 L 330.2168 386.80273 L 345.9375 359.57227 z M 393.54688 359.57227 L 408.82617 359.57227 L 401.1875 372.80273 L 393.54688 359.57227 z M 424.99023 359.57227 L 456.43164 359.57227 L 472.1543 386.80273 L 456.43164 414.03125 L 424.99023 414.03125 L 409.26953 386.80273 L 424.99023 359.57227 z M 472.59766 359.57227 L 487.87695 359.57227 L 480.23828 372.80273 L 472.59766 359.57227 z M 504.04102 359.57227 L 535.48438 359.57227 L 551.20703 386.80273 L 535.48438 414.03125 L 504.04102 414.03125 L 488.32031 386.80273 L 504.04102 359.57227 z M 551.65039 359.57227 L 566.92773 359.57227 L 559.28906 372.80273 L 551.65039 359.57227 z M 583.0918 359.57227 L 614.53516 359.57227 L 630.25781 386.80273 L 614.53516 414.03125 L 583.0918 414.03125 L 567.37305 386.80273 L 583.0918 359.57227 z M 630.70117 359.57227 L 645.98047 359.57227 L 638.33984 372.80273 L 630.70117 359.57227 z M 662.14453 359.57227 L 693.58594 359.57227 L 709.30859 386.80273 L 693.58594 414.03125 L 662.14453 414.03125 L 646.42383 386.80273 L 662.14453 359.57227 z M 709.75195 359.57227 L 725.03125 359.57227 L 717.39062 372.80273 L 709.75195 359.57227 z M 741.19531 359.57227 L 772.63867 359.57227 L 788.35938 386.80273 L 772.63867 414.03125 L 741.19531 414.03125 L 725.47461 386.80273 L 741.19531 359.57227 z M 788.80273 359.57227 L 804.08203 359.57227 L 796.44141 372.80273 L 788.80273 359.57227 z M 820.24805 359.57227 L 851.68945 359.57227 L 867.41016 386.80273 L 851.68945 414.03125 L 820.24805 414.03125 L 804.52539 386.80273 L 820.24805 359.57227 z M 867.85547 359.57227 L 883.13281 359.57227 L 875.49414 372.80273 L 867.85547 359.57227 z M 899.29883 359.57227 L 930.74219 359.57227 L 946.46289 386.80273 L 930.74219 414.03125 L 899.29883 414.03125 L 883.57617 386.80273 L 899.29883 359.57227 z M 401.18555 400.80078 L 408.82422 414.03125 L 393.54688 414.03125 L 401.18555 400.80078 z M 164.03125 400.80273 L 171.66992 414.03125 L 156.39453 414.03125 L 164.03125 400.80273 z M 243.08398 400.80273 L 250.7207 414.03125 L 235.44531 414.03125 L 243.08398 400.80273 z M 322.13477 400.80273 L 329.77148 414.03125 L 314.49609 414.03125 L 322.13477 400.80273 z M 480.23828 400.80273 L 487.875 414.03125 L 472.59961 414.03125 L 480.23828 400.80273 z M 559.28906 400.80273 L 566.92578 414.03125 L 551.65039 414.03125 L 559.28906 400.80273 z M 638.33984 400.80273 L 645.97852 414.03125 L 630.70312 414.03125 L 638.33984 400.80273 z M 717.39062 400.80273 L 725.0293 414.03125 L 709.75391 414.03125 L 717.39062 400.80273 z M 796.44141 400.80273 L 804.08008 414.03125 L 788.80469 414.03125 L 796.44141 400.80273 z M 875.49219 400.80273 L 883.13086 414.03125 L 867.85547 414.03125 L 875.49219 400.80273 z M 69.257812 428.03125 L 100.70117 428.03125 L 116.42383 455.26172 L 100.70117 482.49219 L 69.257812 482.49219 L 53.537109 455.26172 L 69.257812 428.03125 z M 116.86719 428.03125 L 132.14648 428.03125 L 124.50781 441.26172 L 116.86719 428.03125 z M 148.31055 428.03125 L 179.75195 428.03125 L 195.47461 455.26172 L 179.75391 482.49219 L 179.75195 482.49219 L 148.31055 482.49219 L 132.58984 455.26172 L 148.31055 428.03125 z M 195.91797 428.03125 L 211.19531 428.03125 L 203.55664 441.26172 L 195.91797 428.03125 z M 227.36133 428.03125 L 258.80469 428.03125 L 274.52539 455.26172 L 258.80469 482.49219 L 227.36133 482.49219 L 211.64062 455.26172 L 227.36133 428.03125 z M 274.96875 428.03125 L 290.24805 428.03125 L 282.60938 441.26172 L 274.96875 428.03125 z M 306.41406 428.03125 L 337.85547 428.03125 L 353.57617 455.26172 L 337.85547 482.49219 L 306.41406 482.49219 L 290.69141 455.26172 L 306.41406 428.03125 z M 354.01953 428.03125 L 369.29883 428.03125 L 361.66016 441.26172 L 354.01953 428.03125 z M 385.46484 428.03125 L 416.9082 428.03125 L 432.62891 455.26172 L 416.9082 482.49219 L 385.46484 482.49219 L 369.74219 455.26172 L 385.46484 428.03125 z M 433.07227 428.03125 L 448.34961 428.03125 L 440.71094 441.26172 L 433.07227 428.03125 z M 464.51562 428.03125 L 495.95898 428.03125 L 511.67969 455.26172 L 495.95898 482.49219 L 464.51562 482.49219 L 448.79297 455.26172 L 464.51562 428.03125 z M 512.12305 428.03125 L 527.40234 428.03125 L 519.76172 441.26172 L 512.12305 428.03125 z M 543.56836 428.03125 L 575.00977 428.03125 L 590.73047 455.26172 L 575.00977 482.49219 L 543.56836 482.49219 L 543.56641 482.49219 L 527.8457 455.26172 L 543.56836 428.03125 z M 591.17383 428.03125 L 606.45312 428.03125 L 598.8125 441.26172 L 591.17383 428.03125 z M 622.61914 428.03125 L 654.0625 428.03125 L 669.7832 455.26172 L 654.06055 482.49219 L 622.61914 482.49219 L 606.89844 455.26172 L 622.61914 428.03125 z M 670.22656 428.03125 L 685.50391 428.03125 L 677.86523 441.26172 L 670.22656 428.03125 z M 701.66992 428.03125 L 733.11328 428.03125 L 748.83398 455.26172 L 733.11328 482.49219 L 701.66992 482.49219 L 701.66797 482.49219 L 685.94922 455.26172 L 701.66992 428.03125 z M 749.27734 428.03125 L 764.55664 428.03125 L 756.91797 441.26172 L 749.27734 428.03125 z M 780.7207 428.03125 L 812.16406 428.03125 L 827.88477 455.26172 L 812.16406 482.49219 L 780.7207 482.49219 L 765 455.26172 L 780.7207 428.03125 z M 828.33008 428.03125 L 843.60742 428.03125 L 835.96875 441.26172 L 828.33008 428.03125 z M 859.77148 428.03125 L 891.21484 428.03125 L 906.93555 455.26172 L 891.21484 482.49219 L 859.77344 482.49219 L 844.05078 455.26172 L 859.77148 428.03125 z M 124.50586 469.26172 L 132.14453 482.49219 L 116.86719 482.49219 L 124.50586 469.26172 z M 203.55664 469.26172 L 211.19727 482.49219 L 195.91797 482.49219 L 203.55664 469.26172 z M 282.60938 469.26172 L 290.24805 482.49219 L 274.96875 482.49219 L 282.60938 469.26172 z M 361.66016 469.26172 L 369.29883 482.49219 L 354.02148 482.49219 L 361.66016 469.26172 z M 440.71094 469.26172 L 448.34961 482.49219 L 433.07227 482.49219 L 440.71094 469.26172 z M 519.76367 469.26172 L 527.40234 482.49219 L 512.125 482.49219 L 519.76367 469.26172 z M 598.81445 469.26172 L 606.45312 482.49219 L 591.17383 482.49219 L 598.81445 469.26172 z M 677.86523 469.26172 L 685.50391 482.49219 L 670.22656 482.49219 L 677.86523 469.26172 z M 756.91797 469.26172 L 764.55664 482.49219 L 749.27734 482.49219 L 756.91797 469.26172 z M 835.96875 469.26172 L 843.60742 482.49219 L 828.33008 482.49219 L 835.96875 469.26172 z M 108.78516 496.49219 L 140.22656 496.49219 L 140.22852 496.49219 L 155.94922 523.72266 L 140.22852 550.95312 L 108.78516 550.95312 L 93.064453 523.72266 L 108.78516 496.49219 z M 156.39258 496.49219 L 171.66992 496.49219 L 164.03125 509.72266 L 156.39258 496.49219 z M 187.83594 496.49219 L 219.2793 496.49219 L 235 523.72266 L 219.2793 550.95312 L 187.83594 550.95312 L 172.11523 523.72266 L 187.83594 496.49219 z M 235.44336 496.49219 L 250.72266 496.49219 L 243.08203 509.72266 L 235.44336 496.49219 z M 266.88672 496.49219 L 298.33008 496.49219 L 314.05078 523.72266 L 298.33008 550.95312 L 266.88672 550.95312 L 251.16602 523.72266 L 266.88672 496.49219 z M 314.49609 496.49219 L 329.77344 496.49219 L 322.13477 509.72266 L 314.49609 496.49219 z M 345.9375 496.49219 L 345.93945 496.49219 L 377.38086 496.49219 L 377.38281 496.49219 L 393.10352 523.72266 L 377.38086 550.95312 L 345.9375 550.95312 L 330.2168 523.72266 L 345.9375 496.49219 z M 393.54688 496.49219 L 408.82617 496.49219 L 401.1875 509.72266 L 393.54688 496.49219 z M 424.99023 496.49219 L 456.43164 496.49219 L 472.1543 523.72266 L 456.43164 550.95312 L 424.99023 550.95312 L 409.26953 523.72266 L 424.99023 496.49219 z M 472.59766 496.49219 L 487.875 496.49219 L 480.23633 509.72266 L 472.59766 496.49219 z M 504.04102 496.49219 L 535.48438 496.49219 L 551.20703 523.72266 L 535.48438 550.95312 L 504.04102 550.95312 L 488.32031 523.72266 L 504.04102 496.49219 z M 551.65039 496.49219 L 566.92773 496.49219 L 559.28906 509.72266 L 551.65039 496.49219 z M 583.0918 496.49219 L 614.53516 496.49219 L 630.25781 523.72266 L 614.53516 550.95312 L 583.0918 550.95312 L 567.37109 523.72266 L 583.0918 496.49219 z M 630.70117 496.49219 L 645.98047 496.49219 L 638.33984 509.72266 L 630.70117 496.49219 z M 662.14453 496.49219 L 693.58594 496.49219 L 709.30859 523.72266 L 693.58594 550.95312 L 662.14453 550.95312 L 646.42383 523.72266 L 662.14453 496.49219 z M 709.75195 496.49219 L 725.0293 496.49219 L 717.39062 509.72266 L 709.75195 496.49219 z M 741.19531 496.49219 L 772.63867 496.49219 L 788.35938 523.72266 L 772.63867 550.95312 L 741.19531 550.95312 L 725.47461 523.72266 L 741.19531 496.49219 z M 788.80273 496.49219 L 804.08203 496.49219 L 796.44141 509.72266 L 788.80273 496.49219 z M 820.24805 496.49219 L 851.68945 496.49219 L 867.41016 523.72266 L 851.68945 550.95312 L 820.24805 550.95312 L 804.52539 523.72266 L 820.24805 496.49219 z M 867.85547 496.49219 L 883.13281 496.49219 L 875.49414 509.72266 L 867.85547 496.49219 z M 899.29883 496.49219 L 930.74219 496.49219 L 946.46289 523.72266 L 930.74219 550.95312 L 899.29883 550.95312 L 883.57617 523.72266 L 899.29883 496.49219 z M 164.03125 537.72266 L 171.66992 550.95312 L 156.39258 550.95312 L 164.03125 537.72266 z M 243.08398 537.72266 L 250.72266 550.95312 L 235.44531 550.95312 L 243.08398 537.72266 z M 322.13477 537.72266 L 329.77344 550.95312 L 314.49609 550.95312 L 322.13477 537.72266 z M 401.1875 537.72266 L 408.82617 550.95312 L 393.54688 550.95312 L 401.1875 537.72266 z M 480.23828 537.72266 L 487.87695 550.95312 L 472.59766 550.95312 L 480.23828 537.72266 z M 559.28906 537.72266 L 566.92773 550.95312 L 551.65039 550.95312 L 559.28906 537.72266 z M 638.33984 537.72266 L 645.97852 550.95312 L 630.70117 550.95312 L 638.33984 537.72266 z M 717.39062 537.72266 L 725.03125 550.95312 L 709.75195 550.95312 L 717.39062 537.72266 z M 796.44141 537.72266 L 804.08203 550.95312 L 788.80273 550.95312 L 796.44141 537.72266 z M 875.49219 537.72266 L 883.13281 550.95312 L 867.85352 550.95312 L 875.49219 537.72266 z M 69.257812 564.95312 L 100.70117 564.95312 L 116.42383 592.18359 L 100.70117 619.41406 L 69.257812 619.41406 L 53.537109 592.18359 L 69.257812 564.95312 z M 116.86719 564.95312 L 132.14648 564.95312 L 124.50781 578.18359 L 116.86719 564.95312 z M 148.31055 564.95312 L 179.75195 564.95312 L 195.47461 592.18359 L 179.75195 619.41406 L 148.31055 619.41406 L 132.58984 592.18359 L 148.31055 564.95312 z M 195.91797 564.95312 L 211.19531 564.95312 L 203.55664 578.18359 L 195.91797 564.95312 z M 227.36133 564.95312 L 258.80469 564.95312 L 274.52539 592.18359 L 258.80469 619.41406 L 227.36133 619.41406 L 211.64062 592.18359 L 227.36133 564.95312 z M 274.96875 564.95312 L 290.24805 564.95312 L 282.60938 578.18359 L 274.96875 564.95312 z M 306.41406 564.95312 L 337.85547 564.95312 L 353.57617 592.18359 L 337.85547 619.41406 L 306.41406 619.41406 L 290.69141 592.18359 L 306.41406 564.95312 z M 354.02148 564.95312 L 369.29883 564.95312 L 361.66016 578.18359 L 354.02148 564.95312 z M 385.46484 564.95312 L 416.9082 564.95312 L 432.62891 592.18359 L 416.9082 619.41406 L 385.46484 619.41406 L 369.74219 592.18359 L 385.46484 564.95312 z M 433.07227 564.95312 L 448.34961 564.95312 L 440.71094 578.18359 L 433.07227 564.95312 z M 464.51562 564.95312 L 495.95898 564.95312 L 511.67969 592.18359 L 495.95898 619.41406 L 464.51562 619.41406 L 448.79297 592.18359 L 464.51562 564.95312 z M 512.12305 564.95312 L 527.40039 564.95312 L 519.76172 578.18359 L 512.12305 564.95312 z M 543.56641 564.95312 L 543.56836 564.95312 L 575.00977 564.95312 L 590.73047 592.18359 L 575.00977 619.41406 L 543.56836 619.41406 L 527.8457 592.18359 L 543.56641 564.95312 z M 591.17383 564.95312 L 606.45312 564.95312 L 598.8125 578.18359 L 591.17383 564.95312 z M 622.61914 564.95312 L 654.0625 564.95312 L 669.7832 592.18359 L 654.06055 619.41406 L 622.61914 619.41406 L 606.89844 592.18359 L 622.61914 564.95312 z M 670.22656 564.95312 L 685.50391 564.95312 L 677.86523 578.18359 L 670.22656 564.95312 z M 701.66992 564.95312 L 733.11328 564.95312 L 748.83398 592.18359 L 733.11328 619.41406 L 701.66992 619.41406 L 685.94922 592.18359 L 701.66992 564.95312 z M 749.27734 564.95312 L 764.55664 564.95312 L 756.91797 578.18359 L 749.27734 564.95312 z M 780.7207 564.95312 L 812.16406 564.95312 L 827.88477 592.18359 L 812.16406 619.41406 L 780.7207 619.41406 L 765 592.18359 L 780.7207 564.95312 z M 828.33008 564.95312 L 843.60742 564.95312 L 835.96875 578.18359 L 828.33008 564.95312 z M 859.77148 564.95312 L 891.21484 564.95312 L 906.93555 592.18359 L 891.21484 619.41406 L 859.77344 619.41406 L 844.05078 592.18359 L 859.77148 564.95312 z M 203.55859 606.18359 L 211.19727 619.41406 L 195.91797 619.41406 L 203.55859 606.18359 z M 282.60938 606.18359 L 290.24805 619.41406 L 274.96875 619.41406 L 282.60938 606.18359 z M 361.66016 606.18359 L 369.29883 619.41406 L 354.02148 619.41406 L 361.66016 606.18359 z M 440.71094 606.18359 L 448.34961 619.41406 L 433.07227 619.41406 L 440.71094 606.18359 z M 519.76172 606.18359 L 527.40234 619.41406 L 512.12305 619.41406 L 519.76172 606.18359 z M 598.81445 606.18359 L 606.45312 619.41406 L 591.17383 619.41406 L 598.81445 606.18359 z M 677.86523 606.18359 L 685.50391 619.41406 L 670.22656 619.41406 L 677.86523 606.18359 z M 756.91797 606.18359 L 764.55664 619.41406 L 749.27734 619.41406 L 756.91797 606.18359 z M 835.96875 606.18359 L 843.60742 619.41406 L 828.33008 619.41406 L 835.96875 606.18359 z M 124.50586 606.18555 L 132.14453 619.41406 L 116.86719 619.41406 L 124.50586 606.18555 z M 108.78516 633.41406 L 140.22656 633.41406 L 140.22852 633.41406 L 155.94922 660.64453 L 140.22852 687.87305 L 108.78516 687.87305 L 93.064453 660.64453 L 108.78516 633.41406 z M 156.39258 633.41406 L 171.66992 633.41406 L 164.03125 646.64453 L 156.39258 633.41406 z M 187.83594 633.41406 L 219.2793 633.41406 L 235 660.64453 L 219.2793 687.87305 L 187.83594 687.87305 L 172.11523 660.64453 L 187.83594 633.41406 z M 235.44336 633.41406 L 250.72266 633.41406 L 243.08203 646.64453 L 235.44336 633.41406 z M 266.88672 633.41406 L 298.33008 633.41406 L 314.05078 660.64453 L 298.33203 687.87305 L 298.33008 687.87305 L 266.88672 687.87305 L 251.16602 660.64453 L 266.88672 633.41406 z M 314.49609 633.41406 L 329.77344 633.41406 L 322.13477 646.64453 L 314.49609 633.41406 z M 345.9375 633.41406 L 345.93945 633.41406 L 377.38086 633.41406 L 393.10156 660.64453 L 377.38086 687.87305 L 345.9375 687.87305 L 330.2168 660.64453 L 345.9375 633.41406 z M 393.54688 633.41406 L 408.82422 633.41406 L 401.18555 646.64453 L 393.54688 633.41406 z M 424.99023 633.41406 L 456.43164 633.41406 L 472.1543 660.64453 L 456.43164 687.87305 L 424.99023 687.87305 L 409.26953 660.64453 L 424.99023 633.41406 z M 472.59766 633.41406 L 487.875 633.41406 L 480.23633 646.64453 L 472.59766 633.41406 z M 504.04102 633.41406 L 535.48438 633.41406 L 551.20703 660.64453 L 535.48438 687.87305 L 504.04102 687.87305 L 488.32031 660.64453 L 504.04102 633.41406 z M 551.65039 633.41406 L 566.92773 633.41406 L 559.28906 646.64453 L 551.65039 633.41406 z M 583.0918 633.41406 L 614.53516 633.41406 L 614.53711 633.41406 L 630.25781 660.64453 L 614.53516 687.87305 L 583.0918 687.87305 L 567.37109 660.64453 L 583.0918 633.41406 z M 630.70117 633.41406 L 645.97852 633.41406 L 638.33984 646.64453 L 630.70117 633.41406 z M 662.14453 633.41406 L 693.58594 633.41406 L 709.30859 660.64453 L 693.58594 687.87305 L 662.14453 687.87305 L 646.42383 660.64453 L 662.14453 633.41406 z M 709.75195 633.41406 L 725.03125 633.41406 L 717.39062 646.64453 L 709.75195 633.41406 z M 741.19531 633.41406 L 772.63867 633.41406 L 788.35938 660.64453 L 772.63867 687.87305 L 741.19531 687.87305 L 725.47461 660.64453 L 741.19531 633.41406 z M 788.80273 633.41406 L 804.08203 633.41406 L 796.44141 646.64453 L 788.80273 633.41406 z M 820.24805 633.41406 L 851.68945 633.41406 L 867.41016 660.64453 L 851.68945 687.87305 L 820.24805 687.87305 L 804.52539 660.64453 L 820.24805 633.41406 z M 867.85352 633.41406 L 883.13281 633.41406 L 875.49219 646.64453 L 867.85352 633.41406 z M 899.29883 633.41406 L 930.74219 633.41406 L 946.46289 660.64453 L 930.74219 687.87305 L 899.29883 687.87305 L 883.57617 660.64453 L 899.29883 633.41406 z M 559.28906 674.64258 L 566.92773 687.87305 L 551.65039 687.87305 L 559.28906 674.64258 z M 164.03125 674.64453 L 171.66992 687.87305 L 156.39453 687.87305 L 164.03125 674.64453 z M 243.08203 674.64453 L 250.7207 687.87305 L 235.44531 687.87305 L 243.08203 674.64453 z M 322.13477 674.64453 L 329.77148 687.87305 L 314.49609 687.87305 L 322.13477 674.64453 z M 401.1875 674.64453 L 408.82422 687.87305 L 393.54883 687.87305 L 401.1875 674.64453 z M 480.23828 674.64453 L 487.875 687.87305 L 472.59961 687.87305 L 480.23828 674.64453 z M 638.33984 674.64453 L 645.97852 687.87305 L 630.70312 687.87305 L 638.33984 674.64453 z M 717.39062 674.64453 L 725.0293 687.87305 L 709.75391 687.87305 L 717.39062 674.64453 z M 796.44336 674.64453 L 804.08008 687.87305 L 788.80469 687.87305 L 796.44336 674.64453 z M 875.49414 674.64453 L 883.13086 687.87305 L 867.85547 687.87305 L 875.49414 674.64453 z M 69.257812 701.87305 L 100.70117 701.87305 L 116.42383 729.10352 L 100.70117 756.33594 L 69.257812 756.33594 L 53.537109 729.10352 L 69.257812 701.87305 z M 116.86719 701.87305 L 132.14648 701.87305 L 124.50781 715.10352 L 116.86719 701.87305 z M 148.31055 701.87305 L 179.75195 701.87305 L 195.47461 729.10352 L 179.75195 756.33594 L 148.31055 756.33594 L 132.58984 729.10352 L 148.31055 701.87305 z M 195.91797 701.87305 L 211.19727 701.87305 L 203.55859 715.10352 L 195.91797 701.87305 z M 227.36133 701.87305 L 258.80469 701.87305 L 274.52539 729.10352 L 258.80469 756.33594 L 227.36133 756.33594 L 211.64062 729.10352 L 227.36133 701.87305 z M 274.96875 701.87305 L 290.24805 701.87305 L 282.60938 715.10352 L 274.96875 701.87305 z M 306.41406 701.87305 L 337.85547 701.87305 L 353.57617 729.10352 L 337.85547 756.33594 L 306.41406 756.33594 L 290.69141 729.10352 L 306.41406 701.87305 z M 354.01953 701.87305 L 369.29883 701.87305 L 361.66016 715.10352 L 354.01953 701.87305 z M 385.46484 701.87305 L 416.9082 701.87305 L 432.62891 729.10352 L 416.9082 756.33594 L 385.46484 756.33594 L 385.46289 756.33594 L 369.74219 729.10352 L 385.46484 701.87305 z M 433.07227 701.87305 L 448.34961 701.87305 L 440.71094 715.10352 L 433.07227 701.87305 z M 464.51562 701.87305 L 495.95898 701.87305 L 511.67969 729.10352 L 495.95898 756.33594 L 464.51562 756.33594 L 448.79297 729.10352 L 464.51562 701.87305 z M 512.12305 701.87305 L 527.40234 701.87305 L 519.76172 715.10352 L 512.12305 701.87305 z M 543.56836 701.87305 L 575.00977 701.87305 L 590.73047 729.10352 L 575.00977 756.33594 L 543.56836 756.33594 L 527.8457 729.10352 L 543.56836 701.87305 z M 591.17383 701.87305 L 606.45312 701.87305 L 598.8125 715.10352 L 591.17383 701.87305 z M 622.61914 701.87305 L 654.0625 701.87305 L 669.7832 729.10352 L 654.06055 756.33594 L 622.61914 756.33594 L 622.61719 756.33594 L 606.89648 729.10352 L 622.61914 701.87305 z M 670.22656 701.87305 L 685.50391 701.87305 L 677.86523 715.10352 L 670.22656 701.87305 z M 701.66992 701.87305 L 733.11328 701.87305 L 748.83398 729.10352 L 733.11328 756.33594 L 701.66992 756.33594 L 685.94922 729.10352 L 701.66992 701.87305 z M 749.27734 701.87305 L 764.55664 701.87305 L 756.91797 715.10352 L 749.27734 701.87305 z M 780.7207 701.87305 L 812.16406 701.87305 L 827.88477 729.10352 L 812.16406 756.33594 L 780.7207 756.33594 L 765 729.10352 L 780.7207 701.87305 z M 828.33008 701.87305 L 843.60742 701.87305 L 835.96875 715.10352 L 828.33008 701.87305 z M 859.77148 701.87305 L 891.21484 701.87305 L 906.9375 729.10352 L 891.2168 756.33594 L 891.21484 756.33594 L 859.77344 756.33594 L 844.05078 729.10352 L 859.77148 701.87305 z M 203.55859 743.10352 L 211.19727 756.33594 L 195.91797 756.33594 L 203.55859 743.10352 z M 282.60938 743.10352 L 290.24805 756.33594 L 274.96875 756.33594 L 282.60938 743.10352 z M 361.66016 743.10352 L 369.29883 756.33594 L 354.02148 756.33594 L 361.66016 743.10352 z M 440.71094 743.10352 L 448.34961 756.33594 L 433.07227 756.33594 L 440.71094 743.10352 z M 519.76172 743.10352 L 527.40234 756.33594 L 512.12305 756.33594 L 519.76172 743.10352 z M 598.81445 743.10352 L 606.45312 756.33594 L 591.17578 756.33594 L 598.81445 743.10352 z M 756.91797 743.10352 L 764.55664 756.33594 L 749.2793 756.33594 L 756.91797 743.10352 z M 835.9668 743.10352 L 843.60742 756.33594 L 828.32812 756.33594 L 835.9668 743.10352 z M 124.50586 743.10547 L 132.14453 756.33594 L 116.86719 756.33594 L 124.50586 743.10547 z M 677.86523 743.10547 L 685.50391 756.33594 L 670.22656 756.33594 L 677.86523 743.10547 z M 108.78516 770.33594 L 140.22656 770.33594 L 140.22852 770.33594 L 155.94922 797.56445 L 140.22852 824.79492 L 108.78516 824.79492 L 108.7832 824.79492 L 93.0625 797.56445 L 108.78516 770.33594 z M 156.39453 770.33594 L 171.66992 770.33594 L 164.03125 783.56445 L 156.39453 770.33594 z M 187.83594 770.33594 L 219.2793 770.33594 L 235 797.56445 L 219.2793 824.79492 L 187.83594 824.79492 L 172.11523 797.56445 L 187.83594 770.33594 z M 235.44531 770.33594 L 250.7207 770.33594 L 243.08203 783.56445 L 235.44531 770.33594 z M 266.88672 770.33594 L 298.33008 770.33594 L 314.05078 797.56445 L 298.33008 824.79492 L 266.88672 824.79492 L 251.16602 797.56445 L 266.88672 770.33594 z M 314.49609 770.33594 L 329.77148 770.33594 L 322.13477 783.56445 L 314.49609 770.33594 z M 345.9375 770.33594 L 345.93945 770.33594 L 377.38086 770.33594 L 393.10352 797.56445 L 377.38086 824.79492 L 345.9375 824.79492 L 330.2168 797.56445 L 345.9375 770.33594 z M 393.54883 770.33594 L 408.82422 770.33594 L 401.1875 783.56445 L 393.54883 770.33594 z M 424.99023 770.33594 L 456.43164 770.33594 L 456.43359 770.33594 L 472.1543 797.56445 L 456.43164 824.79492 L 424.99023 824.79492 L 409.26953 797.56445 L 424.99023 770.33594 z M 472.59961 770.33594 L 487.875 770.33594 L 480.23828 783.56445 L 472.59961 770.33594 z M 504.04102 770.33594 L 535.48438 770.33594 L 551.20703 797.56445 L 535.48438 824.79492 L 504.04102 824.79492 L 488.32031 797.56445 L 504.04102 770.33594 z M 551.65039 770.33594 L 566.92773 770.33594 L 559.28906 783.56641 L 551.65039 770.33594 z M 583.0918 770.33594 L 614.53516 770.33594 L 614.53711 770.33594 L 630.25781 797.56445 L 614.53516 824.79492 L 583.0918 824.79492 L 567.37109 797.56445 L 583.0918 770.33594 z M 630.70312 770.33594 L 645.97852 770.33594 L 638.33984 783.56445 L 630.70312 770.33594 z M 662.14453 770.33594 L 693.58594 770.33594 L 709.30859 797.56445 L 693.58789 824.79492 L 693.58594 824.79492 L 662.14453 824.79492 L 646.42383 797.56445 L 662.14453 770.33594 z M 709.75391 770.33594 L 725.0293 770.33594 L 717.39062 783.56445 L 709.75391 770.33594 z M 741.19531 770.33594 L 772.63867 770.33594 L 788.35938 797.56445 L 772.63867 824.79492 L 741.19531 824.79492 L 725.47461 797.56445 L 741.19531 770.33594 z M 788.80469 770.33594 L 804.08008 770.33594 L 796.44141 783.56445 L 788.80469 770.33594 z M 820.24805 770.33594 L 851.68945 770.33594 L 867.41016 797.56445 L 851.68945 824.79492 L 820.24805 824.79492 L 804.52539 797.56445 L 820.24805 770.33594 z M 867.85547 770.33594 L 883.13086 770.33594 L 875.49219 783.56445 L 867.85547 770.33594 z M 899.29883 770.33594 L 930.74219 770.33594 L 946.46289 797.56445 L 930.74219 824.79492 L 899.29883 824.79492 L 883.57617 797.56445 L 899.29883 770.33594 z M 164.03125 811.56445 L 171.66992 824.79492 L 156.39258 824.79492 L 164.03125 811.56445 z M 243.08203 811.56445 L 250.72266 824.79492 L 235.44336 824.79492 L 243.08203 811.56445 z M 322.13477 811.56445 L 329.77344 824.79492 L 314.49609 824.79492 L 322.13477 811.56445 z M 401.1875 811.56445 L 408.82617 824.79492 L 393.54688 824.79492 L 401.1875 811.56445 z M 480.23828 811.56445 L 487.87695 824.79492 L 472.59766 824.79492 L 480.23828 811.56445 z M 559.28906 811.56445 L 566.92773 824.79492 L 551.65039 824.79492 L 559.28906 811.56445 z M 638.33984 811.56445 L 645.98047 824.79492 L 630.70117 824.79492 L 638.33984 811.56445 z M 717.39062 811.56445 L 725.03125 824.79492 L 709.75195 824.79492 L 717.39062 811.56445 z M 796.44336 811.56445 L 804.08203 824.79492 L 788.80469 824.79492 L 796.44336 811.56445 z M 875.49414 811.56445 L 883.13281 824.79492 L 867.85547 824.79492 L 875.49414 811.56445 z M 69.257812 838.79492 L 100.70117 838.79492 L 116.42383 866.02539 L 100.70117 893.25586 L 69.257812 893.25586 L 53.537109 866.02539 L 69.257812 838.79492 z M 116.86719 838.79492 L 132.14648 838.79492 L 124.50781 852.02539 L 116.86719 838.79492 z M 148.31055 838.79492 L 179.75195 838.79492 L 195.47461 866.02539 L 179.75195 893.25586 L 148.31055 893.25586 L 132.58984 866.02539 L 148.31055 838.79492 z M 195.91797 838.79492 L 211.19727 838.79492 L 203.55859 852.02539 L 195.91797 838.79492 z M 227.36133 838.79492 L 258.80469 838.79492 L 274.52539 866.02539 L 258.80469 893.25586 L 227.36133 893.25586 L 211.64062 866.02539 L 227.36133 838.79492 z M 274.96875 838.79492 L 290.24805 838.79492 L 282.60938 852.02539 L 274.96875 838.79492 z M 306.41406 838.79492 L 337.85547 838.79492 L 353.57617 866.02539 L 337.85547 893.25586 L 306.41211 893.25586 L 290.69141 866.02539 L 306.41406 838.79492 z M 354.01953 838.79492 L 369.29883 838.79492 L 361.66016 852.02539 L 354.01953 838.79492 z M 385.46484 838.79492 L 416.9082 838.79492 L 432.62891 866.02539 L 416.9082 893.25586 L 385.46289 893.25586 L 369.74219 866.02539 L 385.46484 838.79492 z M 433.07227 838.79492 L 448.34961 838.79492 L 440.71094 852.02539 L 433.07227 838.79492 z M 464.51562 838.79492 L 495.95898 838.79492 L 511.67969 866.02539 L 495.95898 893.25586 L 464.51562 893.25586 L 448.79297 866.02539 L 464.51562 838.79492 z M 512.12305 838.79492 L 527.40234 838.79492 L 519.76172 852.02539 L 512.12305 838.79492 z M 543.56836 838.79492 L 575.00977 838.79492 L 590.73047 866.02539 L 575.00977 893.25586 L 543.56836 893.25586 L 527.8457 866.02539 L 543.56836 838.79492 z M 591.17383 838.79492 L 606.45312 838.79492 L 598.8125 852.02539 L 591.17383 838.79492 z M 622.61914 838.79492 L 654.0625 838.79492 L 669.7832 866.02539 L 654.0625 893.25586 L 622.61914 893.25586 L 606.89648 866.02539 L 622.61914 838.79492 z M 670.22656 838.79492 L 685.50391 838.79492 L 677.86523 852.02539 L 670.22656 838.79492 z M 701.66992 838.79492 L 733.11328 838.79492 L 748.83398 866.02539 L 733.11328 893.25586 L 701.66992 893.25586 L 685.94922 866.02539 L 701.66992 838.79492 z M 749.27734 838.79492 L 764.55664 838.79492 L 756.91797 852.02539 L 749.27734 838.79492 z M 780.7207 838.79492 L 812.16406 838.79492 L 827.88477 866.02539 L 812.16406 893.25586 L 780.7207 893.25586 L 765 866.02539 L 780.7207 838.79492 z M 828.33008 838.79492 L 843.60742 838.79492 L 835.96875 852.02539 L 828.33008 838.79492 z M 859.77148 838.79492 L 891.21484 838.79492 L 906.9375 866.02539 L 891.2168 893.25586 L 859.77344 893.25586 L 844.05078 866.02539 L 859.77148 838.79492 z "
     id="path832" />
</svg>
