<?xml version="1.0" encoding="UTF-8" standalone="no"?>
<svg
   xmlns:dc="http://purl.org/dc/elements/1.1/"
   xmlns:cc="http://creativecommons.org/ns#"
   xmlns:rdf="http://www.w3.org/1999/02/22-rdf-syntax-ns#"
   xmlns:svg="http://www.w3.org/2000/svg"
   xmlns="http://www.w3.org/2000/svg"
   xmlns:sodipodi="http://sodipodi.sourceforge.net/DTD/sodipodi-0.dtd"
   xmlns:inkscape="http://www.inkscape.org/namespaces/inkscape"
   inkscape:version="1.0.1 (3bc2e813f5, 2020-09-07)"
   sodipodi:docname="1-uniform_n10.svg"
   id="svg70217"
   height="978.98535"
   width="1000.0"
   version="1.0">
  <metadata
     id="metadata70223">
    <rdf:RDF>
      <cc:Work
         rdf:about="">
        <dc:format>image/svg+xml</dc:format>
        <dc:type
           rdf:resource="http://purl.org/dc/dcmitype/StillImage" />
        <dc:title></dc:title>
      </cc:Work>
    </rdf:RDF>
  </metadata>
  <defs
     id="defs70221" />
  <sodipodi:namedview
     inkscape:current-layer="svg70217"
     inkscape:window-maximized="1"
     inkscape:window-y="-9"
     inkscape:window-x="-9"
     inkscape:cy="505.42778"
     inkscape:cx="275.0467"
     inkscape:zoom="0.73280022"
     showgrid="false"
     id="namedview70219"
     inkscape:window-height="1001"
     inkscape:window-width="1920"
     inkscape:pageshadow="2"
     inkscape:pageopacity="0"
     guidetolerance="10"
     gridtolerance="10"
     objecttolerance="10"
     borderopacity="1"
     inkscape:document-rotation="0"
     bordercolor="#666666"
     pagecolor="#ffffff" />
  <!-- X Coordinate transform: fx(x)=(x+132.5)*0.7905138-->
  <!-- Y Coordinate transform: fy(y)=(1119.2083-y)*0.7905138 -->
  <!-- Flac geometry view -->
  <path
     style="color:#000000;font-style:normal;font-variant:normal;font-weight:normal;font-stretch:normal;font-size:medium;line-height:normal;font-family:sans-serif;font-variant-ligatures:normal;font-variant-position:normal;font-variant-caps:normal;font-variant-numeric:normal;font-variant-alternates:normal;font-variant-east-asian:normal;font-feature-settings:normal;font-variation-settings:normal;text-indent:0;text-align:start;text-decoration:none;text-decoration-line:none;text-decoration-style:solid;text-decoration-color:#000000;letter-spacing:normal;word-spacing:normal;text-transform:none;writing-mode:lr-tb;direction:ltr;text-orientation:mixed;dominant-baseline:auto;baseline-shift:baseline;text-anchor:start;white-space:normal;shape-padding:0;shape-margin:0;inline-size:0;clip-rule:nonzero;display:inline;overflow:visible;visibility:visible;isolation:auto;mix-blend-mode:normal;color-interpolation:sRGB;color-interpolation-filters:linearRGB;solid-color:#000000;solid-opacity:1;vector-effect:none;fill:#000000;fill-opacity:1;fill-rule:nonzero;stroke:none;stroke-width:14;stroke-linecap:butt;stroke-linejoin:miter;stroke-miterlimit:4;stroke-dasharray:none;stroke-dashoffset:0;stroke-opacity:1;color-rendering:auto;image-rendering:auto;shape-rendering:auto;text-rendering:auto;enable-background:accumulate;stop-color:#000000;stop-opacity:1;opacity:1"
     d="M 203.55664 30.498047 L 183.79297 64.730469 L 177.73242 75.230469 L 171.66992 85.730469 L 159.99023 105.96094 L 151.9082 105.96094 L 128.54688 105.96094 L 124.50586 98.960938 L 112.82617 78.730469 L 116.86719 71.730469 L 108.7832 71.730469 L 104.74219 64.730469 L 100.70117 71.730469 L 53.091797 71.730469 L 76.896484 112.95898 L 72.855469 119.96094 L 61.175781 140.18945 L 53.091797 140.18945 L 57.132812 147.18945 L 53.091797 154.18945 L 61.175781 154.18945 L 72.855469 174.41992 L 33.330078 174.41992 L 39.392578 184.91992 L 57.132812 215.65039 L 53.091797 222.65039 L 41.412109 242.88086 L 33.330078 242.88086 L 37.371094 249.88086 L 33.330078 256.88086 L 41.414062 256.88086 L 57.134766 284.11133 L 33.330078 325.3418 L 72.855469 325.3418 L 53.091797 359.57227 L 100.70117 359.57227 L 104.74219 366.57031 L 104.74219 366.57227 L 116.42383 386.80273 L 112.38086 393.80273 L 100.70117 414.03125 L 92.619141 414.03125 L 69.257812 414.03125 L 65.216797 407.03125 L 61.175781 414.03125 L 53.091797 414.03125 L 57.132812 421.03125 L 33.330078 462.26172 L 80.939453 462.26172 L 84.980469 469.26172 L 96.660156 489.49219 L 92.619141 496.49219 L 80.9375 516.72266 L 72.855469 516.72266 L 33.330078 516.72266 L 53.091797 550.95312 L 59.154297 561.45312 L 65.216797 571.95312 L 76.896484 592.18359 L 72.855469 599.18359 L 61.175781 619.41406 L 53.091797 619.41406 L 57.132812 626.41406 L 53.091797 633.41406 L 61.175781 633.41406 L 72.855469 653.64453 L 33.330078 653.64453 L 39.392578 664.14453 L 57.132812 694.87305 L 53.091797 701.87305 L 41.412109 722.10352 L 33.330078 722.10352 L 37.371094 729.10352 L 33.330078 736.10352 L 41.414062 736.10352 L 57.132812 763.33398 L 33.330078 804.56445 L 45.455078 804.56445 L 72.855469 804.56445 L 53.091797 838.79492 L 65.216797 838.79492 L 100.70117 838.79492 L 104.74219 845.79297 L 104.74219 845.79492 L 116.42383 866.02539 L 112.38086 873.02539 L 100.70117 893.25586 L 92.619141 893.25586 L 53.091797 893.25586 L 59.154297 903.75586 L 84.980469 948.48633 L 104.74414 914.25586 L 124.50586 948.48633 L 148.31055 907.25586 L 156.39258 907.25586 L 179.75195 907.25586 L 183.79297 914.25391 L 183.79297 914.25586 L 203.55664 948.48633 L 223.32031 914.25586 L 229.38281 903.75586 L 235.44531 893.25586 L 247.125 873.02539 L 255.20703 873.02539 L 278.56836 873.02539 L 282.60938 880.02539 L 294.28906 900.25586 L 290.24805 907.25586 L 298.33203 907.25586 L 302.37305 914.25586 L 306.41406 907.25586 L 337.85547 907.25586 L 361.66016 948.48633 L 381.42383 914.25586 L 401.18555 948.48633 L 424.99023 907.25586 L 433.07422 907.25586 L 456.43359 907.25586 L 460.47461 914.25586 L 480.23633 948.48633 L 500 914.25586 L 506.0625 903.75586 L 512.125 893.25586 L 523.80469 873.02539 L 531.88672 873.02539 L 555.24609 873.02539 L 555.24805 873.02539 L 559.28906 880.02539 L 570.9668 900.25586 L 566.92578 907.25586 L 575.00977 907.25586 L 579.05078 914.25586 L 583.0918 907.25586 L 614.53516 907.25586 L 638.33984 948.48633 L 658.10156 914.25586 L 677.86523 948.48633 L 701.66992 907.25586 L 709.75195 907.25586 L 733.11328 907.25586 L 737.1543 914.25586 L 756.91797 948.48633 L 776.67969 914.25586 L 782.74219 903.75586 L 788.80469 893.25586 L 800.48438 873.02539 L 808.56836 873.02539 L 831.92578 873.02539 L 831.92773 873.02539 L 835.96875 880.02539 L 847.64844 900.25586 L 843.60742 907.25586 L 851.68945 907.25586 L 855.73047 914.25586 L 859.77148 907.25586 L 891.21484 907.25586 L 915.01953 948.48633 L 946.9082 893.25586 L 934.7832 893.25586 L 899.29688 893.25586 L 883.57617 866.02539 L 887.61914 859.02539 L 899.29883 838.79492 L 907.38086 838.79492 L 930.74219 838.79492 L 934.7832 845.79492 L 938.82422 838.79492 L 946.9082 838.79492 L 942.86719 831.79492 L 966.66992 790.56445 L 919.06055 790.56445 L 915.01953 783.56445 L 903.33984 763.33398 L 907.38086 756.33594 L 919.0625 736.10352 L 927.14453 736.10352 L 966.66992 736.10352 L 946.9082 701.87305 L 940.8457 691.37305 L 934.7832 680.87305 L 923.10352 660.64453 L 927.14453 653.64453 L 938.82422 633.41406 L 946.9082 633.41406 L 942.86719 626.41406 L 946.9082 619.41406 L 938.82422 619.41406 L 927.14453 599.18359 L 966.66992 599.18359 L 960.60742 588.68359 L 942.86523 557.95312 L 946.9082 550.95312 L 958.58789 530.72266 L 966.66992 530.72266 L 962.62891 523.72266 L 966.66992 516.72266 L 958.58594 516.72266 L 942.86719 489.49219 L 966.66992 448.26172 L 954.54492 448.26172 L 927.14453 448.26172 L 946.9082 414.03125 L 934.7832 414.03125 L 899.29883 414.03125 L 895.25781 407.0332 L 883.57812 386.80273 L 887.61914 379.80273 L 899.29883 359.57227 L 907.38086 359.57227 L 930.74219 359.57227 L 934.7832 366.57227 L 938.82422 359.57227 L 946.9082 359.57227 L 942.86719 352.57227 L 966.66992 311.3418 L 919.06055 311.3418 L 915.01953 304.3418 L 903.33984 284.11133 L 907.38086 277.11133 L 919.0625 256.88086 L 927.14453 256.88086 L 966.66992 256.88086 L 946.9082 222.65039 L 940.8457 212.15039 L 934.7832 201.65039 L 923.10352 181.41992 L 927.14453 174.41992 L 938.82422 154.18945 L 946.9082 154.18945 L 942.86719 147.18945 L 946.9082 140.18945 L 938.82422 140.18945 L 927.14453 119.96094 L 966.66992 119.96094 L 960.60742 109.46094 L 942.86523 78.730469 L 946.9082 71.730469 L 938.82422 71.730469 L 934.7832 64.730469 L 930.74219 71.730469 L 899.29688 71.730469 L 875.49414 30.498047 L 855.73047 64.730469 L 835.96875 30.498047 L 812.16406 71.730469 L 804.08203 71.730469 L 780.7207 71.730469 L 776.67969 64.730469 L 756.91797 30.498047 L 737.1543 64.730469 L 731.0918 75.230469 L 725.0293 85.730469 L 713.34961 105.96094 L 705.26562 105.96094 L 681.9082 105.96094 L 677.86523 98.958984 L 666.18555 78.728516 L 670.22656 71.730469 L 662.14453 71.730469 L 658.10352 64.730469 L 654.0625 71.730469 L 622.61719 71.730469 L 598.81445 30.498047 L 579.05078 64.728516 L 559.28906 30.498047 L 535.48438 71.730469 L 527.40234 71.730469 L 504.04102 71.730469 L 500 64.730469 L 480.23633 30.498047 L 460.47461 64.730469 L 454.41211 75.230469 L 448.34961 85.730469 L 436.66992 105.96094 L 428.58594 105.96094 L 405.22852 105.96094 L 405.22656 105.96094 L 401.18555 98.960938 L 389.50586 78.728516 L 393.54688 71.730469 L 385.46484 71.730469 L 381.42383 64.730469 L 377.38281 71.730469 L 345.93945 71.730469 L 322.13477 30.498047 L 302.37109 64.730469 L 282.60938 30.498047 L 258.80469 71.730469 L 250.7207 71.730469 L 227.36133 71.730469 L 223.32031 64.730469 L 203.55664 30.498047 z M 203.55664 58.498047 L 211.19531 71.730469 L 195.91797 71.730469 L 203.55664 58.498047 z M 282.60938 58.498047 L 290.24805 71.730469 L 274.9707 71.730469 L 282.60938 58.498047 z M 322.13281 58.498047 L 329.77344 71.730469 L 314.49609 71.730469 L 322.13281 58.498047 z M 598.81445 58.498047 L 606.45312 71.730469 L 591.17578 71.730469 L 598.81445 58.498047 z M 756.91797 58.498047 L 764.55469 71.730469 L 749.27734 71.730469 L 756.91797 58.498047 z M 875.49414 58.498047 L 883.13281 71.730469 L 867.85547 71.730469 L 875.49414 58.498047 z M 480.23633 58.5 L 487.875 71.730469 L 472.59766 71.730469 L 480.23633 58.5 z M 559.28906 58.5 L 566.92773 71.730469 L 551.65039 71.730469 L 559.28906 58.5 z M 835.96875 58.5 L 843.60742 71.730469 L 828.33008 71.730469 L 835.96875 58.5 z M 77.341797 85.730469 L 92.619141 85.730469 L 84.980469 98.958984 L 77.341797 85.730469 z M 195.91797 85.730469 L 211.19531 85.730469 L 203.55664 98.960938 L 195.91797 85.730469 z M 235.44531 85.730469 L 250.7207 85.730469 L 243.08203 98.960938 L 235.44531 85.730469 z M 274.9707 85.730469 L 290.24805 85.730469 L 282.60938 98.958984 L 274.9707 85.730469 z M 306.41211 85.730469 L 314.49609 85.730469 L 337.85742 85.730469 L 353.57617 112.95898 L 349.53516 119.96094 L 337.85547 140.18945 L 329.77344 140.18945 L 306.41406 140.18945 L 302.37305 133.19141 L 290.69336 112.96094 L 294.73438 105.96094 L 294.73242 105.96094 L 306.41211 85.730469 z M 354.02148 85.730469 L 369.29883 85.730469 L 361.66016 98.958984 L 354.02148 85.730469 z M 472.59961 85.730469 L 487.875 85.730469 L 480.23633 98.960938 L 472.59961 85.730469 z M 512.125 85.730469 L 527.40039 85.730469 L 519.76172 98.960938 L 512.125 85.730469 z M 551.65039 85.730469 L 566.92578 85.730469 L 559.28906 98.958984 L 551.65039 85.730469 z M 583.09375 85.730469 L 591.17578 85.730469 L 614.53711 85.730469 L 630.25586 112.95898 L 626.21484 119.96094 L 614.53516 140.18945 L 606.45312 140.18945 L 583.09375 140.18945 L 583.0918 140.18945 L 579.05078 133.18945 L 567.37305 112.96094 L 571.41406 105.96094 L 583.09375 85.730469 z M 630.70117 85.730469 L 645.97852 85.730469 L 638.33984 98.958984 L 630.70117 85.730469 z M 749.2793 85.730469 L 764.55469 85.730469 L 756.91602 98.960938 L 749.2793 85.730469 z M 788.80469 85.730469 L 804.08203 85.730469 L 796.44336 98.958984 L 788.80469 85.730469 z M 828.33008 85.730469 L 843.60547 85.730469 L 835.96875 98.958984 L 835.9668 98.960938 L 828.33008 85.730469 z M 859.77344 85.730469 L 867.85547 85.730469 L 891.2168 85.730469 L 906.9375 112.96094 L 902.89648 119.96094 L 891.2168 140.18945 L 883.13281 140.18945 L 859.77148 140.18945 L 855.73047 133.18945 L 844.05273 112.96094 L 848.0918 105.96094 L 859.77344 85.730469 z M 907.38086 85.730469 L 922.6582 85.730469 L 915.01953 98.958984 L 907.38086 85.730469 z M 104.74219 92.730469 L 112.38086 105.96094 L 97.105469 105.96094 L 104.74219 92.730469 z M 183.79297 92.730469 L 191.43164 105.96094 L 176.15625 105.96094 L 183.79297 92.730469 z M 223.32031 92.730469 L 230.95898 105.96094 L 215.68164 105.96094 L 223.32031 92.730469 z M 262.8457 92.730469 L 270.48438 105.96094 L 255.20703 105.96094 L 262.8457 92.730469 z M 381.42188 92.730469 L 389.06055 105.96094 L 373.78516 105.96094 L 381.42188 92.730469 z M 460.47461 92.730469 L 468.11328 105.96094 L 452.83594 105.96094 L 460.47461 92.730469 z M 500 92.730469 L 507.63867 105.96094 L 492.36133 105.96094 L 500 92.730469 z M 539.52539 92.730469 L 547.16406 105.96094 L 531.88672 105.96094 L 539.52539 92.730469 z M 658.10352 92.730469 L 665.74219 105.96094 L 650.46484 105.96094 L 658.10352 92.730469 z M 737.1543 92.730469 L 744.79297 105.96094 L 729.51562 105.96094 L 737.1543 92.730469 z M 776.67969 92.730469 L 784.31836 105.96094 L 769.04102 105.96094 L 776.67969 92.730469 z M 816.20508 92.730469 L 823.84375 105.96094 L 808.56641 105.96094 L 816.20508 92.730469 z M 934.7832 92.730469 L 942.42188 105.96094 L 927.14453 105.96094 L 934.7832 92.730469 z M 97.105469 119.96094 L 112.38086 119.96094 L 104.74219 133.18945 L 97.105469 119.96094 z M 136.63281 119.96094 L 151.90625 119.96094 L 144.26953 133.18945 L 136.63281 119.96094 z M 176.15625 119.96094 L 191.43164 119.96094 L 183.79297 133.18945 L 176.15625 119.96094 z M 207.59766 119.96094 L 215.68164 119.96094 L 239.04102 119.96094 L 239.04297 119.96094 L 243.08203 126.95898 L 254.76172 147.18945 L 250.7207 154.18945 L 239.04102 174.41992 L 230.95898 174.41992 L 207.59766 174.41992 L 203.55664 167.41992 L 191.87695 147.18945 L 195.91797 140.18945 L 207.59766 119.96094 z M 255.20898 119.96094 L 270.48242 119.96094 L 262.8457 133.18945 L 255.20898 119.96094 z M 373.78516 119.96094 L 389.06055 119.96094 L 381.42188 133.18945 L 373.78516 119.96094 z M 413.3125 119.96094 L 428.58594 119.96094 L 420.94922 133.18945 L 413.3125 119.96094 z M 452.83789 119.96094 L 468.11133 119.96094 L 460.47461 133.18945 L 452.83789 119.96094 z M 484.27734 119.96094 L 492.36133 119.96094 L 515.72266 119.96094 L 531.44141 147.18945 L 527.40234 154.18945 L 515.7207 174.41992 L 507.63867 174.41992 L 484.2793 174.41992 L 484.27734 174.41992 L 480.23633 167.41992 L 468.55664 147.18945 L 472.59766 140.18945 L 484.27734 119.96094 z M 531.88867 119.96094 L 547.16211 119.96094 L 539.52539 133.18945 L 531.88867 119.96094 z M 650.46484 119.96094 L 665.74023 119.96094 L 658.10352 133.19141 L 650.46484 119.96094 z M 689.99023 119.96094 L 705.26562 119.96094 L 697.62891 133.18945 L 697.62695 133.18945 L 689.99023 119.96094 z M 729.51758 119.96094 L 744.79102 119.96094 L 737.1543 133.18945 L 729.51758 119.96094 z M 760.95703 119.96094 L 769.04102 119.96094 L 792.40234 119.96094 L 796.44336 126.95898 L 808.12305 147.18945 L 804.08203 154.18945 L 792.40234 174.41992 L 784.31836 174.41992 L 760.95898 174.41992 L 756.91797 167.41992 L 745.23828 147.18945 L 749.2793 140.18945 L 760.95703 119.96094 z M 808.56836 119.96094 L 823.84375 119.96094 L 816.20703 133.18945 L 816.20508 133.18945 L 808.56836 119.96094 z M 164.0332 126.95898 L 171.66992 140.18945 L 156.39453 140.18945 L 164.0332 126.95898 z M 84.980469 126.96094 L 92.619141 140.18945 L 77.341797 140.18945 L 84.980469 126.96094 z M 124.50586 126.96094 L 132.14453 140.18945 L 116.86719 140.18945 L 124.50586 126.96094 z M 282.60938 126.96094 L 290.24805 140.18945 L 274.9707 140.18945 L 278.78906 133.57422 L 282.60938 126.96094 z M 361.66016 126.96094 L 369.29883 140.18945 L 354.02148 140.18945 L 361.66016 126.96094 z M 401.18555 126.96094 L 408.82422 140.18945 L 393.54688 140.18945 L 401.18555 126.96094 z M 440.71094 126.96094 L 448.34961 140.18945 L 433.07422 140.18945 L 440.71094 126.96094 z M 559.28906 126.96094 L 566.92578 140.18945 L 551.65039 140.18945 L 555.46875 133.57422 L 559.28906 126.96094 z M 638.33984 126.96094 L 645.97852 140.18945 L 630.70117 140.18945 L 638.33984 126.96094 z M 677.86523 126.96094 L 685.50391 140.18945 L 670.22852 140.18945 L 677.86523 126.96094 z M 717.39062 126.96094 L 725.0293 140.18945 L 709.75195 140.18945 L 717.39062 126.96094 z M 835.96875 126.96094 L 843.60547 140.18945 L 828.33008 140.18945 L 835.96875 126.96094 z M 915.01953 126.96094 L 922.6582 140.18945 L 907.38086 140.18945 L 915.01953 126.96094 z M 77.341797 154.18945 L 92.619141 154.18945 L 84.980469 167.41992 L 77.341797 154.18945 z M 108.78516 154.18945 L 116.86719 154.18945 L 140.22852 154.18945 L 144.26953 161.18945 L 155.94922 181.41992 L 155.94922 181.42188 L 151.9082 188.41992 L 140.22852 208.65039 L 132.14453 208.65039 L 108.78516 208.65039 L 108.7832 208.65039 L 104.74219 201.65039 L 93.0625 181.41992 L 97.103516 174.41992 L 108.78516 154.18945 z M 156.39453 154.18945 L 171.66992 154.18945 L 164.03125 167.41992 L 156.39453 154.18945 z M 274.9707 154.18945 L 290.24805 154.18945 L 282.60938 167.41992 L 274.9707 154.18945 z M 314.49609 154.18945 L 329.77148 154.18945 L 322.13477 167.41992 L 314.49609 154.18945 z M 354.02148 154.18945 L 369.29883 154.18945 L 361.66016 167.41992 L 354.02148 154.18945 z M 385.46484 154.18945 L 393.54688 154.18945 L 416.90625 154.18945 L 416.9082 154.18945 L 420.94922 161.18945 L 432.62695 181.41992 L 428.58594 188.41992 L 416.90625 208.65039 L 408.82422 208.65039 L 385.46484 208.65039 L 381.42383 201.65039 L 369.74414 181.41992 L 373.78516 174.41992 L 385.46484 154.18945 z M 433.07422 154.18945 L 448.34961 154.18945 L 440.71094 167.41992 L 433.07422 154.18945 z M 551.65039 154.18945 L 566.92578 154.18945 L 559.28906 167.41797 L 551.65039 154.18945 z M 591.17578 154.18945 L 606.45312 154.18945 L 598.81445 167.41992 L 591.17578 154.18945 z M 630.70117 154.18945 L 645.97852 154.18945 L 638.33984 167.41992 L 630.70117 154.18945 z M 662.14453 154.18945 L 670.22656 154.18945 L 693.58594 154.18945 L 697.62695 161.18945 L 709.30664 181.41992 L 705.26562 188.41992 L 693.58594 208.65039 L 685.50391 208.65039 L 662.14453 208.65039 L 658.10352 201.65039 L 646.42383 181.41992 L 650.46484 174.41992 L 662.14453 154.18945 z M 709.75195 154.18945 L 725.0293 154.18945 L 717.39062 167.41992 L 709.75195 154.18945 z M 828.33008 154.18945 L 843.60547 154.18945 L 835.96875 167.41992 L 828.33008 154.18945 z M 867.85547 154.18945 L 883.13281 154.18945 L 875.49414 167.41992 L 867.85547 154.18945 z M 907.38086 154.18945 L 922.6582 154.18945 L 915.01953 167.41992 L 907.38086 154.18945 z M 183.79297 161.18945 L 183.79492 161.18945 L 191.43164 174.41992 L 176.15625 174.41992 L 179.97461 167.80469 L 183.79297 161.18945 z M 262.8457 161.18945 L 270.48438 174.41992 L 255.20703 174.41992 L 262.8457 161.18945 z M 302.37109 161.18945 L 302.37305 161.18945 L 310.00977 174.41992 L 294.73438 174.41992 L 302.37109 161.18945 z M 341.89648 161.18945 L 349.53516 174.41992 L 334.25977 174.41992 L 341.89648 161.18945 z M 460.47461 161.18945 L 468.11328 174.41992 L 452.83594 174.41992 L 460.47461 161.18945 z M 539.52539 161.18945 L 547.16406 174.41992 L 531.88672 174.41992 L 539.52539 161.18945 z M 579.05078 161.18945 L 582.87109 167.80469 L 586.68945 174.41992 L 571.41406 174.41992 L 579.05078 161.18945 z M 618.57812 161.18945 L 626.21484 174.41992 L 610.93945 174.41992 L 618.57812 161.18945 z M 737.1543 161.18945 L 744.79297 174.41992 L 729.51562 174.41992 L 733.33594 167.80469 L 737.1543 161.18945 z M 816.20703 161.18945 L 823.84375 174.41992 L 808.56836 174.41992 L 816.20703 161.18945 z M 855.73047 161.18945 L 863.36914 174.41992 L 848.0918 174.41992 L 855.73047 161.18945 z M 895.25781 161.18945 L 902.89453 174.41992 L 887.61914 174.41992 L 895.25781 161.18945 z M 57.580078 188.41992 L 72.855469 188.41992 L 65.216797 201.65039 L 57.580078 188.41992 z M 176.15625 188.41992 L 191.43164 188.41992 L 183.79297 201.65039 L 176.15625 188.41992 z M 215.68164 188.41992 L 230.95898 188.41992 L 223.32031 201.65039 L 215.68164 188.41992 z M 255.20703 188.41992 L 270.48438 188.41992 L 262.8457 201.65039 L 255.20703 188.41992 z M 286.65039 188.41992 L 294.73438 188.41992 L 318.09375 188.41992 L 322.13477 195.41992 L 333.81445 215.65039 L 329.77344 222.65039 L 318.0918 242.88086 L 310.00977 242.88086 L 286.65039 242.88086 L 282.60938 235.88086 L 270.92969 215.65039 L 274.9707 208.65039 L 286.65039 188.41992 z M 334.25781 188.41992 L 349.53516 188.41992 L 341.89648 201.65039 L 334.25781 188.41992 z M 452.83594 188.41992 L 468.11133 188.41992 L 460.47266 201.65039 L 452.83594 188.41992 z M 492.36133 188.41992 L 507.63867 188.41992 L 500 201.65039 L 492.36133 188.41992 z M 531.88867 188.41992 L 547.16406 188.41992 L 539.52539 201.65039 L 531.88867 188.41992 z M 563.33008 188.41992 L 571.41406 188.41992 L 594.77148 188.41992 L 594.77344 188.41992 L 598.81445 195.41992 L 610.49414 215.65039 L 606.45312 222.65039 L 594.77148 242.88086 L 586.68945 242.88086 L 563.33008 242.88086 L 559.28906 235.88086 L 547.60938 215.65039 L 551.65039 208.65039 L 563.33008 188.41992 z M 610.93945 188.41992 L 626.21484 188.41992 L 618.57812 201.65039 L 618.57617 201.65039 L 610.93945 188.41992 z M 729.51562 188.41992 L 744.79297 188.41992 L 737.1543 201.65039 L 729.51562 188.41992 z M 769.04297 188.41992 L 784.31836 188.41992 L 776.67969 201.65039 L 769.04297 188.41992 z M 808.56836 188.41992 L 823.84375 188.41992 L 816.20703 201.65039 L 808.56836 188.41992 z M 840.00977 188.41992 L 848.0918 188.41992 L 871.45312 188.41992 L 875.49414 195.41992 L 887.17383 215.65039 L 883.13281 222.65039 L 871.45312 242.88086 L 863.36914 242.88086 L 840.00977 242.88086 L 835.96875 235.88086 L 824.28906 215.65039 L 828.33008 208.65039 L 840.00977 188.41992 z M 887.61914 188.41992 L 902.89453 188.41992 L 895.25781 201.65039 L 895.25586 201.65039 L 887.61914 188.41992 z M 84.980469 195.41992 L 92.619141 208.65039 L 77.341797 208.65039 L 84.980469 195.41992 z M 164.03125 195.41992 L 171.66992 208.65039 L 156.39453 208.65039 L 164.03125 195.41992 z M 203.55664 195.41992 L 211.19531 208.65039 L 195.91797 208.65039 L 203.55664 195.41992 z M 243.08398 195.41992 L 250.72266 208.65039 L 235.44531 208.65039 L 243.08398 195.41992 z M 361.66016 195.41992 L 369.29883 208.65039 L 354.02148 208.65039 L 357.83984 202.03516 L 361.66016 195.41992 z M 440.71094 195.41992 L 448.34961 208.65039 L 433.07422 208.65039 L 440.71094 195.41992 z M 480.23633 195.41992 L 487.875 208.65039 L 472.59961 208.65039 L 480.23633 195.41992 z M 519.76172 195.41992 L 527.40039 208.65039 L 512.125 208.65039 L 519.76172 195.41992 z M 638.33984 195.41992 L 645.97852 208.65039 L 630.70117 208.65039 L 634.51953 202.03516 L 638.33984 195.41992 z M 717.39062 195.41992 L 725.0293 208.65039 L 709.75195 208.65039 L 717.39062 195.41992 z M 756.91602 195.41992 L 756.91797 195.41992 L 760.73633 202.03516 L 764.55469 208.65039 L 749.2793 208.65039 L 756.91602 195.41992 z M 796.44336 195.41992 L 804.08203 208.65039 L 788.80469 208.65039 L 796.44336 195.41992 z M 915.01953 195.41992 L 922.6582 208.65039 L 907.38281 208.65039 L 915.01953 195.41992 z M 77.341797 222.65039 L 92.619141 222.65039 L 84.980469 235.88086 L 77.341797 222.65039 z M 116.86719 222.65039 L 132.14453 222.65039 L 124.50586 235.88086 L 116.86719 222.65039 z M 156.39453 222.65039 L 171.66992 222.65039 L 164.03125 235.88086 L 156.39453 222.65039 z M 187.83594 222.65039 L 195.91797 222.65039 L 219.2793 222.65039 L 223.32031 229.65039 L 235 249.88086 L 235 249.88281 L 230.95898 256.88086 L 219.2793 277.11133 L 211.19531 277.11133 L 187.83594 277.11133 L 187.83398 277.11133 L 183.79297 270.11133 L 172.11523 249.88086 L 176.15625 242.88086 L 187.83594 222.65039 z M 235.44531 222.65039 L 250.7207 222.65039 L 243.08203 235.88086 L 235.44531 222.65039 z M 354.02148 222.65039 L 369.29883 222.65039 L 361.66016 235.88086 L 354.02148 222.65039 z M 393.54688 222.65039 L 408.82422 222.65039 L 401.18555 235.88086 L 393.54688 222.65039 z M 433.07422 222.65039 L 448.34961 222.65039 L 440.71094 235.88086 L 433.07422 222.65039 z M 464.51562 222.65039 L 472.59766 222.65039 L 495.95898 222.65039 L 500 229.65039 L 511.67969 249.88086 L 507.63867 256.88086 L 495.95898 277.11133 L 487.875 277.11133 L 464.51562 277.11133 L 460.47461 270.11133 L 448.79492 249.88086 L 452.83594 242.88086 L 464.51562 222.65039 z M 512.125 222.65039 L 527.40039 222.65039 L 519.76367 235.88086 L 519.76172 235.88086 L 512.125 222.65039 z M 630.70117 222.65039 L 645.97852 222.65039 L 638.33984 235.88086 L 630.70117 222.65039 z M 670.22852 222.65039 L 685.50391 222.65039 L 677.86719 235.88086 L 670.22852 222.65039 z M 709.75195 222.65039 L 725.0293 222.65039 L 717.39062 235.88086 L 709.75195 222.65039 z M 741.19531 222.65039 L 749.27734 222.65039 L 772.63867 222.65039 L 776.67969 229.65039 L 788.35938 249.88086 L 784.31836 256.88086 L 772.63867 277.11133 L 764.55469 277.11133 L 741.19531 277.11133 L 737.1543 270.11133 L 725.47461 249.88086 L 729.51562 242.88086 L 741.19531 222.65039 z M 788.80469 222.65039 L 804.08203 222.65039 L 800.26172 229.26562 L 796.44336 235.88086 L 788.80469 222.65039 z M 907.38086 222.65039 L 922.6582 222.65039 L 915.01953 235.88086 L 907.38086 222.65039 z M 104.74219 229.65039 L 104.74414 229.65039 L 112.38086 242.88086 L 97.105469 242.88086 L 104.74219 229.65039 z M 144.26953 229.65039 L 151.9082 242.88086 L 136.63086 242.88086 L 144.26953 229.65039 z M 262.8457 229.65039 L 270.48438 242.88086 L 255.20703 242.88086 L 259.02734 236.26562 L 262.8457 229.65039 z M 341.89648 229.65039 L 349.53516 242.88086 L 334.25781 242.88086 L 341.89648 229.65039 z M 381.42188 229.65039 L 385.24219 236.26562 L 389.06055 242.88086 L 373.78516 242.88086 L 381.42188 229.65039 z M 420.94922 229.65039 L 428.58594 242.88086 L 413.31055 242.88086 L 420.94922 229.65039 z M 539.52539 229.65039 L 547.16406 242.88086 L 531.88672 242.88086 L 539.52539 229.65039 z M 618.57617 229.65039 L 618.57812 229.65039 L 626.21484 242.88086 L 610.93945 242.88086 L 618.57617 229.65039 z M 658.10352 229.65039 L 665.74023 242.88086 L 650.46484 242.88086 L 658.10352 229.65039 z M 697.62891 229.65039 L 705.26562 242.88086 L 689.99023 242.88086 L 697.62891 229.65039 z M 816.20508 229.65039 L 816.20703 229.65039 L 823.84375 242.88086 L 808.56836 242.88086 L 812.38672 236.26562 L 816.20508 229.65039 z M 895.25781 229.65039 L 902.89453 242.88086 L 887.61914 242.88086 L 895.25781 229.65039 z M 934.7832 229.65039 L 942.41992 242.88086 L 927.14453 242.88086 L 934.7832 229.65039 z M 65.216797 229.65234 L 72.855469 242.88086 L 57.580078 242.88086 L 65.216797 229.65234 z M 57.580078 256.88086 L 72.855469 256.88086 L 65.216797 270.11133 L 57.580078 256.88086 z M 89.021484 256.88086 L 97.103516 256.88086 L 120.46484 256.88086 L 124.50586 263.88086 L 136.18555 284.11133 L 132.14453 291.11133 L 120.46484 311.3418 L 112.38086 311.3418 L 89.021484 311.3418 L 84.980469 304.3418 L 73.298828 284.11133 L 89.021484 256.88086 z M 136.63086 256.88086 L 151.9082 256.88086 L 144.26953 270.11133 L 136.63086 256.88086 z M 255.20703 256.88086 L 270.48438 256.88086 L 262.8457 270.11133 L 255.20703 256.88086 z M 294.73438 256.88086 L 310.00977 256.88086 L 302.37305 270.11133 L 302.37109 270.11133 L 294.73438 256.88086 z M 334.25781 256.88086 L 349.53516 256.88086 L 341.89648 270.11133 L 334.25781 256.88086 z M 365.70117 256.88086 L 373.78516 256.88086 L 397.14453 256.88086 L 401.18555 263.88086 L 412.86523 284.11133 L 408.82422 291.11133 L 397.14453 311.3418 L 389.0625 311.3418 L 365.70117 311.3418 L 361.66016 304.3418 L 349.98047 284.11133 L 354.02148 277.11133 L 365.70117 256.88086 z M 413.31055 256.88086 L 428.58594 256.88086 L 420.94922 270.10938 L 413.31055 256.88086 z M 531.88867 256.88086 L 547.16406 256.88086 L 539.52539 270.11133 L 531.88867 256.88086 z M 571.41406 256.88086 L 586.68945 256.88086 L 579.05078 270.11133 L 571.41406 256.88086 z M 610.93945 256.88086 L 626.21484 256.88086 L 618.57812 270.11133 L 618.57617 270.11133 L 610.93945 256.88086 z M 642.38086 256.88086 L 650.46484 256.88086 L 673.82422 256.88086 L 677.86523 263.88086 L 689.54492 284.11133 L 685.50391 291.11133 L 673.82422 311.3418 L 665.74219 311.3418 L 642.38086 311.3418 L 638.33984 304.3418 L 626.66016 284.11133 L 630.70117 277.11133 L 642.38086 256.88086 z M 689.99023 256.88086 L 705.26562 256.88086 L 701.44727 263.49609 L 697.62891 270.11133 L 697.62695 270.11133 L 689.99023 256.88086 z M 808.56641 256.88086 L 823.84375 256.88086 L 816.20508 270.11133 L 808.56641 256.88086 z M 848.0918 256.88086 L 863.36914 256.88086 L 855.73047 270.11133 L 848.0918 256.88086 z M 887.61914 256.88086 L 902.89453 256.88086 L 895.25781 270.11133 L 887.61914 256.88086 z M 164.03125 263.88086 L 164.0332 263.88086 L 171.66992 277.11133 L 156.39453 277.11133 L 160.21289 270.49609 L 164.03125 263.88086 z M 243.08203 263.88086 L 250.7207 277.11133 L 235.44531 277.11133 L 243.08203 263.88086 z M 282.60938 263.88086 L 290.24805 277.11133 L 274.9707 277.11133 L 282.60938 263.88086 z M 322.13477 263.88086 L 329.77148 277.11133 L 314.49609 277.11133 L 322.13477 263.88086 z M 440.71094 263.88086 L 448.34961 277.11133 L 433.07422 277.11133 L 436.89258 270.49609 L 440.71094 263.88086 z M 519.76172 263.88086 L 519.76367 263.88086 L 527.40039 277.11133 L 512.125 277.11133 L 519.76172 263.88086 z M 559.28906 263.88086 L 566.92578 277.11133 L 551.65039 277.11133 L 559.28906 263.88086 z M 598.81445 263.88086 L 606.45312 277.11133 L 591.17578 277.11133 L 598.81445 263.88086 z M 717.39062 263.88086 L 725.0293 277.11133 L 709.75195 277.11133 L 717.39062 263.88086 z M 796.44336 263.88086 L 804.08203 277.11133 L 788.80469 277.11133 L 796.44336 263.88086 z M 835.9668 263.88086 L 835.96875 263.88086 L 839.78711 270.49609 L 843.60547 277.11133 L 828.33008 277.11133 L 835.9668 263.88086 z M 875.49414 263.88086 L 883.13281 277.11133 L 867.85547 277.11133 L 875.49414 263.88086 z M 156.39453 291.11133 L 171.66992 291.11133 L 164.03125 304.3418 L 156.39453 291.11133 z M 195.91797 291.11133 L 211.19531 291.11133 L 203.55664 304.3418 L 195.91797 291.11133 z M 235.44531 291.11133 L 250.7207 291.11133 L 243.08203 304.3418 L 235.44531 291.11133 z M 266.88672 291.11133 L 274.9707 291.11133 L 298.33008 291.11133 L 298.33203 291.11133 L 302.37305 298.11133 L 314.05078 318.3418 L 310.00977 325.3418 L 298.33008 345.57227 L 290.24805 345.57227 L 266.88672 345.57227 L 262.8457 338.57227 L 251.16602 318.3418 L 255.20703 311.3418 L 266.88672 291.11133 z M 314.49609 291.11133 L 329.77148 291.11133 L 322.13477 304.33984 L 322.13281 304.3418 L 314.49609 291.11133 z M 433.07227 291.11133 L 448.34961 291.11133 L 440.71094 304.3418 L 433.07227 291.11133 z M 472.59961 291.11133 L 487.875 291.11133 L 480.23828 304.3418 L 472.59961 291.11133 z M 512.125 291.11133 L 527.40039 291.11133 L 519.76367 304.3418 L 519.76172 304.3418 L 512.125 291.11133 z M 543.56641 291.11133 L 551.65039 291.11133 L 575.00977 291.11133 L 579.05078 298.11133 L 590.73047 318.3418 L 586.68945 325.3418 L 575.00977 345.57227 L 566.92578 345.57227 L 543.56836 345.57227 L 543.56641 345.57227 L 539.52539 338.57227 L 527.8457 318.3418 L 527.8457 318.33984 L 531.88672 311.3418 L 543.56641 291.11133 z M 591.17578 291.11133 L 606.45117 291.11133 L 598.81445 304.3418 L 591.17578 291.11133 z M 709.75195 291.11133 L 725.0293 291.11133 L 717.39062 304.3418 L 709.75195 291.11133 z M 749.2793 291.11133 L 764.55469 291.11133 L 756.91797 304.3418 L 749.2793 291.11133 z M 788.80469 291.11133 L 804.08203 291.11133 L 796.44336 304.3418 L 788.80469 291.11133 z M 820.24805 291.11133 L 828.33008 291.11133 L 851.68945 291.11133 L 855.73047 298.11133 L 867.41016 318.3418 L 863.36914 325.3418 L 851.68945 345.57227 L 843.60742 345.57227 L 820.24805 345.57227 L 816.20703 338.57422 L 804.52539 318.3418 L 808.56641 311.3418 L 820.24805 291.11133 z M 867.85547 291.11133 L 883.13281 291.11133 L 879.3125 297.72656 L 875.49414 304.3418 L 867.85547 291.11133 z M 65.216797 298.11133 L 72.855469 311.3418 L 57.580078 311.3418 L 65.216797 298.11133 z M 144.26953 298.11133 L 151.9082 311.3418 L 136.63086 311.3418 L 144.26953 298.11133 z M 183.79297 298.11133 L 183.79492 298.11133 L 191.43164 311.3418 L 176.15625 311.3418 L 183.79297 298.11133 z M 223.32031 298.11133 L 230.95898 311.3418 L 215.68164 311.3418 L 223.32031 298.11133 z M 341.89648 298.11133 L 349.53516 311.3418 L 334.25977 311.3418 L 341.89648 298.11133 z M 420.94922 298.11133 L 428.58594 311.3418 L 413.31055 311.3418 L 420.94922 298.11133 z M 460.47461 298.11133 L 468.11133 311.3418 L 452.83594 311.3418 L 460.47461 298.11133 z M 500 298.11133 L 507.63867 311.3418 L 492.36133 311.3418 L 500 298.11133 z M 618.57617 298.11133 L 618.57812 298.11133 L 626.21484 311.3418 L 610.93945 311.3418 L 618.57617 298.11133 z M 697.62695 298.11133 L 697.62891 298.11133 L 705.26562 311.3418 L 689.99023 311.3418 L 697.62695 298.11133 z M 737.1543 298.11133 L 740.97266 304.72656 L 744.79297 311.3418 L 729.51562 311.3418 L 737.1543 298.11133 z M 776.67969 298.11133 L 784.31836 311.3418 L 769.04297 311.3418 L 776.67969 298.11133 z M 895.25781 298.11133 L 902.89453 311.3418 L 887.61914 311.3418 L 891.4375 304.72656 L 895.25781 298.11133 z M 97.105469 325.3418 L 112.38086 325.3418 L 104.74414 338.57227 L 104.74219 338.57227 L 97.105469 325.3418 z M 136.63086 325.3418 L 151.9082 325.3418 L 144.26953 338.57227 L 136.63086 325.3418 z M 168.07422 325.3418 L 176.15625 325.3418 L 199.51562 325.3418 L 203.55664 332.3418 L 215.23633 352.57227 L 211.19531 359.57227 L 199.51562 379.80273 L 191.43164 379.80273 L 168.07422 379.80273 L 168.07227 379.80273 L 164.03125 372.80273 L 152.35156 352.57227 L 156.39258 345.57227 L 168.07422 325.3418 z M 215.68164 325.3418 L 230.95898 325.3418 L 223.32031 338.57227 L 215.68164 325.3418 z M 334.25977 325.3418 L 349.53516 325.3418 L 341.89844 338.57227 L 334.25977 325.3418 z M 373.78516 325.3418 L 389.06055 325.3418 L 381.42188 338.57227 L 373.78516 325.3418 z M 413.31055 325.3418 L 428.58594 325.3418 L 420.94922 338.57227 L 413.31055 325.3418 z M 444.75391 325.3418 L 452.83594 325.3418 L 476.19531 325.3418 L 480.23633 332.3418 L 491.91602 352.57227 L 487.875 359.57227 L 476.19531 379.80273 L 468.11328 379.80273 L 444.75195 379.80273 L 440.71094 372.80273 L 429.03125 352.57227 L 433.07422 345.57227 L 444.75391 325.3418 z M 492.36133 325.3418 L 507.63867 325.3418 L 503.82031 331.95703 L 500 338.57227 L 492.36133 325.3418 z M 610.93945 325.3418 L 626.21484 325.3418 L 618.57812 338.57227 L 610.93945 325.3418 z M 650.46484 325.3418 L 665.74219 325.3418 L 658.10352 338.57227 L 650.46484 325.3418 z M 689.99023 325.3418 L 705.26562 325.3418 L 697.62891 338.57227 L 697.62695 338.57227 L 689.99023 325.3418 z M 721.43164 325.3418 L 729.51562 325.3418 L 752.875 325.3418 L 752.87695 325.3418 L 756.91797 332.3418 L 768.59766 352.57227 L 764.55664 359.57227 L 752.875 379.80273 L 744.79297 379.80273 L 721.43164 379.80273 L 721.14062 379.29688 L 717.39062 372.80273 L 705.71094 352.57227 L 709.75195 345.57227 L 721.43164 325.3418 z M 769.04102 325.3418 L 784.31836 325.3418 L 776.67969 338.57227 L 769.04102 325.3418 z M 887.61719 325.3418 L 902.89453 325.3418 L 895.25586 338.57227 L 887.61719 325.3418 z M 927.14453 325.3418 L 942.41992 325.3418 L 934.7832 338.57227 L 927.14453 325.3418 z M 84.980469 332.3418 L 92.619141 345.57227 L 77.341797 345.57227 L 84.980469 332.3418 z M 124.50586 332.3418 L 132.14453 345.57227 L 116.86719 345.57227 L 124.50586 332.3418 z M 243.08203 332.3418 L 243.08398 332.3418 L 250.7207 345.57227 L 235.44531 345.57227 L 239.26367 338.95703 L 243.08203 332.3418 z M 322.13281 332.3418 L 322.13477 332.3418 L 329.77148 345.57227 L 314.49609 345.57227 L 322.13281 332.3418 z M 361.66016 332.3418 L 365.48047 338.95703 L 369.29883 345.57227 L 354.02148 345.57227 L 361.66016 332.3418 z M 401.18555 332.3418 L 408.82422 345.57227 L 393.54688 345.57227 L 401.18555 332.3418 z M 519.76367 332.3418 L 527.40039 345.57227 L 512.125 345.57227 L 519.76367 332.3418 z M 598.81445 332.3418 L 606.45312 345.57227 L 591.17578 345.57227 L 598.81445 332.3418 z M 638.33984 332.3418 L 642.16016 338.95703 L 645.97852 345.57227 L 630.70117 345.57227 L 638.33984 332.3418 z M 677.86523 332.3418 L 685.50391 345.57227 L 670.22852 345.57227 L 677.86523 332.3418 z M 796.44336 332.3418 L 804.08203 345.57227 L 788.80469 345.57227 L 796.44336 332.3418 z M 875.49414 332.3418 L 883.13281 345.57227 L 867.85547 345.57227 L 875.49414 332.3418 z M 915.01953 332.3418 L 922.6582 345.57227 L 907.38086 345.57227 L 915.01953 332.3418 z M 116.86719 359.57227 L 132.14453 359.57227 L 124.50586 372.80273 L 116.86719 359.57227 z M 235.44531 359.57227 L 250.7207 359.57227 L 243.08203 372.80273 L 235.44531 359.57227 z M 274.9707 359.57227 L 290.24805 359.57227 L 282.60938 372.80273 L 274.9707 359.57227 z M 314.49609 359.57227 L 329.77148 359.57227 L 322.13477 372.80273 L 322.13281 372.80273 L 314.49609 359.57227 z M 345.93945 359.57227 L 354.02148 359.57227 L 377.38086 359.57227 L 377.38281 359.57227 L 381.42383 366.57227 L 393.10352 386.80273 L 389.0625 393.80273 L 377.38281 414.03125 L 369.29883 414.03125 L 345.9375 414.03125 L 341.89648 407.03125 L 330.2168 386.80273 L 334.25781 379.80273 L 345.93945 359.57227 z M 393.54688 359.57227 L 408.82422 359.57227 L 401.18555 372.80273 L 393.54688 359.57227 z M 512.125 359.57227 L 527.40039 359.57227 L 519.76172 372.80273 L 512.125 359.57227 z M 551.65039 359.57227 L 566.92578 359.57227 L 559.28906 372.80273 L 551.65039 359.57227 z M 591.17578 359.57227 L 606.45312 359.57227 L 598.81445 372.80273 L 591.17578 359.57227 z M 622.61914 359.57227 L 630.70117 359.57227 L 654.0625 359.57227 L 658.10352 366.57227 L 669.7832 386.80273 L 665.74219 393.80273 L 654.0625 414.03125 L 645.97852 414.03125 L 622.61719 414.03125 L 618.57617 407.03125 L 606.89844 386.80273 L 610.9375 379.80273 L 622.61914 359.57227 z M 670.22852 359.57227 L 685.50391 359.57227 L 677.86523 372.80273 L 670.22852 359.57227 z M 788.80469 359.57227 L 804.08203 359.57227 L 796.44336 372.80273 L 788.80469 359.57227 z M 828.33008 359.57227 L 843.60547 359.57227 L 835.96875 372.80273 L 828.33008 359.57227 z M 867.85547 359.57227 L 883.13281 359.57227 L 875.49414 372.80273 L 867.85547 359.57227 z M 144.26953 366.57227 L 151.9082 379.80273 L 136.63086 379.80273 L 144.26953 366.57227 z M 223.32031 366.57227 L 230.95898 379.80273 L 215.68164 379.80273 L 223.32031 366.57227 z M 262.8457 366.57227 L 266.66406 373.1875 L 270.48438 379.80273 L 255.20703 379.80273 L 262.8457 366.57227 z M 302.37305 366.57227 L 310.01172 379.80273 L 294.73438 379.80273 L 302.37305 366.57227 z M 420.94922 366.57227 L 428.58594 379.80273 L 413.31055 379.80273 L 420.94922 366.57227 z M 500 366.57227 L 507.63867 379.80273 L 492.36133 379.80273 L 500 366.57227 z M 539.52539 366.57227 L 547.16406 379.80273 L 531.88672 379.80273 L 539.52539 366.57227 z M 697.62695 366.57227 L 697.62891 366.57227 L 705.26562 379.80273 L 689.99023 379.80273 L 693.80859 373.1875 L 697.62695 366.57227 z M 776.67969 366.57227 L 784.31836 379.80273 L 769.04102 379.80273 L 776.67969 366.57227 z M 816.20508 366.57227 L 816.20703 366.57227 L 820.02539 373.1875 L 823.84375 379.80273 L 808.56836 379.80273 L 816.20508 366.57227 z M 855.73047 366.57227 L 863.36914 379.80273 L 848.09375 379.80273 L 855.73047 366.57227 z M 579.05078 366.57422 L 586.68945 379.80273 L 571.41406 379.80273 L 579.05078 366.57422 z M 136.63086 393.80273 L 151.9082 393.80273 L 144.26953 407.0332 L 136.63086 393.80273 z M 176.15625 393.80273 L 191.43164 393.80273 L 183.79492 407.0332 L 179.97461 400.41797 L 176.15625 393.80273 z M 215.68164 393.80273 L 230.95898 393.80273 L 223.32031 407.03125 L 215.68164 393.80273 z M 247.12305 393.80273 L 255.20703 393.80273 L 278.56836 393.80273 L 282.60938 400.80273 L 294.28906 421.03125 L 290.24805 428.03125 L 278.56836 448.26172 L 270.48438 448.26172 L 247.12305 448.26172 L 243.08203 441.26172 L 231.40234 421.03125 L 235.44531 414.03125 L 247.12305 393.80273 z M 294.73438 393.80273 L 310.00977 393.80273 L 302.37305 407.03125 L 302.37305 407.0332 L 302.37109 407.0332 L 294.73438 393.80273 z M 413.31055 393.80273 L 428.58594 393.80273 L 420.94922 407.03125 L 413.31055 393.80273 z M 452.83594 393.80273 L 468.11328 393.80273 L 460.47461 407.03125 L 452.83594 393.80273 z M 492.36133 393.80273 L 507.63867 393.80273 L 500 407.03125 L 492.36133 393.80273 z M 523.80469 393.80273 L 531.88672 393.80273 L 555.24805 393.80273 L 559.28906 400.80273 L 570.9668 421.03125 L 566.92578 428.03125 L 555.24609 448.26172 L 547.16406 448.26172 L 523.80469 448.26172 L 519.76367 441.26172 L 508.08398 421.03125 L 512.125 414.03125 L 523.80469 393.80273 z M 571.41406 393.80273 L 586.68945 393.80273 L 582.87109 400.41797 L 579.05078 407.03125 L 571.41406 393.80273 z M 689.99023 393.80273 L 705.26562 393.80273 L 697.62891 407.03125 L 689.99023 393.80273 z M 729.51562 393.80273 L 744.79297 393.80273 L 737.1543 407.03125 L 729.51562 393.80273 z M 769.04102 393.80273 L 784.31836 393.80273 L 776.67969 407.03125 L 769.04102 393.80273 z M 800.48438 393.80273 L 808.56836 393.80273 L 831.92773 393.80273 L 835.96875 400.80273 L 847.64844 421.03125 L 843.60742 428.03125 L 831.92578 448.26172 L 823.84375 448.26172 L 800.48438 448.26172 L 796.44336 441.26172 L 784.76367 421.03125 L 788.80469 414.03125 L 800.48438 393.80273 z M 848.0918 393.80273 L 863.36914 393.80273 L 855.73047 407.03125 L 848.0918 393.80273 z M 677.86523 400.80078 L 677.86719 400.80078 L 685.50391 414.03125 L 670.22852 414.03125 L 677.86523 400.80273 L 677.86523 400.80078 z M 756.91797 400.80078 L 764.55469 414.03125 L 749.2793 414.03125 L 756.91797 400.80078 z M 124.50586 400.80273 L 132.14453 414.03125 L 116.86719 414.03125 L 124.50586 400.80273 z M 164.03125 400.80273 L 171.66992 414.03125 L 156.39453 414.03125 L 164.03125 400.80273 z M 203.55664 400.80273 L 211.19531 414.03125 L 195.91797 414.03125 L 203.55664 400.80273 z M 322.13477 400.80273 L 329.77148 414.03125 L 314.49609 414.03125 L 322.13477 400.80273 z M 401.18555 400.80273 L 408.82422 414.03125 L 393.54688 414.03125 L 401.18555 400.80273 z M 440.71094 400.80273 L 444.53125 407.41797 L 448.34961 414.03125 L 433.07422 414.03125 L 440.71094 400.80273 z M 480.23828 400.80273 L 487.875 414.03125 L 472.59961 414.03125 L 480.23828 400.80273 z M 598.81445 400.80273 L 606.45312 414.03125 L 591.17578 414.03125 L 598.81445 400.80273 z M 717.39062 400.80273 L 721.21094 407.41797 L 725.0293 414.03125 L 709.75195 414.03125 L 717.39062 400.80273 z M 875.49414 400.80273 L 883.13281 414.03125 L 867.85547 414.03125 L 871.67578 407.41797 L 875.49414 400.80273 z M 77.341797 428.03125 L 92.619141 428.03125 L 84.980469 441.26172 L 77.341797 428.03125 z M 116.86719 428.03125 L 132.14453 428.03125 L 124.50586 441.26172 L 116.86719 428.03125 z M 148.31055 428.03125 L 156.39258 428.03125 L 179.75195 428.03125 L 183.79297 435.0293 L 183.79297 435.03125 L 195.47461 455.26172 L 191.43164 462.26172 L 179.75195 482.49219 L 171.66992 482.49219 L 148.31055 482.49219 L 144.26953 475.49219 L 132.58984 455.26172 L 136.63086 448.26172 L 148.31055 428.03125 z M 195.91797 428.03125 L 211.19531 428.03125 L 207.375 434.64648 L 203.55664 441.26172 L 195.91797 428.03125 z M 314.49609 428.03125 L 329.77148 428.03125 L 322.13477 441.26172 L 314.49609 428.03125 z M 354.02148 428.03125 L 369.29883 428.03125 L 361.66016 441.26172 L 354.02148 428.03125 z M 393.54688 428.03125 L 408.82422 428.03125 L 401.18555 441.26172 L 393.54688 428.03125 z M 424.99023 428.03125 L 433.07422 428.03125 L 456.43164 428.03125 L 456.43359 428.03125 L 460.47461 435.03125 L 472.1543 455.26172 L 468.11328 462.26172 L 456.43164 482.49219 L 448.34961 482.49219 L 424.99023 482.49219 L 420.94922 475.49219 L 409.26953 455.26172 L 413.31055 448.26172 L 424.99023 428.03125 z M 472.59961 428.03125 L 487.875 428.03125 L 484.05664 434.64648 L 480.23828 441.26172 L 480.23633 441.26172 L 472.59961 428.03125 z M 591.17578 428.03125 L 606.45117 428.03125 L 598.8125 441.26172 L 591.17578 428.03125 z M 630.70117 428.03125 L 645.97852 428.03125 L 638.33984 441.26172 L 630.70117 428.03125 z M 670.22852 428.03125 L 685.50391 428.03125 L 677.86719 441.26172 L 677.86523 441.26172 L 670.22852 428.03125 z M 701.66992 428.03125 L 709.75195 428.03125 L 733.11328 428.03125 L 737.1543 435.03125 L 748.83398 455.26172 L 744.79297 462.26172 L 733.11328 482.49219 L 725.0293 482.49219 L 701.66992 482.49219 L 701.66797 482.49219 L 697.62695 475.49219 L 685.94922 455.26172 L 689.99023 448.26172 L 701.66992 428.03125 z M 749.2793 428.03125 L 764.55469 428.03125 L 756.91797 441.26172 L 756.91602 441.26172 L 749.2793 428.03125 z M 867.85547 428.03125 L 883.13281 428.03125 L 875.49414 441.26172 L 867.85547 428.03125 z M 907.38086 428.03125 L 922.6582 428.03125 L 915.01953 441.26172 L 907.38086 428.03125 z M 65.216797 435.03125 L 72.855469 448.26172 L 57.580078 448.26172 L 65.216797 435.03125 z M 104.74414 435.03125 L 112.38281 448.26172 L 97.105469 448.26172 L 104.74414 435.03125 z M 223.32031 435.03125 L 230.95898 448.26172 L 215.68164 448.26172 L 219.5 441.64648 L 223.32031 435.03125 z M 302.37109 435.03125 L 302.37305 435.03125 L 310.00977 448.26172 L 294.73438 448.26172 L 302.37109 435.03125 z M 341.89648 435.03125 L 349.53516 448.26172 L 334.25781 448.26172 L 341.89648 435.03125 z M 381.42383 435.03125 L 389.06055 448.26172 L 373.78516 448.26172 L 381.42383 435.03125 z M 500 435.03125 L 507.63867 448.26172 L 492.36133 448.26172 L 500 435.03125 z M 579.05078 435.03125 L 586.68945 448.26172 L 571.41406 448.26172 L 579.05078 435.03125 z M 618.57812 435.03125 L 626.21484 448.26172 L 610.93945 448.26172 L 618.57812 435.03125 z M 658.10352 435.03125 L 665.74219 448.26172 L 650.46484 448.26172 L 658.10352 435.03125 z M 776.67969 435.03125 L 784.31836 448.26172 L 769.04102 448.26172 L 776.67969 435.03125 z M 855.73047 435.03125 L 863.36914 448.26172 L 848.0918 448.26172 L 855.73047 435.03125 z M 895.25586 435.03125 L 895.25781 435.03125 L 899.07617 441.64648 L 902.89453 448.26172 L 887.61914 448.26172 L 895.25586 435.03125 z M 97.105469 462.26172 L 112.38086 462.26172 L 108.5625 468.87695 L 104.74219 475.49219 L 97.105469 462.26172 z M 215.68164 462.26172 L 230.95703 462.26172 L 223.32031 475.49219 L 215.68164 462.26172 z M 255.20703 462.26172 L 270.48438 462.26172 L 262.8457 475.49219 L 255.20703 462.26172 z M 294.73438 462.26172 L 310.00977 462.26172 L 302.37305 475.49219 L 294.73438 462.26172 z M 326.17578 462.26172 L 334.25781 462.26172 L 357.61914 462.26172 L 361.66016 469.26172 L 373.33984 489.49219 L 369.29883 496.49219 L 357.61914 516.72266 L 349.53516 516.72266 L 326.17578 516.72266 L 322.13477 509.72266 L 310.45508 489.49219 L 314.49609 482.49219 L 326.17578 462.26172 z M 373.78516 462.26172 L 389.06055 462.26172 L 381.42383 475.49219 L 381.42188 475.49219 L 373.78516 462.26172 z M 492.36133 462.26172 L 507.63867 462.26172 L 500 475.49219 L 492.36133 462.26172 z M 531.88867 462.26172 L 547.16406 462.26172 L 539.52539 475.49219 L 531.88867 462.26172 z M 571.41211 462.26172 L 586.68945 462.26172 L 579.05078 475.49219 L 571.41211 462.26172 z M 602.85547 462.26172 L 610.9375 462.26172 L 634.29883 462.26172 L 638.33984 469.26172 L 650.01953 489.49219 L 645.97852 496.49219 L 634.29883 516.72266 L 626.21484 516.72266 L 602.85547 516.72266 L 598.81445 509.72266 L 587.13477 489.49219 L 591.17578 482.49219 L 602.85547 462.26172 z M 650.46484 462.26172 L 665.74023 462.26172 L 658.10352 475.49219 L 650.46484 462.26172 z M 769.04297 462.26172 L 784.31836 462.26172 L 776.67969 475.49219 L 769.04297 462.26172 z M 808.56836 462.26172 L 823.84375 462.26172 L 816.20703 475.49414 L 808.56836 462.26172 z M 848.0918 462.26172 L 863.36914 462.26172 L 855.73047 475.49219 L 848.0918 462.26172 z M 879.53516 462.26172 L 887.61914 462.26172 L 910.97852 462.26172 L 915.01953 469.26172 L 926.69922 489.49219 L 910.97852 516.72266 L 902.89648 516.72266 L 879.53516 516.72266 L 875.49414 509.72266 L 863.81445 489.49219 L 867.85547 482.49219 L 879.53516 462.26172 z M 927.14453 462.26172 L 942.42188 462.26172 L 934.7832 475.49219 L 927.14453 462.26172 z M 124.50586 469.26172 L 132.14453 482.49219 L 116.86719 482.49219 L 120.6875 475.87695 L 124.50586 469.26172 z M 203.55664 469.26172 L 211.19531 482.49219 L 195.91797 482.49219 L 203.55664 469.26172 z M 243.08203 469.26172 L 246.90234 475.87695 L 250.7207 482.49219 L 235.44531 482.49219 L 243.08203 469.26172 z M 282.60938 469.26172 L 290.24805 482.49219 L 274.9707 482.49219 L 282.60938 469.26172 z M 401.18555 469.26172 L 408.82422 482.49219 L 393.54883 482.49219 L 401.18555 469.26172 z M 480.23633 469.26172 L 487.875 482.49219 L 472.59961 482.49219 L 480.23633 469.26172 z M 519.76367 469.26172 L 523.58203 475.87695 L 527.40039 482.49219 L 512.125 482.49219 L 519.76367 469.26172 z M 559.28906 469.26172 L 566.92578 482.49219 L 551.65039 482.49219 L 559.28906 469.26172 z M 677.86523 469.26172 L 677.86719 469.26172 L 685.50391 482.49219 L 670.22852 482.49219 L 674.04688 475.87695 L 677.86523 469.26172 z M 756.91797 469.26172 L 764.55469 482.49219 L 749.2793 482.49219 L 756.91797 469.26172 z M 796.44336 469.26172 L 804.08203 482.49219 L 788.80469 482.49219 L 796.44336 469.26172 z M 835.96875 469.26172 L 843.60547 482.49219 L 828.33203 482.49219 L 835.96875 469.26172 z M 116.86719 496.49219 L 132.14453 496.49219 L 124.50586 509.72266 L 116.86719 496.49219 z M 156.39453 496.49219 L 171.66992 496.49219 L 164.0332 509.72266 L 164.03125 509.72266 L 156.39453 496.49219 z M 195.91797 496.49219 L 211.19531 496.49219 L 203.55664 509.72266 L 195.91797 496.49219 z M 227.36133 496.49219 L 235.44336 496.49219 L 258.80469 496.49219 L 262.8457 503.49219 L 274.52539 523.72266 L 270.48438 530.72266 L 258.80469 550.95312 L 250.7207 550.95312 L 227.36133 550.95312 L 223.32031 543.95312 L 211.64062 523.72266 L 215.68164 516.72266 L 227.36133 496.49219 z M 274.9707 496.49219 L 290.24805 496.49219 L 286.42969 503.10742 L 282.60938 509.72266 L 274.9707 496.49219 z M 393.54688 496.49219 L 408.82422 496.49219 L 401.18555 509.72266 L 393.54688 496.49219 z M 433.07422 496.49219 L 448.34961 496.49219 L 440.71094 509.72266 L 433.07422 496.49219 z M 472.59961 496.49219 L 487.875 496.49219 L 480.23828 509.72266 L 480.23633 509.72266 L 472.59961 496.49219 z M 504.04102 496.49219 L 512.125 496.49219 L 535.48438 496.49219 L 539.52539 503.49219 L 551.20508 523.72266 L 547.16406 530.72266 L 535.48438 550.95312 L 527.40234 550.95312 L 504.04102 550.95312 L 500 543.95312 L 488.32031 523.72266 L 492.36133 516.72266 L 504.04102 496.49219 z M 551.65039 496.49219 L 566.92578 496.49219 L 563.10742 503.10742 L 559.28906 509.72266 L 551.65039 496.49219 z M 670.22852 496.49219 L 685.50391 496.49219 L 677.86523 509.72266 L 670.22852 496.49219 z M 709.75195 496.49219 L 725.0293 496.49219 L 717.39062 509.72266 L 709.75195 496.49219 z M 749.2793 496.49219 L 764.55469 496.49219 L 756.91797 509.72266 L 749.2793 496.49219 z M 780.72266 496.49219 L 788.80469 496.49219 L 812.16406 496.49219 L 816.20703 503.49414 L 827.88477 523.72266 L 823.84375 530.72266 L 812.16406 550.95312 L 804.08203 550.95312 L 780.7207 550.95312 L 776.67969 543.95312 L 765 523.72266 L 769.04102 516.72266 L 780.72266 496.49219 z M 828.33008 496.49219 L 843.60547 496.49219 L 835.96875 509.72266 L 835.9668 509.72266 L 828.33008 496.49219 z M 104.74219 503.49219 L 112.38086 516.72266 L 97.105469 516.72266 L 104.74219 503.49219 z M 144.26953 503.49219 L 151.9082 516.72266 L 136.63086 516.72266 L 144.26953 503.49219 z M 183.79297 503.49219 L 191.43164 516.72266 L 176.15625 516.72266 L 183.79297 503.49219 z M 302.37109 503.49219 L 302.37305 503.49219 L 310.00977 516.72266 L 294.73438 516.72266 L 298.55273 510.10742 L 302.37109 503.49219 z M 381.42188 503.49219 L 381.42383 503.49219 L 389.06055 516.72266 L 373.78516 516.72266 L 381.42188 503.49219 z M 420.94922 503.49219 L 424.76758 510.10742 L 428.58594 516.72266 L 413.31055 516.72266 L 420.94922 503.49219 z M 460.47266 503.49219 L 468.11133 516.72266 L 452.83594 516.72266 L 460.47266 503.49219 z M 658.10352 503.49219 L 665.74219 516.72266 L 650.46484 516.72266 L 658.10352 503.49219 z M 697.62891 503.49219 L 705.26562 516.72266 L 689.99023 516.72266 L 697.62891 503.49219 z M 737.1543 503.49219 L 744.79297 516.72266 L 729.51562 516.72266 L 737.1543 503.49219 z M 855.73047 503.49219 L 863.36914 516.72266 L 848.09375 516.72266 L 855.73047 503.49219 z M 579.05078 503.49414 L 586.68945 516.72266 L 571.41406 516.72266 L 575.23242 510.10742 L 579.05078 503.49414 z M 934.7832 503.49414 L 942.41992 516.72266 L 927.14453 516.72266 L 934.7832 503.49414 z M 57.580078 530.72266 L 72.855469 530.72266 L 65.216797 543.95312 L 57.580078 530.72266 z M 97.105469 530.72266 L 112.38086 530.72266 L 104.74219 543.95312 L 97.105469 530.72266 z M 128.54688 530.72266 L 136.63086 530.72266 L 159.99023 530.72266 L 164.03125 537.72266 L 175.71094 557.95312 L 171.66992 564.95312 L 159.99023 585.18359 L 151.9082 585.18359 L 128.54688 585.18359 L 124.50586 578.18359 L 112.82617 557.95312 L 116.86719 550.95312 L 128.54688 530.72266 z M 176.15625 530.72266 L 191.43164 530.72266 L 187.61328 537.33789 L 183.79297 543.95312 L 176.15625 530.72266 z M 294.73242 530.72266 L 310.00977 530.72266 L 302.37109 543.95312 L 294.73242 530.72266 z M 334.25781 530.72266 L 349.53516 530.72266 L 341.89648 543.95312 L 334.25781 530.72266 z M 373.78516 530.72266 L 389.06055 530.72266 L 381.42383 543.95312 L 381.42188 543.95312 L 373.78516 530.72266 z M 405.22852 530.72266 L 413.31055 530.72266 L 436.66992 530.72266 L 440.71094 537.72266 L 452.39062 557.95312 L 448.34961 564.95312 L 436.66992 585.18359 L 428.58594 585.18359 L 405.22656 585.18359 L 401.18555 578.18359 L 389.50586 557.95312 L 393.54688 550.95312 L 405.22852 530.72266 z M 452.83594 530.72266 L 468.11328 530.72266 L 460.47461 543.95312 L 452.83594 530.72266 z M 571.41406 530.72266 L 586.68945 530.72266 L 579.05078 543.95312 L 571.41406 530.72266 z M 610.93945 530.72266 L 626.21484 530.72266 L 618.57812 543.95312 L 610.93945 530.72266 z M 650.46484 530.72266 L 665.74219 530.72266 L 658.10352 543.95312 L 650.46484 530.72266 z M 681.9082 530.72266 L 689.99023 530.72266 L 713.34961 530.72266 L 717.39062 537.72266 L 729.07031 557.95312 L 725.0293 564.95312 L 713.34961 585.18359 L 705.26758 585.18359 L 681.9082 585.18359 L 677.86523 578.18164 L 666.18555 557.95312 L 670.22656 550.95312 L 681.9082 530.72266 z M 729.51562 530.72266 L 744.79297 530.72266 L 740.97266 537.33789 L 737.1543 543.95312 L 729.51562 530.72266 z M 848.0918 530.72266 L 863.36914 530.72266 L 855.73047 543.95312 L 848.0918 530.72266 z M 887.61914 530.72266 L 902.89453 530.72266 L 895.25781 543.95312 L 895.25586 543.95312 L 887.61914 530.72266 z M 927.14453 530.72266 L 942.41992 530.72266 L 934.7832 543.95312 L 927.14453 530.72266 z M 84.980469 537.72266 L 92.619141 550.95312 L 77.341797 550.95312 L 84.980469 537.72266 z M 203.55664 537.72266 L 211.19531 550.95312 L 195.91797 550.95312 L 199.73828 544.33789 L 203.55664 537.72266 z M 282.60938 537.72266 L 290.24805 550.95312 L 274.9707 550.95312 L 282.60938 537.72266 z M 322.13281 537.72266 L 325.95312 544.33789 L 329.77148 550.95312 L 314.49609 550.95312 L 322.13281 537.72266 z M 361.66016 537.72266 L 369.29883 550.95312 L 354.02148 550.95312 L 361.66016 537.72266 z M 480.23633 537.72266 L 480.23828 537.72266 L 487.875 550.95312 L 472.59961 550.95312 L 476.41797 544.33789 L 480.23633 537.72266 z M 559.28906 537.72266 L 566.92578 550.95312 L 551.65039 550.95312 L 559.28906 537.72266 z M 598.81445 537.72266 L 606.45312 550.95312 L 591.17578 550.95312 L 598.81445 537.72266 z M 638.33984 537.72266 L 645.97852 550.95312 L 630.70117 550.95312 L 638.33984 537.72266 z M 756.91797 537.72266 L 764.55469 550.95312 L 749.2793 550.95312 L 753.09766 544.33789 L 756.91797 537.72266 z M 835.96875 537.72266 L 843.60547 550.95312 L 828.33008 550.95312 L 835.96875 537.72266 z M 875.49414 537.72266 L 879.3125 544.33789 L 883.13281 550.95312 L 867.85547 550.95312 L 875.49414 537.72266 z M 915.01953 537.72266 L 922.6582 550.95312 L 907.38281 550.95312 L 915.01953 537.72266 z M 77.341797 564.95312 L 92.617188 564.95312 L 84.980469 578.18359 L 77.341797 564.95312 z M 195.91797 564.95312 L 211.19531 564.95312 L 203.55664 578.18359 L 195.91797 564.95312 z M 235.44531 564.95312 L 250.7207 564.95312 L 243.08203 578.18359 L 235.44531 564.95312 z M 274.9707 564.95312 L 290.24805 564.95312 L 282.60938 578.18359 L 274.9707 564.95312 z M 306.41406 564.95312 L 314.49609 564.95312 L 337.85547 564.95312 L 341.89648 571.95312 L 353.57617 592.18359 L 349.53516 599.18359 L 337.85547 619.41406 L 329.77344 619.41406 L 306.41406 619.41406 L 302.37305 612.41406 L 290.69141 592.18359 L 294.73242 585.18359 L 306.41406 564.95312 z M 354.02148 564.95312 L 369.29883 564.95312 L 365.48047 571.56836 L 361.66016 578.18359 L 354.02148 564.95312 z M 472.59961 564.95312 L 487.875 564.95312 L 480.23633 578.18359 L 472.59961 564.95312 z M 512.125 564.95312 L 527.40039 564.95312 L 519.76367 578.18359 L 519.76172 578.18359 L 512.125 564.95312 z M 551.65039 564.95312 L 566.92578 564.95312 L 559.28906 578.18164 L 551.65039 564.95312 z M 583.09375 564.95312 L 591.17578 564.95312 L 614.53516 564.95312 L 618.57617 571.95117 L 618.57617 571.95312 L 630.25781 592.18359 L 626.21484 599.18359 L 614.53516 619.41406 L 606.45312 619.41406 L 583.09375 619.41406 L 583.0918 619.41406 L 579.05078 612.41406 L 567.37305 592.18359 L 571.41406 585.18359 L 583.09375 564.95312 z M 630.70117 564.95312 L 645.97852 564.95312 L 638.33984 578.18359 L 630.70117 564.95312 z M 749.27734 564.95312 L 764.55469 564.95312 L 756.91602 578.18359 L 749.27734 564.95312 z M 788.80469 564.95312 L 804.08203 564.95312 L 796.44336 578.18359 L 788.80469 564.95312 z M 828.33008 564.95312 L 843.60547 564.95312 L 835.96875 578.18164 L 835.96875 578.18359 L 835.9668 578.18359 L 828.33008 564.95312 z M 859.77148 564.95312 L 867.85547 564.95312 L 891.21484 564.95312 L 891.2168 564.95312 L 895.25781 571.95312 L 906.9375 592.18359 L 902.89648 599.18359 L 891.21484 619.41406 L 883.13281 619.41406 L 859.77148 619.41406 L 855.73047 612.41406 L 844.05078 592.18164 L 848.0918 585.18359 L 859.77148 564.95312 z M 907.38086 564.95312 L 922.6582 564.95312 L 915.01953 578.18359 L 907.38086 564.95312 z M 104.74219 571.95312 L 104.74414 571.95312 L 112.38086 585.18359 L 97.105469 585.18359 L 100.92383 578.56836 L 104.74219 571.95312 z M 183.79297 571.95312 L 191.43164 585.18359 L 176.15625 585.18359 L 183.79297 571.95312 z M 223.32031 571.95312 L 230.95703 585.18359 L 215.68164 585.18359 L 223.32031 571.95312 z M 262.8457 571.95312 L 270.48438 585.18359 L 255.20703 585.18359 L 262.8457 571.95312 z M 381.42188 571.95312 L 381.42383 571.95312 L 389.06055 585.18359 L 373.78516 585.18359 L 377.60352 578.56836 L 381.42188 571.95312 z M 460.47461 571.95312 L 468.11328 585.18359 L 452.83594 585.18359 L 460.47461 571.95312 z M 500 571.95312 L 507.63867 585.18359 L 492.36133 585.18359 L 500 571.95312 z M 539.52539 571.95312 L 547.16406 585.18359 L 531.88867 585.18359 L 539.52539 571.95312 z M 658.10352 571.95312 L 665.74219 585.18359 L 650.46484 585.18359 L 658.10352 571.95312 z M 737.1543 571.95312 L 744.79297 585.18359 L 729.51562 585.18359 L 737.1543 571.95312 z M 776.67969 571.95312 L 784.31836 585.18359 L 769.04102 585.18359 L 776.67969 571.95312 z M 816.20703 571.95312 L 823.84375 585.18359 L 808.56836 585.18359 L 816.20703 571.95312 z M 934.7832 571.95312 L 942.41992 585.18359 L 927.14453 585.18359 L 930.96484 578.56836 L 934.7832 571.95312 z M 97.105469 599.18359 L 112.38086 599.18359 L 104.74219 612.41406 L 97.105469 599.18359 z M 136.63086 599.18359 L 151.9082 599.18359 L 144.26953 612.41406 L 136.63086 599.18359 z M 176.15625 599.18359 L 191.43164 599.18359 L 183.79297 612.41406 L 176.15625 599.18359 z M 207.59766 599.18359 L 215.68164 599.18359 L 239.04102 599.18359 L 243.08203 606.18359 L 254.76367 626.41406 L 250.72266 633.41406 L 239.04102 653.64453 L 230.95898 653.64453 L 207.59766 653.64453 L 207.30664 653.13867 L 203.55664 646.64453 L 191.87695 626.41406 L 195.91797 619.41406 L 207.59766 599.18359 z M 255.20703 599.18359 L 270.48438 599.18359 L 262.8457 612.41406 L 255.20703 599.18359 z M 373.7832 599.18359 L 389.06055 599.18359 L 381.42188 612.41406 L 373.7832 599.18359 z M 413.31055 599.18359 L 428.58594 599.18359 L 420.94922 612.41406 L 413.31055 599.18359 z M 452.83594 599.18359 L 468.11133 599.18359 L 460.47461 612.41406 L 452.83594 599.18359 z M 484.2793 599.18359 L 492.36133 599.18359 L 515.72266 599.18359 L 519.76367 606.18359 L 531.44336 626.41406 L 527.40234 633.41406 L 515.7207 653.64453 L 507.63867 653.64453 L 484.2793 653.64453 L 484.27734 653.64453 L 480.23633 646.64453 L 468.55664 626.41406 L 472.59766 619.41406 L 484.2793 599.18359 z M 531.88867 599.18359 L 547.16406 599.18359 L 539.52539 612.41406 L 531.88867 599.18359 z M 650.46484 599.18359 L 665.74219 599.18359 L 658.10352 612.41406 L 650.46484 599.18359 z M 689.99023 599.18359 L 705.26562 599.18359 L 697.62891 612.41406 L 689.99023 599.18359 z M 729.51562 599.18359 L 744.79297 599.18359 L 737.1543 612.41406 L 729.51562 599.18359 z M 760.95898 599.18359 L 769.04102 599.18359 L 792.40234 599.18359 L 796.44336 606.18359 L 808.12305 626.41406 L 804.08203 633.41406 L 792.40234 653.64453 L 784.31836 653.64453 L 760.95898 653.64453 L 756.91797 646.64453 L 745.23828 626.41406 L 749.2793 619.41406 L 760.95898 599.18359 z M 808.56836 599.18359 L 823.84375 599.18359 L 816.20703 612.41406 L 816.20508 612.41406 L 808.56836 599.18359 z M 84.980469 606.18359 L 92.619141 619.41406 L 77.341797 619.41406 L 84.980469 606.18359 z M 124.50586 606.18359 L 132.14453 619.41406 L 116.86719 619.41406 L 124.50586 606.18359 z M 282.60938 606.18359 L 290.24805 619.41406 L 274.9707 619.41406 L 282.60938 606.18359 z M 361.66016 606.18359 L 369.29883 619.41406 L 354.02148 619.41406 L 361.66016 606.18359 z M 401.18555 606.18359 L 408.82422 619.41406 L 393.54688 619.41406 L 401.18555 606.18359 z M 440.71094 606.18359 L 448.34961 619.41406 L 433.07422 619.41406 L 440.71094 606.18359 z M 559.28906 606.18359 L 566.92578 619.41406 L 551.65039 619.41406 L 555.46875 612.79883 L 559.28906 606.18359 z M 638.33984 606.18359 L 645.97852 619.41406 L 630.70117 619.41406 L 638.33984 606.18359 z M 677.86523 606.18359 L 677.86719 606.18359 L 685.50391 619.41406 L 670.22852 619.41406 L 677.86523 606.18359 z M 717.39062 606.18359 L 725.0293 619.41406 L 709.75195 619.41406 L 717.39062 606.18359 z M 835.96875 606.18359 L 843.60547 619.41406 L 828.33008 619.41406 L 835.96875 606.18359 z M 915.01953 606.18359 L 922.6582 619.41406 L 907.38086 619.41406 L 915.01953 606.18359 z M 164.03125 606.18555 L 171.66992 619.41406 L 156.39453 619.41406 L 164.03125 606.18555 z M 77.341797 633.41406 L 92.619141 633.41406 L 84.980469 646.64453 L 77.341797 633.41406 z M 108.78516 633.41406 L 116.86719 633.41406 L 140.22852 633.41406 L 144.26953 640.41406 L 155.94922 660.64453 L 151.9082 667.64453 L 140.22852 687.87305 L 132.14453 687.87305 L 108.7832 687.87305 L 93.0625 660.64453 L 97.103516 653.64453 L 108.78516 633.41406 z M 156.39453 633.41406 L 171.66992 633.41406 L 164.03125 646.64453 L 156.39453 633.41406 z M 274.9707 633.41406 L 290.24805 633.41406 L 282.60938 646.64453 L 274.9707 633.41406 z M 314.49609 633.41406 L 329.77148 633.41406 L 322.13477 646.64453 L 314.49609 633.41406 z M 354.02148 633.41406 L 369.29883 633.41406 L 361.66016 646.64453 L 354.02148 633.41406 z M 385.46484 633.41406 L 393.54688 633.41406 L 416.90625 633.41406 L 416.9082 633.41406 L 420.94922 640.41406 L 432.62695 660.64453 L 428.58594 667.64453 L 416.90625 687.87305 L 408.82422 687.87305 L 385.46484 687.87305 L 385.46289 687.87305 L 381.42383 680.875 L 369.74414 660.64453 L 373.78516 653.64453 L 385.46484 633.41406 z M 433.07422 633.41406 L 448.34961 633.41406 L 440.71094 646.64453 L 433.07422 633.41406 z M 551.65039 633.41406 L 566.92578 633.41406 L 559.28906 646.64258 L 551.65039 633.41406 z M 591.17578 633.41406 L 606.45312 633.41406 L 598.81445 646.64453 L 591.17578 633.41406 z M 630.70117 633.41406 L 645.97852 633.41406 L 638.33984 646.64453 L 630.70117 633.41406 z M 662.14453 633.41406 L 670.22656 633.41406 L 693.58594 633.41406 L 697.62695 640.41406 L 709.30664 660.64453 L 705.26562 667.64453 L 693.58594 687.87305 L 685.50391 687.87305 L 662.14453 687.87305 L 658.10352 680.875 L 646.42383 660.64453 L 650.46484 653.64453 L 662.14453 633.41406 z M 709.75195 633.41406 L 725.0293 633.41406 L 717.39062 646.64453 L 709.75195 633.41406 z M 828.33008 633.41406 L 843.60547 633.41406 L 835.96875 646.64453 L 828.33008 633.41406 z M 867.85547 633.41406 L 883.13281 633.41406 L 875.49414 646.64453 L 867.85547 633.41406 z M 907.38086 633.41406 L 922.6582 633.41406 L 915.01953 646.64453 L 907.38086 633.41406 z M 183.79297 640.41406 L 183.79492 640.41406 L 191.43164 653.64453 L 176.15625 653.64453 L 179.97461 647.0293 L 183.79297 640.41406 z M 262.8457 640.41406 L 270.48438 653.64453 L 255.20703 653.64453 L 262.8457 640.41406 z M 302.37109 640.41406 L 306.19141 647.0293 L 310.00977 653.64453 L 294.73438 653.64453 L 302.37109 640.41406 z M 341.89844 640.41406 L 349.53516 653.64453 L 334.25977 653.64453 L 341.89844 640.41406 z M 460.47461 640.41406 L 468.11328 653.64453 L 452.83594 653.64453 L 460.47461 640.41406 z M 539.52539 640.41406 L 547.16406 653.64453 L 531.88672 653.64453 L 539.52539 640.41406 z M 579.05078 640.41406 L 586.68945 653.64453 L 571.41406 653.64453 L 579.05078 640.41406 z M 618.57812 640.41406 L 626.2168 653.64453 L 610.93945 653.64453 L 618.57812 640.41406 z M 737.1543 640.41406 L 744.79297 653.64453 L 729.51562 653.64453 L 733.33594 647.0293 L 737.1543 640.41406 z M 816.20703 640.41406 L 823.84375 653.64453 L 808.56836 653.64453 L 816.20703 640.41406 z M 855.73047 640.41406 L 863.36914 653.64453 L 848.0918 653.64453 L 855.73047 640.41406 z M 895.25781 640.41406 L 902.89453 653.64453 L 887.61914 653.64453 L 895.25781 640.41406 z M 57.580078 667.64453 L 72.855469 667.64453 L 65.216797 680.87305 L 57.580078 667.64453 z M 176.15625 667.64453 L 191.43164 667.64453 L 183.79297 680.87305 L 176.15625 667.64453 z M 215.68164 667.64453 L 230.95898 667.64453 L 223.32031 680.87305 L 215.68164 667.64453 z M 255.20703 667.64453 L 270.48438 667.64453 L 262.8457 680.87305 L 255.20703 667.64453 z M 286.65039 667.64453 L 294.73438 667.64453 L 318.09375 667.64453 L 322.13477 674.64453 L 333.81445 694.875 L 329.77344 701.87305 L 318.09375 722.10352 L 310.00977 722.10352 L 286.65039 722.10352 L 284.85352 718.99023 L 282.60938 715.10352 L 270.92773 694.875 L 270.92773 694.87305 L 274.9707 687.87305 L 286.65039 667.64453 z M 334.25781 667.64453 L 349.53516 667.64453 L 341.89648 680.87305 L 334.25781 667.64453 z M 452.83594 667.64453 L 468.11328 667.64453 L 460.47461 680.875 L 452.83594 667.64453 z M 492.36133 667.64453 L 507.63867 667.64453 L 500 680.87305 L 492.36133 667.64453 z M 531.88672 667.64453 L 547.16406 667.64453 L 539.52539 680.87305 L 531.88672 667.64453 z M 563.33008 667.64453 L 571.41406 667.64453 L 594.77344 667.64453 L 598.81445 674.64453 L 610.49414 694.87305 L 610.49414 694.875 L 606.45312 701.87305 L 594.77344 722.10352 L 586.68945 722.10352 L 563.33008 722.10352 L 561.17188 718.36719 L 559.28906 715.10352 L 547.60938 694.875 L 548.58594 693.18359 L 551.65039 687.87305 L 563.33008 667.64453 z M 610.93945 667.64453 L 626.21484 667.64453 L 622.39648 674.25781 L 618.57617 680.875 L 610.93945 667.64453 z M 729.51562 667.64453 L 744.79297 667.64453 L 737.1543 680.87305 L 729.51562 667.64453 z M 769.04297 667.64453 L 784.31836 667.64453 L 776.67969 680.87305 L 769.04297 667.64453 z M 808.56836 667.64453 L 823.84375 667.64453 L 816.20703 680.87305 L 816.20703 680.875 L 808.56836 667.64453 z M 840.00977 667.64453 L 848.0918 667.64453 L 871.45312 667.64453 L 875.49414 674.64453 L 887.17383 694.87305 L 883.13281 701.87305 L 871.45312 722.10352 L 863.36914 722.10352 L 840.00977 722.10352 L 835.96875 715.10352 L 824.28906 694.87305 L 828.33008 687.87305 L 840.00977 667.64453 z M 887.61914 667.64453 L 902.89453 667.64453 L 899.07617 674.25781 L 895.25586 680.875 L 887.61914 667.64453 z M 519.76367 674.64258 L 527.40039 687.87305 L 512.125 687.87305 L 519.76367 674.64258 z M 84.980469 674.64453 L 92.617188 687.87305 L 77.34375 687.87305 L 84.980469 674.64453 z M 164.03125 674.64453 L 164.0332 674.64453 L 171.66992 687.87305 L 156.39453 687.87305 L 164.03125 674.64453 z M 203.55664 674.64453 L 211.19336 687.87305 L 195.91992 687.87305 L 203.55664 674.64453 z M 243.08203 674.64453 L 250.7207 687.87305 L 235.44531 687.87305 L 243.08203 674.64453 z M 361.66016 674.64453 L 369.29688 687.87305 L 354.02344 687.87305 L 361.66016 674.64453 z M 440.71094 674.64453 L 448.34766 687.87305 L 433.07422 687.87305 L 440.71094 674.64453 z M 480.23828 674.64453 L 487.875 687.87305 L 472.59961 687.87305 L 480.23828 674.64453 z M 638.33984 674.64453 L 645.97656 687.87305 L 630.70312 687.87305 L 638.33984 674.64453 z M 717.39062 674.64453 L 725.02734 687.87305 L 709.75391 687.87305 L 717.39062 674.64453 z M 756.91797 674.64453 L 764.55469 687.87305 L 749.2793 687.87305 L 756.91797 674.64453 z M 796.44336 674.64453 L 804.08008 687.87305 L 788.80664 687.87305 L 796.44336 674.64453 z M 915.01953 674.64453 L 922.65625 687.87305 L 907.38281 687.87305 L 915.01953 674.64453 z M 77.341797 701.87305 L 92.619141 701.87305 L 84.980469 715.10352 L 77.341797 701.87305 z M 116.86719 701.87305 L 132.14453 701.87305 L 124.50586 715.10352 L 116.86719 701.87305 z M 156.39453 701.87305 L 171.66992 701.87305 L 164.0332 715.10352 L 164.03125 715.10352 L 156.39453 701.87305 z M 187.83594 701.87305 L 195.91797 701.87305 L 219.27734 701.87305 L 223.32031 708.87305 L 235 729.10352 L 230.95898 736.10352 L 219.27734 756.33594 L 211.19531 756.33594 L 187.83594 756.33594 L 185.61914 752.49609 L 183.79297 749.33398 L 172.11523 729.10547 L 176.15625 722.10352 L 187.83594 701.87305 z M 235.44531 701.87305 L 250.7207 701.87305 L 243.08398 715.10352 L 243.08203 715.10352 L 235.44531 701.87305 z M 354.02148 701.87305 L 369.29883 701.87305 L 361.66016 715.10352 L 354.02148 701.87305 z M 393.54688 701.87305 L 408.82422 701.87305 L 401.18555 715.10352 L 393.54688 701.87305 z M 433.07227 701.87305 L 448.34961 701.87305 L 440.71094 715.10352 L 433.07227 701.87305 z M 464.51562 701.87305 L 472.59766 701.87305 L 495.95898 701.87305 L 500 708.87305 L 511.67969 729.10352 L 507.63867 736.10352 L 495.95703 756.33594 L 487.875 756.33594 L 464.51562 756.33594 L 460.47461 749.33594 L 448.79492 729.10352 L 452.83594 722.10352 L 464.51562 701.87305 z M 512.125 701.87305 L 527.40039 701.87305 L 519.76367 715.10352 L 519.76172 715.10352 L 512.125 701.87305 z M 630.70117 701.87305 L 645.97852 701.87305 L 638.33984 715.10352 L 630.70117 701.87305 z M 670.22852 701.87305 L 685.50391 701.87305 L 677.86719 715.10352 L 670.22852 701.87305 z M 709.75195 701.87305 L 725.0293 701.87305 L 717.39062 715.10352 L 709.75195 701.87305 z M 741.19531 701.87305 L 749.2793 701.87305 L 772.63867 701.87305 L 776.67969 708.87305 L 788.35938 729.10352 L 784.31836 736.10352 L 772.63867 756.33594 L 764.55469 756.33594 L 741.19531 756.33594 L 737.1543 749.33594 L 725.47461 729.10352 L 729.51562 722.10352 L 741.19531 701.87305 z M 788.80469 701.87305 L 804.08203 701.87305 L 800.26172 708.48828 L 796.44336 715.10352 L 788.80469 701.87305 z M 907.38086 701.87305 L 922.6582 701.87305 L 915.01953 715.10352 L 907.38086 701.87305 z M 104.74219 708.87305 L 104.74414 708.87305 L 112.38086 722.10352 L 97.105469 722.10352 L 104.74219 708.87305 z M 144.26758 708.87305 L 151.90625 722.10352 L 136.63086 722.10352 L 144.26758 708.87305 z M 381.42188 708.87305 L 381.42383 708.87305 L 389.06055 722.10352 L 373.78516 722.10352 L 381.42188 708.87305 z M 420.94922 708.87305 L 428.58594 722.10352 L 413.31055 722.10352 L 420.94922 708.87305 z M 618.57617 708.87305 L 618.57812 708.87305 L 626.21484 722.10352 L 610.93945 722.10352 L 618.57617 708.87305 z M 697.62891 708.87305 L 705.26562 722.10352 L 689.99023 722.10352 L 697.62891 708.87305 z M 816.20508 708.87305 L 816.20703 708.87305 L 823.84375 722.10352 L 808.56836 722.10352 L 816.20508 708.87305 z M 895.25781 708.87305 L 902.89453 722.10352 L 887.61914 722.10352 L 895.25781 708.87305 z M 65.216797 708.875 L 72.855469 722.10352 L 57.580078 722.10352 L 65.216797 708.875 z M 262.8457 708.875 L 270.48438 722.10352 L 255.20703 722.10352 L 262.8457 708.875 z M 341.89648 708.875 L 349.53516 722.10352 L 334.25781 722.10352 L 341.89648 708.875 z M 539.52539 708.875 L 547.16406 722.10352 L 531.88867 722.10352 L 539.4043 709.08398 L 539.52539 708.875 z M 658.10352 708.875 L 665.74023 722.10352 L 650.46484 722.10352 L 658.10352 708.875 z M 934.7832 708.875 L 942.41992 722.10352 L 927.14453 722.10352 L 934.7832 708.875 z M 57.578125 736.10352 L 72.855469 736.10352 L 65.216797 749.33398 L 57.578125 736.10352 z M 89.021484 736.10352 L 97.103516 736.10352 L 120.46484 736.10352 L 124.50586 743.10352 L 136.18555 763.33594 L 132.14453 770.33594 L 120.46484 790.56445 L 112.38086 790.56445 L 89.021484 790.56445 L 84.980469 783.56445 L 73.300781 763.33398 L 89.021484 736.10352 z M 136.63086 736.10352 L 151.9082 736.10352 L 144.26953 749.33398 L 136.63086 736.10352 z M 255.20703 736.10352 L 270.48633 736.10352 L 262.8457 749.33594 L 255.20703 736.10352 z M 294.73438 736.10352 L 310.00977 736.10352 L 302.37305 749.33594 L 302.37109 749.33594 L 294.73438 736.10352 z M 334.25781 736.10352 L 349.53516 736.10352 L 341.89648 749.33594 L 334.25781 736.10352 z M 365.70312 736.10352 L 373.78516 736.10352 L 397.14453 736.10352 L 401.18555 743.10352 L 412.86523 763.33398 L 408.82422 770.33594 L 397.14453 790.56445 L 389.0625 790.56445 L 365.70117 790.56445 L 364.72461 788.875 L 361.66016 783.56445 L 349.98047 763.33594 L 354.02148 756.33594 L 365.70312 736.10352 z M 413.31055 736.10352 L 428.58789 736.10352 L 424.76758 742.71875 L 420.94922 749.33398 L 413.31055 736.10352 z M 531.88672 736.10352 L 547.16602 736.10352 L 539.52539 749.33594 L 531.88672 736.10352 z M 571.41406 736.10352 L 586.68945 736.10352 L 579.05078 749.33398 L 571.41406 736.10352 z M 610.9375 736.10352 L 626.21484 736.10352 L 618.57812 749.33594 L 618.57617 749.33594 L 610.9375 736.10352 z M 642.38281 736.10352 L 650.46484 736.10352 L 673.82422 736.10352 L 677.86523 743.10352 L 689.54492 763.33398 L 689.54492 763.33594 L 685.50391 770.33594 L 673.82422 790.56445 L 665.74219 790.56445 L 642.38086 790.56445 L 638.33984 783.56445 L 626.66016 763.33594 L 630.70117 756.33594 L 642.38281 736.10352 z M 689.99023 736.10352 L 705.26758 736.10352 L 701.44727 742.71875 L 697.62891 749.33594 L 697.62695 749.33594 L 697.62695 749.33398 L 689.99023 736.10352 z M 808.56641 736.10352 L 823.8457 736.10352 L 816.20508 749.33594 L 808.56641 736.10352 z M 848.0918 736.10352 L 863.36914 736.10352 L 855.73047 749.33398 L 848.0918 736.10352 z M 887.61719 736.10352 L 902.89648 736.10352 L 895.25781 749.33594 L 887.61719 736.10352 z M 243.08203 743.10352 L 250.72266 756.33594 L 235.44531 756.33594 L 243.08203 743.10352 z M 282.60938 743.10352 L 286.42969 749.71875 L 290.24805 756.33594 L 274.9707 756.33594 L 282.60938 743.10352 z M 598.81445 743.10352 L 606.45312 756.33594 L 591.17383 756.33594 L 598.81445 743.10352 z M 796.44336 743.10352 L 804.08203 756.33594 L 788.80469 756.33594 L 796.44336 743.10352 z M 164.03125 743.10547 L 171.66992 756.33594 L 156.39258 756.33594 L 160.21289 749.71875 L 164.03125 743.10547 z M 322.13477 743.10547 L 329.77344 756.33594 L 314.49609 756.33594 L 322.13477 743.10547 z M 440.71094 743.10547 L 448.34961 756.33594 L 433.07227 756.33594 L 440.71094 743.10547 z M 519.76367 743.10547 L 527.40234 756.33594 L 512.125 756.33594 L 519.76367 743.10547 z M 559.28906 743.10547 L 566.92578 756.33594 L 551.65039 756.33594 L 559.28906 743.10547 z M 717.39062 743.10547 L 725.0293 756.33594 L 709.75195 756.33594 L 717.39062 743.10547 z M 835.96875 743.10547 L 839.78711 749.71875 L 843.60742 756.33594 L 828.33008 756.33594 L 835.96875 743.10547 z M 875.49414 743.10547 L 883.13281 756.33594 L 867.85547 756.33594 L 875.49414 743.10547 z M 156.39453 770.33594 L 171.66797 770.33594 L 164.03125 783.56445 L 156.39453 770.33594 z M 195.91992 770.33594 L 211.19336 770.33594 L 203.55664 783.56445 L 195.91992 770.33594 z M 235.44531 770.33594 L 250.7207 770.33594 L 243.08203 783.56445 L 235.44531 770.33594 z M 266.88672 770.33594 L 274.9707 770.33594 L 298.33203 770.33594 L 302.37305 777.33594 L 314.05078 797.56445 L 310.00977 804.56445 L 298.33008 824.79492 L 290.24805 824.79492 L 266.88672 824.79492 L 262.8457 817.79492 L 251.16602 797.56445 L 255.20703 790.56445 L 266.88672 770.33594 z M 314.49609 770.33594 L 329.77148 770.33594 L 322.13477 783.56445 L 322.13281 783.56445 L 314.49609 770.33594 z M 433.07422 770.33594 L 448.34766 770.33594 L 440.71094 783.56445 L 433.07422 770.33594 z M 472.59961 770.33594 L 487.875 770.33594 L 480.23828 783.56445 L 480.23633 783.56445 L 472.59961 770.33594 z M 512.125 770.33594 L 527.40039 770.33594 L 519.76367 783.56445 L 519.76172 783.56445 L 512.125 770.33594 z M 543.56641 770.33594 L 551.65039 770.33594 L 575.00977 770.33594 L 579.05078 777.33594 L 590.73047 797.56445 L 586.68945 804.56445 L 575.00977 824.79492 L 566.92578 824.79492 L 543.56836 824.79492 L 543.56641 824.79492 L 539.52539 817.79492 L 527.8457 797.56445 L 531.88672 790.56445 L 543.56641 770.33594 z M 591.17773 770.33594 L 606.45117 770.33594 L 598.81445 783.56445 L 591.17773 770.33594 z M 709.75195 770.33594 L 725.0293 770.33594 L 717.39062 783.56445 L 709.75195 770.33594 z M 749.2793 770.33594 L 764.55469 770.33594 L 756.91797 783.56445 L 756.91602 783.56445 L 749.2793 770.33594 z M 788.80664 770.33594 L 804.08008 770.33594 L 796.44336 783.56445 L 788.80664 770.33594 z M 820.24805 770.33594 L 828.33008 770.33594 L 851.68945 770.33594 L 855.73047 777.33398 L 855.73047 777.33594 L 867.41016 797.56445 L 863.36914 804.56445 L 851.68945 824.79492 L 843.60742 824.79492 L 820.24805 824.79492 L 816.20703 817.79688 L 804.52539 797.56445 L 808.56836 790.56445 L 820.24805 770.33594 z M 867.85742 770.33594 L 883.13086 770.33594 L 875.49414 783.56445 L 867.85742 770.33594 z M 183.79297 777.33398 L 191.43164 790.56445 L 176.15625 790.56445 L 183.79297 777.33398 z M 618.57812 777.33398 L 626.21484 790.56445 L 610.93945 790.56445 L 614.75781 783.94922 L 618.57617 777.33594 L 618.57812 777.33398 z M 697.62695 777.33398 L 705.26562 790.56445 L 689.99023 790.56445 L 697.62695 777.33594 L 697.62695 777.33398 z M 65.216797 777.33594 L 72.855469 790.56445 L 57.580078 790.56445 L 65.216797 777.33594 z M 144.26953 777.33594 L 151.9082 790.56445 L 136.63086 790.56445 L 144.26953 777.33594 z M 223.32031 777.33594 L 230.95703 790.56445 L 215.68164 790.56445 L 223.32031 777.33594 z M 341.89648 777.33594 L 349.53516 790.56445 L 334.25781 790.56445 L 341.89648 777.33594 z M 420.94922 777.33594 L 428.58594 790.56445 L 413.31055 790.56445 L 420.94922 777.33594 z M 460.47461 777.33594 L 468.11133 790.56445 L 452.83594 790.56445 L 460.47461 777.33594 z M 500 777.33594 L 507.63867 790.56445 L 492.36133 790.56445 L 500 777.33594 z M 737.1543 777.33594 L 740.97266 783.94922 L 744.79297 790.56445 L 729.51562 790.56445 L 737.1543 777.33594 z M 776.67969 777.33594 L 784.31836 790.56445 L 769.04102 790.56445 L 776.67969 777.33594 z M 895.25781 777.33594 L 902.89453 790.56445 L 887.61914 790.56445 L 895.25781 777.33594 z M 97.105469 804.56445 L 112.38086 804.56445 L 104.74414 817.79492 L 104.74219 817.79492 L 97.105469 804.56445 z M 136.63086 804.56445 L 151.9082 804.56445 L 144.26953 817.79492 L 136.63086 804.56445 z M 168.07422 804.56445 L 176.15625 804.56445 L 199.51562 804.56445 L 203.55664 811.56445 L 215.23633 831.79492 L 211.19531 838.79492 L 199.51562 859.02539 L 191.43359 859.02539 L 168.07422 859.02539 L 168.07227 859.02539 L 164.03125 852.02539 L 152.35156 831.79492 L 156.39258 824.79492 L 168.07422 804.56445 z M 215.68164 804.56445 L 230.95703 804.56445 L 223.32031 817.79492 L 215.68164 804.56445 z M 334.25977 804.56445 L 349.53516 804.56445 L 341.89844 817.79492 L 334.25977 804.56445 z M 373.78516 804.56445 L 389.06055 804.56445 L 381.42383 817.79492 L 381.42188 817.79492 L 373.78516 804.56445 z M 413.31055 804.56445 L 428.58594 804.56445 L 420.94922 817.79492 L 413.31055 804.56445 z M 444.75391 804.56445 L 452.83594 804.56445 L 476.19531 804.56445 L 480.23633 811.56445 L 491.91602 831.79492 L 487.875 838.79492 L 476.19531 859.02539 L 468.11328 859.02539 L 444.75391 859.02539 L 444.75195 859.02539 L 440.71094 852.02539 L 429.0332 831.79492 L 433.07422 824.79492 L 444.75391 804.56445 z M 492.36133 804.56445 L 507.63867 804.56445 L 503.82031 811.17969 L 500 817.79492 L 492.36133 804.56445 z M 610.9375 804.56445 L 626.21484 804.56445 L 618.57617 817.79492 L 610.9375 804.56445 z M 650.46484 804.56445 L 665.74219 804.56445 L 658.10352 817.79492 L 650.46484 804.56445 z M 689.99023 804.56445 L 705.26562 804.56445 L 697.62891 817.79492 L 697.62695 817.79492 L 689.99023 804.56445 z M 721.43164 804.56445 L 729.51562 804.56445 L 752.875 804.56445 L 752.87695 804.56445 L 756.91797 811.56445 L 768.5957 831.79492 L 764.55469 838.79492 L 752.875 859.02539 L 744.79297 859.02539 L 721.43164 859.02539 L 717.39062 852.02539 L 705.71094 831.79492 L 709.75195 824.79492 L 721.43164 804.56445 z M 769.04102 804.56445 L 784.31836 804.56445 L 780.5 811.17969 L 776.67969 817.79492 L 769.04102 804.56445 z M 887.61719 804.56445 L 902.89453 804.56445 L 895.25586 817.79492 L 887.61719 804.56445 z M 927.14453 804.56445 L 942.41992 804.56445 L 934.7832 817.79492 L 927.14453 804.56445 z M 84.980469 811.56445 L 92.619141 824.79492 L 77.341797 824.79492 L 84.980469 811.56445 z M 124.50586 811.56445 L 132.14453 824.79492 L 116.86719 824.79492 L 124.50586 811.56445 z M 243.08203 811.56445 L 243.08398 811.56445 L 250.7207 824.79492 L 235.44531 824.79492 L 239.26367 818.17969 L 243.08203 811.56445 z M 322.13281 811.56445 L 322.13477 811.56445 L 329.77148 824.79492 L 314.49609 824.79492 L 322.13281 811.56445 z M 361.66016 811.56445 L 365.48047 818.17969 L 369.29883 824.79492 L 354.02148 824.79492 L 361.66016 811.56445 z M 401.18555 811.56445 L 408.82422 824.79492 L 393.54688 824.79492 L 401.18555 811.56445 z M 519.76172 811.56445 L 519.76367 811.56445 L 527.40039 824.79492 L 512.125 824.79492 L 519.76172 811.56445 z M 598.81445 811.56445 L 606.45312 824.79492 L 591.17578 824.79492 L 598.81445 811.56445 z M 638.33984 811.56445 L 642.16016 818.17969 L 645.97852 824.79492 L 630.70117 824.79492 L 638.33984 811.56445 z M 677.86523 811.56445 L 685.50391 824.79492 L 670.22852 824.79492 L 677.86523 811.56445 z M 796.44336 811.56445 L 804.08203 824.79492 L 788.80469 824.79492 L 796.44336 811.56445 z M 875.49414 811.56445 L 883.13281 824.79492 L 867.85547 824.79492 L 875.49414 811.56445 z M 915.01953 811.56445 L 922.6582 824.79492 L 907.38086 824.79492 L 915.01953 811.56445 z M 116.86719 838.79492 L 132.14453 838.79492 L 128.32422 845.41016 L 124.50586 852.02539 L 116.86719 838.79492 z M 235.44531 838.79492 L 250.7207 838.79492 L 243.08203 852.02539 L 235.44531 838.79492 z M 274.9707 838.79492 L 290.24805 838.79492 L 282.60938 852.02539 L 274.9707 838.79492 z M 314.49609 838.79492 L 329.77148 838.79492 L 322.13477 852.02539 L 322.13281 852.02539 L 314.49609 838.79492 z M 345.9375 838.79492 L 354.02148 838.79492 L 377.38086 838.79492 L 377.38281 838.79492 L 381.42383 845.79492 L 393.10352 866.02539 L 389.0625 873.02539 L 377.38086 893.25586 L 369.29883 893.25586 L 345.93945 893.25586 L 330.2168 866.02539 L 330.2168 866.02344 L 334.25781 859.02539 L 345.9375 838.79492 z M 393.54688 838.79492 L 408.82422 838.79492 L 401.18555 852.02539 L 393.54688 838.79492 z M 512.125 838.79492 L 527.40039 838.79492 L 519.76172 852.02539 L 512.125 838.79492 z M 551.65039 838.79492 L 566.92578 838.79492 L 559.28906 852.02539 L 551.65039 838.79492 z M 591.17578 838.79492 L 606.45312 838.79492 L 598.81445 852.02539 L 591.17578 838.79492 z M 622.61914 838.79492 L 630.70117 838.79492 L 654.06055 838.79492 L 654.0625 838.79492 L 658.10352 845.79492 L 669.7832 866.02539 L 665.74219 873.02539 L 654.06055 893.25586 L 645.97852 893.25586 L 622.61914 893.25586 L 606.89648 866.02539 L 610.9375 859.02539 L 622.61914 838.79492 z M 670.22852 838.79492 L 685.50391 838.79492 L 677.86523 852.02539 L 670.22852 838.79492 z M 788.80469 838.79492 L 804.08203 838.79492 L 796.44336 852.02539 L 788.80469 838.79492 z M 828.33008 838.79492 L 843.60547 838.79492 L 835.96875 852.02539 L 828.33008 838.79492 z M 867.85547 838.79492 L 883.13281 838.79492 L 875.49414 852.02539 L 867.85547 838.79492 z M 144.26953 845.79492 L 151.9082 859.02539 L 136.63086 859.02539 L 144.26953 845.79492 z M 223.32031 845.79492 L 230.95898 859.02539 L 215.68164 859.02539 L 223.32031 845.79492 z M 262.8457 845.79492 L 266.66406 852.41016 L 270.48438 859.02539 L 255.20703 859.02539 L 262.8457 845.79492 z M 302.37305 845.79492 L 310.00977 859.02539 L 294.73438 859.02539 L 302.37305 845.79492 z M 420.94922 845.79492 L 428.58594 859.02539 L 413.31055 859.02539 L 420.94922 845.79492 z M 500 845.79492 L 507.63867 859.02539 L 492.36133 859.02539 L 500 845.79492 z M 539.52539 845.79492 L 547.16406 859.02539 L 531.88672 859.02539 L 539.52539 845.79492 z M 697.62695 845.79492 L 697.62891 845.79492 L 705.26562 859.02539 L 689.99023 859.02539 L 697.62695 845.79492 z M 776.67969 845.79492 L 784.31836 859.02539 L 769.04102 859.02539 L 776.67969 845.79492 z M 816.20508 845.79492 L 816.20703 845.79492 L 820.02539 852.41016 L 823.84375 859.02539 L 808.56836 859.02539 L 816.20508 845.79492 z M 855.73047 845.79492 L 863.36914 859.02539 L 848.0918 859.02539 L 855.73047 845.79492 z M 579.05078 845.79688 L 586.68945 859.02539 L 571.41406 859.02539 L 579.05078 845.79688 z M 136.63086 873.02539 L 151.90625 873.02539 L 144.26953 886.25586 L 136.63086 873.02539 z M 176.15625 873.02539 L 191.43164 873.02539 L 183.79492 886.25586 L 183.79297 886.25586 L 176.15625 873.02539 z M 215.68164 873.02539 L 230.95898 873.02539 L 223.32031 886.25586 L 215.68164 873.02539 z M 294.73438 873.02539 L 310.00977 873.02539 L 306.19141 879.64062 L 302.37109 886.25586 L 294.73438 873.02539 z M 413.31055 873.02539 L 428.58594 873.02539 L 420.94922 886.25586 L 413.31055 873.02539 z M 452.83594 873.02539 L 468.11133 873.02539 L 460.47461 886.25586 L 452.83594 873.02539 z M 492.36133 873.02539 L 507.63867 873.02539 L 500 886.25586 L 492.36133 873.02539 z M 571.41406 873.02539 L 586.68945 873.02539 L 582.87109 879.64062 L 579.05078 886.25586 L 571.41406 873.02539 z M 689.98828 873.02539 L 705.26562 873.02539 L 697.62695 886.25586 L 689.98828 873.02539 z M 729.51562 873.02539 L 744.79297 873.02539 L 737.1543 886.25586 L 729.51562 873.02539 z M 769.04102 873.02539 L 784.31836 873.02539 L 776.67969 886.25586 L 769.04102 873.02539 z M 848.0918 873.02539 L 863.36914 873.02539 L 855.73047 886.25586 L 848.0918 873.02539 z M 124.50586 880.02539 L 132.14453 893.25586 L 116.86719 893.25586 L 124.50586 880.02539 z M 164.03125 880.02539 L 167.85156 886.64062 L 171.66992 893.25586 L 156.39453 893.25586 L 164.03125 880.02539 z M 203.55664 880.02539 L 211.19531 893.25586 L 195.91797 893.25586 L 203.55664 880.02539 z M 322.13281 880.02539 L 322.13477 880.02539 L 329.77148 893.25586 L 314.49609 893.25586 L 322.13281 880.02539 z M 401.18555 880.02539 L 408.82422 893.25586 L 393.54688 893.25586 L 401.18555 880.02539 z M 440.71094 880.02539 L 444.53125 886.64062 L 448.34961 893.25586 L 433.07422 893.25586 L 440.71094 880.02539 z M 480.23828 880.02539 L 487.875 893.25586 L 472.59961 893.25586 L 480.23828 880.02539 z M 598.81445 880.02539 L 606.45312 893.25586 L 591.17578 893.25586 L 598.81445 880.02539 z M 677.86523 880.02539 L 677.86719 880.02539 L 685.50391 893.25586 L 670.22852 893.25586 L 677.86523 880.02539 z M 717.39062 880.02539 L 725.0293 893.25586 L 709.75195 893.25586 L 717.39062 880.02539 z M 756.91797 880.02539 L 764.55469 893.25586 L 749.2793 893.25586 L 756.91797 880.02539 z M 875.49414 880.02539 L 883.13281 893.25586 L 867.85547 893.25586 L 875.49414 880.02539 z M 77.341797 907.25586 L 92.619141 907.25586 L 84.980469 920.48633 L 77.341797 907.25586 z M 116.86719 907.25586 L 132.14453 907.25586 L 124.50586 920.48633 L 116.86719 907.25586 z M 195.91797 907.25586 L 211.19531 907.25586 L 203.55664 920.48633 L 195.91797 907.25586 z M 354.02148 907.25586 L 369.29883 907.25586 L 361.66016 920.48633 L 354.02148 907.25586 z M 393.54688 907.25586 L 408.82422 907.25586 L 401.18555 920.48633 L 393.54688 907.25586 z M 472.59961 907.25586 L 487.875 907.25586 L 480.23828 920.48633 L 472.59961 907.25586 z M 630.70117 907.25586 L 645.97852 907.25586 L 638.33984 920.48633 L 630.70117 907.25586 z M 670.22852 907.25586 L 685.50391 907.25586 L 677.86719 920.48633 L 670.22852 907.25586 z M 749.2793 907.25586 L 764.55469 907.25586 L 756.91797 920.48633 L 749.2793 907.25586 z M 907.38086 907.25586 L 922.6582 907.25586 L 915.01953 920.48633 L 907.38086 907.25586 z "
     id="path832" />
</svg>
