<?xml version="1.0" encoding="UTF-8" standalone="no"?>
<svg
   xmlns:dc="http://purl.org/dc/elements/1.1/"
   xmlns:cc="http://creativecommons.org/ns#"
   xmlns:rdf="http://www.w3.org/1999/02/22-rdf-syntax-ns#"
   xmlns:svg="http://www.w3.org/2000/svg"
   xmlns="http://www.w3.org/2000/svg"
   xmlns:sodipodi="http://sodipodi.sourceforge.net/DTD/sodipodi-0.dtd"
   xmlns:inkscape="http://www.inkscape.org/namespaces/inkscape"
   inkscape:version="1.0.1 (3bc2e813f5, 2020-09-07)"
   sodipodi:docname="2-uniform_n14.svg"
   id="svg91181"
   height="987.9319"
   width="1000.0"
   version="1.0">
  <metadata
     id="metadata91187">
    <rdf:RDF>
      <cc:Work
         rdf:about="">
        <dc:format>image/svg+xml</dc:format>
        <dc:type
           rdf:resource="http://purl.org/dc/dcmitype/StillImage" />
        <dc:title></dc:title>
      </cc:Work>
    </rdf:RDF>
  </metadata>
  <defs
     id="defs91185" />
  <sodipodi:namedview
     inkscape:current-layer="svg91181"
     inkscape:window-maximized="1"
     inkscape:window-y="-9"
     inkscape:window-x="-9"
     inkscape:cy="139.43701"
     inkscape:cx="114.2983"
     inkscape:zoom="2.372707"
     showgrid="false"
     id="namedview91183"
     inkscape:window-height="1001"
     inkscape:window-width="1920"
     inkscape:pageshadow="2"
     inkscape:pageopacity="0"
     guidetolerance="10"
     gridtolerance="10"
     objecttolerance="10"
     borderopacity="1"
     inkscape:document-rotation="0"
     bordercolor="#666666"
     pagecolor="#ffffff" />
  <!-- X Coordinate transform: fx(x)=(x+80.75)*0.86095566-->
  <!-- Y Coordinate transform: fy(y)=(1095.3921-y)*0.86095566 -->
  <path
     style="color:#000000;font-style:normal;font-variant:normal;font-weight:normal;font-stretch:normal;font-size:medium;line-height:normal;font-family:sans-serif;font-variant-ligatures:normal;font-variant-position:normal;font-variant-caps:normal;font-variant-numeric:normal;font-variant-alternates:normal;font-variant-east-asian:normal;font-feature-settings:normal;font-variation-settings:normal;text-indent:0;text-align:start;text-decoration:none;text-decoration-line:none;text-decoration-style:solid;text-decoration-color:#000000;letter-spacing:normal;word-spacing:normal;text-transform:none;writing-mode:lr-tb;direction:ltr;text-orientation:mixed;dominant-baseline:auto;baseline-shift:baseline;text-anchor:start;white-space:normal;shape-padding:0;shape-margin:0;inline-size:0;clip-rule:nonzero;display:inline;overflow:visible;visibility:visible;isolation:auto;mix-blend-mode:normal;color-interpolation:sRGB;color-interpolation-filters:linearRGB;solid-color:#000000;solid-opacity:1;vector-effect:none;fill:#000000;fill-opacity:1;fill-rule:nonzero;stroke:none;stroke-width:14;stroke-linecap:butt;stroke-linejoin:miter;stroke-miterlimit:4;stroke-dasharray:none;stroke-dashoffset:0;stroke-opacity:1;color-rendering:auto;image-rendering:auto;shape-rendering:auto;text-rendering:auto;enable-background:accumulate;stop-color:#000000;stop-opacity:1;opacity:1"
     d="M 19.474609 35.171875 L 19.474609 42.171875 L 19.474609 83.341797 L 0.90820312 115.5 L -7.1738281 115.5 L -3.1328125 122.5 L -7.1738281 129.5 L 0.91015625 129.5 L 19.474609 161.6543 L 19.474609 200.95117 L 0.91015625 233.10742 L -7.1738281 233.10742 L -3.1328125 240.10742 L -7.1738281 247.10742 L 0.91015625 247.10742 L 19.474609 279.26367 L 19.474609 318.56055 L 0.91015625 350.7168 L -7.1738281 350.7168 L -3.1328125 357.7168 L -7.1738281 364.7168 L 0.91015625 364.7168 L 19.474609 396.87109 L 19.474609 436.16797 L 0.90820312 468.32617 L -7.1738281 468.32617 L -3.1328125 475.32617 L -7.1738281 482.32617 L 0.91015625 482.32617 L 19.474609 514.48047 L 19.474609 553.7793 L 0.91015625 585.93359 L -7.1738281 585.93359 L -3.1328125 592.93359 L -7.1738281 599.93359 L 0.90820312 599.93359 L 19.474609 632.08984 L 19.474609 671.38867 L 0.91015625 703.54297 L -7.1738281 703.54297 L -3.1328125 710.54297 L -7.1738281 717.54297 L 0.90820312 717.54297 L 19.474609 749.69922 L 19.474609 788.99609 L 0.90820312 821.15234 L -7.1738281 821.15234 L -3.1328125 828.15234 L -7.1738281 835.15234 L 0.91015625 835.15234 L 19.474609 867.30664 L 19.474609 906.60547 L 0.90820312 938.76172 L -7.1738281 938.76172 L -3.1328125 945.76172 L -7.1738281 952.76172 L 0.91015625 952.76172 L 26.474609 997.04102 L 32.537109 986.54102 L 47.998047 959.76172 L 69.521484 997.04102 L 75.583984 986.54102 L 91.046875 959.75977 L 112.57031 997.04102 L 118.63281 986.54102 L 134.09375 959.76172 L 155.61719 997.04102 L 161.67969 986.54102 L 177.14258 959.75977 L 198.66602 997.04102 L 204.72852 986.54102 L 220.18945 959.76172 L 241.71289 997.04102 L 247.77539 986.54102 L 263.23828 959.75977 L 284.76172 997.04102 L 290.82227 986.54102 L 306.28516 959.76172 L 327.80859 997.04102 L 333.87109 986.54102 L 349.33398 959.75977 L 370.85742 997.04102 L 376.91992 986.54102 L 392.38086 959.76172 L 413.9043 997.04102 L 419.9668 986.54102 L 435.42773 959.76172 L 456.95117 997.04102 L 463.01367 986.54102 L 478.47656 959.75977 L 500 997.04102 L 506.0625 986.54102 L 521.52539 959.75977 L 543.04883 997.04102 L 549.10938 986.54102 L 564.57227 959.76172 L 586.0957 997.04102 L 592.1582 986.54102 L 607.61914 959.76172 L 629.14258 997.04102 L 635.20508 986.54102 L 650.66797 959.75977 L 672.19141 997.04102 L 678.25391 986.54102 L 693.71484 959.76172 L 715.23828 997.04102 L 721.30078 986.54102 L 736.76367 959.75977 L 758.28711 997.04102 L 764.34961 986.54102 L 779.81055 959.76172 L 801.33398 997.04102 L 807.39648 986.54102 L 822.85938 959.75977 L 844.38281 997.04102 L 850.44336 986.54102 L 865.90625 959.76172 L 887.42969 997.04102 L 893.49219 986.54102 L 908.95508 959.75977 L 930.47852 997.04102 L 936.54102 986.54102 L 952.00195 959.76172 L 973.52539 997.04102 L 979.58789 986.54102 L 999.08984 952.76172 L 1007.1738 952.76172 L 1003.1328 945.76172 L 1007.1738 938.76172 L 999.08984 938.76172 L 980.52539 906.60547 L 980.52539 867.30859 L 999.08984 835.15234 L 1007.1738 835.15234 L 1003.1328 828.15234 L 1007.1738 821.15234 L 999.08984 821.15234 L 980.52539 788.99609 L 980.52539 749.70117 L 999.0918 717.54297 L 1007.1738 717.54297 L 1003.1328 710.54297 L 1007.1738 703.54297 L 999.08984 703.54297 L 980.52539 671.38867 L 980.52539 632.0918 L 999.0918 599.93359 L 1007.1738 599.93359 L 1003.1328 592.93359 L 1007.1738 585.93359 L 999.08984 585.93359 L 980.52539 553.7793 L 980.52539 514.48047 L 999.08984 482.32617 L 1007.1738 482.32617 L 1003.1328 475.32617 L 1007.1738 468.32617 L 999.0918 468.32617 L 980.52539 436.16992 L 980.52539 396.87109 L 999.08984 364.7168 L 1007.1738 364.7168 L 1003.1328 357.7168 L 1007.1738 350.7168 L 999.08984 350.7168 L 980.52539 318.5625 L 980.52539 279.26367 L 999.0918 247.10742 L 1007.1738 247.10742 L 1003.1328 240.10742 L 1007.1738 233.10742 L 999.08984 233.10742 L 980.52539 200.95312 L 980.52539 161.6543 L 999.08984 129.5 L 1007.1738 129.5 L 1003.1328 122.5 L 1007.1738 115.5 L 999.0918 115.5 L 980.52539 83.34375 L 980.52539 35.171875 L 973.52539 35.171875 L 937.47852 35.171875 L 930.47852 35.171875 L 923.47852 35.171875 L 894.42969 35.171875 L 887.42969 35.171875 L 880.42969 35.171875 L 851.38281 35.171875 L 844.38281 35.171875 L 837.38281 35.171875 L 808.33398 35.171875 L 801.33398 35.171875 L 794.33398 35.171875 L 765.28711 35.171875 L 758.28711 35.171875 L 751.28711 35.171875 L 722.23828 35.171875 L 715.23828 35.171875 L 708.23828 35.171875 L 679.19141 35.171875 L 672.19141 35.171875 L 665.19141 35.171875 L 636.14258 35.171875 L 629.14258 35.171875 L 622.14258 35.171875 L 593.0957 35.171875 L 586.0957 35.171875 L 579.0957 35.171875 L 550.04883 35.171875 L 543.04883 35.171875 L 536.04883 35.171875 L 507 35.171875 L 500 35.171875 L 493 35.171875 L 463.95117 35.171875 L 456.95117 35.171875 L 449.95117 35.171875 L 420.9043 35.171875 L 413.9043 35.171875 L 406.9043 35.171875 L 377.85742 35.171875 L 370.85742 35.171875 L 363.85742 35.171875 L 334.80859 35.171875 L 320.80859 35.171875 L 291.76172 35.171875 L 277.76172 35.171875 L 248.71289 35.171875 L 234.71289 35.171875 L 205.66602 35.171875 L 191.66602 35.171875 L 162.61719 35.171875 L 148.61719 35.171875 L 119.57031 35.171875 L 105.57031 35.171875 L 76.521484 35.171875 L 62.521484 35.171875 L 19.474609 35.171875 z M 33.474609 49.171875 L 62.521484 49.171875 L 62.521484 78.21875 L 33.474609 78.21875 L 33.474609 49.171875 z M 76.521484 49.171875 L 105.57031 49.171875 L 105.57031 78.21875 L 76.521484 78.21875 L 76.521484 49.171875 z M 119.57031 49.171875 L 148.61719 49.171875 L 148.61719 78.21875 L 119.57031 78.21875 L 119.57031 49.171875 z M 162.61719 49.171875 L 191.66602 49.171875 L 191.66602 78.21875 L 162.61719 78.21875 L 162.61719 49.171875 z M 205.66602 49.171875 L 234.71289 49.171875 L 234.71289 78.21875 L 205.66602 78.21875 L 205.66602 49.171875 z M 248.71289 49.171875 L 277.76172 49.171875 L 277.76172 78.21875 L 248.71289 78.21875 L 248.71289 49.171875 z M 291.76172 49.171875 L 320.80859 49.171875 L 320.80859 78.21875 L 291.76172 78.21875 L 291.76172 49.171875 z M 334.80859 49.171875 L 363.85742 49.171875 L 363.85742 78.21875 L 334.80859 78.21875 L 334.80859 49.171875 z M 377.85742 49.171875 L 406.9043 49.171875 L 406.9043 78.21875 L 377.85742 78.21875 L 377.85742 49.171875 z M 420.9043 49.171875 L 449.95117 49.171875 L 449.95117 78.21875 L 420.9043 78.21875 L 420.9043 49.171875 z M 463.95117 49.171875 L 493 49.171875 L 493 78.21875 L 463.95117 78.21875 L 463.95117 49.171875 z M 507 49.171875 L 536.04883 49.171875 L 536.04883 78.21875 L 507 78.21875 L 507 49.171875 z M 550.04883 49.171875 L 579.0957 49.171875 L 579.0957 78.21875 L 550.04883 78.21875 L 550.04883 49.171875 z M 593.0957 49.171875 L 622.14258 49.171875 L 622.14258 78.21875 L 593.0957 78.21875 L 593.0957 49.171875 z M 636.14258 49.171875 L 665.19141 49.171875 L 665.19141 78.21875 L 636.14258 78.21875 L 636.14258 49.171875 z M 679.19141 49.171875 L 708.23828 49.171875 L 708.23828 78.21875 L 679.19141 78.21875 L 679.19141 49.171875 z M 722.23828 49.171875 L 751.28711 49.171875 L 751.28711 78.21875 L 722.23828 78.21875 L 722.23828 49.171875 z M 765.28711 49.171875 L 794.33398 49.171875 L 794.33398 78.21875 L 765.28711 78.21875 L 765.28711 49.171875 z M 808.33398 49.171875 L 837.38281 49.171875 L 837.38281 78.21875 L 808.33398 78.21875 L 808.33398 49.171875 z M 851.38281 49.171875 L 880.42969 49.171875 L 880.42969 78.21875 L 851.38281 78.21875 L 851.38281 49.171875 z M 894.42969 49.171875 L 923.47852 49.171875 L 923.47852 78.21875 L 894.42969 78.21875 L 894.42969 49.171875 z M 937.47852 49.171875 L 966.52539 49.171875 L 966.52539 78.21875 L 937.47852 78.21875 L 937.47852 49.171875 z M 38.599609 92.21875 L 57.396484 92.21875 L 47.998047 108.49805 L 38.599609 92.21875 z M 81.646484 92.21875 L 100.44531 92.21875 L 91.044922 108.5 L 81.646484 92.21875 z M 124.69531 92.21875 L 143.49414 92.21875 L 134.09375 108.5 L 124.69531 92.21875 z M 167.74219 92.21875 L 186.54102 92.21875 L 177.14062 108.5 L 167.74219 92.21875 z M 210.78906 92.21875 L 229.58789 92.21875 L 220.18945 108.5 L 210.78906 92.21875 z M 253.83789 92.21875 L 272.63672 92.21875 L 263.23633 108.5 L 253.83789 92.21875 z M 296.88672 92.21875 L 315.68359 92.21875 L 306.28516 108.49805 L 296.88672 92.21875 z M 339.93359 92.21875 L 358.73242 92.21875 L 349.33203 108.5 L 339.93359 92.21875 z M 382.98242 92.21875 L 401.7793 92.21875 L 392.38086 108.5 L 382.98242 92.21875 z M 426.0293 92.21875 L 444.82812 92.21875 L 435.42773 108.5 L 426.0293 92.21875 z M 469.07617 92.21875 L 487.875 92.21875 L 478.47461 108.5 L 469.07617 92.21875 z M 512.125 92.21875 L 530.92383 92.21875 L 521.52344 108.5 L 512.125 92.21875 z M 555.17383 92.21875 L 573.9707 92.21875 L 564.57227 108.49805 L 555.17383 92.21875 z M 598.21875 92.21875 L 617.01758 92.21875 L 607.61914 108.5 L 598.21875 92.21875 z M 641.26758 92.21875 L 660.06641 92.21875 L 650.66602 108.5 L 641.26758 92.21875 z M 684.31641 92.21875 L 703.11523 92.21875 L 693.71484 108.5 L 684.31641 92.21875 z M 727.36328 92.21875 L 746.16211 92.21875 L 736.76172 108.5 L 727.36328 92.21875 z M 770.41211 92.21875 L 789.20898 92.21875 L 779.81055 108.5 L 770.41211 92.21875 z M 813.45898 92.21875 L 832.25781 92.21875 L 822.85742 108.5 L 813.45898 92.21875 z M 856.50781 92.21875 L 875.30469 92.21875 L 865.90625 108.49805 L 856.50781 92.21875 z M 899.55469 92.21875 L 918.35352 92.21875 L 908.95312 108.5 L 899.55469 92.21875 z M 942.60352 92.21875 L 961.40039 92.21875 L 952.00195 108.49805 L 942.60352 92.21875 z M 26.474609 99.21875 L 35.873047 115.5 L 17.074219 115.5 L 26.474609 99.21875 z M 69.521484 99.21875 L 78.921875 115.5 L 60.123047 115.5 L 69.521484 99.21875 z M 112.57031 99.21875 L 121.96875 115.5 L 103.16992 115.5 L 112.57031 99.21875 z M 155.61719 99.21875 L 165.01758 115.5 L 146.21875 115.5 L 155.61719 99.21875 z M 241.71289 99.21875 L 251.11328 115.5 L 232.31445 115.5 L 241.71289 99.21875 z M 284.76172 99.21875 L 294.16016 115.5 L 275.36133 115.5 L 284.76172 99.21875 z M 327.80859 99.21875 L 337.20898 115.5 L 318.41016 115.5 L 327.80859 99.21875 z M 370.85742 99.21875 L 380.25586 115.5 L 361.45703 115.5 L 370.85742 99.21875 z M 456.95312 99.21875 L 466.35156 115.5 L 447.55273 115.5 L 456.95312 99.21875 z M 543.04688 99.21875 L 552.44727 115.5 L 533.64844 115.5 L 543.04688 99.21875 z M 629.14258 99.21875 L 638.54297 115.5 L 619.74414 115.5 L 629.14258 99.21875 z M 672.19141 99.21875 L 681.58984 115.5 L 662.79102 115.5 L 672.19141 99.21875 z M 715.23828 99.21875 L 724.63867 115.5 L 705.83984 115.5 L 715.23828 99.21875 z M 758.28711 99.21875 L 767.68555 115.5 L 748.88672 115.5 L 758.28711 99.21875 z M 844.38281 99.21875 L 853.78125 115.5 L 834.98242 115.5 L 844.38281 99.21875 z M 887.42969 99.21875 L 896.83008 115.5 L 878.03125 115.5 L 887.42969 99.21875 z M 930.47852 99.21875 L 939.87695 115.5 L 921.07812 115.5 L 930.47852 99.21875 z M 198.66602 99.220703 L 208.06445 115.5 L 189.26758 115.5 L 198.66602 99.220703 z M 413.9043 99.220703 L 423.30273 115.5 L 404.50586 115.5 L 413.9043 99.220703 z M 500 99.220703 L 509.39844 115.5 L 490.60156 115.5 L 500 99.220703 z M 586.0957 99.220703 L 595.49414 115.5 L 576.69727 115.5 L 586.0957 99.220703 z M 801.33398 99.220703 L 810.73242 115.5 L 791.93555 115.5 L 801.33398 99.220703 z M 973.52539 99.220703 L 982.92383 115.5 L 964.12695 115.5 L 973.52539 99.220703 z M 17.074219 129.5 L 35.873047 129.5 L 26.474609 145.7793 L 17.074219 129.5 z M 60.123047 129.5 L 78.921875 129.5 L 69.521484 145.7793 L 60.123047 129.5 z M 103.16992 129.5 L 121.96875 129.5 L 112.57031 145.7793 L 103.16992 129.5 z M 146.21875 129.5 L 165.01758 129.5 L 155.61719 145.78125 L 146.21875 129.5 z M 189.26758 129.5 L 208.06445 129.5 L 198.66602 145.7793 L 189.26758 129.5 z M 232.31445 129.5 L 251.11328 129.5 L 241.71289 145.7793 L 232.31445 129.5 z M 275.36133 129.5 L 294.16016 129.5 L 284.76172 145.78125 L 275.36133 129.5 z M 318.41016 129.5 L 337.20898 129.5 L 327.80859 145.7793 L 318.41016 129.5 z M 361.45703 129.5 L 380.25586 129.5 L 370.85742 145.7793 L 361.45703 129.5 z M 404.50586 129.5 L 423.30273 129.5 L 413.9043 145.7793 L 404.50586 129.5 z M 447.55273 129.5 L 466.35156 129.5 L 456.95312 145.78125 L 447.55273 129.5 z M 490.60156 129.5 L 509.39844 129.5 L 500 145.7793 L 490.60156 129.5 z M 533.64844 129.5 L 552.44727 129.5 L 543.04688 145.78125 L 533.64844 129.5 z M 576.69727 129.5 L 595.49414 129.5 L 586.0957 145.7793 L 576.69727 129.5 z M 619.74414 129.5 L 638.54297 129.5 L 629.14258 145.7793 L 619.74414 129.5 z M 662.79102 129.5 L 681.58984 129.5 L 672.19141 145.7793 L 662.79102 129.5 z M 705.83984 129.5 L 724.63867 129.5 L 715.23828 145.78125 L 705.83984 129.5 z M 748.88672 129.5 L 767.68555 129.5 L 758.28711 145.7793 L 748.88672 129.5 z M 791.93555 129.5 L 810.73242 129.5 L 801.33398 145.7793 L 791.93555 129.5 z M 834.98242 129.5 L 853.78125 129.5 L 844.38281 145.78125 L 834.98242 129.5 z M 878.03125 129.5 L 896.83008 129.5 L 887.42969 145.7793 L 878.03125 129.5 z M 921.07812 129.5 L 939.87695 129.5 L 930.47852 145.7793 L 921.07812 129.5 z M 964.12695 129.5 L 982.92383 129.5 L 973.52539 145.7793 L 964.12695 129.5 z M 91.046875 136.49805 L 100.44531 152.7793 L 81.646484 152.7793 L 91.046875 136.49805 z M 177.14258 136.49805 L 186.54102 152.7793 L 167.74219 152.7793 L 177.14258 136.49805 z M 263.23828 136.49805 L 272.63672 152.7793 L 253.83789 152.7793 L 263.23828 136.49805 z M 349.33203 136.49805 L 358.73242 152.7793 L 339.93359 152.7793 L 349.33203 136.49805 z M 478.47656 136.49805 L 487.875 152.7793 L 469.07617 152.7793 L 478.47656 136.49805 z M 521.52344 136.49805 L 530.92383 152.7793 L 512.125 152.7793 L 521.52344 136.49805 z M 650.66797 136.49805 L 660.06641 152.7793 L 641.26758 152.7793 L 650.66797 136.49805 z M 736.76172 136.49805 L 746.16211 152.7793 L 727.36328 152.7793 L 736.76172 136.49805 z M 822.85938 136.49805 L 832.25781 152.7793 L 813.45898 152.7793 L 822.85938 136.49805 z M 908.95312 136.49805 L 918.35352 152.7793 L 899.55469 152.7793 L 908.95312 136.49805 z M 47.998047 136.5 L 57.396484 152.7793 L 38.599609 152.7793 L 47.998047 136.5 z M 134.09375 136.5 L 143.49219 152.7793 L 124.69531 152.7793 L 134.09375 136.5 z M 220.18945 136.5 L 229.58789 152.7793 L 210.78906 152.7793 L 220.18945 136.5 z M 306.28516 136.5 L 315.68359 152.7793 L 296.88672 152.7793 L 306.28516 136.5 z M 392.38086 136.5 L 401.7793 152.7793 L 382.98242 152.7793 L 392.38086 136.5 z M 435.42773 136.5 L 444.82617 152.7793 L 426.0293 152.7793 L 435.42773 136.5 z M 564.57227 136.5 L 573.9707 152.7793 L 555.17383 152.7793 L 564.57227 136.5 z M 607.61914 136.5 L 617.01758 152.7793 L 598.2207 152.7793 L 607.61914 136.5 z M 693.71484 136.5 L 703.11328 152.7793 L 684.31641 152.7793 L 693.71484 136.5 z M 779.81055 136.5 L 789.21094 152.7793 L 770.41211 152.7793 L 779.81055 136.5 z M 865.90625 136.5 L 875.30469 152.7793 L 856.50781 152.7793 L 865.90625 136.5 z M 952.00195 136.5 L 961.40039 152.7793 L 942.60352 152.7793 L 952.00195 136.5 z M 33.474609 166.7793 L 62.521484 166.7793 L 62.521484 195.82812 L 33.474609 195.82812 L 33.474609 166.7793 z M 76.521484 166.7793 L 105.57031 166.7793 L 105.57031 195.82812 L 76.521484 195.82812 L 76.521484 166.7793 z M 119.57031 166.7793 L 148.61719 166.7793 L 148.61719 195.82812 L 119.57031 195.82812 L 119.57031 166.7793 z M 162.61719 166.7793 L 191.66602 166.7793 L 191.66602 195.82812 L 162.61719 195.82812 L 162.61719 166.7793 z M 205.66602 166.7793 L 234.71289 166.7793 L 234.71289 195.82812 L 205.66602 195.82812 L 205.66602 166.7793 z M 248.71289 166.7793 L 277.76172 166.7793 L 277.76172 195.82812 L 248.71289 195.82812 L 248.71289 166.7793 z M 291.76172 166.7793 L 320.80859 166.7793 L 320.80859 195.82812 L 291.76172 195.82812 L 291.76172 166.7793 z M 334.80859 166.7793 L 363.85742 166.7793 L 363.85742 195.82812 L 334.80859 195.82812 L 334.80859 166.7793 z M 377.85742 166.7793 L 406.9043 166.7793 L 406.9043 195.82812 L 377.85742 195.82812 L 377.85742 166.7793 z M 420.9043 166.7793 L 449.95117 166.7793 L 449.95117 195.82812 L 420.9043 195.82812 L 420.9043 166.7793 z M 463.95117 166.7793 L 493 166.7793 L 493 195.82812 L 463.95117 195.82812 L 463.95117 166.7793 z M 507 166.7793 L 536.04883 166.7793 L 536.04883 195.82812 L 507 195.82812 L 507 166.7793 z M 550.04883 166.7793 L 579.0957 166.7793 L 579.0957 195.82812 L 550.04883 195.82812 L 550.04883 166.7793 z M 593.0957 166.7793 L 622.14258 166.7793 L 622.14258 195.82812 L 593.0957 195.82812 L 593.0957 166.7793 z M 636.14258 166.7793 L 665.19141 166.7793 L 665.19141 195.82812 L 636.14258 195.82812 L 636.14258 166.7793 z M 679.19141 166.7793 L 708.23828 166.7793 L 708.23828 195.82812 L 679.19141 195.82812 L 679.19141 166.7793 z M 722.23828 166.7793 L 751.28711 166.7793 L 751.28711 195.82812 L 722.23828 195.82812 L 722.23828 166.7793 z M 765.28711 166.7793 L 794.33398 166.7793 L 794.33398 195.82812 L 765.28711 195.82812 L 765.28711 166.7793 z M 808.33398 166.7793 L 837.38281 166.7793 L 837.38281 195.82812 L 808.33398 195.82812 L 808.33398 166.7793 z M 851.38281 166.7793 L 880.42969 166.7793 L 880.42969 195.82812 L 851.38281 195.82812 L 851.38281 166.7793 z M 894.42969 166.7793 L 923.47852 166.7793 L 923.47852 195.82812 L 894.42969 195.82812 L 894.42969 166.7793 z M 937.47852 166.7793 L 966.52539 166.7793 L 966.52539 195.82812 L 937.47852 195.82812 L 937.47852 166.7793 z M 38.599609 209.82812 L 57.396484 209.82812 L 47.998047 226.10742 L 38.599609 209.82812 z M 81.646484 209.82812 L 100.44531 209.82812 L 91.044922 226.10938 L 81.646484 209.82812 z M 124.69531 209.82812 L 143.49414 209.82812 L 134.09375 226.10742 L 124.69531 209.82812 z M 167.74219 209.82812 L 186.54102 209.82812 L 177.14062 226.10938 L 167.74219 209.82812 z M 210.78906 209.82812 L 229.58789 209.82812 L 220.18945 226.10742 L 210.78906 209.82812 z M 253.83789 209.82812 L 272.63672 209.82812 L 263.23633 226.10938 L 253.83789 209.82812 z M 296.88672 209.82812 L 315.68359 209.82812 L 306.28516 226.10742 L 296.88672 209.82812 z M 339.93359 209.82812 L 358.73242 209.82812 L 349.33203 226.10938 L 339.93359 209.82812 z M 382.98242 209.82812 L 401.7793 209.82812 L 392.38086 226.10742 L 382.98242 209.82812 z M 426.0293 209.82812 L 444.82617 209.82812 L 435.42773 226.10742 L 426.0293 209.82812 z M 469.07617 209.82812 L 487.875 209.82812 L 478.47656 226.10742 L 469.07617 209.82812 z M 512.125 209.82812 L 530.92383 209.82812 L 521.52344 226.10938 L 512.125 209.82812 z M 555.17383 209.82812 L 573.9707 209.82812 L 564.57227 226.10742 L 555.17383 209.82812 z M 598.2207 209.82812 L 617.01758 209.82812 L 607.61914 226.10742 L 598.2207 209.82812 z M 641.26758 209.82812 L 660.06641 209.82812 L 650.66797 226.10938 L 641.26758 209.82812 z M 684.31641 209.82812 L 703.11523 209.82812 L 693.71484 226.10742 L 684.31641 209.82812 z M 727.36328 209.82812 L 746.16211 209.82812 L 736.76172 226.10938 L 727.36328 209.82812 z M 770.41211 209.82812 L 789.20898 209.82812 L 779.81055 226.10742 L 770.41211 209.82812 z M 813.45898 209.82812 L 832.25781 209.82812 L 822.85742 226.10938 L 813.45898 209.82812 z M 856.50781 209.82812 L 875.30469 209.82812 L 865.90625 226.10742 L 856.50781 209.82812 z M 899.55469 209.82812 L 918.35352 209.82812 L 908.95312 226.10938 L 899.55469 209.82812 z M 942.60352 209.82812 L 961.40039 209.82812 L 952.00195 226.10742 L 942.60352 209.82812 z M 155.61719 216.82617 L 165.01758 233.10742 L 146.21875 233.10742 L 155.61719 216.82617 z M 284.76172 216.82617 L 294.16016 233.10742 L 275.36133 233.10742 L 284.76172 216.82617 z M 456.95312 216.82617 L 466.35156 233.10742 L 447.55273 233.10742 L 456.95312 216.82617 z M 543.04688 216.82617 L 552.44727 233.10742 L 533.64844 233.10742 L 543.04688 216.82617 z M 715.23828 216.82617 L 724.63867 233.10742 L 705.83984 233.10742 L 715.23828 216.82617 z M 844.38281 216.82617 L 853.78125 233.10742 L 834.98242 233.10742 L 844.38281 216.82617 z M 26.474609 216.82812 L 35.873047 233.10742 L 17.074219 233.10742 L 26.474609 216.82812 z M 69.521484 216.82812 L 78.921875 233.10742 L 60.123047 233.10742 L 69.521484 216.82812 z M 112.57031 216.82812 L 121.96875 233.10742 L 103.16992 233.10742 L 112.57031 216.82812 z M 198.66602 216.82812 L 208.06445 233.10742 L 189.26758 233.10742 L 198.66602 216.82812 z M 241.71289 216.82812 L 251.11328 233.10742 L 232.31445 233.10742 L 241.71289 216.82812 z M 327.80859 216.82812 L 337.20898 233.10742 L 318.41016 233.10742 L 327.80859 216.82812 z M 370.85742 216.82812 L 380.25586 233.10742 L 361.45703 233.10742 L 370.85742 216.82812 z M 413.9043 216.82812 L 423.30273 233.10742 L 404.50586 233.10742 L 413.9043 216.82812 z M 500 216.82812 L 509.39844 233.10742 L 490.60156 233.10742 L 500 216.82812 z M 586.0957 216.82812 L 595.49414 233.10742 L 576.69727 233.10742 L 586.0957 216.82812 z M 629.14258 216.82812 L 638.54297 233.10742 L 619.74414 233.10742 L 629.14258 216.82812 z M 672.19141 216.82812 L 681.58984 233.10742 L 662.79102 233.10742 L 672.19141 216.82812 z M 758.28711 216.82812 L 767.68555 233.10742 L 748.88672 233.10742 L 758.28711 216.82812 z M 801.33398 216.82812 L 810.73242 233.10742 L 791.93555 233.10742 L 801.33398 216.82812 z M 887.42969 216.82812 L 896.83008 233.10742 L 878.03125 233.10742 L 887.42969 216.82812 z M 930.47852 216.82812 L 939.87695 233.10742 L 921.07812 233.10742 L 930.47852 216.82812 z M 973.52539 216.82812 L 982.92383 233.10742 L 964.12695 233.10742 L 973.52539 216.82812 z M 17.074219 247.10742 L 35.873047 247.10742 L 26.474609 263.38867 L 17.074219 247.10742 z M 60.123047 247.10742 L 78.921875 247.10742 L 69.521484 263.38867 L 60.123047 247.10742 z M 103.16992 247.10742 L 121.96875 247.10742 L 112.57031 263.38867 L 103.16992 247.10742 z M 146.21875 247.10742 L 165.01758 247.10742 L 155.61719 263.38867 L 146.21875 247.10742 z M 189.26758 247.10742 L 208.06445 247.10742 L 198.66602 263.38672 L 189.26758 247.10742 z M 232.31445 247.10742 L 251.11328 247.10742 L 241.71289 263.38867 L 232.31445 247.10742 z M 275.36133 247.10742 L 294.16016 247.10742 L 284.76172 263.38867 L 275.36133 247.10742 z M 318.41016 247.10742 L 337.20898 247.10742 L 327.80859 263.38867 L 318.41016 247.10742 z M 361.45703 247.10742 L 380.25586 247.10742 L 370.85742 263.38867 L 361.45703 247.10742 z M 404.50586 247.10742 L 423.30273 247.10742 L 413.9043 263.38672 L 404.50586 247.10742 z M 447.55273 247.10742 L 466.35156 247.10742 L 456.95312 263.38867 L 447.55273 247.10742 z M 490.60156 247.10742 L 509.39844 247.10742 L 500 263.38672 L 490.60156 247.10742 z M 533.64844 247.10742 L 552.44727 247.10742 L 543.04688 263.38867 L 533.64844 247.10742 z M 576.69727 247.10742 L 595.49414 247.10742 L 586.0957 263.38672 L 576.69727 247.10742 z M 619.74414 247.10742 L 638.54297 247.10742 L 629.14258 263.38867 L 619.74414 247.10742 z M 662.79102 247.10742 L 681.58984 247.10742 L 672.19141 263.38867 L 662.79102 247.10742 z M 705.83984 247.10742 L 724.63867 247.10742 L 715.23828 263.38867 L 705.83984 247.10742 z M 748.88672 247.10742 L 767.68555 247.10742 L 758.28711 263.38867 L 748.88672 247.10742 z M 791.93555 247.10742 L 810.73242 247.10742 L 801.33398 263.38672 L 791.93555 247.10742 z M 834.98242 247.10742 L 853.78125 247.10742 L 844.38281 263.38867 L 834.98242 247.10742 z M 878.03125 247.10742 L 896.83008 247.10742 L 887.42969 263.38867 L 878.03125 247.10742 z M 921.07812 247.10742 L 939.87695 247.10742 L 930.47852 263.38867 L 921.07812 247.10742 z M 964.12695 247.10742 L 982.92383 247.10742 L 973.52539 263.38672 L 964.12695 247.10742 z M 91.046875 254.10742 L 100.44531 270.38867 L 81.646484 270.38867 L 91.046875 254.10742 z M 177.14258 254.10742 L 186.54102 270.38867 L 167.74219 270.38867 L 177.14258 254.10742 z M 220.18945 254.10742 L 229.58789 270.38867 L 210.78906 270.38867 L 220.18945 254.10742 z M 263.23828 254.10742 L 272.63672 270.38867 L 253.83789 270.38867 L 263.23828 254.10742 z M 349.33398 254.10742 L 358.73242 270.38867 L 339.93359 270.38867 L 349.33398 254.10742 z M 392.38086 254.10742 L 401.78125 270.38867 L 382.98242 270.38867 L 392.38086 254.10742 z M 478.47656 254.10742 L 487.875 270.38867 L 469.07617 270.38867 L 478.47656 254.10742 z M 521.52344 254.10742 L 530.92383 270.38867 L 512.125 270.38867 L 521.52344 254.10742 z M 607.61914 254.10742 L 617.01758 270.38867 L 598.21875 270.38867 L 607.61914 254.10742 z M 650.66797 254.10742 L 660.06641 270.38867 L 641.26758 270.38867 L 650.66797 254.10742 z M 736.76172 254.10742 L 746.16211 270.38867 L 727.36328 270.38867 L 736.76172 254.10742 z M 779.81055 254.10742 L 789.21094 270.38867 L 770.41211 270.38867 L 779.81055 254.10742 z M 822.85938 254.10742 L 832.25781 270.38867 L 813.45898 270.38867 L 822.85938 254.10742 z M 908.95312 254.10742 L 918.35352 270.38867 L 899.55469 270.38867 L 908.95312 254.10742 z M 47.998047 254.10938 L 57.396484 270.38867 L 38.599609 270.38867 L 47.998047 254.10938 z M 134.09375 254.10938 L 143.49219 270.38867 L 124.69531 270.38867 L 134.09375 254.10938 z M 306.28516 254.10938 L 315.68359 270.38867 L 296.88672 270.38867 L 306.28516 254.10938 z M 435.42773 254.10938 L 444.82617 270.38867 L 426.0293 270.38867 L 435.42773 254.10938 z M 564.57227 254.10938 L 573.9707 270.38867 L 555.17383 270.38867 L 564.57227 254.10938 z M 693.71484 254.10938 L 703.11328 270.38867 L 684.31641 270.38867 L 693.71484 254.10938 z M 865.90625 254.10938 L 875.30469 270.38867 L 856.50781 270.38867 L 865.90625 254.10938 z M 952.00195 254.10938 L 961.40039 270.38867 L 942.60352 270.38867 L 952.00195 254.10938 z M 33.474609 284.38867 L 62.521484 284.38867 L 62.521484 313.4375 L 33.474609 313.4375 L 33.474609 284.38867 z M 76.521484 284.38867 L 105.57031 284.38867 L 105.57031 313.4375 L 76.521484 313.4375 L 76.521484 284.38867 z M 119.57031 284.38867 L 148.61719 284.38867 L 148.61719 313.4375 L 119.57031 313.4375 L 119.57031 284.38867 z M 162.61719 284.38867 L 191.66602 284.38867 L 191.66602 313.4375 L 162.61719 313.4375 L 162.61719 284.38867 z M 205.66602 284.38867 L 234.71289 284.38867 L 234.71289 313.4375 L 205.66602 313.4375 L 205.66602 284.38867 z M 248.71289 284.38867 L 277.76172 284.38867 L 277.76172 313.4375 L 248.71289 313.4375 L 248.71289 284.38867 z M 291.76172 284.38867 L 320.80859 284.38867 L 320.80859 313.4375 L 291.76172 313.4375 L 291.76172 284.38867 z M 334.80859 284.38867 L 363.85742 284.38867 L 363.85742 313.4375 L 334.80859 313.4375 L 334.80859 284.38867 z M 377.85742 284.38867 L 406.9043 284.38867 L 406.9043 313.4375 L 377.85742 313.4375 L 377.85742 284.38867 z M 420.9043 284.38867 L 449.95117 284.38867 L 449.95117 313.4375 L 420.9043 313.4375 L 420.9043 284.38867 z M 463.95117 284.38867 L 493 284.38867 L 493 313.4375 L 463.95117 313.4375 L 463.95117 284.38867 z M 507 284.38867 L 536.04883 284.38867 L 536.04883 313.4375 L 507 313.4375 L 507 284.38867 z M 550.04883 284.38867 L 579.0957 284.38867 L 579.0957 313.4375 L 550.04883 313.4375 L 550.04883 284.38867 z M 593.0957 284.38867 L 622.14258 284.38867 L 622.14258 313.4375 L 593.0957 313.4375 L 593.0957 284.38867 z M 636.14258 284.38867 L 665.19141 284.38867 L 665.19141 313.4375 L 636.14258 313.4375 L 636.14258 284.38867 z M 679.19141 284.38867 L 708.23828 284.38867 L 708.23828 313.4375 L 679.19141 313.4375 L 679.19141 284.38867 z M 722.23828 284.38867 L 751.28711 284.38867 L 751.28711 313.4375 L 722.23828 313.4375 L 722.23828 284.38867 z M 765.28711 284.38867 L 794.33398 284.38867 L 794.33398 313.4375 L 765.28711 313.4375 L 765.28711 284.38867 z M 808.33398 284.38867 L 837.38281 284.38867 L 837.38281 313.4375 L 808.33398 313.4375 L 808.33398 284.38867 z M 851.38281 284.38867 L 880.42969 284.38867 L 880.42969 313.4375 L 851.38281 313.4375 L 851.38281 284.38867 z M 894.42969 284.38867 L 923.47852 284.38867 L 923.47852 313.4375 L 894.42969 313.4375 L 894.42969 284.38867 z M 937.47852 284.38867 L 966.52539 284.38867 L 966.52539 313.4375 L 937.47852 313.4375 L 937.47852 284.38867 z M 38.599609 327.4375 L 57.396484 327.4375 L 47.998047 343.7168 L 38.599609 327.4375 z M 81.646484 327.4375 L 100.44531 327.4375 L 91.044922 343.71875 L 81.646484 327.4375 z M 124.69531 327.4375 L 143.49414 327.4375 L 134.09375 343.7168 L 124.69531 327.4375 z M 167.74219 327.4375 L 186.54102 327.4375 L 177.14062 343.71875 L 167.74219 327.4375 z M 210.78906 327.4375 L 229.58789 327.4375 L 220.18945 343.7168 L 210.78906 327.4375 z M 253.83789 327.4375 L 272.63672 327.4375 L 263.23633 343.71875 L 253.83789 327.4375 z M 296.88672 327.4375 L 315.68359 327.4375 L 306.28516 343.7168 L 296.88672 327.4375 z M 339.93359 327.4375 L 358.73242 327.4375 L 349.33203 343.71875 L 339.93359 327.4375 z M 382.98242 327.4375 L 401.7793 327.4375 L 392.38086 343.7168 L 382.98242 327.4375 z M 426.0293 327.4375 L 444.82617 327.4375 L 435.42773 343.7168 L 426.0293 327.4375 z M 469.07617 327.4375 L 487.875 327.4375 L 478.47656 343.71875 L 469.07617 327.4375 z M 512.125 327.4375 L 530.92383 327.4375 L 521.52344 343.71875 L 512.125 327.4375 z M 555.17383 327.4375 L 573.9707 327.4375 L 564.57227 343.7168 L 555.17383 327.4375 z M 598.2207 327.4375 L 617.01758 327.4375 L 607.61914 343.7168 L 598.2207 327.4375 z M 641.26758 327.4375 L 660.06641 327.4375 L 650.66797 343.71875 L 641.26758 327.4375 z M 684.31641 327.4375 L 703.11328 327.4375 L 693.71484 343.7168 L 684.31641 327.4375 z M 727.36328 327.4375 L 746.16211 327.4375 L 736.76172 343.71875 L 727.36328 327.4375 z M 770.41211 327.4375 L 789.20898 327.4375 L 779.81055 343.7168 L 770.41211 327.4375 z M 813.45898 327.4375 L 832.25781 327.4375 L 822.85742 343.71875 L 813.45898 327.4375 z M 856.50781 327.4375 L 875.30469 327.4375 L 865.90625 343.7168 L 856.50781 327.4375 z M 899.55469 327.4375 L 918.35352 327.4375 L 908.95312 343.71875 L 899.55469 327.4375 z M 942.60352 327.4375 L 961.40039 327.4375 L 952.00195 343.7168 L 942.60352 327.4375 z M 155.61719 334.43555 L 165.01758 350.7168 L 146.21875 350.7168 L 155.61719 334.43555 z M 284.76172 334.43555 L 294.16016 350.7168 L 275.36133 350.7168 L 284.76172 334.43555 z M 456.95312 334.43555 L 466.35156 350.7168 L 447.55273 350.7168 L 456.95312 334.43555 z M 543.04688 334.43555 L 552.44727 350.7168 L 533.64844 350.7168 L 543.04688 334.43555 z M 715.23828 334.43555 L 724.63867 350.7168 L 705.83984 350.7168 L 715.23828 334.43555 z M 844.38281 334.43555 L 853.78125 350.7168 L 834.98242 350.7168 L 844.38281 334.43555 z M 26.474609 334.4375 L 35.873047 350.7168 L 17.074219 350.7168 L 26.474609 334.4375 z M 69.521484 334.4375 L 78.921875 350.7168 L 60.123047 350.7168 L 69.521484 334.4375 z M 112.57031 334.4375 L 121.96875 350.7168 L 103.16992 350.7168 L 112.57031 334.4375 z M 198.66602 334.4375 L 208.06445 350.7168 L 189.26758 350.7168 L 198.66602 334.4375 z M 241.71289 334.4375 L 251.11328 350.7168 L 232.31445 350.7168 L 241.71289 334.4375 z M 327.80859 334.4375 L 337.20898 350.7168 L 318.41016 350.7168 L 327.80859 334.4375 z M 370.85742 334.4375 L 380.25586 350.7168 L 361.45703 350.7168 L 370.85742 334.4375 z M 413.9043 334.4375 L 423.30273 350.7168 L 404.50586 350.7168 L 413.9043 334.4375 z M 500 334.4375 L 509.39844 350.7168 L 490.60156 350.7168 L 500 334.4375 z M 586.0957 334.4375 L 595.49414 350.7168 L 576.69727 350.7168 L 586.0957 334.4375 z M 629.14258 334.4375 L 638.54297 350.7168 L 619.74414 350.7168 L 629.14258 334.4375 z M 672.19141 334.4375 L 681.58984 350.7168 L 662.79102 350.7168 L 672.19141 334.4375 z M 758.28711 334.4375 L 767.68555 350.7168 L 748.88672 350.7168 L 758.28711 334.4375 z M 801.33398 334.4375 L 810.73242 350.7168 L 791.93555 350.7168 L 801.33398 334.4375 z M 887.42969 334.4375 L 896.83008 350.7168 L 878.03125 350.7168 L 887.42969 334.4375 z M 930.47852 334.4375 L 939.87695 350.7168 L 921.07812 350.7168 L 930.47852 334.4375 z M 973.52539 334.4375 L 982.92383 350.7168 L 964.12695 350.7168 L 973.52539 334.4375 z M 17.074219 364.7168 L 35.873047 364.7168 L 26.474609 380.99609 L 17.074219 364.7168 z M 60.123047 364.7168 L 78.921875 364.7168 L 69.521484 380.99609 L 60.123047 364.7168 z M 103.16992 364.7168 L 121.96875 364.7168 L 112.57031 380.99609 L 103.16992 364.7168 z M 146.21875 364.7168 L 165.01758 364.7168 L 155.61719 380.99805 L 146.21875 364.7168 z M 189.26758 364.7168 L 208.06445 364.7168 L 198.66602 380.99609 L 189.26758 364.7168 z M 232.31445 364.7168 L 251.11328 364.7168 L 241.71289 380.99609 L 232.31445 364.7168 z M 275.36133 364.7168 L 294.16016 364.7168 L 284.76172 380.99805 L 275.36133 364.7168 z M 318.41016 364.7168 L 337.20898 364.7168 L 327.80859 380.99609 L 318.41016 364.7168 z M 361.45703 364.7168 L 380.25586 364.7168 L 370.85742 380.99609 L 361.45703 364.7168 z M 404.50586 364.7168 L 423.30273 364.7168 L 413.9043 380.99609 L 404.50586 364.7168 z M 447.55273 364.7168 L 466.35156 364.7168 L 456.95312 380.99805 L 447.55273 364.7168 z M 490.60156 364.7168 L 509.39844 364.7168 L 500 380.99609 L 490.60156 364.7168 z M 533.64844 364.7168 L 552.44727 364.7168 L 543.04688 380.99805 L 533.64844 364.7168 z M 576.69727 364.7168 L 595.49414 364.7168 L 586.0957 380.99609 L 576.69727 364.7168 z M 619.74414 364.7168 L 638.54297 364.7168 L 629.14258 380.99609 L 619.74414 364.7168 z M 662.79102 364.7168 L 681.58984 364.7168 L 672.19141 380.99609 L 662.79102 364.7168 z M 705.83984 364.7168 L 724.63867 364.7168 L 715.23828 380.99805 L 705.83984 364.7168 z M 748.88672 364.7168 L 767.68555 364.7168 L 758.28711 380.99609 L 748.88672 364.7168 z M 791.93555 364.7168 L 810.73242 364.7168 L 801.33398 380.99609 L 791.93555 364.7168 z M 834.98242 364.7168 L 853.78125 364.7168 L 844.38281 380.99805 L 834.98242 364.7168 z M 878.03125 364.7168 L 896.83008 364.7168 L 887.42969 380.99609 L 878.03125 364.7168 z M 921.07812 364.7168 L 939.87695 364.7168 L 930.47852 380.99609 L 921.07812 364.7168 z M 964.12695 364.7168 L 982.92383 364.7168 L 973.52539 380.99609 L 964.12695 364.7168 z M 91.046875 371.71484 L 100.44531 387.99609 L 81.646484 387.99609 L 91.046875 371.71484 z M 177.14258 371.71484 L 186.54102 387.99609 L 167.74219 387.99609 L 177.14258 371.71484 z M 263.23828 371.71484 L 272.63672 387.99609 L 253.83789 387.99609 L 263.23828 371.71484 z M 349.33203 371.71484 L 358.73242 387.99609 L 339.93359 387.99609 L 349.33203 371.71484 z M 478.47656 371.71484 L 487.875 387.99609 L 469.07617 387.99609 L 478.47656 371.71484 z M 521.52539 371.71484 L 530.92383 387.99609 L 512.125 387.99609 L 521.52539 371.71484 z M 650.66797 371.71484 L 660.06641 387.99609 L 641.26758 387.99609 L 650.66797 371.71484 z M 736.76172 371.71484 L 746.16211 387.99609 L 727.36328 387.99609 L 736.76172 371.71484 z M 822.85938 371.71484 L 832.25781 387.99609 L 813.45898 387.99609 L 822.85938 371.71484 z M 908.95312 371.71484 L 918.35352 387.99609 L 899.55469 387.99609 L 908.95312 371.71484 z M 47.998047 371.7168 L 57.396484 387.99609 L 38.599609 387.99609 L 47.998047 371.7168 z M 134.09375 371.7168 L 143.49219 387.99609 L 124.69531 387.99609 L 134.09375 371.7168 z M 220.18945 371.7168 L 229.58789 387.99609 L 210.78906 387.99609 L 220.18945 371.7168 z M 306.28516 371.7168 L 315.68359 387.99609 L 296.88672 387.99609 L 306.28516 371.7168 z M 392.38086 371.7168 L 401.7793 387.99609 L 382.98242 387.99609 L 392.38086 371.7168 z M 435.42773 371.7168 L 444.82617 387.99609 L 426.0293 387.99609 L 435.42773 371.7168 z M 564.57227 371.7168 L 573.9707 387.99609 L 555.17188 387.99609 L 564.57227 371.7168 z M 607.61914 371.7168 L 617.01758 387.99609 L 598.2207 387.99609 L 607.61914 371.7168 z M 693.71484 371.7168 L 703.11328 387.99609 L 684.31641 387.99609 L 693.71484 371.7168 z M 779.81055 371.7168 L 789.21094 387.99609 L 770.41211 387.99609 L 779.81055 371.7168 z M 865.90625 371.7168 L 875.30469 387.99609 L 856.50781 387.99609 L 865.90625 371.7168 z M 952.00195 371.7168 L 961.40039 387.99609 L 942.60352 387.99609 L 952.00195 371.7168 z M 33.474609 401.99609 L 62.521484 401.99609 L 62.521484 431.04492 L 33.474609 431.04492 L 33.474609 401.99609 z M 76.521484 401.99609 L 105.57031 401.99609 L 105.57031 431.04492 L 76.521484 431.04492 L 76.521484 401.99609 z M 119.57031 401.99609 L 148.61719 401.99609 L 148.61719 431.04492 L 119.57031 431.04492 L 119.57031 401.99609 z M 162.61719 401.99609 L 191.66602 401.99609 L 191.66602 431.04492 L 162.61719 431.04492 L 162.61719 401.99609 z M 205.66602 401.99609 L 234.71289 401.99609 L 234.71289 431.04492 L 205.66602 431.04492 L 205.66602 401.99609 z M 248.71289 401.99609 L 277.76172 401.99609 L 277.76172 431.04492 L 248.71289 431.04492 L 248.71289 401.99609 z M 291.76172 401.99609 L 320.80859 401.99609 L 320.80859 431.04492 L 291.76172 431.04492 L 291.76172 401.99609 z M 334.80859 401.99609 L 363.85742 401.99609 L 363.85742 431.04492 L 334.80859 431.04492 L 334.80859 401.99609 z M 377.85742 401.99609 L 406.9043 401.99609 L 406.9043 431.04492 L 377.85742 431.04492 L 377.85742 401.99609 z M 420.9043 401.99609 L 449.95117 401.99609 L 449.95117 431.04492 L 420.9043 431.04492 L 420.9043 401.99609 z M 463.95117 401.99609 L 493 401.99609 L 493 431.04492 L 463.95117 431.04492 L 463.95117 401.99609 z M 507 401.99609 L 536.04883 401.99609 L 536.04883 431.04492 L 507 431.04492 L 507 401.99609 z M 550.04883 401.99609 L 579.0957 401.99609 L 579.0957 431.04492 L 550.04883 431.04492 L 550.04883 401.99609 z M 593.0957 401.99609 L 622.14258 401.99609 L 622.14258 431.04492 L 593.0957 431.04492 L 593.0957 401.99609 z M 636.14258 401.99609 L 665.19141 401.99609 L 665.19141 431.04492 L 636.14258 431.04492 L 636.14258 401.99609 z M 679.19141 401.99609 L 708.23828 401.99609 L 708.23828 431.04492 L 679.19141 431.04492 L 679.19141 401.99609 z M 722.23828 401.99609 L 751.28711 401.99609 L 751.28711 431.04492 L 722.23828 431.04492 L 722.23828 401.99609 z M 765.28711 401.99609 L 794.33398 401.99609 L 794.33398 431.04492 L 765.28711 431.04492 L 765.28711 401.99609 z M 808.33398 401.99609 L 837.38281 401.99609 L 837.38281 431.04492 L 808.33398 431.04492 L 808.33398 401.99609 z M 851.38281 401.99609 L 880.42969 401.99609 L 880.42969 431.04492 L 851.38281 431.04492 L 851.38281 401.99609 z M 894.42969 401.99609 L 923.47852 401.99609 L 923.47852 431.04492 L 894.42969 431.04492 L 894.42969 401.99609 z M 937.47852 401.99609 L 966.52539 401.99609 L 966.52539 431.04492 L 937.47852 431.04492 L 937.47852 401.99609 z M 38.599609 445.04492 L 57.396484 445.04492 L 47.998047 461.32422 L 38.599609 445.04492 z M 81.646484 445.04492 L 100.44531 445.04492 L 91.044922 461.32617 L 81.646484 445.04492 z M 124.69531 445.04492 L 143.49219 445.04492 L 134.09375 461.32422 L 124.69531 445.04492 z M 167.74219 445.04492 L 186.54102 445.04492 L 177.14258 461.32617 L 167.74219 445.04492 z M 210.78906 445.04492 L 229.58789 445.04492 L 220.18945 461.32617 L 210.78906 445.04492 z M 253.83789 445.04492 L 272.63672 445.04492 L 263.23828 461.32617 L 253.83789 445.04492 z M 296.88672 445.04492 L 315.68359 445.04492 L 306.28516 461.32422 L 296.88672 445.04492 z M 339.93359 445.04492 L 358.73242 445.04492 L 349.33203 461.32617 L 339.93359 445.04492 z M 382.98242 445.04492 L 401.78125 445.04492 L 392.38086 461.32617 L 382.98242 445.04492 z M 426.0293 445.04492 L 444.82617 445.04492 L 435.42773 461.32422 L 426.0293 445.04492 z M 469.07617 445.04492 L 487.875 445.04492 L 478.47656 461.32617 L 469.07617 445.04492 z M 512.125 445.04492 L 530.92383 445.04492 L 521.52344 461.32617 L 512.125 445.04492 z M 555.17383 445.04492 L 573.9707 445.04492 L 564.57227 461.32422 L 555.17383 445.04492 z M 598.21875 445.04492 L 617.01758 445.04492 L 607.61914 461.32617 L 598.21875 445.04492 z M 641.26758 445.04492 L 660.06641 445.04492 L 650.66797 461.32617 L 641.26758 445.04492 z M 684.31641 445.04492 L 703.11328 445.04492 L 693.71484 461.32422 L 684.31641 445.04492 z M 727.36328 445.04492 L 746.16211 445.04492 L 736.76172 461.32617 L 727.36328 445.04492 z M 770.41211 445.04492 L 789.21094 445.04492 L 779.81055 461.32617 L 770.41211 445.04492 z M 813.45898 445.04492 L 832.25781 445.04492 L 822.85742 461.32617 L 813.45898 445.04492 z M 856.50781 445.04492 L 875.30469 445.04492 L 865.90625 461.32422 L 856.50781 445.04492 z M 899.55469 445.04492 L 918.35352 445.04492 L 908.95312 461.32617 L 899.55469 445.04492 z M 942.60352 445.04492 L 961.40039 445.04492 L 952.00195 461.32422 L 942.60352 445.04492 z M 26.474609 452.04492 L 35.873047 468.32617 L 17.074219 468.32617 L 26.474609 452.04492 z M 69.521484 452.04492 L 78.921875 468.32617 L 60.123047 468.32617 L 69.521484 452.04492 z M 112.57031 452.04492 L 121.96875 468.32617 L 103.16992 468.32617 L 112.57031 452.04492 z M 155.61719 452.04492 L 165.01758 468.32617 L 146.21875 468.32617 L 155.61719 452.04492 z M 241.71289 452.04492 L 251.11328 468.32617 L 232.31445 468.32617 L 241.71289 452.04492 z M 284.76172 452.04492 L 294.16016 468.32617 L 275.36133 468.32617 L 284.76172 452.04492 z M 327.80859 452.04492 L 337.20898 468.32617 L 318.41016 468.32617 L 327.80859 452.04492 z M 370.85742 452.04492 L 380.25586 468.32617 L 361.45703 468.32617 L 370.85742 452.04492 z M 456.95312 452.04492 L 466.35156 468.32617 L 447.55273 468.32617 L 456.95312 452.04492 z M 543.04688 452.04492 L 552.44727 468.32617 L 533.64844 468.32617 L 543.04688 452.04492 z M 629.14258 452.04492 L 638.54297 468.32617 L 619.74414 468.32617 L 629.14258 452.04492 z M 672.19141 452.04492 L 681.58984 468.32617 L 662.79102 468.32617 L 672.19141 452.04492 z M 715.23828 452.04492 L 724.63867 468.32617 L 705.83984 468.32617 L 715.23828 452.04492 z M 758.28711 452.04492 L 767.68555 468.32617 L 748.88672 468.32617 L 758.28711 452.04492 z M 844.38281 452.04492 L 853.78125 468.32617 L 834.98242 468.32617 L 844.38281 452.04492 z M 887.42969 452.04492 L 896.83008 468.32617 L 878.03125 468.32617 L 887.42969 452.04492 z M 930.47852 452.04492 L 939.87695 468.32617 L 921.07812 468.32617 L 930.47852 452.04492 z M 198.66602 452.04688 L 208.06445 468.32617 L 189.26758 468.32617 L 198.66602 452.04688 z M 413.9043 452.04688 L 423.30273 468.32617 L 404.50586 468.32617 L 413.9043 452.04688 z M 500 452.04688 L 509.39844 468.32617 L 490.60156 468.32617 L 500 452.04688 z M 586.0957 452.04688 L 595.49414 468.32617 L 576.69727 468.32617 L 586.0957 452.04688 z M 801.33398 452.04688 L 810.73242 468.32617 L 791.93555 468.32617 L 801.33398 452.04688 z M 973.52539 452.04688 L 982.92383 468.32617 L 964.12695 468.32617 L 973.52539 452.04688 z M 17.074219 482.32617 L 35.873047 482.32617 L 26.474609 498.60547 L 17.074219 482.32617 z M 60.123047 482.32617 L 78.921875 482.32617 L 69.521484 498.60547 L 60.123047 482.32617 z M 103.16992 482.32617 L 121.96875 482.32617 L 112.57031 498.60547 L 103.16992 482.32617 z M 146.21875 482.32617 L 165.01758 482.32617 L 155.61719 498.60742 L 146.21875 482.32617 z M 189.26758 482.32617 L 208.06445 482.32617 L 198.66602 498.60547 L 189.26758 482.32617 z M 232.31445 482.32617 L 251.11328 482.32617 L 241.71289 498.60547 L 232.31445 482.32617 z M 275.36133 482.32617 L 294.16016 482.32617 L 284.76172 498.60742 L 275.36133 482.32617 z M 318.41016 482.32617 L 337.20898 482.32617 L 327.80859 498.60547 L 318.41016 482.32617 z M 361.45703 482.32617 L 380.25586 482.32617 L 370.85742 498.60547 L 361.45703 482.32617 z M 404.50586 482.32617 L 423.30273 482.32617 L 413.9043 498.60547 L 404.50586 482.32617 z M 447.55273 482.32617 L 466.35156 482.32617 L 456.95312 498.60742 L 447.55273 482.32617 z M 490.60156 482.32617 L 509.39844 482.32617 L 500 498.60547 L 490.60156 482.32617 z M 533.64844 482.32617 L 552.44727 482.32617 L 543.04688 498.60742 L 533.64844 482.32617 z M 576.69727 482.32617 L 595.49414 482.32617 L 586.0957 498.60547 L 576.69727 482.32617 z M 619.74414 482.32617 L 638.54297 482.32617 L 629.14258 498.60547 L 619.74414 482.32617 z M 662.79102 482.32617 L 681.58984 482.32617 L 672.19141 498.60547 L 662.79102 482.32617 z M 705.83984 482.32617 L 724.63867 482.32617 L 715.23828 498.60742 L 705.83984 482.32617 z M 748.88672 482.32617 L 767.68555 482.32617 L 758.28711 498.60547 L 748.88672 482.32617 z M 791.93555 482.32617 L 810.73242 482.32617 L 801.33398 498.60547 L 791.93555 482.32617 z M 834.98242 482.32617 L 853.78125 482.32617 L 844.38281 498.60742 L 834.98242 482.32617 z M 878.03125 482.32617 L 896.83008 482.32617 L 887.42969 498.60547 L 878.03125 482.32617 z M 921.07812 482.32617 L 939.87695 482.32617 L 930.47852 498.60547 L 921.07812 482.32617 z M 964.12695 482.32617 L 982.92383 482.32617 L 973.52539 498.60547 L 964.12695 482.32617 z M 91.046875 489.32422 L 100.44531 505.60547 L 81.646484 505.60547 L 91.046875 489.32422 z M 177.14258 489.32422 L 186.54102 505.60547 L 167.74219 505.60547 L 177.14258 489.32422 z M 263.23828 489.32422 L 272.63672 505.60547 L 253.83789 505.60547 L 263.23828 489.32422 z M 349.33398 489.32422 L 358.73242 505.60547 L 339.93359 505.60547 L 349.33398 489.32422 z M 478.47656 489.32422 L 487.875 505.60547 L 469.07617 505.60547 L 478.47656 489.32422 z M 521.52539 489.32422 L 530.92383 505.60547 L 512.125 505.60547 L 521.52539 489.32422 z M 650.66797 489.32422 L 660.06641 505.60547 L 641.26758 505.60547 L 650.66797 489.32422 z M 736.76367 489.32422 L 746.16211 505.60547 L 727.36328 505.60547 L 736.76367 489.32422 z M 822.85938 489.32422 L 832.25781 505.60547 L 813.45898 505.60547 L 822.85938 489.32422 z M 908.95508 489.32422 L 918.35352 505.60547 L 899.55469 505.60547 L 908.95508 489.32422 z M 47.998047 489.32617 L 57.396484 505.60547 L 38.599609 505.60547 L 47.998047 489.32617 z M 134.09375 489.32617 L 143.49219 505.60547 L 124.69531 505.60547 L 134.09375 489.32617 z M 220.18945 489.32617 L 229.58789 505.60547 L 210.78906 505.60547 L 220.18945 489.32617 z M 306.28516 489.32617 L 315.68359 505.60547 L 296.88477 505.60547 L 306.28516 489.32617 z M 392.38086 489.32617 L 401.7793 505.60547 L 382.98242 505.60547 L 392.38086 489.32617 z M 435.42773 489.32617 L 444.82617 505.60547 L 426.0293 505.60547 L 435.42773 489.32617 z M 564.57227 489.32617 L 573.9707 505.60547 L 555.17188 505.60547 L 564.57227 489.32617 z M 607.61914 489.32617 L 617.01758 505.60547 L 598.2207 505.60547 L 607.61914 489.32617 z M 693.71484 489.32617 L 703.11328 505.60547 L 684.31641 505.60547 L 693.71484 489.32617 z M 779.81055 489.32617 L 789.21094 505.60547 L 770.41211 505.60547 L 779.81055 489.32617 z M 865.90625 489.32617 L 875.30469 505.60547 L 856.50586 505.60547 L 865.90625 489.32617 z M 952.00195 489.32617 L 961.40039 505.60547 L 942.60352 505.60547 L 952.00195 489.32617 z M 33.474609 519.60547 L 62.521484 519.60547 L 62.521484 548.6543 L 33.474609 548.6543 L 33.474609 519.60547 z M 76.521484 519.60547 L 105.57031 519.60547 L 105.57031 548.6543 L 76.521484 548.6543 L 76.521484 519.60547 z M 119.57031 519.60547 L 148.61719 519.60547 L 148.61719 548.6543 L 119.57031 548.6543 L 119.57031 519.60547 z M 162.61719 519.60547 L 191.66602 519.60547 L 191.66602 548.6543 L 162.61719 548.6543 L 162.61719 519.60547 z M 205.66602 519.60547 L 234.71289 519.60547 L 234.71289 548.6543 L 205.66602 548.6543 L 205.66602 519.60547 z M 248.71289 519.60547 L 277.76172 519.60547 L 277.76172 548.6543 L 248.71289 548.6543 L 248.71289 519.60547 z M 291.76172 519.60547 L 320.80859 519.60547 L 320.80859 548.6543 L 291.76172 548.6543 L 291.76172 519.60547 z M 334.80859 519.60547 L 363.85742 519.60547 L 363.85742 548.6543 L 334.80859 548.6543 L 334.80859 519.60547 z M 377.85742 519.60547 L 406.9043 519.60547 L 406.9043 548.6543 L 377.85742 548.6543 L 377.85742 519.60547 z M 420.9043 519.60547 L 449.95117 519.60547 L 449.95117 548.6543 L 420.9043 548.6543 L 420.9043 519.60547 z M 463.95117 519.60547 L 493 519.60547 L 493 548.6543 L 463.95117 548.6543 L 463.95117 519.60547 z M 507 519.60547 L 536.04883 519.60547 L 536.04883 548.6543 L 507 548.6543 L 507 519.60547 z M 550.04883 519.60547 L 579.0957 519.60547 L 579.0957 548.6543 L 550.04883 548.6543 L 550.04883 519.60547 z M 593.0957 519.60547 L 622.14258 519.60547 L 622.14258 548.6543 L 593.0957 548.6543 L 593.0957 519.60547 z M 636.14258 519.60547 L 665.19141 519.60547 L 665.19141 548.6543 L 636.14258 548.6543 L 636.14258 519.60547 z M 679.19141 519.60547 L 708.23828 519.60547 L 708.23828 548.6543 L 679.19141 548.6543 L 679.19141 519.60547 z M 722.23828 519.60547 L 751.28711 519.60547 L 751.28711 548.6543 L 722.23828 548.6543 L 722.23828 519.60547 z M 765.28711 519.60547 L 794.33398 519.60547 L 794.33398 548.6543 L 765.28711 548.6543 L 765.28711 519.60547 z M 808.33398 519.60547 L 837.38281 519.60547 L 837.38281 548.6543 L 808.33398 548.6543 L 808.33398 519.60547 z M 851.38281 519.60547 L 880.42969 519.60547 L 880.42969 548.6543 L 851.38281 548.6543 L 851.38281 519.60547 z M 894.42969 519.60547 L 923.47852 519.60547 L 923.47852 548.6543 L 894.42969 548.6543 L 894.42969 519.60547 z M 937.47852 519.60547 L 966.52539 519.60547 L 966.52539 548.6543 L 937.47852 548.6543 L 937.47852 519.60547 z M 38.599609 562.6543 L 57.396484 562.6543 L 47.998047 578.93359 L 38.599609 562.6543 z M 81.646484 562.6543 L 100.44531 562.6543 L 91.046875 578.93555 L 81.646484 562.6543 z M 124.69531 562.6543 L 143.49219 562.6543 L 134.09375 578.93359 L 124.69531 562.6543 z M 167.74219 562.6543 L 186.54102 562.6543 L 177.14062 578.93555 L 167.74219 562.6543 z M 210.78906 562.6543 L 229.58789 562.6543 L 220.18945 578.93359 L 210.78906 562.6543 z M 253.83789 562.6543 L 272.63672 562.6543 L 263.23633 578.93555 L 253.83789 562.6543 z M 296.88672 562.6543 L 315.68359 562.6543 L 306.28516 578.93359 L 296.88672 562.6543 z M 339.93359 562.6543 L 358.73242 562.6543 L 349.33203 578.93555 L 339.93359 562.6543 z M 382.98242 562.6543 L 401.7793 562.6543 L 392.38086 578.93359 L 382.98242 562.6543 z M 426.0293 562.6543 L 444.82812 562.6543 L 435.42773 578.93359 L 426.0293 562.6543 z M 469.07617 562.6543 L 487.875 562.6543 L 478.47461 578.93555 L 469.07617 562.6543 z M 512.125 562.6543 L 530.92383 562.6543 L 521.52344 578.93555 L 512.125 562.6543 z M 555.17383 562.6543 L 573.9707 562.6543 L 564.57227 578.93359 L 555.17383 562.6543 z M 598.2207 562.6543 L 617.01758 562.6543 L 607.61914 578.93359 L 598.2207 562.6543 z M 641.26758 562.6543 L 660.06641 562.6543 L 650.66602 578.93555 L 641.26758 562.6543 z M 684.31641 562.6543 L 703.11523 562.6543 L 693.71484 578.93359 L 684.31641 562.6543 z M 727.36328 562.6543 L 746.16211 562.6543 L 736.76172 578.93555 L 727.36328 562.6543 z M 770.41211 562.6543 L 789.20898 562.6543 L 779.81055 578.93359 L 770.41211 562.6543 z M 813.45898 562.6543 L 832.25781 562.6543 L 822.85742 578.93555 L 813.45898 562.6543 z M 856.50781 562.6543 L 875.30469 562.6543 L 865.90625 578.93359 L 856.50781 562.6543 z M 899.55469 562.6543 L 918.35352 562.6543 L 908.95312 578.93555 L 899.55469 562.6543 z M 942.60352 562.6543 L 961.40039 562.6543 L 952.00195 578.93359 L 942.60352 562.6543 z M 155.61719 569.65234 L 165.01758 585.93359 L 146.21875 585.93359 L 155.61719 569.65234 z M 284.76172 569.65234 L 294.16016 585.93359 L 275.36133 585.93359 L 284.76172 569.65234 z M 456.95312 569.65234 L 466.35156 585.93359 L 447.55273 585.93359 L 456.95312 569.65234 z M 543.04688 569.65234 L 552.44727 585.93359 L 533.64844 585.93359 L 543.04688 569.65234 z M 715.23828 569.65234 L 724.63867 585.93359 L 705.83984 585.93359 L 715.23828 569.65234 z M 844.38281 569.65234 L 853.78125 585.93359 L 834.98242 585.93359 L 844.38281 569.65234 z M 26.474609 569.6543 L 35.873047 585.93359 L 17.074219 585.93359 L 26.474609 569.6543 z M 69.521484 569.6543 L 78.921875 585.93359 L 60.123047 585.93359 L 69.521484 569.6543 z M 112.57031 569.6543 L 121.96875 585.93359 L 103.16992 585.93359 L 112.57031 569.6543 z M 198.66602 569.6543 L 208.06445 585.93359 L 189.26758 585.93359 L 198.66602 569.6543 z M 241.71289 569.6543 L 251.11328 585.93359 L 232.31445 585.93359 L 241.71289 569.6543 z M 327.80859 569.6543 L 337.20898 585.93359 L 318.41016 585.93359 L 327.80859 569.6543 z M 370.85742 569.6543 L 380.25586 585.93359 L 361.45703 585.93359 L 370.85742 569.6543 z M 413.9043 569.6543 L 423.30273 585.93359 L 404.50586 585.93359 L 413.9043 569.6543 z M 500 569.6543 L 509.39844 585.93359 L 490.60156 585.93359 L 500 569.6543 z M 586.0957 569.6543 L 595.49414 585.93359 L 576.69727 585.93359 L 586.0957 569.6543 z M 629.14258 569.6543 L 638.54297 585.93359 L 619.74414 585.93359 L 629.14258 569.6543 z M 672.19141 569.6543 L 681.58984 585.93359 L 662.79102 585.93359 L 672.19141 569.6543 z M 758.28711 569.6543 L 767.68555 585.93359 L 748.88672 585.93359 L 758.28711 569.6543 z M 801.33398 569.6543 L 810.73242 585.93359 L 791.93555 585.93359 L 801.33398 569.6543 z M 887.42969 569.6543 L 896.83008 585.93359 L 878.03125 585.93359 L 887.42969 569.6543 z M 930.47852 569.6543 L 939.87695 585.93359 L 921.07812 585.93359 L 930.47852 569.6543 z M 973.52539 569.6543 L 982.92383 585.93359 L 964.12695 585.93359 L 973.52539 569.6543 z M 17.074219 599.93359 L 35.873047 599.93359 L 26.474609 616.21484 L 17.074219 599.93359 z M 60.123047 599.93359 L 78.921875 599.93359 L 69.521484 616.21484 L 60.123047 599.93359 z M 103.16992 599.93359 L 121.96875 599.93359 L 112.57031 616.21484 L 103.16992 599.93359 z M 146.21875 599.93359 L 165.01758 599.93359 L 155.61719 616.21484 L 146.21875 599.93359 z M 189.26758 599.93359 L 208.06445 599.93359 L 198.66602 616.21289 L 189.26758 599.93359 z M 232.31445 599.93359 L 251.11328 599.93359 L 241.71289 616.21484 L 232.31445 599.93359 z M 275.36133 599.93359 L 294.16016 599.93359 L 284.76172 616.21484 L 275.36133 599.93359 z M 318.41016 599.93359 L 337.20898 599.93359 L 327.80859 616.21484 L 318.41016 599.93359 z M 361.45703 599.93359 L 380.25586 599.93359 L 370.85742 616.21484 L 361.45703 599.93359 z M 404.50586 599.93359 L 423.30273 599.93359 L 413.9043 616.21289 L 404.50586 599.93359 z M 447.55273 599.93359 L 466.35156 599.93359 L 456.95312 616.21484 L 447.55273 599.93359 z M 490.60156 599.93359 L 509.39844 599.93359 L 500 616.21289 L 490.60156 599.93359 z M 533.64844 599.93359 L 552.44727 599.93359 L 543.04688 616.21484 L 533.64844 599.93359 z M 576.69727 599.93359 L 595.49414 599.93359 L 586.0957 616.21289 L 576.69727 599.93359 z M 619.74414 599.93359 L 638.54297 599.93359 L 629.14258 616.21484 L 619.74414 599.93359 z M 662.79102 599.93359 L 681.58984 599.93359 L 672.19141 616.21484 L 662.79102 599.93359 z M 705.83984 599.93359 L 724.63867 599.93359 L 715.23828 616.21484 L 705.83984 599.93359 z M 748.88672 599.93359 L 767.68555 599.93359 L 758.28711 616.21484 L 748.88672 599.93359 z M 791.93555 599.93359 L 810.73242 599.93359 L 801.33398 616.21289 L 791.93555 599.93359 z M 834.98242 599.93359 L 853.78125 599.93359 L 844.38281 616.21484 L 834.98242 599.93359 z M 878.03125 599.93359 L 896.83008 599.93359 L 887.42969 616.21484 L 878.03125 599.93359 z M 921.07812 599.93359 L 939.87695 599.93359 L 930.47852 616.21484 L 921.07812 599.93359 z M 964.12695 599.93359 L 982.92383 599.93359 L 973.52539 616.21289 L 964.12695 599.93359 z M 91.046875 606.93359 L 100.44531 623.21484 L 81.646484 623.21484 L 91.046875 606.93359 z M 177.14258 606.93359 L 186.54102 623.21484 L 167.74219 623.21484 L 177.14258 606.93359 z M 220.18945 606.93359 L 229.58789 623.21484 L 210.78906 623.21484 L 220.18945 606.93359 z M 263.23828 606.93359 L 272.63672 623.21484 L 253.83789 623.21484 L 263.23828 606.93359 z M 349.33203 606.93359 L 358.73242 623.21484 L 339.93359 623.21484 L 349.33203 606.93359 z M 392.38086 606.93359 L 401.78125 623.21484 L 382.98242 623.21484 L 392.38086 606.93359 z M 478.47656 606.93359 L 487.875 623.21484 L 469.07617 623.21484 L 478.47656 606.93359 z M 521.52344 606.93359 L 530.92383 623.21484 L 512.125 623.21484 L 521.52344 606.93359 z M 607.61914 606.93359 L 617.01758 623.21484 L 598.21875 623.21484 L 607.61914 606.93359 z M 650.66797 606.93359 L 660.06641 623.21484 L 641.26758 623.21484 L 650.66797 606.93359 z M 736.76172 606.93359 L 746.16211 623.21484 L 727.36328 623.21484 L 736.76172 606.93359 z M 822.85742 606.93359 L 832.25781 623.21484 L 813.45898 623.21484 L 822.85742 606.93359 z M 908.95508 606.93359 L 918.35352 623.21484 L 899.55469 623.21484 L 908.95508 606.93359 z M 47.998047 606.93555 L 57.396484 623.21484 L 38.599609 623.21484 L 47.998047 606.93555 z M 134.09375 606.93555 L 143.49219 623.21484 L 124.69531 623.21484 L 134.09375 606.93555 z M 306.28516 606.93555 L 315.68359 623.21484 L 296.88672 623.21484 L 306.28516 606.93555 z M 435.42773 606.93555 L 444.82617 623.21484 L 426.0293 623.21484 L 435.42773 606.93555 z M 564.57227 606.93555 L 573.9707 623.21484 L 555.17383 623.21484 L 564.57227 606.93555 z M 693.71484 606.93555 L 703.11328 623.21484 L 684.31641 623.21484 L 693.71484 606.93555 z M 779.81055 606.93555 L 789.20898 623.21484 L 770.41211 623.21484 L 779.81055 606.93555 z M 865.90625 606.93555 L 875.30469 623.21484 L 856.50781 623.21484 L 865.90625 606.93555 z M 952.00195 606.93555 L 961.40039 623.21484 L 942.60352 623.21484 L 952.00195 606.93555 z M 33.474609 637.21484 L 62.521484 637.21484 L 62.521484 666.26367 L 33.474609 666.26367 L 33.474609 637.21484 z M 76.521484 637.21484 L 105.57031 637.21484 L 105.57031 666.26367 L 76.521484 666.26367 L 76.521484 637.21484 z M 119.57031 637.21484 L 148.61719 637.21484 L 148.61719 666.26367 L 119.57031 666.26367 L 119.57031 637.21484 z M 162.61719 637.21484 L 191.66602 637.21484 L 191.66602 666.26367 L 162.61719 666.26367 L 162.61719 637.21484 z M 205.66602 637.21484 L 234.71289 637.21484 L 234.71289 666.26367 L 205.66602 666.26367 L 205.66602 637.21484 z M 248.71289 637.21484 L 277.76172 637.21484 L 277.76172 666.26367 L 248.71289 666.26367 L 248.71289 637.21484 z M 291.76172 637.21484 L 320.80859 637.21484 L 320.80859 666.26367 L 291.76172 666.26367 L 291.76172 637.21484 z M 334.80859 637.21484 L 363.85742 637.21484 L 363.85742 666.26367 L 334.80859 666.26367 L 334.80859 637.21484 z M 377.85742 637.21484 L 406.9043 637.21484 L 406.9043 666.26367 L 377.85742 666.26367 L 377.85742 637.21484 z M 420.9043 637.21484 L 449.95117 637.21484 L 449.95117 666.26367 L 420.9043 666.26367 L 420.9043 637.21484 z M 463.95117 637.21484 L 493 637.21484 L 493 666.26367 L 463.95117 666.26367 L 463.95117 637.21484 z M 507 637.21484 L 536.04883 637.21484 L 536.04883 666.26367 L 507 666.26367 L 507 637.21484 z M 550.04883 637.21484 L 579.0957 637.21484 L 579.0957 666.26367 L 550.04883 666.26367 L 550.04883 637.21484 z M 593.0957 637.21484 L 622.14258 637.21484 L 622.14258 666.26367 L 593.0957 666.26367 L 593.0957 637.21484 z M 636.14258 637.21484 L 665.19141 637.21484 L 665.19141 666.26367 L 636.14258 666.26367 L 636.14258 637.21484 z M 679.19141 637.21484 L 708.23828 637.21484 L 708.23828 666.26367 L 679.19141 666.26367 L 679.19141 637.21484 z M 722.23828 637.21484 L 751.28711 637.21484 L 751.28711 666.26367 L 722.23828 666.26367 L 722.23828 637.21484 z M 765.28711 637.21484 L 794.33398 637.21484 L 794.33398 666.26367 L 765.28711 666.26367 L 765.28711 637.21484 z M 808.33398 637.21484 L 837.38281 637.21484 L 837.38281 666.26367 L 808.33398 666.26367 L 808.33398 637.21484 z M 851.38281 637.21484 L 880.42969 637.21484 L 880.42969 666.26367 L 851.38281 666.26367 L 851.38281 637.21484 z M 894.42969 637.21484 L 923.47852 637.21484 L 923.47852 666.26367 L 894.42969 666.26367 L 894.42969 637.21484 z M 937.47852 637.21484 L 966.52539 637.21484 L 966.52539 666.26367 L 937.47852 666.26367 L 937.47852 637.21484 z M 38.599609 680.26367 L 57.396484 680.26367 L 47.998047 696.54297 L 38.599609 680.26367 z M 81.646484 680.26367 L 100.44531 680.26367 L 91.046875 696.54492 L 81.646484 680.26367 z M 124.69531 680.26367 L 143.49219 680.26367 L 134.09375 696.54297 L 124.69531 680.26367 z M 167.74219 680.26367 L 186.54102 680.26367 L 177.14062 696.54492 L 167.74219 680.26367 z M 210.78906 680.26367 L 229.58789 680.26367 L 220.18945 696.54297 L 210.78906 680.26367 z M 253.83789 680.26367 L 272.63672 680.26367 L 263.23633 696.54492 L 253.83789 680.26367 z M 296.88672 680.26367 L 315.68359 680.26367 L 306.28516 696.54297 L 296.88672 680.26367 z M 339.93359 680.26367 L 358.73242 680.26367 L 349.33203 696.54492 L 339.93359 680.26367 z M 382.98242 680.26367 L 401.7793 680.26367 L 392.38086 696.54297 L 382.98242 680.26367 z M 426.0293 680.26367 L 444.82812 680.26367 L 435.42773 696.54297 L 426.0293 680.26367 z M 469.07617 680.26367 L 487.875 680.26367 L 478.47461 696.54492 L 469.07617 680.26367 z M 512.125 680.26367 L 530.92383 680.26367 L 521.52344 696.54492 L 512.125 680.26367 z M 555.17383 680.26367 L 573.9707 680.26367 L 564.57227 696.54297 L 555.17383 680.26367 z M 598.2207 680.26367 L 617.01758 680.26367 L 607.61914 696.54297 L 598.2207 680.26367 z M 641.26758 680.26367 L 660.06641 680.26367 L 650.66797 696.54492 L 641.26758 680.26367 z M 684.31641 680.26367 L 703.11523 680.26367 L 693.71484 696.54297 L 684.31641 680.26367 z M 727.36328 680.26367 L 746.16211 680.26367 L 736.76172 696.54492 L 727.36328 680.26367 z M 770.41211 680.26367 L 789.21094 680.26367 L 779.81055 696.54297 L 770.41211 680.26367 z M 813.45898 680.26367 L 832.25781 680.26367 L 822.85742 696.54492 L 813.45898 680.26367 z M 856.50781 680.26367 L 875.30469 680.26367 L 865.90625 696.54297 L 856.50781 680.26367 z M 899.55469 680.26367 L 918.35352 680.26367 L 908.95312 696.54492 L 899.55469 680.26367 z M 942.60352 680.26367 L 961.40039 680.26367 L 952.00195 696.54297 L 942.60352 680.26367 z M 155.61719 687.26172 L 165.01758 703.54297 L 146.21875 703.54297 L 155.61719 687.26172 z M 284.76172 687.26172 L 294.16016 703.54297 L 275.36133 703.54297 L 284.76172 687.26172 z M 456.95312 687.26172 L 466.35156 703.54297 L 447.55273 703.54297 L 456.95312 687.26172 z M 543.04688 687.26172 L 552.44727 703.54297 L 533.64844 703.54297 L 543.04688 687.26172 z M 715.23828 687.26172 L 724.63867 703.54297 L 705.83984 703.54297 L 715.23828 687.26172 z M 844.38281 687.26172 L 853.78125 703.54297 L 834.98242 703.54297 L 844.38281 687.26172 z M 26.474609 687.26367 L 35.873047 703.54297 L 17.074219 703.54297 L 26.474609 687.26367 z M 69.521484 687.26367 L 78.921875 703.54297 L 60.123047 703.54297 L 69.521484 687.26367 z M 112.57031 687.26367 L 121.96875 703.54297 L 103.16992 703.54297 L 112.57031 687.26367 z M 198.66602 687.26367 L 208.06445 703.54297 L 189.26758 703.54297 L 198.66602 687.26367 z M 241.71289 687.26367 L 251.11328 703.54297 L 232.31445 703.54297 L 241.71289 687.26367 z M 327.80859 687.26367 L 337.20898 703.54297 L 318.41016 703.54297 L 327.80859 687.26367 z M 370.85742 687.26367 L 380.25586 703.54297 L 361.45703 703.54297 L 370.85742 687.26367 z M 413.9043 687.26367 L 423.30273 703.54297 L 404.50586 703.54297 L 413.9043 687.26367 z M 500 687.26367 L 509.39844 703.54297 L 490.60156 703.54297 L 500 687.26367 z M 586.0957 687.26367 L 595.49414 703.54297 L 576.69727 703.54297 L 586.0957 687.26367 z M 629.14258 687.26367 L 638.54297 703.54297 L 619.74414 703.54297 L 629.14258 687.26367 z M 672.19141 687.26367 L 681.58984 703.54297 L 662.79102 703.54297 L 672.19141 687.26367 z M 758.28711 687.26367 L 767.68555 703.54297 L 748.88672 703.54297 L 758.28711 687.26367 z M 801.33398 687.26367 L 810.73242 703.54297 L 791.93555 703.54297 L 801.33398 687.26367 z M 887.42969 687.26367 L 896.83008 703.54297 L 878.03125 703.54297 L 887.42969 687.26367 z M 930.47852 687.26367 L 939.87695 703.54297 L 921.07812 703.54297 L 930.47852 687.26367 z M 973.52539 687.26367 L 982.92383 703.54297 L 964.12695 703.54297 L 973.52539 687.26367 z M 17.074219 717.54297 L 35.873047 717.54297 L 26.474609 733.82422 L 17.074219 717.54297 z M 60.123047 717.54297 L 78.921875 717.54297 L 69.521484 733.82422 L 60.123047 717.54297 z M 103.16992 717.54297 L 121.96875 717.54297 L 112.57031 733.82422 L 103.16992 717.54297 z M 146.21875 717.54297 L 165.01758 717.54297 L 155.61719 733.82422 L 146.21875 717.54297 z M 189.26758 717.54297 L 208.06445 717.54297 L 198.66602 733.82227 L 189.26758 717.54297 z M 232.31445 717.54297 L 251.11328 717.54297 L 241.71289 733.82422 L 232.31445 717.54297 z M 275.36133 717.54297 L 294.16016 717.54297 L 284.76172 733.82422 L 275.36133 717.54297 z M 318.41016 717.54297 L 337.20898 717.54297 L 327.80859 733.82422 L 318.41016 717.54297 z M 361.45703 717.54297 L 380.25586 717.54297 L 370.85742 733.82422 L 361.45703 717.54297 z M 404.50586 717.54297 L 423.30273 717.54297 L 413.9043 733.82227 L 404.50586 717.54297 z M 447.55273 717.54297 L 466.35156 717.54297 L 456.95312 733.82422 L 447.55273 717.54297 z M 490.60156 717.54297 L 509.39844 717.54297 L 500 733.82227 L 490.60156 717.54297 z M 533.64844 717.54297 L 552.44727 717.54297 L 543.04688 733.82422 L 533.64844 717.54297 z M 576.69727 717.54297 L 595.49414 717.54297 L 586.0957 733.82227 L 576.69727 717.54297 z M 619.74414 717.54297 L 638.54297 717.54297 L 629.14258 733.82422 L 619.74414 717.54297 z M 662.79102 717.54297 L 681.58984 717.54297 L 672.19141 733.82422 L 662.79102 717.54297 z M 705.83984 717.54297 L 724.63867 717.54297 L 715.23828 733.82422 L 705.83984 717.54297 z M 748.88672 717.54297 L 767.68555 717.54297 L 758.28711 733.82422 L 748.88672 717.54297 z M 791.93555 717.54297 L 810.73242 717.54297 L 801.33398 733.82227 L 791.93555 717.54297 z M 834.98242 717.54297 L 853.78125 717.54297 L 844.38281 733.82422 L 834.98242 717.54297 z M 878.03125 717.54297 L 896.83008 717.54297 L 887.42969 733.82422 L 878.03125 717.54297 z M 921.07812 717.54297 L 939.87695 717.54297 L 930.47852 733.82422 L 921.07812 717.54297 z M 964.12695 717.54297 L 982.92383 717.54297 L 973.52539 733.82227 L 964.12695 717.54297 z M 91.046875 724.54297 L 100.44531 740.82422 L 81.646484 740.82422 L 91.046875 724.54297 z M 177.14258 724.54297 L 186.54102 740.82422 L 167.74219 740.82422 L 177.14258 724.54297 z M 220.18945 724.54297 L 229.58789 740.82422 L 210.79102 740.82422 L 220.18945 724.54297 z M 263.23828 724.54297 L 272.63672 740.82422 L 253.83789 740.82422 L 263.23828 724.54297 z M 349.33203 724.54297 L 358.73242 740.82422 L 339.93359 740.82422 L 349.33203 724.54297 z M 392.38086 724.54297 L 401.78125 740.82422 L 382.98242 740.82422 L 392.38086 724.54297 z M 478.47656 724.54297 L 487.875 740.82422 L 469.07617 740.82422 L 478.47656 724.54297 z M 521.52344 724.54297 L 530.92383 740.82422 L 512.125 740.82422 L 521.52344 724.54297 z M 607.61914 724.54297 L 617.01758 740.82422 L 598.21875 740.82422 L 607.61914 724.54297 z M 650.66797 724.54297 L 660.06641 740.82422 L 641.26758 740.82422 L 650.66797 724.54297 z M 736.76172 724.54297 L 746.16211 740.82422 L 727.36328 740.82422 L 736.76172 724.54297 z M 779.81055 724.54297 L 789.21094 740.82422 L 770.41211 740.82422 L 779.81055 724.54297 z M 822.85938 724.54297 L 832.25781 740.82422 L 813.45898 740.82422 L 822.85938 724.54297 z M 865.90625 724.54297 L 875.30469 740.82422 L 856.50586 740.82422 L 865.90625 724.54297 z M 908.95508 724.54297 L 918.35352 740.82422 L 899.55469 740.82422 L 908.95508 724.54297 z M 47.998047 724.54492 L 57.396484 740.82422 L 38.599609 740.82422 L 47.998047 724.54492 z M 134.09375 724.54492 L 143.49219 740.82422 L 124.69531 740.82422 L 134.09375 724.54492 z M 306.28516 724.54492 L 315.68359 740.82422 L 296.88672 740.82422 L 306.28516 724.54492 z M 435.42773 724.54492 L 444.82617 740.82422 L 426.0293 740.82422 L 435.42773 724.54492 z M 564.57227 724.54492 L 573.9707 740.82422 L 555.17383 740.82422 L 564.57227 724.54492 z M 693.71484 724.54492 L 703.11328 740.82422 L 684.31641 740.82422 L 693.71484 724.54492 z M 952.00195 724.54492 L 961.40039 740.82422 L 942.60352 740.82422 L 952.00195 724.54492 z M 33.474609 754.82422 L 62.521484 754.82422 L 62.521484 783.87109 L 33.474609 783.87109 L 33.474609 754.82422 z M 76.521484 754.82422 L 105.57031 754.82422 L 105.57031 783.87109 L 76.521484 783.87109 L 76.521484 754.82422 z M 119.57031 754.82422 L 148.61719 754.82422 L 148.61719 783.87109 L 119.57031 783.87109 L 119.57031 754.82422 z M 162.61719 754.82422 L 191.66602 754.82422 L 191.66602 783.87109 L 162.61719 783.87109 L 162.61719 754.82422 z M 205.66602 754.82422 L 234.71289 754.82422 L 234.71289 783.87109 L 205.66602 783.87109 L 205.66602 754.82422 z M 248.71289 754.82422 L 277.76172 754.82422 L 277.76172 783.87109 L 248.71289 783.87109 L 248.71289 754.82422 z M 291.76172 754.82422 L 320.80859 754.82422 L 320.80859 783.87109 L 291.76172 783.87109 L 291.76172 754.82422 z M 334.80859 754.82422 L 363.85742 754.82422 L 363.85742 783.87109 L 334.80859 783.87109 L 334.80859 754.82422 z M 377.85742 754.82422 L 406.9043 754.82422 L 406.9043 783.87109 L 377.85742 783.87109 L 377.85742 754.82422 z M 420.9043 754.82422 L 449.95117 754.82422 L 449.95117 783.87109 L 420.9043 783.87109 L 420.9043 754.82422 z M 463.95117 754.82422 L 493 754.82422 L 493 783.87109 L 463.95117 783.87109 L 463.95117 754.82422 z M 507 754.82422 L 536.04883 754.82422 L 536.04883 783.87109 L 507 783.87109 L 507 754.82422 z M 550.04883 754.82422 L 579.0957 754.82422 L 579.0957 783.87109 L 550.04883 783.87109 L 550.04883 754.82422 z M 593.0957 754.82422 L 622.14258 754.82422 L 622.14258 783.87109 L 593.0957 783.87109 L 593.0957 754.82422 z M 636.14258 754.82422 L 665.19141 754.82422 L 665.19141 783.87109 L 636.14258 783.87109 L 636.14258 754.82422 z M 679.19141 754.82422 L 708.23828 754.82422 L 708.23828 783.87109 L 679.19141 783.87109 L 679.19141 754.82422 z M 722.23828 754.82422 L 751.28711 754.82422 L 751.28711 783.87109 L 722.23828 783.87109 L 722.23828 754.82422 z M 765.28711 754.82422 L 794.33398 754.82422 L 794.33398 783.87109 L 765.28711 783.87109 L 765.28711 754.82422 z M 808.33398 754.82422 L 837.38281 754.82422 L 837.38281 783.87109 L 808.33398 783.87109 L 808.33398 754.82422 z M 851.38281 754.82422 L 880.42969 754.82422 L 880.42969 783.87109 L 851.38281 783.87109 L 851.38281 754.82422 z M 894.42969 754.82422 L 923.47852 754.82422 L 923.47852 783.87109 L 894.42969 783.87109 L 894.42969 754.82422 z M 937.47852 754.82422 L 966.52539 754.82422 L 966.52539 783.87109 L 937.47852 783.87109 L 937.47852 754.82422 z M 38.599609 797.87109 L 57.396484 797.87109 L 47.998047 814.15039 L 38.599609 797.87109 z M 81.646484 797.87109 L 100.44531 797.87109 L 91.046875 814.15234 L 81.646484 797.87109 z M 124.69531 797.87109 L 143.49219 797.87109 L 134.09375 814.15039 L 124.69531 797.87109 z M 167.74219 797.87109 L 186.54102 797.87109 L 177.14062 814.15234 L 167.74219 797.87109 z M 210.78906 797.87109 L 229.58789 797.87109 L 220.18945 814.15234 L 210.78906 797.87109 z M 253.83789 797.87109 L 272.63672 797.87109 L 263.23828 814.15234 L 253.83789 797.87109 z M 296.88672 797.87109 L 315.68359 797.87109 L 306.28516 814.15039 L 296.88672 797.87109 z M 339.93359 797.87109 L 358.73242 797.87109 L 349.33203 814.15234 L 339.93359 797.87109 z M 382.98242 797.87109 L 401.78125 797.87109 L 392.38086 814.15234 L 382.98242 797.87109 z M 426.0293 797.87109 L 444.82617 797.87109 L 435.42773 814.15039 L 426.0293 797.87109 z M 469.07617 797.87109 L 487.875 797.87109 L 478.47656 814.15234 L 469.07617 797.87109 z M 512.125 797.87109 L 530.92383 797.87109 L 521.52344 814.15234 L 512.125 797.87109 z M 555.17383 797.87109 L 573.9707 797.87109 L 564.57227 814.15039 L 555.17383 797.87109 z M 598.2207 797.87109 L 617.01758 797.87109 L 607.61914 814.15039 L 598.2207 797.87109 z M 641.26758 797.87109 L 660.06641 797.87109 L 650.66797 814.15234 L 641.26758 797.87109 z M 684.31641 797.87109 L 703.11328 797.87109 L 693.71484 814.15039 L 684.31641 797.87109 z M 727.36328 797.87109 L 746.16211 797.87109 L 736.76172 814.15234 L 727.36328 797.87109 z M 770.41211 797.87109 L 789.21094 797.87109 L 779.81055 814.15234 L 770.41211 797.87109 z M 813.45898 797.87109 L 832.25781 797.87109 L 822.85742 814.15234 L 813.45898 797.87109 z M 856.50781 797.87109 L 875.30469 797.87109 L 865.90625 814.15039 L 856.50781 797.87109 z M 899.55469 797.87109 L 918.35352 797.87109 L 908.95312 814.15234 L 899.55469 797.87109 z M 942.60352 797.87109 L 961.40039 797.87109 L 952.00195 814.15039 L 942.60352 797.87109 z M 26.474609 804.87109 L 35.873047 821.15234 L 17.074219 821.15234 L 26.474609 804.87109 z M 69.521484 804.87109 L 78.921875 821.15234 L 60.123047 821.15234 L 69.521484 804.87109 z M 112.57031 804.87109 L 121.96875 821.15234 L 103.16992 821.15234 L 112.57031 804.87109 z M 155.61719 804.87109 L 165.01758 821.15234 L 146.21875 821.15234 L 155.61719 804.87109 z M 241.71289 804.87109 L 251.11328 821.15234 L 232.31445 821.15234 L 241.71289 804.87109 z M 284.76172 804.87109 L 294.16016 821.15234 L 275.36133 821.15234 L 284.76172 804.87109 z M 327.80859 804.87109 L 337.20898 821.15234 L 318.41016 821.15234 L 327.80859 804.87109 z M 370.85742 804.87109 L 380.25586 821.15234 L 361.45703 821.15234 L 370.85742 804.87109 z M 456.95312 804.87109 L 466.35156 821.15234 L 447.55273 821.15234 L 456.95312 804.87109 z M 543.04688 804.87109 L 552.44727 821.15234 L 533.64844 821.15234 L 543.04688 804.87109 z M 629.14258 804.87109 L 638.54297 821.15234 L 619.74414 821.15234 L 629.14258 804.87109 z M 672.19141 804.87109 L 681.58984 821.15234 L 662.79102 821.15234 L 672.19141 804.87109 z M 715.23828 804.87109 L 724.63867 821.15234 L 705.83984 821.15234 L 715.23828 804.87109 z M 758.28711 804.87109 L 767.68555 821.15234 L 748.88672 821.15234 L 758.28711 804.87109 z M 844.38281 804.87109 L 853.78125 821.15234 L 834.98242 821.15234 L 844.38281 804.87109 z M 887.42969 804.87109 L 896.83008 821.15234 L 878.03125 821.15234 L 887.42969 804.87109 z M 930.47852 804.87109 L 939.87695 821.15234 L 921.07812 821.15234 L 930.47852 804.87109 z M 198.66602 804.87305 L 208.06445 821.15234 L 189.26758 821.15234 L 198.66602 804.87305 z M 413.9043 804.87305 L 423.30273 821.15234 L 404.50586 821.15234 L 413.9043 804.87305 z M 500 804.87305 L 509.39844 821.15234 L 490.60156 821.15234 L 500 804.87305 z M 586.0957 804.87305 L 595.49414 821.15234 L 576.69727 821.15234 L 586.0957 804.87305 z M 801.33398 804.87305 L 810.73242 821.15234 L 791.93555 821.15234 L 801.33398 804.87305 z M 973.52539 804.87305 L 982.92383 821.15234 L 964.12695 821.15234 L 973.52539 804.87305 z M 17.074219 835.15234 L 35.873047 835.15234 L 26.474609 851.43164 L 17.074219 835.15234 z M 60.123047 835.15234 L 78.921875 835.15234 L 69.521484 851.43164 L 60.123047 835.15234 z M 103.16992 835.15234 L 121.96875 835.15234 L 112.57031 851.43164 L 103.16992 835.15234 z M 146.21875 835.15234 L 165.01758 835.15234 L 155.61719 851.43359 L 146.21875 835.15234 z M 189.26758 835.15234 L 208.06445 835.15234 L 198.66602 851.43164 L 189.26758 835.15234 z M 232.31445 835.15234 L 251.11328 835.15234 L 241.71289 851.43164 L 232.31445 835.15234 z M 275.36133 835.15234 L 294.16016 835.15234 L 284.76172 851.43359 L 275.36133 835.15234 z M 318.41016 835.15234 L 337.20898 835.15234 L 327.80859 851.43164 L 318.41016 835.15234 z M 361.45703 835.15234 L 380.25586 835.15234 L 370.85742 851.43164 L 361.45703 835.15234 z M 404.50586 835.15234 L 423.30273 835.15234 L 413.9043 851.43164 L 404.50586 835.15234 z M 447.55273 835.15234 L 466.35156 835.15234 L 456.95312 851.43359 L 447.55273 835.15234 z M 490.60156 835.15234 L 509.39844 835.15234 L 500 851.43164 L 490.60156 835.15234 z M 533.64844 835.15234 L 552.44727 835.15234 L 543.04688 851.43359 L 533.64844 835.15234 z M 576.69727 835.15234 L 595.49414 835.15234 L 586.0957 851.43164 L 576.69727 835.15234 z M 619.74414 835.15234 L 638.54297 835.15234 L 629.14258 851.43164 L 619.74414 835.15234 z M 662.79102 835.15234 L 681.58984 835.15234 L 672.19141 851.43164 L 662.79102 835.15234 z M 705.83984 835.15234 L 724.63867 835.15234 L 715.23828 851.43359 L 705.83984 835.15234 z M 748.88672 835.15234 L 767.68555 835.15234 L 758.28711 851.43164 L 748.88672 835.15234 z M 791.93555 835.15234 L 810.73242 835.15234 L 801.33398 851.43164 L 791.93555 835.15234 z M 834.98242 835.15234 L 853.78125 835.15234 L 844.38281 851.43359 L 834.98242 835.15234 z M 878.03125 835.15234 L 896.83008 835.15234 L 887.42969 851.43164 L 878.03125 835.15234 z M 921.07812 835.15234 L 939.87695 835.15234 L 930.47852 851.43164 L 921.07812 835.15234 z M 964.12695 835.15234 L 982.92383 835.15234 L 973.52539 851.43164 L 964.12695 835.15234 z M 91.046875 842.15039 L 100.44531 858.43164 L 81.646484 858.43164 L 91.046875 842.15039 z M 177.14258 842.15039 L 186.54102 858.43164 L 167.74219 858.43164 L 177.14258 842.15039 z M 263.23828 842.15039 L 272.63672 858.43164 L 253.83789 858.43164 L 263.23828 842.15039 z M 349.33398 842.15039 L 358.73242 858.43164 L 339.93359 858.43164 L 349.33398 842.15039 z M 478.47656 842.15039 L 487.875 858.43164 L 469.07617 858.43164 L 478.47656 842.15039 z M 521.52344 842.15039 L 530.92383 858.43164 L 512.125 858.43164 L 521.52344 842.15039 z M 650.66797 842.15039 L 660.06641 858.43164 L 641.26758 858.43164 L 650.66797 842.15039 z M 736.76367 842.15039 L 746.16211 858.43164 L 727.36328 858.43164 L 736.76367 842.15039 z M 822.85938 842.15039 L 832.25781 858.43164 L 813.45898 858.43164 L 822.85938 842.15039 z M 908.95508 842.15039 L 918.35352 858.43164 L 899.55469 858.43164 L 908.95508 842.15039 z M 47.998047 842.15234 L 57.396484 858.43164 L 38.599609 858.43164 L 47.998047 842.15234 z M 134.09375 842.15234 L 143.49219 858.43164 L 124.69531 858.43164 L 134.09375 842.15234 z M 220.18945 842.15234 L 229.58789 858.43164 L 210.79102 858.43164 L 220.18945 842.15234 z M 306.28516 842.15234 L 315.68359 858.43164 L 296.88477 858.43164 L 306.28516 842.15234 z M 392.38086 842.15234 L 401.7793 858.43164 L 382.98242 858.43164 L 392.38086 842.15234 z M 435.42773 842.15234 L 444.82617 858.43164 L 426.0293 858.43164 L 435.42773 842.15234 z M 564.57227 842.15234 L 573.9707 858.43164 L 555.17383 858.43164 L 564.57227 842.15234 z M 607.61914 842.15234 L 617.01758 858.43164 L 598.2207 858.43164 L 607.61914 842.15234 z M 693.71484 842.15234 L 703.11328 858.43164 L 684.31641 858.43164 L 693.71484 842.15234 z M 779.81055 842.15234 L 789.21094 858.43164 L 770.41211 858.43164 L 779.81055 842.15234 z M 865.90625 842.15234 L 875.30469 858.43164 L 856.50586 858.43164 L 865.90625 842.15234 z M 952.00195 842.15234 L 961.40039 858.43164 L 942.60352 858.43164 L 952.00195 842.15234 z M 33.474609 872.43164 L 62.521484 872.43164 L 62.521484 901.48047 L 33.474609 901.48047 L 33.474609 872.43164 z M 76.521484 872.43164 L 105.57031 872.43164 L 105.57031 901.48047 L 76.521484 901.48047 L 76.521484 872.43164 z M 119.57031 872.43164 L 148.61719 872.43164 L 148.61719 901.48047 L 119.57031 901.48047 L 119.57031 872.43164 z M 162.61719 872.43164 L 191.66602 872.43164 L 191.66602 901.48047 L 162.61719 901.48047 L 162.61719 872.43164 z M 205.66602 872.43164 L 234.71289 872.43164 L 234.71289 901.48047 L 205.66602 901.48047 L 205.66602 872.43164 z M 248.71289 872.43164 L 277.76172 872.43164 L 277.76172 901.48047 L 248.71289 901.48047 L 248.71289 872.43164 z M 291.76172 872.43164 L 320.80859 872.43164 L 320.80859 901.48047 L 291.76172 901.48047 L 291.76172 872.43164 z M 334.80859 872.43164 L 363.85742 872.43164 L 363.85742 901.48047 L 334.80859 901.48047 L 334.80859 872.43164 z M 377.85742 872.43164 L 406.9043 872.43164 L 406.9043 901.48047 L 377.85742 901.48047 L 377.85742 872.43164 z M 420.9043 872.43164 L 449.95117 872.43164 L 449.95117 901.48047 L 420.9043 901.48047 L 420.9043 872.43164 z M 463.95117 872.43164 L 493 872.43164 L 493 901.48047 L 463.95117 901.48047 L 463.95117 872.43164 z M 507 872.43164 L 536.04883 872.43164 L 536.04883 901.48047 L 507 901.48047 L 507 872.43164 z M 550.04883 872.43164 L 579.0957 872.43164 L 579.0957 901.48047 L 550.04883 901.48047 L 550.04883 872.43164 z M 593.0957 872.43164 L 622.14258 872.43164 L 622.14258 901.48047 L 593.0957 901.48047 L 593.0957 872.43164 z M 636.14258 872.43164 L 665.19141 872.43164 L 665.19141 901.48047 L 636.14258 901.48047 L 636.14258 872.43164 z M 679.19141 872.43164 L 708.23828 872.43164 L 708.23828 901.48047 L 679.19141 901.48047 L 679.19141 872.43164 z M 722.23828 872.43164 L 751.28711 872.43164 L 751.28711 901.48047 L 722.23828 901.48047 L 722.23828 872.43164 z M 765.28711 872.43164 L 794.33398 872.43164 L 794.33398 901.48047 L 765.28711 901.48047 L 765.28711 872.43164 z M 808.33398 872.43164 L 837.38281 872.43164 L 837.38281 901.48047 L 808.33398 901.48047 L 808.33398 872.43164 z M 851.38281 872.43164 L 880.42969 872.43164 L 880.42969 901.48047 L 851.38281 901.48047 L 851.38281 872.43164 z M 894.42969 872.43164 L 923.47852 872.43164 L 923.47852 901.48047 L 894.42969 901.48047 L 894.42969 872.43164 z M 937.47852 872.43164 L 966.52539 872.43164 L 966.52539 901.48047 L 937.47852 901.48047 L 937.47852 872.43164 z M 38.599609 915.48047 L 57.396484 915.48047 L 47.998047 931.75977 L 38.599609 915.48047 z M 81.646484 915.48047 L 100.44531 915.48047 L 91.046875 931.76172 L 81.646484 915.48047 z M 124.69531 915.48047 L 143.49219 915.48047 L 134.09375 931.75977 L 124.69531 915.48047 z M 167.74219 915.48047 L 186.54102 915.48047 L 177.14062 931.76172 L 167.74219 915.48047 z M 210.78906 915.48047 L 229.58789 915.48047 L 220.18945 931.76172 L 210.78906 915.48047 z M 253.83789 915.48047 L 272.63672 915.48047 L 263.23828 931.76172 L 253.83789 915.48047 z M 296.88672 915.48047 L 315.68359 915.48047 L 306.28516 931.75977 L 296.88672 915.48047 z M 339.93359 915.48047 L 358.73242 915.48047 L 349.33203 931.76172 L 339.93359 915.48047 z M 382.98242 915.48047 L 401.78125 915.48047 L 392.38086 931.76172 L 382.98242 915.48047 z M 426.0293 915.48047 L 444.82617 915.48047 L 435.42773 931.75977 L 426.0293 915.48047 z M 469.07617 915.48047 L 487.875 915.48047 L 478.47656 931.76172 L 469.07617 915.48047 z M 512.125 915.48047 L 530.92383 915.48047 L 521.52344 931.76172 L 512.125 915.48047 z M 555.17383 915.48047 L 573.9707 915.48047 L 564.57227 931.75977 L 555.17383 915.48047 z M 598.21875 915.48047 L 617.01758 915.48047 L 607.61914 931.76172 L 598.21875 915.48047 z M 641.26758 915.48047 L 660.06641 915.48047 L 650.66797 931.76172 L 641.26758 915.48047 z M 684.31641 915.48047 L 703.11328 915.48047 L 693.71484 931.75977 L 684.31641 915.48047 z M 727.36328 915.48047 L 746.16211 915.48047 L 736.76172 931.76172 L 727.36328 915.48047 z M 770.41211 915.48047 L 789.21094 915.48047 L 779.81055 931.76172 L 770.41211 915.48047 z M 813.45898 915.48047 L 832.25781 915.48047 L 822.85742 931.76172 L 813.45898 915.48047 z M 856.50781 915.48047 L 875.30469 915.48047 L 865.90625 931.75977 L 856.50781 915.48047 z M 899.55469 915.48047 L 918.35352 915.48047 L 908.95312 931.76172 L 899.55469 915.48047 z M 942.60352 915.48047 L 961.40039 915.48047 L 952.00195 931.75977 L 942.60352 915.48047 z M 26.474609 922.48047 L 35.873047 938.76172 L 17.074219 938.76172 L 26.474609 922.48047 z M 69.521484 922.48047 L 78.921875 938.76172 L 60.123047 938.76172 L 69.521484 922.48047 z M 112.57031 922.48047 L 121.96875 938.76172 L 103.16992 938.76172 L 112.57031 922.48047 z M 155.61719 922.48047 L 165.01758 938.76172 L 146.21875 938.76172 L 155.61719 922.48047 z M 241.71289 922.48047 L 251.11328 938.76172 L 232.31445 938.76172 L 241.71289 922.48047 z M 284.76172 922.48047 L 294.16016 938.76172 L 275.36133 938.76172 L 284.76172 922.48047 z M 327.80859 922.48047 L 337.20898 938.76172 L 318.41016 938.76172 L 327.80859 922.48047 z M 370.85742 922.48047 L 380.25586 938.76172 L 361.45703 938.76172 L 370.85742 922.48047 z M 456.95312 922.48047 L 466.35156 938.76172 L 447.55273 938.76172 L 456.95312 922.48047 z M 543.04688 922.48047 L 552.44727 938.76172 L 533.64844 938.76172 L 543.04688 922.48047 z M 629.14258 922.48047 L 638.54297 938.76172 L 619.74414 938.76172 L 629.14258 922.48047 z M 672.19141 922.48047 L 681.58984 938.76172 L 662.79102 938.76172 L 672.19141 922.48047 z M 715.23828 922.48047 L 724.63867 938.76172 L 705.83984 938.76172 L 715.23828 922.48047 z M 758.28711 922.48047 L 767.68555 938.76172 L 748.88672 938.76172 L 758.28711 922.48047 z M 844.38281 922.48047 L 853.78125 938.76172 L 834.98242 938.76172 L 844.38281 922.48047 z M 887.42969 922.48047 L 896.83008 938.76172 L 878.03125 938.76172 L 887.42969 922.48047 z M 930.47852 922.48047 L 939.87695 938.76172 L 921.07812 938.76172 L 930.47852 922.48047 z M 198.66602 922.48242 L 208.06445 938.76172 L 189.26758 938.76172 L 198.66602 922.48242 z M 413.9043 922.48242 L 423.30273 938.76172 L 404.50586 938.76172 L 413.9043 922.48242 z M 500 922.48242 L 509.39844 938.76172 L 490.60156 938.76172 L 500 922.48242 z M 586.0957 922.48242 L 595.49414 938.76172 L 576.69727 938.76172 L 586.0957 922.48242 z M 801.33398 922.48242 L 810.73242 938.76172 L 791.93555 938.76172 L 801.33398 922.48242 z M 973.52539 922.48242 L 982.92383 938.76172 L 964.12695 938.76172 L 973.52539 922.48242 z M 17.074219 952.76172 L 35.873047 952.76172 L 26.474609 969.04102 L 17.074219 952.76172 z M 60.123047 952.76172 L 78.921875 952.76172 L 69.521484 969.04102 L 60.123047 952.76172 z M 103.16992 952.76172 L 121.96875 952.76172 L 112.57031 969.04102 L 103.16992 952.76172 z M 146.21875 952.76172 L 165.01758 952.76172 L 155.61719 969.04297 L 146.21875 952.76172 z M 189.26758 952.76172 L 208.06445 952.76172 L 198.66602 969.04102 L 189.26758 952.76172 z M 232.31445 952.76172 L 251.11328 952.76172 L 241.71289 969.04102 L 232.31445 952.76172 z M 275.36133 952.76172 L 294.16016 952.76172 L 284.76172 969.04297 L 275.36133 952.76172 z M 318.41016 952.76172 L 337.20898 952.76172 L 327.80859 969.04102 L 318.41016 952.76172 z M 361.45703 952.76172 L 380.25586 952.76172 L 370.85742 969.04102 L 361.45703 952.76172 z M 404.50586 952.76172 L 423.30273 952.76172 L 413.9043 969.04102 L 404.50586 952.76172 z M 447.55273 952.76172 L 466.35156 952.76172 L 456.95312 969.04297 L 447.55273 952.76172 z M 490.60156 952.76172 L 509.39844 952.76172 L 500 969.04102 L 490.60156 952.76172 z M 533.64844 952.76172 L 552.44727 952.76172 L 543.04688 969.04297 L 533.64844 952.76172 z M 576.69727 952.76172 L 595.49414 952.76172 L 586.0957 969.04102 L 576.69727 952.76172 z M 619.74414 952.76172 L 638.54297 952.76172 L 629.14258 969.04102 L 619.74414 952.76172 z M 662.79102 952.76172 L 681.58984 952.76172 L 672.19141 969.04102 L 662.79102 952.76172 z M 705.83984 952.76172 L 724.63867 952.76172 L 715.23828 969.04297 L 705.83984 952.76172 z M 748.88672 952.76172 L 767.68555 952.76172 L 758.28711 969.04102 L 748.88672 952.76172 z M 791.93555 952.76172 L 810.73242 952.76172 L 801.33398 969.04102 L 791.93555 952.76172 z M 834.98242 952.76172 L 853.78125 952.76172 L 844.38281 969.04297 L 834.98242 952.76172 z M 878.03125 952.76172 L 896.83008 952.76172 L 887.42969 969.04102 L 878.03125 952.76172 z M 921.07812 952.76172 L 939.87695 952.76172 L 930.47852 969.04102 L 921.07812 952.76172 z M 964.12695 952.76172 L 982.92383 952.76172 L 973.52539 969.04102 L 964.12695 952.76172 z "
     id="path832" />
</svg>
