<?xml version="1.0" encoding="UTF-8" standalone="no"?>
<svg
   xmlns:dc="http://purl.org/dc/elements/1.1/"
   xmlns:cc="http://creativecommons.org/ns#"
   xmlns:rdf="http://www.w3.org/1999/02/22-rdf-syntax-ns#"
   xmlns:svg="http://www.w3.org/2000/svg"
   xmlns="http://www.w3.org/2000/svg"
   xmlns:sodipodi="http://sodipodi.sourceforge.net/DTD/sodipodi-0.dtd"
   xmlns:inkscape="http://www.inkscape.org/namespaces/inkscape"
   inkscape:version="1.0.1 (3bc2e813f5, 2020-09-07)"
   sodipodi:docname="3-uniform_55.svg"
   id="c:\kuniform\3u\3-uniform_55.svg"
   height="988.6753"
   width="1000.0"
   version="1.0">
  <style
     id="style2976" />
  <metadata
     id="metadata2974">
    <rdf:RDF>
      <cc:Work
         rdf:about="">
        <dc:format>image/svg+xml</dc:format>
        <dc:type
           rdf:resource="http://purl.org/dc/dcmitype/StillImage" />
        <dc:title />
      </cc:Work>
    </rdf:RDF>
  </metadata>
  <defs
     id="defs2972" />
  <sodipodi:namedview
     inkscape:current-layer="c:\kuniform\3u\3-uniform_55.svg"
     inkscape:window-maximized="1"
     inkscape:window-y="-9"
     inkscape:window-x="-9"
     inkscape:cy="475.59179"
     inkscape:cx="437.1841"
     inkscape:zoom="0.68418422"
     showgrid="false"
     id="namedview2970"
     inkscape:window-height="1001"
     inkscape:window-width="1920"
     inkscape:pageshadow="2"
     inkscape:pageopacity="0"
     guidetolerance="10"
     gridtolerance="10"
     objecttolerance="10"
     borderopacity="1"
     inkscape:document-rotation="0"
     bordercolor="#666666"
     pagecolor="#ffffff" />
  <!-- X Coordinate transform: fx(x)=(x+97.42139)*0.8369302-->
  <!-- Y Coordinate transform: fy(y)=(1090.6558-y)*0.8369302 -->
  <path
     style="color:#000000;font-style:normal;font-variant:normal;font-weight:normal;font-stretch:normal;font-size:medium;line-height:normal;font-family:sans-serif;font-variant-ligatures:normal;font-variant-position:normal;font-variant-caps:normal;font-variant-numeric:normal;font-variant-alternates:normal;font-variant-east-asian:normal;font-feature-settings:normal;font-variation-settings:normal;text-indent:0;text-align:start;text-decoration:none;text-decoration-line:none;text-decoration-style:solid;text-decoration-color:#000000;letter-spacing:normal;word-spacing:normal;text-transform:none;writing-mode:lr-tb;direction:ltr;text-orientation:mixed;dominant-baseline:auto;baseline-shift:baseline;text-anchor:start;white-space:normal;shape-padding:0;shape-margin:0;inline-size:0;clip-rule:nonzero;display:inline;overflow:visible;visibility:visible;isolation:auto;mix-blend-mode:normal;color-interpolation:sRGB;color-interpolation-filters:linearRGB;solid-color:#000000;solid-opacity:1;vector-effect:none;fill:#000000;fill-opacity:1;fill-rule:nonzero;stroke:none;stroke-width:15;stroke-linecap:butt;stroke-linejoin:miter;stroke-miterlimit:4;stroke-dasharray:none;stroke-dashoffset:0;stroke-opacity:1;color-rendering:auto;image-rendering:auto;shape-rendering:auto;text-rendering:auto;enable-background:accumulate;stop-color:#000000"
     d="M 727.76562,1.1445312 707.84766,35.644531 679.8418,51.8125 662.66797,22.068359 l -6.49609,3.75 -6.49415,-3.75 -14.42773,24.990235 -14.42773,-24.990235 -6.49415,3.75 -6.49609,-3.75 -14.42773,24.990235 -14.42969,-24.990235 -6.49414,3.75 -3.75,-6.496093 -34.5,19.917968 h -35.50586 -4.33008 -39.83789 l -34.5,-19.917968 -3.75,6.496093 h -7.5 v 34.345703 h -30.01562 -8.66211 -30.01563 V 25.818359 h -7.5 l -3.75,-6.496093 L 299.11914,36.496094 281.94531,6.7519531 275.45117,10.501953 268.95508,6.75 254.52734,31.740234 240.09961,6.7519531 233.60547,10.501953 227.10938,6.7519531 207.19141,41.25 179.18555,57.417969 162.01172,27.673828 l -6.4961,3.75 -6.49414,-3.75 -14.42773,24.990234 -14.42773,-24.990234 -6.49414,3.75 -6.4961,-3.75 -19.917968,34.5 -38.25,22.083984 v 44.166018 l -19.919921,34.5 6.496093,3.75 v 7.5 h 34.347657 v 26.84765 H 35.583984 v 7.5 l -6.496093,3.75 19.919921,34.5 v 37.82618 l -19.919921,34.5 6.496093,3.75 v 7.5 h 34.347657 v 26.8457 H 35.583984 v 7.5 l -6.496093,3.75 17.173828,29.74414 -29.744141,17.17383 3.75,6.49414 -3.75,6.49609 24.990234,14.42969 -24.990234,14.42773 3.75,6.49414 -6.496094,3.75196 19.919922,34.49804 v 37.82813 l -19.919922,34.5 6.496094,3.75 v 7.5 h 34.345703 v 26.8457 H 20.267578 v 7.5 l -6.496094,3.75 19.919922,34.5 v 37.82813 l -19.919922,34.49804 6.496094,3.75196 v 7.49804 h 34.345703 v 26.84766 H 20.267578 v 7.5 l -6.496094,3.75 17.173828,29.74414 -29.7460932,17.17383 3.75,6.49609 -3.75,6.49414 34.5000002,19.91797 16.169922,28.00391 -29.746094,17.17578 3.75,6.49414 -3.75,6.4961 34.5,19.91796 19.917969,34.5 6.49414,-3.75 6.496094,3.75 14.42969,-24.99023 14.42773,24.99023 6.49414,-3.75 6.4961,3.75 14.42773,-24.99023 14.42774,24.99023 6.49609,-3.75 3.75,6.49414 34.5,-19.91796 h 35.50586 4.33008 39.83789 l 34.49804,19.91796 3.75,-6.49414 h 7.5 v -34.34765 h 30.01758 8.66016 30.01562 v 34.34765 h 7.5 l 3.75,6.49414 29.7461,-17.17382 17.17382,29.74609 6.4961,-3.75 6.49414,3.75 14.42773,-24.99023 14.42774,24.99023 6.49414,-3.75 6.49609,3.75 19.91797,-34.5 28.00391,-16.16992 17.17383,29.74609 6.49414,-3.75 6.49609,3.75 14.42773,-24.99023 14.42969,24.99023 6.49414,-3.75 6.4961,3.75 14.42773,-24.99023 14.42773,24.99023 6.4961,-3.75 3.75,6.4961 34.5,-19.91993 h 39.83594 39.83593 l 34.5,19.91993 3.75,-6.4961 h 7.5 v -34.3457 h 34.34766 34.3457 v 34.3457 h 7.5 l 3.75,6.4961 39.99024,-23.08985 v -44.16601 l 19.91797,-34.5 -6.49414,-3.75 v -7.5 h -34.34766 v -26.84571 h 34.34766 V 822 l 6.49414,-3.75 -19.91797,-34.49805 v -37.82812 l 19.91797,-34.5 -6.49414,-3.75 v -7.5 h -34.34766 v -26.84571 h 34.34766 v -7.5 l 6.49414,-3.75 -17.17383,-29.74609 29.74609,-17.17383 -3.75,-6.49414 3.75,-6.49609 -24.99023,-14.42774 24.99023,-14.42773 -3.75,-6.49414 6.4961,-3.75 -19.91993,-34.5 v -37.82813 l 19.91993,-34.5 -6.4961,-3.75 v -7.5 h -34.3457 v -26.8457 h 34.3457 v -7.5 l 6.4961,-3.75 -19.91993,-34.5 v -37.82617 l 19.91993,-34.5 -6.4961,-3.75 v -7.5 h -34.3457 V 261.9707 h 34.3457 v -7.5 l 6.4961,-3.75 -17.17383,-29.74609 29.74609,-17.17188 -3.75,-6.49414 3.75,-6.49609 -34.50195,-19.91797 -16.16797,-28.00391 29.74609,-17.17382 -3.75,-6.49414 3.75,-6.4961 -24.99023,-14.427732 24.99023,-14.427734 -3.75,-6.496094 6.49414,-3.75 -21.92773,-37.980469 -37.98047,-21.927734 -3.75,6.494141 h -7.5 v 34.347656 h -34.34766 -34.3457 V 20.210938 h -7.5 l -3.75,-6.494141 -29.74414,17.171875 -17.17383,-29.7441408 -6.49609,3.75 -6.49414,-3.75 -14.42774,24.9902348 -14.42773,-24.9902348 -6.49414,3.75 z m 6.4961,18.7499998 7.93164,13.740235 h -15.86524 z m 41.84375,0 7.93359,13.740235 h -15.86523 z m -542.5,5.607422 7.93164,13.738281 h -15.86523 z m 41.84375,0 7.93359,13.738281 h -15.86523 z m 550.32031,7.699219 V 49.068359 L 812.0293,41.134766 Z m 98.69336,0 13.74023,7.933594 -13.74023,7.933593 z m -354.72851,2.861328 13.42382,23.25 -23.25,13.423828 -13.42382,-23.25 z m -145.92774,2.744141 13.74024,7.933593 -13.74024,7.933594 z m -98.69336,0.002 v 15.865234 l -13.74023,-7.933594 z m 289.21289,2.009765 7.9336,13.740235 h -15.86524 z m 41.84766,0 7.93359,13.740235 h -15.86719 z m -542.50195,5.605469 7.93164,13.740234 h -15.86524 z m 41.8457,0 7.93359,13.740234 h -15.86719 z m 565.32031,2.210938 h 26.8457 v 26.845703 h -26.8457 z m 41.8457,0 h 26.84571 v 26.845703 h -26.84571 z m 187.77539,2.746093 13.42188,23.248047 -23.24805,13.423828 -13.42383,-23.25 z M 705.83789,54.125 v 15.865234 l -13.74023,-7.93164 z m 98.69141,0 13.74023,7.933594 -13.74023,7.93164 z m -584.34766,0.115234 h 26.8457 v 26.847657 h -26.8457 z m 41.8457,0 h 26.84571 v 26.847657 h -26.84571 z m 203.50977,0 h 15.86523 l -7.93164,13.740235 z m 41.84766,0 H 523.25 l -7.93359,13.740235 z m -57.58204,2.746094 13.42188,23.248047 -23.25,13.423828 -13.42188,-23.25 z m -244.62109,2.744141 v 15.867187 l -13.74023,-7.933594 z m 98.69141,0 13.74023,7.933593 -13.74023,7.933594 z m 190.52148,2.009765 7.93164,13.740235 h -15.86523 z m 41.8457,0 7.93165,13.740235 h -15.86524 z m 64.66407,7.81836 H 627.75 v 26.845703 h -26.8457 z m 41.8457,0 h 26.84766 V 96.404297 H 642.75 Z m 203.50977,0 H 862.125 l -7.93164,13.740234 z m 41.8457,0 h 15.86719 l -7.9336,13.740234 z m -57.58008,2.74414 13.42383,23.25 -23.25,13.423826 -13.42383,-23.249998 z M 585.9043,75.048828 v 15.865234 l -13.74024,-7.933593 z m 98.69336,0 13.74023,7.931641 -13.74023,7.933593 z m -584.34961,0.115234 h 26.8457 v 26.847658 h -26.8457 z m 41.8457,0 h 26.84766 v 26.847658 h -26.84766 z m 203.50977,0 h 15.86523 l -7.93164,13.740235 z m 41.84765,0 h 15.86524 l -7.93164,13.740235 z m 487.66406,1.894532 7.9336,13.740234 h -15.86524 z m 41.84766,0 7.93359,13.740234 H 909.0293 Z m -587.09375,0.851562 13.42188,23.250004 -23.25,13.42187 -13.42188,-23.248046 z M 85.248047,80.654297 v 15.865234 l -13.740235,-7.93164 z m 98.693363,0 13.74023,7.933594 -13.74023,7.933593 z m 190.51953,2.009765 7.93359,13.740235 h -15.86719 z m 41.8457,0 7.93359,13.740235 h -15.86718 z m 64.66406,7.816407 h 26.84571 V 117.32812 H 480.9707 Z m 41.84571,0 h 26.8457 v 26.847651 h -26.8457 z m 203.51171,0 h 15.86524 l -7.93359,13.740231 z m 41.84571,0 h 15.86523 l -7.93359,13.740231 z m -57.58203,2.746093 13.42187,23.249998 -23.24805,13.42188 -13.42382,-23.25 z m -244.6211,2.744141 v 15.867187 l -13.74023,-7.93359 z m 98.69141,0 13.74219,7.933597 -13.74219,7.93359 z m -338.99023,0.117188 h 15.86523 l -7.93359,13.740229 z m 41.8457,0 h 15.86523 l -7.93164,13.740229 z m 487.66601,1.892578 7.93164,13.740231 H 747.25 Z m 41.84571,0 7.93359,13.740231 h -15.86523 z m -587.09375,0.853515 13.42383,23.248046 -23.25,13.42383 -13.42383,-23.25 z m -145.927738,2.744136 13.740235,7.9336 -13.740235,7.93164 z m 190.519528,2.00977 7.9336,13.74023 h -15.86719 z m 41.84571,0.002 7.93359,13.73828 h -15.86523 z m 565.32031,2.20899 h 26.8457 v 26.8457 h -26.8457 z m 41.8457,0 h 26.84766 v 26.8457 h -26.84766 z m -56.8457,5.49023 v 15.86524 l -13.74024,-7.9336 z m 98.69336,0 13.74023,7.93164 -13.74023,7.9336 z m -584.34961,0.11524 h 26.84766 V 138.252 h -26.84766 z m 41.84766,0 h 26.8457 V 138.252 h -26.8457 z m 203.50976,0 h 15.86524 l -7.9336,13.74023 z m 41.8457,0 h 15.86524 l -7.93164,13.74023 z m -57.58203,2.74609 13.42383,23.25 -23.25,13.42188 -13.42383,-23.24805 z m -244.62109,2.74414 v 15.86524 l -13.74023,-7.93165 z m 98.69336,0 13.74023,7.93359 -13.74023,7.9336 z m -338.99219,0.11719 h 15.86524 l -7.93164,13.74023 z m 41.8457,0 h 15.86719 l -7.93359,13.74023 z m 487.66602,1.89258 7.93359,13.74023 h -15.86523 z m 41.84766,0 7.93164,13.74023 h -15.86524 z m -587.093754,0.85156 13.423824,23.25 -23.249996,13.42383 -13.423828,-23.25 z m 44.589844,4.75586 7.93359,13.74023 h -15.86523 z m 41.84766,0 7.93359,13.74023 h -15.86719 z m 565.31836,2.20898 h 26.8457 v 26.84766 h -26.8457 z m 41.8457,0 h 26.84765 v 26.84766 h -26.84765 z m -56.8457,5.49024 v 15.86718 l -13.74024,-7.93359 z m 98.69335,0 13.74024,7.93359 -13.74024,7.93359 z m -584.3496,0.11718 h 26.84765 v 26.84571 h -26.84765 z m 41.84765,0 h 26.84571 v 26.84571 h -26.84571 z m 203.50977,0 h 15.86523 l -7.93164,13.74024 z m 41.8457,0 h 15.86524 l -7.93165,13.74024 z m -57.58008,2.7461 13.42188,23.24805 -23.24805,13.42382 -13.42383,-23.25 z m -244.62304,2.74414 v 15.86523 L 212.36328,145.752 Z m 98.69336,0 13.74023,7.93359 -13.74023,7.93164 z m 190.51953,2.00976 7.93359,13.74024 h -15.86523 z m 41.8457,0 7.93555,13.74024 h -15.86719 z m -500.654298,5.60547 7.933594,13.74024 H 48.574219 Z m 565.318358,2.21094 h 26.84766 v 26.8457 h -26.84766 z m 41.84766,0 h 26.8457 v 26.8457 h -26.8457 z m 203.50976,0 h 15.86524 l -7.9336,13.74024 z m 41.84571,0 h 15.86718 l -7.93359,13.74024 z m -57.58203,2.74609 13.42382,23.25 -23.25,13.42188 -13.42187,-23.25 z m -244.6211,2.74415 V 169 l -13.74023,-7.93164 z m 98.69336,0 13.74024,7.93359 L 705.51953,169 Z M 121.17188,153.252 h 26.8457 v 26.84571 h -26.8457 z m 41.8457,0 h 26.8457 v 26.84571 h -26.8457 z m 203.50976,0 h 15.86524 l -7.93164,13.73828 z m 41.84766,0 h 15.86523 l -7.93359,13.73828 z m 487.66406,1.89258 7.9336,13.74024 h -15.86524 z m 41.84766,0.002 7.93164,13.73829 h -15.86524 z m -587.09375,0.84961 13.42187,23.25 -23.25,13.42188 -13.42187,-23.24805 z m -244.62109,2.74414 v 15.86719 l -13.740239,-7.93359 z m 98.6914,0.002 13.74024,7.93164 -13.74024,7.93359 z m 190.52149,2.00781 7.93164,13.74023 h -15.86524 z m 41.8457,0 7.93359,13.74023 h -15.86718 z m 64.66406,7.81836 h 26.8457 v 26.8457 h -26.8457 z m 41.8457,0 h 26.84766 v 26.8457 h -26.84766 z m 203.50977,0 h 15.86523 l -7.93164,13.74023 z m 41.8457,0 h 15.86719 l -7.93359,13.74023 z m -57.58008,2.74414 13.42188,23.25 -23.24805,13.42383 -13.42383,-23.25 z m -244.62109,2.74609 v 15.86524 l -13.74023,-7.9336 z m 98.69336,0 13.74023,7.93164 -13.74023,7.9336 z m -338.99414,0.11524 h 15.86523 l -7.93164,13.74023 z m 41.84766,0 h 15.86523 l -7.93359,13.74023 z m 487.66406,1.89453 7.93359,13.74023 h -15.86523 z m 41.84765,0 7.9336,13.74023 h -15.86719 z m -587.09374,0.85156 13.42187,23.25 -23.25,13.42188 -13.42187,-23.25 z m -145.927739,2.74414 13.740234,7.9336 -13.740234,7.93359 z m 190.519529,2.00977 7.93164,13.74023 h -15.86523 z m 41.84571,0 7.93359,13.74023 h -15.86719 z m 565.31835,2.21094 h 26.84766 v 26.8457 h -26.84766 z m 41.84766,0 h 26.8457 v 26.8457 h -26.8457 z m -56.84766,5.49023 v 15.86523 l -13.73828,-7.93164 z m 98.69336,0 13.74219,7.93359 -13.74219,7.93164 z m -584.34765,0.11523 h 26.8457 v 26.84766 h -26.8457 z m 41.8457,0 h 26.84766 v 26.84766 h -26.84766 z m 203.51172,0 h 15.86328 L 635.25,203.22852 Z m 41.8457,0 h 15.86524 l -7.93164,13.74024 z m -57.58203,2.7461 13.42188,23.24805 -23.24805,13.42382 -13.42383,-23.25 z m -244.62109,2.74414 v 15.86719 l -13.74024,-7.9336 z m 98.69336,0 13.74023,7.93359 -13.74023,7.9336 z m -338.99219,0.11719 h 15.86523 l -7.93359,13.74023 z m 41.8457,0 h 15.86524 l -7.93164,13.74023 z m 487.66602,1.89257 7.93359,13.74024 h -15.86719 z m 41.8457,0 7.93359,13.74024 h -15.86523 z m -587.09375,0.85352 13.42383,23.24805 -23.25,13.42382 -13.423829,-23.25 z m 44.5918,4.75391 7.93359,13.74023 h -15.86719 z m 41.8457,0 7.9336,13.74023 h -15.86524 z m 565.32031,2.21093 h 26.84571 v 26.84571 h -26.84571 z m 41.84571,0 h 26.84765 V 231.6543 H 804.5293 Z m -56.84571,5.49024 v 15.86523 l -13.74023,-7.93359 z m 98.69336,0 13.73828,7.93164 -13.73828,7.93359 z m -584.34961,0.11523 h 26.84571 v 26.84766 h -26.84571 z m 41.84571,0 h 26.84765 v 26.84766 h -26.84765 z m 203.51172,0 H 523.25 l -7.93359,13.74024 z m 41.8457,0 h 15.86523 l -7.93359,13.74024 z m -57.58203,2.7461 13.42187,23.24804 -23.24804,13.42383 -13.42383,-23.24805 z m -244.6211,2.74414 v 15.86718 l -13.74023,-7.93359 z m 98.69336,0 13.74024,7.93359 -13.74024,7.93359 z m -297.146481,0.11718 h 15.867187 l -7.933594,13.74024 z m 487.666011,1.89258 7.93165,13.74024 h -15.86524 z m 41.84766,0 7.93164,13.74024 H 570.1543 Z m -500.656249,5.60742 7.93164,13.74024 H 69.498047 Z M 642.75,225.73047 h 26.84766 v 26.84765 H 642.75 Z m 41.84766,0 h 26.8457 v 26.84765 h -26.8457 z m 203.50781,0 h 15.86719 l -7.9336,13.74219 z m 41.84765,0 h 15.86524 l -7.93164,13.74023 z m -57.58203,2.74609 13.42383,23.25 -23.25,13.42188 -13.42383,-23.25 z M 627.75,231.2207 v 15.86719 l -13.74023,-7.93359 z m 98.69336,0 13.74023,7.9336 -13.74023,7.93359 z m -584.34961,0.11719 h 26.84766 v 26.8457 h -26.84766 z m 41.84766,0 h 26.8457 v 26.8457 h -26.8457 z m 203.50976,0 h 15.86524 l -7.93164,13.74023 z m 41.84571,0 h 15.86523 l -7.93164,13.74023 z m 487.66601,1.89258 7.93359,13.74023 h -15.86523 z m 41.8457,0 7.9336,13.74023 H 950.875 Z m -587.09375,0.85156 13.42383,23.25195 -23.25,13.42188 -13.42187,-23.25 z m -244.62109,2.74609 v 15.86524 l -13.74023,-7.93164 z m 98.69336,0 13.74023,7.9336 -13.74023,7.93164 z m 190.51953,2.00977 7.93359,13.74023 H 408.375 Z m 41.84766,0 7.93164,13.74023 H 450.2207 Z m 64.66211,7.81641 h 26.8457 v 26.84765 h -26.8457 z m 41.8457,0 h 26.84766 v 26.84765 h -26.84766 z m 203.51172,0 h 15.86523 l -7.93359,13.74023 z m 41.8457,0 h 15.86524 l -7.93165,13.74023 z m -57.58203,2.74609 13.42383,23.24805 -23.25,13.42383 -13.42383,-23.24805 z m -244.62109,2.74414 v 15.86524 l -13.74024,-7.93165 z m 98.69336,0 13.74023,7.93359 -13.74023,7.9336 z m -542.501958,0.11719 h 26.845704 v 26.8457 H 64.007812 Z m 203.509768,0 h 15.86523 l -7.93164,13.74023 z m 41.8457,0 h 15.86719 l -7.93359,13.74023 z m 487.66602,1.89258 7.93359,13.74023 h -15.86523 z m 41.84765,0 7.93164,13.74023 h -15.86523 z m -587.09375,0.85156 13.42383,23.25 -23.25,13.42383 -13.42383,-23.25 z m -145.92968,2.74609 13.74023,7.93164 -13.74023,7.9336 z m 190.51953,2.00977 7.93359,13.74023 h -15.86523 z m 41.84765,0 7.9336,13.74023 h -15.86719 z m 565.31836,2.20898 h 26.84766 v 26.84766 h -26.84766 z m -15,5.49024 v 15.86718 l -13.74023,-7.93359 z m -485.65429,0.11718 h 26.8457 v 26.84571 h -26.8457 z m 41.8457,0 h 26.8457 v 26.84571 h -26.8457 z m 203.50976,0 h 15.86524 l -7.93164,13.74024 z m 41.84766,0 h 15.86523 l -7.93359,13.74024 z m -57.58203,2.7461 13.42187,23.24805 -23.25,13.42382 -13.42187,-23.25 z m -244.62109,2.74414 v 15.86523 l -13.74024,-7.93164 z m 98.6914,0 13.74024,7.93359 -13.74024,7.9336 z m -338.99219,0.11523 h 15.86524 l -7.93164,13.74024 z m 41.84766,0 h 15.86524 l -7.9336,13.74024 z m 487.66602,1.89453 7.93164,13.74024 h -15.86524 z m 41.8457,0 7.93164,13.74024 h -15.86523 z m -587.09375,0.85157 13.42187,23.25 -23.25,13.42187 -13.42187,-23.25 z m 44.5918,4.7539 7.93359,13.74024 h -15.86719 z m 41.8457,0 7.93359,13.74024 h -15.86718 z m 565.31836,2.21094 h 26.84765 v 26.8457 h -26.84765 z m 41.84765,0 h 26.84571 v 26.8457 h -26.84571 z m -56.84765,5.49024 V 304.25 l -13.74024,-7.93164 z m 98.69336,0 13.74023,7.93359 -13.74023,7.93164 z m -584.34766,0.11718 h 26.84571 v 26.84571 h -26.84571 z m 41.84571,0 h 26.84765 v 26.84571 h -26.84765 z m 203.51171,0 h 15.86329 l -7.93165,13.73828 z m 41.84571,0 h 15.86523 l -7.93164,13.73828 z m -57.58203,2.74414 13.42187,23.24805 -23.25,13.42383 -13.42187,-23.24805 z m -244.6211,2.7461 v 15.86523 l -13.74219,-7.93359 z m 98.69336,0 13.74024,7.93164 -13.74024,7.93359 z m -297.146483,0.11523 h 15.865234 l -7.93164,13.74024 z M 557.16406,296 l 7.9336,13.74023 h -15.86719 z m 41.84571,0.002 7.93359,13.73828 h -15.86524 z m -542.501958,5.60547 7.933594,13.74024 H 48.574219 Z m 41.845704,0 7.933594,13.74024 H 90.419922 Z m 565.320314,2.21094 h 26.8457 v 26.8457 h -26.8457 z m 41.8457,0 h 26.8457 v 26.8457 h -26.8457 z m 203.51172,0 h 15.86523 l -7.93359,13.74023 z m 41.8457,0 h 15.86524 l -7.9336,13.74023 z m -57.58203,2.74414 13.42188,23.25 -23.24805,13.42383 -13.42383,-23.25 z m -244.62109,2.74414 v 15.86719 l -13.74024,-7.9336 z m 98.6914,0 13.74024,7.93359 -13.74024,7.9336 z m -584.34765,0.11719 h 26.8457 v 26.84765 h -26.8457 z m 41.8457,0 h 26.84766 v 26.84765 h -26.84766 z m 203.51172,0 h 15.86523 l -7.93359,13.74023 z m 41.8457,0 h 15.86524 l -7.93164,13.74023 z m 487.66602,1.89453 7.93164,13.74023 h -15.86524 z m -545.24805,0.85156 13.42383,23.24805 -23.25,13.42383 -13.42383,-23.25 z m -244.62109,2.74414 v 15.86524 l -13.74024,-7.93164 z m 98.69336,0 13.74023,7.9336 -13.74023,7.93359 z m 190.51953,2.00977 7.93359,13.74023 h -15.86718 z m 41.8457,0 7.9336,13.74023 h -15.86524 z m 64.66406,7.8164 h 26.84766 v 26.84766 h -26.84766 z m 41.84766,0 h 26.8457 v 26.84766 h -26.8457 z m 203.50781,0 h 15.86719 l -7.93359,13.74024 z m 41.84766,0 h 15.86523 l -7.93164,13.74024 z m -57.58203,2.7461 13.42187,23.25 -23.24804,13.42383 -13.42383,-23.25196 z m -244.6211,2.74414 v 15.86719 L 515,338.16406 Z m 98.69336,0 13.74024,7.93359 -13.74024,7.9336 z m -542.501949,0.11719 h 26.845699 v 26.8457 H 84.931641 Z m 203.509769,0 h 15.86523 l -7.93359,13.74023 z m 41.8457,0 h 15.86719 l -7.9336,13.74023 z m 487.66601,1.89257 7.9336,13.74024 h -15.86719 z m 41.84571,0 7.93359,13.74024 h -15.86523 z m -587.09375,0.85352 13.42383,23.25 -23.25,13.42187 -13.42188,-23.25 z m -145.92774,2.74414 13.74024,7.93359 -13.74024,7.93164 z m 190.51954,2.00977 7.93359,13.74023 h -15.86524 z m 41.84765,0 7.93164,13.74023 h -15.86523 z m 565.31836,2.21093 h 26.8457 v 26.84571 h -26.8457 z m -15,5.49024 v 15.86523 l -13.74023,-7.93359 z m -485.65625,0.11523 h 26.84766 v 26.84766 h -26.84766 z m 41.84766,0 H 492.5 v 26.84766 h -26.8457 z m 203.50976,0 h 15.86524 l -7.93164,13.74024 z m 41.84571,0 H 726.875 l -7.93164,13.74024 z m -57.58008,2.7461 13.42187,23.24804 -23.25,13.42383 -13.42383,-23.24805 z m -244.62305,2.74414 v 15.86718 l -13.74023,-7.93359 z m 98.69336,0 13.74023,7.93359 -13.74023,7.93359 z m -338.99219,0.11718 h 15.86524 l -7.93164,13.74024 z m 41.84571,0 h 15.86523 l -7.93164,13.74024 z m 487.66601,1.89258 7.93359,13.74024 h -15.86523 z m 41.8457,0 7.9336,13.74024 h -15.86524 z m -587.09375,0.85156 13.42383,23.25 -23.24804,13.42383 -13.42383,-23.25 z m 44.5918,4.75586 7.9336,13.74024 h -15.86524 z m 41.84766,0 7.93359,13.74024 h -15.86719 z m 565.31836,2.20899 h 26.84765 v 26.84765 H 804.5293 Z m 41.84765,0 h 26.84571 v 26.84765 h -26.84571 z m -56.84765,5.49023 v 15.86719 l -13.74024,-7.93359 z m 98.69336,0 13.74023,7.9336 -13.74023,7.93359 z m -584.34961,0.11719 h 26.84765 v 26.8457 h -26.84765 z m 41.84765,0 h 26.84571 v 26.8457 H 345.7207 Z m 203.50977,0 h 15.86523 l -7.93359,13.74023 z m 41.84765,0 h 15.86524 l -7.93359,13.74023 z m -57.58398,2.74609 13.42383,23.25 -23.25,13.42188 -13.42188,-23.25 z m -244.62109,2.74414 v 15.86524 l -13.73828,-7.93164 z m 98.69336,0 13.74023,7.9336 -13.74023,7.93164 z m -338.992191,0.11524 h 15.865234 l -7.931641,13.74023 z m 41.847656,0 h 15.865235 l -7.933594,13.74023 z m 487.666015,1.89453 7.93164,13.74023 H 570.1543 Z m 41.8457,0 7.93164,13.74023 H 612 Z m -542.501949,5.60547 7.93164,13.74023 H 69.498047 Z m 41.845699,0 7.9336,13.74023 h -15.86719 z m 565.32032,2.21094 h 26.8457 V 408.752 h -26.8457 z m 41.8457,0 h 26.8457 V 408.752 h -26.8457 z m 203.50976,0 h 15.86524 l -7.93164,13.74023 z m -15.73437,2.74609 13.42187,23.25 -23.24804,13.42188 -13.42383,-23.25 z m -244.62109,2.74414 v 15.86524 l -13.74024,-7.93165 z m 98.6914,0 13.74024,7.93359 -13.74024,7.9336 z m -584.34765,0.11719 h 26.8457 v 26.8457 h -26.8457 z m 41.8457,0 h 26.84766 v 26.8457 h -26.84766 z m 203.50977,0 h 15.86523 L 437.23047,401.25 Z m 41.84765,0 h 15.86524 l -7.9336,13.74023 z m 487.66406,1.89258 7.9336,13.74023 H 950.875 Z m -545.24609,0.85156 13.42383,23.25 -23.25,13.42383 -13.42383,-23.25 z M 168.94141,393.002 v 15.86524 l -13.74024,-7.9336 z m 98.69336,0 13.73828,7.93164 -13.73828,7.9336 z m 190.51953,2.00977 7.93359,13.74023 H 450.2207 Z m 41.8457,0 7.93359,13.74023 h -15.86523 z m 64.66211,7.8164 h 26.84766 v 26.84571 h -26.84766 z m 41.84766,0 h 26.8457 v 26.84571 h -26.8457 z m 203.50976,0 h 15.86524 l -7.93165,13.74024 z m 41.84766,0 h 15.86523 l -7.93359,13.74024 z m -57.58203,2.7461 13.42187,23.24805 -23.24805,13.42382 -13.42382,-23.25 z m -244.62305,2.74414 v 15.86523 L 535.92188,416.252 Z m 98.69336,0 13.74023,7.93359 -13.74023,7.93164 z M 64.007812,408.43364 H 90.853516 V 435.2813 H 64.007812 Z m 41.845708,0 h 26.84765 v 26.84766 h -26.84765 z m 203.50976,0 h 15.86719 l -7.93359,13.74024 z m 41.84766,0 h 15.86523 l -7.93164,13.74024 z m 487.66601,1.89453 7.93164,13.74024 h -15.86523 z m 41.84571,0 7.93359,13.74024 h -15.86719 z m -587.09375,0.85157 13.42187,23.25 -23.24805,13.42187 -13.42382,-23.25 z m -244.621098,2.74414 v 15.86523 l -13.740234,-7.93164 z m 98.693358,0 13.74024,7.93359 -13.74024,7.9336 z m 190.51953,2.00976 7.9336,13.74024 h -15.86719 z m 41.84571,0 L 388,429.67383 h -15.86719 z m 550.32031,7.70118 V 439.5 l -13.74024,-7.93164 z M 444.73047,423.752 h 26.8457 v 26.84571 h -26.8457 z m 41.8457,0 h 26.84766 v 26.84571 h -26.84766 z m 203.51172,0 h 15.86523 l -7.93359,13.73828 z m 41.8457,0 h 15.86524 l -7.9336,13.73828 z m -57.58203,2.74414 13.42188,23.24805 -23.24805,13.42383 -13.42383,-23.24805 z m -244.62109,2.7461 v 15.86523 l -13.74024,-7.93359 z m 98.69336,0 13.73828,7.93164 -13.73828,7.93359 z m -338.99219,0.11523 h 15.86524 l -7.9336,13.74024 z m 41.8457,0 h 15.86719 l -7.93359,13.74024 z m 487.66602,1.89258 7.93164,13.74023 h -15.86523 z m 41.8457,0 7.9336,13.74023 h -15.86719 z m -587.09375,0.85352 13.42383,23.25 -23.25,13.42382 -13.42383,-23.25195 z m 44.5918,4.7539 7.93359,13.74024 h -15.86523 z m 41.84766,0 7.93164,13.74024 h -15.86524 z m 565.31835,2.21094 h 26.84571 v 26.8457 h -26.84571 z m 41.84571,0 h 26.84765 v 26.8457 h -26.84765 z m 41.84765,5.48828 13.74024,7.93359 -13.74024,7.9336 z m -98.69336,0.002 v 15.86524 l -13.74023,-7.9336 z m -485.65624,0.11524 h 26.84765 v 26.84765 h -26.84765 z m 41.84765,0 h 26.8457 v 26.84765 h -26.8457 z m 203.50781,0 h 15.86719 l -7.93164,13.74023 z m 41.84766,0 h 15.86523 l -7.93164,13.73828 z m -57.58203,2.74609 13.42383,23.24805 -23.25,13.42383 -13.42383,-23.24805 z m -244.62109,2.74414 v 15.86719 l -13.74024,-7.93359 z m 98.69335,0.002 13.74024,7.93164 -13.74024,7.93359 z m -338.992183,0.11523 h 15.865234 l -7.93164,13.74023 z m 41.845703,0 h 15.86719 l -7.9336,13.74023 z m 487.66602,1.89258 7.93359,13.74023 h -15.86719 z m 41.8457,0 7.93359,13.74023 h -15.86718 z m -587.093751,0.85351 13.423828,23.24805 -23.25,13.42383 -13.423828,-23.25 z m 44.591797,4.75391 7.933594,13.74023 H 90.421875 Z m 41.847654,0 7.93164,13.74023 h -15.86523 z m 565.31836,2.20898 h 26.8457 v 26.84766 h -26.8457 z m 41.8457,0 h 26.84766 v 26.84766 h -26.84766 z m 203.51172,0 h 15.86524 l -7.9336,13.74024 z m -15.73633,2.7461 13.42383,23.25 -23.25,13.42187 -13.42383,-23.24804 z m -244.62109,2.74414 v 15.86719 l -13.74023,-7.9336 z m 98.69336,0.002 13.74023,7.93164 -13.74023,7.9336 z m -584.34961,0.11524 h 26.84766 v 26.8457 h -26.84766 z m 41.84766,0 h 26.8457 v 26.8457 h -26.8457 z m 203.50976,0 h 15.86524 l -7.93164,13.74023 z m 41.84571,0 h 15.86718 L 500,479.33789 Z m -57.58008,2.74609 13.42187,23.25 -23.25,13.42383 -13.42382,-23.25196 z m -244.62305,2.74414 v 15.86523 l -13.74023,-7.93164 z m 98.69336,0 13.74024,7.93359 -13.74024,7.93164 z m 190.51953,2.00977 7.9336,13.74023 h -15.86524 z m 41.84766,0.002 7.93164,13.73828 h -15.86524 z m 64.66406,7.81445 h 26.8457 v 26.84766 h -26.8457 z m 41.8457,0 h 26.84571 v 26.84766 h -26.84571 z m 203.50977,0 h 15.86523 l -7.93164,13.73828 z m 41.8457,0 h 15.86719 l -7.93359,13.74024 z m -57.58008,2.7461 13.42188,23.24804 -23.25,13.42383 -13.42188,-23.25 z m -244.62109,2.74414 v 15.86718 l -13.74219,-7.93359 z m 98.69141,0 13.74023,7.93359 -13.74023,7.93359 z m -584.347659,0.11718 h 26.845699 v 26.84571 H 84.931641 Z m 41.845699,0 h 26.84571 v 26.84571 h -26.84571 z m 203.50977,0 h 15.86523 l -7.93164,13.74024 z m 41.84766,0 H 388 l -7.93359,13.74024 z m 487.66406,1.89258 7.93359,13.74024 h -15.86523 z m 41.84765,0 7.93164,13.74024 h -15.86523 z m -587.0957,0.85156 13.42383,23.25 -23.24805,13.42383 -13.42383,-23.25 z m -244.619139,2.7461 v 15.86523 L 56.191406,499.9436 Z m 98.691409,0 13.74023,7.93164 -13.74023,7.93359 z m 190.52148,2.00976 7.93164,13.74024 h -15.86523 z m 41.8457,0 7.93165,13.74024 h -15.86524 z m 550.31836,7.69922 v 15.86719 L 937.56641,509.6543 Z M 465.6543,501.83789 H 492.5 v 26.8457 h -26.8457 z m 41.8457,0 h 26.8457 v 26.8457 H 507.5 Z m 203.50977,0 h 15.86718 l -7.93359,13.74023 z m 41.8457,0 h 15.86719 l -7.9336,13.74219 z m -57.58008,2.74609 13.42188,23.25 -23.25,13.42188 -13.42188,-23.25 z m -244.62109,2.74414 v 15.86719 l -13.74024,-7.93359 z m 98.6914,0 13.74024,7.9336 -13.74024,7.93164 z m -338.99218,0.11524 h 15.86523 l -7.93164,13.74023 z m 41.84765,0 h 15.86524 l -7.93164,13.74023 z m 487.66406,1.89453 7.9336,13.74023 h -15.86524 z m 41.84766,0 7.93359,13.74023 h -15.86523 z m -587.09375,0.85156 13.42188,23.25 -23.25,13.42188 -13.42188,-23.24805 z m -145.927734,2.74414 13.740235,7.9336 -13.740235,7.93359 z m 190.519534,2.00977 7.93359,13.74023 h -15.86719 z m 41.8457,0 7.93359,13.74023 H 273.125 Z m 565.32031,2.21094 h 26.84571 v 26.84765 h -26.84571 z m 41.84571,0 h 26.8457 v 26.84765 h -26.8457 z m -56.84571,5.49023 v 15.86524 l -13.74023,-7.93165 z m 98.69141,0 13.74023,7.93359 -13.74023,7.9336 z m -584.34766,0.11719 h 26.84571 v 26.8457 H 345.7207 Z m 41.84571,0 h 26.8457 v 26.8457 h -26.8457 z m 203.51171,0 h 15.86524 l -7.93359,13.74023 z m 41.84376,0 h 15.86718 l -7.93359,13.74023 z m -57.58008,2.74414 13.42382,23.25 -23.25195,13.42187 -13.42187,-23.24804 z m -145.92969,2.74414 13.74219,7.93359 -13.74219,7.9336 z m -98.69141,0.002 v 15.86524 l -13.74023,-7.9336 z m -240.298825,0.11524 h 15.865235 l -7.933594,13.74023 z m 41.845705,0 h 15.86523 l -7.93164,13.74023 z m 487.66601,1.89453 7.93164,13.74023 H 612 Z m 41.84571,0 7.93359,13.74023 h -15.86523 z m -587.093753,0.85156 13.423828,23.24805 -23.251953,13.42383 -13.421875,-23.25 z m 44.591793,4.75391 7.93164,13.74023 h -15.86523 z m 41.84571,0.002 7.93359,13.73828 h -15.86523 z m 565.32031,2.20898 h 26.8457 v 26.84571 h -26.8457 z m 41.8457,0 h 26.84766 v 26.84571 h -26.84766 z m 187.77539,2.74415 13.42383,23.25 -23.25195,13.42382 -13.42188,-23.25 z m -244.62109,2.74609 v 15.86523 l -13.74024,-7.93164 z m 98.69336,0 13.74023,7.93359 -13.74023,7.93164 z m -584.34961,0.11523 h 26.84766 v 26.84766 h -26.84766 z m 41.84766,0 h 26.8457 v 26.84766 h -26.8457 z m 203.50976,0 h 15.86524 l -7.9336,13.73829 z m 41.8457,0 h 15.86524 l -7.93164,13.74024 z m -57.58203,2.7461 13.42383,23.24804 -23.25,13.42383 -13.42383,-23.24804 z m -244.62109,2.74414 v 15.86523 l -13.74023,-7.93164 z m 98.69336,0 13.74023,7.93359 -13.74023,7.9336 z M 500,551.18359 l 7.93359,13.74024 h -15.86718 z m 41.8457,0 7.9336,13.74024 h -15.86524 z m -500.654294,5.60743 7.931641,13.74023 H 33.257812 Z m 565.318364,2.21093 h 26.8457 v 26.84571 h -26.8457 z m 41.8457,0 h 26.84765 v 26.84571 h -26.84765 z m 203.51172,0 h 15.86523 l -7.93359,13.73828 z m 41.84765,0 h 15.86328 l -7.93164,13.73828 z m -57.58398,2.74414 13.42383,23.25 -23.25,13.42188 -13.42188,-23.24805 z m -244.62109,2.7461 v 15.86523 l -13.74024,-7.93359 z m 98.69335,0 13.74024,7.93164 -13.74024,7.93359 z m -584.3496,0.11523 h 26.84765 v 26.8457 h -26.84765 z m 41.84765,0 h 26.84571 v 26.8457 h -26.84571 z m 203.50977,0 h 15.86718 l -7.93359,13.74024 z m 41.8457,0 h 15.86524 l -7.93165,13.74024 z m 487.66602,1.89258 7.93359,13.74023 h -15.86719 z m 41.8457,0.002 7.93359,13.73828 h -15.86523 z m -587.09375,0.85157 13.42383,23.25 -23.25,13.42187 -13.42383,-23.24805 z m -244.621094,2.74414 v 15.86718 L 77.113281,578.0313 Z m 98.693364,0 13.74023,7.93359 -13.74023,7.93164 z M 380.06641,572.10742 388,585.84766 h -15.86523 z m 41.8457,0 7.93359,13.74024 h -15.86523 z m 64.66406,7.81641 h 26.84766 v 26.84765 h -26.84766 z m 41.84766,0 h 26.8457 v 26.84765 h -26.8457 z m 203.50976,0 h 15.86524 l -7.9336,13.74023 z m 41.84571,0 h 15.86718 l -7.93359,13.74023 z m -57.58203,2.74609 13.42382,23.25 -23.25,13.42188 -13.42187,-23.25 z m -244.6211,2.74414 v 15.86719 l -13.73828,-7.93359 z m 98.69336,0.002 13.74024,7.93164 -13.74024,7.93359 z m -338.99219,0.11523 h 15.86719 l -7.93359,13.74023 z m 41.84766,0 h 15.86523 l -7.93359,13.74023 z m 487.66406,1.89258 7.9336,13.74023 h -15.86719 z m 41.84766,0 7.93164,13.74023 h -15.86524 z m -587.0957,0.85351 13.42382,23.24805 -23.25,13.42383 -13.42382,-23.25 z m -145.927739,2.74414 13.740235,7.93164 -13.740235,7.9336 z m 190.521489,2.00977 7.93164,13.74023 h -15.86524 z m 41.8457,0 7.93164,13.74023 h -15.86523 z m 565.31836,2.20898 h 26.84765 v 26.84766 h -26.84765 z m 41.84765,0 h 26.84571 v 26.84766 h -26.84571 z m -56.84765,5.49024 v 15.86719 l -13.74024,-7.9336 z m 98.69336,0.002 13.73828,7.93164 -13.73828,7.9336 z m -584.34766,0.11524 h 26.8457 v 26.8457 h -26.8457 z m 41.8457,0 h 26.84766 v 26.8457 h -26.84766 z m 203.50977,0 h 15.86719 l -7.9336,13.74023 z m 41.8457,0 h 15.86719 l -7.93359,13.74023 z m -57.58008,2.74609 13.42188,23.25 -23.25,13.42187 -13.42188,-23.25 z m -244.62109,2.74414 v 15.86719 l -13.74219,-7.9336 z m 98.69336,0 13.73828,7.93359 -13.73828,7.93164 z m -338.99414,0.11523 h 15.86523 l -7.93164,13.74024 z m 41.8457,0 h 15.86719 l -7.93359,13.74024 z m 487.66602,1.89454 7.93359,13.74023 h -15.86523 z m 41.84765,0 7.9336,13.74023 h -15.86719 z m -587.093745,0.85156 13.421875,23.25 -23.25,13.42187 -13.421875,-23.25 z m 44.591795,4.7539 7.93164,13.74024 h -15.86523 z m 41.84571,0 7.93359,13.74024 h -15.86524 z m 565.31835,2.21094 h 26.84766 v 26.84766 h -26.84766 z m 41.84766,0 h 26.8457 v 26.84766 h -26.8457 z m -56.84766,5.49024 v 15.86718 L 718.625,629.58789 Z m 98.69336,0 13.74024,7.93359 -13.74024,7.93359 z m -584.34765,0.11718 h 26.8457 v 26.84571 h -26.8457 z m 41.8457,0 h 26.8457 v 26.84571 h -26.8457 z m 203.50977,0 h 15.86523 L 500,635.51172 Z m 41.84765,0 h 15.86524 l -7.9336,13.74024 z m -57.58398,2.74414 13.42383,23.25 -23.24805,13.42188 -13.42383,-23.25 z m -244.61914,2.74415 v 15.86718 l -13.74024,-7.93359 z m 98.6914,0.002 13.74024,7.93164 -13.74024,7.93359 z m -297.144528,0.11523 h 15.865235 l -7.931641,13.74024 z m 487.666018,1.89453 7.93164,13.74024 h -15.86524 z m 41.8457,0 7.93359,13.74024 h -15.86523 z m -500.656249,5.60547 7.933594,13.74024 H 54.181641 Z m 565.320309,2.21094 h 26.84571 v 26.8457 h -26.84571 z m 41.84571,0 h 26.84765 v 26.8457 H 669.2793 Z m 203.50976,0 h 15.86719 l -7.93359,13.74023 z m 41.84571,0 h 15.86718 l -7.93359,13.74023 z m -57.58008,2.74609 13.42187,23.25 -23.25,13.42188 -13.42187,-23.25 z m -244.6211,2.74414 v 15.86524 l -13.74023,-7.93164 z m 98.69336,0 13.73828,7.9336 -13.73828,7.93164 z m -584.34961,0.11524 h 26.84571 v 26.84766 h -26.84571 z m 41.84571,0 h 26.84765 v 26.84766 h -26.84765 z m 203.51172,0 H 388 l -7.93359,13.74023 z m 41.8457,0 h 15.86523 l -7.93359,13.74023 z m 487.66601,1.89453 7.93164,13.74023 h -15.86523 z m 41.84571,0 7.93359,13.74023 h -15.86719 z m -587.09375,0.85156 13.42383,23.25 -23.25,13.42383 -13.42383,-23.25 z m -244.6211,2.74414 v 15.86719 l -13.740231,-7.93359 z m 98.69336,0 13.74024,7.9336 -13.74024,7.93359 z m 190.51953,2.00977 7.93165,13.74023 h -15.86524 z m 41.84766,0 7.93164,13.74023 H 434.9043 Z M 507.5,658.01172 h 26.8457 v 26.8457 H 507.5 Z m 41.8457,0 h 26.84766 v 26.8457 H 549.3457 Z m 203.50977,0 h 15.86719 l -7.9336,13.74023 z m 41.84765,0 h 15.86524 l -7.93164,13.74023 z m -57.58203,2.74414 13.42188,23.25 -23.24805,13.42187 -13.42383,-23.25 z M 492.5,663.50195 v 15.86524 l -13.74023,-7.9336 z m 98.69336,0 13.74023,7.93164 -13.74023,7.9336 z m -542.501954,0.11524 h 26.845703 v 26.84765 H 48.691406 Z m 203.509764,0 h 15.86524 l -7.93164,13.74023 z m 41.84571,0 h 15.86523 l -7.93164,13.74023 z m 487.66601,1.89453 7.93359,13.74023 h -15.86523 z m 41.8457,0 7.9336,13.74023 h -15.86524 z m -587.09375,0.84961 13.42383,23.25195 -23.25,13.42188 -13.42187,-23.25 z m -145.927731,2.74609 13.740231,7.9336 -13.740231,7.93359 z m 190.519531,2.00977 7.93359,13.74023 H 273.125 Z m 41.8457,0 7.9336,13.74023 H 314.9707 Z m 565.32032,2.21093 h 26.8457 v 26.84571 h -26.8457 z m -15,5.49024 v 15.86523 l -13.74024,-7.93164 z m -485.65625,0.11523 h 26.8457 v 26.84766 h -26.8457 z m 41.8457,0 h 26.84766 v 26.84766 h -26.84766 z m 203.51172,0 h 15.86523 l -7.93359,13.74024 z m 41.8457,0 h 15.86524 l -7.93165,13.74024 z m -57.58203,2.7461 13.42383,23.25 -23.25,13.42187 -13.42383,-23.24804 z m -244.62109,2.74414 v 15.86719 l -13.74024,-7.9336 z m 98.69336,0 13.74023,7.93359 -13.74023,7.9336 z m -338.99219,0.11719 h 15.86523 l -7.93164,13.74023 z m 41.8457,0 h 15.86719 l -7.93359,13.74023 z m 487.66602,1.89257 7.93359,13.74024 H 653.8457 Z m 41.84765,0 7.93164,13.74024 h -15.86523 z m -587.09375,0.85352 13.42188,23.24805 -23.25,13.42382 -13.421877,-23.25 z m 44.58985,4.75391 7.93359,13.74023 h -15.86523 z m 41.84765,0 7.9336,13.74023 h -15.86719 z m 565.31836,2.21093 h 26.84766 v 26.84571 h -26.84766 z m 41.84766,0 h 26.8457 v 26.84571 h -26.8457 z m -56.84766,5.49024 v 15.86523 l -13.74023,-7.93164 z m 98.69336,0 13.74024,7.93164 -13.74024,7.93359 z m -584.34765,0.11523 h 26.8457 v 26.8457 h -26.8457 z m 41.8457,0 h 26.8457 v 26.8457 h -26.8457 z m 203.50976,0 h 15.86524 l -7.93164,13.74024 z m 41.84571,0 h 15.86718 l -7.93359,13.74024 z m -57.58203,2.74414 13.42382,23.25196 -23.25,13.42187 -13.42187,-23.25 z m -244.61914,2.7461 v 15.86718 l -13.74024,-7.93359 z m 98.6914,0 13.74024,7.93359 -13.74024,7.93359 z m -297.144529,0.11718 h 15.865234 l -7.933594,13.73828 z m 487.664059,1.89258 7.9336,13.74024 h -15.86524 z m 41.84766,0 7.93164,13.74024 h -15.86523 z m -500.656251,5.60547 7.931641,13.74023 H 75.103516 Z m -41.845703,0.002 7.931641,13.73828 H 33.257812 Z m 607.164064,2.20899 h 26.84765 v 26.84765 h -26.84765 z m 41.84765,0 h 26.84571 v 26.84765 h -26.84571 z m 203.50977,0 h 15.86523 l -7.93164,13.74023 z m 41.8457,0 h 15.86719 l -7.93359,13.74023 z m -57.58007,2.74609 13.42187,23.25 -23.25,13.42188 -13.42187,-23.25 z m -244.62305,2.74414 v 15.86719 l -13.74024,-7.93359 z m 98.69336,0.002 13.74023,7.93164 -13.74023,7.93359 z m -584.34766,0.11523 h 26.84571 v 26.8457 h -26.84571 z m 41.84571,0 h 26.84765 v 26.8457 h -26.84765 z m 203.50976,0 h 15.86524 l -7.93165,13.74023 z m 41.8457,0 h 15.86719 l -7.93164,13.74023 z m 487.66602,1.89258 7.93359,13.74023 h -15.86523 z m -545.24805,0.85156 13.42383,23.25 -23.25,13.42383 -13.42383,-23.25 z m -244.61914,2.74609 v 15.86524 l -13.74023,-7.9336 z m 98.69336,0 13.74024,7.93164 -13.74024,7.9336 z m 190.51758,2.00977 7.93555,13.74023 h -15.86719 z m 41.84766,0 7.93359,13.74023 h -15.86524 z m 64.66406,7.81641 h 26.8457 v 26.8457 h -26.8457 z m 41.8457,0 h 26.8457 v 26.8457 h -26.8457 z m 203.50977,0 h 15.86718 l -7.93359,13.74023 z m 41.84765,0 h 15.86524 l -7.9336,13.74023 z m -57.58203,2.74609 13.42188,23.25 -23.25,13.42187 -13.42188,-23.25 z m -244.62109,2.74414 v 15.86719 l -13.74024,-7.9336 z m 98.6914,0 13.74024,7.93359 -13.74024,7.93164 z m -542.501949,0.11523 h 26.847657 v 26.84766 H 69.613281 Z m 203.509769,0 h 15.86718 l -7.93359,13.74024 z m 41.8457,0 h 15.86719 l -7.9336,13.74024 z m 487.66797,1.89454 7.93164,13.74023 h -15.86524 z m 41.8457,0 7.9336,13.74023 h -15.86524 z m -587.09375,0.85156 13.42383,23.24805 -23.25,13.42382 -13.42383,-23.24804 z m -145.92773,2.74609 13.73828,7.93164 -13.73828,7.9336 z m 190.51953,2.00781 7.93164,13.74024 h -15.86523 z m 41.8457,0.002 7.9336,13.73828 h -15.86524 z m 565.32031,2.20898 h 26.84571 v 26.84766 h -26.84571 z m -15,5.49024 v 15.86718 l -13.74023,-7.93359 z m -485.65625,0.11718 h 26.84766 v 26.84571 h -26.84766 z m 41.84766,0 h 26.8457 v 26.84571 h -26.8457 z m 203.50781,0 h 15.86719 l -7.93359,13.74024 z m 41.84766,0 h 15.86523 l -7.93164,13.74024 z m -57.58398,2.74414 13.42382,23.25196 -23.24804,13.42187 -13.42383,-23.25 z m -244.61915,2.7461 v 15.86523 L 379.75,770.44336 Z m 98.69336,0 13.74024,7.93164 -13.74024,7.93359 z m -338.99218,0.11523 h 15.86523 l -7.93359,13.74024 z m 41.8457,0 h 15.86523 l -7.93164,13.74024 z m 487.66601,1.89453 7.9336,13.74024 h -15.86719 z m 41.84571,0 7.93359,13.74024 h -15.86523 z m -587.09375,0.85157 13.42383,23.25 -23.25,13.42187 -13.42383,-23.25 z m 44.5918,4.7539 7.93359,13.74024 h -15.86524 z m 41.84765,0 7.93164,13.74024 h -15.86523 z m 565.31836,2.21094 h 26.8457 v 26.8457 h -26.8457 z m 41.8457,0 h 26.84766 v 26.8457 h -26.84766 z m -56.8457,5.49023 v 15.86524 l -13.74023,-7.93164 z m 98.69336,0 13.74023,7.9336 -13.74023,7.93164 z m -584.34961,0.11524 h 26.8457 v 26.84766 h -26.8457 z m 41.8457,0 H 357.25 v 26.84766 h -26.84766 z m 203.51172,0 h 15.86524 l -7.9336,13.74023 z m 41.84571,0 H 591.625 l -7.93164,13.74023 z m -57.58204,2.74609 13.42383,23.24805 -23.25,13.42383 -13.42187,-23.24805 z m -244.62109,2.74414 v 15.86719 l -13.74023,-7.93359 z m 98.69336,0 13.74023,7.9336 -13.74023,7.93359 z m -338.992188,0.11719 h 15.865235 l -7.931641,13.74024 z m 41.845704,0 h 15.867187 l -7.933594,13.74024 z m 487.666014,1.89258 7.93359,13.74023 h -15.86523 z m 41.8457,0 7.9336,13.74023 h -15.86524 z m -542.501949,5.60742 7.933594,13.74024 H 54.181641 Z m 41.847659,0 7.93359,13.74024 H 96.027344 Z m 565.31836,2.21094 h 26.84765 v 26.8457 H 669.2793 Z m 41.84765,0 h 26.84571 v 26.8457 h -26.84571 z m 203.50977,0 h 15.86523 l -7.93359,13.74023 z m -15.73633,2.74609 13.42383,23.24805 -23.25,13.42187 -13.42188,-23.24804 z m -244.62109,2.74414 v 15.86524 l -13.74024,-7.9336 z m 98.69336,0 13.74023,7.93164 -13.74023,7.9336 z m -584.34961,0.11524 h 26.84765 v 26.84765 h -26.84765 z m 41.84765,0 h 26.84571 v 26.84765 H 210.4707 Z m 203.50977,0 h 15.86523 l -7.93359,13.74023 z m 41.84765,0 h 15.86524 l -7.93359,13.74023 z m 487.66407,1.89453 7.93359,13.74023 h -15.86719 z m -545.24805,0.84961 13.42383,23.25195 -23.25,13.42188 -13.42188,-23.25 z m -244.62109,2.74609 v 15.86524 l -13.73828,-7.93164 z m 98.69336,0 13.74023,7.9336 -13.74023,7.93359 z m 190.52148,2.00977 7.93164,13.74023 H 434.9043 Z m 41.8457,0 7.93164,13.74023 H 476.75 Z m 64.66211,7.8164 h 26.84766 v 26.84766 H 549.3457 Z m 41.84766,0 h 26.8457 v 26.84766 h -26.8457 z m 203.50976,0 h 15.86719 l -7.93359,13.74024 z m 41.84571,0 h 15.86719 l -7.9336,13.74024 z m -57.58008,2.7461 13.42187,23.25 -23.24804,13.42383 -13.42383,-23.25196 z m -244.62305,2.74414 v 15.86719 l -13.74023,-7.9336 z m 98.69336,0.002 13.74024,7.93164 -13.74024,7.9336 z M 48.691406,819.7912 h 26.845703 v 26.8457 H 48.691406 Z m 41.845703,0 h 26.847661 v 26.8457 H 90.537109 Z m 203.509771,0 h 15.86523 l -7.93164,13.74023 z m 41.8457,0 h 15.86719 l -7.9336,13.74023 z m 487.66601,1.89257 7.9336,13.74024 h -15.86524 z m 41.84766,0 7.93164,13.74024 h -15.86523 z m -587.09375,0.85352 13.42188,23.24805 -23.25,13.42382 -13.42188,-23.25 z m -244.621094,2.74414 v 15.86523 l -13.742187,-7.93164 z m 98.693364,0 13.74023,7.93359 -13.74023,7.93164 z m 190.51757,2.00977 7.9336,13.74023 H 314.9707 Z m 41.84766,0.002 7.93164,13.73828 h -15.86328 z m 550.31836,7.69922 v 15.86523 l -13.74024,-7.93359 z m -485.65625,0.11523 h 26.84766 v 26.8457 h -26.84766 z m 41.84766,0 h 26.8457 v 26.8457 h -26.8457 z m 203.50976,0 h 15.86524 l -7.93165,13.74024 z m 41.84766,0 h 15.86523 l -7.93359,13.74024 z m -57.58203,2.7461 13.42187,23.25 -23.25,13.42187 -13.42187,-23.25 z m -244.62305,2.74414 v 15.86523 l -13.74023,-7.93164 z m 98.69336,0 13.74023,7.93359 -13.74023,7.93164 z m -338.99219,0.11718 h 15.86719 l -7.93359,13.74024 z m 41.84766,0 h 15.86523 l -7.93164,13.73828 z m 487.66601,1.89258 7.93164,13.74024 h -15.86523 z m 41.84571,0 7.93359,13.74024 h -15.86523 z m -587.09375,0.85156 13.42187,23.25 -23.25,13.42188 -13.42187,-23.24805 z m 44.59179,4.75391 7.9336,13.74023 h -15.86719 z m 41.84571,0.002 7.93359,13.73828 h -15.86523 z m 565.32031,2.20899 h 26.8457 v 26.84765 h -26.8457 z m 41.8457,0 h 26.8457 v 26.84765 h -26.8457 z m -56.8457,5.49023 v 15.86719 l -13.74024,-7.93359 z m 98.6914,0 13.74024,7.9336 -13.74024,7.93359 z m -584.34765,0.11719 h 26.8457 v 26.8457 h -26.8457 z m 41.8457,0 h 26.84766 v 26.8457 h -26.84766 z m 203.50977,0 h 15.86718 l -7.93359,13.74023 z m 41.84765,0 h 15.86524 l -7.9336,13.74023 z m -57.58398,2.74414 13.42383,23.25 -23.25,13.42383 -13.42188,-23.25 z m -244.61914,2.74609 V 877.387 l -13.74024,-7.9336 z m 98.69336,0 13.73828,7.9336 -13.73828,7.93164 z M 54.181641,861.637 h 15.865234 l -7.933594,13.74023 z m 41.845703,0 h 15.867186 l -7.93359,13.74219 z m 487.666016,1.89453 7.93164,13.74023 h -15.86523 z m 41.8457,0 7.9336,13.74023 H 617.60742 Z M 83.037109,869.137 90.96875,882.87723 H 75.103516 Z m 41.847661,0 7.93164,13.74023 h -15.86524 z m 565.31835,2.21094 h 26.84571 v 26.8457 h -26.84571 z m 41.84571,0 h 26.84765 v 26.8457 h -26.84765 z m 203.50976,0 h 15.86719 l -7.93359,13.74023 z m -15.73437,2.74609 13.42187,23.25 -23.25,13.42187 -13.42187,-23.25 z m -244.6211,2.74414 v 15.86523 l -13.74023,-7.93164 z m 98.69336,0 13.74024,7.93359 -13.74024,7.93164 z m -584.3496,0.11523 h 26.84765 v 26.84766 h -26.84765 z m 41.84765,0 h 26.8457 v 26.84766 h -26.8457 z m 203.50781,0 h 15.86719 l -7.93359,13.74024 z m 41.84766,0 h 15.86523 l -7.93164,13.74024 z m -57.58203,2.74415 13.42383,23.25 -23.25,13.42382 -13.42383,-23.25 z m -244.62109,2.74609 v 15.86719 l -13.74024,-7.9336 z m 98.69335,0.002 13.74024,7.93164 -13.74024,7.9336 z m 190.51954,2.00781 7.93359,13.74024 h -15.86524 z m 41.8457,0 7.93359,13.74024 h -15.86523 z m 64.66406,7.81836 h 26.8457 v 26.84571 h -26.8457 z m 41.8457,0 h 26.84766 v 26.84571 h -26.84766 z m 203.51172,0 h 15.86524 l -7.9336,13.74024 z m 41.84571,0 h 15.86523 l -7.93164,13.74024 z m -57.58204,2.7461 13.42188,23.24804 -23.24805,13.42383 -13.42187,-23.25 z m -244.62109,2.74414 v 15.86523 l -13.74023,-7.93359 z m 98.69336,0 13.74023,7.93164 -13.74023,7.93359 z m -584.349609,0.11523 h 26.847657 v 26.84766 H 69.613281 Z m 41.847659,0 h 26.8457 v 26.84766 h -26.8457 z m 203.50976,0 h 15.86524 l -7.9336,13.74024 z m 41.84571,0 h 15.86718 L 364.75,911.61719 Z m 487.66601,1.89453 7.9336,13.74024 h -15.86719 z m 41.8457,0 7.9336,13.74024 h -15.86524 z m -587.09374,0.85157 13.42187,23.24804 -23.24805,13.42383 -13.42187,-23.24804 z m -244.621099,2.74414 v 15.86719 l -13.740234,-7.93165 z m 98.693359,0 13.74024,7.93359 -13.74024,7.9336 z m 190.51953,2.00976 7.9336,13.74024 h -15.86524 z m 41.84766,0 7.93164,13.74024 h -15.86524 z m 550.31836,7.70117 v 15.86719 l -13.74024,-7.93359 z m -485.6543,0.11524 h 26.8457 v 26.84766 h -26.8457 z m 41.8457,0 h 26.84571 v 26.84766 h -26.84571 z m 203.50977,0 h 15.86523 l -7.93164,13.73828 z m 41.8457,0 h 15.86719 l -7.93359,13.74023 z m -57.58203,2.74609 13.42383,23.25 -23.25,13.42383 -13.42188,-23.25 z m -244.61914,2.74414 v 15.86719 l -13.74219,-7.93359 z m 98.69141,0 13.74023,7.9336 -13.74023,7.93359 z m -338.99219,0.11719 h 15.86719 l -7.9336,13.74024 z m 41.84766,0 H 252.75 l -7.93359,13.74024 z m 487.66406,1.89258 7.93359,13.74023 h -15.86523 z m 41.84765,0 7.93164,13.74023 h -15.86523 z m -587.09375,0.85352 13.42188,23.25 -23.25,13.42187 -13.42383,-23.25 z m 44.5918,4.7539 7.93164,13.74024 h -15.86523 z m 41.8457,0 7.9336,13.74024 h -15.86719 z m 550.31836,7.70117 v 15.86524 l -13.74023,-7.9336 z m 98.69336,0 13.74024,7.93164 -13.74024,7.9336 z m -338.99218,0.11524 H 591.625 l -7.93164,13.74023 z m 41.8457,0 h 15.86719 l -7.9336,13.74023 z m -302.20313,5.49023 v 15.86719 l -13.74023,-7.93359 z m 98.69336,0 13.74024,7.9336 -13.74024,7.93359 z m -338.992184,0.11719 h 15.867187 l -7.933594,13.74023 z m 41.847654,0 h 15.86524 l -7.9336,13.74023 z m 338.87695,15.31641 h 15.86524 l -7.93359,13.74023 z m 41.84571,0 h 15.86523 l -7.93359,13.74023 z"
     id="path835" />
</svg>
