<?xml version="1.0" encoding="UTF-8" standalone="no"?>
<svg
   xmlns:dc="http://purl.org/dc/elements/1.1/"
   xmlns:cc="http://creativecommons.org/ns#"
   xmlns:rdf="http://www.w3.org/1999/02/22-rdf-syntax-ns#"
   xmlns:svg="http://www.w3.org/2000/svg"
   xmlns="http://www.w3.org/2000/svg"
   xmlns:sodipodi="http://sodipodi.sourceforge.net/DTD/sodipodi-0.dtd"
   xmlns:inkscape="http://www.inkscape.org/namespaces/inkscape"
   inkscape:version="1.0.1 (3bc2e813f5, 2020-09-07)"
   sodipodi:docname="3-uniform_57.svg"
   id="c:\kuniform\3u\3-uniform_57.svg"
   height="1000.00006"
   width="989.9067"
   version="1.0">
  <metadata
     id="metadata2213">
    <rdf:RDF>
      <cc:Work
         rdf:about="">
        <dc:format>image/svg+xml</dc:format>
        <dc:type
           rdf:resource="http://purl.org/dc/dcmitype/StillImage" />
        <dc:title />
      </cc:Work>
    </rdf:RDF>
  </metadata>
  <defs
     id="defs2211" />
  <sodipodi:namedview
     showguides="true"
     inkscape:document-rotation="0"
     inkscape:current-layer="c:\kuniform\3u\3-uniform_57.svg"
     inkscape:window-maximized="1"
     inkscape:window-y="-9"
     inkscape:window-x="-9"
     inkscape:cy="513.17818"
     inkscape:cx="350.98277"
     inkscape:zoom="0.66750876"
     showgrid="false"
     id="namedview2209"
     inkscape:window-height="1001"
     inkscape:window-width="1920"
     inkscape:pageshadow="2"
     inkscape:pageopacity="0"
     guidetolerance="10"
     gridtolerance="10"
     objecttolerance="10"
     borderopacity="1"
     bordercolor="#666666"
     pagecolor="#ffffff" />
  <!-- X Coordinate transform: fx(x)=(x+83.79846)*0.86131597-->
  <!-- Y Coordinate transform: fy(y)=(1077.1577-y)*0.86131597 -->
  <path
     style="color:#000000;font-style:normal;font-variant:normal;font-weight:normal;font-stretch:normal;font-size:medium;line-height:normal;font-family:sans-serif;font-variant-ligatures:normal;font-variant-position:normal;font-variant-caps:normal;font-variant-numeric:normal;font-variant-alternates:normal;font-variant-east-asian:normal;font-feature-settings:normal;font-variation-settings:normal;text-indent:0;text-align:start;text-decoration:none;text-decoration-line:none;text-decoration-style:solid;text-decoration-color:#000000;letter-spacing:normal;word-spacing:normal;text-transform:none;writing-mode:lr-tb;direction:ltr;text-orientation:mixed;dominant-baseline:auto;baseline-shift:baseline;text-anchor:start;white-space:normal;shape-padding:0;shape-margin:0;inline-size:0;clip-rule:nonzero;display:inline;overflow:visible;visibility:visible;isolation:auto;mix-blend-mode:normal;color-interpolation:sRGB;color-interpolation-filters:linearRGB;solid-color:#000000;solid-opacity:1;vector-effect:none;fill:#000000;fill-opacity:1;fill-rule:nonzero;stroke:none;stroke-width:16;stroke-linecap:butt;stroke-linejoin:miter;stroke-miterlimit:4;stroke-dasharray:none;stroke-dashoffset:0;stroke-opacity:1;color-rendering:auto;image-rendering:auto;shape-rendering:auto;text-rendering:auto;enable-background:accumulate;stop-color:#000000"
     d="M 101.02539,-11.050781 94.097656,0.94921875 83.332031,19.597656 76.564453,31.318359 46.197266,13.785156 l -12,-6.9277341 V 20.714844 61.632812 L 13.736328,97.076172 6.8085938,109.07617 H 55.728516 v 27.06445 H 6.8066406 l 6.9296874,12 14.605469,25.29688 4.617187,8 -4.617187,8 -14.605469,25.29492 -6.9296874,12 H 20.664062 55.728516 v 27.06641 H 20.664062 6.8066406 l 6.9296874,12 17.53125,30.36719 -30.36718738,17.5332 -11.99999962,6.92969 11.99999962,6.92773 30.36718738,17.5332 -17.53125,30.36719 -6.9296874,12 H 55.728516 v 27.06641 H 6.8066406 l 6.9296874,12 19.222656,33.29492 v 0.002 l -4.617187,7.99805 -14.605469,25.29687 -6.9296874,12 H 55.728516 v 27.06641 H 6.8066406 l 6.9296874,12 17.53125,30.36719 -30.36718738,17.5332 -11.99999962,6.92774 11.99999962,6.92773 30.36914038,17.5332 -5.347656,9.26172 -12.185547,21.10742 -6.9296874,12 H 55.728516 V 692.9043 H 6.8066406 l 6.9296874,12 14.605469,25.29687 4.617187,8 -4.617187,8 -14.605469,25.29492 -6.9296874,12 H 55.728516 V 810.5625 H 6.8066406 l 6.9296874,12 17.53125,30.36719 v 0.002 l -30.36718738,17.5312 v 0.002 l -11.99999962,6.92774 11.99999962,6.92773 30.36718738,17.53321 -17.53125,30.36718 -6.9277342,12 H 55.728516 v 35.06446 13.85742 l 12,-6.92774 30.36914,-17.5332 17.531254,30.36719 6.92968,12.00202 6.92774,-12.00007 13.54492,-23.45898 3.98828,-6.91016 30.36719,17.5332 12,6.92774 V 979.28516 944.2207 h 27.0664 v 35.06446 13.85742 l 12,-6.92774 30.36719,-17.5332 17.53321,30.36914 6.92773,12.00002 6.92773,-12.00002 h 0.002 l 10.71875,-18.5664 6.8125,-11.80274 h 0.002 l 30.36719,17.5332 12,6.92774 V 979.28516 944.2207 h 27.0664 v 35.06446 13.85742 l 12,-6.92774 30.36719,-17.5332 17.5332,30.36914 6.92774,12.00002 6.92773,-12.00002 17.53321,-30.36914 30.36914,17.5332 12,6.92774 V 979.28516 944.2207 h 27.06445 v 35.06446 13.85742 l 12,-6.92774 30.36914,-17.5332 17.5332,30.36914 6.92774,12.00002 6.92773,-12.00002 17.53321,-30.36914 30.36718,17.5332 12,6.92774 V 979.28516 944.2207 h 27.06446 v 35.06446 13.85742 l 12,-6.92774 30.36914,-17.5332 17.5332,30.36719 6.92773,12.00197 6.92774,-12.00002 13.54492,-23.45898 3.98828,-6.91016 30.36719,17.5332 12,6.92774 V 979.28516 944.2207 h 27.06641 v 35.06446 13.85742 l 12,-6.92774 30.36718,-17.5332 h 0.002 l 17.5332,30.36914 6.92773,12.00002 6.92774,-12.00002 20.46289,-35.4414 47.43751,-27.38868 -12.00001,-6.92773 -30.36719,-17.5332 15.15235,-26.24415 0.0703,-0.12304 h 9.23828 l -4.61914,-8 4.61914,-8 h -9.23633 -0.002 l -15.22266,-26.36914 42.36726,-24.46094 -37.29695,-21.5332 25.29688,-14.60352 -4,-6.92969 6.92773,-4 -17.53125,-30.36718 5.07032,-2.92774 -5.07227,-2.92773 17.5332,-30.36914 -13.85547,-8 -17.5332,30.36718 -22.51172,-12.99609 -0.92773,-0.53516 5.19531,-9 11.26563,-19.51171 47.43952,-27.38868 -42.36726,-24.46289 15.22266,-26.36718 h 9.23828 l -4.61914,-8 4.61914,-8 h -9.23633 -0.002 l -15.22266,-26.36719 42.36721,-24.46094 -47.43752,-27.39062 h -0.002 l -8.12305,-14.07032 -8.33789,-14.43945 v -0.002 l 11.18164,-6.45508 12.25781,-7.07617 17.5332,30.36718 13.85547,-8 -17.5332,-30.36914 5.07227,-2.92773 -5.07032,-2.92774 17.53125,-30.36718 -13.85547,-8 -17.5332,30.36718 -23.43945,-13.5332 6.76562,-11.7207 9.69532,-16.79102 47.43952,-27.38867 -42.36726,-24.46094 15.22266,-26.36718 h 9.23828 l -4.61914,-8 4.61914,-8 h -9.23633 -0.002 l -15.22266,-26.36914 42.36721,-24.46094 -47.43752,-27.38867 h -0.002 l -16.46094,-28.51172 15.43359,-8.91016 8.00586,-4.62305 17.5332,30.36719 13.85547,-8 -17.53125,-30.36719 5.07032,-2.92773 -5.07227,-2.92773 17.5332,-30.36915 -13.85547,-8 -17.5332,30.36719 -18.98242,-10.95898 -4.45703,-2.57227 v -0.002 l 6.76562,-11.71875 9.69532,-16.78906 v -0.002 l 47.43952,-27.38867 -42.36726,-24.460936 15.22266,-26.36914 h 9.23828 l -4.61914,-8 4.61914,-8 h -9.23633 -0.002 L 954.63867,0.94921875 947.71094,-11.050781 940.7832,0.94921875 h -0.002 L 926.17773,26.244141 911.57227,0.94921875 904.64453,-11.050781 897.7168,0.94921875 h -0.002 L 881.5273,28.988281 880.1816,31.318359 853.81441,16.095703 V 6.8574219 l -8,4.6191401 -8,-4.6191401 V 16.095703 L 825.16406,23.398438 811.44727,31.318359 793.91406,0.94921875 786.98633,-11.050781 780.05859,0.94921875 765.45312,26.246094 750.84961,0.95117188 743.92188,-11.050781 736.99414,0.94921875 h -0.002 L 720.80469,28.988281 719.45898,31.318359 693.0918,16.095703 V 6.8574219 l -8,4.6191401 -8,-4.6191401 v 9.2363281 0.002 L 650.72461,31.318359 633.19141,0.94921875 626.26367,-11.050781 619.33594,0.94921875 h -0.002 L 608.56836,19.597656 604.73047,26.246094 590.125,0.94921875 583.19727,-11.050781 576.26953,0.94921875 572.59961,7.3046875 558.73633,31.318359 h -0.002 L 532.36719,16.095703 V 6.8574219 l -8,4.6191401 -8,-4.6191401 V 16.095703 L 503.7168,23.398438 490,31.318359 472.4668,0.94921875 465.53906,-11.050781 458.61133,0.94921875 447.84375,19.597656 444.00586,26.246094 429.40039,0.94921875 422.47266,-11.050781 415.54492,0.94921875 404.77734,19.597656 398.01172,31.318359 371.64453,16.095703 V 6.8574219 l -8,4.6191401 -8,-4.6191401 v 9.2363281 0.002 l -26.36719,15.222656 h -0.002 L 311.74414,0.94921875 h -0.002 L 304.81445,-11.050781 297.88672,0.94921875 287.12109,19.597656 283.2832,26.246094 h -0.002 L 268.67773,0.94921875 261.74805,-11.050781 254.82031,0.94921875 244.05469,19.597656 237.28711,31.318359 210.91992,16.095703 V 6.8574219 l -8,4.6191401 -8,-4.6191401 v 9.2382811 l -9.5,5.484375 -16.86719,9.738281 L 151.01953,0.94921875 144.0918,-11.050781 137.16406,0.94921875 h -0.002 L 122.55859,26.246094 107.95508,0.95117188 Z m 160.72461,32 7.67578,13.296875 h -15.35351 z m 43.06641,0 7.67578,13.296875 h -15.35352 z m 117.65625,0 7.67773,13.296875 h -15.35351 z m 43.0664,0 7.67774,13.296875 h -15.35352 z m 117.65821,0 7.67578,13.296875 h -15.35352 z m 43.06445,0 7.67773,13.296875 h -15.35351 z m 160.72461,0 7.67578,13.296875 h -15.35352 z m 160.72461,0 7.67578,13.296875 H 940.0332 Z m -846.68555,0.002 7.67578,13.294922 H 93.349609 Z m 43.06445,0 7.67774,13.294922 h -15.35352 z m 599.83204,0 7.67382,13.294922 h -15.35156 z m 160.72265,0 7.67578,13.294922 H 896.9668 Z m -854.447264,13.61914 13.294922,7.675782 -13.294922,7.675781 z m 144.722654,0 V 49.921875 L 181.625,42.246094 Z m 16,0 13.29492,7.675782 -13.29492,7.675781 z m 144.72461,0 v 15.351563 l -13.29492,-7.675781 z m 16,0 13.29492,7.675782 -13.29492,7.675781 z m 144.72266,0 v 15.351563 l -13.29492,-7.675781 z m 16,0 13.29492,7.675782 -13.29492,7.675781 z m 144.72461,0 v 15.351563 l -13.29492,-7.675781 z m 16,0 13.29492,7.675782 -13.29492,7.675781 z m 144.72265,0 v 15.351563 l -13.29492,-7.675781 z m 16,0 13.29493,7.675782 -13.29493,7.675781 z M 93.349609,50.246094 h 15.351561 l -7.67578,13.294922 z m 43.064451,0 h 15.35352 l -7.67578,13.296875 h -0.002 z m 117.65821,0 h 15.35351 L 261.75,63.542969 h -0.002 z m 43.0664,0 h 15.35352 l -3.83985,6.648437 -3.83789,6.646485 z m 117.65821,0 h 15.35351 l -7.67773,13.296875 z m 43.06445,0 h 15.35351 l -7.67578,13.296875 z m 117.6582,0 h 15.35352 l -7.67578,13.296875 z m 43.06641,0 h 15.35351 l -7.67578,13.296875 h -0.002 z m 117.6582,0 h 15.35352 l -7.67578,13.296875 z m 43.06445,0 h 15.35352 l -3.83789,6.648437 -3.83789,6.648438 z m 117.65821,0 h 15.35351 l -7.67578,13.294922 -3.83984,-6.646485 z m 43.0664,0 h 15.35352 l -7.67578,13.294922 z M 76.564453,53.175781 90.097656,76.615234 66.658203,90.148438 53.125,66.707031 Z m 91.988277,0 23.43946,13.53125 -13.53321,23.441407 -23.43945,-13.533204 z m 68.73438,0 13.5332,23.439453 -23.4375,13.533204 h -0.002 l -13.5312,-23.441407 z m 91.98828,0 h 0.002 l 23.4375,13.53125 -13.5332,23.441407 -23.43945,-13.533204 z m 68.73633,0 13.5332,23.439453 -23.43945,13.533204 -13.5332,-23.441407 z m 91.98828,0 23.43945,13.53125 -13.5332,23.441407 -23.43945,-13.533204 z m 68.73438,0 h 0.002 l 13.5332,23.439453 -23.43945,13.533204 -13.5332,-23.441407 z m 91.99023,0 23.43945,13.53125 -13.5332,23.441407 -23.43945,-13.533204 z m 68.73437,0 h 0.002 l 13.5332,23.439453 -23.44141,13.533204 -1.29296,-2.238282 -12.23829,-21.203125 z m 91.98829,0 23.43945,13.53125 -13.5332,23.441407 -23.43946,-13.533204 z m 68.73437,0 h 0.002 l 13.53321,23.439453 -23.43946,13.533204 h -0.002 L 856.74414,66.707031 Z m -596.90039,5.070313 h 0.002 l 3.83789,6.648437 3.83789,6.648438 h -15.35351 z m 160.72461,0 3.83789,6.648437 3.83984,6.648438 h -15.35351 z m 160.72461,0 7.67578,13.296875 h -15.35352 l 3.83789,-6.648438 z m 160.72265,0 7.67579,13.296875 h -15.35157 l 3.83789,-6.648438 z m 160.72266,0 h 0.002 l 7.67579,13.296875 H 918.5 l 3.83984,-6.648438 z m -803.61719,0.002 7.67579,13.294922 h -15.35157 z m -80.361324,21.53125 7.675781,13.296875 H 34.519531 Z m 160.722654,0 7.67774,13.296875 h -15.35547 z m 160.72266,0 h 0.002 l 7.67578,13.296875 H 355.9668 Z m 160.72461,0 h 0.002 l 7.67578,13.296875 h -15.35351 z m 160.72461,0 7.67578,13.296875 h -15.35352 z m 160.72265,0 h 0.002 l 7.67578,13.296875 h -15.35352 z m -736.78906,7.763672 h 27.06641 v 27.064454 h -27.06641 z m 160.72266,0 h 27.0664 v 27.064454 h -27.0664 z m 160.72461,0 h 27.0664 v 27.064454 h -27.0664 z m 160.72461,0 h 27.0664 v 27.064454 h -27.0664 z m 160.72461,0 h 27.06445 v 27.064454 h -27.06445 z m 160.72265,0 h 27.06641 V 114.60742 H 912.64453 Z M 93.025391,93.398438 v 15.353512 l -13.296875,-7.67578 z m 59.066409,0 13.29492,7.677732 -13.29492,7.67578 z m 101.65625,0 v 15.353512 l -13.29493,-7.67578 z m 59.0664,0 13.29688,7.677732 -13.29688,7.67578 z m 101.65821,0 v 15.353512 l -13.29493,-7.67578 z m 59.0664,0 13.29688,7.677732 -13.29688,7.67578 z m 101.65821,0 v 15.353512 l -13.29688,-7.67578 z m 59.0664,0 13.29492,7.677732 -13.29492,7.67578 z m 101.65821,0 v 15.355472 l -13.29883,-7.67774 z m 59.06445,0 13.29492,7.677732 -13.29492,7.67578 z m 101.6582,0 v 15.353512 l -13.29687,-7.67578 z m 59.06641,0 13.29492,7.677732 -13.29492,7.67578 z M 189.38672,109.07617 h 27.0664 v 27.06445 h -27.0664 z m 160.72461,0 h 27.0664 v 27.06445 h -27.0664 z m 160.72461,0 h 27.06445 v 27.06445 h -27.06445 z m 160.72265,0 h 27.06446 v 27.06445 h -27.06446 z m 160.72266,0 h 27.06641 v 27.06445 h -27.06641 z m -760.552734,5.85547 13.296875,7.67578 v 0.002 l -13.296875,7.67578 z m 101.658204,0 v 15.35156 l -13.29492,-7.67382 v -0.002 l 6.64648,-3.83789 z m 160.72461,0 v 15.35352 l -6.64844,-3.83985 -6.64648,-3.83789 6.64648,-3.83789 z m 59.0664,0 13.29493,7.67578 v 0.002 l -6.64844,3.83593 -6.64649,3.83985 z m 101.65821,0 v 15.35352 l -13.29688,-7.67578 v -0.002 z m 59.06445,0 13.29492,7.67578 -13.29492,7.67774 z m 101.6582,0 v 15.35352 l -13.29492,-7.67578 v -0.002 l 6.64649,-3.83789 z m 59.06446,0 13.29687,7.67578 v 0.002 l -13.29687,7.67578 z m 101.6582,0 v 15.35352 l -13.29492,-7.67578 v -0.002 l 6.64648,-3.83789 z m 59.06641,0 13.29687,7.67578 v 0.002 l -13.29687,7.67578 z m -642.89454,0.002 12.84766,7.41602 0.44727,0.25781 -6.64649,3.83789 -6.64844,3.83985 z m -117.57031,15.67383 h 15.35157 l -7.67579,13.29492 z m 160.72266,0 h 15.35351 l -7.67773,13.29492 z m 160.72265,0 h 15.35547 l -3.83984,6.64844 -3.83789,6.64844 z m 160.72461,0 h 15.35352 l -3.83789,6.64844 -3.83789,6.64648 z m 160.72461,0 h 15.35352 l -7.67774,13.29492 z m 160.72266,0 h 15.35352 l -7.67579,13.29492 z m -820.402344,2.92969 13.531254,23.4375 v 0.002 l -23.437504,13.53125 h -0.002 l -13.53125,-23.4375 11.720703,-6.76758 z m 48.921874,0 23.43945,13.5332 -13.5332,23.4375 -23.43945,-13.5332 6.76758,-11.71875 z m 111.80078,0 13.53321,23.4375 v 0.002 l -11.18164,6.45508 -12.25782,7.07617 -13.5332,-23.4375 v -0.002 z m 48.92188,0 11.7207,6.76562 11.7207,6.76758 -13.5332,23.4375 -23.43945,-13.53125 v -0.002 z m 111.80273,0 13.5332,23.4375 v 0.002 l -23.43945,13.53125 -13.5332,-23.4375 v -0.002 l 11.71875,-6.76563 z m 48.92188,0 23.43945,13.53125 -13.5332,23.43945 -23.4375,-13.53125 v -0.002 z m 111.80273,0 13.53125,23.4375 -23.43945,13.5332 -13.53125,-23.43945 z m 48.92188,0 23.43945,13.53125 v 0.002 l -0.68164,1.17774 -12.85156,22.25976 -23.43946,-13.53125 v -0.002 l 6.76758,-11.71875 z m 111.80078,0 13.5332,23.4375 -23.43945,13.5332 h -0.002 l -13.53125,-23.4375 11.72071,-6.76758 z m 48.92187,0 23.43946,13.53125 v 0.002 l -13.53125,23.4375 h -0.002 l -23.43945,-13.5332 6.76758,-11.71875 z m 111.80274,0 13.53125,23.4375 -23.43946,13.53516 -13.5332,-23.43946 z M 34.519531,152.14062 h 15.353516 l -7.675781,13.29688 z m 160.724609,0 h 15.35156 l -7.67578,13.29688 z m 160.72266,0 h 15.35351 l -7.67578,13.29688 h -0.002 z m 160.72461,0 h 15.35351 l -7.67578,13.29688 h -0.002 z m 160.72461,0 h 15.35156 l -7.67578,13.29688 z m 160.72265,0 h 15.35352 l -5.82813,10.09376 -1.84765,3.20312 h -0.002 z m -656.75195,8 7.67773,13.29688 h -15.35351 z m 43.0664,0 7.67579,13.29688 h -15.35157 l 1.84766,-3.20312 z m 321.44727,0 h 0.002 l 7.67578,13.29688 h -15.35351 z m 117.6582,0 5.82813,10.09376 1.84961,3.20312 h -15.35352 l 3.83789,-6.64844 z m 203.78907,0 7.67773,13.29688 h -15.35351 l 3.83789,-6.64844 z m -803.619144,0.002 h 0.002 L 71.40625,173.4375 H 56.052734 l 1.84961,-3.20312 z m 278.380864,0 h 0.002 l 3.83789,6.64648 3.83789,6.64844 h -15.35352 z m 43.06835,0 7.67579,13.29492 H 377.5 l 1.84961,-3.20312 1.99023,-3.44532 z m 117.65625,0 h 0.002 l 3.83594,6.64648 1.99023,3.44532 1.84961,3.20312 H 495.1582 Z m 203.78907,0 h 0.002 l 7.67578,13.29492 h -15.35156 l 1.84766,-3.20312 z m 117.6582,0 3.83984,6.64648 1.98829,3.44532 1.8496,3.20312 h -15.35351 l 3.83984,-6.64844 z m -709.72266,13.61719 v 15.35351 l -13.29687,-7.67578 z m 16,0 13.29493,7.67773 -13.29493,7.67578 z m 144.72266,0 v 15.35351 l -13.29492,-7.67578 v -0.002 z m 16,0 13.29687,7.67773 -6.64843,3.83789 -6.64844,3.83789 z m 144.72461,0 v 15.35351 l -13.29492,-7.67578 z m 16,0 13.29687,7.67773 -6.64843,3.83789 -6.64844,3.83789 z m 144.72461,0 v 15.35351 l -13.29688,-7.67578 z m 16,0 13.29492,7.67578 v 0.002 l -13.29492,7.67578 z m 144.72265,0 v 15.35351 l -13.29687,-7.67578 z m 16,0 13.29493,7.67578 v 0.002 l -13.29493,7.67578 z m 144.72461,0 v 15.35351 l -13.29687,-7.67578 z m 16,0 13.29493,7.67773 -13.29493,7.67578 z M 56.052734,189.4375 H 71.40625 l -3.839844,6.64844 -3.835937,6.64648 h -0.002 z m 117.658206,0 h 15.35351 l -7.67773,13.29492 z m 43.0664,0 h 15.35157 l -7.67579,13.29492 z m 117.65625,0 h 15.35352 l -7.67578,13.29492 z m 43.06641,0 h 15.35352 l -7.67579,13.29492 h -0.002 z m 117.6582,0 h 15.35352 l -3.83984,6.64844 -3.83594,6.64648 h -0.002 z m 43.06641,0 h 15.35351 l -3.83984,6.64844 -3.83594,6.64648 h -0.002 z m 117.6582,0 h 15.35352 l -7.67774,13.29492 z m 43.06641,0 h 15.35156 l -3.83984,6.64844 -3.83594,6.64648 h -0.002 z m 117.6582,0 h 15.35156 l -3.83789,6.64844 -3.83789,6.64648 h -0.002 z m 43.06446,0 h 15.35351 l -7.67773,13.29492 z m -771.482427,2.92773 h 0.002 l 23.437507,13.53321 -13.531257,23.43945 -23.439453,-13.5332 6.765625,-11.71875 z m 68.736327,0 13.5332,23.43946 -23.43945,13.5332 -13.5332,-23.43945 z m 91.98828,0 23.43946,13.53321 -13.53321,23.43945 -23.43945,-13.5332 6.76758,-11.71875 z m 68.73438,0 h 0.002 l 13.5332,23.43946 -23.4414,13.5332 -13.53125,-23.43945 11.71875,-6.76563 z m 91.99023,0 23.43945,13.53321 -6.76562,11.71875 -6.76758,11.7207 -23.43945,-13.5332 6.76562,-11.71875 z m 68.73438,0 h 0.002 l 13.5332,23.43946 -23.4414,13.5332 -13.53125,-23.43945 11.71875,-6.76563 z m 91.99023,0 23.4375,13.53321 -6.76562,11.71875 -6.76563,11.7207 h -0.002 l -23.4375,-13.5332 z m 68.73438,0 13.5332,23.43946 -23.43945,13.5332 -13.53321,-23.43945 z m 91.98632,0 h 0.002 l 23.43945,13.53321 -6.76758,11.71875 -6.76562,11.7207 -23.44141,-13.5332 6.76758,-11.71875 z m 68.73633,0 h 0.002 l 13.53125,23.43946 -23.43946,13.5332 -13.5332,-23.43945 16.53125,-9.54492 z m 91.98828,0 h 0.002 l 23.43945,13.53321 -6.76758,11.71875 -6.76562,11.7207 h -0.002 l -23.43945,-13.5332 z m -849.611324,5.07227 7.675781,13.29492 H 34.519531 Z m 160.722654,0 7.67578,13.29492 h -15.35156 z m 160.72266,0 h 0.002 l 7.67578,13.29492 H 355.9668 l 3.83789,-6.64648 z m 160.72461,0 h 0.002 l 3.83789,6.64844 3.83789,6.64648 h -15.35351 z m 160.72461,0 3.83789,6.64844 3.83789,6.64648 h -15.35156 l 4.14843,-7.18554 z m 160.72265,0 h 0.002 l 3.83593,6.64844 3.83789,6.64648 h -15.35156 z m -723.25586,21.5332 7.67579,13.29492 h -15.35157 z m 160.72266,0 h 0.002 l 3.83789,6.64649 3.83594,6.64843 h -15.35156 z m 160.72461,0 3.83789,6.64649 3.83789,6.64843 h -15.35156 z m 160.72461,0 3.83789,6.64649 3.83789,6.64843 h -15.35156 l 3.83593,-6.64843 z m 160.72265,0 7.67579,13.29492 h -15.35157 l 3.83789,-6.64843 z m 160.72266,0 h 0.002 l 7.67579,13.29492 H 918.5 l 3.83984,-6.64843 z m -736.78906,7.76172 h 27.0664 v 27.06641 h -27.0664 z m 160.72461,0 h 27.0664 v 27.06641 h -27.0664 z m 160.72461,0 h 27.06445 v 27.06641 h -27.06445 z m 160.72265,0 h 27.06446 v 27.06641 h -27.06446 z m 160.72266,0 h 27.06641 v 27.06641 h -27.06641 z m -117.6582,5.85547 13.29883,7.67773 -13.29883,7.67774 z m -642.894534,0.002 13.296875,7.67578 -6.648438,3.83985 -6.648437,3.83789 z m 101.658204,0 v 15.35352 l -13.29492,-7.67774 z m 59.0664,0 13.29493,7.67578 -10.36133,5.98243 -2.9336,1.69531 z m 101.65821,0 v 15.35352 l -13.29688,-7.67774 z m 59.0664,0 13.29493,7.67578 -6.64844,3.83985 -6.64649,3.83789 z m 101.65821,0 v 15.35352 l -13.29688,-7.67774 z m 59.06445,0 13.29688,7.67578 -13.29688,7.67774 z m 101.6582,0 v 15.35352 l -13.29492,-7.67774 z m 160.72266,0 v 15.35352 l -13.29492,-7.67774 z m 59.06641,0 13.29687,7.67578 -6.64844,3.83985 -6.64843,3.83789 z m -766.32227,15.67578 h 27.06641 v 27.06641 h -27.06641 z m 160.72266,0 h 27.0664 v 27.06641 h -27.0664 z m 160.72461,0 h 27.0664 v 27.06641 h -27.0664 z m 160.72461,0 h 27.0664 v 27.06641 h -27.0664 z m 160.72461,0 h 27.06445 v 27.06641 h -27.06445 z m 160.72265,0 h 27.06641 v 27.06641 h -27.06641 z m -819.619139,5.85547 v 15.35547 l -13.296875,-7.67773 6.648437,-3.83789 z m 380.513669,0 13.29688,7.67774 -13.29688,7.67773 z m 262.38282,0 v 15.35547 l -13.29883,-7.67773 6.65039,-3.83789 z m 219.78906,0 13.29687,7.67774 -13.29687,7.67773 z m -803.61914,0.002 13.29492,7.67578 -6.64844,3.83789 -6.64648,3.83984 z m 101.65625,0 v 15.35156 l -13.29493,-7.67578 z m 59.0664,0 13.29688,7.67578 -6.64844,3.83789 -6.64844,3.83984 z m 101.65821,0 v 15.35351 l -13.29688,-7.67773 z m 160.72461,0 v 15.35351 l -13.29688,-7.67773 z m 59.0664,0 13.29492,7.67578 -13.29492,7.67773 z m 160.72266,0 13.29492,7.67578 -13.29492,7.67578 z m 101.6582,0 v 15.35351 l -13.29687,-7.67773 6.64843,-3.83789 z M 34.519531,269.79883 h 15.353516 l -7.675781,13.29687 z m 160.722659,0 h 15.35351 l -7.67578,13.29687 z m 160.72461,0 h 15.35351 l -7.67578,13.29492 -3.83984,-6.64648 z m 160.72461,0 h 15.35351 l -3.83789,6.64844 -3.83789,6.64648 h -0.002 z m 160.72461,0 h 15.35156 l -3.83789,6.64844 -3.83789,6.64843 z m 160.72265,0 h 15.35352 l -3.83985,6.64844 -3.83789,6.64648 z M 66.658203,272.72656 90.097656,286.25977 76.564453,309.69922 53.125,296.16797 v -0.002 z m 111.800777,0 13.53321,23.43946 -23.43946,13.5332 -13.5332,-23.43945 11.71875,-6.76758 z m 48.92188,0 23.43945,13.53321 -6.76562,11.7207 -6.76758,11.71875 -23.43945,-13.5332 4.77734,-8.27344 z m 111.80078,0 h 0.002 l 13.53125,23.43946 v 0.002 l -23.4375,13.53125 h -0.002 l -13.5332,-23.43945 11.7207,-6.76758 z m 48.92383,0 23.43945,13.53321 -13.5332,23.43945 -23.43945,-13.5332 6.76757,-11.71875 z m 111.80078,0 13.5332,23.43946 v 0.002 L 490,309.69922 476.4668,286.25977 Z m 48.92383,0 23.43945,13.53321 -13.5332,23.43945 h -0.002 l -23.4375,-13.53125 v -0.002 z m 111.80078,0 13.5332,23.43946 v 0.002 l -23.43945,13.53125 -13.5332,-23.43945 z m 48.92187,0 23.44141,13.53321 -13.5332,23.43945 h -0.002 l -23.4375,-13.5332 9.22461,-15.98047 z m 111.80079,0 13.5332,23.43946 -23.43945,13.5332 -13.53321,-23.43945 z m 48.92382,0 23.43946,13.53321 -13.53321,23.43945 h -0.002 l -23.4375,-13.5332 6.76563,-11.71875 z m -755.39453,18.60547 h 15.35157 l -7.67579,13.29492 z m 160.72266,0 h 15.35351 l -3.83789,6.64844 -3.83789,6.64844 h -0.002 z m 160.72461,0 h 15.35156 l -3.83789,6.64844 -3.83789,6.64844 z m 160.72265,0 h 15.35352 l -3.83789,6.64844 -3.83789,6.64844 z m 160.72461,0 h 15.35157 l -7.67579,13.29492 z m 160.72266,0 h 15.35352 l -7.67579,13.29492 z m -774.41016,8 h 0.002 l 7.67578,13.29688 H 136.4141 l 3.83985,-6.64844 z m 278.38282,0 h 0.002 l 3.35156,5.80859 4.32422,7.48829 h -15.35351 z m 43.0664,0 7.67774,13.29688 h -15.35352 z m 117.65821,0 7.67578,13.29688 h -15.35352 l 3.83985,-6.64844 z m 160.72265,0 h 0.002 l 3.5625,6.17188 4.11132,7.125 h -15.35156 z m 43.06641,0 7.67578,13.29688 h -15.35352 l 3.83985,-6.64844 z m -685.96094,0.002 2.06445,3.57422 1.99024,3.44532 3.62109,6.27539 H 93.349609 Z m 160.72266,0 7.67773,13.29493 h -15.35351 z m 43.0664,0 3.83789,6.64649 3.83985,6.64844 h -15.35352 z m 321.44922,0 7.67578,13.29493 h -15.35351 z m 278.38086,0 7.67578,13.29493 H 896.9668 l 3.83789,-6.64844 z m 43.06641,0 7.67578,13.29493 H 940.0332 Z M 34.197266,312.95117 v 15.35352 l -13.296875,-7.67578 z m 16,0 13.294922,7.67578 v 0.002 l -13.294922,7.67578 z m 144.722654,0 v 15.35352 L 181.625,320.62891 v -0.002 z m 16,0 13.29688,7.67578 v 0.002 l -13.29688,7.67578 z m 144.72461,0 v 15.35352 l -13.29687,-7.67578 v -0.002 z m 16,0 13.29492,7.67578 v 0.002 l -13.29492,7.67578 z m 144.72266,0 v 15.35352 l -13.29492,-7.67578 v -0.002 z m 16,0 13.29687,7.67578 v 0.002 l -13.29687,7.67578 z m 144.72461,0 v 15.35352 l -13.29492,-7.67578 v -0.002 z m 16,0 13.29492,7.67774 -13.29492,7.67578 z m 144.72265,0 v 15.35352 l -13.29492,-7.67578 v -0.002 l 6.64844,-3.83789 z m 16,0 13.29493,7.67774 -13.29493,7.67578 z M 93.349609,328.62891 h 15.351561 l -7.67578,13.29492 z m 43.066411,0 h 15.35156 l -7.67578,13.29492 h -0.002 z m 117.65625,0 h 15.35351 l -3.83984,6.64843 -3.83594,6.64649 h -0.002 z m 43.0664,0 h 15.35352 l -3.83985,6.64843 -3.83593,6.64649 h -0.002 z m 117.65821,0 h 15.35351 l -3.83789,6.64843 -3.83984,6.64649 z m 43.0664,0 h 15.35156 l -7.67578,13.29492 z m 117.65625,0 h 15.35352 l -7.67578,13.29492 z m 43.06641,0 h 15.35351 l -7.67578,13.29492 h -0.002 z m 117.6582,0 h 15.35156 l -7.67382,13.29492 h -0.002 z m 43.06641,0 h 15.35156 l -7.67578,13.29492 z m 117.65625,0 h 15.35351 l -7.67578,13.29492 h -0.002 z m 43.06836,0 h 15.35156 l -7.67578,13.29492 h -0.002 z M 76.564453,331.55664 90.097656,354.99609 66.658203,368.5293 53.125,345.08984 64.84375,338.32422 Z m 91.988277,0 23.43946,13.5332 -5.19531,8.99805 -8.3379,14.44141 -23.43945,-13.53321 6.76563,-11.71875 z m 68.73438,0 13.5332,23.43945 -23.43945,13.53125 -13.53125,-23.4375 11.71875,-6.76562 z m 91.98828,0 h 0.002 l 23.4375,13.5332 -6.76562,11.71875 -6.76758,11.72071 -23.4375,-13.53321 6.76563,-11.71875 z m 68.73633,0 13.5332,23.43945 -23.43945,13.53321 -13.5332,-23.43946 11.7207,-6.76562 z m 91.98828,0 23.43945,13.5332 -13.5332,23.43946 -23.43945,-13.53321 10.88086,-18.84765 z m 68.73438,0 h 0.002 l 13.5332,23.43945 -23.43945,13.53321 -13.5332,-23.43946 z m 91.99023,0 23.43945,13.5332 -6.76562,11.71875 -6.76758,11.72071 -23.43945,-13.53321 10.88086,-18.84765 z m 68.73437,0 13.53321,23.43945 -23.43946,13.53321 -12.24023,-21.20313 -1.29102,-2.23633 z m 91.98829,0 23.43945,13.5332 -6.76563,11.71875 -6.76757,11.72071 -23.43946,-13.53321 6.76563,-11.71875 z m 68.73437,0 h 0.002 l 13.53321,23.43945 -23.43946,13.53321 h -0.002 l -13.53125,-23.43946 2.64453,-1.52734 z m -757.625,5.07227 h 0.002 l 7.67579,13.29492 h -15.35157 l 2.86524,-4.96289 z m 160.72461,0 7.67578,13.29492 h -15.35156 z m 160.72461,0 3.83789,6.64843 3.83984,6.64649 h -15.35351 z m 160.72461,0 3.83789,6.64843 3.83789,6.64649 h -15.35352 z m 160.72265,0 7.67579,13.29492 h -15.35157 l 3.83789,-6.64649 z m 160.72266,0 h 0.002 l 7.67579,13.29492 H 918.5 l 3.83984,-6.64649 z m -883.978514,21.53125 3.83789,6.64843 3.837891,6.64844 H 34.519531 Z m 160.722654,0.002 7.67578,13.29492 h -15.35156 z m 160.72461,0 7.67578,13.29492 h -15.35156 z m 160.72266,0 h 0.002 l 7.67383,13.29492 h -15.34961 z m 160.72461,0 3.83789,6.64648 3.83789,6.64844 h -15.35156 z m 160.72265,0 7.67578,13.29492 h -15.35156 z m -736.78906,7.76172 h 27.06641 v 27.0664 h -27.06641 z m 160.72266,0 h 27.0664 v 27.0664 h -27.0664 z m 160.72461,0 h 27.0664 v 27.0664 h -27.0664 z m 160.72461,0 h 27.0664 v 27.0664 h -27.0664 z m 160.72461,0 h 27.06445 v 27.0664 h -27.06445 z m 160.72265,0 h 27.06641 v 27.0664 H 912.64453 Z M 93.025391,371.7793 v 15.35351 l -13.296875,-7.67578 z m 219.789059,0 13.29688,7.67773 -13.29688,7.67578 z m 101.65821,0 v 15.35351 l -13.29493,-7.67578 z m 59.0664,0 13.29688,7.67773 -13.29688,7.67578 z m 101.65821,0 v 15.35351 l -13.29688,-7.67578 z m 59.0664,0 13.29492,7.67773 -13.29492,7.67578 z m 101.65821,0 v 15.35547 l -6.64844,-3.83789 -6.65039,-3.83985 z m 59.06445,0 13.29687,7.67773 -13.29687,7.67578 z m 101.6582,0 v 15.35351 l -13.29687,-7.67578 z m 59.06641,0 13.29687,7.67773 -13.29687,7.67774 z m -803.61914,0.002 13.29492,7.67578 -6.10938,3.52735 -7.18554,4.14843 z m 101.65625,0 v 15.35156 l -13.29493,-7.67578 z m -64.36133,15.67578 h 27.0664 v 27.06641 h -27.0664 z m 160.72461,0 h 27.0664 v 27.06641 h -27.0664 z m 160.72461,0 h 27.06445 v 27.06641 h -27.06445 z m 160.72265,0 h 27.06446 v 27.06641 h -27.06446 z m 160.72266,0 h 27.06641 v 27.06641 h -27.06641 z m -760.552734,5.85547 13.296875,7.67773 -13.296875,7.67579 z m 101.658204,0 v 15.35352 l -13.29688,-7.67579 6.64844,-3.83789 z m 59.0664,0 13.29493,7.67773 -13.29493,7.67579 z m 101.65821,0 v 15.35547 l -13.29688,-7.67774 6.64844,-3.83789 3.44531,-1.99023 z m 160.72461,0 v 15.35352 l -13.29688,-7.67579 z m 59.06445,0 6.64844,3.83984 6.64844,3.83789 -13.29688,7.67774 z m 160.72266,0 13.29883,7.67773 -13.29883,7.67774 z m 101.6582,0 v 15.35547 l -13.29687,-7.67774 6.64843,-3.83789 z m 59.06641,0 13.29687,7.67773 -13.29687,7.67774 z m -482.16993,0.002 13.29493,7.67578 -13.29493,7.67579 z m 262.38086,0 v 15.35352 l -13.29687,-7.67774 z m -540.67578,15.67578 h 15.35157 l -7.67579,13.29493 z m 160.72266,0 h 15.35351 l -3.83789,6.64649 -3.83789,6.64844 h -0.002 z m 160.72461,0 h 15.35156 l -3.83789,6.64649 -3.83789,6.64844 z m 160.72265,0 h 15.35352 l -3.83789,6.64649 -3.83789,6.64844 z m 160.72461,0 h 15.35157 l -7.67579,13.29493 z m 160.72266,0 h 15.35352 l -7.67579,13.29493 h -0.002 z m -820.402344,2.92774 13.533204,23.43945 -2.64648,1.52735 -20.792974,12.00585 h -0.002 L 74.65625,425.45117 Z m 48.921874,0 23.43945,13.5332 -13.5332,23.43945 -23.43945,-13.5332 z m 111.80078,0 13.53321,23.43945 -15.4336,8.91016 -8.00586,4.62304 -13.5332,-23.43945 11.7207,-6.76758 z m 48.92188,0 23.43945,13.5332 -13.53125,23.43945 h -0.002 l -23.43946,-13.5332 6.76758,-11.7207 z m 111.80273,0 13.5332,23.43945 -23.43945,13.5332 -13.5332,-23.43945 11.71875,-6.76758 z m 48.92188,0 23.4414,13.5332 -6.76758,11.72071 -6.76562,11.71874 h -0.002 l -23.4375,-13.5332 z m 111.80273,0 13.5332,23.43945 -2.64648,1.52735 -20.79297,12.00585 h -0.002 l -13.53125,-23.43945 z m 48.92188,0 23.43945,13.5332 -6.76758,11.72071 -6.76562,11.71874 -23.43946,-13.5332 z m 111.80078,0 13.5332,23.43945 -2.64648,1.52735 -20.79297,12.00585 -13.53321,-23.43945 z m 48.92187,0 23.43946,13.5332 -13.53125,23.4375 -23.44141,-13.53125 z m 111.80274,0 13.5332,23.43945 -2.64648,1.52735 -20.79493,12.00585 -13.5332,-23.43945 z M 34.519531,430.52344 h 15.353516 l -7.675781,13.29492 z m 160.724609,0 h 15.35156 l -3.83789,6.64844 -3.83789,6.64648 z m 160.72461,0 h 15.35156 l -7.67578,13.29492 h -0.002 z m 160.72266,0 h 15.35156 l -7.67383,13.29492 h -0.002 l -3.83594,-6.64648 -2.14453,-3.71485 z m 160.72461,0 h 15.35156 l -3.83789,6.64844 -3.83789,6.64648 z m 160.72265,0 h 15.35156 l -3.83789,6.64844 -3.83593,6.64648 h -0.002 z m -774.410154,8 h 0.002 l 3.835937,6.64844 3.839844,6.64648 H 56.052734 l 3.837891,-6.64648 z m 117.658204,0 7.67578,13.29492 h -15.35156 z m 43.0664,0 7.67579,13.29492 h -15.35157 l 3.83594,-6.64648 z m 117.65821,0 4.14844,7.18554 3.52734,6.10938 h -15.35352 z m 43.06445,0 h 0.002 l 7.67579,13.29492 H 377.5 Z m 117.6582,0 h 0.002 l 3.83594,6.64844 3.83984,6.64648 H 495.1582 l 3.83789,-6.64648 z m 43.06641,0 h 0.002 l 7.67578,13.29492 h -15.35351 z m 117.6582,0 7.67579,13.29492 h -15.35157 l 3.83789,-6.64648 z m 43.06446,0 h 0.002 l 7.67578,13.29492 h -15.35156 l 3.83594,-6.64648 z m 117.6582,0 h 0.002 l 3.83789,6.64844 3.83789,6.64648 h -15.35156 l 3.83789,-6.64648 z m 43.06641,0 7.67773,13.29492 h -15.35351 l 3.52734,-6.10938 0.31055,-0.5371 z m -752.78907,13.61914 v 15.35351 l -13.29687,-7.67578 v -0.002 z m 16,0 13.29493,7.67578 v 0.002 l -13.29493,7.67578 z m 144.72266,0 v 15.35351 l -13.29492,-7.67578 v -0.002 z m 16,0 13.29492,7.67578 -6.64648,3.83789 -6.64844,3.83984 z m 144.72461,0 v 15.35351 l -13.29492,-7.67578 v -0.002 z m 16,0 13.29687,7.67578 v 0.002 l -13.29687,7.67578 z m 144.72461,0 v 15.35351 l -13.29688,-7.67578 v -0.002 z m 16,0 13.29492,7.67578 v 0.002 l -13.29492,7.67578 z m 144.72265,0 v 15.35351 l -6.64843,-3.83984 -6.64649,-3.83789 z m 16,0 13.29493,7.67578 -13.29493,7.67773 z m 144.72461,0 v 15.35351 l -6.64843,-3.83984 -6.64649,-3.83789 z m 16,0 13.29493,7.67578 v 0.002 l -13.29493,7.67578 z M 56.052734,467.81836 H 71.40625 l -3.839844,6.64844 -3.83789,6.64648 z m 117.658206,0 h 15.35351 l -7.67773,13.29687 z m 43.0664,0 h 15.35157 l -7.67579,13.29687 z m 117.65625,0 h 15.35352 l -3.83789,6.64844 -3.83789,6.64843 z m 43.06641,0 h 15.35352 l -7.67579,13.29492 z m 117.6582,0 h 15.35352 l -3.83984,6.64844 -3.83594,6.64648 -3.83985,-6.64648 z m 43.06641,0 h 15.35351 l -3.83984,6.64844 -3.83789,6.64648 z m 117.6582,0 h 15.35352 l -3.83789,6.64844 -3.83985,6.64843 z m 43.06641,0 h 15.35156 l -7.67578,13.29687 h -0.002 l -3.83789,-6.64843 z m 117.65625,0 h 15.35351 l -3.83789,6.64844 -3.83789,6.64843 h -0.002 z m 43.06641,0 h 15.35351 l -7.67773,13.29687 z m -771.482427,2.92969 h 0.002 l 23.437507,13.53125 v 0.002 l -11.61524,20.11719 -1.916017,3.32226 -23.439453,-13.5332 6.765625,-11.7207 z m 68.736327,0 13.5332,23.4375 v 0.002 l -23.43945,13.5332 -13.5332,-23.43945 v -0.002 z m 91.98828,0 23.43946,13.5332 L 265.58594,496 258.82031,507.71875 235.38086,494.1875 v -0.002 l 6.76758,-11.71875 z m 68.73438,0 h 0.002 l 13.5332,23.43945 -23.43945,13.5332 -13.5332,-23.43945 v -0.002 l 11.71875,-6.76563 z m 91.99023,0 23.43945,13.53125 v 0.002 L 426.3125,496 l -6.76758,11.7207 -23.43945,-13.5332 0.68164,-1.17969 z m 68.73438,0 h 0.002 l 13.5332,23.43945 -23.43945,13.5332 h -0.002 l -13.53125,-23.43945 v -0.002 z m 91.98828,0 h 0.002 l 23.4375,13.5332 -6.76562,11.71875 -6.76563,11.71875 h -0.002 l -23.4375,-13.53125 13.22461,-22.90625 z m 68.73633,0 13.5332,23.4375 v 0.002 L 629.19141,507.7188 615.6582,484.2813 v -0.002 l 11.18164,-6.45508 z m 91.98632,0 h 0.002 l 23.43945,13.5332 L 747.75781,496 740.99219,507.71875 717.55273,494.1875 v -0.002 z m 68.73829,0 13.53125,23.4375 -23.43946,13.5332 -13.5332,-23.4375 v -0.002 l 11.63867,-6.71875 z m 91.98632,0 h 0.002 l 23.4375,13.53125 v 0.002 L 908.48242,496 l -6.76758,11.7207 -23.43945,-13.5332 5.19531,-8.99805 z m -849.611324,5.07031 7.675781,13.29687 H 34.519531 Z m 160.722654,0 3.83789,6.64844 3.83985,6.64843 h -15.35352 z m 160.72266,0 h 0.002 l 7.67578,13.29687 H 355.9668 Z m 160.72461,0 h 0.002 l 3.83789,6.64844 3.83789,6.64843 h -15.35351 z m 160.72461,0 7.67578,13.29687 h -15.35156 z m 160.72265,0 h 0.002 l 1.84765,3.20312 1.98828,3.44532 3.83985,6.64843 h -15.35352 z m -401.80859,21.5332 3.83789,6.64844 3.83984,6.64844 h -15.35547 z m 160.72461,0 3.83789,6.64844 3.83789,6.64844 H 597.05273 L 600.89062,504 Z m -482.17188,0.002 7.67579,13.29492 h -15.35157 z m 160.72266,0 3.83984,6.64648 3.83789,6.64844 h -15.35351 z m 482.17187,0 7.67774,13.29492 H 757.77734 L 761.61523,504 Z m 160.72461,0 7.67579,13.29492 H 918.5 L 922.33984,504 Z m -736.79101,7.76171 h 27.0664 v 27.06641 h -27.0664 z m 160.72461,0 h 27.0664 v 27.06641 h -27.0664 z m 160.72461,0 h 27.06445 v 27.06641 h -27.06445 z m 160.72265,0 h 27.06446 v 27.06641 h -27.06446 z m 160.72266,0 h 27.06641 v 27.06641 h -27.06641 z m -760.552734,5.85547 13.296875,7.67774 -6.648438,3.83789 -6.648437,3.83789 z m 101.658204,0 v 15.35352 l -6.64844,-3.83789 -6.64648,-3.83789 z m 59.0664,0 13.29493,7.67774 -6.64649,3.83789 -6.64844,3.83789 z m 101.65821,0 v 15.35352 l -13.29688,-7.67578 z m 59.0664,0 13.29493,7.67774 -13.29493,7.67578 z m 101.65821,0 v 15.35352 l -13.29688,-7.67578 z m 59.06445,0 13.29688,7.67774 -6.64844,3.83789 -6.64844,3.83789 z m 101.6582,0 v 15.35352 l -13.29492,-7.67578 z m 59.06446,0 13.29687,7.67578 -13.29687,7.67774 z m 101.6582,0 v 15.35352 l -13.29492,-7.67578 z m 59.06641,0 13.29492,7.67578 -6.64649,3.83985 -6.64843,3.83789 z m -766.32227,15.67774 h 27.06641 v 27.0664 h -27.06641 z m 160.72266,0 h 27.0664 v 27.0664 h -27.0664 z m 160.72461,0 h 27.0664 v 27.0664 h -27.0664 z m 160.72461,0 h 27.0664 v 27.0664 h -27.0664 z m 160.72461,0 h 27.06445 v 27.0664 h -27.06445 z m 160.72265,0 h 27.06641 v 27.0664 h -27.06641 z m -819.619139,5.85547 v 15.35351 l -13.294922,-7.67578 z m 59.066409,0 13.29492,7.67578 v 0.002 l -13.29492,7.67578 z m 160.72265,0 13.29688,7.67578 v 0.002 l -13.29688,7.67578 z m 101.65821,0 v 15.35351 l -13.29493,-7.67773 6.64649,-3.83594 z m 59.0664,0 13.29492,7.67578 -13.29492,7.67773 z m 101.65821,0 v 15.35351 l -13.29493,-7.67578 6.64649,-3.83789 z m 59.0664,0 13.29492,7.67578 -13.29492,7.67773 z m 101.65821,0 v 15.35351 l -13.29688,-7.67773 6.64844,-3.83594 z m 59.06445,0 13.29492,7.67578 -13.29492,7.67773 z m 101.6582,0 v 15.35351 l -13.29687,-7.67773 6.64843,-3.83594 z m 59.06641,0 13.29492,7.67578 -13.29492,7.67773 z m -701.96289,0.002 v 15.35156 l -13.29493,-7.67578 v -0.002 z M 34.519531,548.18164 h 15.353516 l -7.675781,13.29492 z m 160.724609,0 h 15.35156 l -6.80859,11.79297 -0.86719,1.50195 z m 160.72461,0 h 15.35156 l -7.67578,13.29492 h -0.002 z m 160.72266,0 h 15.35156 l -3.83594,6.64648 -3.83789,6.64844 h -0.002 z m 160.72461,0 h 15.35156 l -3.83789,6.64648 -3.83789,6.64844 z m 160.72265,0 h 15.35156 l -3.83789,6.64648 -3.83593,6.64844 h -0.002 z m -771.480467,2.92774 23.439453,13.5332 -13.533203,23.43945 -23.439453,-13.5332 5.644531,-9.77735 z m 111.800777,0 13.53321,23.43945 -23.43946,13.5332 -13.5332,-23.43945 18.84766,-10.88086 z m 48.92188,0 23.43945,13.5332 -13.5332,23.43945 -23.4375,-13.5332 11.06055,-19.16211 z m 111.80273,0 13.53125,23.43945 -23.4375,13.5332 h -0.002 l -13.53125,-23.43945 20.79297,-12.00586 z m 48.92188,0 23.43945,13.5332 -10.88086,18.84765 -2.65234,4.5918 -23.43945,-13.5332 z m 111.80078,0 13.5332,23.43945 -23.43945,13.5332 -13.5332,-23.43945 10.88086,-6.28125 z m 48.92187,0 23.44141,13.5332 -13.5332,23.43945 h -0.002 l -23.4375,-13.5332 6.76562,-11.72071 z m 111.80274,0 13.5332,23.43945 -11.71875,6.76758 -11.7207,6.76562 -13.5332,-23.43945 z m 48.92187,0 23.43946,13.5332 -13.53321,23.43945 -23.43945,-13.5332 6.76563,-11.72071 z m 111.80079,0 13.5332,23.43945 -11.71875,6.76758 -11.7207,6.76562 -13.53321,-23.43945 z m 48.92382,0 23.43946,13.5332 -6.76758,11.7207 -6.76563,11.71875 h -0.002 l -23.4375,-13.5332 z m -755.39453,18.60546 h 15.35157 l -7.67579,13.29493 -1.84961,-3.20313 z m 160.72266,0 h 15.35351 l -3.83789,6.64844 -3.83789,6.64649 h -0.002 z m 160.72461,0 h 15.35156 l -7.67578,13.29493 z m 160.72265,0 h 15.35352 l -7.67578,13.29493 -3.83985,-6.64649 z m 160.72461,0 h 15.35157 l -4.54883,7.87891 -3.12696,5.41602 z m 160.72461,0 h 15.35157 l -7.67579,13.29493 h -0.002 z m -335.30468,7.99805 7.67578,13.29688 h -15.35352 l 3.83985,-6.64649 z m -482.17188,0.002 7.67578,13.29493 H 93.349609 Z m 43.06445,0 h 0.002 l 7.67578,13.29493 H 136.4141 l 3.83985,-6.64649 z m 117.66016,0 1.69336,2.9336 2.14258,3.71484 3.83984,6.64649 h -15.35351 z m 43.06445,0 h 0.002 l 3.83593,6.64844 3.83985,6.64649 h -15.35352 z m 117.65821,0 3.83984,6.64844 3.83789,6.64649 h -15.35351 l 3.83789,-6.64649 z m 43.0664,0 7.67578,13.29493 h -15.35156 l 3.83594,-6.64649 z m 160.72266,0 h 0.002 l 7.67578,13.29493 h -15.35351 l 3.83984,-6.64649 z m 117.6582,0 h 0.002 l 7.67382,13.29493 h -15.35156 l 3.83789,-6.64649 z m 43.06641,0 7.67578,13.29493 h -15.35352 l 3.83985,-6.64649 2.14258,-3.71484 z m 117.65625,0 h 0.002 l 7.67578,13.29493 H 896.9668 l 3.83789,-6.64649 z m 43.0664,0 h 0.002 l 7.67578,13.29493 H 940.0332 Z M 34.197266,591.33203 v 15.35547 l -13.296875,-7.67773 z m 16,0.002 13.294922,7.67579 -6.648438,3.83789 -6.646484,3.83984 z m 144.722654,0 V 606.6875 L 181.625,599.01172 Z m 16,0 13.29688,7.67579 -13.29688,7.67773 z m 144.72461,0 v 15.35352 l -13.29687,-7.67773 z m 16,0 13.29492,7.67579 -13.29492,7.67773 z m 144.72266,0 v 15.35352 l -13.29492,-7.67578 v -0.002 z m 16,0 13.29687,7.67579 v 0.002 l -13.29687,7.67578 z m 144.72461,0 v 15.35352 l -13.29492,-7.67773 z m 16,0 13.29687,7.67579 -13.29687,7.67773 z m 144.72265,0 v 15.35352 l -13.29492,-7.67773 z m 16,0 13.29688,7.67579 -13.29688,7.67773 z M 93.349609,607.00977 h 15.351561 l -7.67578,13.29492 z m 43.064451,0 h 15.35352 l -7.67578,13.29492 -3.83789,-6.64649 -1.99024,-3.44531 z m 117.65821,0 h 15.35351 l -3.83984,6.64843 -3.83789,6.64649 z m 43.0664,0 h 15.35352 l -3.83985,6.64843 -3.83789,6.64649 z m 117.65821,0 h 15.35351 l -7.67773,13.29687 z m 43.0664,0 h 15.35156 l -7.67578,13.29687 -3.83984,-6.64844 -1.98828,-3.44531 z m 117.65625,0 h 15.35352 l -7.67578,13.29687 z m 43.06641,0 h 15.35351 l -7.67578,13.29492 -3.83789,-6.64649 -1.99023,-3.44531 z m 117.6582,0 h 15.35156 l -7.67382,13.29492 h -0.002 z m 43.06445,0 h 15.35352 l -7.67578,13.29687 -3.83789,-6.64844 -1.99024,-3.44531 z m 117.65821,0 h 15.35351 l -7.67578,13.29492 h -0.002 z m 43.0664,0 h 15.35352 l -7.67578,13.29492 z M 76.564453,609.9375 90.097656,633.37695 66.658203,646.91016 53.125,623.4707 71.972656,612.58984 Z m 91.988277,0.002 23.43946,13.53125 v 0.002 l -6.76563,11.71875 -6.76758,11.71875 -23.43945,-13.53125 v -0.002 l 6.76563,-11.71875 z m 68.73438,0 13.5332,23.4375 -23.43945,13.53321 -13.53125,-23.43946 z m 91.98828,0 h 0.002 l 23.4375,13.53125 -13.53125,23.43946 -23.43945,-13.53321 6.76563,-11.71875 z m 68.73633,0 13.5332,23.4375 -23.43945,13.53321 -13.5332,-23.43946 17.91796,-10.34375 z m 91.98828,0 23.43945,13.53125 v 0.002 L 499.90625,646.9122 476.4668,633.379 v -0.002 l 6.76758,-11.71875 z m 68.73438,0 13.22656,22.9043 0.30859,0.5332 -23.44141,13.53321 -13.53124,-23.43946 z m 91.99023,0 11.54687,6.66602 11.89258,6.86523 -13.5332,23.44141 -23.43945,-13.5332 v -0.002 l 6.76562,-11.71875 z m 68.73437,0 13.53321,23.4375 -11.71875,6.76758 -11.72071,6.76563 -13.5332,-23.4375 v -0.002 z m 91.98829,0 23.43945,13.53125 -13.5332,23.43946 -23.43946,-13.53321 6.76563,-11.71875 z m 68.73437,0 h 0.002 l 13.53125,23.4375 v 0.002 l -11.71875,6.76562 -11.7207,6.76758 -13.53125,-23.44141 z m -596.90039,5.07032 h 0.002 l 3.83789,6.64843 3.83789,6.64844 h -15.35351 z m 160.72461,0 3.83789,6.64843 3.83789,6.64844 h -15.35156 z m 160.72461,0 7.67578,13.29687 h -15.35352 l 3.83789,-6.64844 z m 160.72265,0 7.67579,13.29687 h -15.35157 l 3.83789,-6.64844 z m 160.72266,0 h 0.002 l 2.26563,3.92578 5.41016,9.37109 H 918.5 Z m -803.61719,0.002 7.67579,13.29492 h -15.35157 l 5.82617,-10.09375 z m -80.361324,21.53125 7.675781,13.29687 H 34.519531 Z m 160.722654,0 7.67774,13.29687 h -15.35547 z m 160.72266,0 h 0.002 l 7.67578,13.29687 H 355.9668 Z m 160.72461,0 h 0.002 l 7.67578,13.29687 h -15.35351 z m 160.72461,0 7.67578,13.29687 h -15.35156 z m 160.72265,0 h 0.002 l 7.67578,13.29687 h -15.35352 z m -736.78906,7.76367 h 27.06641 v 27.06445 h -27.06641 z m 160.72266,0 h 27.0664 v 27.06445 h -27.0664 z m 160.72461,0 h 27.0664 v 27.06445 h -27.0664 z m 160.72461,0 h 27.0664 v 27.06445 h -27.0664 z m 160.72461,0 h 27.06445 v 27.06445 h -27.06445 z m 160.72265,0 h 27.06641 v 27.06445 h -27.06641 z m -819.619139,5.85547 v 15.35351 l -6.648438,-3.83984 -6.646484,-3.83789 z m 59.066409,0 13.29492,7.67578 v 0.002 l -6.64844,3.83594 -6.64648,3.83984 z m 160.72265,0 13.29493,7.67578 v 0.002 l -13.29493,7.67578 z m 101.65821,0 v 15.35156 l -13.29493,-7.67383 v -0.002 L 407.82422,654 Z m 59.0664,0 13.29492,7.67578 v 0.002 l -13.29492,7.67578 z m 101.65821,0 v 15.35351 L 561.90234,657.83984 568.54883,654 Z m 59.0664,0 13.29492,7.67578 v 0.002 l -6.64843,3.83594 -6.64649,3.83789 z m 101.65821,0 v 15.35351 L 722.625,657.83984 729.27344,654 Z m 59.06445,0 13.29492,7.67578 v 0.002 l -6.64844,3.83594 -6.64648,3.83984 z m 101.6582,0 v 15.35351 L 883.34961,657.83984 889.99609,654 Z m 59.06641,0 13.29492,7.67773 -13.29492,7.67578 z m -701.96289,0.002 v 15.35156 l -13.29493,-7.67578 z m -64.36133,15.67578 h 27.0664 v 27.06446 h -27.0664 z m 160.72461,0 h 27.0664 v 27.06446 h -27.0664 z m 160.72461,0 h 27.06445 v 27.06446 h -27.06445 z m 160.72265,0 h 27.06446 v 27.06446 h -27.06446 z m 160.72266,0 h 27.06641 v 27.06446 h -27.06641 z m -760.552734,5.85547 13.296875,7.67578 -13.296875,7.67774 z m 160.724604,0 13.29493,7.67578 -13.29493,7.67774 z m 101.65821,0 v 15.35352 l -13.29492,-7.67578 6.64648,-3.83789 3.44531,-1.99024 z m 59.0664,0 13.29493,7.67578 -13.29493,7.67774 z m 101.65821,0 v 15.35352 l -13.29688,-7.67774 z m 59.06445,0 6.64844,3.83985 6.64844,3.83593 -13.29688,7.67774 z m 101.6582,0 v 15.35352 l -13.29492,-7.67774 6.64649,-3.83593 z m 59.06446,0 13.29883,7.67578 -13.29883,7.67774 z m 101.6582,0 v 15.35352 l -13.29492,-7.67578 v -0.002 l 6.64648,-3.83593 3.71485,-2.14454 z m 59.06641,0 13.29687,7.67578 -13.29687,7.67774 z m -701.96094,0.002 v 15.35156 l -13.29492,-7.67578 v -0.002 z m -58.50391,15.67382 h 15.35157 l -7.67579,13.29493 z m 160.72266,0 h 15.35351 l -3.83789,6.64844 -3.83984,6.64649 z m 160.72265,0 h 15.35547 l -7.67773,13.29688 z m 160.72461,0 h 15.35352 l -7.67578,13.29688 z m 160.72461,0 h 15.35352 l -7.67774,13.29688 z m 160.72266,0 h 15.35352 l -7.67579,13.29688 h -0.002 z m -450.0332,2.92774 23.43945,13.5332 -13.22461,22.90625 -0.30859,0.53516 -23.43946,-13.53321 z m 111.80273,0 13.5332,23.4414 -1.17968,0.68165 -22.25977,12.85156 -6.76758,-11.72071 -6.76562,-11.7207 z m -482.171874,0.002 13.533204,23.43945 -23.439454,13.53125 -6.767578,-11.71875 -6.765625,-11.71875 z m 48.921874,0 23.43945,13.5332 -6.76757,11.71875 -6.76563,11.71875 -23.43945,-13.53125 6.76758,-11.7207 z m 111.80078,0 13.53321,23.43945 -23.43946,13.53125 -13.5332,-23.4375 z m 48.92188,0 h 0.002 l 23.4375,13.53125 -6.76562,11.7207 -6.76758,11.72071 -23.43946,-13.53321 z m 111.80273,0 13.5332,23.43945 -9.77734,5.64454 -13.66211,7.88671 -13.5332,-23.4375 v -0.002 z m 209.64649,0 23.43945,13.5332 -0.68164,1.17774 -12.85156,22.25976 -19.16211,-11.06054 -4.27735,-2.47071 6.76758,-11.7207 z m 111.80078,0 13.5332,23.43945 -11.7207,6.76758 -11.71875,6.76563 -13.53321,-23.43946 z m 48.92187,0 23.43946,13.5332 -13.53125,23.4375 h -0.002 l -23.43945,-13.53125 5.19531,-9 z m 111.80274,0 13.5332,23.43945 -11.7207,6.76758 -11.71875,6.76563 -13.22657,-22.90625 -0.30859,-0.53321 z M 34.519531,708.9043 h 15.353516 l -3.837891,6.64843 -3.83789,6.64844 z m 160.724609,0 h 15.35352 l -3.83985,6.64843 -3.83789,6.64844 z m 160.72266,0 h 15.35351 l -7.67578,13.29687 h -0.002 z m 160.72461,0 h 15.35351 l -7.67578,13.29687 h -0.002 z m 160.72461,0 h 15.35156 l -3.83789,6.64843 -3.83789,6.64844 z m 160.72265,0 h 15.35352 l -3.83985,6.64843 -3.83593,6.64844 h -0.002 z m -656.75195,8 7.67773,13.29687 h -15.35351 z m 43.0664,0 7.67579,13.29687 h -15.35157 l 3.83594,-6.64844 z m 117.65821,0 3.83789,6.64843 3.83789,6.64844 h -15.35352 l 3.83985,-6.64844 z m 43.06445,0 h 0.002 l 7.67579,13.29687 H 377.5 l 3.83984,-6.64844 z m 278.38281,0 7.67774,13.29687 h -15.35352 l 3.83789,-6.64844 z m 160.72266,0 h 0.002 l 3.83789,6.64843 3.83789,6.64844 h -15.35351 l 3.83984,-6.64844 z m -760.552734,0.002 3.83789,6.64648 3.839844,6.64844 H 56.052734 Z m 439.107424,0 3.83594,6.64648 3.83984,6.64844 H 495.1582 l 3.83789,-6.64844 z m 43.06445,0 3.83789,6.64648 3.83984,6.64844 h -15.35351 z m 160.72266,0 3.83789,6.64648 3.83984,6.64844 h -15.35156 l 3.83594,-6.64844 z m 160.72461,0 3.83984,6.64648 3.83789,6.64844 H 859.67188 Z M 114.55859,730.52349 V 745.877 l -13.29687,-7.67578 v -0.002 z m 16,0 13.29688,7.67773 -13.29688,7.67774 z m 144.72266,0 V 745.877 l -13.29492,-7.67578 z m 16,0 6.64844,3.83984 6.64648,3.83789 -13.29492,7.67578 z m 144.72461,0 V 745.877 l -13.29492,-7.67578 v -0.002 z m 16,0 6.64844,3.83984 6.64648,3.83789 -13.29492,7.67578 z m 144.72461,0 V 745.877 l -13.29492,-7.67578 6.64648,-3.83789 z m 16,0 13.29492,7.67578 v 0.002 l -13.29492,7.67578 z m 144.72265,0 V 745.877 l -13.29492,-7.67578 6.64649,-3.83789 z m 16,0 13.29688,7.67773 -13.29688,7.67578 z m 144.72461,0 V 745.877 l -13.29492,-7.67578 6.64649,-3.83789 z m 16,0 13.29493,7.67773 -13.29493,7.67578 z M 56.052734,746.20117 H 71.40625 l -3.839844,6.64649 -3.83789,6.64843 z m 117.658206,0 h 15.35351 l -5.98242,10.36133 -1.69531,2.93555 z m 43.0664,0 h 15.35157 l -7.67579,13.29492 z m 117.65625,0 h 15.35352 l -3.52734,6.10938 -0.31055,0.53711 -3.83789,6.64843 z m 43.06641,0 h 15.35352 l -7.67579,13.29492 h -0.002 z m 117.6582,0 h 15.35352 l -7.67578,13.29492 z m 43.06641,0 h 15.35351 l -7.67578,13.29492 h -0.002 z m 117.6582,0 h 15.35352 l -3.83789,6.64649 -3.83985,6.64843 z m 43.06641,0 h 15.35156 l -7.67773,13.29492 z m 117.6582,0 h 15.35156 l -3.83789,6.64649 -3.83984,6.64843 z m 43.06446,0 h 15.35351 l -7.67773,13.29492 z m -771.482427,2.92774 h 0.002 l 23.439457,13.5332 -13.533207,23.43945 -23.439453,-13.5332 z m 68.736327,0 13.5332,23.43945 -23.43945,13.5332 -13.5332,-23.43945 z m 91.98828,0 23.43946,13.5332 -6.76758,11.7207 -6.76563,11.71875 -23.43945,-13.5332 6.76758,-11.7207 z m 68.73438,0 h 0.002 l 13.5332,23.43945 -8.27539,4.77734 -15.16406,8.75586 h -0.002 l -13.53321,-23.43945 z m 91.99023,0 23.43945,13.5332 -13.5332,23.43945 -23.43945,-13.5332 6.76562,-11.7207 z m 68.73438,0 13.5332,23.43945 -23.43945,13.5332 -13.53125,-23.43945 2.64453,-1.52734 z m 91.98828,0 h 0.002 l 23.4375,13.5332 -10.63867,18.42773 -2.89258,5.01172 -23.44141,-13.5332 z m 68.73633,0 13.5332,23.43945 -11.7207,6.76758 -11.71875,6.76562 -13.53321,-23.43945 z m 91.98828,0 23.43945,13.5332 -6.76758,11.7207 -6.76562,11.71875 -23.43946,-13.5332 9.7461,-16.88086 z m 68.73437,0 h 0.002 l 13.53125,23.43945 -11.72071,6.76758 -11.71875,6.76562 -13.5332,-23.43945 16.53125,-9.54492 z m 91.98828,0 h 0.002 l 23.4375,13.5332 -13.53321,23.43945 -23.43945,-13.5332 7.47852,-12.95117 z m 68.73633,0 13.5332,23.43945 -23.43945,13.5332 -13.5332,-23.43945 15.43359,-8.91016 z m -918.347654,5.07226 7.675781,13.29492 H 34.519531 Z m 160.722654,0 7.67578,13.29492 h -15.35156 z m 160.72266,0 h 0.002 l 7.67578,13.29492 H 355.9688 Z m 160.72461,0 h 0.002 l 5.98047,10.36133 1.69531,2.93359 h -15.35156 l 3.83789,-6.64843 z m 160.72461,0 7.67578,13.29492 h -15.35156 l 4.14843,-7.18554 z m 160.72265,0 h 0.002 l 3.83593,6.64649 2.14454,3.71484 1.69531,2.93359 h -15.35352 z m -723.25586,21.53321 7.67579,13.29492 h -15.35157 z m 160.72266,0 7.67578,13.29492 h -15.35156 z m 160.72461,0 3.83789,6.64843 3.83789,6.64649 h -15.35156 z m 160.72461,0 3.83789,6.64843 3.83789,6.64649 h -15.35156 l 3.83593,-6.64649 z m 160.72265,0 7.67579,13.29492 h -15.35157 l 3.83789,-6.64649 z m 160.72266,0 h 0.002 l 7.67579,13.29492 H 918.5 Z m -736.78906,7.76171 h 27.0664 v 27.06641 h -27.0664 z m 160.72461,0 h 27.0664 v 27.06641 h -27.0664 z m 160.72461,0 h 27.06445 v 27.06641 h -27.06445 z m 160.72265,0 h 27.06446 v 27.06641 h -27.06446 z m 160.72266,0 h 27.06641 v 27.06641 h -27.06641 z m -760.552734,5.85743 13.296875,7.67773 -6.648438,3.83594 -6.648437,3.83984 z m 101.658204,0 v 15.35351 l -13.29492,-7.67578 z m 59.0664,0 13.29493,7.67578 v 0.002 l -6.64649,3.83594 -6.64844,3.83984 z m 101.65821,0 v 15.35351 l -13.29688,-7.67578 v -0.002 z m 59.0664,0 13.29493,7.67578 v 0.002 l -6.64844,3.83594 -6.64649,3.83984 z m 101.65821,0 v 15.35351 l -13.29688,-7.67578 v -0.002 z m 59.06445,0 13.29688,7.67578 v 0.002 l -6.64844,3.83594 -6.64844,3.83984 z m 101.6582,0 v 15.35156 l -6.64843,-3.83789 -6.64649,-3.83594 v -0.002 z m 59.06446,0 13.29687,7.67578 -6.64648,3.83789 -6.65039,3.83984 z m 101.6582,0 v 15.35351 l -13.29492,-7.67578 v -0.002 z m 59.06641,0 13.29492,7.67578 -6.64649,3.83789 -3.44531,1.99023 -3.20312,1.84961 z M 109.02539,805.0293 h 27.06641 v 27.0664 h -27.06641 z m 160.72266,0 h 27.0664 v 27.0664 h -27.0664 z m 160.72461,0 h 27.0664 v 27.0664 h -27.0664 z m 160.72461,0 h 27.0664 v 27.0664 h -27.0664 z m 160.72461,0 h 27.06445 v 27.0664 h -27.06445 z m 160.72265,0 h 27.06641 v 27.0664 h -27.06641 z m -819.619139,5.85742 v 15.35351 L 79.728516,818.5625 Z m 59.066409,0 13.29492,7.67578 -6.64844,3.83984 -6.64648,3.83789 z m 101.65625,0 v 15.35156 l -13.29493,-7.67578 z m 59.0664,0 13.29493,7.67578 -13.29493,7.67773 z m 101.65821,0 v 15.35156 l -13.29493,-7.67578 z m 59.0664,0 13.29688,7.67578 -13.29688,7.67578 z m 101.65821,0 v 15.35351 l -13.29688,-7.67773 6.64844,-3.83789 z m 59.0664,0 6.10938,3.52734 0.53711,0.31055 6.64843,3.83789 -13.29492,7.67773 z m 101.65821,0 v 15.35351 L 722.625,818.5625 Z m 59.06445,0 13.29492,7.67578 -13.29492,7.67773 z m 101.6582,0 v 15.35351 l -13.29687,-7.67773 6.64843,-3.83789 z m 59.06641,0 13.29492,7.67578 -13.29492,7.67773 z M 34.519531,826.5625 h 15.353516 l -7.675781,13.29492 h -0.002 z m 160.722659,0 h 15.35547 l -3.83985,6.64844 -3.83789,6.64844 z m 160.72461,0 h 15.35351 l -7.67578,13.29492 -3.83984,-6.64648 z m 160.72461,0 h 15.35351 l -3.83789,6.64844 -3.83789,6.64648 h -0.002 z m 160.72265,0 h 15.35352 l -3.83789,6.64844 -3.83789,6.64648 z m 160.72461,0 h 15.35352 l -3.83985,6.64844 -3.83789,6.64648 z m -498.95703,2.92773 13.5332,23.43946 v 0.002 l -23.4375,13.53125 h -0.002 l -13.53125,-23.43945 17.91602,-10.34571 z m 160.72461,0 13.5332,23.43946 v 0.002 L 490,866.46289 476.4668,843.02344 Z m 160.72461,0 13.5332,23.43946 -14,8.08398 -9.43945,5.44922 -13.5332,-23.43945 z m 48.92187,0 23.43946,13.53516 -6.76563,11.71875 -6.76562,11.71875 h -0.002 l -23.4375,-13.5332 9.22461,-15.98047 z m -642.89648,0.002 23.441406,13.5332 -6.765625,11.71875 -6.767578,11.71875 L 53.125,852.92969 Z m 111.80273,0 13.53321,23.4375 v 0.002 l -14,8.08203 -9.43946,5.44922 -13.5332,-23.43945 z m 48.92188,0 11.91992,6.88086 11.51953,6.65039 -6.76562,11.7207 -6.76758,11.71875 -23.4375,-13.53125 v -0.002 z m 160.72461,0 23.43945,13.53125 v 0.002 l -6.76758,11.71875 -6.76562,11.71875 -23.43945,-13.5332 5.19531,-8.99805 z m 160.72461,0 23.4375,13.53125 -13.53125,23.43945 -23.43945,-13.53125 v -0.002 z m 272.52344,0 13.5332,23.4375 v 0.002 l -23.43945,13.53125 -13.53321,-23.4375 v -0.002 z m 48.92382,0 23.4375,13.53125 -6.76562,11.7207 -6.76563,11.71875 h -0.002 l -23.4375,-13.53125 v -0.002 z M 114.88281,848.0957 h 15.35157 l -7.67579,13.29492 -1.84961,-3.20117 z m 160.72266,0 h 15.35351 l -5.82812,10.09375 -1.84766,3.20313 h -0.002 z m 160.72461,0 h 15.35351 l -3.83984,6.64844 -3.83789,6.64844 z m 160.72265,0 h 15.35352 l -3.83789,6.64844 -3.83789,6.64844 z m 160.72461,0 h 15.35157 l -7.67579,13.29688 z m 160.72266,0 h 15.35352 l -7.67579,13.29492 z m -656.75195,8 h 0.002 l 3.83594,6.64844 3.83984,6.64844 h -15.35351 z m 43.0664,0 h 0.002 l 7.67578,13.29688 h -15.35352 z m 117.65821,0 3.83984,6.64844 3.83789,6.64844 h -15.35351 l 3.83789,-6.64844 z m 43.0664,0 7.67578,13.29688 h -15.35156 z m 117.65821,0 7.67578,13.29688 h -15.35352 l 3.83985,-6.64844 z m 43.06445,0 h 0.002 l 7.67578,13.29688 h -15.35351 z m 160.72461,0 3.83789,6.64844 3.83789,6.64844 h -15.35352 z m 160.72265,0 h 0.002 l 7.67578,13.29688 H 940.0332 Z m -846.68359,0.002 7.67578,13.29492 H 93.349609 Z m 43.06641,0 7.67578,13.29492 h -15.35352 l 1.84961,-3.20313 1.99024,-3.44531 z m 599.83008,0 3.83593,6.64648 3.83789,6.64844 h -15.35156 l 3.83789,-6.64844 z m 160.72265,0 7.67578,13.29492 H 896.9668 l 3.83789,-6.64844 z M 34.197266,869.71484 v 15.35352 l -13.296875,-7.67578 v -0.002 z m 16,0 13.294922,7.67578 v 0.002 l -13.294922,7.67578 z m 144.722654,0 v 15.35352 L 181.625,877.39258 v -0.002 z m 16,0 13.29688,7.67578 v 0.002 l -13.29688,7.67578 z m 144.72461,0 v 15.35352 l -13.29492,-7.67774 z m 16,0 13.29492,7.67578 v 0.002 l -13.29492,7.67578 z m 144.72266,0 v 15.35352 l -13.29492,-7.67578 v -0.002 z m 16,0 13.29687,7.67578 v 0.002 l -13.29687,7.67578 z m 144.72461,0 v 15.35352 l -13.29492,-7.67578 v -0.002 z m 16,0 13.29687,7.67578 v 0.002 l -13.29687,7.67578 z m 144.72265,0 v 15.35352 l -13.29492,-7.67578 v -0.002 z m 16,0 13.29493,7.67578 -13.29493,7.67774 z M 93.349609,885.39258 h 15.351561 l -7.67578,13.29492 z m 43.064451,0 h 15.35352 l -7.67578,13.29492 h -0.002 z m 117.65821,0 h 15.35351 l -3.83984,6.64648 -3.83594,6.64844 h -0.002 z m 43.0664,0 h 15.35352 l -3.83985,6.64648 -3.83593,6.64844 h -0.002 z m 117.65821,0 h 15.35351 l -3.83789,6.64648 -3.83984,6.64844 z m 43.0664,0 h 15.35156 l -7.67578,13.29492 z m 117.65625,0 h 15.35352 l -7.67578,13.29492 z m 43.06641,0 h 15.35351 l -7.67578,13.29492 h -0.002 z m 117.6582,0 h 15.35156 l -3.83789,6.64648 -3.83593,6.64844 h -0.002 z m 43.06641,0 h 15.35156 l -3.83789,6.64648 -3.83789,6.64844 z m 117.65625,0 h 15.35351 l -7.67578,13.29492 h -0.002 z m 43.06836,0 h 15.35156 l -7.67578,13.29492 h -0.002 z m -863.470707,2.92773 13.533203,23.43946 -23.439453,13.5332 h -0.002 L 53.125,901.85352 v -0.002 z m 91.988277,0 23.43946,13.53125 -13.53321,23.44141 -23.43945,-13.5332 6.76563,-11.72071 z m 68.73438,0 13.5332,23.43946 -11.71875,6.76757 -11.7207,6.76563 -13.5332,-23.43945 20.11914,-11.61719 z m 91.99023,0 23.43946,13.53125 -13.53321,23.44141 h -0.002 l -23.4375,-13.5332 z m 68.73438,0 13.5332,23.43946 -23.43945,13.5332 -13.5332,-23.43945 v -0.002 z m 91.98828,0 23.43945,13.53125 v 0.002 l -13.5332,23.43945 -23.43945,-13.5332 10.88086,-18.84766 z m 68.73438,0 13.53515,23.43946 -11.7207,6.76757 -11.71875,6.76563 h -0.002 l -13.53124,-23.43945 20.11718,-11.61719 z m 91.99023,0 23.43945,13.53125 v 0.002 l -13.5332,23.43945 -23.43945,-13.5332 10.88086,-18.84766 z m 68.73437,0 13.53516,23.43946 -11.7207,6.76757 -11.72071,6.76563 -12.24023,-21.20313 -1.29297,-2.23632 20.11914,-11.61719 z m 91.98829,0 23.43945,13.53125 v 0.002 l -13.5332,23.43945 -23.43946,-13.5332 10.88086,-18.84766 z m 68.73437,0 13.53516,23.43946 -11.72071,6.76757 -11.7207,6.76563 -13.5332,-23.44141 z m -757.62305,5.07227 7.67579,13.29492 h -15.35157 z m 160.72266,0 h 0.002 l 5.98047,10.36133 1.69531,2.93359 h -15.35351 z m 160.72461,0 3.83789,6.64648 3.83789,6.64844 h -15.35156 z m 160.72461,0 3.83789,6.64648 3.83789,6.64844 h -15.35352 z m 160.72265,0 3.52735,6.10937 4.14844,7.18555 h -15.35157 z m 160.72266,0 h 0.002 l 7.67579,13.29492 H 918.5 Z m -883.980468,21.5332 7.677735,13.29492 H 34.519531 Z m 160.724608,0 7.67578,13.29492 h -15.35156 z m 160.72461,0 7.67578,13.29492 h -15.35156 z m 160.72266,0 h 0.002 l 7.67383,13.29492 h -15.34961 z m 160.72461,0 7.67578,13.29492 h -15.35156 z m 160.72265,0 7.67578,13.29492 h -15.35156 z m -736.78906,7.76172 h 27.06641 v 27.06641 h -27.06641 z m 160.72266,0 h 27.0664 v 27.06641 h -27.0664 z m 160.72461,0 h 27.0664 v 27.06641 h -27.0664 z m 160.72461,0 h 27.0664 v 27.06641 h -27.0664 z m 160.72461,0 h 27.06445 v 27.06641 h -27.06445 z m 160.72265,0 h 27.06641 v 27.06641 h -27.06641 z m -819.619139,5.85742 v 15.35156 L 79.728516,936.2207 Z m 59.066409,0 13.29492,7.67578 -13.29492,7.67578 z m 101.65625,0 v 15.35156 l -13.29493,-7.67578 z m 59.0664,0 13.29688,7.67578 -6.64844,3.83789 -6.64844,3.83789 z m 101.65821,0 v 15.35156 l -13.29493,-7.67578 z m 59.0664,0 13.29492,7.67578 -6.64648,3.83789 -6.64844,3.83789 z m 101.65821,0 v 15.35156 l -13.29688,-7.67578 z m 59.0664,0 13.29492,7.67578 -6.64843,3.83789 -6.64649,3.83789 z m 101.65821,0 v 15.35352 l -13.29688,-7.67774 6.64844,-3.83789 z m 59.06445,0 13.29492,7.67578 -6.64844,3.83789 -6.64648,3.83789 z m 101.6582,0 v 15.35156 l -13.29687,-7.67578 z m 59.06641,0 13.29492,7.67578 -13.29492,7.67578 z m -621.59961,21.53125 v 15.35352 l -13.29492,-7.67578 z m 59.0664,0 13.29493,7.67578 v 0.002 l -13.29493,7.67578 z m 101.65821,0 v 15.35352 l -13.29492,-7.67578 z m 59.06445,0 13.29688,7.67578 v 0.002 l -13.29688,7.67578 z m 160.72266,0 8.00976,4.62305 5.28711,3.05469 -13.29687,7.67578 z m 160.72461,0 13.29687,7.67578 v 0.002 l -13.29687,7.67578 z m -803.619144,0.002 13.294922,7.67579 -13.294922,7.67578 z m 101.658204,0 v 15.35157 l -13.29492,-7.67578 v -0.002 z m 59.0664,0 13.29493,7.67383 v 0.002 l -13.29493,7.67578 z m 423.10547,0 v 15.35157 l -13.29492,-7.67578 z m 160.72266,0 v 15.35157 l -13.29492,-7.67578 z m -701.39844,15.67579 h 15.35157 l -7.67579,13.29492 z m 160.72266,0 h 15.35156 l -7.67578,13.29492 z m 160.72461,0 h 15.35156 l -7.67578,13.29687 z m 160.72461,0 h 15.35156 l -7.67578,13.29687 z m 160.72265,0 h 15.35157 l -7.67579,13.29687 z m 160.72461,0 h 15.35157 l -7.67579,13.29492 z"
     id="path836" />
</svg>
