<?xml version="1.0" encoding="UTF-8" standalone="no"?>
<svg
   xmlns:dc="http://purl.org/dc/elements/1.1/"
   xmlns:cc="http://creativecommons.org/ns#"
   xmlns:rdf="http://www.w3.org/1999/02/22-rdf-syntax-ns#"
   xmlns:svg="http://www.w3.org/2000/svg"
   xmlns="http://www.w3.org/2000/svg"
   xmlns:sodipodi="http://sodipodi.sourceforge.net/DTD/sodipodi-0.dtd"
   xmlns:inkscape="http://www.inkscape.org/namespaces/inkscape"
   inkscape:version="1.0.1 (3bc2e813f5, 2020-09-07)"
   sodipodi:docname="4-uniform_105.svg"
   id="c:\kuniform\4u\4-uniform_105.svg"
   height="1000.0"
   width="997.2634"
   version="1.0">
  <style
     id="style2216" />
  <metadata
     id="metadata2214">
    <rdf:RDF>
      <cc:Work
         rdf:about="">
        <dc:format>image/svg+xml</dc:format>
        <dc:type
           rdf:resource="http://purl.org/dc/dcmitype/StillImage" />
        <dc:title />
      </cc:Work>
    </rdf:RDF>
  </metadata>
  <defs
     id="defs2212" />
  <sodipodi:namedview
     inkscape:current-layer="c:\kuniform\4u\4-uniform_105.svg"
     inkscape:window-maximized="1"
     inkscape:window-y="-9"
     inkscape:window-x="-9"
     inkscape:cy="464.92496"
     inkscape:cx="563.93137"
     inkscape:zoom="0.69291209"
     showgrid="false"
     id="namedview2210"
     inkscape:window-height="1001"
     inkscape:window-width="1920"
     inkscape:pageshadow="2"
     inkscape:pageopacity="0"
     guidetolerance="10"
     gridtolerance="10"
     objecttolerance="10"
     borderopacity="1"
     inkscape:document-rotation="0"
     bordercolor="#666666"
     pagecolor="#ffffff" />
  <!-- X Coordinate transform: fx(x)=(x+72.17139)*0.87147266-->
  <!-- Y Coordinate transform: fy(y)=(1077.0908-y)*0.87147266 -->
  <path
     style="color:#000000;font-style:normal;font-variant:normal;font-weight:normal;font-stretch:normal;font-size:medium;line-height:normal;font-family:sans-serif;font-variant-ligatures:normal;font-variant-position:normal;font-variant-caps:normal;font-variant-numeric:normal;font-variant-alternates:normal;font-variant-east-asian:normal;font-feature-settings:normal;font-variation-settings:normal;text-indent:0;text-align:start;text-decoration:none;text-decoration-line:none;text-decoration-style:solid;text-decoration-color:#000000;letter-spacing:normal;word-spacing:normal;text-transform:none;writing-mode:lr-tb;direction:ltr;text-orientation:mixed;dominant-baseline:auto;baseline-shift:baseline;text-anchor:start;white-space:normal;shape-padding:0;shape-margin:0;inline-size:0;clip-rule:nonzero;display:inline;overflow:visible;visibility:visible;isolation:auto;mix-blend-mode:normal;color-interpolation:sRGB;color-interpolation-filters:linearRGB;solid-color:#000000;solid-opacity:1;vector-effect:none;fill:#000000;fill-opacity:1;fill-rule:nonzero;stroke:none;stroke-width:16;stroke-linecap:butt;stroke-linejoin:miter;stroke-miterlimit:4;stroke-dasharray:none;stroke-dashoffset:0;stroke-opacity:1;color-rendering:auto;image-rendering:auto;shape-rendering:auto;text-rendering:auto;enable-background:accumulate;stop-color:#000000"
     d="M 119.98242,-1.9765625 84.101562,18.736328 H 42.673828 v 8 l -6.929687,-4 -21.78711,37.736328 6.929688,4 -6.929688,4 17.78711,30.808594 -30.806641,17.78711 4,6.92773 -4,6.92774 30.806641,17.78711 -17.78711,30.80859 6.929688,4 -6.929688,4 17.78711,30.80664 -30.806641,17.78711 4,6.92774 -4,6.92773 30.806641,17.78711 -17.78711,30.80859 6.929688,4 -6.929688,4 17.789063,30.80664 -30.808594,17.78711 4,6.92774 -4,6.92968 30.808594,17.78711 -17.789063,30.80665 6.929688,4 -6.929688,4 17.789063,30.80664 -30.808594,17.7871 4,6.92969 -4,6.92774 30.806641,17.78711 -17.78711,30.80664 6.929688,4 -6.929688,4 17.78711,30.80859 -30.806641,17.78516 4,6.92773 -4,6.92969 30.806641,17.78711 -17.78711,30.80664 6.929688,4 -6.929688,4 17.78711,30.80859 -30.806641,17.78711 4,6.92774 -4,6.92773 30.808594,17.78711 -17.789063,30.80664 6.929688,4 -6.929688,4 17.78711,30.80859 -30.806641,17.78711 4,6.92774 -4,6.92773 30.808594,17.78711 -17.789063,30.8086 6.929688,4 -6.929688,4 17.789063,30.80859 -30.808594,17.78711 4,6.92773 -4,6.92774 39.591797,22.85742 h 47.859375 l 32.666018,-18.85742 17.78711,30.80664 6.92773,-4 6.92774,4 14.85742,-25.73438 14.85937,25.73438 6.92969,-4 6.92773,4 17.78711,-30.80664 32.66211,18.85742 h 47.86133 l 41.44922,-23.92969 20.54883,-35.5918 h 34.33594 l 20.54882,35.5918 41.44922,23.92969 h 47.86133 l 32.66406,-18.85742 17.78711,30.80664 6.92774,-4 6.92773,4 14.85938,-25.73633 14.85937,25.73633 6.92774,-4 6.92773,4 17.78711,-30.80664 32.66406,18.85742 h 47.85938 l 41.44922,-23.92969 20.54882,-35.5918 h 34.33789 l 20.54883,35.5918 41.44727,23.92969 h 47.86133 l 37.73632,-21.78516 h 41.42969 v -8 l 6.92969,-4 -20.7168,-35.88281 v -43.57031 l -20.54883,-35.59375 20.54883,-35.5918 v -43.57031 l 23.02544,-39.88281 -23.02544,-39.88086 v -43.57227 l -20.54883,-35.5918 20.54883,-35.59179 V 521.01367 L 1001.5645,481.13281 978.53906,441.25 v -43.57031 l -20.54883,-35.59375 20.54883,-35.5918 v -43.57226 l 23.02544,-39.88086 -23.02544,-39.88086 v -43.57227 l -20.54883,-35.5918 20.54883,-35.591793 V 40.542969 l -22.85742,-39.59179712 -6.92773,4.00000002 -4,-6.9277344 -35.88086,20.7128905 h -39.28711 l -35.87891,-20.7128905 -4,6.9277344 L 822.7793,0.95117188 803.30273,34.685547 h -34.33789 l -19.47656,-33.73437512 -6.92773,4.00000002 -4,-6.9277344 -35.88086,20.7128905 h -39.28711 l -35.87696,-20.7128905 -4,6.9277344 L 616.58594,0.95117188 601.72852,26.685547 586.86914,0.95117188 579.94141,4.9511719 573.01367,0.95117188 558.1543,26.685547 543.29688,0.95117188 l -6.92969,4.00000002 -4,-6.9277344 -35.87891,20.7128905 h -39.28711 l -35.8789,-20.7128905 -4,6.9277344 -6.92774,-4.00000002 -19.47656,33.73437512 h -34.33789 l -19.47656,-33.73437512 -6.92774,4.00000002 -4,-6.9277344 -35.8789,20.7128905 h -39.28907 l -35.87695,-20.7128905 -4,6.9277344 L 204.20117,0.95117188 189.34375,26.685547 174.48438,0.95117188 167.55469,4.9511719 160.62695,0.95117188 145.76953,26.685547 130.91016,0.95117188 123.98242,4.9511719 Z m 1.07227,17.8554685 13.78711,23.878906 -23.88086,13.78711 -13.787112,-23.88086 z m 93.0039,0 23.87891,13.78711 -13.78711,23.878906 -23.87891,-13.78711 z m 113.1875,0 13.78711,23.878906 -23.8789,13.78711 -13.78516,-23.878906 z m 93.00391,0 23.87891,13.78711 -13.78711,23.878906 -23.87891,-13.78711 z m 113.18945,0 13.78711,23.878906 -23.8789,13.78711 -13.78711,-23.88086 z m 93.00391,0 23.87891,13.78711 -13.78711,23.878906 -23.87891,-13.78711 z m 113.18945,0 13.78516,23.878906 -23.87891,13.78711 -13.78711,-23.88086 z m 93.00391,0 23.8789,13.78711 -13.7871,23.878906 -23.87891,-13.78711 z m 113.1875,0 13.78711,23.878906 -23.87891,13.78711 -13.78711,-23.88086 z m -365.88281,5.070313 7.93164,13.736328 h -15.86328 z m -412.38477,0.002 7.92969,13.734375 H 159.62695 Z M 47.292969,34.736328 H 81.626953 L 98.794922,64.472656 81.626953,94.208984 H 47.292969 L 30.123047,64.472656 Z m 206.191411,0 h 34.33593 l 17.16797,29.736328 -17.16797,29.736328 H 253.48438 L 236.31641,64.472656 Z m 206.19335,0 h 34.33399 l 17.16992,29.736328 -17.16797,29.736328 H 459.67773 L 442.50781,64.472656 Z m 206.19141,0 h 34.33594 l 17.16797,29.736328 -17.16797,29.736328 H 665.87109 L 648.70117,64.472656 Z m 206.19336,0 h 34.33398 l 17.16993,29.736328 -17.16797,29.736328 H 872.0625 L 854.89453,64.472656 Z M 153.76953,50.685547 h 27.57422 v 27.574219 h -27.57422 z m 206.19336,0 h 27.57227 v 27.574219 h -27.57227 z m 206.19141,0 h 27.57422 V 78.259766 H 566.1543 Z m 206.19336,0 h 27.57422 V 78.259766 H 772.34766 Z M 137.76953,56.541016 V 72.404297 L 124.0332,64.472656 Z m 206.19336,0 v 15.863281 l -13.73633,-7.931641 z m 412.38477,0 v 15.863281 l -13.73828,-7.931641 z m -559.00391,0.002 13.73437,7.929687 -13.73437,7.929688 z m 206.19141,0 13.73632,7.929687 -13.73632,7.931641 z m 146.61914,0 v 15.861328 l -13.73633,-7.931641 z m 59.57422,0 13.73437,7.929687 -13.73437,7.929688 z m 206.19336,0 13.73632,7.929687 -13.73632,7.931641 z m 146.61718,0 V 72.404297 L 948.80273,64.472656 Z M 110.96094,75.402344 134.8418,89.189453 121.05273,113.06641 97.173828,99.28125 Z m 113.18945,0 13.78711,23.876953 -23.87891,13.787113 -13.78711,-23.87891 z m 93.00391,0 23.8789,13.785156 -13.78711,23.87891 -23.8789,-13.78516 z m 113.1875,0 L 444.12891,99.28125 420.25,113.06641 406.46289,89.189453 Z m 93.00586,0 23.8789,13.787109 -13.78711,23.876957 -23.8789,-13.78516 z m 113.1875,0 13.78711,23.878906 -23.87891,13.78516 -13.78711,-23.87891 z m 93.0039,0 23.88086,13.787109 -13.78906,23.876957 -23.87891,-13.78516 z m 113.18946,0 13.7871,23.876953 -23.8789,13.787113 -13.78711,-23.876957 z m 93.0039,0 23.87891,13.785156 -13.78711,23.88086 -23.87891,-13.78711 z M 150.38867,94.259766 h 34.33594 l 17.16797,29.736324 -17.16797,29.73633 h -34.33594 l -17.16992,-29.73633 z m 215.42969,0 h 15.85937 l -7.92968,13.734374 z m 196.95508,0 h 34.33594 l 17.16796,29.736324 -17.16796,29.73633 h -34.33594 l -17.16797,-29.73633 z m 215.42968,0 h 15.86133 l -7.93164,13.736324 z m -426.24023,8.000004 7.92969,13.73632 h -15.86133 z m 43.57227,0 7.92968,13.73632 h -15.85937 z m 412.38672,0 7.92968,13.73632 h -15.86133 z m -43.57422,0.002 7.92968,13.73437 H 756.41602 Z M 50.673828,110.20898 H 78.246094 V 137.7832 H 50.673828 Z m 206.191402,0 h 27.57422 v 27.57422 h -27.57422 z m 206.19336,0 h 27.57422 v 27.57422 h -27.57422 z m 206.19336,0 h 27.57227 v 27.57422 h -27.57227 z m 206.19141,0 h 27.57422 v 27.57422 h -27.57422 z m -840.769532,5.85547 v 15.86328 L 20.9375,123.99609 Z m 206.191402,0 v 15.86133 l -13.73632,-7.92969 z m 206.19336,0 v 15.86328 l -13.73632,-7.93164 z m 206.19336,0 v 15.86328 l -13.73633,-7.93164 z m 206.19141,0 v 15.86328 l -13.73633,-7.93164 z m -765.197266,0.002 13.734376,7.92968 -13.734376,7.92969 z m 206.193356,0 13.73633,7.92968 -13.73633,7.92969 z m 206.19336,0 13.73438,7.92968 -13.73438,7.92969 z m 206.19141,0 13.73437,7.92968 -13.73437,7.92969 z m 206.19336,0 13.73437,7.92968 -13.73437,7.92969 z m -574.98633,15.92968 h 15.86133 l -7.92969,13.73438 z m 43.57422,0 h 15.85937 l -7.92968,13.73633 z m 368.81055,0 h 15.86132 l -7.92968,13.73438 z m 43.57421,0 h 15.86133 l -7.92968,13.73633 z m -678.9375,2.92774 13.78907,23.8789 -23.88086,13.78711 -13.787112,-23.8789 z m 93.00586,0 23.87891,13.78711 -13.78711,23.8789 -23.87891,-13.78515 z m 113.18946,0 13.78711,23.8789 -23.88086,13.78711 -13.78711,-23.8789 z m 93.00195,0 23.87891,13.78711 -13.78711,23.8789 -23.87891,-13.78515 z m 113.18945,0 13.78711,23.8789 -23.8789,13.78711 -13.78711,-23.8789 z m 93.00391,0 23.87891,13.78711 -13.78711,23.8789 -23.87891,-13.78515 z m 113.1875,0 13.78906,23.8789 -23.88086,13.78711 -13.78711,-23.8789 z m 93.00586,0 23.8789,13.78711 -13.7871,23.8789 -23.87891,-13.78515 z m 113.1875,0 13.78711,23.88086 -23.87891,13.78515 -13.78711,-23.8789 z m -572.07422,5.07226 7.92969,13.73633 h -15.86133 z m 412.38281,0 7.93164,13.73633 H 778.20312 Z M 47.292969,153.7832 h 34.333984 l 17.167969,29.73438 -17.167969,29.73633 H 47.292969 L 30.123047,183.51953 Z m 206.191411,0 h 34.33593 l 17.16797,29.73438 -17.16797,29.73633 h -34.33593 l -17.16797,-29.73438 z m 206.1914,0 h 34.33789 l 17.16797,29.73438 -17.16797,29.73633 h -34.33594 l -17.16992,-29.73633 z m 206.19336,0 h 34.33594 l 17.16797,29.73438 -17.16797,29.73633 h -34.33399 l -17.16992,-29.73633 z m 206.19336,0 h 34.33594 l 17.16797,29.73438 -17.16797,29.73633 H 872.0625 l -17.16797,-29.73438 z m -718.29297,15.94922 h 27.57422 v 27.57227 h -27.57422 z m 206.19336,0 h 27.57227 v 27.57227 h -27.57227 z m 206.19141,0 h 27.57422 v 27.57227 H 566.1543 Z m 206.19336,0 h 27.57422 v 27.57227 h -27.57422 z m -634.57813,5.85547 v 15.86133 l -13.73633,-7.93164 z m 206.19336,0 v 15.86133 l -13.73633,-7.92969 z m 206.19141,0 v 15.86133 l -13.73438,-7.93164 z m 206.19336,0 v 15.86133 l -13.73633,-7.92969 z m 206.1914,0 v 15.86133 l -13.73437,-7.93164 z m -765.19531,0.002 13.73437,7.92969 -13.73437,7.92969 z m 206.19141,0 13.73437,7.92969 -13.73437,7.92969 z m 206.19336,0 13.73437,7.92969 -13.73437,7.92969 z m 206.19336,0 13.73437,7.92969 -13.73437,7.92774 z m -704.96094,18.85743 23.8789,13.78515 -13.78515,23.88086 -23.880862,-13.78711 z m 113.18945,0 13.78711,23.8789 -23.87891,13.78711 -13.78711,-23.8789 z m 93.00391,0 23.88086,13.78711 -13.78907,23.8789 -23.8789,-13.78711 z m 113.1875,0 13.78906,23.8789 -23.88086,13.78711 -13.78711,-23.88086 z m 93.00586,0 23.8789,13.78515 -13.78711,23.88086 -23.8789,-13.78711 z m 113.1875,0 13.78711,23.8789 -23.87891,13.78711 -13.78711,-23.8789 z m 93.0039,0 23.88086,13.78711 -13.78906,23.8789 -23.87891,-13.78711 z m 113.18946,0 13.7871,23.8789 -23.8789,13.78711 -13.78711,-23.88086 z m 93.0039,0 23.87891,13.78711 -13.78711,23.8789 -23.87891,-13.78711 z M 159.625,213.30469 h 15.86133 l -7.92969,13.73633 z m 196.95703,0 h 34.33399 l 17.16796,29.73633 -17.16796,29.73632 h -34.33399 l -17.16992,-29.73632 z m 215.42774,0 h 15.86132 l -7.92968,13.73633 z m 196.95703,0 h 34.33593 l 17.16797,29.73633 -17.16797,29.73632 H 768.9668 l -17.16992,-29.73632 z m -623.19727,8 7.92969,13.73633 h -15.86133 z m 43.57422,0 7.92969,13.73633 h -15.86133 z m 368.81055,0 7.93164,13.73633 h -15.86133 z m 43.57422,0 7.92968,13.73633 h -15.86132 z m 368.81054,0 7.93164,13.73633 h -15.86132 z m -919.865232,7.94922 h 27.572266 v 27.57421 H 50.673828 Z m 206.191402,0 h 27.57422 v 27.57421 h -27.57422 z m 206.19336,0 h 27.57422 v 27.57421 h -27.57422 z m 206.19336,0 h 27.57227 v 27.57421 h -27.57227 z m 206.19141,0 h 27.57422 v 27.57421 h -27.57422 z m -840.769532,5.85547 v 15.86328 L 20.9375,243.04102 Z m 206.191402,0 v 15.86328 l -13.73632,-7.93164 z m 206.19336,0 v 15.86328 l -13.73828,-7.93164 z m 206.19336,0 v 15.86328 l -13.73633,-7.93164 z m 206.19141,0 v 15.86328 l -13.73633,-7.93164 z m -765.197266,0.002 13.736326,7.92969 -13.736326,7.92968 z m 206.193356,0 13.73633,7.92969 -13.73633,7.93164 z m 206.19336,0 13.73633,7.92969 -13.73633,7.92968 z m 206.19141,0 13.73633,7.92969 -13.73633,7.92968 z m 206.19336,0 13.73633,7.92969 -13.73633,7.92968 z m -781.17969,15.92969 h 15.86133 l -7.92969,13.73437 z m 43.57422,0 h 15.86133 l -7.92969,13.73632 z m 368.8125,0 h 15.86133 l -7.93164,13.73632 z m 43.57227,0 h 15.86132 l -7.92968,13.73632 z m 368.8125,0 h 15.86132 l -7.93164,13.73632 z m -841.55469,2.92773 13.78711,23.87891 -23.88086,13.78711 -13.787112,-23.87891 z m 93.0039,0 23.87891,13.78711 -13.78711,23.87891 -23.87891,-13.78516 z m 113.1875,0 13.78907,23.87891 -23.88086,13.78711 -13.78711,-23.87891 z m 93.00391,0 23.87891,13.78711 -13.78711,23.87891 -23.87891,-13.78516 z m 113.18945,0 13.78711,23.87891 -23.8789,13.78711 -13.78711,-23.87891 z m 93.00391,0 23.87891,13.78711 -13.78711,23.87891 -23.87891,-13.78516 z m 113.1875,0 13.78906,23.87891 -23.88086,13.78711 -13.78711,-23.87891 z m 93.00586,0 23.8789,13.78711 -13.7871,23.87891 -23.87891,-13.78516 z m 113.1875,0 13.78711,23.87891 -23.87891,13.78711 -13.78711,-23.87891 z m -778.26953,5.07227 7.93164,13.73632 H 159.625 Z m 412.38672,0 7.93164,13.73632 H 572.00977 Z M 47.292969,272.82812 H 81.626953 L 98.794922,302.5625 81.626953,332.30078 H 47.292969 L 30.123047,302.56445 Z m 206.191411,0 h 34.33593 l 17.16797,29.73438 -17.16797,29.73828 H 253.48438 L 236.31641,302.5625 Z m 206.1914,0 h 34.33789 l 17.16797,29.73438 -17.16797,29.73828 H 459.67773 L 442.50781,302.5625 Z m 206.19336,0 h 34.33594 l 17.16797,29.73633 -17.16797,29.73633 H 665.87109 L 648.70117,302.5625 Z m 206.19336,0 h 34.33594 l 17.16797,29.73438 -17.16797,29.73828 H 872.0625 L 854.89453,302.5625 Z m -718.29297,15.94922 h 27.57422 v 27.57422 h -27.57422 z m 206.19336,0 h 27.57227 v 27.57422 h -27.57227 z m 206.19141,0 h 27.57422 v 27.57422 H 566.1543 Z m 206.19336,0 h 27.57422 v 27.57422 h -27.57422 z m -634.57813,5.85547 v 15.86328 l -13.73633,-7.93164 z m 206.19336,0 v 15.86133 l -13.73633,-7.93164 z m 206.19141,0 v 15.86133 l -13.73633,-7.92969 z m 206.19336,0 v 15.86328 l -13.73633,-7.93164 z m 206.1914,0 v 15.86133 l -13.73437,-7.92969 z m -765.19531,0.002 13.73437,7.92968 -13.73437,7.92969 z m 206.19141,0 13.73437,7.92968 -13.73437,7.92969 z m 206.19336,0 13.73437,7.92968 -13.73437,7.92969 z m 206.19336,0 13.73437,7.92968 -13.73437,7.92969 z m -704.96094,18.85742 23.8789,13.78711 -13.78711,23.8789 -23.878902,-13.78515 z m 113.18945,0 13.78711,23.8789 -23.87891,13.78711 -13.78711,-23.8789 z m 93.00391,0 23.8789,13.78711 -13.78711,23.8789 -23.8789,-13.78515 z m 113.1875,0 13.78906,23.8789 L 420.25,351.1582 406.46289,327.2793 Z m 93.00586,0 23.8789,13.78711 -13.78711,23.8789 -23.8789,-13.78515 z m 113.1875,0 13.78906,23.8789 -23.88086,13.78711 -13.78711,-23.8789 z m 93.0039,0 23.87891,13.78711 -13.78711,23.8789 -23.87891,-13.78515 z m 113.18946,0 13.7871,23.8789 -23.8789,13.78907 -13.78711,-23.88086 z m 93.0039,0 23.87891,13.78711 -13.78711,23.8789 -23.87891,-13.78515 z m -785.3457,18.85937 h 34.33789 l 17.16797,29.73438 -17.16797,29.73633 h -34.33789 l -17.16797,-29.73633 z m 215.43359,0 h 15.85742 l -7.92968,13.73438 z m 196.95313,0 h 34.33594 l 17.16796,29.73438 -17.16796,29.73633 h -34.33594 l -17.16797,-29.73633 z m 215.42968,0 h 15.86133 l -7.92968,13.73633 z m -426.24023,8 7.92969,13.73633 h -15.86133 z m 43.57227,0 7.92968,13.73633 h -15.85937 z m 368.81054,0 7.93164,13.73633 h -15.86132 z m 43.57422,0 7.93164,13.73633 h -15.86133 z m -757.246092,7.94922 h 27.572266 v 27.57227 H 50.673828 Z m 206.191402,0 h 27.57422 v 27.57227 h -27.57422 z m 206.19336,0 h 27.57422 v 27.57227 h -27.57422 z m 206.19336,0 h 27.57227 v 27.57227 h -27.57227 z m 206.19141,0 h 27.57422 v 27.57227 h -27.57422 z m -840.769532,5.85547 v 15.86133 L 20.9375,362.08594 Z m 206.191402,0 v 15.86133 l -13.73632,-7.93164 z m 206.19336,0 v 15.86133 l -13.73632,-7.93164 z m 206.19336,0 v 15.86133 l -13.73633,-7.93164 z m 206.19141,0 v 15.86133 l -13.73438,-7.93164 z m -765.197266,0.002 13.734376,7.92774 -13.734376,7.92968 z m 206.193356,0 13.73438,7.92969 -13.73438,7.92773 z m 206.19336,0 13.73438,7.92774 -13.73438,7.92968 z m 206.19141,0 13.73437,7.92774 -13.73437,7.92968 z m 206.19336,0 13.73437,7.92774 -13.73437,7.92968 z m -574.98633,15.92969 h 15.86133 l -7.93164,13.73438 z m 43.57422,0 h 15.85937 l -7.92968,13.73438 z m 368.81055,0 h 15.86132 l -7.93164,13.73438 z m 43.57421,0 h 15.86133 l -7.92968,13.73438 z m -678.9375,2.92773 13.78711,23.87891 -23.8789,13.78516 -13.787112,-23.87891 z m 93.00586,0 23.87891,13.78711 -13.78711,23.87696 -23.87891,-13.78516 z m 113.1875,0 13.78711,23.87891 -23.8789,13.78516 -13.78711,-23.87891 z m 93.00391,0 23.88086,13.78711 -13.78906,23.87696 -23.87891,-13.78516 z m 113.18945,0 13.78516,23.87891 -23.87695,13.78516 -13.78711,-23.87891 z m 93.00391,0 23.88086,13.78711 -13.78906,23.87696 -23.87891,-13.78516 z m 113.1875,0 13.78711,23.87891 -23.87891,13.78516 -13.78711,-23.87891 z m 93.00586,0 23.8789,13.78711 -13.7871,23.87696 -23.87891,-13.78516 z m 113.1875,0 13.78711,23.87891 -23.87891,13.78516 -13.78711,-23.87891 z m -572.07422,5.07227 7.92969,13.73438 h -15.86133 z m 412.38281,0 7.93164,13.73438 H 778.20312 Z M 47.292969,391.87305 H 81.626953 L 98.794922,421.60938 81.626953,451.3457 H 47.292969 L 30.123047,421.60938 Z m 206.191411,0 h 34.33593 l 17.16797,29.73633 -17.16797,29.73632 h -34.33593 l -17.16797,-29.73632 z m 206.19335,0 h 34.33594 l 17.16797,29.73633 -17.16797,29.73632 h -34.33594 l -17.16992,-29.73632 z m 206.19336,0 h 34.33399 l 17.16797,29.73633 -17.16797,29.73632 h -34.33399 l -17.16992,-29.73632 z m 206.19141,0 h 34.33594 l 17.16797,29.73633 -17.16797,29.73632 H 872.0625 l -17.16797,-29.73632 z m -718.29297,15.94922 h 27.57422 v 27.57421 h -27.57422 z m 206.19336,0 h 27.57227 v 27.57421 h -27.57227 z m 206.19141,0 h 27.57422 v 27.57421 H 566.1543 Z m 206.19336,0 h 27.57422 v 27.57421 h -27.57422 z m -634.57813,5.85546 v 15.86329 l -13.73633,-7.93164 z m 206.19336,0 v 15.86329 l -13.73633,-7.93164 z m 206.19141,0 v 15.86329 l -13.73633,-7.93164 z m 206.19336,0 v 15.86329 l -13.73633,-7.93164 z m -559.00391,0.002 13.73437,7.92969 -13.73437,7.92968 z m 206.19141,0 13.73632,7.92969 -13.73632,7.92968 z m 206.19336,0 13.73437,7.92969 -13.73437,7.92968 z m 206.19336,0 13.73437,7.92969 -13.73437,7.92968 z m 146.61718,0 v 15.85937 l -13.73437,-7.92968 z m -851.57812,18.85742 23.8789,13.78711 -13.78515,23.88086 -23.880862,-13.78711 z m 113.18945,0 13.78711,23.87891 -23.87891,13.7871 -13.78711,-23.8789 z m 93.00391,0 23.8789,13.78711 -13.78711,23.8789 -23.8789,-13.78515 z m 113.1875,0 13.78906,23.87891 -23.88086,13.7871 -13.78711,-23.8789 z m 93.00586,0 23.8789,13.78711 -13.78711,23.8789 -23.8789,-13.78515 z m 113.1875,0 13.78906,23.87891 -23.88086,13.78906 -13.78711,-23.88086 z m 93.0039,0 23.87891,13.78711 -13.78711,23.8789 -23.87891,-13.78515 z m 113.18946,0 13.7871,23.87891 -23.8789,13.7871 -13.78711,-23.8789 z m 93.0039,0 23.87891,13.78711 -13.78711,23.8789 -23.87891,-13.78515 z m -776.10547,18.85937 h 15.85938 l -7.92969,13.73438 z m 196.95313,0 h 34.33594 l 17.16796,29.73633 -17.16796,29.73438 H 356.58203 L 339.41211,481.1309 Z m 215.42969,0 h 15.86132 l -7.92968,13.73633 z m 196.95507,0 h 34.33789 l 17.16797,29.73633 -17.16797,29.73438 h -34.33789 l -17.16796,-29.73438 z m 201.57422,7.99805 7.93164,13.73828 h -15.86132 z m -824.76953,0.002 7.92969,13.73633 h -15.86133 z m 43.57422,0 7.92969,13.73633 h -15.86133 z m 368.81055,0 7.93164,13.73633 h -15.86133 z m 43.57422,0 7.92968,13.73633 H 593.79688 Z M 50.673828,467.3457 h 27.572266 v 27.57422 H 50.673828 Z m 206.191402,0 h 27.57422 v 27.57422 h -27.57422 z m 206.19336,0 h 27.57422 v 27.57422 h -27.57422 z m 206.19336,0 h 27.57227 v 27.57422 h -27.57227 z m 206.19141,0 h 27.57422 v 27.57422 h -27.57422 z m -840.769532,5.85547 v 15.86328 L 20.9375,481.13281 Z m 206.191402,0 v 15.86133 l -13.73632,-7.92969 z m 206.19336,0 v 15.86328 l -13.73632,-7.93164 z m 59.57422,0 13.73438,7.93164 -13.73438,7.92969 z m 146.61914,0 v 15.86328 l -13.73633,-7.93164 z m 206.19141,0 v 15.86133 l -13.73633,-7.92969 z m -765.197266,0.002 13.736326,7.92969 -13.736326,7.92969 z m 206.193356,0 13.73438,7.92969 -13.73438,7.92969 z m 412.38477,0 13.73437,7.92969 -13.73437,7.92969 z m 206.19336,0 13.73437,7.92969 -13.73437,7.92969 z m -781.17969,15.92969 h 15.86133 l -7.92969,13.73438 z m 43.57422,0 h 15.86133 l -7.92969,13.73438 z m 368.8125,0 h 15.86133 l -7.93164,13.73438 z m 43.57227,0 h 15.86132 l -7.92968,13.73438 z m 368.8125,0 h 15.86132 l -7.93164,13.73633 z m -841.55665,2.92774 13.78711,23.8789 -23.8789,13.78711 -13.787112,-23.8789 z m 93.00586,0 23.87891,13.78711 -13.78711,23.8789 -23.87891,-13.78711 z m 113.1875,0 13.78711,23.8789 -23.8789,13.78711 -13.78711,-23.8789 z m 93.00391,0 23.87891,13.78711 -13.78711,23.8789 -23.87891,-13.78711 z m 113.18945,0 13.78711,23.8789 -23.8789,13.78711 -13.78711,-23.8789 z m 93.00391,0 23.87891,13.78711 -13.78711,23.8789 -23.87891,-13.78711 z m 113.1875,0 13.78711,23.8789 -23.87891,13.78711 -13.78711,-23.8789 z m 93.00586,0 23.8789,13.78711 -13.7871,23.8789 -23.87891,-13.78711 z m 113.1875,0 13.78711,23.8789 -23.87891,13.78711 -13.78711,-23.8789 z m -365.88281,5.07031 7.93164,13.73633 h -15.86328 z m -412.38477,0.002 7.92969,13.73438 H 159.62695 Z M 47.291016,510.91992 h 34.335937 l 17.167969,29.73633 -17.167969,29.73437 H 47.292969 L 30.123047,540.6543 Z m 206.193364,0 h 34.33593 l 17.16797,29.73633 -17.16797,29.73437 h -34.33593 l -17.16797,-29.73437 z m 206.1914,0 h 34.33594 l 17.16992,29.73438 -17.16797,29.73632 h -34.33789 l -17.16797,-29.73437 z m 206.19336,0 h 34.33594 l 17.16797,29.73633 -17.16797,29.73437 h -34.33594 l -17.16797,-29.73437 z m 206.19336,0 h 34.33594 l 17.16797,29.73633 -17.16797,29.73437 H 872.0625 l -17.16797,-29.73437 z m -718.29297,15.94727 h 27.57422 v 27.57422 h -27.57422 z m 206.19336,0 h 27.57227 v 27.57422 h -27.57227 z m 206.19141,0 h 27.57422 v 27.57422 H 566.1543 Z m 206.19336,0 h 27.57422 v 27.57422 h -27.57422 z m -634.57813,5.85547 v 15.86328 L 124.0332,540.6543 Z m 206.19336,0 v 15.86328 l -13.73633,-7.93164 z m 412.38477,0 v 15.86328 l -13.73633,-7.93164 z m -559.00391,0.002 13.73437,7.92969 -13.73437,7.92968 z m 206.19141,0 13.73632,7.92969 -13.73632,7.92968 z m 146.61914,0 v 15.86133 l -13.73633,-7.92969 z m 59.57422,0 13.73437,7.92969 -13.73437,7.92968 z m 206.19336,0 13.73437,7.92969 -13.73437,7.92968 z m 146.61718,0 v 15.86133 L 948.80469,540.6563 Z M 430.34375,551.58208 444.12891,575.46294 420.25,589.2481 406.46289,565.36919 Z m -319.38281,0.002 23.88086,13.78711 -13.78907,23.87696 -23.878902,-13.78516 z m 113.18945,0 13.78516,23.87891 -23.87696,13.78516 -13.78711,-23.87891 z m 93.00391,0 23.88086,13.78711 -13.78907,23.87891 -23.8789,-13.78711 z m 206.19336,0 23.8789,13.78711 -13.78711,23.87696 -23.8789,-13.78516 z m 113.1875,0 13.78711,23.87891 -23.87891,13.78516 -13.78711,-23.87891 z m 93.0039,0 23.88086,13.78711 -13.78906,23.87696 -23.87891,-13.78516 z m 113.18946,0 13.7871,23.87891 -23.8789,13.78711 -13.78711,-23.88086 z m 93.0039,0 23.87891,13.78711 -13.78711,23.87696 -23.87891,-13.78516 z m -785.34375,18.85743 h 34.33594 l 17.16797,29.73632 -17.16797,29.73438 h -34.33789 l -17.16797,-29.73438 z m 215.42969,0 h 15.86133 L 373.75,584.17773 Z m 196.95508,0 h 34.33594 l 17.16796,29.73632 -17.16796,29.73438 h -34.33594 l -17.16797,-29.73438 z m 215.42968,0 h 15.86329 l -7.93164,13.73632 z m -382.66796,8 7.92968,13.73632 h -15.85937 z m -43.57227,0.002 7.92969,13.73437 h -15.86133 z m 412.38477,0 7.92968,13.73437 h -15.86132 z m 43.57422,0 7.92968,13.73437 h -15.86133 z m -757.248052,7.94726 h 27.572266 v 27.57422 H 50.673828 Z m 206.191402,0 h 27.57422 v 27.57422 h -27.57422 z m 206.19336,0 h 27.57422 v 27.57422 h -27.57422 z m 206.19336,0 h 27.57227 v 27.57422 h -27.57227 z m 206.19141,0 h 27.57422 v 27.57422 h -27.57422 z m -840.769532,5.85547 v 15.86329 L 20.9375,600.17773 Z m 206.191402,0 v 15.86133 l -13.73632,-7.92969 z m 206.19336,0 v 15.86329 l -13.73632,-7.93165 z m 59.57422,0 13.73633,7.93164 -13.73633,7.92969 z m 146.61914,0 v 15.86329 l -13.73633,-7.93165 z m 206.19141,0 v 15.86133 l -13.73438,-7.92969 z m -765.197266,0.002 13.734376,7.92968 -13.734376,7.92969 z m 206.193356,0 13.73438,7.92968 -13.73438,7.92969 z m 412.38477,0 13.73437,7.92968 -13.73437,7.92969 z m 206.19336,0 13.73437,7.92968 -13.73437,7.92969 z m -574.98633,15.92968 h 15.86133 l -7.92969,13.73438 z m 43.57422,0 h 15.85937 l -7.92968,13.73633 z m 368.81055,0 h 15.86132 l -7.93164,13.73438 z m 43.57421,0 h 15.86133 l -7.92968,13.73438 z m -678.9375,2.92774 13.78711,23.87891 -23.8789,13.7871 -13.787112,-23.8789 z m 93.00586,0 23.87891,13.78711 -13.78711,23.8789 -23.87891,-13.7871 z m 113.1875,0 13.78711,23.87891 -23.8789,13.7871 -13.78711,-23.8789 z m 93.00391,0 23.87891,13.78711 -13.78711,23.8789 -23.87891,-13.7871 z m 113.18945,0 13.78711,23.87891 -23.8789,13.7871 -13.78711,-23.8789 z m 93.00391,0 23.87891,13.78711 -13.78711,23.8789 -23.87891,-13.7871 z m 113.1875,0 13.78711,23.87891 -23.87891,13.7871 -13.78711,-23.8789 z m 93.00586,0 23.8789,13.78711 -13.7871,23.8789 -23.87891,-13.7871 z m 113.1875,0 13.78711,23.87891 -23.87891,13.7871 -13.78711,-23.8789 z m -572.07422,5.07226 7.92969,13.73438 h -15.86133 z m 412.38281,0 7.93164,13.73438 H 778.20312 Z M 47.291016,629.96484 h 34.335937 l 17.167969,29.73438 -17.167969,29.73633 H 47.292969 L 30.123047,659.69922 Z m 206.193364,0 h 34.33593 l 17.16797,29.73438 -17.16797,29.73633 h -34.33593 l -17.16797,-29.73633 z m 206.1914,0 h 34.33789 l 17.16797,29.73438 -17.16797,29.73633 h -34.33789 l -17.16797,-29.73633 z m 206.19336,0 h 34.33594 l 17.16797,29.73438 -17.16797,29.73633 h -34.33594 l -17.16797,-29.73633 z m 206.19336,0 h 34.33594 l 17.16797,29.73438 -17.16797,29.73633 H 872.0625 l -17.16797,-29.73633 z m -718.29297,15.94727 h 27.57422 v 27.57422 h -27.57422 z m 206.19336,0 h 27.57227 v 27.57422 h -27.57227 z m 206.19141,0 h 27.57422 v 27.57422 H 566.1543 Z m 206.19336,0 h 27.57422 v 27.57422 h -27.57422 z m -634.57813,5.85547 v 15.86328 l -13.73633,-7.93164 z m 618.57813,0 v 15.86328 l -13.73633,-7.93164 z m -559.00391,0.002 13.73437,7.92969 -13.73437,7.92969 z m 146.61914,0 v 15.86133 l -13.73633,-7.93164 z m 59.57227,0 13.73437,7.92969 -13.73437,7.92969 z m 146.61914,0 v 15.86133 l -13.73633,-7.92969 z m 59.57422,0 13.73437,7.92969 -13.73437,7.92969 z m 206.19336,0 13.73437,7.92969 -13.73437,7.92969 z m 146.61718,0 v 15.86133 l -13.73437,-7.93164 z m -851.57812,18.85938 23.88086,13.78711 -13.78711,23.8789 -23.880862,-13.78711 z m 113.18945,0 13.78711,23.8789 -23.87891,13.78711 -13.78711,-23.88086 z m 93.00391,0 23.88086,13.78711 -13.78907,23.8789 -23.8789,-13.78711 z m 113.1875,0 13.78711,23.8789 -23.87891,13.78711 -13.78711,-23.88086 z m 93.00586,0 23.8789,13.78711 -13.78711,23.8789 -23.8789,-13.78711 z m 113.1875,0 13.78711,23.8789 -23.87891,13.78711 -13.78711,-23.88086 z m 93.0039,0 23.88086,13.78711 -13.78906,23.8789 -23.87891,-13.78711 z m 113.18946,0 13.7871,23.8789 -23.8789,13.78711 -13.78711,-23.88086 z m 93.0039,0 23.87891,13.78711 -13.78711,23.8789 -23.87891,-13.78711 z M 159.625,689.48633 h 15.86133 l -7.93164,13.73633 z m 196.95703,0 h 34.33399 l 17.16796,29.73633 -17.16796,29.73632 h -34.33399 l -17.16992,-29.73632 z m 215.42774,0 h 15.86328 l -7.93164,13.73633 z m 196.95703,0 h 34.33593 l 17.16797,29.73633 -17.16797,29.73632 H 768.9668 l -17.16992,-29.73632 z m -579.62305,8 7.92969,13.73633 h -15.86133 z m 368.81055,0 7.93164,13.73633 h -15.86133 z m 43.57422,0 7.92968,13.73633 h -15.86132 z m 368.81054,0 7.93164,13.73633 h -15.86132 z m -824.76953,0.002 7.92969,13.73438 h -15.86133 z m -95.095702,7.94727 h 27.572266 v 27.57422 H 50.673828 Z m 206.191402,0 h 27.57422 v 27.57422 h -27.57422 z m 206.19336,0 h 27.57422 v 27.57422 h -27.57422 z m 206.19336,0 h 27.57227 v 27.57422 h -27.57227 z m 206.19141,0 h 27.57422 v 27.57422 H 875.44336 Z M 34.673828,711.29102 V 727.1543 L 20.9375,719.22266 Z m 206.191402,0 v 15.86328 l -13.73632,-7.93164 z m 206.19336,0 v 15.86328 l -13.73632,-7.93164 z m 206.19336,0 v 15.86328 l -13.73828,-7.93164 z m -559.005856,0.002 13.736326,7.92969 -13.736326,7.92968 z m 206.193356,0 13.73438,7.92969 -13.73438,7.92968 z m 206.19336,0 13.73438,7.92969 -13.73438,7.92968 z m 206.19141,0 13.73633,7.92969 -13.73633,7.93164 z m 146.61914,0 v 15.86133 l -13.73633,-7.93164 z m 59.57422,0 13.73437,7.92969 -13.73437,7.92968 z m -781.17969,15.92969 h 15.86133 l -7.92969,13.73632 z m 43.57422,0 h 15.86133 l -7.92969,13.73632 z m 368.8125,0 h 15.86133 l -7.93164,13.73632 z m 43.57227,0 h 15.86132 l -7.92968,13.73632 z m 368.8125,0 h 15.86132 l -7.93164,13.73632 z m -841.55469,2.92773 13.78515,23.88086 -23.8789,13.78516 -13.787112,-23.87891 z m 93.0039,0.002 23.87891,13.78711 -13.78711,23.87696 -23.87891,-13.78516 z m 113.1875,0 13.78711,23.87891 -23.8789,13.78516 -13.78711,-23.87891 z m 93.00391,0 23.88086,13.78711 -13.78906,23.87696 -23.87891,-13.78516 z m 113.18945,0 13.78711,23.87891 -23.8789,13.78516 -13.78711,-23.87891 z m 93.00391,0 23.88086,13.78711 -13.78906,23.87696 -23.87891,-13.78711 z m 113.1875,0 13.78711,23.87891 -23.87891,13.78516 -13.78711,-23.87891 z m 93.00586,0 23.8789,13.78711 -13.7871,23.87696 -23.87891,-13.78516 z m 113.1875,0 13.78516,23.87891 -23.87696,13.78516 -13.78711,-23.87891 z m -365.88281,5.07032 7.92968,13.73632 h -15.86132 z m -412.38477,0.002 7.92969,13.73437 H 159.62695 Z M 47.292969,749.00977 h 34.333984 l 17.167969,29.73632 -17.167969,29.73438 H 47.292969 L 30.123047,778.74414 Z m 206.191411,0 h 34.33593 l 17.16797,29.73632 -17.16797,29.73438 h -34.33593 l -17.16797,-29.73438 z m 206.19335,0 h 34.33594 l 17.16797,29.73632 -17.16797,29.73438 h -34.33594 l -17.16992,-29.73438 z m 206.19336,0 h 34.33399 l 17.16797,29.73632 -17.16797,29.73438 h -34.33594 l -17.16797,-29.73438 z m 206.19141,0 h 34.33594 l 17.16797,29.73632 -17.16797,29.73438 H 872.0625 l -17.16797,-29.73438 z m -718.29297,15.94921 h 27.57422 v 27.57227 h -27.57422 z m 206.19336,0 h 27.57227 v 27.57227 h -27.57227 z m 206.19141,0 h 27.57422 v 27.57227 H 566.1543 Z m 206.19336,0 h 27.57422 v 27.57227 h -27.57422 z m -634.57813,5.85547 v 15.86133 l -13.73633,-7.92969 z m 206.19336,0 v 15.86133 l -13.73633,-7.92969 z m 206.19141,0 v 15.86133 l -13.73438,-7.92969 z m 206.19336,0 v 15.86133 l -13.73633,-7.92969 z m -559.00391,0.002 13.73437,7.92968 -13.73437,7.92774 z m 206.19141,0 13.73437,7.92968 -13.73437,7.92774 z m 206.19336,0 13.73437,7.92968 -13.73437,7.92774 z m 206.19336,0 13.73437,7.92968 -13.73437,7.92774 z m 146.61718,0 v 15.85937 l -13.73437,-7.92969 z m -851.57812,18.85742 23.88086,13.78711 -13.78907,23.8789 -23.878902,-13.78711 z m 113.18945,0 13.78711,23.8789 -23.87891,13.78711 -13.78711,-23.88086 z m 93.00391,0 23.88086,13.78711 -13.78907,23.8789 -23.8789,-13.78711 z m 113.1875,0 13.78711,23.8789 -23.87891,13.78711 -13.78711,-23.88086 z m 93.00586,0 23.8789,13.78711 -13.78711,23.8789 -23.8789,-13.78711 z m 113.1875,0 13.78906,23.8789 -23.88086,13.78711 -13.78711,-23.88086 z m 93.0039,0 23.88086,13.78711 -13.78906,23.8789 -23.87891,-13.78711 z m 113.18946,0 13.7871,23.8789 -23.8789,13.78711 -13.78711,-23.88086 z m 93.0039,0 23.87891,13.78711 -13.78711,23.8789 -23.87891,-13.78711 z m -785.34375,18.85742 h 34.33594 l 17.16797,29.73828 -17.16797,29.73438 h -34.33789 l -17.16797,-29.73438 z m 215.42969,0 h 15.86133 L 373.75,822.26758 Z m 196.95508,0 h 34.33594 l 17.16796,29.73828 -17.16796,29.73438 h -34.33594 l -17.16797,-29.73438 z m 215.42968,0 h 15.86133 l -7.93164,13.73633 z m -382.66796,8 7.92968,13.73633 h -15.85937 z m 412.38672,0 7.92968,13.73633 h -15.86133 z m -455.95899,0.002 7.92969,13.73438 h -15.86133 z m 412.38477,0 7.92968,13.73438 h -15.86132 z m -713.673832,7.94727 h 27.572266 v 27.57422 H 50.673828 Z m 206.191402,0 h 27.57422 v 27.57422 h -27.57422 z m 206.19336,0 h 27.57422 v 27.57422 h -27.57422 z m 206.19336,0 h 27.57227 v 27.57422 h -27.57227 z m 206.19141,0 h 27.57422 v 27.57422 h -27.57422 z m -840.769532,5.85547 v 15.86328 L 20.9375,838.26758 Z m 59.572266,0.002 13.734376,7.92969 -13.734376,7.92969 z m 146.619136,0 v 15.86133 l -13.73632,-7.93164 z m 59.57422,0 13.73438,7.92969 -13.73438,7.92969 z m 146.61914,0 v 15.86133 l -13.73632,-7.92969 z m 59.57422,0 13.73438,7.92969 -13.73438,7.92969 z m 146.61914,0 v 15.86133 l -13.73633,-7.92969 z m 59.57227,0 13.73437,7.92969 -13.73437,7.92969 z m 146.61914,0 v 15.86133 l -13.73633,-7.93164 z m 59.57422,0 13.73437,7.92969 -13.73437,7.92969 z m -574.98633,15.92969 h 15.86133 l -7.92969,13.73633 z m 43.57422,0 h 15.85937 l -7.92968,13.73633 z m 368.81055,0 h 15.86132 l -7.92968,13.73633 z m 43.57421,0 h 15.86133 l -7.92968,13.73828 z m -678.9375,2.92969 13.78711,23.8789 -23.8789,13.78711 -13.787112,-23.88086 z m 93.00586,0 23.87891,13.78711 -13.78711,23.8789 -23.87891,-13.78711 z m 113.1875,0 13.78907,23.8789 -23.88086,13.78711 -13.78711,-23.88086 z m 93.00391,0 23.88086,13.78711 -13.78906,23.8789 -23.87891,-13.78711 z m 113.18945,0 13.78711,23.8789 -23.8789,13.78711 -13.78711,-23.88086 z m 93.00391,0 23.88086,13.78711 -13.78906,23.8789 -23.87891,-13.78711 z m 113.1875,0 13.78906,23.8789 -23.88086,13.78711 -13.78711,-23.88086 z m 93.00586,0 23.8789,13.78711 -13.7871,23.8789 -23.87891,-13.78711 z m 113.1875,0 13.78711,23.8789 -23.87891,13.78711 -13.78711,-23.88086 z m -159.69141,5.07031 7.93164,13.73633 h -15.86133 z m -412.38476,0.002 7.92968,13.73438 H 365.81836 Z M 47.292969,868.05469 h 34.333984 l 17.167969,29.73633 -17.167969,29.73632 H 47.292969 L 30.123047,897.79102 Z m 206.191411,0 h 34.33593 l 17.16797,29.73633 -17.16797,29.73632 h -34.33593 l -17.16797,-29.73632 z m 206.19335,0 h 34.33594 l 17.16797,29.73633 -17.16797,29.73632 h -34.33594 l -17.16992,-29.73632 z m 206.19336,0 h 34.33399 l 17.16797,29.73633 -17.16797,29.73632 h -34.33399 l -17.16992,-29.73632 z m 206.19141,0 h 34.33594 l 17.16797,29.73633 -17.16797,29.73632 H 872.0625 l -17.16797,-29.73632 z m -718.29297,15.94922 h 27.57422 v 27.57421 h -27.57422 z m 206.19336,0 h 27.57227 v 27.57421 h -27.57227 z m 206.19141,0 h 27.57422 v 27.57421 H 566.1543 Z m 206.19336,0 h 27.57422 v 27.57421 h -27.57422 z m -634.57813,5.85547 v 15.86328 l -13.73828,-7.93164 z m 206.19336,0 v 15.86328 l -13.73828,-7.93164 z m 206.19141,0 v 15.86328 l -13.73633,-7.93164 z m 206.19336,0 v 15.86328 l -13.73828,-7.93164 z m 206.1914,0 v 15.86132 l -13.73633,-7.92968 z m -765.19531,0.002 13.73633,7.92969 -13.73633,7.92968 z m 206.19141,0 13.73632,7.92969 -13.73632,7.92968 z m 206.19336,0 13.73632,7.92969 -13.73632,7.92968 z m 206.19336,0 13.73632,7.92969 -13.73632,7.93164 z m -704.96094,18.85742 23.88086,13.78711 -13.78711,23.88086 -23.880862,-13.78711 z m 113.18945,0 13.78711,23.87891 -23.87891,13.78711 -13.78711,-23.87891 z m 93.00391,0 23.8789,13.78711 -13.78711,23.88086 -23.8789,-13.78711 z m 113.1875,0 13.78906,23.88086 -23.88086,13.78711 -13.78711,-23.88086 z m 93.00586,0 23.8789,13.78711 -13.78711,23.87891 -23.8789,-13.78516 z m 113.1875,0 13.78906,23.87891 -23.88086,13.78906 -13.78711,-23.88086 z m 93.0039,0 23.87891,13.78711 -13.78711,23.88086 -23.87891,-13.78711 z m 113.18946,0 13.7871,23.87891 -23.8789,13.78711 -13.78711,-23.87891 z m 93.0039,0 23.87891,13.78711 -13.78711,23.88086 -23.87891,-13.78711 z M 159.625,927.57812 h 15.86133 l -7.93164,13.73633 z m 412.38477,0 h 15.86328 l -7.93164,13.73633 z m -426.24219,8 7.93164,13.73633 h -15.86133 z m 43.57617,0 7.92969,13.73633 h -15.86133 z m 368.81055,0 7.93164,13.73633 h -15.86133 z m 43.57422,0 7.92968,13.73633 h -15.86132 z m 368.8125,0 7.92968,13.73633 h -15.86132 z m -919.867192,7.94922 h 27.572266 v 27.57227 H 50.673828 Z m 206.191402,0 h 27.57422 v 27.57227 h -27.57422 z m 206.19336,0 h 27.57422 v 27.57227 h -27.57422 z m 206.19336,0 h 27.57227 v 27.57227 h -27.57227 z m 206.19141,0 h 27.57422 v 27.57227 h -27.57422 z m -840.769532,5.85547 v 15.86133 L 20.9375,957.3125 Z m 206.191402,0 v 15.86133 l -13.73632,-7.92969 z m 206.19336,0 v 15.86133 l -13.73632,-7.92969 z m 206.19336,0 v 15.86133 l -13.73633,-7.92969 z m 206.19141,0 v 15.86133 l -13.73438,-7.92969 z m -765.197266,0.002 13.734376,7.92968 -13.734376,7.92774 z m 206.193356,0 13.73438,7.92773 -13.73438,7.92969 z m 206.19336,0 13.73438,7.92773 -13.73438,7.92969 z m 206.19141,0 13.73437,7.92773 -13.73437,7.92969 z m 206.19336,0 13.73633,7.92968 -13.73633,7.92969 z m -781.17969,15.92968 h 15.86133 l -7.92969,13.73438 z m 43.57422,0 h 15.86133 l -7.93164,13.73438 z m 368.8125,0 h 15.86133 l -7.93164,13.73438 z m 43.57227,0 h 15.86132 l -7.92968,13.73438 z"
     id="path835" />
</svg>
