<?xml version="1.0" encoding="UTF-8" standalone="no"?>
<svg
   xmlns:dc="http://purl.org/dc/elements/1.1/"
   xmlns:cc="http://creativecommons.org/ns#"
   xmlns:rdf="http://www.w3.org/1999/02/22-rdf-syntax-ns#"
   xmlns:svg="http://www.w3.org/2000/svg"
   xmlns="http://www.w3.org/2000/svg"
   xmlns:sodipodi="http://sodipodi.sourceforge.net/DTD/sodipodi-0.dtd"
   xmlns:inkscape="http://www.inkscape.org/namespaces/inkscape"
   inkscape:version="1.0.1 (3bc2e813f5, 2020-09-07)"
   sodipodi:docname="4-uniform_144.svg"
   id="c:\kuniform\4u\4-uniform_144.svg"
   height="994.33765"
   width="1000.0"
   version="1.0">
  <style
     id="style2972" />
  <metadata
     id="metadata2970">
    <rdf:RDF>
      <cc:Work
         rdf:about="">
        <dc:format>image/svg+xml</dc:format>
        <dc:type
           rdf:resource="http://purl.org/dc/dcmitype/StillImage" />
        <dc:title />
      </cc:Work>
    </rdf:RDF>
  </metadata>
  <defs
     id="defs2968" />
  <sodipodi:namedview
     inkscape:current-layer="c:\kuniform\4u\4-uniform_144.svg"
     inkscape:window-maximized="1"
     inkscape:window-y="-9"
     inkscape:window-x="-9"
     inkscape:cy="498.53077"
     inkscape:cx="544.46012"
     inkscape:zoom="0.68043246"
     showgrid="false"
     id="namedview2966"
     inkscape:window-height="1001"
     inkscape:window-width="1920"
     inkscape:pageshadow="2"
     inkscape:pageopacity="0"
     guidetolerance="10"
     gridtolerance="10"
     objecttolerance="10"
     borderopacity="1"
     inkscape:document-rotation="0"
     bordercolor="#666666"
     pagecolor="#ffffff" />
  <!-- X Coordinate transform: fx(x)=(x+97.42139)*0.8369302-->
  <!-- Y Coordinate transform: fy(y)=(1090.6892-y)*0.8369302 -->
  <path
     style="color:#000000;font-style:normal;font-variant:normal;font-weight:normal;font-stretch:normal;font-size:medium;line-height:normal;font-family:sans-serif;font-variant-ligatures:normal;font-variant-position:normal;font-variant-caps:normal;font-variant-numeric:normal;font-variant-alternates:normal;font-variant-east-asian:normal;font-feature-settings:normal;font-variation-settings:normal;text-indent:0;text-align:start;text-decoration:none;text-decoration-line:none;text-decoration-style:solid;text-decoration-color:#000000;letter-spacing:normal;word-spacing:normal;text-transform:none;writing-mode:lr-tb;direction:ltr;text-orientation:mixed;dominant-baseline:auto;baseline-shift:baseline;text-anchor:start;white-space:normal;shape-padding:0;shape-margin:0;inline-size:0;clip-rule:nonzero;display:inline;overflow:visible;visibility:visible;isolation:auto;mix-blend-mode:normal;color-interpolation:sRGB;color-interpolation-filters:linearRGB;solid-color:#000000;solid-opacity:1;vector-effect:none;fill:#000000;fill-opacity:1;fill-rule:nonzero;stroke:none;stroke-width:14;stroke-linecap:butt;stroke-linejoin:miter;stroke-miterlimit:4;stroke-dasharray:none;stroke-dashoffset:0;stroke-opacity:1;color-rendering:auto;image-rendering:auto;shape-rendering:auto;text-rendering:auto;enable-background:accumulate;stop-color:#000000"
     d="m 602.6582,1.421875 -19.98632,34.615234 -28.55274,16.486329 -17.42383,-30.177735 -6.06054,3.5 -3.5,-6.0625 -34.61719,19.986328 h -38.09375 l -34.61719,-19.986328 -3.5,6.0625 h -7 v 34.845703 h -30.80469 -8.08398 -30.80469 V 25.845703 h -7 l -3.5,-6.0625 -30.17773,17.423828 -17.42188,-30.1777341 -6.0625,3.5000001 -6.0625,-3.5000001 -19.98633,34.6171871 -28.55273,16.482422 -17.42383,-30.177734 -6.0625,3.5 -3.5,-6.060547 L 159.24609,45.375 h -38.09375 l -34.615231,-19.984375 -3.5,6.060547 h -7 V 66.298828 H 37.150391 l -22.945313,39.740232 6.0625,3.5 v 7 h 34.845703 v 27.84571 H 20.267578 v 7 l -6.0625,3.5 17.423828,30.17773 -30.1796872,17.42383 3.5,6.0625 -3.5,6.0625 34.6171872,19.98437 16.484375,28.55469 -30.177734,17.42188 3.5,6.0625 -3.5,6.0625 25.740234,14.86132 -25.740234,14.86133 3.5,6.0625 -6.060547,3.5 19.984375,34.61524 v 38.0957 l -19.984375,34.61523 6.060547,3.5 v 7 H 60.720703 V 477.6543 H 25.873047 v 7 l -6.060547,3.5 17.421875,30.17968 -30.1777344,17.42383 3.5000004,6.06055 -3.5000004,6.0625 34.6152344,19.98633 16.486328,28.55273 -30.177734,17.42383 3.5,6.0625 -3.5,6.06055 25.740234,14.86132 -25.740234,14.86133 3.5,6.0625 -6.0625,3.5 17.421875,30.17774 -30.177735,17.42383 3.5,6.06054 -3.5,6.0625 34.615235,19.98438 16.486328,28.55468 -30.177734,17.42383 3.5,6.0625 -3.5,6.0625 25.740234,14.86133 -25.740234,14.85938 3.5,6.0625 -6.0625,3.5 19.986328,34.61718 v 38.09375 l -19.986328,34.61719 6.0625,3.5 v 7 h 39.972656 l 38.115236,22.00586 33.67773,-19.44336 17.42383,30.17774 6.0625,-3.50196 6.06055,3.5 19.98633,-34.61328 28.55273,-16.48633 17.42383,30.17774 6.06055,-3.5 6.0625,3.5 14.86132,-25.74024 14.86133,25.74024 6.0625,-3.5 6.0625,3.5 14.86133,-25.74024 14.86133,25.74024 6.06054,-3.5 3.5,6.0625 34.61719,-19.98633 h 38.09375 l 38.11719,22.00586 33.67773,-19.44336 17.42188,30.17773 6.0625,-3.5 6.0625,3.5 19.98633,-34.61523 28.55273,-16.48633 17.42383,30.17969 6.0625,-3.5 6.0625,3.5 14.85937,-25.74024 14.86329,25.74024 6.06054,-3.5 6.0625,3.5 14.86133,-25.74024 14.86133,25.74024 6.0625,-3.5 3.5,6.06055 L 705.5,948.96289 h 38.09961 l 38.11328,22.00586 33.67773,-19.44336 17.42383,30.17578 6.06055,-3.5 6.0625,3.5 19.98438,-34.61328 28.55468,-16.48633 17.42383,30.17774 6.0625,-3.5 6.0625,3.5 21.86133,-37.86524 v -36.7207 h 34.8457 v -7 l 6.0625,-3.5 -17.42383,-30.17969 30.17969,-17.42187 -3.5,-6.0625 3.5,-6.0625 -34.61914,-19.98633 -16.48242,-28.55274 30.17773,-17.42187 -3.5,-6.0625 3.5,-6.0625 -25.74023,-14.86133 25.74023,-14.86133 -3.5,-6.0625 6.06055,-3.5 -19.98438,-34.61523 v -38.0957 l 19.98438,-34.61524 -6.06055,-3.5 v -7 H 939.2793 v -27.8457 h 34.84765 v -7 l 6.06055,-3.5 -17.42188,-30.17774 30.17774,-17.42578 -3.5,-6.0625 3.5,-6.06054 -34.61524,-19.98633 -16.48632,-28.55274 30.17773,-17.42382 -3.5,-6.0625 3.5,-6.06055 -25.74023,-14.86133 25.74023,-14.86133 -3.5,-6.0625 6.0625,-3.5 -17.42187,-30.17773 30.17773,-17.42383 -3.5,-6.0625 3.5,-6.06055 -34.61523,-19.98633 -16.48828,-28.55468 30.17968,-17.42188 -3.5,-6.0625 3.5,-6.0625 -25.74023,-14.86133 25.74023,-14.85937 -3.5,-6.0625 6.0625,-3.5 -19.98633,-34.61914 v -38.0918 l 19.98633,-34.617186 -6.0625,-3.5 v -7 H 928.06641 V 35.556641 h -7 l -3.5,-6.0625 -30.17774,17.423828 -17.42187,-30.179688 -6.0625,3.5 -3.5,-6.060547 -34.61328,19.984375 h -38.10157 l -34.61328,-19.984375 -3.5,6.060547 h -7 v 34.847657 h -30.80469 -8.08203 -30.80468 V 20.238281 h -7 l -3.5,-6.060547 -30.17969,17.421875 -17.42383,-30.177734 -6.06055,3.5 z m 6.0625,17.5 8.79883,15.240234 H 599.92188 Z M 275.45117,24.529297 284.25,39.769531 h -17.59766 z m 585.89063,5.271484 13.92187,24.117188 -24.11328,13.921875 -13.92383,-24.115235 z m -202.45703,2.5625 v 17.59961 l -15.24219,-8.800782 z m 97.6914,0 15.24024,8.798828 -15.24024,8.798829 z m -228.5039,3.044922 13.92187,24.115235 -24.11523,13.923828 -13.92383,-24.117188 z m -202.45899,2.5625 V 55.566406 L 310.375,46.769531 Z m 97.69336,0 15.24219,8.798828 -15.24219,8.798828 z M 194.80273,41.013672 208.72461,65.128906 184.60938,79.052734 170.68555,54.9375 Z M 90.037109,43.576172 105.27539,52.375 90.037109,61.173828 Z m 824.029301,4.103516 v 17.597656 l -15.24024,-8.796875 z m -319.26953,0.482421 h 27.84765 v 27.847657 h -27.84765 z m 203.14453,0 h 17.59765 l -8.79883,15.240235 z m -14.68555,2.5625 13.92187,24.115235 -24.11523,13.923828 -13.92383,-24.115234 z m -202.45898,2.5625 v 17.597657 l -15.24024,-8.798828 z m 55.84765,0 15.23828,8.798829 -15.23828,8.798828 z m -375.11719,0.482422 h 27.84571 v 27.845703 h -27.84571 z m 203.14454,0 h 17.59765 l -8.79883,15.240235 z m 362.99218,1.392578 8.79883,15.240235 H 818.86523 Z M 449.98438,56.332031 463.9082,80.447266 439.79297,94.369141 425.86914,70.253906 Z m -202.45704,2.560547 v 17.59961 l -15.24023,-8.800782 z m 55.84571,0.002 15.24023,8.796875 -15.24023,8.798828 z M 131.40039,59.375 H 149 l -8.79883,15.240234 z m 362.99219,1.394531 8.79883,15.240235 H 485.59375 Z M 116.71484,61.9375 130.63867,86.052734 106.52344,99.976562 92.599609,75.861328 Z m 44.40821,4.4375 8.79883,15.240234 h -17.59571 z m 716.70312,2.230469 v 17.595703 l -15.23828,-8.798828 z m 14,0 15.24024,8.796875 -15.24024,8.798828 z m -213.81836,0.480469 h 17.59766 l -8.79883,15.240234 z m 41.84766,0 h 17.59765 l -8.79882,15.240234 z m -56.5332,2.5625 13.92187,24.115234 -24.11523,13.921878 -13.92188,-24.115238 z m -118.76563,2.5625 v 17.595703 l -15.24023,-8.798829 z m 14,0 15.24024,8.798828 -15.24024,8.796875 z m -213.81836,0.480468 h 17.59766 l -8.79883,15.240235 z m 41.84766,0 h 17.59765 l -8.79882,15.240235 z m 321.14453,1.394532 8.79883,15.240234 h -17.59766 z m 41.8457,0 8.79883,15.240234 h -17.5957 z m -419.52539,1.167968 13.92383,24.117184 -24.11523,13.92188 -13.92383,-24.115236 z m -118.76367,2.5625 v 17.597656 l -15.24219,-8.798828 z m 14,0 15.24023,8.798828 -15.24023,8.798828 z M 53.316406,80.298828 h 17.595703 l -8.798828,15.240234 z m 321.144534,1.392578 8.79883,15.240235 h -17.59766 z m 41.8457,0.002 8.79883,15.238282 h -17.59766 z m 397.43359,2.708985 h 27.84766 V 112.2481 h -27.84766 z m 119.45118,0 h 17.59765 l -8.79883,15.240234 z m -14.6875,2.5625 13.92382,24.117189 -24.11523,13.92188 -13.92383,-24.11524 z M 41.191406,87.298828 49.990234,102.53906 H 32.392578 Z m 41.845703,0 8.798829,15.240232 H 74.238281 Z M 799.74023,89.527344 V 107.125 L 784.5,98.326172 Z m 55.84766,0 15.23828,8.798828 -15.23828,8.796878 z M 480.4707,90.009766 h 27.84571 V 117.85547 H 480.4707 Z m 119.45118,0 h 17.59765 L 608.7207,105.25 Z m -14.6875,2.5625 13.92382,24.113284 -24.11523,13.92578 -13.92383,-24.11719 z M 466.4707,95.132812 v 17.599608 l -15.24023,-8.80078 z m 55.84571,0 15.24023,8.798828 -15.24023,8.79883 z m -375.11524,0.482422 h 27.84571 v 27.847656 h -27.84571 z m 119.45117,0 H 284.25 l -8.79883,15.240236 z m 362.99219,1.392578 8.79688,15.240238 H 620.8457 Z m -377.67969,1.169922 13.92383,24.115236 -24.11523,13.92383 -13.92383,-24.11524 z m -118.76367,2.560546 v 17.59961 l -15.24219,-8.79883 z m 55.84571,0.002 15.24023,8.79883 -15.24023,8.79883 z m 107.32617,1.87696 8.79883,15.23828 h -17.59571 z m 397.43359,2.70898 h 27.84766 v 27.84766 h -27.84766 z m 41.84766,0 H 763.5 v 27.84766 h -27.8457 z m 146.61132,2.5625 13.92188,24.11524 -24.11523,13.92382 -13.92188,-24.11718 z m -202.45898,2.5625 v 17.59766 L 664.56641,119.25 Z m 97.69336,0 15.24023,8.79883 -15.24023,8.79883 z m -416.96289,0.48047 h 27.84766 v 27.84766 h -27.84766 z m 41.84766,0 h 27.8457 v 27.84766 h -27.8457 z m 146.60937,2.5625 13.92383,24.11719 -24.11524,13.92187 -13.92382,-24.11523 z m -202.45703,2.5625 v 17.59766 l -15.24023,-8.79883 z m 97.69336,0 15.23828,8.79883 -15.23828,8.79883 z m -375.117189,0.48242 h 27.847657 v 27.84571 H 69.113281 Z m 146.611329,2.5625 13.92383,24.11524 -24.11524,13.92187 -13.92382,-24.11328 z m -104.76367,2.5625 15.24023,8.79883 -15.24023,8.79688 z m 824.02929,4.10352 v 17.59765 L 919.75,134.56641 Z M 615.7207,126.2481 h 27.84571 v 27.8476 H 615.7207 Z m 203.14453,0 h 17.59766 l -8.79883,15.24023 z m -14.6875,2.5625 13.92383,24.11523 -24.11718,13.92383 -13.92188,-24.11523 z m -202.45703,2.5625 v 17.59765 l -15.24218,-8.79882 z m 55.84571,0 15.24218,8.80078 -15.24218,8.79883 z m -375.11524,0.48242 h 27.84571 v 27.8457 h -27.84571 z m 203.14258,0 h 17.59766 l -8.79688,15.24023 z m 362.99219,1.39258 8.79883,15.24023 h -17.59571 z m -377.67774,1.16992 13.92383,24.11523 -24.11523,13.92383 -13.92383,-24.11719 z m -202.45703,2.56055 v 17.5996 l -15.24219,-8.79882 z m 55.84571,0.002 15.24023,8.79883 -15.24023,8.79882 z m -171.97071,0.48242 h 17.59571 l -8.79883,15.23828 z m 362.99024,1.39258 8.79882,15.24023 h -17.5957 z m -377.67774,1.16992 13.92383,24.11328 -24.11719,13.92383 -13.92187,-24.11523 z m 44.40821,4.4375 8.79882,15.23828 H 173.24805 Z M 898.75,146.69141 v 17.59765 l -15.24023,-8.80078 z m 14,0 15.24023,8.79687 -15.24023,8.80078 z m -213.81836,0.48242 h 17.59766 l -8.79883,15.23828 z m 41.84766,0 h 17.5957 l -8.79883,15.24023 z m -56.53516,2.5625 13.92383,24.11328 -24.11524,13.92383 -13.92382,-24.11524 z m -118.76367,2.56055 v 17.59765 l -15.24024,-8.79883 z m 14,0 15.24023,8.79882 -15.24023,8.79883 z m -213.81836,0.48242 h 17.59766 l -8.79883,15.24023 z m 41.8457,0 h 17.59766 l -8.79883,15.24023 z m 321.14649,1.39453 8.79687,15.23828 h -17.5957 z m 41.8457,0 8.79883,15.23828 h -17.59766 z m -419.52539,1.16797 13.92383,24.11523 -24.11524,13.92188 -13.92382,-24.11524 z m -118.76367,2.56054 V 175.5 l -15.24219,-8.79883 z m 14,0.002 15.24023,8.79687 L 246.21094,175.5 Z M 32.392578,158.38477 H 49.990234 L 41.191406,173.625 Z m 41.845703,0 H 91.835938 L 83.037109,173.625 Z m 321.146489,1.39257 8.79882,15.24219 h -17.59961 z m 41.8457,0.002 8.79883,15.24023 h -17.59766 z m 397.43359,2.70898 h 27.84571 v 27.84766 h -27.84571 z m 104.76367,2.5625 13.92383,24.11719 -24.11523,13.92187 -13.92383,-24.11523 z m -835.46679,0.33203 8.79883,15.24219 H 95.160156 Z m -41.847659,0.002 8.798828,15.24023 H 53.316406 Z m 758.550779,2.22851 v 17.59766 l -15.24218,-8.79883 z m 55.84571,0 15.24023,8.79883 -15.24023,8.80078 z m -375.11524,0.48242 h 27.8457 v 27.84571 h -27.8457 z m 119.45117,0 h 17.59571 l -8.79688,15.24024 z m -14.6875,2.5625 13.92383,24.11524 -24.11523,13.92383 -13.92383,-24.11524 z m -118.76367,2.5625 v 17.59766 l -15.24023,-8.79883 z m 55.8457,0 15.24024,8.79883 -15.24024,8.79883 z m -375.11718,0.48047 h 27.84765 v 27.84766 h -27.84765 z m 119.45117,0 h 17.59766 l -8.79883,15.24024 z m 362.99219,1.39453 8.79882,15.24024 h -17.5957 z m -377.67774,1.16797 13.92383,24.11524 -24.11523,13.92578 -13.92383,-24.11719 z m -118.76562,2.5625 v 17.59766 L 138.88477,187.625 Z m 55.84765,0 15.24024,8.79883 -15.24024,8.79883 z m 107.32618,1.87695 8.79882,15.23829 h -17.59765 z m 397.43359,2.70899 h 27.8457 v 27.84766 h -27.8457 z m 41.8457,0 h 27.84766 v 27.84766 h -27.84766 z m 146.61133,2.5625 13.92383,24.11523 -24.11524,13.92383 -13.92382,-24.11523 z m -202.45703,2.5625 v 17.59766 l -15.24024,-8.79883 z m 97.69336,0 15.24023,8.79883 -15.24023,8.79883 z m -416.96289,0.48242 h 27.8457 v 27.8457 h -27.8457 z m 41.8457,0 h 27.84766 v 27.8457 h -27.84766 z m 146.61133,2.5625 13.92383,24.11524 -24.11719,13.92382 -13.92188,-24.11718 z m -202.45703,2.56055 v 17.59961 l -15.24024,-8.80078 z m 97.69336,0 15.23828,8.79883 -15.23828,8.79882 z M 48.191406,194.625 h 27.845703 v 27.84766 H 48.191406 Z m 41.845703,0 h 27.847661 v 27.84766 H 90.037109 Z m 146.611331,2.5625 13.92383,24.11719 -24.11524,13.92187 -13.92383,-24.11523 z m -202.457034,2.56055 v 17.59961 l -15.242187,-8.79883 z m 97.693364,0.002 15.23828,8.79883 -15.23828,8.79883 z m 504.75976,4.58594 h 27.8457 v 27.8457 h -27.8457 z m 203.14453,0 h 17.59571 l -8.79688,15.24023 z m -14.6875,2.5625 13.92383,24.11523 -24.11523,13.92188 -13.92383,-24.11524 z m -202.45703,2.56054 v 17.59766 l -15.24023,-8.79883 z m 55.8457,0.002 15.24024,8.79883 -15.24024,8.79882 z m -375.11718,0.48047 h 27.84765 v 27.84765 h -27.84765 z m 203.14453,0 h 17.59765 l -8.79882,15.24023 z m 362.99219,1.39453 8.79882,15.24023 h -17.59765 z m -377.67774,1.16797 13.92188,24.11523 -24.11524,13.92383 -13.92187,-24.11524 z m -202.45898,2.5625 v 17.59765 l -15.24024,-8.79883 z m 55.84765,0 15.23828,8.79882 -15.23828,8.79883 z m -171.97265,0.48242 h 17.59765 l -8.79882,15.24023 z m 362.99218,1.39453 8.79688,15.23828 h -17.5957 z m -377.67968,1.16797 13.92383,24.11523 -24.11524,13.92383 -13.92187,-24.11523 z m 44.41015,4.43555 8.79883,15.24218 h -17.59961 z m 716.70313,2.23046 V 242.375 l -15.24024,-8.79883 z m 14,0 15.24023,8.79883 -15.24023,8.79883 z m -213.81836,0.48243 h 17.59765 L 728.6543,240.5 Z m 41.8457,0 h 17.59766 L 770.5,240.49805 Z m -56.5332,2.5625 13.92383,24.11523 -24.11719,13.92383 -13.92188,-24.11719 z M 586.4043,230.3829 v 17.59766 l -15.24024,-8.79883 z m 14,0 15.24023,8.79883 -15.24023,8.79883 z m -213.81836,0.48242 h 17.5957 l -8.79687,15.24024 z m 41.8457,0 h 17.59766 l -8.79883,15.24024 z m 362.99219,1.39258 8.79883,15.24024 H 782.625 Z m -41.84766,0.002 8.79883,15.23828 h -17.5957 z m -377.67773,1.16796 13.92383,24.11524 -24.11524,13.92383 -13.92383,-24.11524 z m -118.76367,2.5625 v 17.59766 l -15.24024,-8.79883 z m 14,0 15.23828,8.79883 -15.23828,8.79883 z m -213.820317,0.48243 h 17.597656 l -8.798828,15.24023 z m 41.847656,0 h 17.597661 l -8.79883,15.23828 z m 321.144531,1.39257 8.79883,15.24024 h -17.59766 z m 41.84766,0.002 8.79687,15.23828 h -17.5957 z m 397.43359,2.70898 h 27.8457 V 268.424 h -27.8457 z m -730.70312,2.89453 8.79882,15.24219 h -17.59961 z m -41.847661,0.002 8.798829,15.24023 H 74.238281 Z m 758.550781,2.22656 v 17.59961 L 826.3457,254.5 Z m 55.8457,0.002 15.24024,8.79883 -15.24024,8.79883 z m -375.11718,0.48047 h 27.8457 v 27.84766 h -27.8457 z m 119.45117,0 h 17.59765 l -8.79882,15.24024 z m -14.68555,2.5625 13.92188,24.11719 -24.11524,13.92187 -13.92187,-24.11523 z m -62.91992,2.56055 15.24219,8.80078 -15.24219,8.80078 z m -55.8457,0.002 v 17.59766 l -15.24024,-8.79883 z m -319.26953,0.48242 h 27.84765 v 27.84571 h -27.84765 z m 119.45117,0 h 17.59765 l -8.79882,15.24024 z m 362.99218,1.39258 8.79883,15.24219 h -17.59765 z m -377.67968,1.16992 13.92383,24.11524 -24.11524,13.92382 -13.92187,-24.11718 z m -118.76367,2.5625 v 17.59571 l -15.24024,-8.79688 z m 55.84765,0 15.24024,8.79688 -15.24024,8.79883 z m 107.32617,1.87305 8.79883,15.24219 h -17.59961 z m 397.4336,2.71094 H 763.5 v 27.84765 h -27.8457 z m 41.8457,0 h 27.84766 V 289.3457 H 777.5 Z m 146.61133,2.5625 13.92383,24.11718 -24.11524,13.92383 -13.92383,-24.11718 z m -202.45703,2.5625 v 17.59765 l -15.24024,-8.79687 z m 97.69336,0 15.24023,8.79883 -15.24023,8.79882 z m -416.96289,0.48242 h 27.8457 v 27.8457 h -27.8457 z m 41.8457,0 h 27.8457 v 27.8457 h -27.8457 z m 146.61133,2.5625 13.92187,24.11523 -24.11328,13.92383 -13.92578,-24.11523 z m -202.45703,2.5625 v 17.59765 l -15.24024,-8.79882 z m 97.6914,0 15.24024,8.79883 -15.24024,8.79882 z M 69.113281,272.7132 h 27.847657 v 27.8457 H 69.113281 Z m 41.847659,0 h 27.8457 v 27.8457 h -27.8457 z m 146.61133,2.56055 13.92187,24.11718 -24.11523,13.92188 -13.92188,-24.11523 z m -104.76563,2.5625 15.24024,8.79883 -15.24024,8.80078 z m -97.693359,0.002 v 17.5957 L 39.875,286.63477 Z m 602.453129,4.58594 h 27.8457 v 27.8457 h -27.8457 z m 203.14453,0 h 17.59765 l -8.79882,15.23828 z m -14.68555,2.5625 13.92188,24.11328 -24.11524,13.92383 -13.92187,-24.11524 z m -146.61328,2.55859 15.24219,8.80078 -15.24219,8.80078 z m -55.8457,0.004 v 17.5957 l -15.24024,-8.79883 z m -319.26953,0.48047 h 27.84765 v 27.8457 h -27.84765 z m 203.14453,0 h 17.59765 l -8.79883,15.24023 z m 362.99218,1.39453 8.79883,15.23828 h -17.59765 z m -377.67773,1.16797 13.92187,24.11523 -24.11523,13.92188 -13.92383,-24.11524 z m -202.45898,2.56054 V 310.75 l -15.24024,-8.79883 z m 55.84765,0.002 15.23828,8.79687 -15.23828,8.79883 z m -171.97461,0.48047 h 17.59961 l -8.79883,15.24218 z m 362.99219,1.39453 8.80078,15.24023 h -17.59766 z m -377.67773,1.16797 13.92382,24.11523 -24.11718,13.92383 -13.92188,-24.11524 z m 44.41015,4.4375 8.79883,15.24023 h -17.59961 z m 716.70313,2.22851 v 17.59766 l -15.24024,-8.79883 z m 14,0 15.24023,8.80078 -15.24023,8.79688 z M 740.7793,303.3457 h 17.5957 l -8.79883,15.24024 z m 41.8457,0 h 17.59766 l -8.79883,15.24024 z m -56.5332,2.5625 13.92187,24.11524 -24.11328,13.92383 -13.92578,-24.11524 z m -118.76563,2.5625 v 17.59571 l -15.23828,-8.79688 z m 14,0 15.24024,8.79883 -15.24024,8.79688 z m -213.81836,0.48047 h 17.59766 l -8.79883,15.24024 z m 41.84766,0 h 17.59765 l -8.79882,15.24024 z m 362.99219,1.39258 8.79882,15.24219 h -17.5996 z m -41.84766,0.002 8.79883,15.24024 h -17.59766 z m -377.67773,1.16797 13.92187,24.11524 -24.11523,13.92382 -13.92188,-24.11523 z m -118.76563,2.5625 v 17.59766 L 258.81641,322.875 Z m 14,0 15.24024,8.79883 -15.24024,8.79883 z m -213.818359,0.48242 h 17.597657 l -8.798829,15.24024 z m 41.847659,0 h 17.59765 l -8.79882,15.24024 z m 321.14453,1.39258 8.79883,15.24024 h -17.59766 z m 41.8457,0.002 8.79883,15.23829 h -17.5957 z m -419.525389,1.16797 13.923828,24.11524 -24.115234,13.92383 -13.923828,-24.11524 z m 816.958989,1.54102 h 27.84765 v 27.84766 h -27.84765 z m -772.54883,2.89648 8.79883,15.24024 H 95.162109 Z m 41.8457,0 8.79883,15.24024 h -17.59766 z m 716.70313,2.22852 v 17.59766 l -15.24024,-8.79883 z m 55.84765,0 15.24024,8.79883 -15.24024,8.79883 z m -375.11719,0.48242 h 27.84766 v 27.8457 h -27.84766 z m 119.45118,0 h 17.59765 l -8.79883,15.24024 z m -14.6875,2.5625 13.92382,24.11524 -24.11523,13.92187 -13.92383,-24.11523 z m -118.76368,2.56055 v 17.59961 L 514,338.19141 Z m 55.84766,0.002 15.23828,8.79688 -15.23828,8.79882 z M 209.9707,329.875 h 27.84571 v 27.84766 H 209.9707 Z m 119.45118,0 h 17.59765 l -8.79883,15.24023 z m 362.99023,1.39453 8.80078,15.24024 h -17.59766 z m -377.67773,1.16797 13.92382,24.11523 -24.11523,13.92383 -13.92383,-24.11523 z M 195.9707,335 v 17.59766 l -15.24023,-8.79883 z m 55.84571,0 15.24023,8.79883 -15.24023,8.79883 z m 107.32812,1.875 8.79688,15.24023 H 350.3457 Z m 397.43164,2.71094 h 27.84766 v 27.8457 h -27.84766 z m 41.84766,0 h 27.8457 v 27.8457 h -27.8457 z m 146.61133,2.5625 13.92187,24.11523 -24.11523,13.92188 -13.92188,-24.11328 z m -202.45899,2.5625 v 17.59765 l -15.23828,-8.79882 z m 97.69336,0 15.24024,8.79883 -15.24024,8.79882 z m -416.96289,0.48047 h 27.84766 v 27.84765 h -27.84766 z m 41.84766,0 H 493 v 27.84765 h -27.8457 z m 146.60937,2.5625 13.92383,24.11523 -24.11523,13.92383 -13.92383,-24.11524 z m -202.45703,2.5625 v 17.59765 l -15.24023,-8.79883 z m 97.69336,0 15.24023,8.79882 L 507,367.91406 Z m -416.962891,0.48242 h 27.847661 v 27.8457 H 90.037109 Z m 41.847661,0 h 27.8457 v 27.8457 h -27.8457 z m 146.60937,2.5625 13.92383,24.11523 -24.11524,13.92383 -13.92382,-24.11523 z m -202.457031,2.5625 v 17.5957 l -15.240234,-8.79687 z m 97.693361,0 15.24023,8.79883 -15.24023,8.79882 z m 504.75976,4.58594 h 27.84766 v 27.8457 h -27.84766 z m 203.14454,0 h 17.59765 l -8.79883,15.23828 z m -14.6875,2.5625 13.92382,24.11328 -24.11523,13.92578 -13.92383,-24.11719 z m -202.45704,2.56054 v 17.59766 L 649.25,374.43164 Z m 55.84766,0 15.23828,8.79883 -15.23828,8.79883 z m -375.11719,0.48242 h 27.84571 v 27.84766 H 345.2207 Z m 203.14258,0 h 17.59961 l -8.80078,15.24219 z m 362.99414,1.39454 8.79688,15.23828 h -17.59571 z m -377.67969,1.16796 13.92188,24.11719 -24.11328,13.92188 -13.92383,-24.11524 z m -202.45703,2.5625 v 17.59766 l -15.24023,-8.79883 z m 55.84571,0 15.24023,8.79883 -15.24023,8.79883 z m -171.97071,0.48243 h 17.59571 l -8.79688,15.23828 z m 362.99024,1.39257 8.79883,15.24024 h -17.59766 z m -377.67774,1.16993 13.92383,24.11523 -24.11719,13.92188 -13.92187,-24.11524 z m -146.611325,2.56054 15.240234,8.79883 -15.240234,8.79883 z m 191.019535,1.87696 8.79882,15.24023 h -17.59765 z m 516.88476,2.70898 h 17.59766 L 770.5,396.67188 Z m 41.84766,0 h 17.59765 l -8.79882,15.24024 z m -56.53321,2.5625 13.92188,24.11719 -24.11523,13.92187 -13.92383,-24.11523 z M 628.25,386.55664 v 17.59766 l -15.24023,-8.79883 z m 14,0 15.24023,8.79883 -15.24023,8.79883 z m -213.81836,0.48242 h 17.59766 l -8.79883,15.24024 z m 41.8457,0 H 487.875 l -8.79883,15.24024 z m 321.14649,1.39258 8.79883,15.24219 h -17.59961 z m 41.8457,0 8.80078,15.24219 H 824.4707 Z m -419.52539,1.16992 13.92383,24.11524 -24.11524,13.92187 -13.92382,-24.11523 z m -118.76367,2.5625 v 17.59571 l -15.24024,-8.79688 z m 14,0 15.24023,8.79688 -15.24023,8.79883 z m -213.820314,0.48047 h 17.599614 l -8.79883,15.24219 z m 41.847654,0 h 17.59766 l -8.79883,15.24024 z m 321.14649,1.39453 8.79882,15.24024 h -17.59765 z m 41.8457,0 8.79883,15.24024 h -17.59766 z m -419.525391,1.16797 13.923829,24.11524 -24.115235,13.92382 -13.923828,-24.11523 z m 816.958981,1.54102 h 27.84571 v 27.84765 h -27.84571 z m -772.54882,2.89648 8.79687,15.24024 h -17.5957 z m 41.8457,0 8.79883,15.24024 h -17.59961 z m 716.70312,2.22852 v 17.59961 l -15.24023,-8.79883 z m 55.84571,0 15.24218,8.79883 -15.24218,8.80078 z m -375.11719,0.48242 h 27.84766 v 27.8457 h -27.84766 z m 119.45117,0 h 17.59961 l -8.79883,15.24219 z m -14.68555,2.5625 13.92188,24.11523 -24.11328,13.92383 -13.92383,-24.11523 z m -118.76562,2.5625 v 17.59765 l -15.23828,-8.79882 z m 55.84766,0 15.24023,8.79883 -15.24023,8.79882 z m -375.11524,0.48242 h 27.8457 v 27.8457 h -27.8457 z m 119.45117,0 h 17.59766 l -8.79883,15.23828 z m 362.99219,1.39258 8.79883,15.24023 h -17.59961 z m -377.67969,1.16992 13.92383,24.11328 -24.11719,13.92578 -13.92187,-24.11718 z m -118.76367,2.56055 v 17.59765 l -15.24023,-8.79882 z m 55.8457,0 15.24024,8.79883 -15.24024,8.79882 z m 107.32618,1.87695 8.79882,15.23828 h -17.5957 z M 777.5,417.67383 h 27.84766 v 27.8457 H 777.5 Z m 41.84766,0 h 27.8457 v 27.8457 h -27.8457 z m -772.550785,2.89453 8.798828,15.24023 H 37.998047 Z M 763.5,422.79688 v 17.59765 l -15.24023,-8.79883 z m 97.69336,0 15.23828,8.79882 -15.23828,8.79883 z m -416.96289,0.48242 h 27.8457 v 27.84765 h -27.8457 z m 41.8457,0 h 27.84766 v 27.84765 h -27.84766 z m 146.61133,2.5625 13.92383,24.11523 -24.11524,13.92188 -13.92382,-24.11524 z m -202.45703,2.56054 v 17.59961 l -15.24219,-8.80078 z m 97.69336,0.002 15.23828,8.79687 -15.23828,8.80078 z m -416.96289,0.48047 h 27.8457 v 27.84765 h -27.8457 z m 41.8457,0 h 27.8457 v 27.84765 h -27.8457 z m 146.61133,2.5625 13.92187,24.11718 -24.11523,13.92188 -13.92188,-24.11524 z m -202.457032,2.5625 v 17.59765 l -15.240235,-8.79883 z m 97.691402,0 15.24024,8.79882 -15.24024,8.79883 z m 504.75977,4.58593 h 27.84766 v 27.84571 h -27.84766 z m 203.14453,0 h 17.59961 l -8.79883,15.24024 z m -14.68555,2.5625 13.92383,24.11524 -24.11719,13.92383 -13.92187,-24.11524 z m -202.45898,2.5625 v 17.59766 l -15.23828,-8.79883 z m 55.84766,0 15.24023,8.79883 -15.24023,8.79883 z m -375.11524,0.48047 h 27.8457 v 27.84766 h -27.8457 z m 203.14258,0 h 17.59766 l -8.79688,15.24024 z m 362.99219,1.39453 8.80078,15.24024 h -17.59766 z m -377.67774,1.16797 13.92383,24.11524 -24.11719,13.92382 -13.92382,-24.11328 z m -202.45703,2.56055 v 17.60156 L 336.90234,458.125 Z m 55.8457,0.002 15.24024,8.79883 -15.24024,8.80078 z m -171.97265,0.48242 h 17.59765 l -8.79882,15.24024 z m 362.99219,1.39258 8.79882,15.24024 h -17.59765 z m -377.67774,1.16992 13.92188,24.11524 -24.11524,13.92383 -13.92383,-24.11719 z m -146.611327,2.5625 15.238281,8.79883 -15.238281,8.79688 z m 191.019527,1.875 8.79883,15.24024 h -17.59765 z m 516.88477,2.71094 h 17.59766 l -8.79883,15.23828 z m 41.84766,0 h 17.5957 l -8.79883,15.23828 z m -56.53516,2.5625 13.92383,24.11524 -24.11524,13.92382 -13.92382,-24.11718 z m -118.76367,2.5625 v 17.59766 l -15.24024,-8.80078 z m 14,0 15.24023,8.79688 -15.24023,8.80078 z m -213.81836,0.48242 h 17.59765 l -8.79882,15.23828 z m 41.8457,0 h 17.59766 L 500,480.36523 Z m 321.14649,1.39258 8.79882,15.24024 h -17.5996 z m 41.8457,0 8.79883,15.24024 h -17.59766 z m -419.52539,1.16992 13.92383,24.11328 -24.11719,13.92383 -13.92188,-24.11523 z M 315.90234,470.25 v 17.59766 l -15.24023,-8.79883 z m 14,0 15.24024,8.79883 -15.24024,8.79883 z m -213.8164,0.48242 h 17.5957 l -8.79687,15.23828 z m 41.8457,0 h 17.59766 l -8.79883,15.24024 z m 321.14453,1.39453 8.79883,15.23828 h -17.5957 z m 41.84766,0 8.79687,15.23828 H 512.125 Z m -419.52539,1.16797 13.92383,24.11524 -24.117192,13.92187 -13.921875,-24.11523 z m 816.95898,1.54102 h 27.8457 v 27.84765 h -27.8457 z m -772.55078,2.89648 8.79883,15.24024 h -17.59766 z m 41.8457,0 8.79883,15.24024 h -17.59765 z m 772.55078,2.22656 15.24219,8.80079 -15.24219,8.79882 z m -55.8457,0.002 v 17.59765 l -15.24219,-8.79882 z m -319.26953,0.48047 h 27.8457 v 27.84765 h -27.8457 z m 119.44922,0 h 17.59961 l -8.79883,15.24218 z m -14.68555,2.5625 13.92383,24.11718 -24.11523,13.92188 -13.92383,-24.11524 z m -118.76367,2.56054 v 17.60157 l -15.24414,-8.80079 z m 55.8457,0.002 15.24024,8.79882 -15.24024,8.79883 z m -375.11718,0.48242 h 27.8457 v 27.8457 h -27.8457 z m 119.45117,0 h 17.59765 l -8.79882,15.24023 z m 362.99219,1.39258 8.80078,15.24218 h -17.59961 z m -377.67774,1.16992 13.92188,24.11523 -24.11524,13.92383 -13.92383,-24.11523 z m -118.76562,2.5625 v 17.5957 l -15.23829,-8.79687 z m 55.8457,0 15.24023,8.79883 -15.24023,8.79882 z M 37.998047,491.6543 h 17.597656 l -8.798828,15.24023 z m 362.992183,1.39453 8.79883,15.24023 h -17.59765 z m 397.4336,2.71094 h 27.8457 v 27.8457 h -27.8457 z m 41.8457,0 h 27.8457 v 27.8457 h -27.8457 z m -772.55078,2.89453 8.798828,15.24023 H 58.921875 Z m 716.70508,2.22851 v 17.59766 l -15.24024,-8.79688 z m 97.6914,0 15.24024,8.80078 -15.24024,8.79883 z M 465.1543,501.36523 H 493 v 27.84766 h -27.8457 z m 41.8457,0 h 27.8457 v 27.84766 H 507 Z m 146.61133,2.5625 13.92383,24.11524 -24.11719,13.92383 -13.92188,-24.11524 z m -202.45703,2.5625 v 17.59766 l -15.24024,-8.79883 z m 97.6914,0 15.24024,8.79883 -15.24024,8.79883 z m -416.96093,0.48243 h 27.8457 v 27.8457 h -27.8457 z m 41.8457,0 h 27.8457 v 27.8457 h -27.8457 z m 146.60937,2.5625 13.92383,24.11523 -24.11523,13.92188 -13.92383,-24.11524 z m -202.45507,2.56054 v 17.59961 l -15.24024,-8.80078 z m 97.6914,0.002 15.24024,8.79687 -15.24024,8.79883 z m 504.76172,4.58593 h 27.8457 v 27.84571 h -27.8457 z m 203.14453,0 h 17.5957 l -8.79687,15.24024 z m -14.6875,2.5625 13.92188,24.11524 -24.11524,13.92187 -13.92383,-24.11523 z m -202.45703,2.56055 v 17.59766 l -15.24023,-8.79883 z m 55.8457,0.002 15.23829,8.79688 -15.23829,8.79883 z m -375.11718,0.48047 h 27.8457 v 27.84571 h -27.8457 z m 203.14453,0 h 17.59765 l -8.79882,15.24024 z m 362.99218,1.39453 8.79883,15.24024 H 944.4043 Z m -377.67773,1.16797 13.92188,24.11524 -24.11524,13.92187 -13.92383,-24.11328 z m -146.61328,2.56055 15.24219,8.80078 -15.24219,8.79883 z m -55.8457,0.002 v 17.59571 l -15.24024,-8.79688 z m -319.269535,0.48047 h 27.845703 v 27.84766 H 53.796875 Z m 203.144535,0 h 17.59765 l -8.79883,15.24024 z m 362.99218,1.39453 8.79883,15.24024 h -17.59765 z m -377.67968,1.16797 13.92382,24.11524 -24.11523,13.92382 -13.92383,-24.11523 z m -202.457035,2.5625 v 17.59766 L 24.556641,541.8185 Z m 55.845703,0 15.242192,8.79883 -15.242192,8.79883 z m 191.019532,1.875 8.79883,15.24024 h -17.59766 z m 516.88672,2.71094 h 17.59765 l -8.79882,15.24023 z m 41.8457,0 h 17.59766 l -8.79883,15.24023 z m -56.5332,2.5625 13.92383,24.11523 -24.11719,13.92383 -13.92188,-24.11523 z m -118.76367,2.5625 v 17.59765 l -15.24024,-8.79882 z m 14,0 15.24023,8.79883 -15.24023,8.79882 z m -213.81836,0.48242 h 17.5957 l -8.79883,15.23828 z m 41.8457,0 h 17.5957 l -8.79687,15.23828 z m 321.14453,1.39258 8.79883,15.24023 H 824.4707 Z m 41.8457,0 8.79883,15.24023 h -17.5957 z m -419.52343,1.16797 13.92382,24.11523 -24.11718,13.92578 -13.92383,-24.11718 z m -118.76563,2.5625 v 17.59765 l -15.23828,-8.79882 z m 14,0 15.24024,8.79883 -15.24024,8.79882 z m -213.81836,0.48242 h 17.59766 l -8.79883,15.24023 z m 41.84571,0 h 17.5996 l -8.80078,15.24219 z M 500,550.21289 l 8.79883,15.23828 h -17.59766 z m 41.8457,0 8.79883,15.23828 h -17.59765 z m -419.52343,1.16797 13.92187,24.11523 -24.11523,13.92383 -13.923832,-24.11523 z m 86.2539,4.4375 8.79883,15.24023 h -17.59766 z m -41.8457,0.002 8.79687,15.23828 h -17.5957 z m 758.54883,2.22852 v 17.5957 l -15.23828,-8.79883 z m -319.26953,0.48047 h 27.8457 V 586.377 h -27.8457 z m 119.45117,0 h 17.59765 l -8.79882,15.24023 z m -14.68555,2.5625 13.92188,24.11523 -24.11524,13.92188 -13.92187,-24.11524 z m -118.76562,2.56054 V 581.252 l -15.24024,-8.79883 z m 55.8457,0 15.24219,8.80078 -15.24219,8.80079 z m -375.11524,0.48243 h 27.84766 v 27.84765 h -27.84766 z m 119.45118,0 h 17.59765 l -8.79883,15.24218 z m 362.99218,1.39453 8.79883,15.24023 h -17.59765 z m -377.67968,1.16797 13.92382,24.11718 -24.11523,13.92188 -13.92383,-24.11524 z m -118.76368,2.5625 v 17.59765 L 243.5,578.05859 Z m 55.84766,0 15.23828,8.79882 -15.23828,8.79883 z m -255.666015,0.48242 h 17.595703 l -8.796875,15.24023 z m 362.990235,1.39258 8.80078,15.24218 h -17.59961 z m 397.43555,2.71093 h 27.8457 v 27.84571 h -27.8457 z m 41.8457,0 h 27.8457 v 27.84571 h -27.8457 z m -772.550782,2.89649 8.798828,15.24023 H 79.84375 Z m 814.396482,2.22656 15.24219,8.80078 -15.24219,8.79883 z m -97.6914,0.002 v 17.59766 l -15.24024,-8.79883 z m -319.27149,0.48047 h 27.84766 v 27.84766 h -27.84766 z m 41.84766,0 h 27.8457 v 27.84766 h -27.8457 z m 146.61133,2.5625 13.92187,24.11524 -24.11523,13.92382 -13.92383,-24.11328 z m -202.45899,2.5625 v 17.59766 l -15.23828,-8.79688 z m 97.69336,0 15.24219,8.80078 -15.24219,8.79883 z m -416.96289,0.48242 h 27.8457 v 27.84571 h -27.8457 z m 41.8457,0 H 222.5 v 27.84571 h -27.84766 z m 146.61133,2.5625 13.92383,24.11524 -24.11523,13.92383 -13.92188,-24.11719 z m -202.45703,2.5625 v 17.59766 l -15.24023,-8.79883 z m 97.69336,0 15.24023,8.79883 -15.24023,8.79883 z m 504.75977,4.58594 h 27.8457 v 27.8457 h -27.8457 z m 203.14453,0 h 17.59765 l -8.79883,15.23828 z m -14.68555,2.5625 13.92187,24.11524 -24.11523,13.92382 -13.92383,-24.11718 z m -202.45898,2.56055 v 17.59961 l -15.24024,-8.80078 z m 55.8457,0 15.24023,8.79883 -15.24023,8.79882 z m -375.11524,0.48437 h 27.84766 v 27.84571 h -27.84766 z m 203.14454,0 h 17.5957 l -8.79688,15.23828 z m -14.6875,2.5625 13.92382,24.11524 -24.11523,13.92187 -13.92383,-24.11523 z M 393.99023,605.5 v 17.59766 L 378.75,614.29883 Z m 55.84766,0 15.23828,8.79883 -15.23828,8.79883 z m -375.117187,0.48242 h 27.845707 v 27.8457 H 74.720703 Z m 203.144527,0 h 17.59766 l -8.80078,15.24024 z m 362.99024,1.39453 8.79883,15.23828 h -17.59766 z m -377.67774,1.16797 13.92383,24.11524 -24.11718,13.92187 -13.92188,-24.11523 z m -202.457027,2.56055 v 17.59765 L 45.480469,619.9043 Z m 55.845707,0.002 15.24023,8.79688 -15.24023,8.79882 z m 191.01953,1.87305 8.80078,15.24219 h -17.59961 z m 516.88476,2.71094 h 17.59961 l -8.80078,15.24218 z m 41.84766,0 h 17.59766 l -8.79883,15.24218 z m -56.5332,2.5625 13.92187,24.11718 -24.11523,13.92188 -13.92383,-24.11524 z m -118.76563,2.5625 v 17.59765 l -15.24023,-8.79883 z m 14,0 15.24024,8.79882 -15.24024,8.79883 z m -213.81836,0.48242 h 17.59766 L 500,636.53906 Z m 41.84571,0 h 17.59765 l -8.79883,15.24023 z m 362.99218,1.39258 8.79883,15.24218 h -17.59766 z m -41.8457,0.002 8.79883,15.24023 h -17.59766 z m -377.67969,1.16797 13.92383,24.11523 -24.11523,13.92383 -13.92188,-24.11719 z M 357.75,626.42383 v 17.5957 l -15.24023,-8.79687 z m 14,0 15.24023,8.79883 -15.24023,8.79687 z m -213.81836,0.48047 h 17.5957 l -8.79687,15.24023 z m 41.8457,0 H 217.375 l -8.79883,15.24218 z m 321.14649,1.39453 8.79883,15.24023 H 512.125 Z m 41.8457,0 8.79883,15.24023 H 553.9707 Z m -419.52539,1.16797 13.92383,24.11523 -24.11524,13.92383 -13.92382,-24.11524 z m 86.25586,4.4375 8.79883,15.24023 h -17.59766 z m -41.84766,0.002 8.79883,15.23828 h -17.5957 z m 758.55078,2.22656 v 17.59961 l -15.24023,-8.79883 z m -319.26953,0.48242 h 27.84571 v 27.84766 h -27.84571 z m 119.45118,0 h 17.59765 l -8.79883,15.24024 z m -14.6875,2.5625 13.92382,24.11524 -24.11523,13.92383 -13.92383,-24.11524 z m -118.76368,2.5625 v 17.59766 l -15.24023,-8.79883 z m 55.84571,0 15.24023,8.79883 -15.24023,8.79883 z m -375.11719,0.48243 h 27.84766 v 27.8457 h -27.84766 z m 119.45312,0 h 17.59766 l -8.79883,15.24023 z m 362.99024,1.39453 8.79883,15.23828 h -17.59571 z m -377.67774,1.16797 13.92188,24.11523 -24.11328,13.92188 -13.92383,-24.11524 z m -118.76562,2.5625 v 17.59765 l -15.24023,-8.79883 z m 55.84766,0 15.24023,8.79687 -15.24023,8.79883 z m -255.66602,0.48046 h 17.597656 l -8.798828,15.24024 z m 362.99414,1.39258 8.79883,15.24219 H 434.03711 Z M 65.158203,650.39067 79.080078,674.50591 54.964844,688.42974 41.042969,664.3145 Z m 775.111327,1.54297 h 27.8457 v 27.84571 h -27.8457 z m 41.8457,0 h 27.84766 v 27.84571 h -27.84766 z m -772.54882,2.89453 8.79882,15.24024 h -17.59765 z m 716.70312,2.22852 v 17.59766 l -15.24023,-8.79883 z m 97.69336,0.002 15.24023,8.79688 -15.24023,8.79883 z M 507,657.53906 h 27.8457 v 27.84571 H 507 Z m 41.8457,0 h 27.84766 v 27.84571 H 548.8457 Z m 146.61133,2.5625 13.92383,24.11524 -24.11524,13.92187 -13.92382,-24.11328 z M 493,662.66406 v 17.59766 l -15.24023,-8.79883 z m 97.69336,0 15.24023,8.79688 -15.24023,8.79883 z m -416.96289,0.48047 h 27.8457 v 27.84766 h -27.8457 z m 41.8457,0 h 27.84766 v 27.84766 h -27.84766 z m 146.61133,2.5625 13.92383,24.11524 -24.11719,13.92382 -13.92187,-24.11523 z m -202.45703,2.5625 v 17.59766 l -15.24024,-8.79883 z m 97.69336,0 15.23828,8.79883 -15.23828,8.79883 z m 504.75976,4.58594 h 27.84571 v 27.8457 h -27.84571 z m 188.45703,2.5625 13.92383,24.11523 -24.11523,13.92383 -13.92383,-24.11523 z m -202.45703,2.5625 v 17.59765 l -15.24023,-8.79882 z m 55.84571,0 15.24023,8.79883 -15.24023,8.79882 z m -375.11719,0.48242 h 27.84766 v 27.8457 h -27.84766 z m 203.14648,0 h 17.59571 l -8.79883,15.24023 z m -14.6875,2.5625 13.92188,24.11523 -24.11524,13.92383 -13.92187,-24.11718 z m -146.61132,2.56055 15.24023,8.79883 -15.24023,8.79882 z m -55.84766,0.002 v 17.5957 l -15.23828,-8.79882 z m -319.269532,0.48047 h 27.847652 v 27.8457 H 95.642578 Z m 203.144532,0 h 17.59766 l -8.79688,15.24023 z m 362.99219,1.39258 8.79882,15.24023 h -17.59765 z m -377.67969,1.16992 13.92578,24.11523 -24.11719,13.92383 -13.92187,-24.11523 z m -202.457032,2.5625 v 17.5957 l -15.238281,-8.79687 z m 55.847652,0 15.24024,8.79883 -15.24024,8.79883 z m 191.01954,1.875 8.79882,15.24023 h -17.59765 z m 516.88476,2.71094 h 17.59766 l -8.79883,15.23828 z m 41.8457,0 h 17.59766 l -8.79883,15.24023 z m -56.5332,2.5625 13.92383,24.11523 -24.11524,13.92383 -13.92382,-24.11719 z m -118.76367,2.5625 V 716.502 l -15.24219,-8.79883 z m 14,0 15.24023,8.79687 -15.24023,8.80078 z M 512.125,699.38477 h 17.59766 l -8.79883,15.24023 z m 41.8457,0 h 17.59766 l -8.79883,15.24218 z m 321.14453,1.39257 8.80079,15.24219 h -17.59961 z m 41.84766,0.002 8.79883,15.24023 h -17.59766 z m -419.52539,1.16797 13.92383,24.11718 -24.11719,13.92188 -13.92187,-24.11524 z m -118.76367,2.5625 v 17.59765 l -15.24024,-8.79883 z m 14,0 15.23828,8.79882 -15.23828,8.79883 z m -213.82031,0.48242 h 17.5996 l -8.79882,15.24023 z m 41.84765,0 h 17.59766 L 229.5,720.23242 Z m 321.14453,1.39258 8.80078,15.24218 h -17.60156 z m 41.84766,0 8.79883,15.24218 h -17.59961 z m -419.52539,1.16992 13.92187,24.11523 -24.11523,13.92188 -13.92188,-24.11524 z m -104.765626,2.56054 15.242187,8.79883 -15.242187,8.80078 z m -14,0.002 v 17.59765 L 30.162109,718.9161 Z m 163.173826,1.875 8.79883,15.24023 h -17.59766 z m 41.84766,0 8.79883,15.24023 H 241.625 Z m 397.43164,2.70898 h 27.84765 v 27.84766 h -27.84765 z m 119.45117,0 h 17.59961 l -8.80078,15.24219 z m -14.68555,2.5625 13.92188,24.11719 -24.11524,13.92383 -13.92187,-24.11719 z m -62.91797,2.5625 15.24219,8.79883 -15.24219,8.80078 z m -55.84765,0.002 v 17.59571 l -15.24024,-8.79688 z m -319.26758,0.48047 h 27.8457 v 27.84571 h -27.8457 z m 119.44922,0 h 17.59766 l -8.79688,15.24024 z m 362.99219,1.39258 8.80078,15.24219 h -17.59961 z m -377.67969,1.16992 13.92578,24.11524 -24.11719,13.92383 -13.92187,-24.11524 z m -118.76172,2.56055 v 17.59961 l -15.24219,-8.79883 z m 55.8457,0.002 15.24024,8.79883 -15.24024,8.79688 z m -255.66601,0.48047 h 17.59765 l -8.79882,15.24024 z m 362.99219,1.39453 8.79882,15.24024 H 454.96094 Z M 86.080078,728.47656 100.00391,752.5918 75.888672,766.51562 61.964844,742.40039 Z m 775.113282,1.54297 h 27.8457 v 27.8457 h -27.8457 z m 41.8457,0 h 27.84766 v 27.8457 h -27.84766 z m -772.54883,2.89649 8.79688,15.23828 h -17.5957 z m 716.70313,2.22656 v 17.59961 l -15.24024,-8.79883 z m 97.69336,0.002 15.23828,8.79883 -15.23828,8.79687 z M 527.92383,735.627 h 27.8457 v 27.84571 h -27.8457 z m 41.8457,0 h 27.8457 v 27.84571 h -27.8457 z m 146.61133,2.56055 13.92187,24.11719 -24.11328,13.92187 -13.92383,-24.11523 z M 513.92383,740.75 v 17.59766 l -15.24024,-8.79883 z m 97.6914,0 15.24024,8.79883 -15.24024,8.79883 z m -416.96289,0.48242 H 222.5 v 27.8457 h -27.84766 z m 41.84766,0 h 27.8457 v 27.8457 H 236.5 Z m 146.61133,2.5625 13.92187,24.11524 -24.11523,13.92187 -13.92188,-24.11523 z m -104.76563,2.56055 15.24024,8.79883 -15.24024,8.79882 z m -97.69336,0.002 v 17.5957 l -15.24023,-8.79687 z m 602.45313,4.58594 h 27.84765 v 27.8457 h -27.84765 z m -14,5.12305 v 17.59765 l -15.24024,-8.79883 z m 55.84765,0.002 15.24024,8.79687 -15.24024,8.79883 z m -375.11523,0.48047 h 27.8457 v 27.8457 h -27.8457 z m 203.14258,0 h 17.59961 l -8.80078,15.24219 z m -14.68555,2.5625 13.92188,24.11523 -24.11524,13.92383 -13.92383,-24.11523 z m -202.45703,2.56055 v 17.5996 l -15.24023,-8.79882 z m 55.8457,0.002 15.23829,8.79883 -15.23829,8.79687 z m -375.11718,0.48047 h 27.8457 v 27.84765 h -27.8457 z m 203.14453,0 h 17.59765 l -8.79882,15.24023 z m 362.99218,1.39453 8.79883,15.24023 H 673.9043 Z m -377.67773,1.16797 13.92188,24.11523 -24.11524,13.92383 -13.92383,-24.11524 z m -202.45898,2.5625 v 17.59765 l -15.240238,-8.79883 z m 55.8457,0 15.24023,8.79882 -15.24023,8.79883 z m 191.02148,1.87695 8.79688,15.23828 h -17.5957 z m 516.88282,2.70898 h 17.59961 l -8.79883,15.24219 z m 41.84765,0 h 17.59766 l -8.79883,15.24024 z m -56.5332,2.5625 13.92187,24.11719 -24.11328,13.92188 -13.92383,-24.11524 z m -118.76563,2.5625 v 17.59766 l -15.23828,-8.79883 z m 14,0 15.24024,8.79883 -15.24024,8.79883 z m -213.8164,0.48243 h 17.5957 l -8.79883,15.23828 z m 41.8457,0 h 17.59766 l -8.79883,15.24023 z m 321.14453,1.39257 8.79883,15.24024 h -17.59766 z m 41.84571,0 8.79882,15.24024 h -17.5957 z m -419.52344,1.16993 13.92187,24.11523 -24.11523,13.92188 -13.92188,-24.11524 z m -118.76563,2.5625 v 17.59765 l -15.24023,-8.80078 z m 14,0 15.24024,8.79687 -15.24024,8.79883 z m -213.81836,0.48046 H 217.375 l -8.79883,15.24219 z m 41.84766,0 h 17.5957 l -8.79687,15.24024 z m 321.14453,1.39454 8.79883,15.24023 H 553.9707 Z m 41.8457,0 8.79883,15.24023 h -17.5957 z m -419.52539,1.16796 13.92383,24.11719 -24.11523,13.92188 -13.92383,-24.11524 z m -118.763668,2.5625 v 17.59766 L 51.085938,797.0021 Z m 14,0 15.240234,8.79883 -15.240234,8.79883 z m 149.173828,1.875 8.79883,15.24024 h -17.59766 z m 41.8457,0 8.80078,15.24024 h -17.5996 z m 397.4336,2.71094 h 27.84765 v 27.84571 H 668.7793 Z m 119.45117,0 h 17.59961 l -8.80078,15.24024 z m -14.6875,2.5625 13.92383,24.11524 -24.11524,13.92382 -13.92383,-24.11718 z m -118.76367,2.5625 v 17.59571 l -15.23828,-8.79688 z m 55.84765,0 15.23828,8.79688 -15.23828,8.79883 z m -375.11718,0.48047 h 27.8457 v 27.84766 h -27.8457 z m 119.45117,0 h 17.59765 l -8.79882,15.24024 z m 362.99218,1.39453 8.79883,15.24024 H 809.1543 Z m -377.67773,1.16797 13.92188,24.11524 -24.11524,13.92382 -13.92383,-24.11523 z m -118.76562,2.5625 v 17.59766 l -15.24024,-8.79883 z m 55.8457,0 15.24023,8.79883 -15.24023,8.79883 z m -255.66406,0.48242 h 17.59765 l -8.79883,15.24024 z m 362.99218,1.39258 8.79883,15.24024 h -17.59765 z m -377.67968,1.16992 13.92382,24.11524 -24.11523,13.92383 -13.923828,-24.11719 z m 775.11132,1.54102 h 27.84766 v 27.8457 h -27.84766 z m 41.84766,0 h 27.8457 v 27.8457 h -27.8457 z m -772.55078,2.89648 8.80078,15.24024 h -17.59766 z m 814.39648,2.22657 15.24024,8.80078 -15.24024,8.79882 z m -97.69336,0.002 v 17.59765 l -15.23828,-8.79882 z m -319.26953,0.48242 h 27.84766 v 27.8457 H 548.8457 Z m 41.84766,0 h 27.8457 v 27.8457 h -27.8457 z m 146.60937,2.56055 13.92579,24.11718 -24.11719,13.92383 -13.92383,-24.11718 z m -202.45703,2.5625 v 17.59765 l -15.23828,-8.79882 z m 97.69336,0 15.24024,8.79883 -15.24024,8.79882 z m -416.96289,0.48242 h 27.84766 v 27.8457 h -27.84766 z m 41.84766,0 h 27.8457 v 27.8457 h -27.8457 z m 146.60937,2.5625 13.92383,24.11523 -24.11523,13.92383 -13.92383,-24.11523 z m -202.45703,2.5625 v 17.5957 l -15.23828,-8.79687 z m 97.69336,0 15.24024,8.79883 -15.24024,8.79883 z M 70.763672,827.48633 84.6875,851.60352 60.572266,865.52539 46.648438,841.41016 Z M 804.0293,829.0293 h 27.84765 v 27.84765 H 804.0293 Z m -14,5.125 v 17.59765 l -15.24024,-8.79883 z m 55.84765,0 15.23828,8.79687 -15.23828,8.80078 z m -375.11718,0.48047 h 27.8457 v 27.84765 h -27.8457 z m 203.14453,0 h 17.59961 l -8.80079,15.24218 z m -14.6875,2.5625 13.92382,24.11718 -24.11523,13.92188 -13.92383,-24.11524 z m -202.45703,2.5625 v 17.59765 l -15.24024,-8.79883 z m 55.8457,0 15.24023,8.79882 -15.24023,8.79883 z m -375.11524,0.48242 h 27.84766 v 27.8457 h -27.84766 z m 203.14454,0 h 17.5957 l -8.79688,15.24023 z m 362.99218,1.39258 8.79883,15.24218 h -17.59961 z m -377.67968,1.16992 13.92382,24.11523 -24.11523,13.92188 -13.92383,-24.11524 z m -202.45704,2.56054 v 17.59766 L 108.25,854.16406 Z m 55.84766,0.002 15.24023,8.79687 -15.24023,8.79883 z m 191.01758,1.875 8.79883,15.24023 h -17.59571 z m 516.88476,2.70898 h 17.59961 l -8.80078,15.24219 z m 41.84571,0 h 17.59961 l -8.79883,15.24219 z m -56.53321,2.5625 13.92383,24.11719 -24.11523,13.92383 -13.92383,-24.11524 z m -118.76367,2.5625 v 17.59766 l -15.24023,-8.79688 z m 14,0 15.24219,8.79883 -15.24219,8.80078 z m -213.81836,0.48242 h 17.59766 l -8.79883,15.24024 z m 41.84571,0 h 17.59961 l -8.80079,15.24219 z m 321.14648,1.39258 8.79883,15.24219 h -17.59766 z m 41.8457,0.002 8.79883,15.24024 h -17.59765 z m -419.52539,1.16797 13.92383,24.11524 -24.11523,13.92383 -13.92383,-24.11524 z m -118.76367,2.5625 v 17.59766 l -15.24023,-8.79883 z m 14,0 15.24024,8.79883 -15.24024,8.79883 z m -213.81836,0.48047 h 17.59766 L 229.5,876.4043 Z m 41.84571,0 h 17.59765 l -8.79883,15.24024 z m 321.14648,1.39453 8.79883,15.24024 h -17.59766 z m 41.8457,0 8.79883,15.24024 h -17.59766 z m -419.52539,1.16797 13.92383,24.11719 -24.11523,13.92187 -13.92188,-24.11523 z M 87.25,866.28906 v 17.59766 l -15.240234,-8.79883 z m 14,0 15.24023,8.79883 -15.24023,8.79883 z m 149.17188,1.875 8.79882,15.24024 H 241.625 Z m 41.84765,0.002 8.79883,15.23828 H 283.4707 Z m 397.43359,2.71093 h 27.84571 v 27.84571 h -27.84571 z m 119.45118,0 h 17.59765 l -8.79883,15.23828 z m -14.68555,2.5625 13.92187,24.11328 -24.11523,13.92383 -13.92383,-24.11523 z M 675.70312,876 v 17.59766 l -15.24023,-8.79883 z m 55.84571,0 15.24023,8.79883 -15.24023,8.80078 z m -375.11524,0.48242 h 27.84571 v 27.8457 h -27.84571 z m 119.45118,0 h 17.5957 l -8.79688,15.23828 z m 362.99218,1.39453 8.79688,15.23828 h -17.59571 z m -377.67968,1.16797 13.92382,24.11524 -24.11523,13.92187 -13.92383,-24.11523 z m -118.76368,2.56055 v 17.59961 l -15.24218,-8.80078 z m 55.84571,0.002 15.24023,8.79883 -15.24023,8.79883 z m -255.66602,0.48047 h 17.59961 l -8.80078,15.24219 z m 362.99219,1.39453 8.80078,15.24024 h -17.59766 z m -377.67774,1.16797 13.92188,24.11523 -24.11523,13.92383 -13.92188,-24.11523 z m 775.11133,1.54297 h 27.84766 v 27.8457 H 903.03906 Z M 65.009766,887.21289 80.25,896.01172 65.009766,904.81055 Z m 107.328124,1.875 8.79688,15.24023 h -17.59766 z m 716.70117,2.23047 v 17.5957 l -15.24023,-8.79883 z m -319.26953,0.48047 h 27.8457 v 27.8457 h -27.8457 z m 41.8457,0 h 27.84766 v 27.8457 h -27.84766 z m 146.61329,2.5625 13.92187,24.11523 -24.11523,13.92383 -13.92383,-24.11523 z m -202.45899,2.5625 v 17.5957 l -15.23828,-8.79687 z m 97.69336,0 15.24023,8.79883 -15.24023,8.79882 z M 236.5,897.4043 h 27.8457 v 27.84765 H 236.5 Z m 41.8457,0 h 27.84766 v 27.84765 H 278.3457 Z m 146.61133,2.5625 13.92383,24.11523 -24.11524,13.92578 -13.92382,-24.11719 z M 222.5,902.5293 v 17.59765 l -15.24219,-8.79883 z m 97.69336,0 15.24023,8.79882 -15.24023,8.79883 z m -228.50586,3.04492 13.92383,24.11523 -24.117189,13.92383 -13.921875,-24.11523 z m 733.26562,1.54101 h 27.84571 v 27.84766 h -27.84571 z m -14,5.125 v 17.59766 l -15.24023,-8.79883 z m 55.84571,0 15.24219,8.79883 -15.24219,8.79883 z m -375.11524,0.48243 h 27.84571 v 27.8457 h -27.84571 z m 203.14453,0 h 17.59571 l -8.79688,15.24023 z m -14.6875,2.5625 13.92383,24.11523 -24.11718,13.92383 -13.92188,-24.11719 z m -202.45703,2.56054 v 17.59961 l -15.24023,-8.80078 z m 55.84571,0 15.24023,8.79883 -15.24023,8.79883 z m -375.11719,0.48242 h 27.84766 v 27.84766 h -27.84766 z m 203.14648,0 h 17.59766 l -8.79883,15.24024 z m 362.99024,1.39454 8.80078,15.24023 H 715.75 Z m -377.67774,1.16796 13.92383,24.11719 -24.11719,13.92188 -13.92187,-24.11524 z m -202.45898,2.5625 v 17.59766 l -15.23828,-8.79883 z m 55.84766,0 15.24023,8.79883 -15.24023,8.79883 z m 191.01953,1.87696 8.79882,15.23828 h -17.59765 z m 516.88476,2.70898 h 17.59766 l -8.79883,15.24024 z m -850.154294,2.89649 8.798828,15.24023 H 49.210938 Z m 716.703124,2.22851 v 17.59766 l -15.24023,-8.79883 z m 14,0 15.24219,8.79883 -15.24219,8.79883 z m -213.82031,0.48047 h 17.59961 l -8.79883,15.24219 z m 41.8457,0 h 17.60156 l -8.80078,15.24219 z m -175.29492,5.125 v 17.59766 l -15.24024,-8.79883 z m 14,0 15.24023,8.79883 -15.24023,8.79883 z m -213.82031,0.48242 h 17.59765 l -8.79882,15.24024 z m 41.84765,0 h 17.59766 l -8.79883,15.24024 z m -175.29687,5.125 v 17.59766 l -15.240236,-8.79883 z m 14,0 15.24023,8.79883 -15.24023,8.79883 z m 707.90429,4.58594 h 17.59571 l -8.79883,15.23828 z m -333.27148,5.60547 h 17.59766 l -8.79883,15.24023 z m -333.26953,5.60742 h 17.59766 l -8.79883,15.24024 z"
     id="path835" />
</svg>
