<?xml version="1.0" encoding="UTF-8" standalone="no"?>
<svg
   xmlns:dc="http://purl.org/dc/elements/1.1/"
   xmlns:cc="http://creativecommons.org/ns#"
   xmlns:rdf="http://www.w3.org/1999/02/22-rdf-syntax-ns#"
   xmlns:svg="http://www.w3.org/2000/svg"
   xmlns="http://www.w3.org/2000/svg"
   xmlns:sodipodi="http://sodipodi.sourceforge.net/DTD/sodipodi-0.dtd"
   xmlns:inkscape="http://www.inkscape.org/namespaces/inkscape"
   inkscape:version="1.0.1 (3bc2e813f5, 2020-09-07)"
   sodipodi:docname="4-uniform_82.svg"
   id="c:\kuniform\4u\4-uniform_82.svg"
   height="1000.0"
   width="1000.0"
   version="1.0">
  <style
     id="style2822" />
  <metadata
     id="metadata2820">
    <rdf:RDF>
      <cc:Work
         rdf:about="">
        <dc:format>image/svg+xml</dc:format>
        <dc:type
           rdf:resource="http://purl.org/dc/dcmitype/StillImage" />
        <dc:title></dc:title>
      </cc:Work>
    </rdf:RDF>
  </metadata>
  <defs
     id="defs2818" />
  <sodipodi:namedview
     inkscape:current-layer="c:\kuniform\4u\4-uniform_82.svg"
     inkscape:window-maximized="1"
     inkscape:window-y="-9"
     inkscape:window-x="-9"
     inkscape:cy="321.57678"
     inkscape:cx="466.18675"
     inkscape:zoom="1.0738197"
     showgrid="false"
     id="namedview2816"
     inkscape:window-height="1001"
     inkscape:window-width="1920"
     inkscape:pageshadow="2"
     inkscape:pageopacity="0"
     guidetolerance="10"
     gridtolerance="10"
     objecttolerance="10"
     borderopacity="1"
     inkscape:document-rotation="0"
     bordercolor="#666666"
     pagecolor="#ffffff" />
  <!-- X Coordinate transform: fx(x)=(x+78.93713)*0.86365163-->
  <!-- Y Coordinate transform: fy(y)=(1078.9371-y)*0.86365163 -->
  <path
     style="color:#000000;font-style:normal;font-variant:normal;font-weight:normal;font-stretch:normal;font-size:medium;line-height:normal;font-family:sans-serif;font-variant-ligatures:normal;font-variant-position:normal;font-variant-caps:normal;font-variant-numeric:normal;font-variant-alternates:normal;font-variant-east-asian:normal;font-feature-settings:normal;font-variation-settings:normal;text-indent:0;text-align:start;text-decoration:none;text-decoration-line:none;text-decoration-style:solid;text-decoration-color:#000000;letter-spacing:normal;word-spacing:normal;text-transform:none;writing-mode:lr-tb;direction:ltr;text-orientation:mixed;dominant-baseline:auto;baseline-shift:baseline;text-anchor:start;white-space:normal;shape-padding:0;shape-margin:0;inline-size:0;clip-rule:nonzero;display:inline;overflow:visible;visibility:visible;isolation:auto;mix-blend-mode:normal;color-interpolation:sRGB;color-interpolation-filters:linearRGB;solid-color:#000000;solid-opacity:1;vector-effect:none;fill:#000000;fill-opacity:1;fill-rule:nonzero;stroke:none;stroke-width:15;stroke-linecap:butt;stroke-linejoin:miter;stroke-miterlimit:4;stroke-dasharray:none;stroke-dashoffset:0;stroke-opacity:1;color-rendering:auto;image-rendering:auto;shape-rendering:auto;text-rendering:auto;enable-background:accumulate;stop-color:#000000"
     d="m 149.81836,-1.5449219 -3.75,6.4941407 h -7.5 V 40.632812 H 102.88672 57.695312 l -39.138671,22.595704 3.75,6.49414 -3.75,6.496094 30.902343,17.841797 -15.675781,27.152343 -4.330078,7.5 -19.427734,33.64649 6.496093,3.75 v 7.5 h 35.681641 v 35.68359 35.68164 H 16.521484 v 7.5 l -6.496093,3.75 19.425781,33.64648 -19.425781,33.64844 6.496093,3.75 v 7.5 h 35.681641 v 31.35156 8.66016 31.35352 H 16.521484 v 7.5 l -6.496093,3.75 19.427734,33.64648 -19.427734,33.64844 6.496093,3.75 -3.75,6.49414 26.148438,15.09765 -26.148438,15.09571 3.75,6.49609 -3.75,6.49414 26.146485,15.0957 -26.146485,15.09571 3.75,6.49414 -3.75,6.49609 30.902344,17.8418 -17.841797,30.90234 -21.5917966,37.39649 6.4960936,3.75 -3.7499999,6.49609 26.1464839,15.0957 -26.1464839,15.09571 3.7499999,6.49609 -3.7499999,6.49414 26.1464839,15.0957 -26.1464839,15.09571 3.7499999,6.49609 -3.7499999,6.4961 30.9023439,17.84179 -15.675781,27.15039 -2.166016,3.75 -21.5917969,37.39844 6.4941407,3.75 v 7.5 H 40.632812 v 35.68164 45.19141 l 22.595704,39.13867 6.49414,-3.75 6.496094,3.75 17.841797,-30.90234 27.152343,15.67578 7.5,4.33008 33.64649,19.42773 3.75,-6.49609 h 7.5 v -35.68164 h 35.68359 35.68164 v 35.68164 h 7.5 l 3.75,6.49609 33.64648,-19.42578 33.64844,19.42578 3.75,-6.49609 h 7.5 v -35.68164 h 31.35156 8.66016 31.35352 v 35.68164 h 7.5 l 3.75,6.49609 33.64648,-19.42773 33.64844,19.42773 3.75,-6.49609 6.49414,3.75 15.09765,-26.14844 15.09571,26.14844 6.49609,-3.75 6.49414,3.75 15.0957,-26.14649 15.09571,26.14649 6.49414,-3.75 6.49609,3.75 17.8418,-30.90235 30.90234,17.8418 37.39649,21.5918 3.75,-6.4961 6.49609,3.75 15.0957,-26.14648 15.09571,26.14648 6.49609,-3.75 6.49414,3.75 15.0957,-26.14648 15.09571,26.14648 6.49609,-3.75 6.4961,3.75 17.84179,-30.90039 30.90039,17.83984 37.39844,21.59178 3.75,-6.49607 h 7.5 v -35.68164 h 35.68164 45.19141 l 39.13867,-22.59571 -3.75,-6.49414 3.75,-6.49609 -30.90234,-17.8418 15.67578,-27.15234 4.33008,-7.5 19.42773,-33.64649 -6.49609,-3.75 v -7.5 h -35.68164 v -35.68359 -35.68164 h 35.68164 v -7.5 l 6.49609,-3.75 -19.42578,-33.64648 19.42578,-33.64844 -6.49609,-3.75 v -7.5 h -35.68164 v -31.35156 -8.66016 -31.35352 h 35.68164 v -7.5 l 6.49609,-3.75 -19.42773,-33.64648 19.42773,-33.64844 -6.49609,-3.75 3.75,-6.49414 -26.14844,-15.09765 26.14844,-15.09571 -3.75,-6.49609 3.75,-6.49414 -26.14649,-15.0957 26.14649,-15.09571 -3.75,-6.49414 3.75,-6.49609 -30.90235,-17.8418 17.8418,-30.90234 21.5918,-37.39649 -6.4961,-3.75 3.75,-6.49609 -26.14648,-15.0957 26.14648,-15.09571 -3.75,-6.49609 3.75,-6.49414 -26.14648,-15.0957 26.14648,-15.09571 -3.75,-6.49609 3.75,-6.4961 -30.90039,-17.84179 17.83984,-30.90039 21.59178,-37.39844 -6.49607,-3.75 v -7.5 H 959.36719 V 102.88672 57.695312 l -22.59571,-39.138671 -6.49414,3.75 -6.49609,-3.75 -17.8418,30.902343 -30.90234,-17.841796 -3.75,-2.164063 -33.64649,-19.427734 -3.75,6.496093 h -7.5 V 52.203125 H 790.70703 755.02539 V 16.521484 h -7.5 l -3.75,-6.496093 -33.64648,19.425781 -33.64844,-19.425781 -3.75,6.496093 h -7.5 v 35.681641 h -31.35156 -8.66016 -31.35352 V 16.521484 h -7.5 l -3.75,-6.496093 -33.64648,19.427734 -33.64844,-19.427734 -3.75,6.496093 -6.49414,-3.75 -15.09765,26.148438 -15.09571,-26.148438 -6.49609,3.75 -6.49414,-3.75 -15.0957,26.146485 -15.09571,-26.146485 -6.49414,3.75 -6.49609,-3.75 -17.8418,30.902344 -30.90234,-17.841797 -37.39649,-21.5917966 -3.75,6.4960936 -6.49609,-3.7499999 -15.0957,26.1464839 -15.09571,-26.1464839 -6.49609,3.7499999 -6.49414,-3.7499999 -15.0957,26.1464839 -15.09571,-26.1464839 -6.49609,3.7499999 -6.4961,-3.7499999 -17.84179,30.9023439 -27.15039,-15.675781 -3.75,-2.166016 z m 3.75,19.4843749 14.89844,8.601563 -14.89844,8.601562 z m 177.99609,3.041016 24.40821,14.091797 -14.08985,24.40625 -24.4082,-14.091797 z m -89.10937,4.755859 8.60156,14.896484 h -17.20312 z m 43.18164,0 8.60156,14.896484 h -17.20117 z m 228.67969,1.029297 24.4082,14.091797 -14.09375,24.408203 -24.40625,-14.091797 z m 64.54882,2.746094 v 17.201172 l -14.89648,-8.59961 z m 101.36524,0 14.89844,8.601562 -14.89844,8.59961 z m 59.79492,0 v 17.201172 l -14.89648,-8.59961 z m 101.36523,0 14.89649,8.601562 -14.89649,8.59961 z m -416.18359,2.009765 8.59961,14.896485 h -17.20117 z m 43.18164,0 8.59961,14.896485 h -17.20117 z m 461.88672,5.785157 8.60156,14.896484 H 921.67383 Z M 175.9668,39.533203 v 17.201172 l -14.89649,-8.601563 z m 15,0 14.89648,8.599609 -14.89648,8.59961 z m 177.99609,3.039063 24.40625,14.091796 -14.08984,24.40625 -24.40625,-14.091796 z m 182.75195,5.785156 24.40625,14.091797 -14.09179,24.408203 -24.40625,-14.091797 z m 150.91407,2.746094 v 17.201172 l -14.89649,-8.601563 z m 15,0 14.89648,8.599609 -14.89648,8.599609 z m 146.1582,0 v 17.201172 l -14.89649,-8.601563 z m 15,0 14.89648,8.599609 -14.89648,8.601563 z M 67.203125,55.632812 H 95.386719 V 83.816406 H 67.203125 Z m 43.183595,0 h 28.18164 v 28.183594 h -28.18164 z m 117.97656,0 h 28.1836 v 28.183594 h -28.1836 z m 43.1836,0 h 28.18164 V 83.816406 H 271.54688 Z M 52.203125,61.123047 V 78.326172 L 37.306641,69.724609 Z m 101.365235,0 14.89844,8.601562 -14.89844,8.601563 z m 59.79492,0 v 17.201172 l -14.89648,-8.59961 z m 101.36524,0 14.89648,8.601562 -14.89648,8.59961 z m 101.875,0.294922 h 17.20312 l -8.60156,14.898437 z m 43.18359,0 h 17.20312 l -8.60156,14.898437 z m 32.9375,2.746093 24.40625,14.091797 -14.0918,24.406251 -24.40429,-14.091798 z m 106.63086,3.039063 h 17.20312 l -8.60156,14.898437 z m 43.18359,0 h 17.20117 l -8.59961,14.898437 z m 112.48633,0 h 28.18164 v 28.183594 h -28.18164 z m 43.18164,0 h 28.18359 v 28.183594 h -28.18359 z m 117.97656,0 h 28.1836 v 28.183594 h -28.1836 z m -469.38671,1.714844 8.60156,14.898437 h -17.20117 z m -43.1836,0.002 8.60156,14.896484 h -17.20117 z m 271.86328,1.029297 24.40625,14.089843 -14.09179,24.408211 -24.40625,-14.089851 z m 64.54883,2.74414 v 17.203125 l -14.89648,-8.601562 z m 101.36523,0.002 14.89454,8.59961 -14.89454,8.599609 z m 59.79297,0 v 17.199219 l -14.89453,-8.599609 z m -271.63476,2.007813 8.60156,14.898437 h -17.20312 z m -43.1836,0.002 8.59961,14.896484 H 577.76367 Z M 175.9668,82.714844 v 17.203125 l -14.89844,-8.601563 z m 15,0 14.89648,8.601562 -14.89648,8.59961 z m 146.16015,0 v 17.203125 l -14.89843,-8.601563 z m 15,0 14.89649,8.601562 -14.89649,8.59961 z m 177.9961,3.041015 24.40625,14.091797 -14.0918,24.404294 -24.4082,-14.08984 z m 182.75,5.785157 24.40625,14.089844 -14.0918,24.4082 -24.40625,-14.09179 z m 150.91406,2.74414 v 17.201174 l -14.89649,-8.59961 z m 15,0 14.89648,8.601564 -14.89648,8.60156 z m -806.091798,4.53125 h 17.199219 l -8.599609,14.894534 z m 43.181638,0 h 17.20117 l -8.5996,14.896484 z m 112.48633,0 h 28.1836 v 28.181644 h -28.1836 z m 43.1836,0 h 28.18164 v 28.181644 h -28.18164 z m 117.97656,0 h 28.18164 v 28.181644 h -28.18164 z m 43.18164,0 h 28.18359 v 28.181644 h -28.18359 z m -283.89258,2.744144 24.4082,14.09179 -14.09179,24.40625 -24.40625,-14.09179 z m 64.55078,2.74609 v 17.20117 l -14.89648,-8.60156 z m 101.36524,0 14.89843,8.60156 -14.89843,8.59961 z m 59.79492,0 v 17.20117 l -14.89649,-8.60156 z m 101.36523,0 14.89649,8.59961 -14.89649,8.60156 z m 101.875,0.29492 h 17.20117 l -8.59961,14.89649 z m 43.1836,0 h 17.20117 L 629.54883,119.5 Z m -561.244145,1.71485 8.601563,14.89648 H 51.103516 Z m 43.183595,0 8.59961,14.89648 H 94.285156 Z m 550.99805,1.03125 24.40625,14.08984 -14.0918,24.4082 -24.40625,-14.09179 z m 106.63085,3.03906 h 17.20118 l -8.60157,14.89648 z m 43.1836,0 h 17.20117 l -8.60156,14.89648 z m 112.48437,0 h 28.1836 v 28.18164 h -28.1836 z m -351.41015,1.71484 8.60156,14.89649 h -17.20117 z m 43.18359,0 8.59961,14.89649 h -17.20117 z m 228.67969,1.03125 24.40625,14.08985 -14.0918,24.40625 -24.40625,-14.08985 z m 64.54687,2.74414 v 17.20117 l -14.89648,-8.5996 z m -153.6582,2.00977 8.59961,14.89648 h -17.20117 z m 43.18164,0 8.60156,14.89648 h -17.20117 z m -604.49609,5.26562 24.40625,14.0918 -14.08985,24.40625 -24.40625,-14.0918 z m 150.91601,2.74414 v 17.20313 l -14.89843,-8.60156 z m 176.15821,0 14.89843,8.60157 -14.89843,8.60156 z m -161.15821,0.002 14.89649,8.59961 -14.89649,8.59961 z m 146.15821,0 v 17.20117 l -14.89649,-8.60156 z m 192.99609,3.03906 24.40625,14.08984 -14.08984,24.40821 -24.40821,-14.08985 z m 182.75195,5.78516 24.40625,14.08984 -14.09179,24.4082 -24.40625,-14.09179 z m -822.929684,1.49023 h 17.201172 l -8.601563,14.89649 z m 43.18164,0 h 17.201174 l -8.59961,14.89649 z m 32.937504,2.74414 24.40625,14.0918 -14.08985,24.40625 -24.40625,-14.0918 z m 106.63086,3.04102 h 17.20117 l -8.60157,14.89648 z m 43.18359,0 h 17.20117 l -8.60156,14.89648 z m 112.48633,0 h 28.18164 v 28.18359 h -28.18164 z m 43.18164,0 h 28.18359 v 28.18359 h -28.18359 z m 117.97851,0 h 28.18164 v 28.18359 h -28.18164 z m 43.18164,0 h 28.1836 v 28.18359 h -28.1836 z m -555.751949,1.71484 8.59961,14.89649 H 29.511719 Z m 43.181641,0.002 8.599609,14.89454 H 72.695312 Z m 228.677738,1.0293 24.40625,14.0918 -14.08985,24.40625 -24.40625,-14.0918 z m 64.55078,2.74414 V 164.6915 L 359.625,156.08984 Z m 101.36523,0 14.89649,8.60156 -14.89649,8.60157 z m 161.16016,0 14.89648,8.60156 -14.89648,8.60157 z m -101.36524,0.002 v 17.20118 l -14.89843,-8.60157 z m 203.24024,0.29297 H 756.125 l -8.59961,14.89844 z m 43.18359,0 h 17.20117 l -8.60156,14.89844 z m -561.24414,1.71485 8.59961,14.89648 h -17.19922 z m 43.1836,0 8.5996,14.89648 h -17.20117 z m 550.99804,1.03125 24.40625,14.09179 -14.09179,24.40625 -24.40626,-14.09179 z m 106.62891,3.03906 h 17.20312 l -8.60156,14.89844 z m 43.18359,0 h 17.20117 l -8.60156,14.89844 z m -238.92383,1.71484 8.60157,14.89844 h -17.20313 z m 43.18164,0 8.60157,14.89844 h -17.20118 z m -604.49414,5.26563 24.40625,14.09179 -14.09179,24.40626 -24.40625,-14.0918 z m 744.0625,0.51953 8.60157,14.89844 h -17.20313 z m 43.1836,0.002 8.59961,14.89649 h -17.20118 z m -604.4961,5.26563 24.40625,14.09179 -14.08984,24.40625 -24.4082,-14.09179 z m 150.91407,2.74414 v 17.20117 l -14.89649,-8.59961 z m 15,0 14.89843,8.60156 -14.89843,8.59961 z m 146.16015,0 v 17.20117 l -14.89648,-8.59961 z m 15,0 14.89649,8.60156 -14.89649,8.59961 z m 177.9961,3.04101 24.40625,14.08985 -14.0918,24.40625 -24.40625,-14.08985 z m -785.238285,1.48829 h 28.183594 v 28.18359 H 67.203125 Z m 43.183595,5.49023 14.89648,8.60156 -14.89648,8.59961 z m 101.875,0.29492 h 17.20117 l -8.59961,14.89844 z m 43.18359,0 h 17.20313 l -8.60156,14.89844 z m 32.9375,2.74609 24.40625,14.0918 -14.08984,24.40625 -24.4082,-14.08984 z m 106.63086,3.04102 h 17.20117 l -8.60156,14.89648 z m 43.18164,0 h 17.20313 l -8.60156,14.89844 z m 112.48828,0 h 28.18164 v 28.18164 h -28.18164 z m 43.18164,0 h 28.1836 v 28.18164 h -28.1836 z m 117.97657,0 h 28.18359 v 28.18164 H 711.8418 Z m 43.18359,0 h 28.18164 v 28.18164 h -28.18164 z m -512.57227,1.71289 8.60157,14.89844 h -17.20117 z m -43.18164,0.002 8.60157,14.89649 h -17.20117 z m 271.86329,1.03125 24.40429,14.08985 -14.08984,24.40625 -24.40625,-14.08985 z m 64.54882,2.74415 v 17.20117 l -14.89843,-8.60157 z m 101.36524,0 14.89648,8.5996 -14.89648,8.60157 z m 59.79297,0 v 17.20117 l -14.89649,-8.60157 z m 101.36523,0 14.89649,8.5996 -14.89649,8.60157 z m 101.87695,0.29492 h 17.20118 l -8.60157,14.89648 z m 43.18164,0 h 17.20118 l -8.59961,14.89648 z m -561.24218,1.71484 8.59961,14.89648 h -17.19922 z m 43.18164,0 8.60156,14.89648 h -17.20117 z m 461.88867,5.78516 8.59961,14.89648 h -17.20117 z m 43.18164,0 8.60156,14.89648 h -17.20117 z m -797.49219,2.22461 v 17.20117 l -14.89648,-8.59961 z m 15,0 14.89844,8.60156 -14.89844,8.59961 z m 177.9961,3.04101 24.4082,14.0918 -14.0918,24.40625 -24.40625,-14.0918 z m 182.75,5.78516 24.4082,14.0918 -14.0918,24.40624 -24.40625,-14.09179 z m 150.91601,2.74414 v 17.20117 l -14.89648,-8.59961 z m 15,0 14.89649,8.60156 -14.89649,8.60156 z m 146.16016,0 v 17.20117 l -14.89844,-8.59961 z m 15,0.002 14.89648,8.59961 -14.89648,8.59961 z m -768.402345,4.5293 H 95.386719 V 244.9749 H 67.203125 Z m 117.978515,0 h 28.18164 v 28.18164 h -28.18164 z m 43.18164,0 h 28.1836 v 28.18164 h -28.1836 z m -117.97656,5.49023 14.89648,8.60157 -14.89648,8.59961 z m 59.79492,0 v 17.20118 l -14.89844,-8.59961 z m 101.36524,0 14.89648,8.60157 -14.89648,8.59961 z m 101.875,0.29492 h 17.20117 l -8.59961,14.89649 z m 43.18359,0 h 17.20117 l -8.60156,14.89649 z m 32.9375,2.7461 24.40625,14.08984 -14.0918,24.40821 -24.40625,-14.0918 z m 106.63086,3.03906 H 573.375 l -8.60156,14.89844 z m 43.18164,0 h 17.20312 l -8.60156,14.89844 z m 112.48633,0 h 28.18359 v 28.1836 H 711.8418 Z m 43.18359,0 h 28.18164 v 28.1836 h -28.18164 z m 117.97656,0 h 28.18164 v 28.1836 h -28.18164 z m 43.18164,0 h 28.1836 v 28.1836 h -28.1836 z m -555.75195,1.71484 8.60156,14.89649 h -17.20312 z m 43.18164,0 8.60156,14.89649 h -17.20117 z m 228.67969,1.03126 24.4082,14.08984 -14.09179,24.4082 -24.40821,-14.08984 z m 64.54883,2.74414 v 17.20117 l -14.89649,-8.59961 z m 101.36523,0 14.89844,8.5996 -14.89844,8.60157 z m 59.79492,0 v 17.20117 l -14.89648,-8.60157 z m 101.36524,0 14.89648,8.60156 -14.89648,8.60156 z m -416.1836,2.00976 8.59961,14.89844 h -17.20117 z m 43.18164,0.002 8.59961,14.89649 H 577.76367 Z M 132.7832,243.875 v 17.20117 l -14.89648,-8.60156 z m 15,0 14.89844,8.59961 -14.89844,8.60156 z m 146.16016,0 v 17.20117 l -14.89648,-8.60156 z m 15,0 14.89844,8.59961 -14.89844,8.60156 z m 177.99609,3.03906 24.40625,14.0918 -14.09179,24.40625 -24.40625,-14.08984 z m 182.75196,5.78516 24.40625,14.0918 -14.0918,24.40625 -24.40625,-14.08985 z m 150.91406,2.74609 v 17.20313 l -14.89844,-8.60156 z m 15,0 14.89648,8.60157 -14.89648,8.5996 z m -806.093751,4.5293 h 17.201172 l -8.59961,14.89648 z m 43.18164,0 h 17.203125 l -8.601562,14.89648 z m 112.488281,0 h 28.18164 v 28.18359 h -28.18164 z m 43.18164,0 h 28.1836 v 28.18359 h -28.1836 z m 117.97656,0 h 28.1836 v 28.18359 h -28.1836 z m 43.1836,0 h 28.18164 v 28.18359 h -28.18164 z m -283.89258,2.74609 24.4082,14.0918 -14.09179,24.40625 -24.406254,-14.0918 z m 64.55078,2.74414 v 17.20313 l -14.89844,-8.60156 z m 101.36524,0 14.89648,8.60157 -14.89648,8.60156 z m 161.1582,0 14.89844,8.60157 -14.89844,8.60156 z m -101.36524,0.002 v 17.20117 l -14.89648,-8.60156 z m 203.24219,0.29492 h 17.20117 l -8.59961,14.89648 z m 43.18164,0 h 17.20117 l -8.59961,14.89648 z m -518.060545,1.71289 8.599609,14.89648 H 51.103516 Z m 550.998045,1.03125 24.40821,14.0918 -14.09376,24.40625 -24.40429,-14.0918 z m 106.63086,3.04102 h 17.20313 l -8.60157,14.89648 z m 43.18359,0 h 17.20118 l -8.60157,14.89648 z m 112.48633,0 h 28.18164 v 28.18164 h -28.18164 z m 43.18164,0 h 28.1836 v 28.18164 h -28.1836 z m -394.59179,1.71289 8.60156,14.89843 h -17.20313 z m 43.18164,0.002 8.60156,14.89648 h -17.20117 z m 228.67773,1.0293 24.40821,14.09179 -14.0918,24.40625 -24.40625,-14.08984 z m 64.55078,2.74609 v 17.20117 l -14.89648,-8.60156 z m 101.36524,0 14.89648,8.59961 -14.89648,8.60156 z m -255.02539,2.00977 8.59961,14.89648 h -17.20118 z m 43.18359,0 8.59961,14.89648 h -17.20117 z m -604.49805,5.26562 24.40821,14.0918 -14.08985,24.40625 -24.4082,-14.0918 z m 165.91602,2.74414 14.89648,8.60156 -14.89648,8.59961 z m 146.16016,0 v 17.20313 l -14.89844,-8.60157 z m -161.16016,0.002 v 17.20118 l -14.89648,-8.60157 z m 176.16016,0 14.89648,8.59961 -14.89648,8.59961 z m 177.99609,3.03907 24.40625,14.09179 -14.0918,24.40625 -24.40625,-14.09179 z m 182.75,5.78515 24.40625,14.08985 -14.0918,24.40625 -24.40625,-14.08985 z m -779.746094,1.48828 h 17.201172 l -8.601563,14.89649 z m 32.935546,2.7461 24.408208,14.09179 -14.089848,24.40625 -24.408203,-14.09179 z m 106.632818,3.04101 h 17.20117 l -8.60157,14.89649 z m 43.18164,0 h 17.20117 l -8.59961,14.89649 z m 112.48632,0 h 28.1836 v 28.18164 h -28.1836 z m 43.1836,0 h 28.18164 v 28.18164 h -28.18164 z m 117.97656,0 h 28.18359 v 28.18164 H 507.5 Z m 43.18359,0 h 28.18164 v 28.18164 h -28.18164 z m -512.570309,1.71289 8.59961,14.89844 H 29.511719 Z m 228.677739,1.03125 24.40625,14.0918 -14.08985,24.40625 -24.4082,-14.0918 z m 64.54882,2.7461 v 17.20117 L 316.44336,317.25 Z m 101.36524,0 14.89844,8.59961 -14.89844,8.60156 z m 59.79492,0 v 17.20117 L 477.60352,317.25 Z m 101.36523,0 14.89649,8.59961 -14.89649,8.60156 z m 101.87696,0.29492 h 17.20117 l -8.60156,14.89648 z m 43.18164,0 H 756.125 l -8.59961,14.89844 z m -561.24219,1.71484 8.59961,14.89649 h -17.19922 z m 43.18164,0 8.60156,14.89649 h -17.20312 z m 550.99805,1.03125 24.40625,14.08985 -14.0918,24.4082 -24.40625,-14.0918 z m 106.63086,3.03907 h 17.20117 l -8.60156,14.89843 z m 43.18359,0 h 17.20117 l -8.60156,14.89648 z M 682.75,316.4435 l 8.60156,14.89648 h -17.20117 z m 43.18359,0 8.59961,14.89648 h -17.20117 z m 228.67969,1.03125 24.40625,14.08984 -14.0918,24.40821 -24.40625,-14.08985 z m -833.17578,4.23437 24.4082,14.0918 -14.09179,24.40625 -24.40625,-14.0918 z m 744.06445,0.51954 8.60157,14.89843 h -17.20313 z m 43.18164,0 8.60157,14.89843 h -17.20313 z m -604.49414,5.26562 24.40625,14.0918 -14.09179,24.40625 -24.40625,-14.0918 z m 150.91407,2.74609 v 17.20118 l -14.89844,-8.60157 z m 15,0 14.89648,8.59961 -14.89648,8.60157 z m 146.1582,0 v 17.20118 l -14.89649,-8.60157 z m 15,0 14.89844,8.59961 -14.89844,8.60157 z m 177.99609,3.03907 24.40625,14.09179 -14.09179,24.40625 -24.40625,-14.08984 z m -742.054685,6.98047 14.898437,8.59961 -14.898437,8.60156 z m 101.876955,0.29492 h 17.20117 l -8.59961,14.89648 z m 43.18164,0 h 17.20117 l -8.59961,14.89648 z m 32.9375,2.74414 24.4082,14.09179 -14.08984,24.40821 -24.4082,-14.0918 z m 106.63086,3.04101 h 17.20312 l -8.60156,14.89844 z m 43.18359,0 h 17.20117 l -8.60156,14.89844 z m 112.48633,0 h 28.18359 v 28.1836 H 507.5 Z m 43.18359,0 h 28.18164 v 28.1836 h -28.18164 z m 117.97657,0 h 28.18164 v 28.1836 h -28.18164 z m 43.18164,0 h 28.18359 v 28.1836 H 711.8418 Z m -555.75196,1.71485 8.60157,14.89648 h -17.20313 z m 43.18164,0 8.60157,14.89648 h -17.20117 z m 228.67969,1.03125 24.40625,14.09179 -14.08984,24.40625 -24.4082,-14.08984 z m 64.54883,2.744 v 17.20312 l -14.89844,-8.60156 z m 161.16016,0 v 17.20312 l -14.89844,-8.60156 z m 101.36523,0 14.89649,8.60156 -14.89649,8.60156 z m -161.16016,0.002 14.89649,8.59961 -14.89649,8.60156 z m 263.03711,0.29492 h 17.19922 l -8.59961,14.89649 z m 43.18164,0 h 17.20118 l -8.60157,14.89649 z m -561.24414,1.71289 8.60157,14.89844 h -17.20118 z m 43.1836,0 8.59961,14.89844 h -17.20117 z m 550.99804,1.03321 24.40625,14.08984 -14.09179,24.40625 -24.40625,-14.08984 z m -89.11132,4.75195 8.60156,14.89844 h -17.20313 z m 43.18359,0.002 8.59961,14.89649 h -17.20117 z m -797.492188,2.22266 v 17.20312 l -14.898437,-8.60156 z m 14.999998,0.002 14.89844,8.59961 -14.89844,8.60156 z m 177.9961,3.03906 24.40625,14.09376 -14.0918,24.40429 -24.40625,-14.08984 z m 182.75,5.78711 24.40625,14.0918 -14.08985,24.40625 -24.40625,-14.0918 z m 150.91406,2.74415 v 17.20117 l -14.89649,-8.59961 z m 15,0 14.89844,8.60156 -14.89844,8.59961 z m 146.16016,0 v 17.20117 l -14.89649,-8.59961 z m 15,0.002 14.89648,8.59961 -14.89648,8.59961 z m -650.42383,4.52734 h 28.18359 v 28.1836 h -28.18359 z m 43.18359,0 h 28.18164 v 28.1836 h -28.18164 z m -117.978515,5.49024 14.898437,8.60156 -14.898437,8.60156 z m 161.160155,0 14.89844,8.60156 -14.89844,8.60156 z m -101.36523,0.002 v 17.20117 l -14.89649,-8.60156 z m 203.24218,0.29492 h 17.20118 l -8.60157,14.89649 z m 43.18165,0 h 17.20117 l -8.59961,14.89649 z m 32.9375,2.7461 24.4082,14.08984 -14.0918,24.40625 -24.40625,-14.0918 z m 106.63085,3.03906 h 17.20313 l -8.60156,14.89648 z m 43.1836,0 H 573.375 l -8.60156,14.89648 z m 112.48633,0 h 28.18164 v 28.18164 h -28.18164 z m 43.18164,0 h 28.18359 v 28.18164 H 711.8418 Z m 117.97656,0 h 28.18359 v 28.18164 h -28.18359 z m 43.18359,0 h 28.18164 v 28.18164 h -28.18164 z m -555.7539,1.71484 8.60156,14.89649 h -17.20117 z m 43.18359,0 8.60156,14.89649 h -17.20117 z m 228.67969,1.03125 24.40429,14.08985 -14.08984,24.4082 -24.40625,-14.0918 z m 64.54883,2.74414 v 17.20117 l -14.89844,-8.60156 z m 101.36523,0 14.89649,8.59961 -14.89649,8.60156 z m 59.79297,0 v 17.20117 l -14.89648,-8.60156 z m 101.36523,0 14.89649,8.59961 -14.89649,8.60156 z M 500,397.02344 l 8.59961,14.89648 h -17.19922 z m 43.18359,0 8.59961,14.89648 h -17.20117 z m -453.582028,8.01172 v 17.20117 l -14.896484,-8.60156 z m 14.999998,0 14.89649,8.59961 -14.89649,8.60156 z m 146.16016,0 v 17.20117 l -14.89649,-8.60156 z m 15,0 14.89648,8.59961 -14.89648,8.60156 z m 177.99609,3.03906 24.40625,14.0918 -14.09179,24.40625 -24.40625,-14.0918 z m 182.74805,5.78516 24.4082,14.09179 -14.09179,24.40625 -24.40625,-14.08984 z m 312.07617,2.74414 v 17.20312 l -14.89844,-8.60156 z m -161.16015,0.002 v 17.20117 l -14.89649,-8.60156 z m 15,0 14.89648,8.59961 -14.89648,8.60156 z m 161.16015,0 14.89649,8.60156 -14.89649,8.59961 z m -924.070311,4.5293 h 17.201172 l -8.59961,14.89648 z m 112.486331,0 h 28.18359 v 28.18164 h -28.18359 z m 43.18359,0 h 28.18164 v 28.18164 h -28.18164 z m 117.97656,0 h 28.18164 v 28.18164 H 303.1582 Z m 43.18164,0 h 28.1836 v 28.18164 h -28.1836 z M 62.449219,423.87891 86.857422,437.9707 72.765625,462.37695 48.357422,448.28516 Z m 64.548831,2.74609 v 17.20117 l -14.89649,-8.59961 z m 101.36523,0 14.89844,8.60156 -14.89844,8.59961 z m 59.79492,0 v 17.20117 l -14.89648,-8.59961 z m 101.36524,0 14.89648,8.60156 -14.89648,8.59961 z m 101.875,0.29492 h 17.20117 L 500,441.81641 Z m 43.18359,0 h 17.20117 l -8.59961,14.89844 z m 32.9375,2.7461 24.40625,14.09179 -14.0918,24.40625 -24.40625,-14.09179 z m 106.63086,3.03906 h 17.20117 l -8.59961,14.89844 z m 43.18164,0 h 17.20313 l -8.60157,14.89844 z m 112.48633,0 h 28.18359 v 28.18359 h -28.18359 z m 43.18359,0 h 28.18164 v 28.18359 h -28.18164 z m -394.59375,1.71484 8.60157,14.89649 h -17.20313 z m 43.1836,0 8.59961,14.89649 h -17.20118 z m 228.67773,1.03125 24.40625,14.0918 -14.08984,24.40625 -24.40821,-14.0918 z m 64.54883,2.74414 v 17.20313 l -14.89844,-8.60156 z m 101.36523,0.002 14.89844,8.59961 -14.89844,8.60156 z m -255.02343,2.00781 8.59961,14.89844 h -17.20118 z m 43.18164,0 8.60156,14.89844 h -17.20313 z m -604.494144,5.26562 24.404294,14.0918 -14.08984,24.4082 -24.406251,-14.09375 z m 150.914064,2.7461 v 17.20117 l -14.89844,-8.60156 z m 15,0 14.89648,8.59961 -14.89648,8.60156 z m 146.1582,0 v 17.20117 l -14.89648,-8.60156 z m 15,0 14.89844,8.59961 -14.89844,8.60156 z m 177.9961,3.04101 24.40625,14.08985 -14.0918,24.40625 -24.40625,-14.08985 z m 182.75,5.78516 24.40625,14.0918 -14.08985,24.40429 -24.40625,-14.08984 z m 150.91601,2.74414 v 17.20312 l -14.89844,-8.60156 z m 15,0 14.89649,8.60156 -14.89649,8.59961 z m -912.724608,1.48828 24.408203,14.09375 -14.091797,24.40625 -24.408203,-14.0918 z m 106.632808,3.04102 h 17.20118 l -8.60157,14.89843 z m 43.18165,0 h 17.20117 l -8.60157,14.89843 z m 112.48632,0 h 28.18164 V 492.5 H 303.1582 Z m 43.18164,0 h 28.1836 V 492.5 h -28.1836 z m 117.97657,0 H 492.5 V 492.5 h -28.18359 z m 43.18359,0 h 28.18359 V 492.5 H 507.5 Z m -283.89062,2.74609 24.40624,14.0918 -14.09179,24.40625 -24.40625,-14.08985 z m 64.54882,2.74414 v 17.20313 l -14.89843,-8.60157 z m 101.36524,0 14.89648,8.60156 -14.89648,8.60157 z m 161.16015,0 14.89649,8.60156 -14.89649,8.60157 z m -101.36718,0.002 v 17.20118 l -14.89649,-8.60157 z m 203.24218,0.29493 h 17.20118 L 661.16016,485 Z m 43.1836,0 h 17.19922 L 704.3418,485 Z m -561.24414,1.71289 8.60156,14.89843 h -17.20313 z m 43.18359,0 8.59961,14.89843 h -17.20117 z m 550.99609,1.03125 24.40821,14.09179 -14.0918,24.40625 -24.40625,-14.09179 z m 106.63086,3.04101 h 17.20313 l -8.60156,14.89649 z m 43.1836,0 h 17.20117 l -8.59961,14.89649 z m -238.92383,1.7128 8.60156,14.89844 H 630.9668 Z m 43.18164,0.002 8.60156,14.89648 h -17.20117 z m 228.67969,1.03125 24.40625,14.08984 -14.0918,24.40625 -24.40625,-14.0918 z m -833.173831,4.23437 24.406251,14.0918 -14.091798,24.40429 -24.40625,-14.08984 z m 744.062501,0.51953 8.60156,14.89649 h -17.20117 z m 43.18359,0 8.59961,14.89649 h -17.20117 z m -604.49609,5.26563 24.40625,14.09179 -14.08984,24.40625 -24.40821,-14.09179 z m 312.07422,2.74414 v 17.20117 L 558.18359,500 Z m -161.16016,0.002 V 508.5997 L 397.02344,500 Z m 15,0 14.89649,8.59961 -14.89649,8.60156 z m 161.16016,0 14.89648,8.59961 -14.89648,8.59961 z m 177.99609,3.03906 24.40625,14.08985 -14.0918,24.4082 -24.40624,-14.0918 z m 182.75,5.78516 24.40821,14.0918 -14.0918,24.4082 -24.4082,-14.09375 z m -822.92773,1.49023 h 17.20117 l -8.60156,14.89649 z m 43.18164,0 h 17.20117 l -8.59961,14.89649 z m 32.9375,2.7461 24.40625,14.08984 -14.08985,24.40625 -24.40625,-14.0918 z M 308.64844,507.5 h 17.20117 L 317.25,522.39648 Z m 43.18164,0 h 17.20312 l -8.60156,14.89844 z m 112.48633,0 H 492.5 v 28.18359 h -28.18359 z m 43.18359,0 h 28.18359 v 28.18359 H 507.5 Z m 117.97656,0 h 28.1836 v 28.18359 h -28.1836 z m 43.1836,0 h 28.18164 v 28.18359 h -28.18164 z m -555.75391,1.71484 8.60156,14.89649 h -17.20117 z m 43.18359,0 8.60157,14.89649 h -17.20313 z m 228.67969,1.03125 24.40625,14.08985 -14.0918,24.4082 -24.40625,-14.0918 z m 64.54688,2.74414 v 17.20313 l -14.89649,-8.60156 z m 101.36718,0 14.89649,8.60157 -14.89649,8.59961 z m 59.79297,0 v 17.20313 l -14.89648,-8.60156 z m 101.36524,0 14.89843,8.60157 -14.89843,8.60156 z m 101.87695,0.29493 h 17.20117 l -8.60156,14.89843 z m 43.18164,0 h 17.20313 l -8.60157,14.89843 z M 295.6582,515 l 8.59961,14.89648 h -17.19922 z m 43.18164,0 8.60157,14.89648 h -17.20118 z m 550.99805,1.0293 24.40625,14.09375 -14.0918,24.40625 -24.40429,-14.0918 z m -89.10937,4.75586 8.5996,14.89843 h -17.20117 z m 43.18164,0 8.59961,14.89843 h -17.20118 z m -782.492191,2.22461 14.898437,8.60156 -14.898437,8.60156 z m -15,0.002 v 17.20117 l -14.896485,-8.60156 z m 192.996091,3.03906 24.40821,14.0918 -14.0918,24.40625 -24.40625,-14.0918 z m 182.75196,5.78516 24.40625,14.09179 -14.0918,24.40625 -24.40625,-14.08984 z m 150.91406,2.74609 v 17.20117 l -14.89844,-8.59961 z m 15,0 14.89648,8.60156 -14.89648,8.59961 z m 146.1582,0 v 17.20117 l -14.89648,-8.59961 z m 15,0 14.89844,8.60156 -14.89844,8.59961 z m 177.9961,3.04102 24.4082,14.09179 -14.0918,24.40625 -24.4082,-14.09179 z m -828.417974,1.48828 h 28.181644 v 28.18359 H 98.816406 Z m 43.181644,0 h 28.18359 v 28.18359 h -28.18359 z m -58.181644,5.49023 v 17.20117 l -14.898437,-8.59961 z m 101.365234,0 14.89844,8.60156 -14.89844,8.60157 z m 101.875,0.29492 h 17.20313 l -8.60157,14.89844 z m 43.18359,0 h 17.20118 l -8.60157,14.89844 z m 32.9375,2.7461 24.40625,14.0918 -14.08984,24.40624 -24.4082,-14.09179 z m 106.63086,3.04101 h 17.20118 l -8.60157,14.89649 z m 43.18164,0 h 17.20313 l -8.60156,14.89649 z m 112.48633,0 h 28.1836 v 28.18164 h -28.1836 z m 43.1836,0 h 28.18164 v 28.18164 h -28.18164 z m 117.97656,0 h 28.18164 v 28.18164 h -28.18164 z m 43.18164,0 h 28.18359 v 28.18164 h -28.18359 z m -555.75195,1.71289 8.60156,14.89844 h -17.20313 z m 43.18164,0 8.60156,14.89844 h -17.20117 z m 228.67968,1.03125 24.40625,14.0918 -14.08984,24.40625 -24.4082,-14.0918 z m 64.54883,2.7461 V 573.375 l -14.89648,-8.60156 z m 101.36524,0 14.89648,8.59961 -14.89648,8.60156 z m 59.79492,0 V 573.375 l -14.89844,-8.60156 z m 101.36523,0 14.89649,8.59961 -14.89649,8.60156 z m -416.18554,2.00781 8.60156,14.89844 H 448.2168 Z m 43.18359,0.002 8.60156,14.89649 h -17.20117 z m 461.88672,5.78516 8.60156,14.89648 h -17.20117 z m -915.468751,2.22461 v 17.20117 l -14.896485,-8.60156 z m 15,0 14.898437,8.60156 -14.898437,8.60156 z m 146.160151,0 v 17.20117 l -14.89648,-8.59961 z m 15,0 14.89649,8.60156 -14.89649,8.59961 z m 177.9961,3.04102 24.40625,14.08984 -14.0918,24.40625 -24.40429,-14.08985 z m 182.75,5.78515 24.40625,14.0918 -14.08985,24.40429 -24.40624,-14.08984 z m 150.91406,2.74414 v 17.20117 l -14.89648,-8.59961 z m 15,0 14.89649,8.60156 -14.89649,8.59961 z m 146.16016,0 v 17.20117 l -14.89649,-8.59961 z m 15,0 14.89648,8.60156 -14.89648,8.59961 z m -811.582034,4.53125 h 28.181644 v 28.18164 H 98.816406 Z m 43.181644,0 h 28.18359 v 28.18164 h -28.18359 z m 117.97656,0 h 28.18359 v 28.18164 h -28.18359 z m 43.18359,0 h 28.18164 v 28.18164 H 303.1582 Z m -219.341794,5.49024 v 17.20117 l -14.896484,-8.59961 z m 101.365234,0 14.89648,8.60156 -14.89648,8.59961 z m 59.79297,0 v 17.20117 l -14.89649,-8.59961 z m 101.36523,0 14.89844,8.60156 -14.89844,8.59961 z m 101.87696,0.29492 h 17.20117 l -8.60156,14.89648 z m 43.18359,0 h 17.19922 L 500,602.97656 Z m 32.93555,2.74414 24.4082,14.0918 -14.0918,24.40625 -24.40625,-14.0918 z m 106.63086,3.04101 h 17.20117 l -8.59961,14.89649 z m 43.18359,0 h 17.20117 l -8.59961,14.89649 z m 112.48633,0 h 28.18164 v 28.1836 h -28.18164 z m 43.18164,0 h 28.18359 v 28.1836 h -28.18359 z m -394.5918,1.71485 8.59961,14.89648 H 426.625 Z m 43.18164,0 8.60157,14.89648 h -17.20313 z m 228.67969,1.03125 24.40625,14.08984 -14.0918,24.40821 -24.40625,-14.09376 z m 64.54883,2.74414 v 17.20312 l -14.89844,-8.60156 z m 101.36523,0 14.89649,8.60156 -14.89649,8.59961 z m 59.79493,0 v 17.20312 l -14.89844,-8.60156 z m -314.82032,2.00976 8.60156,14.89649 h -17.20117 z m 43.1836,0 8.59961,14.89649 h -17.20118 z m -604.496098,5.26563 24.40625,14.08984 -14.091796,24.40625 -24.40625,-14.08984 z m 150.914058,2.74609 v 17.19922 l -14.89648,-8.59961 z m 15,0 14.89649,8.59961 -14.89649,8.60156 z m 146.16016,0 v 17.20117 l -14.89844,-8.60156 z m 15,0 14.89649,8.59961 -14.89649,8.60156 z m 177.9961,3.03907 24.40624,14.08984 -14.09179,24.4082 -24.40625,-14.09179 z m 182.74804,5.78515 24.4082,14.0918 -14.08984,24.4082 -24.4082,-14.09179 z m 150.91602,2.7461 v 17.20117 L 880.5,629.54883 Z m 15,0 14.89844,8.60156 -14.89844,8.60156 z m -806.0918,4.52929 h 17.20117 l -8.60156,14.89649 z m 43.18164,0 h 17.20313 l -8.60157,14.89844 z m 112.48633,0 h 28.18359 v 28.1836 h -28.18359 z m 43.18359,0 h 28.18164 v 28.1836 H 303.1582 Z m 117.97657,0 h 28.18164 v 28.1836 h -28.18164 z m 43.18164,0 H 492.5 v 28.1836 h -28.18359 z m -283.88868,2.7461 24.40625,14.08984 -14.09179,24.4082 -24.40625,-14.09179 z m 64.54688,2.74414 v 17.20312 l -14.89649,-8.60156 z m 101.36523,0 14.89844,8.60156 -14.89844,8.60156 z m 59.79493,0 v 17.20117 l -14.89649,-8.59961 z m 101.36523,0 14.89844,8.60156 -14.89844,8.60156 z m 101.87695,0.29492 h 17.20117 l -8.60156,14.89844 z m 43.18164,0 h 17.20118 l -8.59961,14.89844 z m -561.242184,1.71484 8.59961,14.89649 H 82.714844 Z m 43.181644,0 8.59961,14.89649 h -17.19922 z m 550.99804,1.03125 24.40625,14.0918 -14.09179,24.40625 -24.40625,-14.0918 z m 106.63086,3.04102 h 17.20117 l -8.5996,14.89648 z m 43.18164,0 h 17.20313 l -8.60156,14.89648 z m -238.92187,1.71289 8.59961,14.89844 h -17.20117 z m 43.18164,0 8.60156,14.89844 H 630.9668 Z m 228.67773,1.03125 24.40625,14.0918 -14.08984,24.40625 -24.4082,-14.0918 z m 64.55079,2.74609 v 17.20117 l -14.89844,-8.59961 z m -897.724614,1.48828 24.40625,14.08985 -14.091797,24.4082 -24.40625,-14.08984 z m 744.064454,0.52149 8.60156,14.89648 h -17.20117 z m 43.18164,0 8.60156,14.89648 h -17.20117 z m -604.49414,5.26367 24.40625,14.0918 -14.0918,24.40625 -24.40625,-14.08985 z m 150.91406,2.74609 v 17.20118 l -14.89844,-8.59961 z m 15,0 14.89649,8.60157 -14.89649,8.59961 z m 146.1582,0 v 17.20118 L 515,661.16016 Z m 15,0 14.89844,8.60157 -14.89844,8.59961 z m 177.9961,3.04102 24.4082,14.0918 -14.0918,24.40625 -24.40625,-14.0918 z m 182.75,5.78516 24.4082,14.09179 -14.08984,24.40625 -24.40821,-14.09179 z m -822.927736,1.48828 h 17.203125 l -8.601563,14.89843 z m 43.181636,0 h 17.20313 l -8.60156,14.89843 z m 32.93946,2.74804 24.40625,14.08985 -14.0918,24.40625 -24.40625,-14.08985 z m 106.63086,3.03907 h 17.20117 l -8.60156,14.89648 z m 43.18164,0 h 17.20117 L 317.25,683.55664 Z m 112.48633,0 h 28.18164 v 28.18164 h -28.18164 z m 43.18164,0 H 492.5 v 28.18164 h -28.18359 z m 117.97851,0 h 28.18164 v 28.18164 h -28.18164 z m 43.18164,0 h 28.1836 v 28.18164 h -28.1836 z m -512.56836,1.71289 8.59961,14.89843 h -17.20117 z m -43.183591,0.002 8.59961,14.89648 H 61.123047 Z m 271.861331,1.0293 24.40625,14.09179 -14.0918,24.40625 -24.40625,-14.09179 z m 64.54883,2.74609 v 17.20117 l -14.89649,-8.59961 z m 101.36523,0 14.89648,8.59961 -14.89648,8.60156 z m 59.79492,0 v 17.20117 l -14.89844,-8.59961 z m 101.36524,0 14.89648,8.59961 -14.89648,8.60156 z m 101.875,0.29492 h 17.20312 l -8.60156,14.89649 z m 43.18359,0 h 17.20117 l -8.60156,14.89649 z m -561.24414,1.71289 8.60156,14.89844 H 243.875 Z m 43.18359,0.002 8.59961,14.89648 h -17.20117 z m 550.9961,1.02929 24.4082,14.0918 -14.08984,24.40625 -24.40821,-14.08984 z m 106.63281,3.04102 h 17.20117 l -8.60156,14.89844 z m -195.74219,1.71484 8.60156,14.89649 h -17.20117 z m 43.1836,0 8.5996,14.89649 h -17.20117 z m -604.4961,5.26563 24.40625,14.08984 -14.08984,24.4082 -24.40821,-14.09179 z m 744.06446,0.52148 8.5996,14.89649 h -17.20117 z m -561.3125,5.26367 24.40429,14.0918 -14.08984,24.40625 -24.40821,-14.0918 z m 165.9121,2.74414 14.89844,8.60157 -14.89844,8.60156 z m 161.16016,0 14.89648,8.60157 -14.89648,8.59961 z m -176.16016,0.002 v 17.19922 L 515,704.3418 Z m 161.16016,0 v 17.20117 l -14.89648,-8.60156 z m 192.99609,3.03906 24.40625,14.0918 -14.08984,24.40625 -24.4082,-14.0918 z m -828.419918,1.49023 h 28.183594 v 28.18164 H 55.632812 Z m 43.183594,0 h 28.181644 v 28.18164 H 98.816406 Z m -58.183594,5.49024 v 17.20117 l -14.896484,-8.59961 z m 101.365238,0 14.89648,8.60156 -14.89648,8.59961 z m 101.87695,0.29492 h 17.20117 l -8.60156,14.89648 z m 43.18359,0 h 17.20118 l -8.60157,14.89648 z m 32.93555,2.74609 24.40625,14.08985 -14.0918,24.4082 -24.40625,-14.0918 z M 426.625,711.8418 h 17.20117 l -8.59961,14.89648 z m 43.18164,0 h 17.20313 l -8.60157,14.89843 z m 112.48828,0 h 28.18164 v 28.18359 h -28.18164 z m 43.18164,0 h 28.1836 v 28.18359 h -28.1836 z m 117.97656,0 h 28.1836 v 28.18359 h -28.1836 z m 43.1836,0 h 28.18164 v 28.18359 h -28.18164 z m -555.75195,1.71484 8.59961,14.89648 H 222.2832 Z m 43.18164,0 8.60156,14.89648 h -17.20313 z m 228.67968,1.03125 24.40625,14.08984 -14.09179,24.40821 -24.40625,-14.0918 z m 64.54883,2.74414 v 17.20313 l -14.89844,-8.60157 z m 101.36524,0 14.89648,8.60156 -14.89648,8.59961 z m 59.79296,0 v 17.20313 l -14.89648,-8.60157 z m 101.36524,0 14.89844,8.60156 -14.89844,8.60157 z m 101.87891,0.29688 h 17.19921 l -8.5996,14.89648 z m -518.0625,1.71289 8.60156,14.89648 h -17.20117 z m 43.18164,0 8.60156,14.89648 H 448.2168 Z m 461.88867,5.78711 8.60156,14.89648 h -17.20312 z m 43.18164,0 8.60156,14.89648 h -17.20117 z m -782.49219,2.22265 14.89844,8.60156 -14.89844,8.60157 z m -15,0.002 v 17.20117 l -14.89648,-8.60157 z m 192.99609,3.03906 24.40821,14.08984 -14.0918,24.4082 -24.4082,-14.08984 z m 182.75196,5.78515 24.40625,14.0918 -14.0918,24.40625 -24.40625,-14.08984 z m 150.91406,2.7461 V 756.125 l -14.89844,-8.59961 z m 15,0 14.89648,8.60156 -14.89648,8.59961 z m 146.16016,0 V 756.125 l -14.89844,-8.59961 z m 15,0 14.89648,8.60156 -14.89648,8.59961 z m -811.583988,4.52929 h 28.183594 v 28.1836 H 55.632812 Z m 43.183594,0 h 28.181644 v 28.1836 H 98.816406 Z m 117.976564,0 h 28.18164 v 28.1836 h -28.18164 z m 43.18164,0 h 28.18359 v 28.1836 H 259.97461 Z M 40.632812,748.9434 v 17.20312 l -14.896484,-8.60156 z m 101.365238,0.002 14.89648,8.60157 -14.89648,8.5996 z m 59.79492,0 v 17.20117 l -14.89844,-8.5996 z m 101.36523,0 14.89649,8.59961 -14.89649,8.60156 z m 101.87696,0.29297 h 17.20117 l -8.60156,14.89649 z m 43.18164,0 h 17.20117 l -8.60156,14.89844 z m 32.9375,2.7461 24.40625,14.09179 -14.08985,24.40625 -24.4082,-14.0918 z m 106.63086,3.04101 h 17.20117 l -8.59961,14.89649 z m 43.18164,0 h 17.20312 l -8.60156,14.89649 z m 112.48632,0 h 28.1836 v 28.18164 h -28.1836 z m 43.1836,0 h 28.18164 v 28.18164 h -28.18164 z m 117.97656,0 h 28.1836 v 28.18164 h -28.1836 z m -512.57031,1.71289 8.60156,14.89844 h -17.20312 z m 43.18359,0 8.59961,14.89844 H 426.625 Z m 228.67774,1.03125 24.40625,14.0918 -14.08985,24.40625 -24.4082,-14.0918 z m 64.54882,2.74609 v 17.20118 l -14.89648,-8.60157 z m 101.36524,0 14.89844,8.59961 -14.89844,8.60157 z m 59.79492,0 v 17.20118 l -14.89648,-8.60157 z m -314.81836,2.00977 8.59961,14.89649 h -17.20117 z m 43.18164,0 8.60156,14.89649 h -17.20117 z m -292.42187,8.00977 v 17.20312 l -14.89649,-8.60156 z m -161.16016,0.002 v 17.19922 l -14.89648,-8.59961 z m 15,0 14.89844,8.59961 -14.89844,8.60156 z m 161.16016,0 14.89648,8.59961 -14.89648,8.60156 z m 177.99609,3.03906 24.40625,14.08985 -14.0918,24.40625 -24.40429,-14.08985 z m 182.75,5.78516 24.4082,14.08984 -14.09179,24.40821 -24.40625,-14.0918 z m 150.91602,2.74609 v 17.20117 l -14.89844,-8.60156 z m 15,0 14.89648,8.59961 -14.89648,8.60156 z m -806.093753,4.5293 h 17.201172 l -8.59961,14.89648 z m 43.183593,0 h 17.20117 l -8.60156,14.89648 z m 112.48633,0 h 28.18164 v 28.18164 h -28.18164 z m 43.18164,0 h 28.18359 v 28.18164 h -28.18359 z m 117.97656,0 h 28.1836 v 28.18164 h -28.1836 z m 43.1836,0 h 28.18164 v 28.18164 h -28.18164 z m -283.89063,2.74609 24.40625,14.08985 -14.0918,24.40625 -24.40625,-14.08985 z m 64.54883,2.74414 v 17.20117 l -14.89649,-8.5996 z m 101.36523,0 14.89649,8.60157 -14.89649,8.5996 z m 59.79297,0 v 17.20117 l -14.89648,-8.5996 z m 101.36524,0 14.89843,8.60157 -14.89843,8.5996 z m 101.87695,0.29493 h 17.20117 l -8.59961,14.89648 z m 43.18359,0 h 17.19922 l -8.59961,14.89648 z m -561.244138,1.71484 8.59961,14.89648 H 39.533203 Z m 43.183594,0 8.59961,14.89648 H 82.714844 Z m 550.996094,1.0293 24.4082,14.09179 -14.09179,24.40625 -24.40625,-14.09179 z m 106.63281,3.04101 h 17.20117 l -8.5996,14.89844 z m 43.18164,0 h 17.20117 l -8.5996,14.89649 z m 112.48633,0 h 28.1836 v 28.18359 h -28.1836 z m -351.41016,1.71289 8.60157,14.89844 h -17.20313 z m 43.1836,0.002 8.59961,14.89648 h -17.20117 z m 228.67773,1.03124 24.40625,14.0918 -14.09179,24.40625 -24.40625,-14.09179 z m 64.54883,2.7461 v 17.20117 l -14.89648,-8.60156 z m -153.66016,2.00781 8.60157,14.89844 h -17.20313 z m 43.1836,0 8.60156,14.89844 h -17.20117 z m -604.4961,5.26563 24.40626,14.09179 -14.0918,24.40625 -24.40625,-14.09179 z m 150.91407,2.74609 v 17.19922 l -14.89649,-8.59961 z m 15,0 14.89648,8.59961 -14.89648,8.60156 z m 146.16015,0 v 17.20117 l -14.89843,-8.60156 z m 15,0 14.89649,8.59961 -14.89649,8.60156 z m 177.9961,3.03906 24.40625,14.0918 -14.08985,24.40625 -24.40625,-14.0918 z m 182.75,5.78711 24.40625,14.0918 -14.08985,24.40625 -24.40625,-14.0918 z m -822.927737,1.4881 h 17.201172 l -8.601563,14.89649 z m 43.181641,0 h 17.203125 l -8.601563,14.89844 z m 32.937496,2.7461 24.40625,14.09179 -14.09179,24.40625 -24.40625,-14.08984 z m 106.63086,3.03906 h 17.20118 l -8.59961,14.89844 z m 43.18164,0 h 17.20313 l -8.60156,14.89844 z m 112.48633,0 h 28.1836 v 28.18359 h -28.1836 z m 43.1836,0 h 28.18164 v 28.18359 h -28.18164 z m 117.97656,0 h 28.18359 v 28.18359 h -28.18359 z m 43.18359,0 h 28.18164 v 28.18359 h -28.18164 z m -555.753904,1.71484 8.601562,14.89844 H 17.939453 Z m 43.183593,0 8.601563,14.89844 H 61.123047 Z m 228.679691,1.03125 24.40625,14.08985 -14.0918,24.4082 -24.40625,-14.08984 z m 64.54687,2.74414 v 17.20313 l -14.89648,-8.60156 z m 101.36524,0 14.89843,8.60157 -14.89843,8.59961 z m 59.79492,0 v 17.20313 l -14.89649,-8.60156 z m 101.36523,0 14.89844,8.60157 -14.89844,8.60156 z m 101.87696,0.29688 h 17.20117 l -8.60157,14.89648 z m 43.18359,0 h 17.19922 l -8.59961,14.89648 z m -561.24414,1.71289 8.59961,14.89844 h -17.20117 z m 43.18164,0 8.60156,14.89844 H 243.875 Z m 550.99805,1.03125 24.40625,14.0918 -14.08985,24.40625 -24.40625,-14.0918 z m 106.63281,3.04101 h 17.19922 l -8.59961,14.89454 z m 43.18164,0 h 17.20117 l -8.60156,14.89649 z m -238.92383,1.71485 8.59961,14.89648 h -17.20117 z m 43.1836,0 8.5996,14.89648 h -17.20117 z m -604.49805,5.26562 24.40625,14.08985 -14.0918,24.40625 -24.40625,-14.08985 z m 744.06445,0.51953 8.60156,14.89649 h -17.20117 z m 43.1836,0 8.5996,14.89649 h -17.20117 z m -604.4961,5.26368 24.40625,14.09179 -14.0918,24.40625 -24.40625,-14.08984 z m 150.91406,2.74609 v 17.20313 l -14.89843,-8.60157 z m 15,0 14.89649,8.60156 -14.89649,8.59961 z m 161.15821,0 14.89843,8.60156 -14.89843,8.60157 z m -15,0.002 v 17.19922 L 632.97656,865.502 Z m 192.99804,3.03907 24.40625,14.09179 -14.08984,24.40625 -24.4082,-14.09179 z m -785.238278,1.49023 h 28.183594 v 28.18164 H 55.632812 Z m 43.183594,5.49024 14.896484,8.5996 -14.896484,8.60157 z m 101.875004,0.29492 h 17.20117 l -8.59961,14.89648 z m 43.18359,0 h 17.20117 l -8.60156,14.89648 z m 32.9375,2.74414 24.40625,14.09179 -14.0918,24.40625 -24.40625,-14.08984 z m 106.63086,3.04101 h 17.20117 l -8.60156,14.89649 z m 43.18164,0 h 17.20117 l -8.59961,14.89649 z m 112.48633,0 h 28.18359 v 28.18164 h -28.18359 z m 43.18359,0 h 28.18164 v 28.18164 h -28.18164 z m 117.97656,0 h 28.18164 v 28.18164 h -28.18164 z m 43.18164,0 h 28.1836 v 28.18164 h -28.1836 z m -555.75195,1.71485 8.59961,14.89648 h -17.20117 z m 43.1836,0 8.59961,14.89648 H 222.2832 Z m 228.67773,1.03125 24.4082,14.08984 -14.09375,24.40625 -24.40625,-14.0918 z m 64.54883,2.74414 v 17.20117 l -14.89649,-8.59961 z m 101.36523,0 14.89649,8.60156 -14.89649,8.59961 z m 59.79492,0 v 17.20117 l -14.89843,-8.60156 z m 101.36524,0 14.89648,8.60156 -14.89648,8.59961 z m 101.875,0.29492 h 17.20312 l -8.60156,14.89648 z m 43.18359,0 h 17.20117 l -8.5996,14.89648 z M 370.45117,880.5 l 8.60156,14.89844 h -17.20117 z m 43.1836,0.002 8.60156,14.89649 h -17.20117 z m 461.88671,5.78516 8.60157,14.89648 h -17.20117 z m 43.1836,0.002 8.59961,14.89453 h -17.19922 z m -797.49219,2.22461 v 17.20117 l -14.89648,-8.60156 z m 15,0 14.89649,8.59961 -14.89649,8.60156 z m 177.99609,3.03906 24.40625,14.08985 -14.09179,24.4082 -24.40625,-14.08984 z m 182.75196,5.78516 24.40429,14.0918 -14.08984,24.40625 -24.40625,-14.0918 z m 165.91211,2.74414 14.89843,8.60156 -14.89843,8.60157 z m 161.16015,0 14.89844,8.60156 -14.89844,8.60157 z m -176.16015,0.002 v 17.20118 l -14.89649,-8.60157 z m 161.16015,0 v 17.20118 l -14.89648,-8.60157 z m -753.400388,4.5293 h 28.183594 v 28.1836 H 55.632812 Z m 117.976568,0 h 28.18359 v 28.1836 h -28.18359 z m 43.18359,0 h 28.18164 v 28.1836 h -28.18164 z m 43.18164,5.49024 14.89648,8.60156 -14.89648,8.60156 z m -161.158204,0.002 14.894534,8.59961 -14.894534,8.59961 z m 59.792974,0 v 17.19922 l -14.89454,-8.59961 z m 203.24023,0.29297 h 17.20312 l -8.60156,14.89844 z m 43.18555,0 h 17.20117 l -8.60156,14.89648 z m 32.93554,2.74414 24.40625,14.0918 -14.09179,24.4082 -24.40625,-14.0918 z m 106.63086,3.04101 h 17.20117 l -8.59961,14.89844 z m 43.1836,0 h 17.20117 l -8.59961,14.89649 z m 112.48632,0 h 28.18164 v 28.1836 h -28.18164 z m 43.18164,0 h 28.1836 v 28.1836 h -28.1836 z m 117.97852,0 h 28.18164 v 28.1836 h -28.18164 z m 43.18164,0 h 28.1836 v 28.1836 h -28.1836 z m -555.7539,1.71485 8.60156,14.89844 h -17.20117 z m 43.18359,0 8.60156,14.89844 h -17.20312 z m 228.67773,1.03125 24.40625,14.09179 -14.08984,24.40625 -24.40625,-14.09179 z m 225.71094,2.74414 v 17.20312 l -14.89844,-8.60156 z m 101.36524,0 14.89648,8.60156 -14.89648,8.60156 z m -262.5254,0.002 V 938.8772 L 670.375,930.27539 Z m 101.36524,0 14.89648,8.59961 -14.89648,8.60156 z m -255.02539,2.00781 8.60156,14.89844 h -17.20312 z m 43.18359,0 8.60156,14.89844 h -17.20312 z m -453.58203,8.01172 v 17.20117 l -14.89648,-8.5996 z m 15,0 14.89649,8.60157 -14.89649,8.5996 z m 161.1582,0 14.89649,8.60157 -14.89649,8.5996 z m -15,0.002 v 17.19921 l -14.89648,-8.5996 z m 192.99805,3.03711 24.40625,14.09179 -14.0918,24.40821 -24.4082,-14.0918 z m 182.74805,5.7871 24.4082,14.0918 -14.08984,24.40625 -24.40821,-14.0918 z m 150.91601,2.74414 v 17.20118 l -14.89648,-8.59961 z m 15,0 14.89649,8.60157 -14.89649,8.59961 z m -762.910153,4.53126 h 17.203125 l -8.601563,14.89648 z m 97.486333,5.49023 v 17.20117 l -14.89649,-8.60156 z m 101.36523,0 14.89648,8.59961 -14.89648,8.60156 z m 59.79492,0 v 17.20117 l -14.89844,-8.60156 z m 101.36524,0 14.89648,8.59961 -14.89648,8.60156 z m 101.87695,0.29492 h 17.20117 l -8.60156,14.89649 z m 43.18164,0 h 17.20117 l -8.60156,14.89649 z m 139.56836,5.78516 h 17.20117 l -8.59961,14.89648 z m 43.18164,0 h 17.20312 l -8.60156,14.89648 z m 97.48828,5.49023 v 17.20117 l -14.89844,-8.60156 z"
     id="path835" />
</svg>
