<?xml version="1.0" encoding="UTF-8" standalone="no"?>
<svg
   xmlns:dc="http://purl.org/dc/elements/1.1/"
   xmlns:cc="http://creativecommons.org/ns#"
   xmlns:rdf="http://www.w3.org/1999/02/22-rdf-syntax-ns#"
   xmlns:svg="http://www.w3.org/2000/svg"
   xmlns="http://www.w3.org/2000/svg"
   xmlns:sodipodi="http://sodipodi.sourceforge.net/DTD/sodipodi-0.dtd"
   xmlns:inkscape="http://www.inkscape.org/namespaces/inkscape"
   inkscape:version="1.0.1 (3bc2e813f5, 2020-09-07)"
   sodipodi:docname="4-uniform_147.svg"
   id="c:\kuniform\4u\4-uniform_147.svg"
   height="1000.0"
   width="955.8065"
   version="1.0">
  <style
     id="style3084" />
  <metadata
     id="metadata3082">
    <rdf:RDF>
      <cc:Work
         rdf:about="">
        <dc:format>image/svg+xml</dc:format>
        <dc:type
           rdf:resource="http://purl.org/dc/dcmitype/StillImage" />
        <dc:title />
      </cc:Work>
    </rdf:RDF>
  </metadata>
  <defs
     id="defs3080" />
  <sodipodi:namedview
     inkscape:current-layer="c:\kuniform\4u\4-uniform_147.svg"
     inkscape:window-maximized="1"
     inkscape:window-y="-9"
     inkscape:window-x="-9"
     inkscape:cy="675.208"
     inkscape:cx="320.40501"
     inkscape:zoom="0.81227593"
     showgrid="false"
     id="namedview3078"
     inkscape:window-height="1001"
     inkscape:window-width="1920"
     inkscape:pageshadow="2"
     inkscape:pageopacity="0"
     guidetolerance="10"
     gridtolerance="10"
     objecttolerance="10"
     borderopacity="1"
     inkscape:document-rotation="0"
     bordercolor="#666666"
     pagecolor="#ffffff" />
  <!-- X Coordinate transform: fx(x)=(x+60.45282)*0.85270905-->
  <!-- Y Coordinate transform: fy(y)=(1095.5171-y)*0.85270905 -->
  <path
     style="color:#000000;font-style:normal;font-variant:normal;font-weight:normal;font-stretch:normal;font-size:medium;line-height:normal;font-family:sans-serif;font-variant-ligatures:normal;font-variant-position:normal;font-variant-caps:normal;font-variant-numeric:normal;font-variant-alternates:normal;font-variant-east-asian:normal;font-feature-settings:normal;font-variation-settings:normal;text-indent:0;text-align:start;text-decoration:none;text-decoration-line:none;text-decoration-style:solid;text-decoration-color:#000000;letter-spacing:normal;word-spacing:normal;text-transform:none;writing-mode:lr-tb;direction:ltr;text-orientation:mixed;dominant-baseline:auto;baseline-shift:baseline;text-anchor:start;white-space:normal;shape-padding:0;shape-margin:0;inline-size:0;clip-rule:nonzero;display:inline;overflow:visible;visibility:visible;isolation:auto;mix-blend-mode:normal;color-interpolation:sRGB;color-interpolation-filters:linearRGB;solid-color:#000000;solid-opacity:1;vector-effect:none;fill:#000000;fill-opacity:1;fill-rule:nonzero;stroke:none;stroke-width:15;stroke-linecap:butt;stroke-linejoin:miter;stroke-miterlimit:4;stroke-dasharray:none;stroke-dashoffset:0;stroke-opacity:1;color-rendering:auto;image-rendering:auto;shape-rendering:auto;text-rendering:auto;enable-background:accumulate;stop-color:#000000"
     d="M 163.06641,1.2011719 142.75586,36.380859 114.06641,52.947266 96.498047,22.517578 l -6.494141,3.75 -6.496094,-3.75 -14.824218,25.673828 -14.822266,-25.673828 -6.49414,3.75 -6.496094,-3.75 -21.316406,36.923828 -2.166016,3.75 -19.1523439,33.173828 6.4960938,3.749996 v 7.5 H 39.867188 V 135.25 H 4.7324219 v 7.5 l -6.4960938,3.75 19.1523439,33.17383 -19.1523439,33.17383 6.4960938,3.75 v 7.5 H 39.867188 v 27.63476 H 4.7324219 v 7.5 l -6.4960938,3.75 19.1523439,33.17383 -19.1523439,33.17187 6.4960938,3.75 v 7.5 H 39.867188 v 27.63672 H 4.7324219 v 7.5 l -6.4960938,3.75 19.1523439,33.17383 -19.1523439,33.17383 6.4960938,3.75 v 7.5 H 39.867188 v 27.63477 H 4.7324219 v 7.5 l -6.4960938,3.75 19.1523439,33.17382 -19.1523439,33.17383 6.4960938,3.75 v 7.5 H 39.867188 v 27.63477 H 4.7324219 v 7.5 l -6.4960938,3.75 19.1523439,33.17383 -19.1523439,33.17187 6.4960938,3.75 v 7.5 H 39.867188 v 27.63672 H 4.7324219 v 7.5 l -6.4960938,3.75 19.1523439,33.17383 -19.1523439,33.17187 6.4960938,3.75 v 7.5 H 39.867188 v 27.63672 H 4.7324219 v 7.5 l -6.4960938,3.75 19.1523439,33.17188 -19.1523439,33.17382 6.4960938,3.75 v 7.5 H 39.867188 v 37.14454 l 22.322265,38.66406 6.494141,-3.75 6.496094,3.75 14.824218,-25.67383 14.820314,25.67383 6.49609,-3.75 3.75,6.49607 35.1836,-20.31248 h 40.625 40.62695 l 35.18164,20.31248 3.75,-6.49607 6.49609,3.75 14.82227,-25.67383 14.82226,25.67383 6.4961,-3.75 6.49414,3.75 14.82226,-25.67383 14.82227,25.67383 6.49609,-3.75 6.4961,3.75 14.82226,-25.67383 14.82227,25.67383 6.49414,-3.75 3.75,6.49607 35.18359,-20.31248 h 40.625 40.62696 l 35.18359,20.31248 3.75,-6.49607 6.49414,3.75 14.82227,-25.67383 14.82226,25.67383 6.4961,-3.75 6.49414,3.75 14.82422,-25.67188 14.82226,25.67188 6.4961,-3.75 6.49414,3.75 14.82226,-25.67188 14.82227,25.67188 6.49414,-3.75 3.75,6.49607 35.18554,-20.31248 h 40.625 40.625 l 35.1836,20.31248 3.75,-6.49607 6.49414,3.75 14.82226,-25.67188 14.82422,25.67188 6.49414,-3.75 6.4961,3.75 22.32226,-38.66406 v -37.14454 h 35.13477 v -7.5 l 6.49609,-3.75 -19.15234,-33.17382 19.15234,-33.17188 -6.49609,-3.75 v -7.5 h -35.13477 v -27.63672 h 35.13477 v -7.5 l 6.49609,-3.75 -19.15234,-33.17187 19.15234,-33.17383 -6.49609,-3.75 v -7.5 h -35.13477 v -27.63672 h 35.13477 v -7.5 l 6.49609,-3.75 -19.15234,-33.17187 19.15234,-33.17383 -6.49609,-3.75 v -7.5 h -35.13477 v -27.63477 h 35.13477 v -7.5 l 6.49609,-3.75195 -19.15234,-33.17188 19.15234,-33.17382 -6.49609,-3.75 v -7.5 H 915.93945 V 457.0625 h 35.13477 v -7.5 l 6.49609,-3.75 -19.15234,-33.17383 19.15234,-33.17383 -6.49609,-3.75 v -7.5 h -35.13477 v -27.63672 h 35.13477 v -7.5 l 6.49609,-3.75 -19.15234,-33.17187 19.15234,-33.17383 -6.49609,-3.75 v -7.5 h -35.13477 v -27.63476 h 35.13477 v -7.5 l 6.49609,-3.75 -19.15234,-33.17383 19.15234,-33.17383 -6.49609,-3.75 v -7.5 h -35.13477 v -27.63477 h 35.13477 v -7.5 l 6.49609,-3.749996 -21.31836,-36.923828 -21.31836,-36.923828 -6.49609,3.75 -6.49414,-3.75 -14.82227,25.673828 -14.82226,-25.673828 -6.49414,3.75 -6.4961,-3.75 -17.56836,30.429688 -28.68945,-16.566407 -20.31055,-35.1796871 -6.49414,3.75 -6.49609,-3.75 L 764.92773,26.875 750.10352,1.2011719 l -6.49414,3.75 -6.4961,-3.75 -20.30859,35.1796871 -28.69141,16.564453 -17.5664,-30.427734 -6.4961,3.75 -6.49414,-3.75 -14.82226,25.673828 -14.82422,-25.673828 -6.4961,3.75 -6.49414,-3.75 -14.82226,25.673828 -14.82227,-25.673828 -6.49414,3.75 -6.49609,-3.75 L 554.7168,52.945312 526.02734,36.380859 505.7168,1.2011719 l -6.49414,3.75 -6.4961,-3.75 -14.82226,25.6718751 -14.82422,-25.6718751 -6.49414,3.75 -6.4961,-3.75 -20.31054,35.1796871 -28.68946,16.566407 -17.56836,-30.429688 -6.49414,3.75 -6.49609,-3.75 -14.82227,25.671875 -14.82226,-25.671875 -6.4961,3.75 -6.49414,-3.75 -14.82226,25.673828 -14.82227,-25.673828 -6.49609,3.75 -6.49414,-3.75 -17.56836,30.429688 -28.68945,-16.566407 -20.3125,-35.1796871 -6.4961,3.75 -6.49414,-3.75 L 190.87891,26.875 176.05664,1.2011719 l -6.49414,3.75 z m 6.49609,18.7500001 8.32617,14.421875 h -16.65429 z m 42.63477,0 8.32812,14.421875 h -16.6543 z m 244.38671,0 8.32813,14.421875 h -16.6543 z m 42.63672,0 8.32813,14.421875 h -16.65625 z m 244.38868,0 8.32617,14.421875 H 735.2832 Z m 42.63671,0 8.32618,14.421875 h -16.6543 z M 47.367188,41.267578 55.693359,55.691406 H 39.039062 Z m 42.634765,0 8.328125,14.423828 H 81.675781 Z m 244.388667,0 8.32813,14.423828 h -16.6543 z m 42.63672,0 8.32618,14.423828 h -16.6543 z m 201.75196,0 8.32812,14.423828 h -16.6543 z m 42.63476,0 8.32813,14.423828 h -16.6543 z m 42.63672,0 8.32813,14.423828 h -16.6543 z m 201.75391,0 8.32617,14.423828 h -16.6543 z m 42.63476,0 8.32617,14.423828 h -16.65429 z m -616.68359,0.002 8.32617,14.421875 h -16.65234 z m -136.01172,8.103516 h 27.63477 v 27.636719 h -27.63477 z m 42.63477,0 h 27.63671 v 27.636719 h -27.63671 z m 244.38867,0 h 27.63476 v 27.636719 h -27.63476 z m 42.63476,0 h 27.63672 v 27.636719 h -27.63672 z m 244.39063,0 h 27.63476 v 27.636719 h -27.63476 z m 42.63476,0 h 27.63477 v 27.636719 h -27.63477 z m -631.68359,5.490234 v 16.65625 l -14.42383,-8.328125 z m 100.27148,0 14.42188,8.328125 -14.42188,8.328125 z m 186.75196,0 v 16.65625 l -14.42383,-8.328125 z m 100.27148,0 14.42383,8.328125 -14.42383,8.328125 z m 186.75391,0 v 16.65625 l -14.42578,-8.328125 z m 100.26953,0 14.42383,8.328125 -14.42383,8.328125 z M 39.039062,70.691406 h 16.654297 l -8.326171,14.423828 z m 42.636719,0 h 16.654297 l -8.326172,14.423828 z m 201.751949,0 h 16.65625 l -8.32812,14.423828 z m 42.63477,0 h 16.65625 l -8.32813,14.423828 z m 42.63672,0 h 16.6543 l -8.32618,14.423828 z m 201.7539,0 h 16.6543 l -8.32812,14.423828 z m 42.63477,0 h 16.6543 l -8.32813,14.423828 z m 42.63672,0 h 16.65234 l -8.32617,14.421875 z m 201.75195,0 h 16.6543 l -8.32617,14.423828 z m 42.63477,0 h 16.65625 l -8.32813,14.423828 z M 114.06641,73.435547 138,87.253906 124.18164,111.18945 100.24805,97.371094 Z m 287.02343,0 23.93164,13.818359 -13.8164,23.933594 -23.9336,-13.816406 z m 440.65235,0 13.8164,23.933594 L 831.625,111.1875 817.80664,87.253906 Z m -574.04883,0.002 13.81641,23.933594 -23.93165,13.816409 -13.81835,-23.933597 z m 287.02344,0 13.8164,23.933594 L 544.60156,111.1875 530.7832,87.253906 Z m 133.39648,0 23.9336,13.818359 L 698.23047,111.1895 674.29688,97.371141 Z M 26.048828,78.191406 34.376953,92.615234 H 17.722656 Z m 42.636719,0 8.328125,14.423828 h -16.65625 z m 244.388673,0 8.32617,14.423828 h -16.6543 z m 287.02344,0 8.32617,14.423828 h -16.6543 z m 42.63476,0 8.32813,14.423828 H 634.4043 Z m 244.38867,0 8.32813,14.423828 h -16.6543 z m 42.63672,0 8.32617,14.423828 h -16.65429 z m -574.04883,0.002 8.32618,14.421875 h -16.65235 z m -194.4746,13.816407 h 16.65429 l -8.32617,14.423827 z m 42.63476,0 h 16.65625 l -8.32812,14.423827 z m 244.38867,0 h 16.6543 l -8.32813,14.423827 z m 42.63672,0 h 16.6543 l -8.32813,14.423827 z m 244.38867,0 h 16.6543 l -8.32812,14.423827 z m 42.63477,0 h 16.6543 l -8.32813,14.423827 z m -629.67383,7.5 8.32813,14.423827 h -16.65625 z m 42.63477,0 8.32812,14.423827 h -16.6543 z m 42.63671,0 8.32618,14.423827 h -16.6543 z m 201.75196,0 8.32812,14.423827 h -16.65625 z m 42.63476,0 8.32813,14.423827 h -16.65625 z m 42.63672,0 8.32813,14.423827 h -16.65625 z m 244.38867,0 8.32618,14.423827 h -16.6543 z m 42.63477,0 8.32812,14.423827 h -16.65624 z m -85.27148,0.002 8.32812,14.421867 h -16.6543 z M 54.867188,107.61523 H 82.503906 V 135.25 H 54.867188 Z m 244.388672,0 h 27.63476 V 135.25 h -27.63476 z m 42.63476,0 h 27.63672 V 135.25 h -27.63672 z m 244.38868,0 h 27.63476 V 135.25 H 586.2793 Z m 42.63476,0 h 27.63672 V 135.25 h -27.63672 z m 244.39063,0 h 27.63476 V 135.25 h -27.63476 z m -775.800784,5.49024 14.421874,8.32812 -14.421874,8.32618 z m 186.751954,0 v 16.6543 l -14.42383,-8.32618 z m 100.27148,0 14.42188,8.32812 -14.42188,8.32618 z m 186.75196,0 v 16.6543 l -14.42383,-8.32618 z m 100.27148,0 14.42383,8.32812 -14.42383,8.32618 z m 186.75391,0 v 16.6543 l -14.42383,-8.32618 z m -718.38867,15.82812 h 16.65429 l -8.32617,14.42188 z m 42.63671,0 h 16.6543 l -8.32812,14.42188 z m 42.63477,0 h 16.6543 l -8.32618,14.42383 z m 201.75195,0 h 16.65625 l -8.32812,14.42383 z m 42.63672,0 h 16.6543 l -8.32813,14.42188 z m 42.63477,0 h 16.65429 l -8.32617,14.42188 z m 201.7539,0 h 16.6543 l -8.32617,14.42188 z m 42.63477,0 h 16.6543 l -8.32618,14.42383 z m 42.63672,0 h 16.65234 l -8.32617,14.42188 z m -675.05469,2.74414 13.81641,23.9336 -23.93164,13.8164 -13.81836,-23.93359 z m 133.39648,0 23.93165,13.81836 -13.81641,23.9336 -23.93359,-13.81836 z m 153.62696,0 13.8164,23.9336 -23.93164,13.8164 -13.81836,-23.93164 z m 133.39648,0 23.93164,13.81836 -13.8164,23.93164 -23.93164,-13.81835 z m 153.62696,0 13.81836,23.93165 -23.9336,13.81835 -13.8164,-23.93359 z m 133.39648,0 23.93359,13.81836 -13.8164,23.9336 -23.9336,-13.81836 z m -662.06445,4.75586 8.32812,14.42188 h -16.65429 z m 42.63672,0 8.32617,14.42188 h -16.6543 z m 244.38867,0 8.32617,14.42188 h -16.6543 z m 42.63476,0 8.32813,14.42188 h -16.65625 z m 244.38868,0 8.32617,14.42188 h -16.6543 z m 42.63671,0 8.32618,14.42188 h -16.6543 z M 17.722656,150.25 h 16.654297 l -8.328125,14.42383 z m 42.634766,0 h 16.654297 l -8.326172,14.42383 z m 244.388668,0 h 16.6543 l -8.32617,14.42383 z m 42.63477,0 h 16.65625 l -8.32813,14.42383 z m 244.38867,0 h 16.6543 l -8.32813,14.42383 z m 42.63672,0 h 16.6543 l -8.32813,14.42383 z m 244.38867,0 h 16.6543 l -8.32813,14.42383 z m 42.63477,0 h 16.65429 l -8.32617,14.42383 z m -874.062502,7.5 8.328124,14.42383 h -16.65625 z m 42.636718,0 8.326172,14.42383 H 81.675781 Z m 201.751954,0 8.32812,14.42383 h -16.65625 z m 42.63476,0 8.32813,14.42383 h -16.6543 z m 42.63672,0 8.32618,14.42383 h -16.6543 z m 201.75196,0 8.32812,14.42383 h -16.6543 z m 42.63476,0 8.32813,14.42383 h -16.65625 z m 42.63672,0 8.32813,14.42383 h -16.65625 z m 201.75391,0 8.32812,14.42383 h -16.65625 z m 42.63476,0 8.32617,14.42383 h -16.65429 z m -752.69531,8.10547 h 27.63477 v 27.63672 h -27.63477 z m 42.63477,0 h 27.63671 v 27.63672 h -27.63671 z m 244.38867,0 h 27.63476 v 27.63672 h -27.63476 z m 42.63476,0 h 27.63672 v 27.63672 h -27.63672 z m 244.39063,0 h 27.63476 v 27.63672 h -27.63476 z m 42.63476,0 h 27.63477 v 27.63672 h -27.63477 z m -631.68359,5.49023 v 16.65625 l -14.42383,-8.32812 z m 100.27148,0 14.42188,8.32813 -14.42188,8.32812 z m 186.75196,0 v 16.65625 l -14.42383,-8.32812 z m 100.27148,0 14.42188,8.32813 L 528.03906,188 Z m 186.75391,0 v 16.65625 l -14.42578,-8.32812 z m 100.26953,0 14.42383,8.32813 -14.42383,8.32812 z M 39.039062,187.17383 h 16.654297 l -8.326171,14.42383 z m 42.636719,0 h 16.654297 l -8.326172,14.42383 z m 201.751949,0 h 16.65625 l -8.32812,14.42383 z m 42.63477,0 h 16.65625 l -8.32813,14.42383 z m 42.63672,0 h 16.6543 l -8.32618,14.42383 z m 201.7539,0 h 16.6543 l -8.32812,14.42383 z m 42.63477,0 h 16.6543 l -8.32813,14.42383 z m 42.63672,0 h 16.65234 l -8.32617,14.42187 z m 201.75195,0 h 16.6543 l -8.32617,14.42383 z m 42.63477,0 h 16.65625 l -8.32813,14.42383 z m -786.04492,2.74414 23.93164,13.81836 -13.81641,23.93359 -23.93359,-13.8164 z m 287.02343,0 23.93164,13.81836 -13.8164,23.93359 -23.9336,-13.81836 z m 440.65235,0 13.8164,23.93359 -23.93359,13.81836 -13.81836,-23.93359 z m -574.04883,0.002 13.81641,23.93164 -23.93165,13.81836 -13.81835,-23.93359 z m 287.02344,0 13.8164,23.93164 -23.93164,13.81836 -13.8164,-23.93359 z m 133.39648,0 23.9336,13.81836 -13.81641,23.93164 -23.93359,-13.81836 z m -662.064452,4.75391 8.328125,14.42383 h -16.65625 z m 42.636719,0 8.328125,14.42383 h -16.65625 z m 244.388673,0 8.32617,14.42383 h -16.6543 z m 287.02344,0 8.32617,14.42383 h -16.6543 z m 42.63476,0 8.32813,14.42383 H 634.4043 Z m 244.38867,0 8.32813,14.42383 h -16.6543 z m 42.63672,0 8.32813,14.42383 h -16.65625 z m -574.04883,0.002 8.32618,14.42188 h -16.65235 z m -194.4746,13.81641 h 16.65429 l -8.32617,14.42187 z m 42.63476,0 h 16.65625 l -8.32812,14.42187 z m 244.38867,0 h 16.6543 l -8.32813,14.42187 z m 42.63672,0 h 16.6543 l -8.32813,14.42187 z m 244.38867,0 h 16.6543 l -8.32812,14.42187 z m 42.63477,0 h 16.6543 l -8.32813,14.42187 z m -300.01563,7.49804 8.32813,14.42383 h -16.6543 z m -329.6582,0.002 8.32617,14.42187 h -16.65234 z m 42.63477,0 8.32617,14.42187 h -16.65235 z m 42.63671,0 8.32618,14.42187 h -16.6543 z m 201.75196,0 8.32617,14.42187 h -16.65234 z m 85.27148,0 8.32617,14.42187 h -16.65234 z m 244.38867,0 8.32618,14.42187 h -16.6543 z m 42.63477,0 8.32617,14.42187 h -16.65234 z m -85.26953,0.002 8.32422,14.41992 H 713.9668 Z m -667.425782,8.10352 h 27.636718 v 27.63476 H 54.867188 Z m 244.388672,0 h 27.63476 v 27.63476 h -27.63476 z m 42.63476,0 h 27.63672 v 27.63476 h -27.63672 z m 244.38868,0 h 27.63476 v 27.63476 H 586.2793 Z m 42.63476,0 h 27.63672 v 27.63476 h -27.63672 z m 244.39063,0 h 27.63476 v 27.63476 h -27.63476 z m -775.800784,5.49023 14.421874,8.32617 -14.421874,8.32813 z m 186.751954,0 v 16.6543 l -14.42188,-8.32617 z m 100.27148,0 14.42188,8.32813 -14.42188,8.32617 z m 186.75196,0 v 16.6543 l -14.42188,-8.32813 z m 100.27148,0 14.42188,8.32813 -14.42188,8.32617 z m 186.75391,0 v 16.6543 l -14.42383,-8.32617 z m -718.38867,15.82617 h 16.65429 l -8.32617,14.42383 z m 42.63476,0 h 16.65625 l -8.32812,14.42383 z m 42.63672,0 h 16.6543 l -8.32618,14.42383 z m 201.75195,0 h 16.65625 l -8.32812,14.42383 z m 42.63672,0 h 16.6543 l -8.32813,14.42383 z m 42.63477,0 h 16.65429 l -8.32617,14.42383 z m 201.7539,0 h 16.6543 l -8.32617,14.42188 z m 42.63477,0 h 16.65625 l -8.32813,14.42383 z m 42.63672,0 h 16.65234 l -8.32617,14.42188 z m -675.05664,2.7461 13.81836,23.93164 -23.9336,13.81836 -13.8164,-23.9336 z m 133.39843,0 23.93165,13.81836 -13.81641,23.93359 -23.93359,-13.81836 z m 153.62696,0 13.8164,23.93359 -23.93164,13.81641 -13.81836,-23.93164 z m 133.39648,0 23.93164,13.8164 -13.8164,23.9336 -23.93164,-13.81836 z m 153.62696,0 13.81836,23.93164 -23.9336,13.81836 -13.8164,-23.9336 z m 133.39843,0 23.93164,13.8164 -13.8164,23.93555 -23.9336,-13.81836 z m -662.0664,4.7539 8.32812,14.42383 h -16.65429 z m 287.02539,0 8.32617,14.42383 h -16.6543 z m 287.02344,0 8.32617,14.42383 h -16.6543 z m -531.41211,0.002 8.32617,14.42187 h -16.6543 z m 287.02343,0 8.32813,14.42187 h -16.65625 z m 287.02539,0 8.32618,14.42187 h -16.6543 z m -768.523434,13.8164 h 16.654297 l -8.328125,14.42383 z m 42.634766,0 h 16.654297 l -8.326172,14.42383 z m 244.388668,0 h 16.6543 l -8.32617,14.42383 z m 42.63477,0 h 16.65625 l -8.32813,14.42383 z m 244.38867,0 h 16.6543 l -8.32813,14.42383 z m 42.63672,0 h 16.6543 l -8.32813,14.42383 z m 244.38867,0 h 16.6543 l -8.32813,14.42383 z m 42.63477,0 h 16.65429 l -8.32617,14.42383 z m -874.062502,7.5 8.328124,14.42383 h -16.65625 z m 42.636718,0 8.326172,14.42383 H 81.675781 Z m 201.751954,0 8.32812,14.42383 h -16.65625 z m 42.63476,0 8.32813,14.42383 h -16.6543 z m 42.63672,0 8.32618,14.42383 h -16.6543 z m 201.75196,0 8.32812,14.42383 h -16.6543 z m 42.63476,0 8.32813,14.42383 h -16.65625 z m 42.63672,0 8.32813,14.42383 h -16.65625 z m 201.75391,0 8.32812,14.42383 h -16.65625 z m 42.63476,0 8.32617,14.42383 h -16.65429 z m -752.69531,8.10547 h 27.63477 v 27.63672 h -27.63477 z m 42.63477,0 h 27.63671 v 27.63672 h -27.63671 z m 244.38867,0 h 27.63476 v 27.63672 h -27.63476 z m 42.63476,0 h 27.63672 v 27.63672 h -27.63672 z m 244.39063,0 h 27.63476 v 27.63672 h -27.63476 z m 42.63476,0 h 27.63477 v 27.63672 h -27.63477 z m -631.68359,5.49023 v 16.65626 l -14.42578,-8.32813 z m 100.27148,0 14.42188,8.32813 -14.42188,8.32813 z m 186.75196,0 v 16.65626 l -14.42383,-8.32813 z m 100.27148,0 14.42383,8.32813 -14.42383,8.32813 z m 186.75391,0 v 16.65626 l -14.42578,-8.32813 z m 100.26953,0 14.42383,8.32813 -14.42383,8.32813 z m -776.023438,15.8279 h 16.654297 l -8.326171,14.42187 z m 42.636719,0 h 16.654297 l -8.328125,14.42187 z m 201.751949,0 h 16.65625 l -8.32812,14.42383 z m 42.63477,0 h 16.65625 l -8.32813,14.42383 z m 42.63672,0 h 16.6543 l -8.32618,14.42383 z m 201.7539,0 h 16.6543 l -8.32812,14.42383 z m 42.63477,0 h 16.6543 l -8.32617,14.42187 z m 42.63672,0 h 16.65234 l -8.32617,14.42187 z m 201.75195,0 h 16.6543 l -8.32617,14.42187 z m 42.63477,0 h 16.65429 l -8.32617,14.42187 z m -786.04688,2.74414 23.9336,13.81836 -13.81641,23.93359 -23.93359,-13.81836 z m 287.02539,0 23.93164,13.81836 -13.8164,23.93164 -23.9336,-13.81641 z m 440.65235,0 13.8164,23.93359 -23.93359,13.81836 -13.81641,-23.93359 z m -574.04883,0.002 13.81836,23.93164 -23.9336,13.81836 -13.81835,-23.93359 z m 287.02344,0 13.8164,23.93164 -23.93164,13.81836 -13.8164,-23.93359 z m 133.39648,0 23.9336,13.81836 -13.81641,23.93164 -23.93359,-13.81836 z m -662.064452,4.75196 8.328125,14.42382 H 17.722656 Z m 42.636719,0 8.328125,14.42382 h -16.65625 z m 574.046873,0 8.32813,14.42382 H 634.4043 Z m 287.02539,0 8.32617,14.42382 h -16.65429 z m -616.68359,0.002 8.32617,14.42187 h -16.6543 z m 42.63476,0 8.32618,14.42187 h -16.65235 z m 244.38868,0 8.32617,14.42187 h -16.6543 z m 287.02343,0 8.32813,14.42187 h -16.6543 z m -725.88671,13.81836 h 16.65429 l -8.32617,14.42187 z m 42.63476,0 h 16.65625 l -8.32812,14.42187 z m 244.38867,0 h 16.6543 l -8.32813,14.42187 z m 42.63672,0 h 16.6543 l -8.32813,14.42187 z m 244.38867,0 h 16.6543 l -8.32812,14.42187 z m 42.63477,0 h 16.6543 l -8.32813,14.42187 z m -300.01563,7.49805 8.32813,14.42382 h -16.6543 z m -329.6582,0.002 8.32617,14.42187 h -16.65429 z m 42.63477,0 8.32617,14.42187 h -16.65235 z m 42.63671,0 8.32618,14.42187 h -16.6543 z m 201.75196,0 8.32617,14.42187 h -16.6543 z m 85.27148,0 8.32617,14.42187 h -16.65429 z m 201.75196,0 8.32617,14.42187 h -16.65235 z m 42.63671,0 8.32618,14.42187 h -16.6543 z m 42.63477,0 8.32617,14.42187 h -16.65234 z m -752.695312,8.10351 h 27.636718 v 27.63672 H 54.867188 Z m 244.388672,0 h 27.63476 v 27.63672 h -27.63476 z m 42.63476,0 h 27.63672 v 27.63672 h -27.63672 z m 244.38868,0 h 27.63476 v 27.63672 H 586.2793 Z m 42.63476,0 h 27.63672 v 27.63672 h -27.63672 z m 244.39063,0 h 27.63476 v 27.63672 h -27.63476 z m -775.800784,5.49024 14.421874,8.32812 -14.421874,8.32813 z m 186.751954,0 v 16.65625 l -14.42383,-8.32813 z m 100.27148,0 14.42383,8.32812 -14.42383,8.32813 z m 186.75196,0 v 16.65625 l -14.42383,-8.32813 z m 100.27148,0 14.42383,8.32812 -14.42383,8.32813 z m 186.75391,0 v 16.65625 l -14.42383,-8.32813 z m -718.38867,15.82812 h 16.65429 l -8.32617,14.42383 z m 42.63476,0 h 16.65625 l -8.32812,14.42383 z m 42.63672,0 h 16.6543 l -8.32618,14.42383 z m 201.75195,0 h 16.65625 l -8.32812,14.42383 z m 42.63477,0 h 16.65625 l -8.32813,14.42383 z m 42.63672,0 h 16.65429 l -8.32617,14.42383 z m 201.7539,0 h 16.6543 l -8.32617,14.42188 z m 42.63477,0 h 16.65625 l -8.32813,14.42383 z m 42.63672,0 h 16.65429 l -8.32812,14.42383 z m -675.05469,2.74414 13.81641,23.9336 -23.93164,13.81836 -13.81836,-23.9336 z m 133.39648,0 23.93165,13.81836 -13.81641,23.9336 -23.93359,-13.81641 z m 440.65235,0 13.81641,23.9336 -23.9336,13.81836 -13.8164,-23.9336 z m -287.02539,0.002 13.8164,23.93359 -23.93164,13.81641 -13.81836,-23.9336 z m 133.39648,0 23.93164,13.8164 -13.8164,23.9336 -23.93164,-13.81641 z m 287.02344,0 23.93359,13.81836 -13.8164,23.93359 -23.9336,-13.82031 z m -662.0625,4.7539 8.32617,14.42383 h -16.65429 z m 42.63477,0 8.32617,14.42383 h -16.6543 z m 244.38867,0 8.32617,14.42383 h -16.6543 z m 42.63476,0 8.32813,14.42383 h -16.6543 z m 244.38868,0 8.32617,14.42383 h -16.6543 z m 42.63671,0 8.32618,14.42383 h -16.6543 z M 17.720703,383.21484 h 16.65625 l -8.328125,14.42383 z m 42.636719,0 h 16.654297 l -8.326172,14.42383 z m 244.388668,0 h 16.6543 l -8.32617,14.42383 z m 42.63477,0 h 16.65625 l -8.32813,14.42383 z m 244.38867,0 h 16.6543 l -8.32813,14.42383 z m 42.63672,0 h 16.6543 l -8.32813,14.42383 z m 244.38867,0 h 16.6543 l -8.32813,14.42383 z m 42.63477,0 h 16.65625 l -8.32813,14.42383 z m -874.062502,7.5 8.328124,14.42383 h -16.65625 z m 42.636718,0 8.326172,14.42383 H 81.675781 Z m 201.751954,0 8.32812,14.42383 h -16.65625 z m 42.63476,0 8.32813,14.42383 h -16.6543 z m 42.63672,0 8.32618,14.42383 h -16.6543 z m 201.75196,0 8.32812,14.42383 h -16.6543 z m 42.63476,0 8.32813,14.42383 h -16.65625 z m 42.63672,0 8.32617,14.42383 h -16.65429 z m 201.75391,0 8.32617,14.42383 h -16.6543 z m 42.63476,0 8.32617,14.42383 h -16.65429 z m -752.69531,8.10547 h 27.63477 v 27.63477 h -27.63477 z m 42.63477,0 h 27.63671 v 27.63477 h -27.63671 z m 244.38867,0 h 27.63476 v 27.63477 h -27.63476 z m 42.63476,0 h 27.63672 v 27.63477 h -27.63672 z m 244.39063,0 h 27.63476 v 27.63477 h -27.63476 z m 42.63476,0 h 27.63477 v 27.63477 h -27.63477 z m -631.68359,5.49024 v 16.65429 l -14.42383,-8.32617 z m 100.27148,0 14.42188,8.32812 -14.42188,8.32617 z m 186.75196,0 v 16.65429 l -14.42383,-8.32617 z m 100.27148,0 14.42188,8.32812 -14.42188,8.32617 z m 186.75391,0 v 16.65625 l -14.42578,-8.32813 z m 100.26953,0 14.42383,8.32812 -14.42383,8.32617 z M 39.039062,420.13867 h 16.65625 l -8.328124,14.42383 z m 42.636719,0 h 16.654297 l -8.326172,14.42383 z m 201.751949,0 h 16.6543 l -8.32617,14.42383 z m 42.63477,0 h 16.65625 l -8.32813,14.42383 z m 42.63672,0 h 16.6543 l -8.32618,14.42383 z m 201.7539,0 h 16.6543 l -8.32812,14.42383 z m 42.63477,0 h 16.6543 l -8.32813,14.42383 z m 42.63672,0 h 16.6543 l -8.32813,14.42383 z m 201.75195,0 h 16.6543 l -8.32617,14.42383 z m 42.63477,0 h 16.65429 l -8.32617,14.42383 z m -786.04492,2.74414 23.93164,13.81641 -13.81836,23.93555 -23.93164,-13.81641 z m 153.62695,0 13.81641,23.9336 -23.93165,13.81836 -13.81835,-23.9336 z m 133.39648,0 23.93164,13.81836 -13.8164,23.9336 -23.9336,-13.81836 z m 287.02344,0 23.93555,13.81836 -13.81836,23.9336 -23.93359,-13.81836 z m 153.62695,0 13.81836,23.9336 -23.93359,13.81836 -13.81641,-23.9336 z m -287.02343,0.002 13.8164,23.93164 -23.93359,13.8164 -13.81641,-23.93164 z m -528.667972,4.7539 8.328125,14.42383 H 17.722656 Z m 42.636719,0 8.326172,14.42383 H 60.357422 Z m 244.388673,0 8.32617,14.42383 h -16.6543 z m 287.02344,0 8.32617,14.42383 h -16.6543 z m 42.63476,0 8.32813,14.42383 H 634.4043 Z m 244.38867,0 8.32813,14.42383 h -16.6543 z m 42.63672,0 8.32617,14.42383 h -16.65429 z m -574.04883,0.002 8.32618,14.42188 h -16.65235 z m -194.4746,13.81446 h 16.65429 l -8.32812,14.42383 z m 42.63476,0 h 16.6543 l -8.32813,14.42383 z m 244.38867,0 h 16.6543 l -8.32617,14.42383 z m 42.63477,0 h 16.65625 L 499.2207,455.879 Z m 244.38867,0 h 16.65625 l -8.32812,14.42383 z m 42.63672,0 h 16.6543 l -8.32618,14.42383 z m -629.67383,7.5 8.32813,14.42383 h -16.65625 z m 85.27148,0 8.32618,14.42383 h -16.6543 z m 201.75196,0 8.32617,14.42383 h -16.6543 z m 372.29492,0 8.32617,14.42383 h -16.65429 z m -616.68359,0.002 8.32812,14.42188 h -16.6543 z m 287.02539,0 8.32617,14.42188 h -16.6543 z m 42.63476,0 8.32617,14.42188 h -16.65234 z m 201.75391,0 8.32617,14.42188 h -16.6543 z m 42.63281,0 8.32813,14.42188 h -16.6543 z M 54.867188,457.0625 h 27.636718 v 27.63477 H 54.867188 Z m 244.388672,0 h 27.63476 v 27.63477 h -27.63476 z m 42.63476,0 h 27.63672 v 27.63477 h -27.63672 z m 244.38868,0 h 27.63476 v 27.63477 H 586.2793 Z m 42.63476,0 h 27.63672 v 27.63477 h -27.63672 z m 244.39063,0 h 27.63476 v 27.63477 h -27.63476 z m -775.800784,5.49023 14.421874,8.32618 -14.421874,8.32812 z m 186.751954,0 v 16.6543 l -14.42383,-8.32812 z m 100.27148,0 14.42188,8.32618 -14.42188,8.32812 z m 186.75196,0 v 16.6543 l -14.42383,-8.32812 z m 100.27148,0 14.42383,8.32618 -14.42383,8.32812 z m 186.75391,0 v 16.6543 l -14.42383,-8.32812 z m -718.38867,15.82618 h 16.65429 l -8.32617,14.42382 z m 42.63671,0 h 16.6543 l -8.32812,14.42382 z m 42.63477,0 h 16.6543 l -8.32618,14.42382 z m 201.75195,0 h 16.65625 l -8.32812,14.42382 z m 42.63477,0 h 16.65625 l -8.32813,14.42382 z m 42.63672,0 h 16.65625 l -8.32813,14.42382 z m 201.7539,0 h 16.6543 l -8.32617,14.42187 z m 42.63477,0 h 16.6543 l -8.32618,14.42382 z m 42.63672,0 h 16.65429 l -8.32812,14.42382 z m -675.05469,2.74414 13.81641,23.93554 -23.93164,13.81836 -13.81836,-23.93554 z m 574.04883,0 13.81641,23.93359 -23.9336,13.81836 -13.8164,-23.93359 z m -440.65235,0.002 23.9336,13.81836 -13.81836,23.93164 -23.93359,-13.81641 z m 153.62696,0 13.8164,23.93359 -23.93164,13.81641 -13.81836,-23.93359 z m 133.39648,0 23.93164,13.81641 -13.8164,23.93359 -23.9336,-13.81641 z m 287.02344,0 23.93359,13.81836 -13.8164,23.93359 -23.9336,-13.81836 z m -662.0625,4.75391 8.32617,14.42382 h -16.65429 z m 42.63477,0 8.32617,14.42382 h -16.6543 z m 244.38867,0 8.32617,14.42382 h -16.6543 z m 42.63476,0 8.32813,14.42382 h -16.6543 z m 244.38868,0 8.32812,14.42382 h -16.65625 z m 42.63671,0 8.32618,14.42382 h -16.6543 z M 17.720703,499.69727 h 16.65625 l -8.328125,14.42382 z m 42.636719,0 h 16.65625 l -8.328125,14.42382 z m 244.388668,0 h 16.6543 l -8.32617,14.42382 z m 42.63477,0 h 16.6543 l -8.32618,14.42187 z m 244.38867,0 h 16.6543 l -8.32617,14.42382 z m 42.63672,0 h 16.6543 l -8.32813,14.42382 z m 244.38867,0 h 16.6543 l -8.32813,14.42382 z m 42.63477,0 h 16.65625 l -8.32813,14.42382 z m -874.062502,7.5 8.328124,14.42382 h -16.65625 z m 42.636718,0 8.326172,14.42382 H 81.675781 Z m 201.751954,0 8.32812,14.42382 h -16.65625 z m 42.63476,0 8.32813,14.42382 h -16.6543 z m 42.63672,0 8.32618,14.42382 h -16.6543 z m 201.75196,0 8.32812,14.42382 h -16.6543 z m 42.63476,0 8.32813,14.42382 h -16.65625 z m 42.63672,0 8.32813,14.42382 h -16.65625 z m 201.75391,0 8.32617,14.42382 h -16.6543 z m 42.63476,0 8.32617,14.42382 h -16.65429 z m -752.69531,8.10546 h 27.63477 v 27.63477 h -27.63477 z m 42.63477,0 h 27.63671 v 27.63477 h -27.63671 z m 244.38867,0 h 27.63476 v 27.63477 h -27.63476 z m 42.63476,0 h 27.63672 v 27.63477 h -27.63672 z m 244.39063,0 h 27.63476 v 27.63477 h -27.63476 z m 42.63476,0 h 27.63477 v 27.63477 h -27.63477 z m -631.68359,5.49024 v 16.6543 l -14.42383,-8.32618 z m 100.27148,0 14.42188,8.32812 -14.42188,8.32618 z m 186.75196,0 v 16.6543 l -14.42383,-8.32618 z m 287.02539,0 v 16.65625 l -14.42578,-8.32813 z m 100.26953,0 14.42383,8.32812 -14.42383,8.32618 z m -287.02344,0.002 14.42188,8.32617 -14.42188,8.32618 z M 39.039062,536.62109 h 16.65625 l -8.328124,14.42383 z m 42.636719,0 h 16.654297 l -8.326172,14.42383 z m 201.751949,0 h 16.65625 l -8.32812,14.42383 z m 42.63672,0 h 16.6543 l -8.32813,14.42188 z m 42.63477,0 h 16.6543 l -8.32618,14.42383 z m 201.7539,0 h 16.6543 l -8.32812,14.42383 z m 42.63282,0 h 16.65625 l -8.32813,14.42383 z m 42.63867,0 h 16.6543 l -8.32618,14.42383 z m 201.75195,0 h 16.6543 l -8.32617,14.42188 z m 42.63477,0 h 16.65429 l -8.32617,14.42188 z m -786.04492,2.74414 23.93164,13.81641 -13.81836,23.93555 -23.93164,-13.81836 z m 153.62695,0 13.81836,23.9336 -23.9336,13.81836 -13.81835,-23.9336 z m 133.39648,0 23.9336,13.81836 -13.81836,23.9336 -23.9336,-13.81836 z m 440.65235,0 13.81836,23.9336 -23.9336,13.81836 -13.81836,-23.93555 z m -287.02539,0.002 13.81836,23.93164 -23.9336,13.8164 -13.8164,-23.93164 z m 133.39648,0 23.9336,13.8164 -13.81836,23.9336 -23.9336,-13.81836 z m -662.064452,4.7539 8.328125,14.42383 h -16.65625 z m 42.634766,0 8.328125,14.42383 H 60.357422 Z m 244.390626,0 8.32617,14.42383 h -16.6543 z m 42.63476,0 8.32618,14.42383 h -16.6543 z m 244.38868,0 8.32617,14.42383 h -16.6543 z m 42.63672,0 8.32617,14.42383 h -16.6543 z m 244.38867,0 8.32617,14.42383 h -16.6543 z m 42.63476,0 8.32617,14.42383 H 921.42969 Z M 161.23438,557.9375 h 16.65429 l -8.32617,14.42383 z m 42.63476,0 h 16.6543 l -8.32617,14.42383 z m 244.38867,0 h 16.6543 l -8.32617,14.42383 z m 42.63477,0 h 16.65625 l -8.32813,14.42383 z m 244.38867,0 h 16.65625 l -8.32812,14.42383 z m 42.63672,0 h 16.6543 l -8.32813,14.42383 z m -629.67383,7.5 8.32813,14.42383 h -16.65625 z m 42.63477,0 8.32812,14.42383 h -16.6543 z m 42.63671,0 8.32618,14.42383 h -16.6543 z m 201.75196,0 8.32812,14.42383 h -16.65429 z m 42.63476,0 8.32813,14.42383 h -16.6543 z m 287.02539,0 8.32618,14.42383 h -16.6543 z m 42.63477,0 8.32617,14.42383 h -16.65429 z m -287.02344,0.002 8.32617,14.42188 h -16.65234 z m 201.75391,0 8.32617,14.42188 h -16.6543 z m -667.425782,8.10547 h 27.636718 v 27.63477 H 54.867188 Z m 244.388672,0 h 27.63476 v 27.63477 h -27.63476 z m 42.63476,0 h 27.63672 v 27.63477 h -27.63672 z m 244.38868,0 h 27.63476 v 27.63477 H 586.2793 Z m 42.63476,0 h 27.63672 v 27.63477 h -27.63672 z m 244.39063,0 h 27.63476 v 27.63477 h -27.63476 z m -775.800784,5.49024 14.421874,8.32617 -14.421874,8.32812 z m 186.751954,0 v 16.65429 l -14.42383,-8.32812 z m 100.27148,0 14.42383,8.32617 -14.42383,8.32812 z m 186.75196,0 v 16.65429 l -14.42383,-8.32812 z m 100.27148,0 14.42383,8.32617 -14.42383,8.32812 z m 186.75391,0 v 16.65429 l -14.42383,-8.32812 z m -718.38867,15.82617 h 16.65429 l -8.32617,14.42383 z m 42.63671,0 h 16.6543 l -8.32812,14.42383 z m 42.63477,0 h 16.6543 l -8.32618,14.42383 z m 201.75195,0 h 16.65625 l -8.32812,14.42383 z m 42.63672,0 h 16.6543 l -8.32813,14.42383 z m 42.63477,0 h 16.65429 l -8.32617,14.42383 z m 201.7539,0 h 16.6543 l -8.32812,14.42187 z m 42.63477,0 h 16.6543 l -8.32618,14.42383 z m 42.63672,0 h 16.65429 l -8.32812,14.42383 z m -675.05469,2.74414 13.81641,23.93359 -23.93164,13.82032 -13.81836,-23.93555 z m 133.39648,0 23.93165,13.82031 -13.81641,23.9336 -23.93359,-13.82032 z m 440.65235,0 13.81641,23.93359 -23.9336,13.81836 -13.8164,-23.93359 z m -287.02539,0.002 13.8164,23.9336 -23.93164,13.81836 -13.81836,-23.9336 z m 133.39648,0 23.93164,13.81641 -13.8164,23.93359 -23.93164,-13.8164 z m 287.02344,0 23.93359,13.81836 -13.8164,23.9336 -23.9336,-13.82032 z m -662.0625,4.75391 8.32617,14.42383 h -16.65429 z m 42.63477,0 8.32617,14.42383 h -16.6543 z m 244.38867,0 8.32617,14.42383 h -16.6543 z m 42.63476,0 8.32813,14.42383 h -16.65625 z m 244.38868,0 8.32812,14.42383 h -16.6543 z m 42.63671,0 8.32618,14.42383 h -16.6543 z M 17.720703,616.17969 h 16.65625 l -8.328125,14.42383 z m 42.636719,0 h 16.65625 l -8.328125,14.42383 z m 244.388668,0 h 16.6543 l -8.32617,14.42383 z m 42.63672,0 h 16.65235 l -8.32618,14.42187 z m 244.38672,0 h 16.6543 l -8.32617,14.42383 z m 42.63477,0 h 16.65625 l -8.32813,14.42383 z m 244.39062,0 h 16.6543 l -8.32813,14.42383 z m 42.63477,0 h 16.65625 l -8.32813,14.42383 z m -874.062502,7.5 8.328124,14.42383 h -16.65625 z m 42.636718,0 8.326172,14.42383 H 81.675781 Z m 201.751954,0 8.32617,14.42383 h -16.6543 z m 42.63476,0 8.32813,14.42383 H 326.0625 Z m 42.63672,0 8.32618,14.42383 h -16.6543 z m 201.75196,0 8.32812,14.42383 h -16.6543 z m 42.63476,0 8.32813,14.42383 h -16.6543 z m 244.39063,0 8.32617,14.42383 h -16.6543 z m 42.63476,0 8.32617,14.42383 h -16.65429 z m -244.38867,0.002 8.32617,14.42188 h -16.65234 z m -508.30664,8.10352 h 27.63477 v 27.63476 h -27.63477 z m 42.63477,0 h 27.63671 v 27.63476 h -27.63671 z m 244.38867,0 h 27.63476 v 27.63476 h -27.63476 z m 42.63476,0 h 27.63672 v 27.63476 h -27.63672 z m 244.39063,0 h 27.63476 v 27.63476 h -27.63476 z m 42.63476,0 h 27.63477 v 27.63476 h -27.63477 z m -631.68359,5.49023 v 16.6543 l -14.42383,-8.32617 z m 100.27148,0 14.42188,8.32813 -14.42188,8.32617 z m 186.75196,0 v 16.6543 l -14.42383,-8.32617 z m 100.27148,0 14.42188,8.32813 -14.42188,8.32617 z m 186.75391,0 v 16.65625 l -14.42578,-8.32812 z m 100.26953,0 14.42383,8.32813 -14.42383,8.32617 z M 39.039062,653.10352 h 16.654297 l -8.326171,14.42187 z m 42.636719,0 h 16.654297 l -8.326172,14.42187 z m 201.751949,0 h 16.6543 l -8.32617,14.42187 z m 42.63672,0 h 16.65235 l -8.32618,14.42187 z m 42.63672,0 h 16.65235 l -8.32618,14.42187 z m 201.75195,0 h 16.6543 l -8.32812,14.42187 z m 42.63477,0 h 16.6543 l -8.32813,14.42382 z m 42.63672,0 h 16.65234 l -8.32617,14.42187 z m 201.75195,0 h 16.6543 l -8.32617,14.42187 z m 42.63672,0 h 16.65234 l -8.32617,14.42187 z m -786.04687,2.74414 23.93164,13.81836 -13.81641,23.93359 -23.93359,-13.81836 z m 153.62695,0 13.81641,23.93359 -23.93165,13.81836 -13.8164,-23.93359 z m 133.39648,0 23.93164,13.81836 -13.8164,23.93164 -23.9336,-13.81641 z m 287.02344,0 23.9336,13.81836 -13.81641,23.93359 -23.93359,-13.81836 z m 153.62891,0 13.8164,23.93359 -23.93359,13.81836 -13.81641,-23.93359 z m -287.02539,0.002 13.8164,23.93164 -23.93164,13.81836 -13.8164,-23.93359 z m -528.667972,4.75391 8.328125,14.42187 H 17.722656 Z m 42.636719,0 8.328125,14.42187 h -16.65625 z m 244.388673,0 8.32617,14.42187 h -16.6543 z m 42.63476,0 8.32813,14.42187 h -16.65625 z m 244.38868,0 8.32617,14.42187 h -16.6543 z m 42.63476,0 8.32813,14.42187 h -16.6543 z m 244.38867,0 8.32813,14.42187 h -16.6543 z m 42.63672,0 8.32617,14.42187 h -16.65429 z m -768.52343,13.8164 h 16.65429 l -8.32617,14.42383 z m 42.63476,0 h 16.6543 l -8.32617,14.42383 z m 244.38867,0 h 16.6543 l -8.32617,14.42383 z m 42.63477,0 h 16.65625 l -8.32813,14.42383 z m 244.38867,0 h 16.6543 l -8.32617,14.42383 z m 42.63672,0 h 16.6543 l -8.32618,14.42383 z m -629.67383,7.5 8.32617,14.42383 h -16.65429 z m 42.63477,0 8.32812,14.42383 h -16.65625 z m 42.63671,0 8.32618,14.42383 h -16.6543 z m 201.75196,0 8.32812,14.42383 h -16.65625 z m 42.63476,0 8.32813,14.42383 h -16.6543 z m 287.02539,0 8.32813,14.42383 h -16.65625 z m 42.63477,0 8.32812,14.42383 h -16.65429 z m -287.02344,0.002 8.32617,14.42187 h -16.65234 z m 201.75391,0 8.32617,14.42187 h -16.6543 z M 54.867188,690.02548 H 82.503906 V 717.6622 H 54.867188 Z m 244.388672,0 h 27.63476 v 27.63672 h -27.63476 z m 42.63476,0 h 27.63672 v 27.63672 h -27.63672 z m 244.38868,0 h 27.63476 V 717.6622 H 586.2793 Z m 42.63476,0 h 27.63672 v 27.63672 h -27.63672 z m 244.39063,0 h 27.63476 v 27.63672 h -27.63476 z m -775.800784,5.49023 14.421874,8.32813 -14.421874,8.32617 z m 186.751954,0 v 16.65626 l -14.42383,-8.32813 z m 100.27148,0 14.42188,8.32813 -14.42188,8.32813 z m 186.75196,0 v 16.65626 l -14.42383,-8.32813 z m 100.27148,0 14.42383,8.32813 -14.42383,8.32813 z m 186.75391,0 v 16.65626 l -14.42383,-8.32813 z m -718.38867,15.82813 h 16.65625 l -8.32813,14.42383 z m 42.63671,0 h 16.6543 l -8.32812,14.42383 z m 42.63477,0 h 16.6543 l -8.32618,14.42383 z m 201.75391,0 h 16.65429 l -8.32812,14.42383 z m 42.63476,0 h 16.6543 l -8.32813,14.42383 z m 42.63477,0 h 16.65429 l -8.32617,14.42383 z m 201.7539,0 h 16.6543 l -8.32812,14.42187 z m 42.63477,0 h 16.6543 l -8.32618,14.42383 z m 42.63477,0 h 16.65624 l -8.32812,14.42383 z m -388.0293,2.74414 13.81836,23.93359 -23.9336,13.81836 -13.81836,-23.93359 z m 287.02539,0 13.81641,23.93359 -23.93165,13.81836 -13.81835,-23.93359 z m 133.39453,0 23.93359,13.81836 -13.81836,23.93359 -23.93164,-13.81836 z m -707.44336,0.002 13.81641,23.93164 -23.93164,13.81836 -13.81836,-23.93359 z m 133.39648,0 23.93165,13.81641 -13.81836,23.93359 -23.93164,-13.8164 z m 287.02344,0 23.93164,13.81641 -13.8164,23.93164 -23.9336,-13.81641 z m -375.03906,4.75391 8.32617,14.42383 h -16.65429 z m 42.63477,0 8.32812,14.42383 h -16.65625 z m 244.38867,0 8.32617,14.42383 h -16.6543 z m 42.63476,0 8.32813,14.42383 h -16.65625 z m 244.38868,0 8.32812,14.42383 h -16.6543 z m 42.63476,0 8.32813,14.42383 h -16.6543 z M 17.720703,732.66211 h 16.65625 l -8.328125,14.42383 z m 42.636719,0 h 16.65625 l -8.328125,14.42383 z m 244.388668,0 h 16.6543 l -8.32617,14.42383 z m 42.63672,0 h 16.65235 l -8.32618,14.42187 z m 244.38672,0 h 16.6543 l -8.32617,14.42187 z m 42.63477,0 h 16.65625 l -8.32813,14.42383 z m 244.39062,0 h 16.6543 l -8.32813,14.42383 z m 42.63477,0 h 16.65625 l -8.32813,14.42383 z m -874.062502,7.5 8.326171,14.42383 H 39.039062 Z m 244.388672,0 8.32812,14.42383 h -16.65625 z m 42.63476,0 8.32813,14.42383 H 326.0625 Z m 42.63672,0 8.32618,14.42383 h -16.6543 z m 201.75196,0 8.32812,14.42383 h -16.6543 z m 42.63476,0 8.32813,14.42383 h -16.6543 z m 244.39063,0 8.32617,14.42383 h -16.6543 z m 42.63476,0 8.32617,14.42383 h -16.65429 z m -818.437497,0.002 8.328125,14.42188 H 81.675781 Z m 574.048827,0 8.32617,14.42188 h -16.65234 z m -508.30664,8.10352 h 27.63477 v 27.63476 h -27.63477 z m 42.63477,0 h 27.63671 v 27.63476 h -27.63671 z m 244.38867,0 h 27.63476 v 27.63476 h -27.63476 z m 42.63476,0 h 27.63672 v 27.63476 h -27.63672 z m 244.39063,0 h 27.63476 v 27.63476 h -27.63476 z m 42.63476,0 h 27.63477 v 27.63476 h -27.63477 z m -631.68359,5.49023 v 16.6543 l -14.42187,-8.32813 z m 100.27148,0 14.42188,8.32813 -14.42188,8.32617 z m 186.75196,0 v 16.6543 l -14.42188,-8.32617 z m 100.27148,0 14.42188,8.32617 -14.42188,8.32813 z m 186.75391,0 v 16.6543 l -14.42383,-8.32813 z m 100.26953,0 14.42188,8.32617 -14.42188,8.32813 z M 39.041016,769.58594 h 16.652343 l -8.326171,14.42187 z m 42.634765,0 h 16.654297 l -8.326172,14.42187 z m 201.753909,0 h 16.65234 l -8.32617,14.42187 z m 42.63476,0 h 16.65235 l -8.32618,14.42187 z m 42.63672,0 h 16.65235 l -8.32618,14.42187 z m 201.75195,0 h 16.6543 l -8.32812,14.42187 z m 42.63477,0 h 16.6543 l -8.32813,14.42187 z m 42.63672,0 h 16.65234 l -8.32617,14.42187 z m 201.75391,0 h 16.65234 l -8.32617,14.42187 z m 42.63476,0 h 16.65234 l -8.32617,14.42187 z m -786.04687,2.74414 23.93164,13.81836 -13.81641,23.93164 -23.93359,-13.81641 z m 153.62695,0 13.81641,23.93359 -23.93165,13.81836 -13.81835,-23.93359 z m 133.39648,0 23.93164,13.81836 -13.8164,23.93164 -23.9336,-13.81641 z m 287.02344,0 23.9336,13.81836 -13.81641,23.93359 -23.93555,-13.81836 z m 153.62891,0 13.8164,23.93359 -23.93359,13.81641 -13.81641,-23.93164 z m -287.02539,0.002 13.8164,23.93164 -23.93164,13.81836 -13.8164,-23.93359 z m -528.667972,4.75391 8.328125,14.42187 H 17.722656 Z m 42.636719,0 8.326172,14.42187 H 60.357422 Z m 244.388673,0 8.32617,14.42187 h -16.6543 z m 42.63476,0 8.32813,14.42187 h -16.65625 z m 244.38868,0 8.32617,14.42187 h -16.6543 z m 42.63476,0 8.32813,14.42187 h -16.6543 z m 244.38867,0 8.32813,14.42187 h -16.6543 z m 42.63672,0 8.32617,14.42187 h -16.65429 z m -768.52343,13.8164 h 16.65429 l -8.32812,14.42383 z m 42.63476,0 h 16.6543 l -8.32617,14.42383 z m 244.38867,0 h 16.6543 l -8.32617,14.42383 z m 42.63672,0 h 16.6543 l -8.32813,14.42383 z m 244.38672,0 h 16.6543 l -8.32617,14.42383 z m 42.63672,0 h 16.6543 l -8.32618,14.42383 z m -629.67383,7.5 8.32617,14.42383 h -16.65429 z m 42.63477,0 8.32812,14.42383 h -16.65625 z m 42.63671,0 8.32618,14.42383 h -16.6543 z m 201.75196,0 8.32812,14.42383 h -16.65625 z m 42.63476,0 8.32813,14.42383 h -16.65625 z m 42.63672,0 8.32617,14.42383 h -16.65429 z m 244.38867,0 8.32813,14.42383 h -16.65625 z m -42.63476,0.002 8.32617,14.42187 h -16.6543 z m 85.26953,0 8.32617,14.42187 H 799.23633 Z M 54.867188,806.5079 h 27.636718 v 27.63672 H 54.867188 Z m 244.388672,0 h 27.63476 v 27.63672 h -27.63476 z m 42.63476,0 h 27.63672 v 27.63672 h -27.63672 z m 244.38868,0 h 27.63476 v 27.63672 H 586.2793 Z m 42.63476,0 h 27.63672 v 27.63672 h -27.63672 z m 244.39063,0 h 27.63476 v 27.63672 h -27.63476 z m -775.800784,5.49024 14.421874,8.32812 -14.421874,8.32813 z m 186.751954,0 v 16.65625 l -14.42383,-8.32813 z m 100.27148,0 14.42188,8.32812 -14.42188,8.32813 z m 186.75196,0 v 16.65625 l -14.42383,-8.32813 z m 100.27148,0 14.42383,8.32812 -14.42383,8.32813 z m 186.75391,0 v 16.65625 l -14.42578,-8.32813 z m -718.38867,15.82812 h 16.65625 L 148.24414,842.25 Z m 42.63671,0 h 16.6543 l -8.32812,14.42188 z m 42.63477,0 h 16.6543 L 233.51562,842.25 Z m 201.75391,0 h 16.65429 l -8.32812,14.42188 z m 42.63476,0 h 16.6543 l -8.32617,14.42188 z m 42.63477,0 h 16.65429 L 520.53906,842.25 Z m 201.7539,0 h 16.6543 l -8.32617,14.42188 z m 42.63477,0 h 16.6543 l -8.32813,14.42188 z m 42.63477,0 h 16.65624 L 807.5625,842.25 Z m -675.05274,2.74414 13.81641,23.9336 -23.9336,13.81836 -13.8164,-23.9336 z m 133.39648,0 23.93165,13.81836 -13.81641,23.9336 -23.93359,-13.81836 z m 153.62696,0 13.8164,23.9336 -23.93164,13.8164 -13.8164,-23.93164 z m 133.39648,0 23.93164,13.81836 -13.8164,23.93164 -23.9336,-13.8164 z m 153.62891,0 13.81836,23.9336 -23.93555,13.8164 -13.8164,-23.93164 z m 133.39453,0.002 23.93359,13.81835 -13.8164,23.93165 -23.9336,-13.81836 z m -662.06445,4.7539 8.32812,14.42188 h -16.65429 z m 42.63476,0 8.32813,14.42188 h -16.6543 z m 244.38867,0 8.32813,14.42188 h -16.6543 z m 42.63672,0 8.32618,14.42188 h -16.6543 z m 244.38868,0 8.32812,14.42188 h -16.65625 z m 42.63671,0 8.32618,14.42188 h -16.6543 z M 17.722656,849.14453 h 16.654297 l -8.328125,14.42188 z m 42.634766,0 h 16.65625 l -8.328125,14.42383 z m 244.388668,0 h 16.6543 l -8.32617,14.42188 z m 42.63672,0 h 16.65235 l -8.32618,14.42188 z m 244.38672,0 h 16.6543 l -8.32617,14.42188 z m 42.63477,0 h 16.65625 l -8.32813,14.42383 z m 244.39062,0 h 16.6543 l -8.32813,14.42188 z m 42.63477,0 h 16.65429 l -8.32617,14.42188 z m -874.062502,7.5 8.326171,14.42188 H 39.041016 Z m 42.636718,0 8.326172,14.42188 H 81.675781 Z m 201.751954,0 8.32812,14.42188 h -16.65429 z m 42.63476,0 8.32813,14.42188 h -16.6543 z m 42.63672,0 8.32618,14.42188 h -16.6543 z m 201.75196,0 8.32812,14.42188 h -16.6543 z m 42.63476,0 8.32813,14.42188 h -16.6543 z m 42.63672,0 8.32617,14.42188 h -16.65234 z m 201.75391,0 8.32617,14.42188 h -16.6543 z m 42.63476,0 8.32617,14.42188 h -16.65429 z m -752.69531,8.10352 h 27.63477 v 27.63672 h -27.63477 z m 42.63477,0 h 27.63671 v 27.63672 h -27.63671 z m 244.38867,0 h 27.63476 v 27.63672 h -27.63476 z m 42.63476,0 h 27.63672 v 27.63672 h -27.63672 z m 244.39063,0 h 27.63476 v 27.63672 h -27.63476 z m 42.63476,0 h 27.63477 v 27.63672 h -27.63477 z m -631.68359,5.49023 v 16.65625 l -14.42383,-8.32812 z m 287.02344,0 v 16.65625 l -14.42383,-8.32812 z m 287.02539,0 v 16.65625 l -14.42578,-8.32812 z m 100.26953,0 14.42383,8.32813 -14.42383,8.32812 z m -574.04688,0.002 14.42188,8.32618 -14.42188,8.32812 z m 287.02344,0 14.42188,8.32618 -14.42188,8.32812 z M 39.039062,886.06641 h 16.65625 l -8.328124,14.42382 z m 42.636719,0 h 16.654297 l -8.326172,14.42578 z m 201.751949,0 h 16.65625 l -8.32812,14.42382 z m 42.63672,0 h 16.6543 l -8.32813,14.42382 z m 42.63477,0 h 16.6543 l -8.32618,14.42382 z m 201.7539,0 h 16.6543 l -8.32812,14.42382 z m 42.63282,0 h 16.65625 l -8.32813,14.42382 z m 42.63672,0 h 16.65429 l -8.32617,14.42382 z m 201.7539,0 h 16.65625 l -8.32812,14.42382 z m 42.63477,0 h 16.65429 l -8.32617,14.42382 z m -58.36914,2.74414 13.8164,23.93554 -23.93359,13.81641 -13.81641,-23.93359 z m -727.67578,0.002 23.93164,13.81836 -13.81641,23.93164 -23.93359,-13.81641 z m 153.62695,0 13.81641,23.93359 -23.93165,13.81836 -13.81835,-23.93554 z m 133.39648,0 23.93164,13.81836 -13.8164,23.93164 -23.9336,-13.81641 z m 153.62696,0 13.8164,23.93359 -23.93164,13.81836 -13.81836,-23.93359 z m 133.39648,0 23.9336,13.81836 -13.81641,23.93359 -23.93359,-13.81836 z m -662.064452,4.75391 8.328125,14.42382 h -16.65625 z m 42.636719,0 8.326172,14.42382 H 60.357422 Z m 244.388673,0 8.32617,14.42382 h -16.6543 z m 42.63476,0 8.32813,14.42382 h -16.65625 z m 244.38672,0 8.32813,14.42382 h -16.6543 z m 42.63672,0 8.32813,14.42382 h -16.6543 z m 244.39063,0 8.32617,14.42382 h -16.6543 z m 42.63476,0 8.32617,14.42382 h -16.65429 z m -768.52343,13.81836 h 16.65429 l -8.32812,14.42382 z m 42.63476,0 h 16.6543 l -8.32617,14.42382 z m 244.38867,0 h 16.6543 l -8.32617,14.42382 z m 42.63672,0 h 16.6543 l -8.32813,14.42382 z m 244.38672,0 h 16.6543 l -8.32617,14.42382 z m 42.63672,0 h 16.6543 l -8.32618,14.42382 z m -629.67383,7.5 8.32617,14.42382 h -16.65429 z m 42.63477,0 8.32812,14.42382 h -16.65625 z m 42.63671,0 8.32618,14.42382 h -16.6543 z m 201.75196,0 8.32812,14.42382 h -16.65625 z m 42.63476,0 8.32813,14.42382 h -16.65625 z m 42.63672,0 8.32617,14.42382 h -16.65429 z m 244.38867,0 8.32813,14.42382 h -16.65625 z m -42.63476,0.002 8.32617,14.42187 h -16.6543 z m 85.26953,0 8.32617,14.42187 h -16.65234 z m -752.695312,8.10351 h 27.636718 v 27.63672 H 54.867188 Z m 244.388672,0 h 27.63476 v 27.63672 h -27.63476 z m 42.63476,0 h 27.63672 v 27.63672 h -27.63672 z m 244.38868,0 h 27.63476 v 27.63672 H 586.2793 Z m 42.63476,0 h 27.63672 v 27.63672 h -27.63672 z m 244.39063,0 h 27.63476 v 27.63672 h -27.63476 z m -775.800784,5.49024 14.421874,8.32812 -14.421874,8.32813 z m 186.751954,0 v 16.65625 l -14.42383,-8.32813 z m 100.27148,0 14.42188,8.32812 -14.42188,8.32813 z m 186.75196,0 v 16.65625 l -14.42383,-8.32813 z m 100.27148,0 14.42383,8.32812 -14.42383,8.32813 z m 186.75391,0.002 v 16.6543 l -14.42383,-8.32813 z m -718.38867,15.82617 h 16.65429 l -8.32617,14.42383 z m 42.63671,0 h 16.6543 l -8.32812,14.42383 z m 42.63477,0 h 16.6543 l -8.32618,14.42383 z m 201.75391,0 h 16.65429 l -8.32812,14.42383 z m 42.63476,0 h 16.6543 l -8.32813,14.42383 z m 42.63477,0 h 16.65429 l -8.32617,14.42383 z m 201.7539,0 h 16.6543 l -8.32812,14.42188 z m 42.63477,0 h 16.6543 l -8.32813,14.42383 z m 42.63672,0 h 16.65429 l -8.32812,14.42383 z m -675.05469,2.74414 13.81641,23.93555 -23.9336,13.81641 -13.8164,-23.9336 z m 133.39648,0 23.93165,13.81836 -13.81641,23.9336 -23.93359,-13.81836 z m 153.62696,0 13.81836,23.9336 -23.9336,13.81836 -13.8164,-23.9336 z m 133.39648,0 23.93164,13.81836 -13.8164,23.9336 -23.9336,-13.81836 z m 153.62696,0 13.81836,23.9336 -23.9336,13.81836 -13.8164,-23.9336 z m 133.39648,0.002 23.93359,13.81836 -13.81836,23.93164 -23.93164,-13.81641 z m -662.0625,4.7539 8.32617,14.42383 h -16.65429 z m 42.63477,0 8.32812,14.42383 h -16.65625 z m 244.38867,0 8.32617,14.42383 h -16.6543 z m 42.63476,0 8.32813,14.42383 h -16.6543 z m 244.38868,0 8.32617,14.42383 H 735.2832 Z m 42.63671,0 8.32618,14.42383 h -16.6543 z M 60.357422,965.62695 h 16.65625 l -8.328125,14.42188 z m 244.388668,0 h 16.6543 l -8.32617,14.42188 z m 42.63672,0 h 16.65235 l -8.32618,14.41993 z m 244.38672,0 h 16.6543 l -8.32617,14.42188 z m 42.63477,0 h 16.65625 l -8.32813,14.42188 z m 244.39062,0 h 16.6543 l -8.32617,14.42188 z"
     id="path835" />
</svg>
