<?xml version="1.0" encoding="UTF-8" standalone="no"?>
<svg
   xmlns:dc="http://purl.org/dc/elements/1.1/"
   xmlns:cc="http://creativecommons.org/ns#"
   xmlns:rdf="http://www.w3.org/1999/02/22-rdf-syntax-ns#"
   xmlns:svg="http://www.w3.org/2000/svg"
   xmlns="http://www.w3.org/2000/svg"
   xmlns:sodipodi="http://sodipodi.sourceforge.net/DTD/sodipodi-0.dtd"
   xmlns:inkscape="http://www.inkscape.org/namespaces/inkscape"
   inkscape:version="1.0.1 (3bc2e813f5, 2020-09-07)"
   sodipodi:docname="4-uniform_142.svg"
   id="c:\kuniform\4u\4-uniform_142.svg"
   height="999.99994"
   width="988.8353"
   version="1.0">
  <style
     id="style2" />
  <metadata
     id="metadata6821">
    <rdf:RDF>
      <cc:Work
         rdf:about="">
        <dc:format>image/svg+xml</dc:format>
        <dc:type
           rdf:resource="http://purl.org/dc/dcmitype/StillImage" />
        <dc:title />
      </cc:Work>
    </rdf:RDF>
  </metadata>
  <defs
     id="defs6819" />
  <sodipodi:namedview
     inkscape:current-layer="c:\kuniform\4u\4-uniform_142.svg"
     inkscape:window-maximized="1"
     inkscape:window-y="-9"
     inkscape:window-x="-9"
     inkscape:cy="508.98847"
     inkscape:cx="376.96586"
     inkscape:zoom="0.74398535"
     showgrid="false"
     id="namedview6817"
     inkscape:window-height="1001"
     inkscape:window-width="1920"
     inkscape:pageshadow="2"
     inkscape:pageopacity="0"
     guidetolerance="10"
     gridtolerance="10"
     objecttolerance="10"
     borderopacity="1"
     inkscape:document-rotation="0"
     bordercolor="#666666"
     pagecolor="#ffffff" />
  <!-- X Coordinate transform: fx(x)=(x+85.28635)*0.8541882-->
  <!-- Y Coordinate transform: fy(y)=(1085.3511-y)*0.8541882 -->
  <path
     style="color:#000000;font-style:normal;font-variant:normal;font-weight:normal;font-stretch:normal;font-size:medium;line-height:normal;font-family:sans-serif;font-variant-ligatures:normal;font-variant-position:normal;font-variant-caps:normal;font-variant-numeric:normal;font-variant-alternates:normal;font-variant-east-asian:normal;font-feature-settings:normal;font-variation-settings:normal;text-indent:0;text-align:start;text-decoration:none;text-decoration-line:none;text-decoration-style:solid;text-decoration-color:#000000;letter-spacing:normal;word-spacing:normal;text-transform:none;writing-mode:lr-tb;direction:ltr;text-orientation:mixed;dominant-baseline:auto;baseline-shift:baseline;text-anchor:start;white-space:normal;shape-padding:0;shape-margin:0;inline-size:0;clip-rule:nonzero;display:inline;overflow:visible;visibility:visible;isolation:auto;mix-blend-mode:normal;color-interpolation:sRGB;color-interpolation-filters:linearRGB;solid-color:#000000;solid-opacity:1;vector-effect:none;fill:#000000;fill-opacity:1;fill-rule:nonzero;stroke:none;stroke-width:14;stroke-linecap:butt;stroke-linejoin:miter;stroke-miterlimit:4;stroke-dasharray:none;stroke-dashoffset:0;stroke-opacity:1;color-rendering:auto;image-rendering:auto;shape-rendering:auto;text-rendering:auto;enable-background:accumulate;stop-color:#000000"
     d="M 339.87695,0 334.92773,4.9492188 328.16602,3.1386719 320.25,32.681641 298.62305,11.054688 l -4.94922,4.949218 -6.76172,-1.810547 -7.91602,29.542969 -21.62695,-21.626953 -4.94922,4.949219 -6.76172,-1.810547 -9.24218,34.492187 -34.49219,-9.242187 -41.25391,-11.054688 -41.2539,-11.054687 -43.066411,-11.539063 -43.066406,11.539063 1.8125,6.763672 -6.761719,1.810547 9.242188,34.492187 -34.4921876,9.242188 1.8105468,6.761718 -4.9492187,4.949219 28.8730465,28.874997 8.757813,32.68164 -34.4921876,9.24024 1.8105468,6.76172 -4.9492187,4.94922 28.8730465,28.87304 8.757813,32.6836 -34.4921876,9.24023 1.8105468,6.76172 -4.9492187,4.94922 28.8730465,28.87305 8.757813,32.68359 -34.4921876,9.24023 1.8125,6.76172 -4.9511719,4.95117 28.8730465,28.875 8.757813,32.67969 -34.4921876,9.24219 1.8105468,6.76172 -4.9492187,4.94922 28.8730465,28.875 8.757813,32.67968 -34.4921876,9.24219 1.8105468,6.76172 -4.9492187,4.94922 28.8730465,28.87305 8.757813,32.68359 -34.4921876,9.24023 1.8105468,6.76172 -4.9492187,4.94922 28.8730465,28.87305 8.757813,32.68359 -34.4921876,9.24024 1.8105468,6.76171 -4.9492187,4.94922 28.8730465,28.87696 8.757813,32.67968 -34.4921876,9.24219 1.8105468,6.76172 -4.9492187,4.94922 28.8730465,28.87305 8.757813,32.68164 -34.4921876,9.24218 1.8105468,6.76172 -4.9492187,4.94922 28.8730465,28.875 8.757813,32.67969 -34.4921876,9.24219 1.8105468,6.76172 -4.9492187,4.94921 33.0585935,33.0586 38.394532,-10.28906 9.242187,34.49218 6.761719,-1.8125 4.951172,4.95117 21.626954,-21.625 7.91601,29.54102 6.76172,-1.81055 4.94922,4.94922 21.62696,-21.62695 7.91601,29.54297 6.76172,-1.8125 4.94922,4.94922 27.34179,-27.3418 39.16211,10.49414 43.06641,-11.53906 41.25391,-11.05469 37.34961,-10.00781 7.80859,-2.0918 30.58789,-8.19531 9.24219,34.49023 6.76172,-1.81054 4.94922,4.94921 21.6289,-21.62695 7.91602,29.54297 6.76172,-1.81055 4.94921,4.94922 21.62696,-21.6289 7.91601,29.54492 6.76172,-1.8125 4.94922,4.94922 27.3418,-27.3418 39.16211,10.49414 39.16211,-10.49414 7.80859,-2.0918 37.34961,-10.00781 37.34961,-10.00781 3.9043,-1.04688 34.49218,-9.24023 9.24219,34.49023 6.76172,-1.81054 4.94922,4.94921 21.62891,-21.62695 7.91601,29.54297 6.76172,-1.81055 4.94922,4.94922 21.62695,-21.6289 7.91602,29.54492 6.76172,-1.8125 4.94921,4.94922 27.3418,-27.3418 39.16211,10.49414 39.16211,-10.49414 7.80859,-2.0918 37.34961,-10.00781 -1.81054,-6.76172 4.94921,-4.94922 -28.875,-28.875 -8.75585,-32.67968 34.49218,-9.24219 -1.81054,-6.76172 4.94921,-4.94922 -28.875,-28.875 -8.75585,-32.68164 34.49218,-9.24023 -1.81054,-6.76172 4.94921,-4.94922 -28.875,-28.875 -8.75585,-32.68164 34.49218,-9.24024 -1.81054,-6.76172 4.94921,-4.94921 -28.875,-28.87696 -8.75585,-32.67969 34.49218,-9.24218 -1.81054,-6.76172 4.94921,-4.94922 -28.875,-28.875 -8.75585,-32.67969 34.49218,-9.24219 -1.81054,-6.76171 4.94921,-4.94922 -28.875,-28.875 -8.75585,-32.67969 34.49218,-9.24219 -1.81054,-6.76172 4.94921,-4.94921 -28.875,-28.875 -8.75585,-32.67969 34.49218,-9.24219 -1.81054,-6.76172 4.94921,-4.94922 -28.875,-28.875 -8.75585,-32.68164 34.49218,-9.24219 -1.81054,-6.76171 4.94921,-4.94922 -28.875,-28.875 -8.75585,-32.67969 34.49218,-9.24219 -1.81054,-6.76172 4.94921,-4.94922 -28.875,-28.875 -8.75585,-32.67968 34.49218,-9.24219 -1.81054,-6.76172 4.94921,-4.94922 -28.875,-28.874998 -11.05273,-41.253906 -31.52734,-31.525391 -4.94922,4.949219 -6.76172,-1.810547 -9.24219,34.492187 L 861.99023,50.498047 820.73633,39.443359 779.48242,28.388672 736.41406,16.849609 697.25391,27.34375 669.91016,0 664.96094,4.9492188 658.19922,3.1386719 650.2832,32.681641 628.65625,11.054688 l -4.94922,4.949218 -6.76172,-1.810547 -7.91601,29.542969 -21.62696,-21.626953 -4.94922,4.949219 -6.76171,-1.810547 -9.24219,34.492187 -30.58789,-8.197265 -7.8086,-2.091797 L 490.70312,39.443359 449.44922,28.388672 406.38281,16.849609 367.2207,27.34375 Z m -1.32617,18.472656 13.05469,13.054688 -17.83203,4.777344 z m 330.0332,0 13.05469,13.054688 -17.83203,4.777344 z m -371.2871,11.054688 13.05468,13.054687 -17.83203,4.777344 z m 330.0332,0 13.05469,13.054687 -17.83204,4.777344 z m -555.929689,3.142578 7.429687,27.730469 -27.730469,7.429687 -7.43164,-27.730469 z m 330.033199,0 7.42969,27.730469 -27.73047,7.429687 -7.43164,-27.730469 z m 330.03125,0 7.42969,27.730469 -27.72851,7.429687 -7.43164,-27.730469 z M 86.248047,33.996094 104.08008,38.773438 91.027344,51.828125 Z m 330.033203,0 17.83203,4.777344 -13.05469,13.054687 z m 330.0332,0 17.83203,4.779297 -13.05468,13.052734 z m -490.27148,6.585937 13.05469,13.054688 -17.83204,4.777343 z m 330.0332,0 13.05469,13.054688 -17.83203,4.777343 z m 330.03321,0 13.05468,13.054688 -17.83203,4.777343 z m -555.93165,3.142578 7.43165,27.730469 -27.73243,7.431641 -7.42968,-27.732422 z m 330.03321,0 7.43164,27.728516 -27.73242,7.431641 -7.42969,-27.730469 z m -562.70703,1.326172 17.83203,4.777344 -13.05469,13.054687 z m 330.0332,0 17.83203,4.777344 -13.05469,13.054687 z m 330.0332,0 17.83008,4.777344 -13.05273,13.052734 z m -673.58984,3.623047 4.77734,17.830078 -17.83008,-4.777344 z m 330.0332,0 4.77735,17.830078 -17.83008,-4.777344 z m 330.03321,0 4.77734,17.830078 -17.83203,-4.777344 z m -455.12305,6.103516 7.43164,27.732422 -27.73242,7.429687 -7.42969,-27.732422 z m 330.0332,0 7.43164,27.730468 -27.73242,7.431641 -7.42969,-27.730469 z m -480.19922,1.326172 17.83203,4.777343 -13.05468,13.054688 z m 330.03321,0.002 17.83007,4.777343 -13.05273,13.052735 z m 330.0332,0 17.83203,4.77539 -13.05469,13.054688 z m -673.58984,3.623047 4.77734,17.830078 -17.83008,-4.777344 z m 330.0332,0 4.77734,17.830078 -17.83008,-4.777344 z m 330.0332,0 4.77734,17.830078 -17.83007,-4.777344 z m -537.63086,6.103515 7.43164,27.730469 -27.73242,7.429693 -7.42969,-27.728521 z m 330.0332,0 7.43165,27.730469 -27.73243,7.429693 -7.42968,-27.728521 z m 330.03321,0 7.42969,27.732422 -27.73047,7.42774 -7.42969,-27.728521 z M 210.00977,67.158203 227.8418,71.9375 214.78906,84.990234 Z m 330.03515,0 17.83008,4.779297 -13.05273,13.052734 z m 330.0332,0 17.83008,4.777344 -13.05273,13.052734 z m -343.55664,3.623047 4.77735,17.832031 -17.83203,-4.777343 z m 330.03321,0 4.77734,17.832031 L 843.5,83.835938 Z m -660.06641,0.002 4.7793,17.830078 -17.83203,-4.777343 z M 92.353516,73.923828 120.08398,81.353516 112.6543,109.08594 84.921875,101.6543 Z m 330.033204,0 27.73047,7.429688 -7.42969,27.732424 -27.73242,-7.42969 z m 330.03125,0 27.73242,7.429688 -7.42969,27.732424 -27.73242,-7.43164 z M 77.503906,75.25 72.724609,93.080078 59.671875,80.027344 Z m 330.033204,0 -4.77734,17.832031 -13.05469,-13.054687 z m 330.0332,0 -4.77929,17.832031 -13.05274,-13.052734 z m -499.82812,6.585938 4.77929,17.832031 -17.83203,-4.777344 z m 330.0332,0 4.7793,17.832031 -17.83203,-4.777344 z m 330.0332,0 4.77735,17.832031 -17.83203,-4.777344 z m -764.20117,3.142578 27.73242,7.43164 -7.43164,27.730464 -27.73047,-7.43164 z m 330.0332,0 27.73243,7.43164 -7.43164,27.730464 -27.73047,-7.43164 z m 330.03321,0 27.73047,7.429687 -7.42969,27.730467 -27.73242,-7.42969 z M 36.25,86.304688 31.472656,104.13672 18.417969,91.082031 Z m 330.0332,0 -4.77929,17.832032 -13.05274,-13.054689 z m 330.03321,0 -4.7793,17.832032 -13.05273,-13.054689 z m -646.544926,3.623046 13.054688,13.054686 -17.832031,4.77735 z m 330.033206,0 13.05469,13.054686 -17.83204,4.77735 z m 330.0332,0 13.05273,13.052736 -17.83007,4.7793 z m -534.97656,6.105469 27.73242,7.431637 -7.43164,27.72852 -27.73047,-7.42969 z m 330.0332,0 27.73047,7.429687 -7.42969,27.73047 -27.73047,-7.42969 z m 330.0332,0 27.73047,7.429687 -7.42968,27.73047 -27.73047,-7.42969 z M 325.02734,97.359375 320.25,115.18945 307.19727,102.13672 Z m 330.03516,0 -4.7793,17.830075 -13.05273,-13.05273 z m 13.52148,3.621095 13.05469,13.05664 -17.83203,4.77734 z m -330.0332,0.002 13.05469,13.05469 -17.83203,4.77734 z m -122.43555,6.10547 27.73243,7.42969 -7.43164,27.73047 -27.73047,-7.42969 z m 330.03321,0 27.73242,7.42969 -7.43164,27.73047 -27.73047,-7.42969 z m 330.0332,0 27.73047,7.42969 -7.42969,27.73047 -27.73242,-7.43164 z m -262.37305,1.32422 -4.77929,17.83203 -13.05274,-13.05273 z m 330.03125,0 -4.77734,17.83008 -13.05273,-13.05274 z m -660.0664,0.002 -4.77735,17.83008 -13.05273,-13.05273 z m 13.52344,3.6211 13.05468,13.05468 -17.83203,4.77735 z m 330.0332,0 13.05469,13.05468 -17.83204,4.77735 z m 330.0332,0 13.05469,13.05468 -17.83203,4.77735 z m -885.964842,3.14257 7.43164,27.73047 -27.730469,7.43164 -7.43164,-27.73242 z m 330.033202,0 7.43164,27.73047 -27.73047,7.43164 -7.43164,-27.73242 z m 330.0332,0 7.42969,27.73047 -27.72851,7.43164 -7.43164,-27.73242 z m -645.216793,1.32618 17.832033,4.77734 -13.052736,13.05469 z m 330.033203,0 17.83203,4.77734 -13.05273,13.05469 z m 330.0332,0 17.83203,4.77929 -13.05468,13.05274 z m -490.27148,6.58593 13.05469,13.05469 -17.83204,4.77735 z m 330.0332,0 13.05469,13.05469 -17.83203,4.77735 z m 330.03321,0 13.05468,13.05469 -17.83203,4.77735 z m -555.93165,3.14258 7.43165,27.73242 -27.73243,7.42969 -7.42968,-27.73242 z m 330.03321,0 7.43164,27.73047 -27.73242,7.42969 -7.42969,-27.73047 z m -562.70703,1.32617 17.83203,4.77735 -13.05469,13.05468 z m 330.0332,0 17.83203,4.77735 -13.05469,13.05273 z m 330.0332,0 17.83008,4.77735 -13.05273,13.05273 z m -673.58984,3.62305 4.7793,17.83203 -17.83399,-4.77734 z m 330.0332,0 4.7793,17.83203 -17.83399,-4.77929 z m 330.03321,0 4.77734,17.83203 -17.83203,-4.77734 z m -455.12305,6.10547 7.43164,27.73047 -27.73242,7.42969 -7.42969,-27.73047 z m 330.0332,0 7.43164,27.72851 -27.73242,7.43165 -7.42969,-27.73047 z m -480.19922,1.32617 17.83008,4.77734 -13.05273,13.05469 z m 330.03321,0 17.83007,4.77734 -13.05273,13.05469 z m 330.0332,0 17.83008,4.77734 -13.05274,13.05274 z m -343.55664,3.6211 4.77734,17.83398 -17.83203,-4.77734 z m 330.0332,0 4.77734,17.83398 -17.83203,-4.77734 z m -660.0664,0.002 4.77929,17.83203 -17.83398,-4.77734 z m 122.43554,6.10547 7.43164,27.72851 -27.73242,7.43164 -7.42969,-27.73047 z m 330.0332,0 7.43165,27.72851 -27.73243,7.43164 -7.42968,-27.73047 z m 330.03321,0 7.42969,27.72851 -27.73047,7.43164 -7.42969,-27.73047 z m -727.72461,1.32617 17.83008,4.77734 -13.05274,13.05274 z m 330.0332,0 17.83008,4.77734 -13.05273,13.05274 z m 330.0332,0 17.83008,4.77734 -13.05273,13.05274 z m -673.58984,3.62109 4.7793,17.83203 -17.83203,-4.77734 z m 660.06641,0 4.77734,17.83203 L 843.5,166.34375 Z m -330.03321,0.002 4.77735,17.83007 -17.83203,-4.77734 z m -434.167964,3.14062 27.732424,7.43164 -7.43164,27.73047 -27.732425,-7.43164 z m 330.033204,0 27.73047,7.42969 -7.42969,27.73242 -27.73242,-7.43164 z m 330.03125,0 27.73242,7.42969 -7.42969,27.73242 -27.73242,-7.43164 z M 77.503906,157.758 72.724609,175.59003 59.671875,162.53535 Z m 330.033204,0 -4.7793,17.83203 -13.05273,-13.05273 z m 330.0332,0 -4.77929,17.83203 -13.05274,-13.05273 z m -499.82812,6.58594 4.77929,17.83203 -17.83203,-4.77734 z m 330.0332,0 4.7793,17.83203 -17.83203,-4.77734 z m 330.0332,0 4.77735,17.83203 -17.83203,-4.77734 z m -764.20117,3.14258 27.73242,7.43164 -7.43164,27.73047 -27.73047,-7.42969 z m 330.0332,0 27.73047,7.42969 -7.42968,27.73046 -27.73047,-7.42773 z m 330.03321,0 27.73047,7.42969 -7.42969,27.73046 -27.73242,-7.42968 z M 36.25,168.8125 31.470703,186.64258 18.417969,173.58984 Z m 330.0332,0 -4.77929,17.83203 -13.05274,-13.05469 z m 330.03321,0 -4.7793,17.83203 -13.05273,-13.05469 z m -646.542972,3.625 13.052734,13.05273 -17.832031,4.77735 z m 330.033202,0 13.05274,13.05273 -17.83204,4.77735 z m 330.0332,0 13.05078,13.05078 -17.83007,4.7793 z m -534.97851,6.10352 27.73242,7.43164 -7.43164,27.72851 -27.73047,-7.42969 z m 330.0332,0 27.73047,7.42968 -7.42969,27.73047 -27.73047,-7.42969 z m 330.0332,0 27.73047,7.42968 -7.42968,27.73047 -27.73047,-7.42969 z m -509.90039,1.32617 -4.77734,17.83203 -13.05273,-13.05469 z m 330.03516,0 -4.77734,17.83203 -13.05469,-13.05469 z m 13.52148,3.62109 13.05469,13.05664 -17.83203,4.77735 z m -330.0332,0.002 13.05469,13.05469 -17.83203,4.77735 z m -122.43555,6.10547 27.73243,7.42969 -7.43164,27.73047 -27.73047,-7.42969 z m 330.03321,0 27.73242,7.42969 -7.43164,27.73047 -27.73047,-7.42969 z m 330.0332,0 27.73047,7.42969 -7.42969,27.73047 -27.73242,-7.43164 z m -262.37305,1.32422 -4.77929,17.83203 -13.05274,-13.05273 z m 330.03125,0 -4.77734,17.83203 -13.05469,-13.05468 z m -660.0664,0.002 -4.77735,17.83007 -13.05273,-13.05273 z m 13.52344,3.62109 13.05468,13.05469 -17.83203,4.77734 z m 330.0332,0 13.05469,13.05469 -17.83204,4.77734 z m 330.0332,0 13.05469,13.05469 -17.83203,4.77734 z m -885.964842,3.14258 7.43164,27.73047 -27.730469,7.43164 -7.43164,-27.73047 z m 330.033202,0 7.43164,27.73047 -27.73047,7.43164 -7.43164,-27.73243 z m 330.0332,0 7.42969,27.73242 -27.72851,7.42969 -7.43164,-27.73243 z m -645.216793,1.32617 17.833983,4.77734 -13.054686,13.05469 z m 330.033203,0 17.83398,4.77734 -13.05468,13.05469 z m 330.0332,0 17.83203,4.7793 -13.05273,13.05273 z m -490.27148,6.58594 13.05469,13.05468 -17.83204,4.77735 z m 330.0332,0 13.05469,13.05468 -17.83203,4.77735 z m 330.03321,0 13.05468,13.05468 -17.83203,4.77735 z m -555.93165,3.14257 7.43165,27.73243 -27.73243,7.42968 -7.42968,-27.73242 z m 330.03321,0 7.43164,27.73047 -27.73242,7.42969 -7.42969,-27.73047 z m -562.70703,1.32618 17.83203,4.77734 -13.05469,13.05469 z m 330.0332,0 17.83203,4.77734 -13.05469,13.05469 z m 330.0332,0 17.83008,4.77734 -13.05273,13.05273 z m -673.58984,3.62304 4.77734,17.83203 -17.83203,-4.77734 z m 330.0332,0 4.77735,17.83203 -17.83204,-4.77929 z m 330.03321,0 4.77734,17.83203 -17.83203,-4.77734 z m -455.12305,6.10547 7.43164,27.73047 -27.73047,7.42969 -7.43164,-27.73047 z m 330.0332,0 7.43164,27.72852 -27.73242,7.43164 -7.42969,-27.73047 z m -480.19922,1.32617 17.83203,4.77735 -13.05468,13.05468 z m 330.03321,0 17.83203,4.77735 -13.05469,13.05468 z m 330.0332,0 17.83203,4.77735 -13.05469,13.05273 z m -343.55664,3.6211 4.77734,17.83398 -17.83203,-4.77734 z m 330.0332,0 4.77734,17.83398 -17.83203,-4.77734 z m -660.0664,0.002 4.77929,17.83203 -17.83398,-4.77734 z m 122.43554,6.10547 7.43164,27.72851 -27.73242,7.43165 -7.42969,-27.73047 z m 330.0332,0 7.43165,27.72851 -27.73243,7.43165 -7.42968,-27.73047 z m 330.03321,0 7.42969,27.72851 -27.73047,7.43165 -7.42969,-27.73047 z m -727.72461,1.32617 17.83008,4.77734 -13.05274,13.05274 z m 330.0332,0 17.83008,4.77734 -13.05273,13.05469 z m 330.0332,0 17.83008,4.77734 -13.05273,13.05274 z m -13.52343,3.6211 4.77734,17.83203 L 843.5,248.85156 Z m -660.06641,0.002 4.77734,17.83008 -17.83007,-4.77735 z m 330.0332,0 4.77735,17.83008 -17.83203,-4.77735 z m -434.167964,3.14062 27.732424,7.43164 -7.43164,27.73047 -27.730472,-7.42968 z m 330.033204,0 27.73047,7.42969 -7.42969,27.73242 -27.73242,-7.42968 z m 330.03125,0 27.73242,7.42969 -7.42969,27.73242 -27.73242,-7.42968 z m -674.914064,1.32617 -4.777344,17.83204 -13.054687,-13.05469 z m 330.033204,0 -4.7793,17.83204 -13.05273,-13.05274 z m 330.0332,0 -4.77929,17.83204 -13.05274,-13.05274 z m -499.82812,6.58594 4.77929,17.83203 -17.83203,-4.77734 z m 330.0332,0 4.7793,17.83203 -17.83203,-4.77734 z m 330.0332,0 4.77735,17.83203 -17.83203,-4.77734 z m -764.20117,3.14258 27.73242,7.43164 -7.43164,27.73047 -27.73047,-7.42969 z m 330.0332,0 27.73047,7.42969 -7.42968,27.73047 -27.73047,-7.42774 z m 330.03321,0 27.73047,7.42969 -7.42969,27.73047 -27.73242,-7.42969 z M 36.25,251.32031 31.472656,269.15234 18.417969,256.09766 Z m 330.0332,0 -4.77929,17.83203 -13.05274,-13.05468 z m 330.03321,0 -4.7793,17.83203 -13.05273,-13.05468 z m -646.542972,3.625 13.052734,13.05274 -17.832031,4.77734 z m 330.033202,0 13.05274,13.05274 -17.83204,4.77734 z m 330.0332,0 13.05274,13.05274 -17.83203,4.77734 z m -534.97851,6.10352 27.73242,7.43164 -7.43164,27.72851 -27.73047,-7.42968 z m 330.0332,0 27.73047,7.42969 -7.42969,27.73046 -27.73047,-7.42968 z m 330.0332,0 27.73047,7.42969 -7.42968,27.73046 -27.73243,-7.43164 z M 325.0293,262.375 320.25,280.20703 307.19727,267.15234 Z m 330.0332,0 -4.77734,17.83203 -13.05469,-13.05469 z m 13.52148,3.62109 13.05469,13.05664 -17.83203,4.77735 z m -330.0332,0.002 13.05469,13.05468 -17.83203,4.77735 z m -122.43555,6.10547 27.73243,7.42968 -7.43164,27.73047 -27.73047,-7.42969 z m 330.03321,0 27.73242,7.42968 -7.43164,27.73047 -27.73047,-7.42969 z m 330.0332,0 27.73047,7.42968 -7.42969,27.73047 -27.73242,-7.43164 z m -262.37305,1.32421 -4.77929,17.83204 -13.05274,-13.05274 z m 330.03125,0 -4.77734,17.83204 -13.05469,-13.05469 z m -660.06445,0.002 -4.7793,17.83008 -13.05273,-13.05274 z m 343.55469,3.62109 13.05469,13.05469 -17.83204,4.77734 z m 330.0332,0 13.05274,13.05469 -17.83008,4.77734 z m -660.06445,0.002 13.05273,13.05274 -17.83203,4.77734 z m -225.900392,3.14063 7.43164,27.73242 -27.730469,7.42969 -7.43164,-27.73047 z m 330.033202,0 7.43164,27.73242 -27.73047,7.42969 -7.43164,-27.73242 z m 330.0332,0 7.42969,27.73242 -27.72851,7.42969 -7.43164,-27.73242 z m -645.216793,1.32617 17.833983,4.77735 -13.054686,13.05468 z m 330.033203,0 17.83398,4.77735 -13.05468,13.05468 z m 330.0332,0 17.83203,4.7793 -13.05273,13.05273 z m -490.27148,6.58594 13.05469,13.05469 -17.83204,4.77734 z m 330.0332,0 13.05469,13.05469 -17.83203,4.77734 z m 330.03321,0 13.05468,13.05469 -17.83203,4.77734 z m -555.93165,3.14258 7.43165,27.73242 -27.73243,7.42969 -7.42968,-27.73243 z m 330.03321,0 7.43164,27.73047 -27.73242,7.42968 -7.42969,-27.73047 z m -562.70703,1.32617 17.83203,4.77734 -13.05469,13.05469 z m 330.0332,0 17.83203,4.77734 -13.05469,13.05469 z m 330.0332,0 17.83203,4.77734 -13.05468,13.05469 z m -673.58984,3.62305 4.77734,17.83398 -17.83203,-4.7793 z m 330.0332,0 4.77735,17.83203 -17.83399,-4.77735 z m 330.03321,0 4.77734,17.83203 -17.83203,-4.77735 z m -455.12305,6.10546 7.43164,27.73047 -27.73242,7.43164 -7.42969,-27.73242 z m 330.0332,0 7.43164,27.73047 -27.73242,7.43164 -7.42969,-27.73242 z m -480.19922,1.32618 17.83203,4.77734 -13.05468,13.05469 z m 330.03321,0 17.83203,4.77734 -13.05469,13.05469 z m 330.0332,0 17.83203,4.77734 -13.05469,13.05273 z m -673.58984,3.62304 4.77929,17.83203 -17.83398,-4.77734 z m 330.0332,0 4.77734,17.83203 -17.83203,-4.77734 z m 330.0332,0 4.77734,17.83203 -17.83203,-4.77734 z m -537.63086,6.10547 7.43164,27.73047 -27.73242,7.42969 -7.42969,-27.73047 z m 330.0332,0 7.43165,27.73047 -27.73243,7.42969 -7.42968,-27.73047 z m 330.03321,0 7.42969,27.73047 -27.73047,7.42969 -7.42969,-27.73047 z m -727.72461,1.32422 17.83203,4.7793 -13.05469,13.05273 z m 330.0332,0.002 17.83008,4.77735 -13.05273,13.05468 z m 330.0332,0 17.83008,4.77735 -13.05273,13.05273 z m -673.58984,3.62305 4.77734,17.83203 -17.83007,-4.77929 z m 330.0332,0 4.77735,17.83203 -17.83008,-4.77929 z m 330.03321,0 4.77734,17.83203 -17.83008,-4.77929 z m -764.201174,3.14063 27.732424,7.43164 -7.43164,27.73047 -27.730472,-7.42969 z m 330.033204,0 27.73047,7.43164 -7.42969,27.73047 -27.73242,-7.42969 z m 330.03125,0.002 27.73242,7.42969 -7.42969,27.73047 -27.73242,-7.42969 z m -674.914064,1.32422 -4.777344,17.83398 -13.054687,-13.05469 z m 330.033204,0 -4.7793,17.83398 -13.05469,-13.05469 z m 330.0332,0 -4.77929,17.83398 -13.05274,-13.05469 z m 160.23828,6.58594 4.77735,17.83203 -17.83203,-4.77735 z m -660.0664,0.002 4.77929,17.83008 -17.83203,-4.77735 z m 330.0332,0 4.7793,17.83008 -17.83203,-4.77735 z m 225.89844,3.14062 27.73047,7.42969 -7.42969,27.73242 -27.73242,-7.43164 z m -660.06641,0.002 27.73242,7.42968 -7.43164,27.73047 -27.73047,-7.42968 z m 330.0332,0 27.73047,7.42773 -7.42968,27.73242 -27.73047,-7.42968 z M 36.25,333.82812 31.470703,351.66016 18.417969,338.60742 Z m 330.0332,0 -4.77929,17.83204 -13.05274,-13.05274 z m 330.03321,0 -4.7793,17.83204 -13.05273,-13.05274 z m -646.542972,3.625 13.052734,13.05274 -17.832031,4.7793 z m 330.033202,0 13.05274,13.05274 -17.83204,4.77734 z m 330.0332,0 13.05078,13.05274 -17.83007,4.77734 z m -534.97851,6.10352 27.73242,7.43164 -7.43164,27.73047 -27.73047,-7.42969 z m 330.0332,0 27.73047,7.42969 -7.42969,27.73242 -27.73047,-7.42969 z m 330.0332,0 27.73047,7.42969 -7.42968,27.73242 -27.73243,-7.43164 z m -509.89843,1.32617 -4.7793,17.83203 -13.05469,-13.05468 z m 330.0332,0 -4.7793,17.83203 -13.05468,-13.05468 z m -316.51172,3.62305 13.05469,13.05469 -17.83203,4.77734 z m 330.0332,0 13.05469,13.05469 -17.83398,4.77734 z m -452.46875,6.10547 27.73243,7.42969 -7.43164,27.73242 -27.73047,-7.42969 z m 330.03321,0 27.73242,7.42969 -7.43164,27.73242 -27.73047,-7.42969 z m 330.0332,0 27.73047,7.42969 -7.42969,27.73242 L 868.75,382.3418 Z m -592.40625,1.32617 -4.77734,17.83203 -13.05469,-13.05469 z m 330.0332,0 -4.77929,17.83008 -13.05274,-13.05274 z m 330.03125,0 -4.77734,17.83008 -13.05273,-13.05274 z m -646.54296,3.62305 13.05468,13.05468 -17.83203,4.77735 z m 330.0332,0 13.05469,13.05468 -17.83204,4.77735 z m 330.0332,0 13.05469,13.05468 -17.83203,4.77735 z m -885.964842,3.14257 7.429687,27.73047 -27.728516,7.42969 -7.43164,-27.72851 z m 330.033202,0 7.42969,27.73047 -27.72852,7.42969 -7.43164,-27.73047 z m 330.0332,0 7.42969,27.73047 -27.72851,7.42969 -7.43164,-27.73047 z m -645.216793,1.32618 17.832033,4.77734 -13.054689,13.05469 z m 330.033203,0 17.83203,4.77734 -13.05469,13.05469 z m 330.0332,0 17.83203,4.77929 -13.05468,13.05274 z m -490.27148,6.58398 13.05469,13.05664 -17.83204,4.77735 z m 330.0332,0 13.05469,13.05664 -17.83203,4.77735 z m 330.03321,0 13.05468,13.05664 -17.83203,4.77735 z m -555.93165,3.14453 7.43165,27.73047 -27.73243,7.43164 -7.42968,-27.73242 z m 330.03321,0 7.43164,27.72852 -27.73242,7.43164 -7.42969,-27.73047 z m -562.70703,1.32617 17.83203,4.77735 -13.05469,13.05469 z m 330.0332,0 17.83203,4.77735 -13.05469,13.05469 z m 330.0332,0 17.83008,4.77735 -13.05273,13.05273 z m -13.52343,3.6211 4.77734,17.83398 -17.83203,-4.77929 z m -660.06641,0.002 4.77734,17.83203 -17.83008,-4.77929 z m 330.0332,0 4.77735,17.83008 -17.83008,-4.77734 z m -125.08984,6.10352 7.43164,27.73242 -27.73242,7.42969 -7.42969,-27.73243 z m 330.0332,0 7.43164,27.73047 -27.73242,7.43164 -7.42969,-27.73047 z m -480.19922,1.32617 17.83203,4.77734 -13.05468,13.05664 z m 330.03321,0 17.83203,4.77734 -13.05469,13.05664 z m 330.0332,0.002 17.83203,4.77539 -13.05469,13.05469 z m -673.58984,3.6211 4.77929,17.83203 -17.83398,-4.77735 z m 330.0332,0 4.77734,17.83203 -17.83008,-4.77735 z m 330.0332,0 4.77734,17.83203 -17.83203,-4.77735 z m -537.63086,6.10546 7.43164,27.73047 -27.73242,7.43164 -7.42969,-27.73242 z m 330.0332,0 7.43165,27.73047 -27.73243,7.43164 -7.42968,-27.73242 z m 330.03321,0 7.42969,27.73047 -27.73047,7.43164 -7.42969,-27.73046 z m -727.72461,1.32618 17.83203,4.77734 -13.05469,13.05469 z m 330.0332,0 17.83203,4.77734 -13.05468,13.05469 z m 330.0332,0 17.83008,4.77734 -13.05273,13.05273 z m -13.52343,3.62304 4.77734,17.83203 L 843.5,413.86914 Z m -660.06641,0.002 4.77734,17.83007 -17.83007,-4.77734 z m 330.0332,0 4.77735,17.83007 -17.83203,-4.77734 z m -434.167964,3.14062 27.732424,7.43164 -7.43164,27.72852 -27.732425,-7.42969 z m 330.033204,0 27.73047,7.42969 -7.42969,27.73047 -27.73242,-7.42969 z m 330.03125,0 27.73242,7.42969 -7.42969,27.73047 -27.73242,-7.42969 z M 77.503906,405.2832 72.724609,423.11328 59.671875,410.06055 Z m 330.033204,0 -4.7793,17.83008 -13.05273,-13.05273 z m 330.0332,0 -4.77929,17.83203 -13.05274,-13.05468 z m 160.23828,6.58399 4.77735,17.83398 -17.83203,-4.77734 z m -660.0664,0.002 4.77929,17.83203 -17.83203,-4.77929 z m 330.0332,0 4.7793,17.83203 -17.83399,-4.77734 z m -434.16797,3.14258 27.73242,7.43164 -7.43164,27.72852 -27.73047,-7.42969 z m 330.0332,0 27.73047,7.42969 -7.42968,27.73047 -27.73047,-7.42969 z m 330.03321,0 27.73047,7.42969 -7.42969,27.73047 -27.73242,-7.42969 z M 36.25,416.33789 31.472656,434.16992 18.417969,421.11523 Z m 330.0332,0 -4.77929,17.83203 -13.05274,-13.05469 z m 330.03321,0 -4.7793,17.83203 -13.05273,-13.05469 z m -646.542972,3.62305 13.052734,13.05273 -17.830078,4.77735 z m 330.031252,0 13.05469,13.05273 -17.83204,4.7793 z m 330.0332,0 13.05273,13.05273 -17.83007,4.77735 z m 125.08984,6.10351 27.73047,7.42969 -7.42968,27.73242 -27.73243,-7.43164 z m -660.0664,0.002 27.73242,7.42968 -7.43164,27.73047 -27.73047,-7.42968 z m 330.0332,0 27.73047,7.42968 -7.42969,27.73047 -27.73047,-7.42968 z m 150.16797,1.32421 -4.7793,17.83204 -13.05273,-13.05274 z m -330.03516,0.002 L 320.25,445.22274 307.19727,432.17 Z m 343.55664,3.62109 13.05274,13.05469 -17.83008,4.77734 z m -330.0332,0.002 13.05274,13.05274 -17.83008,4.77734 z m -122.43555,6.10352 27.73243,7.43164 -7.43164,27.73047 -27.73047,-7.42969 z m 330.03321,0 27.73242,7.43164 -7.43164,27.73047 -27.73047,-7.42969 z m 330.0332,0 27.73047,7.43164 -7.42969,27.73047 -27.73242,-7.43164 z m -592.40625,1.32617 -4.7793,17.83203 -13.05273,-13.05273 z m 330.0332,0 -4.77929,17.83203 -13.05274,-13.05273 z m 330.03125,0 -4.77734,17.83008 -13.05273,-13.05078 z m -646.54296,3.62305 13.05468,13.05469 -17.83203,4.77734 z m 330.0332,0 13.05469,13.05469 -17.83204,4.77734 z m 330.0332,0 13.05469,13.05469 -17.83203,4.77734 z m -885.964842,3.14258 7.429687,27.73047 -27.728516,7.42968 -7.43164,-27.73047 z m 330.033202,0 7.43164,27.73047 -27.73047,7.42968 -7.43164,-27.73047 z m 330.0332,0 7.43164,27.73047 -27.73046,7.42968 -7.43164,-27.73047 z m -645.216793,1.32617 17.832033,4.77734 -13.054689,13.05469 z m 330.033203,0 17.83203,4.77734 -13.05273,13.05469 z m 330.0332,0 17.83203,4.7793 -13.05273,13.05273 z m -490.27148,6.58398 13.05469,13.05664 -17.83204,4.77735 z m 330.0332,0 13.05469,13.05664 -17.83203,4.77735 z m 330.03321,0 13.05468,13.05664 -17.83203,4.77735 z m -555.93165,3.14453 7.43165,27.73047 -27.73243,7.43164 -7.42968,-27.73242 z m 330.03321,0 7.43164,27.72852 -27.73242,7.43164 -7.42969,-27.73047 z m -562.70703,1.32618 17.83203,4.77734 -13.05469,13.05469 z m 330.0332,0 17.83203,4.77734 -13.05469,13.05469 z m 330.0332,0 17.83008,4.77734 -13.05273,13.05274 z m -673.58984,3.62304 4.77734,17.83204 -17.83008,-4.7793 z m 330.0332,0 4.77735,17.83008 -17.83204,-4.77734 z m 330.03321,0 4.77734,17.83008 -17.83203,-4.77734 z m -455.12305,6.10352 7.43164,27.73242 -27.73242,7.42969 -7.42969,-27.73242 z m 330.0332,0 7.43164,27.73047 -27.73242,7.43164 -7.42969,-27.73047 z m -480.19922,1.32617 17.83203,4.77735 -13.05468,13.05468 z m 330.03321,0 17.83203,4.77735 -13.05469,13.05664 z m 330.0332,0.002 17.83203,4.7754 -13.05469,13.05468 z m -343.55664,3.6211 4.77734,17.83203 -17.83008,-4.77734 z m -330.0332,0.002 4.77734,17.83008 -17.83008,-4.77734 z m 660.0664,0 4.77734,17.83008 -17.83007,-4.77734 z m -537.63086,6.10352 7.43164,27.73047 -27.73242,7.43164 -7.42969,-27.73047 z m 330.0332,0 7.43165,27.73047 -27.73243,7.43164 -7.42968,-27.73047 z m 330.03321,0 7.42969,27.73047 -27.73047,7.42968 -7.42969,-27.72851 z m -727.72461,1.32617 17.83203,4.77734 -13.05469,13.05469 z m 330.03125,0 17.83398,4.77734 -13.05468,13.05469 z m 330.03515,0 17.83008,4.77734 -13.05273,13.05274 z m -13.52343,3.62305 4.77734,17.83203 L 843.5,496.37695 Z m -660.06641,0.002 4.77734,17.83008 -17.83007,-4.77735 z m 330.0332,0 4.77735,17.83008 -17.83203,-4.77735 z m -434.167964,3.14062 27.732424,7.43164 -7.43164,27.73047 -27.732425,-7.43164 z m 330.033204,0 27.73047,7.42969 -7.42969,27.73242 -27.73242,-7.43164 z m 330.0332,0 27.73047,7.42969 -7.42969,27.73242 -27.73242,-7.43164 z M 77.503906,487.7913 72.724609,505.62137 59.671875,492.56864 Z m 330.033204,0 -4.77734,17.83203 -13.05469,-13.05469 z m 330.0332,0 -4.77929,17.83203 -13.05274,-13.05274 z m -499.82812,6.58593 4.77929,17.83203 -17.83203,-4.77734 z m 330.0332,0 4.7793,17.83203 -17.83203,-4.77734 z m 330.0332,0 4.77735,17.83203 -17.83203,-4.77734 z m -764.20117,3.14258 27.73242,7.43164 -7.43164,27.73047 -27.73047,-7.43164 z m 330.0332,0 27.73047,7.42969 -7.42968,27.73047 -27.73047,-7.42969 z m 330.03321,0 27.73047,7.42969 -7.42969,27.73047 L 786.24219,525.25 Z M 36.25,498.8457 31.470703,516.67578 18.417969,503.62305 Z m 330.03125,0 -4.77734,17.83008 -13.05274,-13.05273 z m 330.03516,0 -4.77735,17.83203 -13.05468,-13.05468 z m -646.544926,3.62305 13.054688,13.05469 -17.832031,4.77734 z m 330.033206,0 13.05469,13.05469 -17.83204,4.77734 z m 330.0332,0 13.05273,13.05273 -17.83007,4.7793 z m -534.97656,6.10547 27.73242,7.42969 -7.43164,27.73047 -27.73047,-7.42969 z m 330.0332,0 27.73047,7.42969 -7.42969,27.73047 -27.73047,-7.42969 z m 330.0332,0 27.73047,7.42969 -7.42968,27.73047 -27.73047,-7.42969 z m -509.90039,1.32617 -4.77734,17.83008 -13.05273,-13.05274 z m 330.03321,0 -4.77735,17.83008 -13.05273,-13.05274 z m -316.50977,3.62305 13.05469,13.05468 -17.83203,4.77735 z m 330.0332,0 13.05469,13.05468 -17.83203,4.77735 z m -452.46875,6.10547 27.73243,7.42968 -7.43164,27.73047 -27.73047,-7.42968 z m 330.03321,0 27.73242,7.42968 -7.43164,27.73047 -27.73047,-7.42968 z m 330.0332,0 27.73047,7.42968 -7.42969,27.73047 -27.73242,-7.43164 z m 67.6582,1.32421 -4.77734,17.83008 -13.05273,-13.05273 z m -660.0664,0.002 -4.77735,17.83008 -13.05273,-13.05274 z m 330.03515,0 -4.77929,17.82812 -13.05274,-13.05078 z m -316.51171,3.62109 13.05468,13.05469 -17.83203,4.77734 z m 330.0332,0 13.05469,13.05469 -17.83204,4.77734 z m 330.0332,0 13.05469,13.05469 -17.83203,4.77734 z m -885.964842,3.14258 7.429687,27.73047 -27.728516,7.43164 -7.43164,-27.73047 z m 330.033202,0 7.42969,27.73047 -27.72852,7.43164 -7.43164,-27.73242 z m 330.0332,0 7.43164,27.73047 -27.73046,7.43164 -7.43164,-27.73242 z m -645.216793,1.32617 17.833983,4.77735 -13.054686,13.05468 z m 330.033203,0 17.83398,4.77735 -13.05468,13.05468 z m 330.0332,0 17.83203,4.7793 -13.05273,13.05273 z m -490.27148,6.58594 13.05469,13.05469 -17.83204,4.77734 z m 330.0332,0 13.05469,13.05469 -17.83203,4.77734 z m 330.03321,0 13.05468,13.05469 -17.83203,4.77734 z m -555.93165,3.14258 7.43165,27.73242 -27.73243,7.42969 -7.42968,-27.73243 z m 330.03516,0 7.42969,27.73047 -27.73242,7.42968 -7.42969,-27.73047 z m -562.70898,1.32617 17.83203,4.77734 -13.05469,13.05469 z m 330.0332,0 17.83203,4.77734 -13.05469,13.05274 z m 330.0332,0 17.83008,4.77734 -13.05273,13.05274 z m -673.58984,3.62305 4.7793,17.83203 -17.83399,-4.77735 z m 330.0332,0 4.7793,17.83203 -17.83399,-4.77735 z m 330.03321,0 4.77734,17.83203 -17.83203,-4.7793 z m -455.12305,6.10546 7.43164,27.73047 -27.73242,7.42969 -7.42969,-27.73047 z m 330.0332,0 7.43164,27.72852 -27.73242,7.43164 -7.42969,-27.73047 z m -480.19922,1.32618 17.83008,4.77734 -13.05273,13.05469 z m 330.03321,0 17.83007,4.77734 -13.05273,13.05469 z m 330.0332,0 17.83008,4.77734 -13.05274,13.05274 z m -343.55664,3.62109 4.77734,17.83399 -17.83203,-4.77735 z m 330.0332,0 4.77734,17.83399 -17.83203,-4.77735 z m -660.0664,0.002 4.77929,17.83204 -17.83398,-4.77735 z m 122.43554,6.10547 7.43164,27.72852 -27.73242,7.43164 -7.42969,-27.73047 z m 330.0332,0 7.43165,27.72852 -27.73243,7.43164 -7.42968,-27.73047 z m 330.03321,0 7.42969,27.72852 -27.73047,7.43164 -7.42969,-27.73047 z m -727.72461,1.32617 17.83008,4.77735 -13.05274,13.05273 z m 330.0332,0 17.83008,4.77735 -13.05273,13.05273 z m 330.0332,0 17.83008,4.77735 -13.05273,13.05273 z m -673.58984,3.6211 4.7793,17.83203 -17.83203,-4.77734 z m 660.06641,0 4.77734,17.83203 L 843.5,578.88477 Z m -330.03321,0.002 4.77735,17.83008 -17.83203,-4.77734 z m -434.167964,3.14063 27.732424,7.43164 -7.43164,27.73047 -27.732425,-7.42969 z m 330.033204,0 27.73047,7.42968 -7.42969,27.73243 -27.73242,-7.42969 z m 330.0332,0 27.73047,7.42968 -7.42969,27.73243 -27.73242,-7.43165 z M 77.503906,570.29897 72.724609,588.131 59.671875,575.07631 Z m 330.033204,0 -4.7793,17.83203 -13.05273,-13.05469 z m 330.0332,0 -4.77929,17.83203 -13.05274,-13.05274 z m -499.82812,6.58594 4.77929,17.83203 -17.83203,-4.77735 z m 660.0664,0 4.77735,17.83203 -17.83203,-4.77735 z m -330.0332,0.002 4.77734,17.83008 -17.83007,-4.77735 z m -434.16797,3.14062 27.73242,7.43164 -7.43164,27.73047 -27.73047,-7.42968 z m 330.0332,0 27.73047,7.42969 -7.42968,27.73047 -27.73243,-7.42969 z m 330.03321,0 27.73047,7.42969 -7.42969,27.73047 -27.73242,-7.42969 z m -757.425783,1.32618 -4.777344,17.83007 -13.052734,-13.05273 z m 330.033203,0 -4.77734,17.83007 -13.05274,-13.05273 z m 330.03516,0 -4.7793,17.83203 -13.05273,-13.05469 z m -646.544926,3.62304 13.054688,13.05469 -17.832031,4.77734 z m 330.033206,0 13.05469,13.05469 -17.83204,4.77734 z m 330.0332,0 13.05273,13.05274 -17.83007,4.77929 z m -534.97656,6.10547 27.73242,7.43164 -7.43164,27.72852 -27.73047,-7.42969 z m 330.0332,0 27.73047,7.42969 -7.42969,27.73047 -27.73047,-7.42969 z m 330.0332,0 27.73047,7.42969 -7.42968,27.73047 -27.73047,-7.42969 z M 325.02734,592.4082 320.25,610.23828 307.19727,597.18555 Z m 330.03321,0 -4.77539,17.83203 -13.05469,-13.05468 z m -316.50977,3.62305 13.05469,13.05469 -17.83203,4.77734 z m 330.0332,0 13.05469,13.05469 -17.83203,4.77734 z m -452.46875,6.10547 27.73243,7.42969 -7.43164,27.73047 -27.73047,-7.42969 z m 330.03321,0 27.73047,7.42969 -7.42969,27.73047 -27.73047,-7.42969 z m 330.0332,0 27.73047,7.42969 -7.42969,27.73047 -27.73242,-7.43165 z m 67.6582,1.32422 -4.77734,17.83203 -13.05469,-13.05469 z m -660.0664,0.002 -4.77735,17.83008 -13.05273,-13.05274 z m 330.03515,0 -4.77929,17.83008 -13.05274,-13.05274 z m -316.51171,3.62109 13.05468,13.05469 -17.83203,4.77735 z m 330.0332,0 13.05469,13.05469 -17.83204,4.77735 z m 330.0332,0 13.05469,13.05469 -17.83203,4.77735 z m -555.93164,3.14258 7.43164,27.73242 -27.73047,7.42969 -7.43164,-27.73242 z m 330.0332,0 7.43164,27.73047 -27.73046,7.43164 -7.43164,-27.73242 z m -660.066402,0.002 7.429687,27.72851 -27.728516,7.43164 -7.43164,-27.73047 z m 14.849609,1.32421 17.833983,4.77735 -13.054686,13.05469 z m 330.033203,0 17.83398,4.77735 -13.05468,13.05469 z m 330.0332,0 17.83203,4.7793 -13.05273,13.05274 z m -490.27148,6.58594 13.05469,13.05469 -17.83204,4.77734 z m 330.0332,0 13.05469,13.05469 -17.83203,4.77734 z m 330.03321,0 13.05468,13.05469 -17.83203,4.77734 z m -555.93165,3.14258 7.43165,27.73242 -27.73243,7.42969 -7.42968,-27.73242 z m 330.03321,0 7.43164,27.73047 -27.73242,7.42969 -7.42969,-27.73047 z m -562.70703,1.32617 17.83203,4.77735 -13.05469,13.05468 z m 330.0332,0 17.83203,4.77735 -13.05469,13.05273 z m 330.0332,0 17.83008,4.77735 -13.05273,13.05468 z m -343.55664,3.62305 4.77735,17.83203 -17.83204,-4.77734 z m 330.03321,0 4.77734,17.83203 -17.83203,-4.7793 z m -660.06641,0.002 4.77734,17.83008 -17.83008,-4.77734 z m 204.94336,6.10352 7.43164,27.73047 -27.73242,7.42968 -7.42969,-27.73047 z m 330.0332,0 7.43164,27.72851 -27.73242,7.43164 -7.42969,-27.73047 z m -480.19922,1.32617 17.83203,4.77734 -13.05468,13.05469 z m 330.03321,0 17.83203,4.77734 -13.05469,13.05469 z m 330.0332,0 17.83203,4.77734 -13.05469,13.05274 z m -343.55664,3.62109 4.77734,17.83399 -17.83203,-4.77735 z m 330.0332,0 4.77734,17.83399 -17.83203,-4.77735 z m -660.0664,0.002 4.77929,17.83203 -17.83398,-4.77735 z m 122.43554,6.10546 7.43164,27.73047 -27.73242,7.43164 -7.42969,-27.73242 z m 330.0332,0 7.43165,27.73047 -27.73243,7.43164 -7.42968,-27.73242 z m 330.03321,0 7.42969,27.72852 -27.73047,7.43164 -7.42969,-27.73047 z m -727.72461,1.32618 17.83008,4.77734 -13.05274,13.05469 z m 330.0332,0 17.83008,4.77734 -13.05273,13.05469 z m 330.0332,0 17.83008,4.77734 -13.05273,13.05469 z m -673.58984,3.62109 4.7793,17.83203 -17.83203,-4.77734 z m 660.06641,0 4.77734,17.83203 L 843.5,661.39258 Z m -330.03321,0.002 4.77735,17.83008 -17.83203,-4.77734 z m -434.167964,3.14063 27.732424,7.43164 -7.43164,27.73047 -27.732425,-7.42969 z m 330.033204,0 27.73047,7.42969 -7.42969,27.73242 -27.73242,-7.42969 z m 330.0332,0 27.73047,7.42969 -7.42969,27.73242 -27.73242,-7.42969 z M 77.503906,652.80687 72.724609,670.6389 59.671875,657.58421 Z m 330.033204,0 -4.7793,17.83203 -13.05273,-13.05273 z m 330.0332,0 -4.77929,17.83203 -13.05274,-13.05273 z m -499.82812,6.58594 4.77929,17.83398 -17.83398,-4.77929 z m 660.0664,0 4.77735,17.83398 -17.83203,-4.77929 z m -330.0332,0.002 4.7793,17.83203 -17.83399,-4.77929 z m -434.16797,3.14063 27.73242,7.43164 -7.43164,27.73047 -27.73047,-7.42969 z m 330.0332,0 27.73047,7.42968 -7.42968,27.73243 -27.73047,-7.42969 z m 330.03321,0 27.73047,7.42968 -7.42969,27.73243 -27.73242,-7.43165 z m -757.425783,1.32617 -4.777344,17.83203 -13.052734,-13.05469 z m 330.035153,0 -4.77929,17.83203 -13.05469,-13.05469 z m 330.03321,0 -4.7793,17.83203 -13.05469,-13.05469 z m -646.544926,3.625 13.054688,13.05273 -17.832031,4.7793 z m 330.035156,0 13.05274,13.05273 -17.83204,4.77735 z m 330.0332,0 13.05078,13.05273 -17.83007,4.77735 z m -534.97851,6.10351 27.73242,7.43164 -7.43164,27.73047 -27.73047,-7.42968 z m 330.0332,0 27.73047,7.42969 -7.42969,27.73242 -27.73047,-7.42968 z m 330.0332,0 27.73047,7.42969 -7.42968,27.73242 -27.73047,-7.42968 z M 325.0293,674.9163 320.25,692.74833 307.19531,679.69364 Z m 330.0332,0 -4.7793,17.83203 -13.05468,-13.05469 z m -316.51172,3.62304 13.05469,13.05469 -17.83203,4.77734 z m 330.0332,0 13.05469,13.05469 -17.83203,4.77734 z m -452.46875,6.10547 27.73047,7.42969 -7.42968,27.73242 -27.73047,-7.42969 z m 330.03321,0 27.73047,7.42969 -7.42969,27.73242 -27.73047,-7.42969 z m 330.0332,0 27.73047,7.42969 -7.42969,27.73242 L 868.75,712.375 Z m 67.6582,1.32422 -4.77734,17.83203 -13.05273,-13.05273 z m -660.0664,0.002 -4.77735,17.83203 -13.05468,-13.05468 z m 330.03515,0 -4.77929,17.83203 -13.05469,-13.05468 z m 13.52149,3.6211 13.05469,13.05664 -17.83204,4.77734 z m 330.0332,0 13.05469,13.05664 -17.83203,4.77734 z m -660.0664,0.002 13.05468,13.05469 -17.83203,4.77734 z m -225.898442,3.14258 7.43164,27.73047 -27.730469,7.42968 -7.43164,-27.72851 z m 330.033202,0 7.43164,27.73047 -27.73047,7.42968 -7.43164,-27.73046 z m 330.0332,0 7.43164,27.73047 -27.73046,7.42968 -7.43164,-27.73046 z m -645.216793,1.32617 17.832033,4.77734 -13.052736,13.05469 z m 330.033203,0 17.83203,4.77734 -13.05273,13.05469 z m 330.0332,0 17.83203,4.7793 -13.05273,13.05273 z m 169.79493,6.58398 13.05468,13.05664 -17.83203,4.77735 z m -660.06641,0.002 13.05469,13.05468 -17.83204,4.77735 z m 330.0332,0 13.05469,13.05468 -17.83203,4.77735 z m -225.89844,3.14258 7.43165,27.73046 -27.73243,7.43164 -7.42968,-27.73242 z m 330.03321,0 7.43164,27.72851 -27.73242,7.43164 -7.42969,-27.73047 z m -562.70703,1.32617 17.83007,4.77734 -13.05273,13.05274 z m 330.0332,0 17.83008,4.77734 -13.05274,13.05469 z m 330.0332,0 17.83008,4.77734 -13.05273,13.05274 z m -343.55664,3.62109 4.77735,17.83399 -17.83204,-4.7793 z m -330.0332,0.002 4.77734,17.83008 -17.83008,-4.77734 z m 660.06445,0 4.7793,17.83008 -17.83203,-4.77734 z m -455.12109,6.10352 7.43164,27.73242 -27.73242,7.42969 -7.42969,-27.73242 z m 330.0332,0 7.43164,27.73047 -27.73242,7.43164 -7.42969,-27.73242 z m -480.19922,1.32617 17.83203,4.77735 -13.05468,13.05664 z m 330.03321,0 17.83203,4.77735 -13.05469,13.05664 z m 330.0332,0.002 17.83203,4.77539 -13.05469,13.05468 z m -673.58984,3.62109 4.77929,17.83203 -17.83398,-4.77734 z m 330.0332,0 4.77734,17.83203 -17.83203,-4.77734 z m 330.0332,0 4.77734,17.83203 -17.83203,-4.77734 z m -537.63086,6.10547 7.43164,27.73047 -27.73242,7.43164 -7.42969,-27.73243 z m 330.0332,0 7.43165,27.73047 -27.73243,7.43164 -7.42968,-27.73243 z m 330.03321,0 7.42969,27.73047 -27.73047,7.42968 -7.42969,-27.73047 z m -67.66016,1.32422 17.83399,4.77929 -13.05469,13.05469 z m -660.06445,0.002 17.83203,4.77734 -13.05469,13.05469 z m 330.0332,0 17.83203,4.77734 -13.05468,13.05469 z m -343.55664,3.62305 4.7793,17.83203 -17.83203,-4.77735 z m 660.06641,0 4.77734,17.83203 L 843.5,743.90234 Z m -330.03321,0.002 4.77735,17.83008 -17.83203,-4.77735 z m -434.167964,3.14062 27.732424,7.43165 -7.43164,27.72851 -27.732425,-7.42969 z m 330.033204,0 27.73047,7.42969 -7.42969,27.73047 -27.73242,-7.42969 z m 330.0332,0 27.73047,7.42969 -7.42969,27.73047 -27.73242,-7.42969 z m -674.916014,1.32618 -4.777344,17.83203 -13.054687,-13.05469 z m 330.033204,0 -4.7793,17.83203 -13.05273,-13.05469 z m 330.0332,0 -4.77929,17.83203 -13.05274,-13.05469 z m 160.23828,6.58398 4.77735,17.83399 -17.83203,-4.77735 z m -660.0664,0.002 4.77929,17.83204 -17.83203,-4.7793 z m 330.0332,0 4.7793,17.83204 -17.83399,-4.77735 z m -434.16797,3.14258 27.73242,7.43164 -7.43164,27.72852 -27.73047,-7.42969 z m 330.0332,0 27.73047,7.42969 -7.42968,27.73047 -27.73047,-7.42969 z m 330.03321,0 27.73047,7.42969 -7.42969,27.73047 -27.73242,-7.43164 z M 36.25,746.37109 31.472656,764.20312 18.417969,751.14844 Z m 330.0332,0 -4.77929,17.83203 -13.05274,-13.05468 z m 330.03321,0 -4.7793,17.83203 -13.05273,-13.05468 z m -646.542972,3.62305 13.052734,13.05274 -17.830078,4.77734 z m 330.033202,0 13.05274,13.05274 -17.83204,4.77734 z m 330.0332,0 13.05078,13.05274 -17.83007,4.77734 z m -534.97851,6.10547 27.73242,7.42969 -7.43164,27.73047 -27.73047,-7.42969 z m 330.0332,0 27.73047,7.42773 -7.42969,27.73243 -27.73047,-7.42969 z m 330.0332,0 27.73047,7.42773 -7.42968,27.73243 -27.73047,-7.42969 z m -509.90039,1.32617 -4.77734,17.83008 -13.05273,-13.05274 z m 330.03321,0 -4.77735,17.83008 -13.05273,-13.05274 z m -316.50977,3.6211 13.05469,13.05468 -17.83203,4.77735 z m 330.0332,0 13.05469,13.05468 -17.83203,4.77735 z m -452.46875,6.10546 27.73047,7.43164 -7.42773,27.73047 -27.73242,-7.43164 z m 330.03321,0 27.73047,7.43164 -7.42969,27.73047 -27.73047,-7.42968 z m 330.0332,0 27.73047,7.42969 -7.42969,27.73242 -27.73242,-7.43164 z m -592.4082,1.32618 -4.77735,17.83007 -13.05273,-13.05078 z m 330.03515,0 -4.77929,17.83203 -13.05274,-13.05274 z m 330.03125,0 -4.77734,17.83007 -13.05273,-13.05273 z m -646.54296,3.62304 13.05468,13.05469 -17.83203,4.77734 z m 330.0332,0 13.05469,13.05469 -17.83204,4.77734 z m 330.0332,0 13.05469,13.05469 -17.83203,4.77734 z m -885.964842,3.14258 7.43164,27.73047 -27.730469,7.42969 -7.43164,-27.73047 z m 330.033202,0 7.43164,27.73047 -27.73047,7.42969 -7.43164,-27.73047 z m 330.0332,0 7.43164,27.73047 -27.73046,7.42969 -7.43164,-27.73047 z m -645.216793,1.32617 17.832033,4.77735 -13.052736,13.05468 z m 330.033203,0 17.83203,4.77735 -13.05273,13.05468 z m 330.0332,0 17.83203,4.7793 -13.05273,13.05273 z m 169.79493,6.58399 13.05468,13.05664 -17.83203,4.77734 z m -660.06641,0.002 13.05469,13.05469 -17.83204,4.77734 z m 330.0332,0 13.05469,13.05469 -17.83203,4.77734 z m -225.89844,3.14258 7.43165,27.73047 -27.73243,7.43164 -7.42968,-27.73242 z m 330.03321,0 7.43164,27.72851 -27.73242,7.43164 -7.42969,-27.73046 z m -562.70703,1.32617 17.83203,4.77734 -13.05469,13.05469 z m 330.0332,0 17.83203,4.77734 -13.05469,13.05469 z m 330.0332,0 17.83008,4.77734 -13.05273,13.05274 z m -673.58984,3.62305 4.77734,17.83007 -17.83008,-4.77734 z m 330.0332,0 4.77735,17.83203 -17.83204,-4.7793 z m 330.03125,0 4.7793,17.83007 -17.83203,-4.77734 z m -455.12109,6.10351 7.43164,27.73242 -27.73242,7.42969 -7.42969,-27.73242 z m 330.0332,0 7.43164,27.73047 -27.73242,7.43164 -7.42969,-27.73242 z m -480.19922,1.32617 17.83203,4.77735 -13.05468,13.05664 z m 330.03321,0 17.83203,4.77735 -13.05469,13.05664 z m 330.0332,0.002 17.83203,4.77539 -13.05469,13.05469 z m -343.55664,3.62109 4.77734,17.83203 -17.83008,-4.77734 z m 330.0332,0 4.77734,17.83203 -17.83007,-4.77734 z m -660.0664,0.002 4.77929,17.83008 -17.83203,-4.77734 z m 122.43554,6.10352 7.43164,27.73047 -27.73242,7.43164 -7.43164,-27.73242 z m 330.0332,0 7.43165,27.73047 -27.73243,7.42969 -7.42968,-27.72852 z m 330.03321,0 7.42969,27.73047 -27.73047,7.42969 -7.42969,-27.72852 z m -727.72461,1.32617 17.83203,4.77735 -13.05469,13.05468 z m 330.0332,0 17.83008,4.7793 -13.05273,13.05273 z m 330.03125,0 17.83203,4.7793 -13.05273,13.05273 z m -673.58789,3.62305 4.7793,17.83203 -17.83203,-4.77734 z m 660.06641,0 4.77734,17.83203 L 843.5,826.41016 Z m -330.03321,0.002 4.77735,17.83008 -17.83203,-4.77734 z m -434.167964,3.14063 27.730464,7.42968 -7.42968,27.73047 -27.732425,-7.42968 z m 330.033204,0 27.73047,7.42968 -7.42969,27.73047 -27.73242,-7.42968 z m 330.0332,0 27.73047,7.42968 -7.42969,27.73047 -27.73242,-7.42968 z m -674.916014,1.32617 -4.777344,17.83203 -13.054687,-13.05469 z m 330.033204,0 -4.7793,17.83203 -13.05273,-13.05469 z m 330.0332,0 -4.77929,17.83203 -13.05274,-13.05469 z m 160.23828,6.58398 4.77735,17.83399 -17.83203,-4.77735 z m -660.0664,0.002 4.77929,17.83203 -17.83203,-4.7793 z m 330.0332,0 4.77734,17.83203 -17.83203,-4.77735 z m -434.16797,3.14257 27.73242,7.43165 -7.43164,27.72851 -27.73047,-7.42969 z m 330.0332,0 27.73047,7.42969 -7.42968,27.73047 -27.73047,-7.42969 z m 330.03321,0 27.73047,7.42969 -7.42969,27.73047 -27.73242,-7.42969 z m -757.425783,1.32618 -4.777344,17.83007 -13.052734,-13.05273 z m 330.035153,0 -4.77734,17.83203 -13.05469,-13.05469 z m 330.03321,0 -4.7793,17.83203 -13.05273,-13.05469 z m -646.544926,3.62304 13.054688,13.05274 -17.832031,4.77929 z m 330.033206,0 13.05469,13.05469 -17.83204,4.77734 z m 330.0332,0 13.05273,13.05274 -17.83007,4.77734 z m -534.97656,6.10547 27.73242,7.42969 -7.43164,27.73047 -27.73047,-7.42969 z m 330.0332,0 27.73047,7.42969 -7.42969,27.73047 -27.73047,-7.42969 z m 330.0332,0 27.73047,7.42969 -7.42968,27.73047 -27.73047,-7.42969 z M 325.02734,839.93382 320.25,857.7639 307.19727,844.71117 Z m 330.03321,0 -4.77735,17.83008 -13.05273,-13.05273 z m -316.50977,3.62305 13.05274,13.05274 -17.83008,4.77734 z m 330.0332,0 13.05274,13.05274 -17.83008,4.77734 z m -452.46875,6.10352 27.73047,7.43164 -7.42968,27.73047 -27.73047,-7.42969 z m 330.03321,0 27.73047,7.43164 -7.42969,27.73047 -27.73047,-7.42969 z m 330.0332,0 27.73047,7.43164 -7.42969,27.73047 -27.73242,-7.43165 z m -592.4082,1.32617 -4.77735,17.83203 -13.05273,-13.05274 z m 330.03515,0 -4.77929,17.83203 -13.05274,-13.05469 z m 330.03125,0 -4.77734,17.83008 -13.05273,-13.05274 z m -646.54296,3.62305 13.05468,13.05468 -17.83203,4.77735 z m 330.0332,0 13.05469,13.05468 -17.83204,4.77735 z m 330.0332,0 13.05469,13.05468 -17.83203,4.77735 z m -885.964842,3.14257 7.43164,27.73047 -27.730469,7.42969 -7.43164,-27.73047 z m 330.033202,0 7.43164,27.73047 -27.73047,7.42969 -7.43164,-27.73047 z m 330.0332,0 7.43164,27.73047 -27.73242,7.42969 -7.42968,-27.73047 z m -645.216793,1.32617 17.832033,4.77735 -13.052736,13.05469 z m 330.033203,0 17.83203,4.77735 -13.05273,13.05469 z m 330.0332,0 17.83203,4.7793 -13.05273,13.05274 z m -490.27148,6.58594 13.05469,13.05469 -17.83204,4.77734 z m 330.0332,0 13.05469,13.05469 -17.83203,4.77734 z m 330.03321,0 13.05468,13.05469 -17.83203,4.77734 z m -555.93165,3.14258 7.43165,27.73047 -27.73243,7.43164 -7.42968,-27.73242 z m 330.03321,0 7.43164,27.73047 -27.73242,7.42969 -7.42969,-27.73047 z m -562.70703,1.32617 17.83203,4.77735 -13.05469,13.05468 z m 330.0332,0 17.83203,4.77735 -13.05469,13.05468 z m 330.0332,0 17.83008,4.77735 -13.05273,13.05273 z m -343.55664,3.62305 4.77735,17.83203 -17.83204,-4.7793 z m 330.03321,0 4.77734,17.83008 -17.83203,-4.77735 z m -660.06641,0.002 4.77734,17.82813 -17.83008,-4.77735 z m 204.94336,6.10157 7.43164,27.73242 -27.73242,7.42968 -7.42969,-27.73046 z m 330.0332,0 7.43164,27.73046 -27.73242,7.43164 -7.42969,-27.73046 z m -480.19922,1.32617 17.83203,4.77734 -13.05468,13.05664 z m 330.03321,0 17.83203,4.77734 -13.05469,13.05664 z m 330.0332,0.002 17.83203,4.77539 -13.05469,13.05469 z m -343.55664,3.62109 4.77734,17.83203 -17.83008,-4.77734 z m 330.0332,0 4.77734,17.83203 -17.83007,-4.77734 z m -660.0664,0.002 4.77929,17.83007 -17.83203,-4.77734 z m 122.43554,6.10351 7.43164,27.73047 -27.73242,7.43164 -7.42969,-27.73047 z m 330.0332,0 7.43165,27.73047 -27.73243,7.43164 -7.42968,-27.73047 z m 330.03321,0 7.42969,27.73242 -27.73047,7.42774 -7.42969,-27.72852 z m -727.72461,1.32617 17.83008,4.7793 -13.05274,13.05274 z m 330.0332,0 17.83008,4.7793 -13.05273,13.05274 z m 330.03125,0 17.83203,4.7793 -13.05273,13.05274 z m -673.58789,3.62305 4.7793,17.83203 -17.83203,-4.77734 z m 660.06641,0 4.77734,17.83203 L 843.5,908.91797 Z m -330.03321,0.002 4.77735,17.83008 -17.83203,-4.77734 z m -434.167964,3.14063 27.732424,7.43164 -7.43164,27.73047 -27.732425,-7.43164 z m 330.033204,0 27.73047,7.42969 -7.42969,27.73242 -27.73242,-7.43164 z m 330.0332,0 27.73047,7.42969 -7.42969,27.73242 -27.73242,-7.43164 z M 77.503906,900.33245 72.726562,918.16448 59.671875,905.1098 Z m 330.033204,0 -4.77734,17.83203 -13.05469,-13.05468 z m 330.0332,0 -4.77929,17.83203 -13.05274,-13.05468 z m -499.82812,6.58594 4.77929,17.83203 -17.83203,-4.7793 z m 330.0332,0 4.77734,17.83203 -17.83203,-4.77734 z m 330.0332,0 4.77735,17.83203 -17.83203,-4.77734 z m -764.20117,3.14258 27.73242,7.43164 -7.43164,27.73047 -27.73047,-7.42969 z m 330.0332,0 27.73047,7.42968 -7.42968,27.73047 -27.73047,-7.42968 z m 330.03321,0 27.73047,7.42968 -7.42969,27.73047 -27.73242,-7.42968 z M 36.25,911.38672 31.472656,929.21875 18.417969,916.16406 Z m 330.03125,0 -4.77734,17.83008 -13.05274,-13.05274 z m 330.03516,0 -4.77735,17.83203 -13.05468,-13.05469 z m -646.544926,3.62305 13.054688,13.05468 -17.832031,4.77735 z m 330.033206,0 13.05469,13.05468 -17.83204,4.77735 z m 330.0332,0 13.05469,13.05468 -17.83203,4.77735 z m -534.97656,6.10546 27.73242,7.43165 -7.43164,27.72851 -27.73047,-7.42969 z m 330.0332,0 27.73047,7.42969 -7.42969,27.73047 -27.73047,-7.42969 z m 330.0332,0 27.73047,7.42969 -7.42968,27.73047 -27.73047,-7.42969 z m -509.90039,1.32618 -4.77734,17.83007 -13.05273,-13.05273 z m 330.03321,0 -4.77735,17.83007 -13.05273,-13.05273 z m -316.50977,3.62304 13.05274,13.05274 -17.83008,4.77734 z m 330.0332,0 13.05469,13.05274 -17.83203,4.77929 z m -452.46875,6.10547 27.73047,7.42969 -7.42968,27.73047 -27.73047,-7.42969 z m 330.03321,0 27.73047,7.42969 -7.42969,27.73047 -27.73047,-7.42969 z m 330.0332,0 27.73047,7.42969 -7.42969,27.73047 -27.73242,-7.43164 z m 67.6582,1.32422 -4.77734,17.83203 -13.05469,-13.05469 z m -660.0664,0.002 -4.77539,17.83008 -13.05469,-13.05273 z m 330.03515,0 -4.77929,17.83008 -13.05274,-13.05273 z m -316.51171,3.6211 13.05468,13.05469 -17.83203,4.77734 z m 330.0332,0 13.05469,13.05469 -17.83204,4.77734 z m 330.0332,0 13.05469,13.05469 -17.83203,4.77734 z m -871.115233,4.46875 17.832033,4.77734 -13.054689,13.05469 z m 330.033203,0 17.83203,4.77734 -13.05469,13.05469 z m 330.0332,0 17.83203,4.77929 -13.05468,13.05274 z m -490.27148,6.58594 13.05469,13.05468 -17.83204,4.77735 z m 330.0332,0 13.05274,13.05273 -17.83008,4.7793 z m 330.03321,0 13.05273,13.05273 -17.83008,4.7793 z m -788.60547,4.46874 17.83203,4.77735 -13.05469,13.05469 z m 330.0332,0 17.83203,4.77735 -13.05469,13.05469 z m 330.0332,0 17.83008,4.77735 -13.05273,13.05273 z m -618.8125,11.05469 17.83008,4.77735 -13.05273,13.05273 z m 330.03321,0 17.83007,4.77735 -13.05273,13.05273 z m 330.0332,0 17.83008,4.77735 -13.05274,13.05273 z"
     id="path836" />
</svg>
