<?xml version="1.0" encoding="UTF-8" standalone="no"?>
<svg
   xmlns:dc="http://purl.org/dc/elements/1.1/"
   xmlns:cc="http://creativecommons.org/ns#"
   xmlns:rdf="http://www.w3.org/1999/02/22-rdf-syntax-ns#"
   xmlns:svg="http://www.w3.org/2000/svg"
   xmlns="http://www.w3.org/2000/svg"
   xmlns:sodipodi="http://sodipodi.sourceforge.net/DTD/sodipodi-0.dtd"
   xmlns:inkscape="http://www.inkscape.org/namespaces/inkscape"
   inkscape:version="1.0.1 (3bc2e813f5, 2020-09-07)"
   sodipodi:docname="5-uniform_231.svg"
   id="c:\kuniform\5u\5-uniform_231.svg"
   height="978.98517"
   width="1000.0"
   version="1.0">
  <metadata
     id="metadata2510">
    <rdf:RDF>
      <cc:Work
         rdf:about="">
        <dc:format>image/svg+xml</dc:format>
        <dc:type
           rdf:resource="http://purl.org/dc/dcmitype/StillImage" />
        <dc:title></dc:title>
      </cc:Work>
    </rdf:RDF>
  </metadata>
  <defs
     id="defs2508" />
  <sodipodi:namedview
     inkscape:current-layer="c:\kuniform\5u\5-uniform_231.svg"
     inkscape:window-maximized="1"
     inkscape:window-y="-9"
     inkscape:window-x="-9"
     inkscape:cy="492.82159"
     inkscape:cx="478.37132"
     inkscape:zoom="0.89223819"
     showgrid="false"
     id="namedview2506"
     inkscape:window-height="1001"
     inkscape:window-width="1920"
     inkscape:pageshadow="2"
     inkscape:pageopacity="0"
     guidetolerance="10"
     gridtolerance="10"
     objecttolerance="10"
     borderopacity="1"
     inkscape:document-rotation="0"
     bordercolor="#666666"
     pagecolor="#ffffff" />
  <!-- X Coordinate transform: fx(x)=(x+80.75)*0.86095566-->
  <!-- Y Coordinate transform: fy(y)=(1068.5457-y)*0.86095566 -->
  <path
     style="color:#000000;font-style:normal;font-variant:normal;font-weight:normal;font-stretch:normal;font-size:medium;line-height:normal;font-family:sans-serif;font-variant-ligatures:normal;font-variant-position:normal;font-variant-caps:normal;font-variant-numeric:normal;font-variant-alternates:normal;font-variant-east-asian:normal;font-feature-settings:normal;font-variation-settings:normal;text-indent:0;text-align:start;text-decoration:none;text-decoration-line:none;text-decoration-style:solid;text-decoration-color:#000000;letter-spacing:normal;word-spacing:normal;text-transform:none;writing-mode:lr-tb;direction:ltr;text-orientation:mixed;dominant-baseline:auto;baseline-shift:baseline;text-anchor:start;white-space:normal;shape-padding:0;shape-margin:0;inline-size:0;clip-rule:nonzero;display:inline;overflow:visible;visibility:visible;isolation:auto;mix-blend-mode:normal;color-interpolation:sRGB;color-interpolation-filters:linearRGB;solid-color:#000000;solid-opacity:1;vector-effect:none;fill:#000000;fill-opacity:1;fill-rule:nonzero;stroke:none;stroke-width:16;stroke-linecap:butt;stroke-linejoin:miter;stroke-miterlimit:4;stroke-dasharray:none;stroke-dashoffset:0;stroke-opacity:1;color-rendering:auto;image-rendering:auto;shape-rendering:auto;text-rendering:auto;enable-background:accumulate;stop-color:#000000"
     d="m 220.18945,-11.154297 -6.92773,12.00000012 h -0.002 l -14.59375,25.28124988 -4.61914,8 h -9.23633 -24.57422 l -4.61914,-8 -4.61719,8 h -0.002 -9.23633 l 4.61914,8 -12.28711,21.279297 -0.73047,1.265625 -3.88672,6.734375 h -0.002 -9.23633 -15.33594 -9.236324 -0.002 l -4.617187,-7.998047 v -0.002 L 78.75957,42.126906 l 4.61914,-8 h -9.238281 l -4.619141,-8 -4.61914,8 H 26.474609 12.617188 l 6.927734,12 19.214844,33.277344 v 0.002 l -4.619141,8 h 9.238281 l 4.619141,8 7.667969,13.28125 4.617187,7.99609 0.002,0.004 -4.61914,8 -12.28711,21.28125 h -9.236328 l 4.617188,7.99805 v 0.002 l -4.619141,8 h 9.238281 l 12.28711,21.2793 4.617187,8 v 0.002 l -4.617187,7.99805 -7.667969,13.28125 -4.619141,8 h -9.236328 l 4.617188,7.99804 -4.619141,8.00196 -14.595703,25.28125 -6.927734,12 h 13.857421 29.191407 9.236328 l 4.61914,8 12.28711,21.27929 v 0.002 l -4.619141,7.99804 -7.667969,13.28125 -4.61914,8 H 26.474609 12.617188 l 6.927734,12 10.763672,18.64063 3.832031,6.63867 H 4.9492188 -8.90625 l 6.9277344,12 19.2148436,33.28125 -4.24414,7.35156 -0.375,0.64844 -14.5957036,25.28125 -2.3085938,4 2.3085938,4 14.5957036,25.2793 4.61914,8 -16.90429675,29.28125 H -8.90625 l 4.6191406,8 -4.6191406,8 h 9.23632812 0.001953 L 4.9824219,542.83008 17.236328,564.05469 0.33203125,593.33398 H -8.90625 l 4.6191406,8 -4.6191406,8 h 9.23632812 0.001953 l 4.65039068,8.05664 12.2539062,21.22461 -16.90429688,29.2793 H -8.90625 l 4.6191406,8 -4.6191406,8 h 9.23632812 0.001953 l 2.55664068,4.43164 14.3476562,24.84961 -4.61914,8 -14.5957037,25.2793 -2.3085938,4 2.3085938,4 19.2148437,33.2793 v 0.002 l -19.2148437,33.28125 -2.3085938,4 2.3085938,4 14.5957037,25.2793 4.61914,8 v 0.002 L 8.7851562,876.9375 0.33203125,891.57812 H -8.90625 l 4.6191406,8 -4.6191406,8 h 9.23632812 0.001953 l 19.21289088,33.2793 6.929687,12 6.927735,-12 14.595703,-25.2793 4.619141,-8 h 9.236328 15.335937 9.238281 l 4.619141,8 12.285155,21.2793 -4.619139,8 h 9.238279 l 4.61914,8 4.61914,-8 h 24.57227 9.23633 0.002 l 4.61719,8 14.59765,25.28125 6.92774,12 6.92773,-12 14.59571,-25.28125 14.59375,25.28125 h 0.002 l 6.92773,12 6.92774,-12 14.5957,-25.28125 14.5957,25.28125 6.92774,12 6.92773,-12 h 0.002 l 14.5957,-25.28125 4.61719,-8 h 0.002 9.23633 15.33593 9.23633 l 4.61914,8 14.59571,25.28125 6.92773,12 6.92774,-12 h 0.002 l 14.5957,-25.28125 14.5957,25.28125 6.92774,12 6.92773,-12 19.21485,-33.28125 2.30859,-4 6.92774,-12 7.66796,-13.2793 4.61915,-8 h 33.81054 l 4.61914,8 3.83203,6.64063 3.83594,6.63867 6.92774,12 2.30859,4 19.21484,33.28125 6.92774,12 6.92773,-12 h 0.002 l 14.59571,-25.28125 3.83398,6.64063 10.76172,18.64062 6.92774,12 6.92773,-12 14.5957,-25.28125 4.61914,-8 h 9.23828 l -4.61914,-8 v -0.002 l 4.61914,-7.99805 12.28321,-21.2793 h 0.002 9.23633 15.33594 9.23633 0.002 l 16.90429,29.2793 -4.61914,8 h 9.23829 l 4.61914,8 4.61914,-8 h 33.80859 l 4.61914,8 4.61914,-8 h 9.23828 l -4.61914,-8 16.9043,-29.2793 h 9.23828 15.33594 9.23633 0.002 l 12.28516,21.2793 4.61718,7.99805 v 0.002 l -4.61914,8 h 9.23828 l 4.61914,8 3.83399,6.64063 10.76172,18.64062 6.92773,12 6.92774,-12 h 0.002 L 849,944.85742 h 0.002 9.23633 15.33594 9.23633 l 8.45312,14.64063 10.76172,18.64062 6.92773,12 6.92774,-12 h 0.002 l 14.59571,-25.28125 3.83398,6.64063 10.76172,18.64062 6.92773,12 6.92774,-12 19.21484,-33.28125 h 9.23828 l -4.61914,-8 4.61914,-8 h -9.23633 -0.002 l -16.9043,-29.2793 4.61915,-8 7.66601,-13.28124 2.85547,-4.94532 4.07422,-7.05468 2.30859,-4 16.9043,-29.2793 h 9.23628 l -4.6172,-7.99805 v -0.002 -0.002 l 4.6172,-7.99804 h -9.23628 l -12.28516,-21.28125 -4.61914,-8 2.13867,-3.70313 2.17578,-3.76953 0.30469,-0.52734 12.28516,-21.28125 h 9.23628 l -4.6191,-7.99805 v -0.002 l 4.6172,-8 h -9.23628 l -12.28516,-21.2793 -4.61914,-8 2.69336,-4.66601 1.92578,-3.33399 5.6211,-9.73633 6.66406,-11.54492 h 9.23628 l -4.6172,-7.99805 v -0.002 l 4.6172,-8 h -9.23628 l -12.28516,-21.2793 -4.61914,-8 4.61914,-8 h -9.23633 -0.002 l -4.61914,-8 -12.28516,-21.28125 12.28516,-21.27929 6.92969,-12 2.30859,-4 16.9043,-29.28125 h 9.23633 l -4.6172,-7.99805 v -0.002 -0.002 l 4.6172,-7.99804 h -9.23633 l -16.9043,-29.28125 -2.30859,-4 -6.92969,-12 -7.66601,-13.2793 -0.92774,-1.60742 -3.69141,-6.39258 v -0.002 l 12.28516,-21.2793 4.61914,-8 h 0.002 9.23633 l -4.61914,-8 1.93555,-3.35156 0.4414,-0.76563 2.24219,-3.88281 14.59374,-25.28125 6.9277,-12 h -13.85542 -38.42774 l -4.61914,-8 -5.43164,-9.4082 -2.23633,-3.8711 -4.61718,-8 16.90429,-29.28125 h 9.23829 l -4.61915,-8 v -0.002 l 4.61719,-7.99805 h -9.23633 l -16.90429,-29.27929 4.61718,-8 7.66797,-13.28125 4.61914,-8 h 38.42774 13.85552 l -6.9277,-12 -14.59384,-25.28125 -4.61914,-7.99805 v -0.002 l 4.61914,-8 h -9.23828 l -4.61914,-8 -7.66601,-13.2793 -4.61915,-8 v -0.002 l 4.61719,-7.99805 3.83399,-6.64063 8.45312,-14.64062 h 9.23828 l -4.61914,-8 4.61914,-8 h -9.23828 l -12.28515,-21.28125 -4.61915,-8 v -0.002 l 4.61719,-7.998047 12.28711,-21.279297 h 9.23828 l -4.61914,-8 4.61914,-8 h -9.23633 -0.002 L 958.92969,0.84570312 952.00195,-11.154297 945.07422,0.84570312 930.47852,26.126953 l -4.61914,8 h -9.23829 l 4.61914,8 v 0.002 L 916.62109,50.127 904.33594,71.406297 h -0.002 -9.23632 -15.33594 -9.23633 L 862.07223,56.765672 853.6191,42.127 l 4.61914,-8 H 849.00195 849 l -4.61719,-8 -4.61914,8 h -33.81055 l -4.61914,-8 -4.61914,8 h -9.23828 l 4.61914,8 v 0.002 l -16.90234,29.27725 h -0.002 -9.23633 -15.33594 -9.23828 l -12.28516,-21.279297 -4.61914,-8 4.61914,-8 h -9.23632 -0.002 l -4.61914,-8 L 700.64258,0.84570312 693.71484,-11.154297 686.78711,0.84570312 667.57227,34.126953 H 658.33398 643 633.76172 L 616.85742,4.8496094 614.54688,0.84570312 607.61914,-11.154297 600.69141,0.84570312 586.0957,26.126953 571.5,0.84570312 564.57227,-11.154297 557.64453,0.84570312 546.88281,19.486328 538.42969,34.126953 h -0.002 -9.23632 -15.33399 -9.23828 L 487.71484,4.8496094 485.4043,0.84570312 478.47656,-11.154297 471.54883,0.84570312 h -0.002 l -14.59571,25.28124988 -4.61719,8 h -0.002 -9.23633 l 4.61914,8 -4.61914,8 -7.66797,13.279297 -0.73046,1.265625 -3.88672,6.734375 h -0.002 -9.23632 H 397 l -4.61914,-8 -7.66797,-13.279297 -6.92773,-12 -2.3086,-4 h -0.002 L 356.26172,0.84570312 h -0.002 L 349.33203,-11.154297 342.4043,0.84570312 331.64258,19.486328 l -8.45313,14.640625 -2.30859,4 -6.92774,12 -7.66796,13.279297 -4.61914,8 h -24.57227 -9.23828 l -4.61914,-8 -3.83399,-6.640625 -3.83203,-6.638672 -4.61914,-8 4.61914,-8 h -9.23828 l -4.61914,-8 -14.5957,-25.28124988 z m 0,32 7.66797,13.28125 h -15.33398 -0.002 z m 129.14258,0 7.66992,13.28125 h -15.33789 z m 215.24024,0 7.66796,13.28125 H 556.9043 Z m 43.04687,0 7.66797,13.28125 h -15.33399 -0.002 z m 86.0957,0 7.66797,13.28125 h -15.33593 z m 258.28711,0 7.66797,13.28125 h -15.33594 z m -473.52539,0.002 7.66602,13.279297 H 470.80859 Z M 40.330078,50.126953 H 55.666016 L 47.998047,63.40625 Z m 129.144532,0 h 15.33398 l -7.66601,13.279297 h -0.002 z m 43.04883,0 h 15.33398 l -7.66797,13.279297 -3.83398,-6.640625 z m 119.90429,0 h 33.81055 l 16.9043,29.279297 -4.65039,8.056641 -7.05469,12.21875 -0.58008,1.005859 -4.61914,8 H 357 341.66602 332.42773 l -4.24414,-7.35156 -0.375,-0.64844 -3.83203,-6.640625 -8.45312,-14.640625 4.61718,-8 z m 138.38086,0 h 15.33399 l -3.83399,6.638672 -3.83203,6.640625 h -0.002 z m 33.81055,0 h 9.23633 15.33594 9.23632 0.002 l 16.90429,29.279297 -4.61914,8 -3.83203,6.640625 -3.83398,6.640625 -2.35547,4.08008 -1.36133,2.35547 -0.90234,1.56445 h -0.002 -24.57031 -9.23828 l -4.61914,-8 -7.66797,-13.28125 -4.61719,-8 3.0625,-5.306641 1.55469,-2.693359 z m 52.28516,0 h 15.33593 l -7.66796,13.279297 z m 43.04882,0 h 15.33204 l -7.66602,13.279297 z m 33.8086,0 H 643 h 15.33398 9.23829 l 12.28711,21.279297 0.36328,0.632812 4.2539,7.367188 v 0.002 l -4.61718,7.998047 -0.0332,0.05664 -7.05469,12.21875 -0.58007,1.005863 -4.61914,8 h -9.23829 -24.57226 l -4.61914,-8 -3.83399,-6.640629 -3.83398,-6.640625 -4.61719,-7.998047 v -0.002 l 8.45117,-14.640625 z m 52.28711,0 h 15.33398 l -7.66797,13.279297 z m 129.14258,0 h 15.33398 l -7.66797,13.279297 z m 129.14453,0 h 15.33398 l -7.66797,13.279297 z m -874.814456,8 7.667969,13.279297 H 61.855469 Z m 86.095706,0 7.66797,13.279297 h -15.33399 z m 43.04883,0 7.66601,13.279297 H 191 Z m 43.04687,0 7.66797,13.279297 h -15.33398 z m 215.23828,0 h 0.002 l 7.66602,13.279297 h -15.33398 z m 129.14453,0 3.83399,6.638672 3.83398,6.640625 h -15.33398 z m 129.14258,0 7.66797,13.279297 h -15.33398 l 3.83398,-6.640625 z m 86.0957,0 L 809,71.40625 h -15.33398 z m 43.04688,0 h 0.002 l 3.83203,6.638672 3.83399,6.640625 h -15.33399 z m 86.09766,0 7.66601,13.279297 H 922.81055 Z M 61.855469,87.40625 h 15.333984 l -7.667969,13.2793 z m 43.046871,0 h 15.33594 l -7.66797,13.28125 -3.83398,-6.640625 z m 43.04883,0 h 15.33399 l -7.66797,13.2793 -3.83203,-6.638675 z m 33.81055,0 h 9.23633 15.33398 9.23828 l 4.61914,8 12.28516,21.28125 -4.61719,8 -0.90234,1.5625 -6.76563,11.7168 -4.61914,8.00195 h -0.002 -33.80664 l -4.61914,-8 -3.83399,-6.64063 -3.83398,-6.64062 -4.61914,-8 12.28711,-21.28125 z m 52.28516,0 h 15.33398 l -7.66797,13.28125 z m 43.04687,0 h 15.33594 l -7.66797,13.28125 z m 129.14258,0 h 15.33594 l -7.66797,13.28125 z m 43.04883,0 h 15.33398 l -7.66797,13.28125 z m 119.90625,0 H 603 l 4.61914,8 7.66797,13.28125 4.61719,8 -12.28516,21.2793 v 0.002 l -4.61914,8 h -9.23828 -15.33399 -9.23632 l -4.61914,-8 -12.28711,-21.28125 4.61914,-8 3.83398,-6.64062 3.83399,-6.64063 z m 138.38086,0 h 15.33398 l -7.66797,13.28125 z m 33.80859,0 h 9.23828 15.33594 9.23633 l 8.45312,14.64063 8.45117,14.64062 -4.61718,8 -7.66797,13.2793 v 0.002 l -2.86524,4.96289 -1.7539,3.03711 h -24.57227 -9.23633 -0.002 l -4.61719,-7.99805 v -0.002 l -3.83398,-6.64063 -3.83399,-6.64062 -0.375,-0.64844 -4.24414,-7.35156 4.24414,-7.35156 0.375,-0.64844 3.83399,-6.64062 z m 52.28711,0 h 15.33398 l -7.66797,13.28125 z m 43.04687,0 h 15.33399 l -3.83399,6.640625 -3.83203,6.638675 z m 33.81055,0 h 9.23633 15.33594 9.23632 0.002 l 5.89648,10.212891 5.48633,9.505859 0.90234,1.5625 2.45508,4.25391 2.16406,3.74609 -4.61914,8 -7.08593,12.27539 -0.58204,1.00586 v 0.002 l -4.61718,7.99805 h -0.002 -9.23632 -24.57227 l -4.61914,-8 -3.83398,-6.64063 -3.83399,-6.64062 -4.61914,-8 8.45313,-14.64062 z m 52.28516,0 h 15.33593 l -7.66796,13.28125 z m -659.57422,8 7.66797,13.28125 h -15.33399 l 3.83203,-6.64062 z m 43.04883,0 7.66601,13.28125 h -15.33398 l 3.83398,-6.64062 z m 86.0957,0 7.66797,13.28125 h -15.33399 z m 43.04687,0 3.83399,6.64063 3.83398,6.64062 h -15.33398 z m 43.04883,0 3.83203,6.64063 3.83399,6.64062 h -15.33399 z m 215.23828,0 3.83399,6.64063 3.83398,6.64062 h -15.33398 z m 129.14258,0 7.66797,13.28125 h -15.33398 l 3.83203,-6.64062 z m 129.14453,0 7.66797,13.28125 h -15.33594 l 3.83399,-6.64062 z m -860.955075,0.002 7.666016,13.2793 H 83.378906 Z m 43.046875,0 7.66797,13.2793 H 126.42773 Z M 83.378906,124.6875 h 15.333985 l -7.666016,13.28125 z m 33.810544,0 h 9.23633 24.57227 0.002 l 4.61719,7.99805 v 0.002 l 7.66797,13.28125 4.61914,8 L 151,183.24805 h -9.23828 -15.33594 -9.23633 l -8.45312,-14.63867 -3.83399,-6.64063 -4.61914,-8 4.61914,-8 3.83399,-6.64063 3.83398,-6.64062 z m 129.14258,0 h 24.57227 9.23632 0.002 l 4.61914,8 3.83203,6.64062 3.25391,5.63477 0.58007,1.00586 2.35547,4.08008 1.42188,2.46289 0.8418,1.45508 v 0.002 l -4.61915,8 -10.46093,18.11914 -1.82422,3.16016 h -9.23828 -15.33399 -9.23828 l -9.79883,-16.97071 -7.10547,-12.30859 v -0.002 l 4.61719,-7.99805 7.66797,-13.28125 z m 52.28516,0 h 15.33593 l -7.66796,13.28125 z m 43.04883,0 H 357 l -7.66602,13.28125 h -0.002 z m 43.04882,0 h 15.33204 l -7.66602,13.2793 z m 33.8086,0 h 9.23633 15.33593 9.23633 0.002 l 4.61719,7.99805 v 0.002 l 3.83399,6.64062 8.45312,14.64063 v 0.002 l -1.16406,2.01368 -3.45508,5.98437 -7.66797,13.28125 -4.61719,7.99805 h -0.002 -33.80859 l -4.61914,-7.99805 -3.83399,-6.64062 -3.83203,-6.64063 -4.61914,-8 v -0.002 l 8.45117,-14.63868 3.83399,-6.64062 z m 52.28515,0 h 15.33594 l -7.66797,13.28125 z m 43.04883,0 h 15.33399 l -7.66797,13.28125 z m 129.14258,0 h 15.33398 l -7.66601,13.28125 h -0.002 z m 43.04883,0 h 15.33398 l -7.66797,13.28125 z m 119.90429,0 h 33.8086 0.002 l 4.61914,8 7.66602,13.28125 4.61914,8 v 0.002 l -15.08008,26.11719 -1.10742,1.91797 -0.23438,0.4043 -0.48242,0.83789 h -0.002 -9.23633 -15.33594 -9.23633 l -4.61914,-8 -12.28515,-21.2793 v -0.002 l 4.61914,-7.99805 3.83203,-6.64063 3.83398,-6.64062 z m 138.38282,0 h 15.33398 l -3.83398,6.64062 -3.83399,6.64063 z m -616.52735,8 7.66797,13.28125 h -15.33398 z m 43.04883,0 7.66797,13.28125 h -15.33594 z m 172.19141,0 3.83398,6.64062 3.83203,6.64063 h -15.33398 z m 86.09375,0 7.66797,13.28125 h -15.33399 z m 43.04883,0 7.66601,13.28125 h -15.33398 l 3.83398,-6.64063 z m 43.04687,0 7.66797,13.28125 h -15.33398 l 3.83398,-6.64063 z m 215.24024,0 3.83398,6.64062 3.83203,6.64063 h -15.33398 z m -860.957036,0.002 7.667969,13.2793 H 61.855469 Z m 430.478516,0 7.66602,13.2793 H 492.33398 Z M 61.855469,161.9688 h 15.333984 l -7.666015,13.2793 h -0.002 z m 129.142581,0 h 15.33398 l -7.66601,13.2793 z m 129.14453,0 h 15.33398 l -7.66797,13.2793 z m 33.80859,0 h 9.23828 24.57227 l 4.61914,8 7.66602,13.2793 4.61914,8 v 0.002 l -5.15235,8.92188 -11.75195,20.35742 h -9.23633 -15.33594 -9.23633 -0.002 L 345.5,205.88867 341.66602,199.24805 337.04688,191.25 v -0.002 l 4.61914,-8 3.83398,-6.63867 3.83203,-6.64063 1.91992,-3.32422 z m 129.14453,0 h 24.57227 9.23633 l 3.06445,5.30664 1.55469,2.69336 3.83398,6.64063 3.83399,6.63867 0.48437,0.83789 0.18555,0.32226 1.57812,2.73242 2.36914,4.10743 -4.61718,8 -12.28516,21.27734 -0.002,0.004 h -9.23633 -15.33594 -9.23633 l -16.90625,-29.28125 4.61914,-8 7.66797,-13.2793 z m 52.28516,0 h 15.33398 l -4.20312,7.2793 -3.46289,6 z m 43.04883,0 h 15.33203 l -7.66602,13.2793 z m 43.04687,0 h 15.33399 l -7.66797,13.2793 z m 33.8086,0 h 0.002 9.23633 15.33594 9.23632 l 4.61914,8 3.83399,6.64063 L 706,191.25 l -4.61719,7.99805 -3.83398,6.64062 -3.83399,6.64063 -4.61914,8 h -33.80859 -0.002 l -4.61719,-8 L 643,199.24805 638.38086,191.25 v -0.002 l 1.13281,-1.96094 9.04492,-15.66602 2.10938,-3.65234 v -0.002 z m 52.28711,0 h 15.33398 l -2.80859,4.86328 -4.85938,8.41602 z m 43.04687,0 h 15.33594 l -7.66797,13.2793 z m 129.14453,0 h 15.33399 l -7.66797,13.2793 z m 43.04688,0 h 15.33398 l -7.66601,13.2793 h -0.002 z m -831.763675,8 3.832031,6.64063 3.833985,6.63867 H 83.378906 Z m 129.142575,0 7.66602,13.2793 h -15.33203 z m 86.09571,0 7.66601,13.2793 h -15.33398 l 3.83398,-6.63867 z m 258.28711,0 7.66601,13.2793 H 556.9043 Z m 43.04687,0 7.66602,13.2793 h -15.33204 z m 129.14258,0 h 0.002 l 7.66602,13.2793 H 729.0957 l 5.1836,-8.97657 z m 43.04883,0 3.83398,6.64063 3.83203,6.63867 h -15.33203 z m 86.0957,0 7.66602,13.2793 h -15.33399 l 3.83399,-6.63867 z m 43.04687,0 7.66797,13.2793 h -15.33398 z m 43.04883,0 7.66797,13.2793 h -15.33398 z m -774.85937,0.002 7.66601,13.27735 h -15.33398 l 3.83398,-6.63867 z m -93.763674,29.27735 h 15.335938 l -7.667969,13.28125 z m 33.810544,0 h 9.23633 15.33594 9.23633 l 6.57812,11.39257 10.32813,17.88868 -4.31446,7.47265 -0.30468,0.52735 -7.66797,13.28125 v 0.002 L 151,257.81055 h -0.002 -24.57227 -9.23633 l -4.61914,-8 -3.83398,-6.64063 -3.83399,-6.64062 -4.61914,-8 4.61914,-8 2.90625,-5.03321 z m 52.28516,0 h 15.33594 l -7.03711,12.18554 -0.63086,1.09571 z m 43.04687,0 h 15.33399 l -7.66602,13.28125 z m 33.81055,0 h 9.23828 15.33399 9.23828 l 8.45117,14.64062 3.83398,6.64063 4.61915,7.99804 v 0.002 l -4.61915,8 -7.66601,13.28125 -4.61914,8 h -0.002 -9.23632 -24.57227 l -4.61914,-8 -3.83398,-6.64063 -3.83399,-6.64062 -4.61719,-8 z m 52.28516,0 h 15.33593 l -7.66796,13.28125 z m 129.14453,0 h 15.33398 l -7.66797,13.28125 z m 129.14258,0 h 15.33593 l -7.66796,13.28125 z m 33.81054,0 h 9.23828 24.57032 l 4.61914,8 3.83398,6.64062 3.83399,6.64063 4.61914,8 -16.9043,29.27734 -0.002,0.004 h -9.23633 -15.33399 -9.23828 l -8.45312,-14.64063 -3.83399,-6.64062 -4.61718,-8 4.61718,-8 7.66797,-13.2793 v -0.002 l 0.38282,-0.66211 0.2871,-0.4961 z m 129.14258,0 h 0.002 24.57031 9.23828 l 4.61914,8 v 0.002 l 7.66797,13.2793 4.61719,8 -4.61719,8 -3.83399,6.64062 -8.45312,14.64063 h -9.23828 -15.33399 -9.23632 -0.002 l -15.7168,-27.22461 -1.1875,-2.05664 2.51563,-4.35742 2.10352,-3.64258 3.83398,-6.64063 3.83203,-6.63867 z m 52.28711,0 h 15.33399 l -7.66797,13.28125 z m 43.04688,0 h 15.33398 l -7.66797,13.28125 -3.83398,-6.64063 z m 43.04687,0 h 15.33399 l -7.66602,13.28125 -3.92383,-6.79492 z m 33.81055,0 h 9.23828 15.33398 9.23633 0.002 l 4.61914,8.00195 3.83398,6.63867 8.45117,14.63867 v 0.002 l -4.61914,8 -7.66601,13.28125 -4.61914,8 h -0.002 -33.80859 l -4.40625,-7.63086 -0.21289,-0.36914 -7.66797,-13.28125 -4.61719,-8 12.28516,-21.2793 z m 52.28515,0 h 15.33594 l -7.66797,13.28125 z m -143,8 L 809,220.5293 H 793.66602 L 797.5,213.88867 Z m -731.812496,0.002 4.126954,7.14648 3.541015,6.13282 H 61.853516 Z m 129.144536,0 7.66796,13.2793 H 191 Z m 129.14257,0 7.66797,13.2793 h -15.33594 z m 86.09571,0 7.66601,13.2793 h -15.33203 z m 43.04687,0 7.66797,13.2793 h -15.33398 l 3.83203,-6.64063 z m 86.09571,0 h 0.002 l 7.66601,13.2793 h -15.33398 l 1.62305,-2.8125 z m 301.33398,0 h 0.002 l 7.66602,13.2793 h -15.33399 z m 129.14453,0 h 0.002 l 7.66602,13.2793 h -15.33398 l 2.10742,-3.65235 z M 61.855469,236.5293 h 15.333984 l -7.667969,13.28125 z m 119.906251,0 h 33.80859 l 4.61914,8 3.83399,6.64062 3.83398,6.64063 4.61719,7.99804 v 0.002 l -8.45117,14.63867 -3.83399,6.64062 -4.61914,8 h -9.23828 -15.33398 -9.23633 l -3.59766,-6.23046 -1.02148,-1.76758 v -0.002 l -12.28711,-21.27929 4.61914,-8 7.66797,-13.28125 z m 138.38086,0 h 15.33398 l -7.66797,13.28125 z m 33.80859,0 h 0.002 9.23633 15.33594 9.23633 l 7.29687,12.64062 9.60743,16.63867 v 0.002 l -4.61914,8 -7.66602,13.27929 -4.61914,8 h -24.57227 -9.23633 -0.002 l -4.61914,-8 -3.83203,-6.64062 -3.83398,-6.63867 -2.79493,-4.83985 -1.82421,-3.16015 v -0.002 l 4.61914,-7.99804 3.83398,-6.64063 z m 52.28711,0 h 15.33203 l -7.66601,13.27929 -3.83399,-6.63867 z m 43.04688,0 h 15.33398 l -7.66797,13.27929 z m 33.81054,0 h 9.23633 15.33594 9.23633 l 12.28711,21.28125 4.61914,8 -3.06446,5.30664 -1.55468,2.69336 -3.83399,6.63867 -3.83398,6.64062 v 0.002 l -1.02149,1.76758 -3.59765,6.23046 h -9.23633 -24.57227 -0.002 l -4.61719,-7.99804 v -0.002 l -7.66797,-13.27929 -4.61914,-8 5.63477,-9.75977 2.07031,-3.58594 z m 52.28516,0 h 15.33398 l -3.83203,6.64062 -3.83398,6.64063 z m 129.14258,0 h 15.33398 l -7.66601,13.28125 z m 129.14453,0 H 809 l -7.66602,13.27929 -3.83398,-6.63867 z m 33.80859,0 h 0.002 9.23632 24.57227 l 4.61914,8 7.66797,13.28125 4.61719,7.99804 v 0.002 l -16.9043,29.27929 h -9.23828 -15.33399 -9.23828 l -8.45312,-14.64062 -8.45117,-14.63867 v -0.002 l 4.61718,-7.99804 3.83399,-6.64063 3.83398,-6.64062 z m -779.478513,8 7.667969,13.28125 H 40.330078 Z m 43.048828,0 3.832031,6.64062 3.833985,6.64063 H 83.378906 Z m 344.380855,0 3.83399,6.64062 3.83398,6.64063 h -15.33398 z m 129.14454,0 7.13281,12.35742 0.5332,0.92383 H 556.9043 Z m 86.09375,0 h 0.002 l 7.66601,13.28125 H 643 l 3.83203,-6.64063 z m 129.14453,0 3.83398,6.64062 3.83399,6.64063 h -15.33399 z m -473.52539,0.002 7.66601,13.2793 h -15.33398 z m 387.42968,0 3.83399,6.63867 3.83398,6.64063 H 686.04883 Z M 83.378906,273.8106 h 15.333985 l -7.666016,13.27929 z m 43.048824,0 h 15.33399 l -7.66797,13.27929 z m 129.14258,0 h 15.33399 l -7.66602,13.27929 h -0.002 z m 43.04688,0 h 15.33398 l -7.66601,13.27929 z m 119.90625,0 h 33.80859 0.002 l 4.61719,7.99804 3.83399,6.64063 3.83398,6.64062 4.61914,8 -12.28711,21.28125 -4.61719,8 h -0.002 -9.23633 -15.33593 -9.23633 l -4.17383,-7.23047 -0.44531,-0.76953 -12.28516,-21.27929 v -0.002 l 4.61914,-8 3.83203,-6.64062 3.83399,-6.63867 z m 138.38086,0 h 15.33398 l -7.66601,13.27929 -3.83399,-6.64062 z m 33.81054,0 h 9.23828 15.33399 9.23633 l 8.45312,14.63867 8.45313,14.64062 -4.61914,8 -3.83399,6.64063 -3.83398,6.64062 -4.61914,8 h -24.57032 -9.23828 l -1.5,-2.59961 -3.11914,-5.40039 -6.38867,-11.06836 -1.2793,-2.21289 -4.61718,-8 15.08007,-26.11914 z m 52.28516,0 h 15.33398 l -3.83398,6.63867 -3.83203,6.64062 h -0.002 z m 43.04883,0 h 15.33398 l -7.66797,13.27929 z m 33.80859,0 h 0.002 9.23632 15.33399 9.23828 l 12.28711,21.27929 0.92969,1.61133 3.6875,6.38867 v 0.002 l -4.61719,7.99804 -7.66797,13.28125 -4.61914,8 h -9.23828 -24.57227 l -4.61914,-8 -3.83203,-6.64062 -3.83398,-6.64063 -4.61915,-8 v -0.002 z m 52.28711,0 h 15.33399 l -3.83399,6.63867 -3.83398,6.64062 z m 129.14258,0 h 15.33398 l -3.83203,6.63867 -3.83398,6.64062 h -0.002 z m -788.7168,8 7.66797,13.27929 h -15.33594 l 3.83399,-6.64062 z m 43.04688,0 h 0.002 l 7.66602,13.27929 h -15.33399 l 3.83399,-6.64062 z m 86.0957,0 3.83399,6.63867 3.83398,6.64062 h -15.33398 z m 43.04883,0 7.66601,13.27929 h -15.33398 z m 43.04687,0 h 0.002 l 7.66601,13.27929 h -15.33398 z m 215.23829,0 h 0.002 l 3.83398,6.63867 3.83203,6.64062 h -15.33398 z m 129.14453,0 7.66601,13.27929 h -15.33398 z m 129.14257,0 L 809,295.08984 h -15.33398 z m 86.09571,0 3.83398,6.63867 3.83399,6.64062 h -15.33399 z m 43.04883,0 7.66601,13.27929 H 922.81055 Z M 95.664062,311.08984 h 0.002 24.572268 9.23633 l 4.61914,8 3.08594,5.34571 4.58203,7.93554 4.61719,7.9961 0.002,0.004 -1.93164,3.34571 -2.6875,4.65429 -3.83399,6.64063 -8.45312,14.63867 h -9.23633 -15.33594 -9.238282 l -8.453124,-14.63867 -8.451172,-14.63867 v -0.002 l 4.61914,-8 7.667969,-13.28125 z m 52.287108,0 h 15.33399 l -7.66797,13.2793 -3.83203,-6.63867 z m 43.04688,0 h 15.33398 l -3.83203,6.64063 -3.83398,6.64062 z m 43.04687,0 h 15.33594 l -3.83398,6.64063 -3.83399,6.64062 z m 33.81055,0 h 0.002 9.23633 15.33398 9.23829 l 4.61914,8 3.83398,6.64063 8.45117,14.64062 -3.5957,6.23047 -1.02149,1.76953 -6.65234,11.51953 -1.01562,1.75977 -1.55469,2.69336 -3.06445,5.30664 h -33.8086 -0.002 l -4.61914,-8 -7.66602,-13.2793 -0.5625,-0.97265 -4.05664,-7.02735 12.28516,-21.28125 z m 52.28711,0 h 15.33398 l -3.83398,6.64063 -3.83399,6.64062 z m 43.04687,0 h 15.33399 l -7.66602,13.28125 z m 129.14258,0 h 15.33594 l -3.83399,6.64063 L 500,324.37109 Z m 43.04883,0 h 15.33398 l -3.83203,6.64063 -3.83398,6.64062 z m 119.9043,0 h 0.002 33.80859 l 4.61914,8 3.83399,6.64063 3.83398,6.64062 3.01758,5.22657 1.60156,2.77343 -8.45312,14.64063 -3.83399,6.63867 -1.55468,2.69336 -3.06446,5.30664 h -9.23632 -15.33594 -9.23633 -0.002 l -4.61719,-7.99805 v -0.002 l -12.28711,-21.2793 4.61914,-8 3.83203,-6.64062 3.83594,-6.64063 v -0.002 z m 138.38281,0 H 809 l -3.83203,6.64063 -3.83399,6.63867 -3.83398,-6.63867 z m 33.80859,0 h 9.23828 15.33399 9.23828 l 8.45312,14.64063 8.45118,14.64062 -3.59571,6.23047 -1.02148,1.76953 -7.66797,13.2793 -1.55469,2.69336 -3.06445,5.30664 h -24.57227 -9.23828 l -4.61914,-8 -3.83398,-6.63867 -3.83399,-6.64063 -4.61718,-8 v -0.002 l 4.61718,-7.99805 3.83399,-6.64062 z m 52.28711,0 h 15.33399 l -3.83399,6.64063 -3.83398,6.64062 z m 43.04688,0 h 15.33398 l -3.83203,6.64063 -3.83398,6.64062 z m -702.6211,8 7.66602,13.28125 h -15.33203 -0.002 l 3.83399,-6.64062 z m 129.14258,0 h 0.002 l 3.83399,6.64063 3.83203,6.64062 h -15.33594 z m 129.14453,0 3.83203,6.64063 3.83399,6.64062 h -15.33399 z m 86.09571,0 7.66601,13.28125 H 556.9043 Z m 215.23828,0 7.66797,13.28125 h -15.33399 z m 129.14257,0 7.66797,13.28125 h -15.33398 l 3.83398,-6.64062 z m -731.81054,0.002 7.66601,13.27929 h -15.33398 z m 215.23828,0 7.66602,13.27929 h -15.33399 z m 129.14258,0 7.66797,13.27929 H 513.85742 Z M 40.330078,348.37109 h 15.333984 l -7.666015,13.2793 z m 129.144532,0 h 15.33398 l -3.83203,6.64063 -3.83398,6.63867 h -0.002 z m 33.81055,0 h 9.23632 24.57227 l 4.61914,8 7.66797,13.2793 4.61914,8 -16.90625,29.28125 h -9.23633 -15.33398 -9.23828 l -7.70508,-13.3457 -4.58203,-7.93555 -4.61719,-8 3.0625,-5.30664 1.55469,-2.69336 3.83398,-6.63867 3.83399,-6.64063 1.02148,-1.76953 z m 129.14257,0 H 357 h 9.23828 l 1.13281,1.96094 3.48633,6.03906 3.83399,6.64063 8.45117,14.63867 v 0.002 l -4.61719,7.99805 -1.2793,2.21289 -11.00781,19.06836 H 357 341.66602 332.42773 l -16.90429,-29.28125 8.45312,-14.63867 3.83203,-6.64063 z m 52.28711,0 h 15.33399 l -3.83399,6.64063 -3.83398,6.63867 z m 43.04493,0 h 15.33593 l -3.83398,6.64063 -3.83399,6.63867 z m 43.04882,0 h 15.33399 l -3.83399,6.64063 -3.83203,6.63867 z m 33.81055,0 h 9.23633 15.33594 9.23828 l 4.61914,8 3.83398,6.64063 8.45117,14.63867 -3.48437,6.0332 -1.13477,1.9668 -3.83203,6.64063 -3.83398,6.64062 -4.61914,8 h -0.002 -33.80859 l -4.61914,-8 -7.66797,-13.28125 -4.61719,-8 8.45118,-14.63867 3.83398,-6.64063 0.92969,-1.61132 z m 52.28516,0 h 15.33398 l -7.66601,13.2793 z m 43.04882,0 h 15.33204 l -7.66602,13.2793 z m 129.14258,0 h 15.33399 l -3.83203,6.64063 -3.83399,6.63867 h -0.002 z m 43.04883,0 h 15.33399 l -7.66797,13.2793 z m 119.9043,0 h 33.80859 0.002 l 4.61914,8 12.28515,21.2793 -12.28515,21.28125 -4.61914,8 h -0.002 -9.23633 -15.33398 -9.23828 l -3.48438,-6.0332 -1.13476,-1.9668 -12.28516,-21.28125 8.45313,-14.63867 3.83203,-6.64063 z m -822.527346,8 7.667969,13.2793 H 61.855469 Z m 86.095706,0 h 0.002 l 7.66602,13.2793 h -15.33399 l 3.83399,-6.63867 z m 258.28711,0 7.66601,13.2793 h -15.33398 z m 43.04687,0 h 0.002 l 7.66602,13.2793 h -15.33398 z m 129.14453,0 3.83399,6.64063 3.83203,6.63867 h -15.33399 z m 43.04688,0 3.83398,6.64063 3.83399,6.63867 h -15.33594 z m 86.0957,0 7.66797,13.2793 h -15.33398 l 3.83398,-6.63867 z m 43.04883,0 7.66601,13.2793 h -15.33398 l 3.83398,-6.63867 z m 43.04687,0 L 809,369.65039 H 793.66602 L 797.5,363.01172 Z m -782.527339,29.2793 h 15.333984 l -3.832031,6.64063 -3.833985,6.64062 z m 43.048828,0 h 15.333984 l -7.667969,13.28125 z m 33.808593,0 h 0.002 9.236328 15.33594 9.23633 l 7.70508,13.3457 4.58203,7.93555 4.61719,7.99609 0.002,0.004 -4.61914,8 -3.83399,6.64063 -3.83398,6.63867 v 0.002 l -4.61914,8 h -9.23633 -24.572268 l -4.619141,-8 -7.667969,-13.28125 -4.61914,-8 z m 52.287108,0 h 15.33399 l -7.66797,13.2793 -3.83203,-6.63867 z m 129.14258,0 h 15.33398 l -3.83398,6.64063 -3.83203,6.64062 z m 129.14258,0 h 15.33398 l -7.66601,13.28125 z m 33.81055,0 h 9.23828 24.57031 0.002 l 4.61914,8 3.83203,6.64063 3.83399,6.64062 4.61914,8 -16.9043,29.28125 h -0.002 -9.23633 -15.33398 -9.23828 l -12.28711,-21.28125 -4.61719,-8 4.61719,-8 7.08789,-12.27539 0.58007,-1.00586 z m 129.14453,0 H 593.76172 603 l 4.61914,8 7.66797,13.28125 4.61719,8 -4.61719,8 L 603,444.21289 h -9.23828 -15.33399 -9.23632 l -8.45313,-14.64062 -8.45312,-14.64063 4.61914,-8 3.83398,-6.64062 3.83399,-6.64063 3.01757,-5.22656 z m 52.28515,0 h 15.33399 l -7.66797,13.28125 z m 43.04688,0 h 15.33398 l -7.66601,13.28125 z m 43.04883,0 h 15.33398 l -7.66797,13.2793 -3.83203,-6.63867 z m 33.80859,0 h 0.002 9.23633 15.33594 9.23633 l 4.61914,8 12.28515,21.28125 -3.19336,5.5332 -1.42382,2.4668 -2.67969,4.64063 -4.98828,8.63867 v 0.002 l -4.61914,8 h -33.8086 l -4.61914,-8 -3.83398,-6.64062 -3.83399,-6.64063 -4.61914,-8 v -0.002 l 3.48438,-6.03125 4.96875,-8.60742 3.83398,-6.64063 v -0.002 z m 52.28711,0 h 15.33398 l -3.83398,6.64063 -3.83399,6.64062 z m 43.04687,0 h 15.33399 l -3.83399,6.64063 -3.83203,6.64062 z m 129.14454,0 h 15.33398 l -7.66797,13.2793 z m -917.861333,8 7.667969,13.28125 H 40.330078 Z m 129.144533,0 3.83398,6.64063 3.83203,6.64062 h -15.33398 z m 86.09375,0 7.66797,13.28125 h -15.33399 l 3.83203,-6.64062 z m 43.04883,0 7.66601,13.28125 h -15.33398 l 3.83398,-6.64062 z m 86.0957,0 3.83398,6.64063 3.83399,6.64062 h -15.33594 z m 258.28516,0 h 0.002 l 7.66601,13.28125 H 642.9981 Z m 172.1914,0 7.66797,13.28125 h -15.33594 z m 43.04883,0 7.66602,13.28125 h -15.33399 l 3.83399,-6.64062 z m 86.0957,0 3.83399,6.64063 3.83398,6.64062 h -15.33398 z m -258.28711,0.002 7.66797,13.2793 h -15.33398 z m -662.62109,29.2793 h 33.808594 l 4.61914,8 3.833985,6.64063 3.833984,6.64062 4.619141,8 -10.177735,17.62695 -2.109375,3.6543 -4.568359,7.91211 -0.05078,0.0859 H 55.666016 31.09375 L 26.474609,473.49414 14.1875,452.21289 26.474609,430.93164 Z m 138.38086,0 h 15.33398 l -3.83203,6.64063 -3.83398,6.63867 z m 33.81055,0 h 9.23632 15.33594 9.23633 l 8.45313,14.64063 8.45312,14.64062 -3.06445,5.30664 -1.55469,2.69336 -3.83398,6.63867 -3.83399,6.64258 -4.61914,7.99805 h -24.57031 -9.23828 l -4.61914,-8 -7.66797,-13.2793 -4.61719,-8.00195 3.08984,-5.35352 1.52735,-2.64453 3.83398,-6.64062 z m 52.28515,0 h 15.33399 l -7.66797,13.28125 z m 43.04688,0 h 15.33398 l -7.66601,13.28125 z m 33.81054,0 H 341.66602 357 h 9.23828 l 12.28711,21.28125 4.61719,7.99805 v 0.002 l -7.29688,12.63867 -9.60742,16.64063 H 357 332.42773 l -4.61914,-7.99805 -12.28515,-21.28125 13.65039,-23.64453 z m 52.28516,0 h 15.33594 l -3.83399,6.64063 -3.83398,6.63867 z m 129.14453,0 h 15.33399 l -7.66797,13.2793 -3.83203,-6.63867 z m 129.14258,0 h 15.33398 l -3.83398,6.64063 -3.83203,6.63867 v 0.002 h -0.002 z m 33.81055,0 h 9.23633 24.57226 0.002 l 4.61719,7.99805 v 0.002 l 7.66797,13.28125 4.61914,8 -16.9043,29.2793 h -0.002 -9.23633 -15.33593 -9.23633 l -7.52539,-13.03321 -4.76172,-8.24609 -4.61719,-8 v -0.002 l 4.61719,-7.99805 7.66797,-13.28125 z m 129.14257,0 h 24.57227 9.23633 0.002 l 3.25391,5.63672 1.36523,2.36328 3.83203,6.64063 3.83399,6.64062 4.61914,7.99805 v 0.002 l -4.61914,8 -9.58594,16.60352 -2.69922,4.67578 h -9.23828 -15.33594 -9.23633 L 797.5,466.85156 l -8.45117,-14.63867 4.61914,-8 0.5332,-0.92383 7.13281,-12.35742 z m 52.28516,0 h 15.33399 l -7.66602,13.2793 z m 43.04883,0 h 15.33398 l -7.66797,13.2793 z m 43.04687,0 h 15.33594 l -7.66797,13.28125 z m -788.71679,8 7.66797,13.28125 h -15.33399 l 3.83399,-6.64062 z m 129.14453,0 7.66797,13.28125 h -15.33594 z m 129.14258,0 7.66601,13.28125 h -15.33398 z m 86.0957,0 7.66797,13.28125 h -15.33594 z m 43.04883,0 3.83398,6.64063 3.83203,6.64062 h -15.33398 z m 86.09375,0 7.66797,13.28125 h -15.33399 z m 258.28711,0 7.66797,13.28125 h -15.33594 z m 43.04883,0 4.20312,7.2793 3.46484,6.00195 h -15.33593 z m -825.57422,29.2812 h 15.33203 l -7.66602,13.2793 z m 43.04687,0 h 15.33399 l -7.66797,13.2793 z m 119.9043,0 h 33.81055 l 12.2871,21.2793 4.61719,8 v 0.002 l -7.59179,13.14844 -0.49024,0.85156 -4.20312,7.2793 -0.375,0.64844 -4.24414,7.35156 h -9.23829 -15.33398 -9.23633 -0.002 l -4.61914,-8 -2.92383,-5.06641 -0.91016,-1.57422 -8.45117,-14.63867 v -0.002 l 4.61914,-8 3.83203,-6.64063 z m 138.38086,0 h 15.33398 l -7.66601,13.2793 z m 33.81055,0 h 9.23828 15.33398 9.23828 l 16.9043,29.2793 -4.61719,8 -7.66797,13.28125 -2.85547,4.94531 -1.76367,3.05469 h -0.002 -24.57031 -9.23828 l -4.61915,-8 -7.66796,-13.28125 -4.61719,-7.99805 v -0.002 z m 52.2871,0 h 15.33204 L 500,473.49219 Z m 43.04688,0 h 15.33398 l -3.83203,6.63867 -3.83398,6.64063 h -0.002 l -2.78516,-4.82422 z m 33.81055,0 h 9.23632 15.33399 H 603 l 12.28711,21.2793 0.92969,1.61133 3.6875,6.38867 v 0.002 l -3.08985,5.35352 -1.52734,2.64453 -3.83399,6.64062 -3.83398,6.64063 -4.61914,8 h -9.23828 -24.57031 L 567.58984,516 l -3.01757,-5.22656 -7.66797,-13.28125 -4.61914,-8 z m 52.28515,0 h 15.33399 l -7.66797,13.2793 z m 129.14453,0 h 15.33203 l -7.66601,13.2793 z m 129.14258,0 h 15.33399 l -7.66602,13.2793 h -0.002 z m 33.8086,0 h 9.23828 24.57226 l 4.61914,7.99805 12.28516,21.28125 -16.9043,29.28125 h -9.23633 -15.33593 -9.23633 -0.002 l -7.54297,-13.06641 -4.74219,-8.21484 -4.61914,-7.99805 v -0.002 -0.002 l 4.61914,-7.99804 3.83398,-6.64063 z m -822.527348,8 h 0.002 l 7.666016,13.2793 H 83.378906 Z m 43.048828,0 7.66797,13.2793 h -15.33399 z m 43.04687,0 h 0.002 l 3.83398,6.63867 3.83203,6.64063 h -15.33398 z m 215.24024,0 7.66602,13.2793 h -15.33204 z m 129.14258,0 h 0.002 l 7.66602,13.2793 h -15.33399 z m 129.14258,0 h 0.002 l 7.66601,13.2793 H 643 l 3.83203,-6.64063 z m 86.0957,0 h 0.002 l 7.66602,13.2793 H 729.0957 Z m 43.04883,0 7.66601,13.2793 h -15.33203 z m 86.0957,0 7.66602,13.2793 h -15.33399 l 3.83399,-6.64063 z m -825.576172,29.2793 h 15.335938 l -7.667969,13.28125 z m 43.046875,0 h 15.335938 l -3.833985,6.64062 -3.832031,6.64063 h -0.002 z m 33.812497,0 h 9.23633 15.33594 9.23633 l 4.61914,8 12.28711,21.28125 -2.4961,4.32422 -2.12304,3.67578 -7.13282,12.35742 -0.53515,0.92383 -4.61719,8 h -0.002 -33.8086 l -4.61914,-8 -7.66797,-13.28125 -4.61914,-7.99805 v -0.002 l 12.28711,-21.28125 z m 52.28516,0 h 15.33594 l -7.66797,13.28125 z m 43.04687,0 h 15.33594 l -7.66797,13.28125 z m 129.14258,0 H 357 l -7.66602,13.28125 h -0.002 z m 43.04883,0 h 15.33594 l -3.83399,6.64062 -3.83398,6.64063 z m 119.90625,0 h 33.80859 0.002 l 4.61914,8 7.66601,13.28125 1.13477,1.96679 1.7207,2.97852 1.76367,3.05469 -11.70507,20.27539 -0.58008,1.00586 -2.35547,4.08008 -2.26367,3.91992 h -0.002 -9.23632 -15.33399 -9.23828 l -4.61914,-8 -3.83398,-6.64063 -8.45118,-14.64062 4.61719,-8 L 500,505.49219 Z m 138.37891,0 h 15.33593 l -3.83398,6.64062 -3.83203,6.64063 h -0.002 z m 33.8125,0 h 9.23633 15.33593 9.23633 0.002 l 16.9043,29.28125 -4.61914,8 -3.83203,6.64062 -3.83594,6.64063 v 0.002 l -4.61719,7.99805 h -0.002 -24.57226 -9.23633 l -4.61914,-8 -7.66797,-13.28125 -0.26367,-0.45508 -4.35547,-7.54492 4.61914,-8 z m 52.28515,0 h 15.33399 l -7.66602,13.28125 z m 43.04688,0 h 15.33398 l -3.83203,6.64062 -3.83398,6.63867 z m 33.81054,0 h 9.23633 15.33594 9.23633 0.002 l 11.70508,20.27539 0.58008,1.00586 4.61914,7.99804 v 0.002 0.002 l -4.61914,7.99805 -3.83399,6.64062 -3.83203,6.64063 -4.61914,8 h -0.002 -9.23633 -24.57227 l -4.61914,-8 -2.67773,-4.64063 -4.45508,-7.71679 -0.5332,-0.92383 -4.61914,-8 v -0.002 L 797.5,512.13281 Z m 52.28516,0 h 15.33594 l -7.66797,13.28125 z m -788.716796,8 7.667969,13.28125 H 61.855469 l 3.832031,-6.64063 z m 129.144536,0 7.66796,13.28125 h -0.002 H 191 Z m 129.14257,0 3.83399,6.64062 3.83398,6.64063 h -15.33398 z m 43.04883,0 7.66602,13.28125 h -15.33399 z m 258.28516,0 7.66797,13.28125 h -15.33399 z m 129.14453,0 7.66797,13.28125 h -15.33594 l 3.83398,-6.64063 z m 129.14258,0 7.66797,13.28125 h -15.33399 z m -860.955081,0.002 7.666016,13.2793 H 18.806641 Z m 215.238281,0 3.83399,6.63867 3.83398,6.64063 h -15.33398 z m 172.19141,0 7.66601,13.2793 h -15.33398 l 3.83398,-6.64063 z m 559.62109,0 7.66602,13.2793 h -15.33203 l 3.83203,-6.64063 z m -954.718749,29.2793 h 15.333984 l -3.832031,6.64062 -3.833985,6.64063 z m 33.810547,0 h 9.238281 24.572265 l 4.619141,8 7.666016,13.28125 2.355469,4.08008 1.36133,2.35546 0.90234,1.56446 -8.453124,14.64062 -8.451172,14.63867 H 77.189453 61.853516 52.617188 l -16.904297,-29.27929 8.451171,-14.64063 3.833985,-6.64062 z m 129.144532,0 h 24.57031 9.23828 l 4.61914,8 3.83399,6.64062 3.83398,6.64063 4.61719,7.99804 v 0.002 l -3.4375,5.95508 -1.17969,2.04492 -3.83398,6.64062 -8.45313,14.63867 h -9.23828 -15.33398 -9.23633 l -8.45313,-14.63867 -8.45312,-14.64062 4.61914,-8 7.66797,-13.28125 z m 52.28516,0 h 15.33398 l -3.83398,6.64062 -3.83399,6.64063 z m 43.04687,0 h 15.33398 l -3.83398,6.64062 -3.83203,6.64063 z m 43.04687,0 h 15.33594 l -7.66797,13.28125 z m 33.81055,0 h 0.002 9.23633 15.33594 9.23633 l 2.16406,3.74609 2.45508,4.25391 0.90234,1.5625 11.38282,19.71679 v 0.002 l -3.4375,5.95508 -1.18164,2.04492 -5.43165,9.4082 -2.23437,3.87109 -4.61914,8 h -33.8086 -0.002 l -4.61914,-8 -7.66601,-13.27929 -0.5625,-0.97266 -2.92383,-5.06641 -1.13281,-1.96093 8.45312,-14.64063 3.83203,-6.64062 z m 52.28711,0 h 15.33399 l -7.66797,13.28125 z m 43.04688,0 h 15.33398 l -7.66797,13.28125 z m 129.14453,0 h 15.33203 0.002 l -7.66797,13.28125 z m 43.04687,0 h 15.33399 l -7.66797,13.28125 z m 119.9043,0 h 0.002 33.8086 l 0.002,0.004 4.61719,7.9961 7.66601,13.28125 2.35547,4.08008 2.26367,3.91992 -12.28515,21.27929 -4.61914,8 h -9.23633 -15.33594 -9.23633 -0.002 l -4.61719,-7.99804 v -0.002 l -3.83398,-6.63867 -8.45313,-14.64062 v -0.002 l 4.61914,-7.99804 3.83399,-6.64063 3.83398,-6.64062 v -0.002 z m 138.38086,0 h 15.33594 l -3.83399,6.64062 -3.83398,6.64063 z m 33.81055,0 h 9.23828 15.33398 9.23828 l 16.90625,29.28125 -12.28711,21.27929 -4.61914,8 h -24.57226 -9.23633 -0.002 l -4.61915,-8 -7.66601,-13.27929 -1.18555,-2.05274 -1.60937,-2.78711 -1.82422,-3.1582 v -0.002 l 4.61914,-8 3.83398,-6.64063 z m 52.28711,0 h 15.33203 l -7.66602,13.27929 z m -702.62305,8 7.66797,13.28125 h -15.33399 l 3.83203,-6.64063 z m 43.04883,0 7.66601,13.28125 h -15.33398 l 3.83398,-6.64063 z m 129.14257,0 3.83399,6.64062 3.83398,6.64063 h -15.33398 z m 43.04883,0 3.83203,6.64062 3.83399,6.64063 h -15.33399 z m 86.09571,0 7.66796,13.28125 H 556.9043 l 3.83398,-6.64063 z m 43.04687,0 7.66797,13.28125 h -15.33399 -0.002 l 3.83399,-6.64063 z m 43.04688,0 h 0.002 l 7.66601,13.28125 H 643 l 3.83203,-6.64063 z m 215.24023,0.002 7.66602,13.2793 h -15.33399 l 3.83399,-6.64063 z m -739.47852,29.2793 h 15.33399 l -3.83399,6.64062 -3.83398,6.63867 z m 129.14258,0 h 15.33399 l -7.66602,13.27929 h -0.002 z m 33.8086,0 h 0.002 9.23633 24.57226 l 4.61914,7.99804 v 0.002 l 7.66797,13.27929 4.61914,8 -16.90625,29.28125 h -9.23633 -15.33593 -9.23828 l -12.28516,-21.28125 -1.90234,-3.29687 -2.7168,-4.70313 4.61914,-8 3.83203,-6.63867 3.83594,-6.64062 v -0.002 z m 129.14453,0 h 24.57226 9.23633 0.002 l 4.61719,7.99804 2.67969,4.64258 4.98828,8.63867 4.61914,8 -4.40625,7.63086 -0.21289,0.36914 -12.28516,21.28125 h -0.002 -9.23633 -15.33593 -9.23633 l -8.45313,-14.64062 -8.45117,-14.63867 v -0.002 l 4.61914,-8 7.66602,-13.27929 z m 52.28515,0 h 15.33399 l -7.66602,13.27929 h -0.002 z m 43.04883,0 h 15.33399 l -7.66797,13.27929 z m 43.04688,0 h 15.33593 l -7.66796,13.27929 z m 33.81054,0 h 9.23828 15.33399 9.23633 l 3.57226,6.1875 1.04688,1.8125 12.28711,21.27929 -4.61914,8 -3.83399,6.64063 -3.83398,6.64062 -4.61914,8 h -33.8086 l -4.61914,-8 -3.83398,-6.64062 -3.83399,-6.64063 -4.61718,-7.99804 v -0.002 l 4.2539,-7.36718 8.03125,-13.91211 z m 52.28516,0 h 15.33398 l -7.66601,13.27929 h -0.002 z m 43.04883,0 h 15.33398 l -7.66797,13.27929 z m 129.14258,0 h 15.33398 l -7.66601,13.27929 h -0.002 z m 43.04687,0 h 15.33399 l -7.66602,13.27929 z m -831.763671,8 7.666016,13.27929 H 18.806641 Z m 86.095701,0 7.66797,13.27929 h -15.33594 l 3.83399,-6.63867 z m 43.04688,0 h 0.002 l 7.66602,13.27929 h -15.33399 l 3.83399,-6.63867 z m 86.0957,0 7.66797,13.27929 h -15.33594 l 3.83399,-6.63867 z m 258.28711,0 7.66602,13.27929 h -15.33204 z m 43.04688,0 h 0.002 l 7.66601,13.27929 h -15.33398 z m 129.14453,0 7.66797,13.27929 h -15.33594 l 3.83398,-6.63867 z m 43.04687,0 h 0.002 l 7.66602,13.27929 h -15.33398 l 3.83398,-6.63867 z m 86.0957,0 7.66797,13.27929 h -15.33398 z m 43.04688,0 h 0.002 l 3.83203,6.64062 3.83399,6.63867 h -15.33399 z m 43.04883,0 h 0.002 l 7.66602,13.27929 H 879.76367 Z M 18.806641,609.33398 h 15.333984 l -3.832031,6.64063 -3.833985,6.64062 z m 33.810547,0 h 9.238281 15.333984 9.236328 0.002 l 15.716799,27.22461 1.1875,2.05664 -4.619142,8 -3.833985,6.63868 -3.832031,6.64062 -4.619141,8 H 61.855469 52.617188 l -4.619141,-8 -12.285156,-21.2793 8.451171,-14.64062 z m 52.285152,0 h 15.33399 l -7.66602,13.28125 -3.83398,-6.64062 z m 43.04883,0 h 15.33399 l -7.66797,13.28125 z m 33.81055,0 h 9.23633 15.33398 9.23828 l 12.28711,21.28125 4.61719,8 -4.61719,8 -7.66797,13.2793 -4.61914,8 h -9.23828 -24.57031 l -3.06445,-5.30664 -1.55469,-2.69141 v -0.002 l -7.66797,-13.2793 -1.55469,-2.69335 -3.06445,-5.30665 8.45312,-14.64062 z m 52.2832,0 h 15.33594 l -7.66797,13.28125 z m 129.14453,0 h 15.33594 l -7.66797,13.28125 z m 129.14258,0 h 15.33594 L 500,622.61523 Z m 33.81055,0 h 0.002 9.23633 24.57226 l 4.61915,8 3.83398,6.64063 3.83398,6.64062 4.61719,8 -15.08008,26.11915 -1.82422,3.16015 h -9.23828 -15.33398 -9.23828 l -8.45117,-14.64062 -8.45313,-14.63672 v -0.002 l 4.61914,-8 7.66602,-13.28125 z m 129.14258,0 h 0.002 24.57227 9.23632 l 4.61914,8 3.08594,5.34571 4.58203,7.93554 4.61914,8 -4.61914,8 -10.13672,17.5586 -2.14843,3.7207 h -0.002 -9.23632 -15.33594 -9.23828 l -8.45313,-14.64062 -8.45117,-14.63672 v -0.002 l 4.61914,-8 3.83203,-6.64062 3.83594,-6.64063 v -0.002 z m 52.28711,0 h 15.33398 l -7.66797,13.28125 z m 43.04687,0 h 15.33398 l -7.66601,13.2793 z m 43.04883,0 H 809 l -7.66602,13.2793 z m 33.80859,0 h 0.002 9.23632 15.33399 9.23828 l 4.35547,7.54493 0.26367,0.45507 1.01563,1.75977 11.26953,19.52148 -4.61719,8 -7.66797,13.2793 -4.61914,8 H 827.4766 l -4.61914,-8 -3.83398,-6.64062 -8.45117,-14.63868 3.48437,-6.0332 4.9668,-8.60742 3.83398,-6.64063 z m 52.28711,0 h 15.33399 l -3.83399,6.64063 -3.83398,6.64062 z m 43.04688,0 h 15.33398 l -3.83203,6.64063 -3.83398,6.64062 z m -788.7168,8 7.66797,13.28125 h -15.33399 z m 129.14258,0 7.66797,13.28125 h -15.33594 z m 86.0957,0 h 0.002 l 3.83399,6.64063 L 357,630.61523 H 341.66602 L 345.5,623.97461 Z m 129.14453,0 3.83203,6.64063 3.83399,6.64062 h -15.33399 z m 301.33399,0 7.66797,13.28125 h -15.33594 z m 129.14257,0 7.66797,13.28125 h -15.33398 l 3.83398,-6.64062 z m 43.04883,0 7.66797,13.28125 h -15.33594 l 3.83399,-6.64062 z m -559.62109,0.002 7.66602,13.27929 h -15.33204 z m 344.38281,0 3.83399,6.63867 3.83203,6.64062 H 729.0957 Z m -619.57422,29.27929 h 33.8086 0.002 l 4.61719,7.99805 v 0.002 l 7.66797,13.2793 4.61914,8 v 0.002 l -3.48438,6.03125 -4.9668,8.60743 -3.83593,6.64062 v 0.002 L 151,705.17578 h -0.002 -9.23633 -15.33594 -9.23633 l -4.61914,-8 -12.28711,-21.28125 4.61914,-8 7.66797,-13.2793 v -0.002 z m 138.38086,0 h 15.33399 l -7.66602,13.2793 h -0.002 z m 33.8086,0 h 0.002 9.23633 15.33593 9.23633 l 8.45313,14.63868 8.45312,14.64062 -4.61914,8 -7.66797,13.28125 -4.61914,8 h -24.57226 -9.23633 l -4.61914,-8 -7.66797,-13.28125 -4.61914,-8 4.61914,-8 z m 52.28711,0 H 357 l -7.66602,13.2793 h -0.002 z m 43.04882,0 h 15.33204 l -7.66602,13.2793 z m 33.8086,0 h 9.23633 15.33593 9.23633 0.002 l 7.29688,12.63868 4.98828,8.64062 4.61914,8 -4.61914,8 -7.66797,13.28125 v 0.002 l -4.61719,7.99805 h -0.002 -9.23633 -24.57226 l -4.61914,-8 v -0.002 l -3.83399,-6.63867 -3.83203,-6.64063 -4.61914,-8 z m 52.28515,0 h 15.33399 l -7.66602,13.2793 h -0.002 z m 129.14258,0 h 15.33594 l -7.66797,13.2793 -3.83398,-6.64062 z m 129.14453,0 h 15.33399 l -3.83203,6.63868 -3.83399,6.64062 z m 33.81055,0 h 9.23633 24.57226 l 3.57227,6.1875 1.04687,1.8125 3.83399,6.63868 3.83398,6.64062 2.22657,3.85742 2.39062,4.14258 -8.45117,14.64063 -8.45313,14.64062 h -9.23632 -15.33594 -9.23633 l -12.28711,-21.28125 -4.61914,-8 4.61914,-8 7.66797,-13.2793 0.73047,-1.26562 z m 129.14258,0 h 24.57226 9.23829 l 4.61914,8 3.83398,6.63868 3.83203,6.64062 4.61914,8 v 0.002 l -4.61914,7.99805 -1.27734,2.21289 -11.00781,19.06836 h -9.23829 -15.33398 -9.23828 l -3.48438,-6.0332 -13.41992,-23.24805 12.28516,-21.2793 3.48633,-6.03906 z m 52.28711,0 h 15.33203 l -7.66602,13.2793 z m -917.861331,8 7.666016,13.2793 H 18.806641 Z m 215.238281,0 7.66797,13.2793 h -15.33398 z m 129.14258,0 h 0.002 l 7.66602,13.2793 H 363.1895 Z m 129.14453,0 7.66602,13.2793 h -15.33204 z m 86.0957,0 7.66602,13.2793 h -15.33203 z m 43.04688,0 h 0.002 l 7.66602,13.2793 h -15.33399 z m 86.0957,0 h 0.002 l 7.66602,13.2793 h -15.33398 z m 258.28711,0 7.66602,13.2793 h -15.33203 l 3.83203,-6.64062 z m -954.718749,29.2793 h 15.333984 l -3.832031,6.64063 -3.833985,6.64062 z m 43.048828,0 h 15.333984 l -7.667969,13.28125 z m 129.144531,0 h 15.33203 0.002 l -3.83398,6.64063 -3.83398,6.64062 z m 43.04688,0 h 15.33398 l -3.83398,6.64063 -3.83399,6.63867 z m 119.90429,0 h 0.002 33.8086 l 4.61914,8 3.83398,6.64063 3.83204,6.64062 4.61914,7.99805 v 0.002 0.002 l -0.54493,0.94141 -11.74023,20.33594 v 0.002 l -4.61719,7.99805 h -0.002 -9.23633 -15.33594 -9.23633 -0.002 L 345.5,727.81641 l -6.62891,-11.48047 -1.82421,-3.15821 v -0.002 l 3.48437,-6.0332 1.13477,-1.9668 3.83398,-6.64062 3.83203,-6.64063 z m 138.38281,0 h 15.33204 L 500,697.17383 Z m 33.8086,0 h 0.002 9.23633 15.33398 9.23828 l 16.9043,29.28125 -3.4375,5.95508 -1.17969,2.04492 -5.43359,9.4082 -6.85352,11.8711 h -24.57226 -9.23828 l -1.13281,-1.96094 -7.31836,-12.67773 -3.83399,-6.64063 -4.61914,-8 v -0.002 l 1.21875,-2.10938 3.39844,-5.88867 3.83594,-6.64062 z m 52.28711,0 h 15.33203 0.002 l -7.66797,13.28125 z m 43.04687,0 h 15.33399 l -3.83399,6.64063 -3.83398,6.64062 z m 33.8086,0 h 9.23828 15.33594 9.23632 l 8.45313,14.64063 3.83398,6.64062 4.61914,8 -3.57226,6.1875 -1.04688,1.8125 -3.83398,6.64063 -3.83399,6.64062 -4.61914,7.99805 h -9.23632 -24.57227 -0.002 l -4.26758,-7.39258 -0.34961,-0.60547 L 643,721.17578 l -4.61914,-8 v -0.002 l 8.45117,-14.63867 z m 52.28711,0 h 15.33398 l -7.66797,13.28125 z m 129.14257,0 h 15.33399 l -3.83399,6.64063 -3.83203,6.64062 z m 129.14454,0 h 15.33203 l -7.66602,13.2793 z m -917.861333,8 7.667969,13.28125 H 40.330078 Z m 43.046875,0 h 0.002 l 7.666016,13.28125 H 83.378906 Z m 129.144528,0 7.66797,13.28125 h -15.33594 l 3.83399,-6.64062 z m 258.28711,0 7.66797,13.28125 h -15.33594 z m 129.14258,0 7.66797,13.28125 h -15.33594 l 3.83399,-6.64062 z m 215.23828,0 7.66797,13.28125 h -15.33398 l 3.83203,-6.64062 z m 43.04883,0 7.66602,13.28125 h -15.33399 z m -688.76367,0.002 7.66601,13.2793 h -15.33398 z m 86.09375,0 7.66797,13.2793 h -15.33399 z m 473.52734,0 7.66602,13.2793 H 729.0957 Z m 215.23828,0 7.66602,13.2793 h -15.33399 z m -920.9082,29.2793 h 24.572266 9.236328 l 4.61914,7.99805 7.667969,13.28125 0.929688,1.61133 3.560547,6.16601 0.128906,0.22266 v 0.002 l -4.619141,7.99805 -12.287109,21.28125 H 55.666016 31.09375 31.09175 L 19.708984,760.01758 14.1875,750.45508 26.474609,729.17383 Z m 52.285156,0 h 15.333985 l -3.833985,6.64063 -3.832031,6.63867 h -0.002 z m 43.048824,0 h 15.33399 l -3.83399,6.64063 -3.83398,6.63867 z m 43.04688,0 h 15.33398 l -3.83203,6.64063 -3.83398,6.63867 h -0.002 z m 33.81055,0 h 9.23828 15.33398 9.23633 l 4.61914,7.99805 0.0312,0.0566 3.80274,6.58594 8.45117,14.64062 -4.61719,7.99805 -3.83398,6.64062 -3.83399,6.64063 -4.61914,8 h -33.80859 l -4.61914,-8 -7.66797,-13.28125 -4.61719,-7.99805 v -0.002 l 11.95703,-20.71094 0.32813,-0.56836 1.02148,-1.76953 z m 52.28515,0 h 15.33399 l -7.66797,13.2793 -3.83399,-6.63867 z m 43.04688,0 h 15.33398 l -7.66601,13.2793 z m 129.14453,0 h 15.33398 l -7.66797,13.2793 z m 43.04687,0 h 15.33399 l -7.66602,13.2793 h -0.002 z m 119.90625,0 h 33.8086 l 4.61914,7.99805 7.66797,13.28125 4.61914,8 -12.28711,21.28125 -4.61914,8 h -9.23633 -15.33399 -9.23828 l -3.2539,-5.63672 -1.36524,-2.36328 -12.28515,-21.28125 6.85351,-11.8711 5.43164,-9.4082 3.48633,-6.03906 z m 138.38086,0 h 15.33399 l -3.83203,6.64063 -3.83399,6.63867 z m 33.81055,0 h 9.23633 15.33398 9.23828 l 1.62696,2.81641 4.00781,6.94336 11.26953,19.51953 v 0.002 l -4.61719,7.99805 -7.66797,13.28125 -4.61914,8 h -24.57226 -9.23633 l -4.61914,-8 -3.83399,-6.64063 -3.83398,-6.64062 -3.24805,-5.625 -1.37109,-2.375 3.57227,-6.1875 1.04687,-1.8125 2.08984,-3.61914 6.3086,-10.92578 z m 52.28516,0 h 15.33398 l -7.66601,13.2793 h -0.002 z m 43.04687,0 h 15.33399 l -3.83204,6.64063 -3.83398,6.63867 z m 33.81055,0 h 9.23828 15.33398 9.23829 l 2.69921,4.67578 9.58594,16.60352 4.61914,8 v 0.002 l -1.21875,2.10938 -3.39844,5.88867 -5.83398,10.10351 -1.83398,3.17774 -4.61914,8 h -0.002 -9.23633 -24.57226 l -4.61914,-8 -3.83203,-6.64063 -3.83594,-6.64062 -4.61719,-8 8.45313,-14.63867 6.62695,-11.48047 z m 52.28711,0 h 15.33203 l -7.66602,13.2793 z m -831.76563,8 7.66602,13.2793 H 104.9043 Z m 43.04688,0 7.66797,13.2793 h -15.33399 z m 129.14258,0 h 0.002 l 7.66601,13.2793 H 277.0938 Z m 43.04882,0 h 0.002 l 7.66601,13.2793 h -15.33398 z m 86.09375,0 h 0.002 l 7.66601,13.2793 h -15.33203 z m 43.04883,0 h 0.002 l 7.66602,13.2793 h -15.33398 z m 43.04883,0 7.66602,13.2793 h -15.33204 z m 215.23828,0 7.66797,13.2793 h -15.33398 l 3.83398,-6.63867 z m 129.14453,0 7.66602,13.2793 h -15.33399 z m 129.14258,0 7.66602,13.2793 h -15.33203 z m -868.62305,29.2793 h 15.33399 l -7.66602,13.28125 z m 33.81055,0 h 9.23828 24.57227 l 4.61914,8.00195 7.66797,13.2793 4.61718,8 -8.45117,14.64062 -8.45312,14.64063 h -9.23828 -15.33399 -9.23828 l -12.28711,-21.28125 -4.61719,-8 4.61719,-8 3.83399,-6.64063 3.83398,-6.63867 v -0.002 z m 129.14258,0 h 0.002 24.57031 9.23829 l 4.61914,8 7.66796,13.28125 4.61719,8 -4.61719,8 -12.2871,21.28125 h -9.23829 -15.33398 -9.23828 l -8.45313,-14.64063 -8.45117,-14.63867 v -0.002 l 4.61914,-8 3.83203,-6.64063 3.83399,-6.63867 z m 52.28711,0 h 15.33398 l -7.66797,13.28125 z m 43.04687,0 h 15.33594 l -7.66797,13.28125 z m 43.04688,0 h 15.33398 l -7.66601,13.28125 z m 33.81055,0 h 9.23828 15.33398 9.23828 l 4.61914,8.00195 12.28516,21.27735 v 0.002 l -4.61914,8 -3.83399,6.64062 -3.83203,6.64063 -4.61914,8 h -0.002 -33.80859 l -4.61915,-8 -3.83398,-6.64063 -3.83398,-6.64062 -4.61719,-8 5.89648,-10.21289 2.55469,-4.42774 3.83398,-6.63867 z m 52.28515,0 h 15.33594 L 500,771.73633 Z m 43.04883,0 h 15.33594 l -7.66797,13.28125 z m 129.14258,0 h 15.33594 l -7.66797,13.28125 z m 43.04687,0 h 15.33594 l -7.66797,13.28125 z m 119.90625,0 h 0.002 33.80859 l 4.61914,8 v 0.002 l 7.66797,13.2793 4.61719,8 -12.28516,21.28125 -4.61914,8 h -9.23828 -15.33399 -9.23632 -0.002 l -4.61914,-8 -3.83398,-6.64063 -3.25196,-5.63476 -5.19921,-9.00586 0.37109,-0.64258 3.11328,-5.39063 1.13281,-1.96679 7.66797,-13.2793 z m 138.38086,0 h 15.33399 l -7.66602,13.2793 z m -874.812498,8 h 0.002 v 0.002 l 7.666016,13.2793 H 83.378906 l 3.832032,-6.64063 z m 258.287108,0 h 0.002 L 357,779.73633 H 341.66602 L 345.5,773.0957 Z m 43.04883,0 7.66797,13.28125 h -15.33399 z m 129.14258,0 7.66797,13.28125 h -15.33594 z m 43.04883,0 7.66601,13.28125 H 556.9043 Z m 86.09375,0 h 0.002 l 7.66601,13.28125 H 643 l 3.83203,-6.64063 z m 43.04882,0 3.83399,6.64062 3.83398,6.64063 h -15.33398 z m 43.04883,0.002 3.83399,6.63867 3.83203,6.64063 H 729.0957 Z m 215.23828,0 7.66602,13.2793 h -15.33399 z m -920.9082,29.2793 h 24.572266 9.236328 l 4.652344,8.05664 6.61914,11.46484 1.015625,1.75977 0.263672,0.45508 4.355469,7.54492 -4.619141,8 -3.833984,6.63867 -3.833985,6.64063 v 0.002 L 68.5,848.06641 64.902344,854.29688 H 55.666016 31.09375 l -4.619141,-8 -12.287109,-21.2793 8.453125,-14.64063 z m 52.285156,0 h 15.333985 l -3.833985,6.64062 -3.832031,6.64063 z m 129.142574,0 h 15.33399 l -7.66602,13.28125 z m 129.14454,0 H 357 l -3.83203,6.64062 -3.83399,6.64063 h -0.002 z m 33.81054,0 h 9.23633 24.57227 l 0.002,0.004 4.61719,7.9961 2.67773,4.64062 4.45508,7.7168 0.53516,0.92383 4.61718,7.99804 v 0.002 l -8.45117,14.63867 -8.45312,14.64063 h -9.23828 -15.33399 -9.23633 l -12.28711,-21.2793 -1.55468,-2.69336 -3.06446,-5.30664 4.61914,-8 3.08594,-5.3457 0.74805,-1.29493 3.83398,-6.64062 z m 129.14258,0 h 24.57227 9.23632 0.002 l 4.61914,8 7.66601,13.28125 4.61914,7.99804 v 0.002 0.002 l -4.61914,7.99805 -11.15234,19.31836 -1.13281,1.96094 h -9.23828 -15.33594 -9.23633 l -5.63476,-9.75977 -11.26954,-19.51953 v -0.002 l 4.61719,-7.99804 3.83399,-6.64063 L 500,803.73633 Z m 52.28516,0 h 15.33398 l -7.66601,13.27929 z m 43.04687,0 h 0.002 15.33204 l -7.66602,13.28125 z m 43.04883,0 h 15.33398 l -3.83398,6.64062 -3.83203,6.64063 z m 33.81055,0 h 9.23633 15.33593 9.23633 0.002 l 4.61719,7.99805 v 0.002 l 12.28711,21.28125 -4.61914,8 -7.66797,13.2793 v 0.002 l -4.61719,7.99805 h -0.002 -33.80859 l -3.57227,-6.1875 -1.04687,-1.81055 v -0.002 l -7.66797,-13.2793 -0.92969,-1.61133 -3.68945,-6.38867 7.70508,-13.3457 4.58203,-7.93555 3.80664,-6.59375 z m 52.28515,0 h 15.33399 l -3.83203,6.64062 -3.83399,6.64063 z m 43.04688,0 h 15.33594 l -3.83399,6.64062 -3.83398,6.64063 z m 129.14453,0 h 15.33398 l -7.66797,13.27929 z m 43.04687,0 h 15.33594 l -3.83398,6.64062 -3.83399,6.64063 z m -831.76367,8 7.13281,12.35742 0.53321,0.92383 h -15.33399 l 3.83399,-6.64063 z m 129.14258,0 3.83399,6.64062 3.83398,6.64063 h -15.33594 z m 86.0957,0 3.83399,6.64062 3.83398,6.64063 h -15.33398 l 0.5332,-0.92383 z m 258.28711,0 3.83399,6.64062 3.83398,6.64063 h -15.33398 z m 43.04688,0 7.66797,13.28125 h -15.33594 z m 129.14453,0 7.66601,13.28125 h -15.33398 z m 129.14258,0 3.83398,6.64062 3.83399,6.64063 h -15.33594 z m 43.04883,0 3.83398,6.64062 3.83203,6.64063 h -15.33398 z m -731.8125,0.002 3.83398,6.63867 3.83203,6.64063 H 191 Z m 602.66796,0 7.66602,13.2793 h -15.33203 z m 172.19141,0 7.66602,13.2793 h -15.33203 z m -868.62305,29.2793 h 15.33399 l -7.66602,13.2793 -3.83398,-6.64063 z m 33.81055,0 h 9.23828 15.33399 9.23828 l 16.90429,29.2793 v 0.002 l -4.61718,7.99805 -3.83399,6.64062 -3.83398,6.64062 -4.61914,8 h -0.002 -24.57031 -9.23828 l -4.61914,-8 -7.66797,-13.28124 -4.61719,-8 3.57032,-6.1875 1.04687,-1.8125 z m 52.28711,0 h 15.33203 l -7.66601,13.2793 -3.83399,-6.64063 z m 43.04688,0 h 15.33398 l -3.83398,6.63867 -3.83399,6.64063 z m 33.80859,0 h 9.23828 15.33398 9.23829 l 12.2871,21.2793 1.02149,1.76953 3.5957,6.23047 v 0.002 l -4.61719,7.99805 -3.83398,6.64062 -3.83398,6.64062 -4.61914,8 h -9.23829 -24.57031 -0.002 l -4.61914,-8 -7.66602,-13.28124 -4.61914,-8 v -0.002 l 15.08008,-26.11719 z m 52.28711,0 h 15.33398 l -7.66797,13.2793 z m 129.14258,0 h 15.33398 l -7.66602,13.2793 h -0.002 z m 129.14257,0 h 15.33399 l -3.83203,6.63867 -3.83399,6.64063 z m 33.81055,0 h 9.23633 24.57422 l 1.13281,1.96094 3.48633,6.03906 3.83203,6.63867 3.83398,6.64063 4.61914,8 v 0.002 L 654.5,876.9375 l -8.45117,14.64062 h -0.002 -9.23633 -15.33594 -9.23633 l -12.28516,-21.28124 -2.35546,-4.08008 -1.45313,-2.51368 -0.81055,-1.40429 v -0.002 l 4.61914,-8 7.66602,-13.2793 z m 129.14258,0 h 0.002 24.57227 9.23633 l 4.61914,8 3.83398,6.63867 8.45117,14.63867 v 0.002 l -4.61914,8 -3.83203,6.64062 -8.45312,14.64062 h -9.23633 -15.33594 -9.23633 -0.002 l -4.65039,-8.05664 -7.05469,-12.21875 -5.19922,-9.00585 4.61914,-8 7.66797,-13.2793 v -0.002 z m 52.28711,0 H 809 l -7.66602,13.2793 z m 43.04687,0 h 15.33399 l -3.83399,6.63867 -3.83203,6.64063 h -0.002 l -4.70508,-8.1504 z m 43.04688,0 h 15.33594 l -7.66797,13.2793 z m 33.81055,0 h 0.002 9.23633 15.33593 9.23633 l 1.98633,3.43945 1.07813,1.86719 1.55468,2.69336 12.28711,21.28125 -12.28711,21.27929 -4.61914,8 h -33.81054 l -4.61915,-8 -3.83203,-6.64062 -3.83398,-6.64062 -2.35547,-4.08008 -1.36133,-2.35547 -0.90234,-1.56445 1.13281,-1.96094 11.15234,-19.31836 1.18555,-2.05274 1.60938,-2.78711 z m 52.28711,0 h 15.33203 l -7.66602,13.2793 z m -874.814458,8 h 0.002 l 3.832031,6.63867 3.833985,6.64063 H 83.378906 Z m 129.144528,0 7.66602,13.2793 h -15.33399 z m 129.14258,0 h 0.002 L 357,854.29688 h -15.33398 z m 86.0957,0 3.83399,6.63867 3.83398,6.64063 h -15.33398 l 3.83203,-6.64063 z m 43.04883,0 3.83203,6.63867 3.83399,6.64063 h -15.33399 z m 86.09571,0 7.66601,13.2793 H 556.9043 l 3.83398,-6.64063 z m 258.28515,0 h 0.002 l 7.66601,13.2793 h -15.33398 z m 43.04883,0 7.66602,13.2793 h -15.33399 z m -825.576172,29.2793 h 15.335938 l -3.833985,6.64062 -3.833984,6.64062 z m 43.048828,0 h 15.333985 l -3.833985,6.64062 -3.832031,6.64062 z m 119.906254,0 h 33.80859 l 4.61914,8 7.66797,13.28124 4.61914,8 -8.45312,14.64063 -8.45313,14.63867 h -9.23633 -15.33594 -9.23632 l -16.9043,-29.2793 v -0.002 l 4.61719,-7.99805 3.83398,-6.64062 3.83399,-6.64062 z m 138.38086,0 H 357 l -3.83203,6.64062 -3.83399,6.64062 h -0.002 z m 33.81054,0 h 9.23633 15.33399 9.23828 l 8.45312,14.64062 8.45117,14.64062 -16.90429,29.2793 h -24.57227 -9.23633 -0.002 l -12.28516,-21.2793 -4.61914,-8 4.61914,-8 3.08594,-5.3457 0.74805,-1.29492 z m 52.28516,0 h 15.33398 l -3.83398,6.64062 -3.83399,6.64062 -3.83398,-6.64062 z m 43.04687,0 h 15.33399 l -3.83399,6.64062 -3.83203,6.64062 z m 33.81055,0 h 9.23828 15.33399 9.23828 l 8.45312,14.64062 3.83203,6.64062 4.61914,7.99805 v 0.002 l -4.61914,8 -3.83203,6.64063 -8.45312,14.63867 h -9.23828 -24.57227 l -12.28711,-21.2793 -4.61914,-8 7.70508,-13.3457 0.74805,-1.29492 z m 52.28516,0 h 15.33398 l -7.66601,13.27929 -3.83399,-6.63867 z m 129.14258,0 h 15.33593 l -7.66797,13.28124 z m 129.14453,0 h 15.33398 l -7.66797,13.27929 z m 33.80859,0 h 0.002 9.23633 24.57227 l 4.61914,8 7.66797,13.28124 4.61914,7.99805 v 0.002 l -14.75586,25.5586 -2.14844,3.7207 h -0.002 -9.23633 -15.33594 -9.23633 H 849 l -12.28516,-21.2793 -2.79492,-4.83984 -1.82422,-3.16016 3.48438,-6.0332 1.13476,-1.9668 7.66797,-13.28124 v -0.002 L 849,870.30078 Z m -779.478516,8 7.667969,13.28124 H 61.855469 Z m 43.048826,0 7.66602,13.28124 h -15.33399 z m 215.23828,0 3.83399,6.64062 3.83398,6.64062 h -15.33398 z m 129.14258,0 7.66797,13.28124 H 449.2832 Z m 129.14453,0 3.83399,6.64062 3.83398,6.64062 h -15.33594 z m 86.09571,0 7.66601,13.28124 h -15.33398 z m 43.04687,0 7.66797,13.28124 h -15.33398 z m -688.763671,0.002 3.833985,6.63867 3.832031,6.64062 H 18.806641 l 3.833984,-6.64062 z m 774.859371,0 3.83399,6.63867 3.83398,6.64062 H 793.66797 Z M 18.806641,907.57812 h 15.333984 l -7.666016,13.2793 z m 86.095699,0 h 15.33399 l -7.66602,13.2793 z m 43.04883,0 h 15.33399 l -7.66602,13.2793 h -0.002 z m 129.14258,0 h 15.33398 l -3.83398,6.64063 -3.83203,6.63867 h -0.002 z m 43.04883,0 h 15.33398 l -3.83398,6.64063 -3.83399,6.63867 z m 258.28515,0 h 15.33594 l -7.66797,13.2793 z m 86.09571,0 h 15.33398 l -7.66601,13.2793 z m 43.04883,0 h 15.33398 l -7.66602,13.2793 h -0.002 z m 86.09375,0 H 809 l -7.66602,13.2793 z m 129.14453,0 h 15.33398 l -3.83203,6.64063 -3.83398,6.63867 z m -788.7168,8 3.83398,6.64063 3.83399,6.63867 h -15.33594 z m 43.04883,0 3.83398,6.64063 3.83203,6.63867 h -15.33398 z m 86.09375,0 h 0.002 l 7.66602,13.2793 h -15.33399 l 3.83203,-6.63867 z m 43.04883,0 7.66601,13.2793 h -15.33398 z m 43.04687,0 h 0.002 l 3.83399,6.64063 3.83203,6.63867 h -15.33398 z m 215.24024,0 7.66601,13.2793 H 556.9043 l 3.83398,-6.63867 z m 129.14257,0 3.83399,6.64063 3.83398,6.63867 h -15.33593 z m 129.14258,0 h 0.002 l 7.66601,13.2793 h -15.33398 z m 86.0957,0 h 0.002 l 3.83398,6.64063 3.83203,6.63867 h -15.33398 z m 43.04883,0 3.83399,6.64063 3.83398,6.63867 h -15.33594 z m -782.52734,29.2793 h 15.33594 l -7.66797,13.28125 z m 43.04687,0 h 0.002 15.33398 l -7.66797,13.28125 z m 43.04688,0 h 15.33594 l -7.66797,13.28125 z m 86.09766,0 h 15.33593 l -7.66797,13.28125 h -0.002 z m 43.04687,0 h 15.33594 l -7.66797,13.28125 z m 129.14258,0 h 15.33594 l -7.66797,13.28125 z m 43.04883,0 h 15.33398 l -7.66601,13.28125 z m 258.28515,0 h 15.33594 l -7.66797,13.28125 z m 86.09571,0 h 15.33593 l -7.66797,13.28125 z m 43.04882,0 h 15.33594 l -7.66797,13.28125 z"
     id="path840" />
</svg>
