<?xml version="1.0" encoding="UTF-8" standalone="no"?>
<svg
   xmlns:dc="http://purl.org/dc/elements/1.1/"
   xmlns:cc="http://creativecommons.org/ns#"
   xmlns:rdf="http://www.w3.org/1999/02/22-rdf-syntax-ns#"
   xmlns:svg="http://www.w3.org/2000/svg"
   xmlns="http://www.w3.org/2000/svg"
   xmlns:sodipodi="http://sodipodi.sourceforge.net/DTD/sodipodi-0.dtd"
   xmlns:inkscape="http://www.inkscape.org/namespaces/inkscape"
   inkscape:version="1.0.1 (3bc2e813f5, 2020-09-07)"
   sodipodi:docname="5-uniform_150.svg"
   id="c:\kuniform\5u\5-uniform_150.svg"
   height="989.39795"
   width="1000.0"
   version="1.0">
  <metadata
     id="metadata8145">
    <rdf:RDF>
      <cc:Work
         rdf:about="">
        <dc:format>image/svg+xml</dc:format>
        <dc:type
           rdf:resource="http://purl.org/dc/dcmitype/StillImage" />
        <dc:title></dc:title>
      </cc:Work>
    </rdf:RDF>
  </metadata>
  <defs
     id="defs8143" />
  <sodipodi:namedview
     inkscape:current-layer="c:\kuniform\5u\5-uniform_150.svg"
     inkscape:window-maximized="1"
     inkscape:window-y="-9"
     inkscape:window-x="-9"
     inkscape:cy="473.56211"
     inkscape:cx="377.29643"
     inkscape:zoom="0.63216744"
     showgrid="false"
     id="namedview8141"
     inkscape:window-height="1001"
     inkscape:window-width="1920"
     inkscape:pageshadow="2"
     inkscape:pageopacity="0"
     guidetolerance="10"
     gridtolerance="10"
     objecttolerance="10"
     borderopacity="1"
     inkscape:document-rotation="0"
     bordercolor="#666666"
     pagecolor="#ffffff" />
  <!-- X Coordinate transform: fx(x)=(x+72.204895)*0.8687279-->
  <!-- Y Coordinate transform: fy(y)=(1081.9521-y)*0.8687279 -->
  <path
     style="color:#000000;font-style:normal;font-variant:normal;font-weight:normal;font-stretch:normal;font-size:medium;line-height:normal;font-family:sans-serif;font-variant-ligatures:normal;font-variant-position:normal;font-variant-caps:normal;font-variant-numeric:normal;font-variant-alternates:normal;font-variant-east-asian:normal;font-feature-settings:normal;font-variation-settings:normal;text-indent:0;text-align:start;text-decoration:none;text-decoration-line:none;text-decoration-style:solid;text-decoration-color:#000000;letter-spacing:normal;word-spacing:normal;text-transform:none;writing-mode:lr-tb;direction:ltr;text-orientation:mixed;dominant-baseline:auto;baseline-shift:baseline;text-anchor:start;white-space:normal;shape-padding:0;shape-margin:0;inline-size:0;clip-rule:nonzero;display:inline;overflow:visible;visibility:visible;isolation:auto;mix-blend-mode:normal;color-interpolation:sRGB;color-interpolation-filters:linearRGB;solid-color:#000000;solid-opacity:1;vector-effect:none;fill:#000000;fill-opacity:0.8;fill-rule:nonzero;stroke:none;stroke-width:16;stroke-linecap:butt;stroke-linejoin:miter;stroke-miterlimit:4;stroke-dasharray:none;stroke-dashoffset:0;stroke-opacity:1;color-rendering:auto;image-rendering:auto;shape-rendering:auto;text-rendering:auto;enable-background:accumulate;stop-color:#000000;stop-opacity:1;opacity:1"
     d="M 45.496094 31.585938 L 38.568359 35.585938 L -5.9785156 61.304688 L 15.740234 98.921875 L 19.740234 105.84961 L 23.740234 112.77734 L 37.458984 136.53906 L 41.458984 143.4668 L 45.458984 150.39453 L 60.867188 177.08594 L 45.458984 203.77344 L 41.458984 210.70117 L 37.458984 217.62891 L 23.740234 241.39062 L 19.740234 248.31836 L 15.740234 255.24609 L -5.9785156 292.86328 L 26.568359 311.6543 L -5.9785156 330.44336 L 15.740234 368.06055 L 19.740234 374.98828 L 23.740234 381.91797 L 37.458984 405.67773 L 41.458984 412.60547 L 45.458984 419.53516 L 60.867188 446.22266 L 45.458984 472.91211 L 37.458984 486.76758 L 23.740234 510.5293 L 19.740234 517.45703 L 15.740234 524.38477 L -5.9785156 562.00195 L 26.566406 580.79297 L -5.9785156 599.58203 L 15.740234 637.19922 L 19.740234 644.12695 L 23.740234 651.05469 L 37.458984 674.81641 L 45.458984 688.67188 L 60.867188 715.36328 L 45.458984 742.04883 L 37.458984 755.90625 L 23.740234 779.66602 L 15.740234 793.52344 L -5.9785156 831.14062 L 26.566406 849.92969 L -5.9785156 868.7207 L 15.740234 906.33789 L 23.740234 920.19336 L 37.458984 943.95508 L 41.458984 950.88281 L 45.458984 957.81055 L 67.175781 995.42773 L 107.72266 972.01953 L 148.26758 995.42773 L 169.98438 957.81055 L 176.05859 947.28906 L 177.98438 943.95508 L 191.70508 920.19336 L 193.63086 916.85938 L 199.70508 906.33789 L 210.49414 887.64844 L 221.2832 906.33789 L 229.2832 920.19336 L 243.00195 943.95508 L 247.00195 950.88281 L 251.00195 957.81055 L 272.7207 995.42773 L 313.26562 972.01953 L 353.81055 995.42773 L 375.5293 957.81055 L 379.5293 950.88281 L 383.5293 943.95508 L 397.24805 920.19336 L 401.24805 913.26562 L 405.24805 906.33789 L 416.03711 887.64844 L 426.82617 906.33789 L 434.82617 920.19336 L 448.54492 943.95508 L 456.54492 957.81055 L 478.26367 995.42773 L 518.80859 972.01953 L 559.35352 995.42773 L 581.07227 957.81055 L 585.07227 950.88281 L 589.07227 943.95508 L 602.79102 920.19336 L 606.79102 913.26562 L 610.79102 906.33789 L 621.58008 887.64844 L 632.36914 906.33789 L 640.36914 920.19336 L 654.08984 943.95508 L 654.08789 943.95508 L 683.80664 995.42773 L 724.35156 972.01953 L 764.89648 995.42773 L 786.61523 957.81055 L 790.61523 950.88281 L 794.61523 943.95508 L 808.33398 920.19336 L 812.33398 913.26562 L 816.33398 906.33789 L 827.12305 887.64844 L 837.91406 906.33789 L 845.91406 920.19336 L 859.63086 943.95508 L 867.63086 957.81055 L 889.34961 995.42773 L 940.82227 965.71094 L 936.82227 958.78125 L 922.0332 933.16406 L 956.23242 933.16406 L 958.54102 929.16406 L 982.56836 887.54883 L 960.85156 849.93164 L 982.56836 812.31445 L 962.54102 777.625 L 1000.1582 755.90625 L 976.74805 715.36133 L 1000.1582 674.81641 L 962.54102 653.09766 L 982.56836 618.4082 L 980.25977 614.4082 L 960.85156 580.79297 L 982.56836 543.17578 L 980.25977 539.17578 L 962.54102 508.48633 L 1000.1582 486.76758 L 976.74805 446.22266 L 1000.1582 405.67773 L 962.54297 383.95898 L 982.56836 349.27148 L 980.25977 345.27148 L 960.85156 311.6543 L 982.56836 274.03711 L 962.54102 239.34766 L 1000.1582 217.62891 L 976.74805 177.08398 L 1000.1582 136.53906 L 962.54102 114.82031 L 982.56836 80.132812 L 956.23242 34.515625 L 951.61328 34.515625 L 903.55859 34.515625 L 886.45898 64.132812 L 867.66797 31.585938 L 860.74023 35.585938 L 827.12305 54.996094 L 786.57812 31.585938 L 782.57812 38.515625 L 767.78711 64.132812 L 750.68945 34.515625 L 746.07031 34.515625 L 698.01562 34.515625 L 680.91602 64.132812 L 662.125 31.585938 L 655.19727 35.585938 L 621.58008 54.996094 L 581.03516 31.585938 L 577.03516 38.515625 L 562.24414 64.132812 L 545.14648 34.515625 L 540.52734 34.515625 L 492.4707 34.515625 L 475.37305 64.132812 L 456.58203 31.585938 L 449.6543 35.585938 L 416.03711 54.996094 L 375.49219 31.585938 L 371.49219 38.515625 L 356.70117 64.132812 L 339.60352 34.515625 L 286.92773 34.515625 L 284.61914 38.515625 L 269.83008 64.132812 L 251.03906 31.585938 L 244.11133 35.585938 L 210.49414 54.996094 L 169.94922 31.585938 L 165.94922 38.515625 L 151.1582 64.132812 L 134.05859 34.515625 L 81.384766 34.515625 L 79.076172 38.515625 L 64.287109 64.132812 L 45.496094 31.585938 z M 90.623047 50.515625 L 124.82031 50.515625 L 141.91992 80.132812 L 140.23047 83.060547 L 126.51172 106.82031 L 124.82031 109.74805 L 90.623047 109.74805 L 88.931641 106.82031 L 82.074219 94.941406 L 75.214844 83.060547 L 73.523438 80.130859 L 90.623047 50.515625 z M 296.16602 50.515625 L 330.36523 50.515625 L 347.46484 80.132812 L 345.77344 83.060547 L 341.67969 90.152344 L 332.05664 106.82031 L 330.36523 109.74805 L 296.16602 109.74805 L 294.47461 106.82031 L 287.61719 94.941406 L 280.75781 83.060547 L 279.06641 80.130859 L 296.16602 50.515625 z M 501.70898 50.515625 L 535.9082 50.515625 L 553.00781 80.132812 L 551.31641 83.060547 L 547.22266 90.152344 L 537.59961 106.82031 L 536.36914 108.95117 L 535.9082 109.74805 L 501.70898 109.74805 L 500.01758 106.82031 L 493.16016 94.941406 L 486.30078 83.060547 L 484.60938 80.130859 L 501.70898 50.515625 z M 707.25195 50.515625 L 741.45117 50.515625 L 758.55078 80.132812 L 756.85938 83.060547 L 752.76562 90.152344 L 743.14258 106.82031 L 741.91211 108.95117 L 741.45117 109.74805 L 707.25195 109.74805 L 705.5625 106.82031 L 691.84375 83.060547 L 690.15234 80.130859 L 707.25195 50.515625 z M 912.79492 50.515625 L 946.99414 50.515625 L 964.09375 80.132812 L 948.68555 106.82031 L 946.99414 109.74805 L 912.79492 109.74805 L 911.10547 106.82031 L 897.38672 83.060547 L 895.69727 80.132812 L 912.79492 50.515625 z M 39.640625 53.443359 L 53.357422 77.203125 L 41.763672 83.898438 L 29.597656 90.921875 L 15.878906 67.162109 L 39.640625 53.443359 z M 175.80469 53.443359 L 199.56641 67.162109 L 185.84766 90.921875 L 162.08594 77.203125 L 175.80469 53.443359 z M 245.18359 53.443359 L 258.90039 77.203125 L 235.14062 90.921875 L 221.42188 67.162109 L 245.18359 53.443359 z M 381.34766 53.443359 L 405.10938 67.162109 L 391.39062 90.921875 L 367.63086 77.203125 L 381.34766 53.443359 z M 450.72656 53.443359 L 464.44336 77.203125 L 440.68359 90.921875 L 426.96484 67.162109 L 450.72656 53.443359 z M 586.89062 53.443359 L 610.65234 67.162109 L 596.93359 90.921875 L 573.17383 77.203125 L 586.89062 53.443359 z M 656.26953 53.443359 L 669.98633 77.203125 L 646.22656 90.921875 L 632.50781 67.162109 L 656.26953 53.443359 z M 792.43359 53.443359 L 816.19531 67.162109 L 802.47656 90.921875 L 778.7168 77.203125 L 792.43359 53.443359 z M 861.8125 53.443359 L 875.53125 77.203125 L 851.76953 90.921875 L 838.05078 67.162109 L 861.8125 53.443359 z M 210.49414 80.232422 L 218.35547 93.849609 L 202.63281 93.849609 L 210.49414 80.232422 z M 416.03711 80.232422 L 423.89844 93.849609 L 408.17578 93.849609 L 416.03711 80.232422 z M 621.58008 80.232422 L 629.44141 93.849609 L 613.71875 93.849609 L 621.58008 80.232422 z M 827.12305 80.232422 L 834.98633 93.849609 L 819.26172 93.849609 L 827.12305 80.232422 z M 61.357422 91.060547 L 75.076172 114.82031 L 54.617188 126.63281 L 51.314453 128.53906 L 37.597656 104.77734 L 60.054688 91.8125 L 61.357422 91.060547 z M 154.08594 91.060547 L 154.08789 91.060547 L 177.84766 104.77734 L 164.12891 128.53906 L 140.36914 114.82031 L 154.08594 91.060547 z M 266.90039 91.060547 L 280.61914 114.82031 L 256.85938 128.53906 L 256.85742 128.53906 L 243.14062 104.77734 L 255.01953 97.917969 L 266.90039 91.060547 z M 359.63086 91.060547 L 383.39062 104.77734 L 369.67188 128.53906 L 345.91211 114.82031 L 352.77148 102.94141 L 359.63086 91.060547 z M 472.44336 91.060547 L 486.16211 114.82031 L 462.40234 128.53906 L 462.40039 128.53906 L 448.68359 104.77734 L 460.5625 97.917969 L 472.44336 91.060547 z M 565.17383 91.060547 L 588.93359 104.77734 L 575.21484 128.53906 L 551.45508 114.82031 L 558.48633 102.64258 L 565.17383 91.060547 z M 677.98633 91.060547 L 691.70508 114.82227 L 667.94531 128.53906 L 654.22656 104.77734 L 666.10547 97.917969 L 677.98633 91.060547 z M 770.7168 91.060547 L 794.47656 104.77734 L 780.75781 128.53906 L 756.99805 114.82031 L 764.0293 102.64258 L 770.7168 91.060547 z M 883.5293 91.060547 L 883.53125 91.060547 L 888.48828 99.646484 L 897.24805 114.82031 L 881.9043 123.67969 L 873.48828 128.53906 L 859.76953 104.77734 L 880.22852 92.966797 L 883.5293 91.060547 z M 193.39453 109.84961 L 193.39648 109.84961 L 227.5918 109.84961 L 227.59375 109.84961 L 229.2832 112.77734 L 243.00195 136.53906 L 244.69336 139.4668 L 227.59375 169.08398 L 193.39453 169.08398 L 176.29492 139.4668 L 177.98438 136.53906 L 191.70508 112.77734 L 193.39453 109.84961 z M 398.9375 109.84961 L 398.93945 109.84961 L 433.13477 109.84961 L 433.13672 109.84961 L 434.82617 112.77734 L 448.54492 136.53906 L 450.23633 139.4668 L 433.13672 169.08398 L 398.9375 169.08398 L 381.83789 139.4668 L 383.5293 136.53906 L 397.24805 112.77734 L 398.9375 109.84961 z M 604.48047 109.84961 L 604.48242 109.84961 L 638.67773 109.84961 L 638.67969 109.84961 L 640.36914 112.77734 L 654.08789 136.53906 L 655.7793 139.4668 L 638.67969 169.08398 L 604.48047 169.08398 L 587.38086 139.4668 L 589.07227 136.53906 L 602.79102 112.77734 L 604.48047 109.84961 z M 810.02344 109.84961 L 810.02539 109.84961 L 844.22266 109.84961 L 845.91406 112.77734 L 859.63086 136.53906 L 861.32227 139.4668 L 844.22266 169.08398 L 810.02344 169.08398 L 792.92383 139.4668 L 794.61523 136.53906 L 808.33398 112.77734 L 810.02344 109.84961 z M 99.859375 125.74805 L 115.58398 125.74805 L 107.72266 139.36523 L 99.859375 125.74805 z M 305.40234 125.74805 L 321.12891 125.74805 L 313.26562 139.36719 L 305.40234 125.74805 z M 510.94531 125.74805 L 526.67188 125.74805 L 518.80859 139.36719 L 510.94531 125.74805 z M 716.49023 125.74805 L 732.21484 125.74805 L 724.35156 139.36719 L 716.49023 125.74805 z M 922.0332 125.74805 L 937.75781 125.74805 L 929.89453 139.36719 L 922.0332 125.74805 z M 83.076172 128.67773 L 96.792969 152.4375 L 73.033203 166.15625 L 59.314453 142.39453 L 71.195312 135.53516 L 83.076172 128.67773 z M 132.36914 128.67773 L 156.12891 142.39453 L 142.41016 166.15625 L 118.65039 152.4375 L 132.36914 128.67773 z M 288.61914 128.67773 L 302.33594 152.4375 L 278.57617 166.15625 L 264.85742 142.39453 L 276.73828 135.53516 L 288.61914 128.67773 z M 337.91211 128.67773 L 361.67383 142.39453 L 347.95312 166.15625 L 324.19336 152.4375 L 337.91211 128.67773 z M 494.16211 128.67773 L 507.88086 152.4375 L 484.11914 166.15625 L 470.40039 142.39453 L 482.28125 135.53516 L 494.16211 128.67773 z M 543.45508 128.67773 L 567.21484 142.39453 L 553.49805 166.15625 L 529.73633 152.4375 L 543.45508 128.67773 z M 699.70508 128.67773 L 713.42383 152.4375 L 689.66406 166.15625 L 675.94531 142.39453 L 696.4043 130.58398 L 699.70508 128.67773 z M 748.99805 128.67773 L 772.75977 142.39453 L 759.04102 166.15625 L 735.2793 152.4375 L 748.99805 128.67773 z M 905.24805 128.67773 L 918.9668 152.4375 L 895.20703 166.15625 L 881.48828 142.39453 L 905.24805 128.67773 z M 954.54102 128.67773 L 978.30273 142.39453 L 964.58398 166.15625 L 940.82227 152.4375 L 954.54102 128.67773 z M 167.05664 155.4668 L 179.53906 177.08398 L 167.05664 198.70117 L 154.57617 177.08398 L 167.05664 155.4668 z M 253.92969 155.4668 L 266.41211 177.08398 L 253.92969 198.70117 L 241.44922 177.08398 L 253.92969 155.4668 z M 372.60156 155.4668 L 385.08008 177.08398 L 372.60156 198.70117 L 360.11914 177.08398 L 372.60156 155.4668 z M 459.47266 155.4668 L 471.95508 177.08398 L 459.47266 198.70117 L 446.99219 177.08398 L 459.47266 155.4668 z M 578.14453 155.4668 L 590.625 177.08398 L 578.14453 198.70117 L 565.66211 177.08398 L 578.14453 155.4668 z M 665.01562 155.4668 L 677.49805 177.08398 L 665.01758 198.70312 L 652.53516 177.08398 L 665.01562 155.4668 z M 783.6875 155.4668 L 796.16797 177.08398 L 783.6875 198.70117 L 771.20508 177.08398 L 783.6875 155.4668 z M 870.55859 155.4668 L 883.04102 177.08398 L 870.56055 198.70117 L 858.08008 177.08398 L 870.55859 155.4668 z M 107.72266 164.60352 L 129.33984 177.08398 L 107.72266 189.56445 L 86.105469 177.08398 L 107.72266 164.60352 z M 313.26562 164.60352 L 334.88281 177.08398 L 313.26562 189.56445 L 291.64844 177.08398 L 313.26562 164.60352 z M 518.80859 164.60352 L 540.42578 177.08398 L 518.80859 189.56641 L 497.19141 177.08398 L 518.80859 164.60352 z M 724.35156 164.60352 L 745.96875 177.08398 L 724.35156 189.56641 L 702.73438 177.08398 L 724.35156 164.60352 z M 929.89453 164.60352 L 951.51172 177.08398 L 929.89453 189.56641 L 908.27734 177.08398 L 929.89453 164.60352 z M 193.39648 185.08398 L 227.59375 185.08398 L 244.69336 214.70117 L 243.00195 217.62891 L 229.2832 241.39062 L 227.5918 244.31836 L 193.39453 244.31836 L 191.70508 241.39062 L 177.98438 217.62891 L 176.29492 214.70117 L 193.39648 185.08398 z M 398.9375 185.08398 L 433.13672 185.08398 L 450.23633 214.70117 L 448.54492 217.62891 L 434.82617 241.39062 L 433.13477 244.31836 L 398.93945 244.31836 L 398.9375 244.31836 L 397.24805 241.39062 L 383.5293 217.62891 L 381.83789 214.70117 L 398.9375 185.08398 z M 604.48047 185.08398 L 638.67969 185.08398 L 655.7793 214.70117 L 654.08984 217.62891 L 647.23047 229.50977 L 640.36914 241.39062 L 638.67969 244.31836 L 604.48242 244.31836 L 604.48047 244.31836 L 602.79102 241.39062 L 589.07227 217.62891 L 587.38086 214.70117 L 604.48047 185.08398 z M 810.02344 185.08398 L 844.22266 185.08398 L 861.32227 214.70117 L 859.63281 217.62891 L 845.91406 241.39062 L 844.22266 244.31836 L 810.02539 244.31836 L 810.02344 244.31836 L 808.33398 241.39062 L 794.61523 217.62891 L 792.92383 214.70117 L 810.02344 185.08398 z M 73.033203 188.01172 L 96.792969 201.73047 L 83.076172 225.49219 L 59.314453 211.77344 L 73.033203 188.01172 z M 142.41016 188.01172 L 156.12891 211.77344 L 135.66992 223.58594 L 132.36914 225.49219 L 118.65039 201.73047 L 142.41016 188.01172 z M 278.57617 188.01172 L 302.33594 201.73047 L 288.61914 225.49219 L 264.85742 211.77344 L 278.57617 188.01172 z M 347.95312 188.01172 L 361.67383 211.77344 L 349.79297 218.63281 L 337.91211 225.49219 L 324.19336 201.73047 L 347.95312 188.01172 z M 484.12109 188.01172 L 507.88086 201.73047 L 494.16211 225.49219 L 470.40039 211.77344 L 484.12109 188.01172 z M 553.49805 188.01172 L 567.21484 211.77344 L 543.45508 225.49219 L 529.73633 201.73047 L 553.49805 188.01172 z M 689.66406 188.01172 L 713.42383 201.73047 L 699.70508 225.49219 L 675.94531 211.77344 L 689.66406 188.01172 z M 759.04102 188.01172 L 772.75977 211.77344 L 757.41406 220.63281 L 748.99805 225.49219 L 735.2793 201.73047 L 759.04102 188.01172 z M 895.20703 188.01172 L 918.9668 201.73047 L 905.24805 225.49219 L 881.48828 211.77344 L 895.20703 188.01172 z M 964.58398 188.01172 L 978.30273 211.77344 L 954.54102 225.49219 L 940.82227 201.73047 L 964.58398 188.01172 z M 518.80859 214.80078 L 526.67188 228.41992 L 510.94531 228.41992 L 518.80859 214.80078 z M 107.72266 214.80273 L 115.58398 228.41992 L 99.859375 228.41992 L 107.72266 214.80273 z M 313.26562 214.80273 L 321.12695 228.41992 L 305.40234 228.41992 L 313.26562 214.80273 z M 724.35156 214.80273 L 732.21484 228.41992 L 716.49023 228.41992 L 724.35156 214.80273 z M 929.89453 214.80273 L 937.75781 228.41992 L 922.0332 228.41992 L 929.89453 214.80273 z M 51.314453 225.62891 L 75.076172 239.34766 L 61.357422 263.10938 L 37.597656 249.39062 L 51.314453 225.62891 z M 164.12891 225.62891 L 177.84766 249.39062 L 154.08789 263.10938 L 154.08594 263.10938 L 140.36914 239.34766 L 152.24805 232.48828 L 164.12891 225.62891 z M 256.85742 225.62891 L 256.85938 225.62891 L 280.61914 239.34766 L 275.85938 247.5918 L 266.90039 263.10938 L 243.14062 249.39062 L 252.57617 233.04688 L 256.85742 225.62891 z M 369.67188 225.62891 L 383.39062 249.39062 L 359.63086 263.10938 L 345.91211 239.34766 L 369.67188 225.62891 z M 462.40039 225.62891 L 462.40234 225.62891 L 486.16211 239.34766 L 481.40234 247.5918 L 472.44336 263.10938 L 448.68359 249.39062 L 458.11914 233.04688 L 462.40039 225.62891 z M 575.21484 225.62891 L 588.93359 249.39062 L 565.17383 263.10938 L 551.45508 239.34766 L 571.91406 227.53516 L 575.21484 225.62891 z M 667.94531 225.62891 L 691.70508 239.34766 L 677.98633 263.10938 L 654.22656 249.39062 L 667.94531 225.62891 z M 780.75781 225.62891 L 794.47656 249.39062 L 770.7168 263.10938 L 756.99805 239.34766 L 777.45703 227.53516 L 780.75781 225.62891 z M 873.48828 225.62891 L 897.24805 239.34766 L 890.39062 251.22852 L 883.53125 263.10938 L 883.5293 263.10938 L 859.76953 249.39062 L 864.5293 241.14648 L 873.48828 225.62891 z M 90.623047 244.41992 L 124.82031 244.41992 L 126.51172 247.34766 L 140.23047 271.10938 L 141.91992 274.03711 L 124.82031 303.6543 L 90.623047 303.6543 L 73.523438 274.03711 L 75.214844 271.10938 L 88.931641 247.34766 L 90.623047 244.41992 z M 296.16602 244.41992 L 330.36523 244.41992 L 332.05664 247.34766 L 343.14258 266.54883 L 345.77344 271.10938 L 347.46484 274.03711 L 330.36523 303.6543 L 296.16602 303.6543 L 279.06641 274.03711 L 280.75781 271.10938 L 287.61719 259.22852 L 294.47461 247.34766 L 296.16602 244.41992 z M 501.70898 244.41992 L 535.9082 244.41992 L 537.59961 247.34766 L 544.45703 259.22852 L 551.31641 271.10938 L 553.00781 274.03711 L 535.9082 303.6543 L 501.70898 303.6543 L 484.60938 274.03711 L 486.30078 271.10938 L 493.16016 259.22852 L 500.01758 247.34766 L 501.70898 244.41992 z M 707.25195 244.41992 L 707.25391 244.41992 L 741.45117 244.41992 L 743.14258 247.34766 L 750 259.22852 L 756.85938 271.10938 L 758.55078 274.03711 L 741.45117 303.6543 L 707.25195 303.6543 L 690.15234 274.03711 L 691.84375 271.10938 L 705.5625 247.34766 L 707.25195 244.41992 z M 912.79492 244.41992 L 912.79688 244.41992 L 946.99414 244.41992 L 946.99609 244.41992 L 948.68555 247.34766 L 964.09375 274.03711 L 946.99414 303.6543 L 912.79492 303.6543 L 895.69727 274.03711 L 897.38672 271.10938 L 904.24609 259.22852 L 911.10547 247.34766 L 912.79492 244.41992 z M 202.63281 260.31836 L 218.35547 260.31836 L 210.49414 273.93555 L 202.63281 260.31836 z M 408.17578 260.31836 L 423.89844 260.31836 L 416.03711 273.93555 L 408.17578 260.31836 z M 613.71875 260.31836 L 629.44141 260.31836 L 621.58008 273.93555 L 613.71875 260.31836 z M 819.26172 260.31836 L 834.98633 260.31836 L 827.12305 273.93555 L 819.26172 260.31836 z M 29.597656 263.24609 L 53.357422 276.96484 L 39.640625 300.72656 L 15.878906 287.00781 L 29.597656 263.24609 z M 185.84766 263.24609 L 199.56641 287.00781 L 175.80469 300.72656 L 162.08594 276.96484 L 185.84766 263.24609 z M 235.14062 263.24609 L 258.90039 276.96484 L 245.18359 300.72656 L 221.42188 287.00781 L 235.14062 263.24609 z M 391.39062 263.24609 L 405.10938 287.00781 L 381.34766 300.72656 L 367.63086 276.96484 L 391.39062 263.24609 z M 440.68359 263.24609 L 452.27734 269.94141 L 464.44336 276.96484 L 450.72656 300.72656 L 426.96484 287.00781 L 440.68359 263.24609 z M 596.93359 263.24609 L 610.65234 287.00781 L 586.89062 300.72656 L 573.17383 276.96484 L 596.93359 263.24609 z M 646.22656 263.24609 L 657.82031 269.94141 L 669.98633 276.96484 L 656.26953 300.72656 L 632.50781 287.00781 L 646.22656 263.24609 z M 802.47656 263.24609 L 816.19531 287.00781 L 792.43359 300.72656 L 778.7168 276.96484 L 802.47656 263.24609 z M 851.76953 263.24609 L 875.53125 276.96484 L 861.8125 300.72656 L 838.05078 287.00781 L 851.76953 263.24609 z M 64.287109 290.03711 L 76.765625 311.6543 L 64.287109 333.27148 L 51.804688 311.6543 L 64.287109 290.03711 z M 151.1582 290.03711 L 163.64062 311.6543 L 151.1582 333.27148 L 138.67773 311.6543 L 151.1582 290.03711 z M 269.83008 290.03711 L 282.30859 311.6543 L 269.83008 333.27148 L 257.34766 311.6543 L 269.83008 290.03711 z M 356.70117 290.03711 L 369.18359 311.6543 L 356.70117 333.27148 L 344.22266 311.6543 L 356.70117 290.03711 z M 475.37305 290.03711 L 487.85156 311.6543 L 475.37305 333.27148 L 462.89062 311.6543 L 475.37305 290.03711 z M 562.24414 290.03711 L 574.72656 311.6543 L 562.24414 333.27148 L 549.76562 311.6543 L 562.24414 290.03711 z M 680.91602 290.03711 L 693.39648 311.6543 L 680.91602 333.27148 L 668.43359 311.6543 L 680.91602 290.03711 z M 767.78711 290.03711 L 780.26953 311.6543 L 767.78711 333.27148 L 755.30859 311.6543 L 767.78711 290.03711 z M 886.45898 290.03711 L 898.93945 311.6543 L 886.45898 333.27148 L 873.97656 311.6543 L 886.45898 290.03711 z M 210.49414 299.17188 L 232.11133 311.6543 L 210.49414 324.13477 L 188.87695 311.6543 L 210.49414 299.17188 z M 416.03711 299.17188 L 437.6543 311.6543 L 416.03711 324.13477 L 394.41992 311.6543 L 416.03711 299.17188 z M 621.58008 299.17188 L 643.19727 311.6543 L 621.58008 324.13477 L 599.96289 311.6543 L 621.58008 299.17188 z M 827.12305 299.17188 L 848.74023 311.6543 L 827.12305 324.13477 L 805.50586 311.6543 L 827.12305 299.17188 z M 90.623047 319.6543 L 124.82031 319.6543 L 141.91992 349.27148 L 140.23047 352.19922 L 126.51172 375.95898 L 124.82031 378.88867 L 90.623047 378.88867 L 89.267578 376.53906 L 88.931641 375.95898 L 75.214844 352.19922 L 73.523438 349.27148 L 90.623047 319.6543 z M 296.16602 319.6543 L 330.36523 319.6543 L 347.46484 349.27148 L 345.77344 352.19922 L 338.91406 364.08008 L 332.05664 375.95898 L 330.36523 378.88867 L 296.16602 378.88867 L 294.47461 375.95898 L 280.75781 352.19922 L 279.06641 349.27148 L 296.16602 319.6543 z M 501.70898 319.6543 L 535.9082 319.6543 L 553.00781 349.27148 L 551.31641 352.19922 L 544.45703 364.08008 L 537.59961 375.95898 L 535.9082 378.88867 L 501.70898 378.88867 L 500.01758 375.95898 L 486.30078 352.19922 L 484.60938 349.27148 L 501.70898 319.6543 z M 707.25195 319.6543 L 741.45117 319.6543 L 758.55078 349.27148 L 756.85938 352.19922 L 750 364.08008 L 743.14258 375.95898 L 741.45117 378.88867 L 707.25391 378.88867 L 705.5625 375.95898 L 705.56055 375.95898 L 691.84375 352.19922 L 690.15234 349.27148 L 707.25195 319.6543 z M 912.79492 319.6543 L 946.99414 319.6543 L 964.09375 349.27148 L 948.68555 375.95898 L 948.34961 376.53906 L 946.99414 378.88867 L 912.79688 378.88867 L 911.10547 375.95898 L 911.10352 375.95898 L 897.38672 352.19922 L 895.69727 349.27148 L 912.79492 319.6543 z M 39.640625 322.58203 L 53.357422 346.34375 L 41.476562 353.20312 L 29.597656 360.06055 L 15.878906 336.30078 L 39.640625 322.58203 z M 175.80469 322.58203 L 199.56641 336.30078 L 185.84766 360.06055 L 185.29883 359.74414 L 162.08594 346.3418 L 175.80469 322.58203 z M 245.18359 322.58203 L 258.90039 346.34375 L 247.01953 353.20312 L 235.14062 360.06055 L 221.42188 336.30078 L 245.18359 322.58203 z M 381.34766 322.58203 L 405.10938 336.30078 L 391.39062 360.06055 L 367.63086 346.34375 L 381.34766 322.58203 z M 450.72656 322.58203 L 464.44336 346.34375 L 452.5625 353.20312 L 440.68359 360.06055 L 426.96484 336.30078 L 450.72656 322.58203 z M 586.89062 322.58203 L 610.65234 336.30078 L 596.93359 360.06055 L 573.17383 346.3418 L 586.89062 322.58203 z M 656.26953 322.58203 L 669.98633 346.3418 L 646.22656 360.06055 L 632.50781 336.30078 L 656.26953 322.58203 z M 792.43359 322.58203 L 816.19531 336.30078 L 802.47656 360.06055 L 778.7168 346.3418 L 792.43359 322.58203 z M 861.8125 322.58203 L 875.53125 346.34375 L 872.22852 348.25 L 851.76953 360.06055 L 838.05078 336.30078 L 861.8125 322.58203 z M 416.03711 349.37109 L 423.89844 362.98828 L 408.17578 362.98828 L 416.03711 349.37109 z M 621.58008 349.37109 L 629.44141 362.98828 L 613.71875 362.98828 L 621.58008 349.37109 z M 827.12305 349.37109 L 834.98438 362.98828 L 819.26172 362.98828 L 827.12305 349.37109 z M 210.49414 349.37305 L 218.35547 362.98828 L 202.63281 362.98828 L 210.49414 349.37305 z M 61.357422 360.19922 L 75.074219 383.95898 L 54.617188 395.77148 L 51.314453 397.67773 L 37.597656 373.91797 L 61.357422 360.19922 z M 154.08594 360.19922 L 154.08789 360.19922 L 177.84766 373.91797 L 172.20703 383.68555 L 164.12891 397.67773 L 140.36914 383.95898 L 144.65039 376.54297 L 154.08594 360.19922 z M 266.90039 360.19922 L 280.61719 383.95898 L 268.73828 390.81836 L 256.85938 397.67773 L 256.85742 397.67773 L 243.14062 373.91797 L 266.90039 360.19922 z M 359.63086 360.19922 L 383.38867 373.91797 L 376.53125 385.79688 L 369.67188 397.67773 L 345.91406 383.95898 L 352.77148 372.08008 L 359.63086 360.19922 z M 472.44336 360.19922 L 486.16016 383.95898 L 474.28125 390.81836 L 462.40234 397.67773 L 462.40039 397.67773 L 448.68359 373.91797 L 472.44336 360.19922 z M 565.17383 360.19922 L 588.93359 373.91797 L 575.21484 397.67773 L 551.45703 383.95898 L 563.19727 363.62109 L 565.17383 360.19922 z M 677.98633 360.19922 L 691.70508 383.95898 L 691.70508 383.96094 L 667.94531 397.67773 L 654.22656 373.91797 L 677.98633 360.19922 z M 770.7168 360.19922 L 794.47656 373.91797 L 780.75781 397.67773 L 757 383.95898 L 768.74023 363.62109 L 770.7168 360.19922 z M 883.5293 360.19922 L 883.53125 360.19922 L 897.24805 383.95898 L 873.48828 397.67773 L 871.51172 394.25586 L 859.77148 373.91797 L 880.22852 362.10547 L 883.5293 360.19922 z M 193.39648 378.98828 L 227.5918 378.98828 L 229.2832 381.91797 L 243.00195 405.67773 L 244.69336 408.60742 L 227.59375 438.22266 L 193.39453 438.22266 L 176.29492 408.60547 L 177.98438 405.67773 L 191.70312 381.91797 L 191.70508 381.91797 L 193.39648 378.98828 z M 398.93945 378.98828 L 433.13477 378.98828 L 434.82617 381.91797 L 434.82812 381.91797 L 448.54492 405.67773 L 450.23633 408.60742 L 433.13477 438.22266 L 398.9375 438.22266 L 381.83789 408.60547 L 383.5293 405.67773 L 397.24609 381.91797 L 397.24805 381.91797 L 398.93945 378.98828 z M 604.48242 378.98828 L 638.67773 378.98828 L 640.36914 381.91797 L 640.37109 381.91797 L 647.23047 393.79688 L 654.08789 405.67773 L 655.7793 408.60547 L 638.67969 438.22266 L 604.48242 438.22266 L 587.38086 408.60547 L 589.07227 405.67773 L 602.78906 381.91797 L 602.79102 381.91797 L 604.48242 378.98828 z M 810.02539 378.98828 L 844.22266 378.98828 L 845.44922 381.11328 L 845.91406 381.91797 L 859.63086 405.67773 L 861.32227 408.60547 L 861.32227 408.60742 L 844.22266 438.22266 L 810.02344 438.22266 L 792.92383 408.60742 L 794.61523 405.67773 L 808.33398 381.91797 L 810.02539 378.98828 z M 99.861328 394.88867 L 115.58203 394.88867 L 107.72266 408.50391 L 99.861328 394.88867 z M 305.4043 394.88867 L 321.12695 394.88867 L 313.26562 408.50586 L 305.4043 394.88867 z M 510.94727 394.88867 L 526.66992 394.88867 L 518.80859 408.50586 L 510.94727 394.88867 z M 716.49023 394.88867 L 732.21289 394.88867 L 724.35156 408.50586 L 716.49023 394.88867 z M 922.0332 394.88867 L 937.75586 394.88867 L 929.89453 408.50586 L 922.0332 394.88867 z M 83.076172 397.81641 L 96.792969 421.57617 L 73.033203 435.29492 L 59.314453 411.53516 L 71.195312 404.67578 L 83.076172 397.81641 z M 132.36914 397.81641 L 156.12891 411.53516 L 142.41016 435.29492 L 118.65039 421.57617 L 132.36914 397.81641 z M 288.61914 397.81641 L 302.33594 421.57617 L 278.57617 435.29492 L 264.85742 411.53516 L 285.31641 399.72266 L 288.61914 397.81641 z M 337.91211 397.81641 L 361.67188 411.53516 L 347.95312 435.29492 L 324.19336 421.57617 L 337.91211 397.81641 z M 494.16211 397.81641 L 507.88086 421.57617 L 484.12109 435.29492 L 470.40234 411.53516 L 494.16211 397.81641 z M 543.45508 397.81641 L 567.21484 411.53516 L 553.49805 435.29492 L 529.73633 421.57617 L 543.45508 397.81641 z M 699.70508 397.81641 L 713.42383 421.57617 L 689.66406 435.29492 L 675.94531 411.53516 L 699.70508 397.81641 z M 748.99805 397.81641 L 772.75977 411.53516 L 759.04102 435.29492 L 735.2793 421.57617 L 748.99805 397.81641 z M 905.24805 397.81641 L 918.9668 421.57617 L 895.20703 435.29492 L 881.48828 411.53516 L 905.24805 397.81641 z M 954.54102 397.81641 L 978.30273 411.53516 L 964.58398 435.29492 L 940.82227 421.57617 L 954.54102 397.81641 z M 167.05664 424.60547 L 179.53906 446.22266 L 167.05664 467.83984 L 154.57617 446.22266 L 167.05664 424.60547 z M 253.92969 424.60547 L 266.41211 446.22266 L 253.92969 467.83984 L 241.44922 446.22266 L 253.92969 424.60547 z M 372.60156 424.60547 L 385.08008 446.22266 L 372.60156 467.83984 L 360.11914 446.22266 L 372.60156 424.60547 z M 459.47266 424.60547 L 471.95508 446.22266 L 459.47266 467.83984 L 446.99219 446.22461 L 459.47266 424.60547 z M 578.14453 424.60547 L 590.625 446.22266 L 578.14453 467.83984 L 565.66211 446.22266 L 578.14453 424.60547 z M 665.01562 424.60547 L 677.49805 446.22266 L 665.01562 467.83984 L 652.53516 446.22266 L 665.01562 424.60547 z M 783.6875 424.60547 L 796.16797 446.22266 L 783.6875 467.83984 L 771.20508 446.22266 L 783.6875 424.60547 z M 870.55859 424.60547 L 883.04102 446.22266 L 870.55859 467.83984 L 858.08008 446.22266 L 870.55859 424.60547 z M 107.72266 433.74219 L 129.33984 446.22266 L 107.72266 458.70312 L 86.103516 446.22266 L 107.72266 433.74219 z M 313.26562 433.74219 L 334.88281 446.22266 L 313.26562 458.70312 L 291.64844 446.22266 L 313.26562 433.74219 z M 518.80859 433.74219 L 540.42578 446.22266 L 518.80859 458.70312 L 497.19141 446.22266 L 518.80859 433.74219 z M 724.35156 433.74219 L 745.96875 446.22266 L 724.35156 458.70508 L 702.73438 446.22266 L 724.35156 433.74219 z M 929.89453 433.74219 L 951.51172 446.22266 L 929.89453 458.70508 L 908.27734 446.22266 L 929.89453 433.74219 z M 193.39648 454.22266 L 227.59375 454.22266 L 244.69336 483.83984 L 243.00195 486.76758 L 229.2832 510.5293 L 227.5918 513.45703 L 193.39453 513.45703 L 191.70508 510.5293 L 177.98438 486.76758 L 176.29492 483.83984 L 193.39648 454.22266 z M 398.9375 454.22266 L 433.13672 454.22266 L 450.23633 483.83984 L 448.54492 486.76758 L 434.82617 510.5293 L 433.13477 513.45703 L 398.93945 513.45703 L 398.9375 513.45703 L 397.24805 510.5293 L 383.5293 486.76758 L 381.83789 483.83984 L 398.9375 454.22266 z M 604.48047 454.22266 L 638.67969 454.22266 L 655.7793 483.83984 L 654.08789 486.76758 L 647.23047 498.64844 L 640.36914 510.5293 L 638.67773 513.45703 L 604.48242 513.45703 L 604.48047 513.45703 L 602.79102 510.5293 L 589.07227 486.76758 L 587.38086 483.83984 L 604.48047 454.22266 z M 810.02344 454.22266 L 844.22266 454.22266 L 861.32227 483.83984 L 859.63086 486.76758 L 852.77344 498.64844 L 845.91406 510.5293 L 844.22266 513.45703 L 810.02539 513.45703 L 810.02344 513.45703 L 808.33398 510.5293 L 794.61523 486.76758 L 792.92383 483.83984 L 810.02344 454.22266 z M 73.033203 457.15039 L 96.792969 470.86914 L 83.076172 494.62891 L 59.314453 480.91211 L 73.033203 457.15039 z M 142.41016 457.15039 L 156.12891 480.91211 L 135.66992 492.72266 L 132.36914 494.62891 L 118.65039 470.86914 L 142.41016 457.15039 z M 278.57617 457.15039 L 302.33594 470.86914 L 288.61914 494.62891 L 264.85742 480.91211 L 278.57617 457.15039 z M 347.95312 457.15039 L 361.67383 480.91211 L 337.91211 494.63086 L 324.19336 470.86914 L 347.95312 457.15039 z M 484.11914 457.15039 L 507.88086 470.86914 L 494.16211 494.62891 L 470.40039 480.91211 L 484.11914 457.15039 z M 553.49805 457.15039 L 567.21484 480.91211 L 543.45508 494.62891 L 529.73633 470.86914 L 553.49805 457.15039 z M 689.66406 457.15039 L 713.42383 470.86914 L 699.70508 494.62891 L 675.94531 480.91211 L 689.66406 457.15039 z M 759.04102 457.15039 L 772.75977 480.91211 L 752.30078 492.72266 L 748.99805 494.62891 L 735.2793 470.86914 L 759.04102 457.15039 z M 895.20703 457.15039 L 918.9668 470.86914 L 905.24805 494.62891 L 881.48828 480.91211 L 895.20703 457.15039 z M 964.58398 457.15039 L 978.30273 480.91211 L 954.54102 494.62891 L 940.82227 470.86914 L 964.58398 457.15039 z M 107.72266 483.94141 L 115.58398 497.55859 L 99.859375 497.55859 L 107.72266 483.94141 z M 313.26562 483.94141 L 321.12695 497.55859 L 305.40234 497.55859 L 313.26562 483.94141 z M 518.80859 483.94141 L 526.67188 497.55859 L 510.94727 497.55859 L 518.80859 483.94141 z M 724.35156 483.94141 L 732.21484 497.55859 L 716.49023 497.55859 L 724.35156 483.94141 z M 929.89453 483.94141 L 937.75781 497.55859 L 922.0332 497.55859 L 929.89453 483.94141 z M 51.314453 494.76758 L 75.076172 508.48633 L 73.099609 511.9082 L 61.357422 532.24609 L 37.597656 518.5293 L 51.314453 494.76758 z M 164.12891 494.76758 L 177.84766 518.5293 L 154.08594 532.24609 L 140.36914 508.48633 L 143.66992 506.58008 L 164.12891 494.76758 z M 256.85742 494.76758 L 256.85938 494.76758 L 280.61914 508.48633 L 278.64258 511.9082 L 266.90039 532.24609 L 243.14062 518.5293 L 250 506.64844 L 256.85742 494.76758 z M 369.67188 494.76758 L 383.39062 518.5293 L 359.63086 532.24609 L 345.91211 508.48633 L 357.79297 501.62695 L 369.67188 494.76758 z M 462.40039 494.76758 L 462.40234 494.76758 L 486.16211 508.48633 L 472.44336 532.24609 L 448.68359 518.5293 L 452.96484 511.11133 L 462.40039 494.76758 z M 575.21484 494.76758 L 588.93359 518.5293 L 566.47656 531.49414 L 565.17383 532.24609 L 553.43164 511.9082 L 551.45508 508.48633 L 575.21484 494.76758 z M 667.94531 494.76758 L 691.70508 508.48633 L 677.98633 532.24609 L 654.22656 518.5293 L 667.94531 494.76758 z M 780.75781 494.76758 L 794.47656 518.5293 L 770.7168 532.24609 L 770.71484 532.24609 L 756.99805 508.48633 L 777.45703 496.67383 L 780.75781 494.76758 z M 873.48828 494.76758 L 897.24805 508.48633 L 890.39062 520.36719 L 883.53125 532.24609 L 859.76953 518.5293 L 864.5293 510.28516 L 873.48828 494.76758 z M 90.623047 513.55859 L 124.82031 513.55859 L 126.51172 516.48633 L 141.91992 543.17578 L 124.82031 572.79297 L 90.623047 572.79297 L 73.523438 543.17578 L 75.214844 540.24609 L 88.931641 516.48633 L 90.623047 513.55859 z M 296.16602 513.55859 L 330.36523 513.55859 L 332.05664 516.48633 L 345.77344 540.24609 L 347.46484 543.17578 L 330.36523 572.79297 L 296.16602 572.79297 L 279.06641 543.17578 L 280.75781 540.24609 L 294.47461 516.48633 L 296.16602 513.55859 z M 501.70703 513.55859 L 501.70898 513.55859 L 535.9082 513.55859 L 537.59961 516.48633 L 548.68555 535.6875 L 551.31641 540.24609 L 551.59375 540.72656 L 552.54688 542.37695 L 553.00781 543.17578 L 535.9082 572.79297 L 501.70898 572.79297 L 484.60938 543.17578 L 486.30078 540.24609 L 487.3418 538.44141 L 500.01758 516.48633 L 501.70703 513.55859 z M 707.25195 513.55859 L 741.45117 513.55859 L 743.14258 516.48633 L 756.85938 540.24609 L 757.32422 541.05078 L 758.55078 543.17578 L 741.45117 572.79297 L 707.25195 572.79297 L 690.15234 543.17578 L 691.84375 540.24609 L 697.09375 531.15234 L 705.5625 516.48633 L 707.25195 513.55859 z M 912.79492 513.55859 L 946.99414 513.55859 L 948.68555 516.48633 L 964.09375 543.17578 L 946.99414 572.79297 L 912.79492 572.79297 L 895.69727 543.17578 L 909.72266 518.88086 L 911.10547 516.48633 L 912.79492 513.55859 z M 202.63281 529.45703 L 218.35547 529.45703 L 210.49414 543.07422 L 202.63281 529.45703 z M 408.17578 529.45703 L 423.89844 529.45703 L 416.03711 543.07422 L 408.17578 529.45703 z M 613.71875 529.45703 L 629.44141 529.45703 L 621.58008 543.07422 L 613.71875 529.45703 z M 819.26172 529.45703 L 834.98633 529.45703 L 827.12305 543.07422 L 819.26172 529.45703 z M 29.597656 532.38477 L 53.357422 546.10352 L 39.640625 569.86328 L 15.878906 556.14648 L 29.597656 532.38477 z M 185.84766 532.38477 L 199.56641 556.14648 L 175.80469 569.86328 L 162.08594 546.10352 L 185.84766 532.38477 z M 235.14062 532.38477 L 258.90039 546.10352 L 245.18359 569.86328 L 221.42188 556.14648 L 235.14062 532.38477 z M 391.39062 532.38477 L 405.10938 556.14648 L 381.34766 569.86328 L 367.63086 546.10352 L 391.39062 532.38477 z M 440.68359 532.38477 L 464.44336 546.10352 L 450.72656 569.86328 L 426.96484 556.14648 L 440.68359 532.38477 z M 596.93359 532.38477 L 610.65234 556.14648 L 586.89062 569.86328 L 573.17383 546.10352 L 596.93359 532.38477 z M 646.22656 532.38477 L 669.98633 546.10352 L 656.26953 569.86328 L 632.50781 556.14648 L 646.22656 532.38477 z M 802.47656 532.38477 L 816.19531 556.14648 L 792.43359 569.86328 L 778.7168 546.10352 L 802.47656 532.38477 z M 851.76953 532.38477 L 875.53125 546.10352 L 861.8125 569.86328 L 838.05078 556.14648 L 851.76953 532.38477 z M 64.285156 559.17578 L 76.765625 580.79297 L 64.285156 602.4082 L 51.806641 580.79297 L 64.285156 559.17578 z M 151.1582 559.17578 L 163.63867 580.79297 L 151.1582 602.41016 L 138.67773 580.79297 L 151.1582 559.17578 z M 269.82812 559.17578 L 282.30859 580.79297 L 269.82812 602.4082 L 257.34961 580.79297 L 269.82812 559.17578 z M 356.70312 559.17578 L 369.18164 580.79297 L 356.70312 602.4082 L 344.22266 580.79297 L 356.70312 559.17578 z M 475.37109 559.17578 L 487.85156 580.79297 L 475.37305 602.4082 L 462.89258 580.79297 L 475.37109 559.17578 z M 562.24414 559.17578 L 574.72656 580.79297 L 562.24609 602.4082 L 549.76562 580.79297 L 562.24414 559.17578 z M 680.91406 559.17578 L 693.39648 580.79102 L 680.91406 602.4082 L 668.43555 580.79297 L 680.91406 559.17578 z M 767.78906 559.17578 L 780.26758 580.79297 L 767.78906 602.4082 L 755.30859 580.79297 L 767.78906 559.17578 z M 886.45898 559.17578 L 898.93945 580.79297 L 886.45898 602.41016 L 873.97852 580.79297 L 886.45898 559.17578 z M 210.49414 568.31055 L 232.11133 580.79297 L 210.49414 593.27344 L 188.87695 580.79102 L 210.49414 568.31055 z M 416.03711 568.31055 L 437.6543 580.79297 L 416.03711 593.27344 L 394.41992 580.79102 L 416.03711 568.31055 z M 621.58008 568.31055 L 643.19727 580.79297 L 621.58008 593.27344 L 599.96289 580.79297 L 621.58008 568.31055 z M 827.12305 568.31055 L 848.74023 580.79297 L 827.12305 593.27344 L 805.50586 580.79297 L 827.12305 568.31055 z M 90.623047 588.79297 L 124.82031 588.79297 L 141.91992 618.4082 L 126.51172 645.09766 L 124.82031 648.02539 L 90.623047 648.02539 L 88.931641 645.09766 L 75.214844 621.33789 L 73.523438 618.4082 L 90.623047 588.79297 z M 296.16602 588.79297 L 330.36719 588.79297 L 347.46484 618.4082 L 346.23828 620.5332 L 345.77344 621.33789 L 332.05664 645.09766 L 330.36523 648.02539 L 296.16602 648.02539 L 294.47461 645.09766 L 280.75781 621.33789 L 280.29297 620.5332 L 279.06641 618.4082 L 296.16602 588.79297 z M 501.70703 588.79297 L 535.9082 588.79297 L 553.00781 618.4082 L 551.31641 621.33789 L 546.95117 628.89844 L 537.59961 645.09766 L 536.68359 646.68359 L 535.9082 648.02539 L 501.70898 648.02539 L 500.01758 645.09766 L 486.30078 621.33789 L 485.83594 620.5332 L 484.60938 618.4082 L 501.70703 588.79297 z M 707.25195 588.79297 L 741.45117 588.79297 L 758.55078 618.4082 L 757.32422 620.5332 L 756.85938 621.33789 L 743.14258 645.09766 L 741.45117 648.02539 L 707.25195 648.02539 L 705.5625 645.09766 L 691.84375 621.33789 L 690.15234 618.4082 L 707.25195 588.79297 z M 912.79492 588.79297 L 946.99414 588.79297 L 964.09375 618.4082 L 948.68555 645.09766 L 946.99414 648.02539 L 912.79688 648.02539 L 912.79492 648.02539 L 911.10547 645.09766 L 904.82617 634.22266 L 895.69727 618.4082 L 912.79492 588.79297 z M 39.640625 591.7207 L 53.357422 615.48047 L 41.476562 622.33984 L 29.597656 629.19922 L 15.878906 605.4375 L 39.640625 591.7207 z M 175.80469 591.7207 L 199.56641 605.4375 L 185.84766 629.19922 L 162.08594 615.48047 L 175.80469 591.7207 z M 245.18359 591.7207 L 258.90039 615.48047 L 247.30664 622.17578 L 235.14062 629.19922 L 221.42188 605.4375 L 245.18359 591.7207 z M 381.34766 591.7207 L 405.10938 605.4375 L 391.39062 629.19922 L 367.63086 615.48047 L 381.34766 591.7207 z M 450.72656 591.7207 L 464.44336 615.48047 L 440.68359 629.19922 L 426.96484 605.4375 L 450.72656 591.7207 z M 586.89062 591.7207 L 610.65234 605.4375 L 596.93359 629.19922 L 573.17383 615.48047 L 586.89062 591.7207 z M 656.26953 591.7207 L 669.98633 615.48047 L 658.10547 622.33984 L 646.22656 629.19922 L 632.50781 605.4375 L 656.26953 591.7207 z M 792.43359 591.7207 L 816.19531 605.4375 L 802.47656 629.19922 L 778.7168 615.48047 L 792.43359 591.7207 z M 861.8125 591.7207 L 875.53125 615.48047 L 872.22852 617.38672 L 851.76953 629.19922 L 838.05078 605.4375 L 861.8125 591.7207 z M 210.49414 618.50977 L 218.35547 632.12695 L 202.63281 632.12695 L 210.49414 618.50977 z M 416.03711 618.50977 L 423.89844 632.12695 L 408.17578 632.12695 L 416.03711 618.50977 z M 621.58008 618.50977 L 629.44141 632.12695 L 613.71875 632.12695 L 621.58008 618.50977 z M 827.12305 618.50977 L 834.98633 632.12695 L 819.26172 632.12695 L 827.12305 618.50977 z M 61.357422 629.33789 L 75.076172 653.09766 L 54.617188 664.91016 L 51.314453 666.81641 L 37.597656 643.05469 L 61.357422 629.33789 z M 154.08594 629.33789 L 177.84766 643.05469 L 172.20703 652.82422 L 164.12891 666.81641 L 140.36914 653.09766 L 152.60156 631.9082 L 154.08594 629.33789 z M 266.90039 629.33789 L 278.64258 649.67578 L 280.61914 653.09766 L 268.73828 659.95703 L 256.85742 666.81641 L 243.14062 643.05469 L 265.59766 630.08984 L 266.90039 629.33789 z M 359.63086 629.33789 L 383.39062 643.05469 L 374.43164 658.57227 L 369.67188 666.81641 L 345.91211 653.09766 L 347.88867 649.67578 L 359.63086 629.33789 z M 472.44336 629.33789 L 472.44531 629.33789 L 486.16211 653.09766 L 462.40234 666.81641 L 462.40039 666.81641 L 448.68359 643.05469 L 460.5625 636.19531 L 472.44336 629.33789 z M 565.17188 629.33789 L 565.17383 629.33789 L 588.93359 643.05469 L 575.21484 666.81641 L 551.45508 653.09766 L 558.31445 641.2168 L 565.17188 629.33789 z M 677.98633 629.33789 L 691.70508 653.09766 L 667.94531 666.81641 L 654.22656 643.05469 L 676.68359 630.08984 L 677.98633 629.33789 z M 770.71484 629.33789 L 770.7168 629.33789 L 794.47656 643.05469 L 780.75781 666.81641 L 756.99805 653.09766 L 763.85742 641.2168 L 770.71484 629.33789 z M 883.53125 629.33789 L 897.24805 653.09766 L 873.48828 666.81641 L 859.76953 643.05469 L 871.65039 636.19531 L 883.53125 629.33789 z M 193.39453 648.12695 L 227.5918 648.12695 L 227.59375 648.12695 L 229.2832 651.05469 L 243.00195 674.81641 L 244.69336 677.74414 L 227.59375 707.36133 L 193.39453 707.36133 L 176.29492 677.74414 L 177.98438 674.81641 L 191.70508 651.05469 L 193.39453 648.12695 z M 398.9375 648.12695 L 398.93945 648.12695 L 433.13477 648.12695 L 433.13672 648.12695 L 434.82617 651.05469 L 448.54492 674.81641 L 450.23633 677.74414 L 433.13672 707.36133 L 398.9375 707.36133 L 381.83789 677.74414 L 383.5293 674.81641 L 397.24805 651.05469 L 398.9375 648.12695 z M 604.48047 648.12695 L 604.48242 648.12695 L 638.67969 648.12695 L 639.40625 649.38672 L 640.36914 651.05469 L 647.98047 664.23633 L 654.08789 674.81641 L 655.7793 677.74414 L 638.67969 707.36133 L 604.48047 707.36133 L 587.38086 677.74414 L 589.07227 674.81641 L 602.79102 651.05469 L 604.48047 648.12695 z M 810.02539 648.12695 L 844.22266 648.12695 L 845.91406 651.05469 L 859.63086 674.81641 L 861.32227 677.74414 L 844.22266 707.36133 L 810.02344 707.36133 L 792.92383 677.74414 L 794.61523 674.81641 L 808.33398 651.05469 L 810.02539 648.12695 z M 99.859375 664.02539 L 115.58398 664.02539 L 107.72266 677.64258 L 99.859375 664.02539 z M 305.40234 664.02539 L 321.12695 664.02539 L 313.26562 677.64258 L 305.40234 664.02539 z M 510.94727 664.02539 L 526.67188 664.02539 L 518.80859 677.64258 L 510.94727 664.02539 z M 716.49023 664.02539 L 732.21484 664.02539 L 724.35156 677.64258 L 716.49023 664.02539 z M 922.0332 664.02539 L 937.75781 664.02539 L 929.89453 677.64258 L 922.0332 664.02539 z M 83.076172 666.95508 L 96.792969 690.71484 L 73.033203 704.43359 L 59.314453 680.67188 L 62.617188 678.76562 L 83.076172 666.95508 z M 132.36914 666.95508 L 156.12891 680.67188 L 142.41016 704.43359 L 118.65039 690.71484 L 132.36914 666.95508 z M 288.61914 666.95508 L 302.33594 690.71484 L 278.57617 704.43359 L 264.85742 680.67188 L 288.61914 666.95508 z M 337.91211 666.95508 L 361.67383 680.67188 L 347.95312 704.43359 L 324.19336 690.71484 L 337.91211 666.95508 z M 494.16211 666.95508 L 507.88086 690.71484 L 484.11914 704.43359 L 470.40039 680.67188 L 482.28125 673.8125 L 494.16211 666.95508 z M 543.45508 666.95508 L 567.21484 680.67188 L 553.49805 704.43359 L 529.73633 690.71484 L 543.45508 666.95508 z M 699.70508 666.95508 L 713.42383 690.71484 L 689.66406 704.43359 L 675.94531 680.67188 L 687.82617 673.8125 L 699.70508 666.95508 z M 748.99805 666.95508 L 772.75781 680.67188 L 759.04102 704.43359 L 735.2793 690.71484 L 748.99805 666.95508 z M 905.24805 666.95508 L 918.9668 690.71484 L 895.20703 704.43359 L 881.48828 680.67188 L 905.24805 666.95508 z M 954.54102 666.95508 L 978.30273 680.67188 L 964.58398 704.43359 L 940.82227 690.71484 L 954.54102 666.95508 z M 167.05664 693.74414 L 179.53906 715.36133 L 167.05664 736.97852 L 154.57617 715.36133 L 167.05664 693.74414 z M 253.92969 693.74414 L 266.41211 715.36133 L 253.92969 736.97852 L 241.44922 715.36133 L 253.92969 693.74414 z M 372.60156 693.74414 L 385.08008 715.36133 L 372.60156 736.97852 L 360.11914 715.36133 L 372.60156 693.74414 z M 459.47266 693.74414 L 471.95508 715.36133 L 459.47266 736.97852 L 446.99219 715.36133 L 459.47266 693.74414 z M 578.14453 693.74414 L 590.625 715.36133 L 578.14453 736.97852 L 565.66211 715.36133 L 578.14453 693.74414 z M 665.01562 693.74414 L 677.49805 715.36133 L 665.01758 736.98047 L 652.53516 715.36133 L 665.01562 693.74414 z M 783.6875 693.74414 L 796.16797 715.36133 L 783.6875 736.97852 L 771.20508 715.36133 L 783.6875 693.74414 z M 870.55859 693.74414 L 883.04102 715.36133 L 870.56055 736.97852 L 858.08008 715.36133 L 870.55859 693.74414 z M 107.72266 702.87891 L 129.33984 715.36133 L 107.72266 727.8418 L 86.103516 715.36133 L 107.72266 702.87891 z M 724.35156 702.87891 L 745.9707 715.36133 L 724.35156 727.84375 L 702.73242 715.36133 L 724.35156 702.87891 z M 929.89453 702.87891 L 951.51367 715.36133 L 929.89453 727.84375 L 908.27539 715.36133 L 929.89453 702.87891 z M 313.26562 702.88086 L 334.88281 715.36133 L 313.26562 727.8418 L 291.64648 715.36133 L 313.26562 702.88086 z M 518.80859 702.88086 L 540.42773 715.36133 L 518.80859 727.84375 L 497.19141 715.36133 L 518.80859 702.88086 z M 193.39453 723.36133 L 227.59375 723.36133 L 244.69336 752.97656 L 243.00195 755.90625 L 229.28516 779.66602 L 229.2832 779.66602 L 227.5918 782.5957 L 193.39648 782.5957 L 191.70508 779.66602 L 177.98438 755.90625 L 176.29492 752.97852 L 193.39453 723.36133 z M 398.9375 723.36133 L 433.13672 723.36133 L 450.23633 752.97656 L 448.54492 755.90625 L 434.82812 779.66602 L 434.82617 779.66602 L 433.13477 782.5957 L 398.93945 782.5957 L 397.24805 779.66602 L 383.5293 755.90625 L 381.83789 752.97656 L 398.9375 723.36133 z M 604.48047 723.36133 L 638.67969 723.36133 L 655.7793 752.97852 L 654.08984 755.90625 L 640.36914 779.66602 L 638.67773 782.5957 L 604.48242 782.5957 L 602.79102 779.66602 L 602.78906 779.66602 L 589.07227 755.90625 L 587.38086 752.97656 L 604.48047 723.36133 z M 810.02344 723.36133 L 844.22266 723.36133 L 861.32227 752.97852 L 859.63281 755.90625 L 851.16406 770.57227 L 845.91406 779.66602 L 844.22266 782.5957 L 810.02539 782.5957 L 808.33398 779.66602 L 808.33203 779.66602 L 794.61523 755.90625 L 792.92383 752.97656 L 810.02344 723.36133 z M 73.033203 726.28906 L 96.792969 740.00781 L 83.076172 763.76953 L 59.314453 750.04883 L 73.033203 726.28906 z M 142.41016 726.28906 L 156.12891 750.04883 L 132.36914 763.76758 L 118.65039 740.00781 L 142.41016 726.28906 z M 278.57617 726.28906 L 302.33594 740.00781 L 288.61914 763.76953 L 264.85742 750.04883 L 278.57617 726.28906 z M 347.95312 726.28906 L 361.67188 750.05078 L 337.91211 763.76953 L 324.19336 740.00781 L 347.95312 726.28906 z M 484.12109 726.28906 L 507.88086 740.00781 L 494.16211 763.76953 L 470.40039 750.04883 L 484.12109 726.28906 z M 553.49805 726.28906 L 567.2168 750.04883 L 543.45508 763.76953 L 529.73633 740.00781 L 553.49805 726.28906 z M 689.66406 726.28906 L 713.42383 740.00781 L 699.70508 763.76758 L 675.94531 750.04883 L 689.66406 726.28906 z M 759.04102 726.28906 L 772.75977 750.04883 L 748.99805 763.76953 L 735.2793 740.00781 L 759.04102 726.28906 z M 895.20703 726.28906 L 918.9668 740.00781 L 905.24805 763.76758 L 881.48828 750.04883 L 895.20703 726.28906 z M 964.58398 726.28906 L 978.30273 750.05078 L 954.54102 763.76953 L 940.82227 740.00781 L 964.58398 726.28906 z M 518.80859 753.07812 L 526.67188 766.69727 L 510.94531 766.69727 L 518.80859 753.07812 z M 107.72266 753.08008 L 115.58398 766.69727 L 99.859375 766.69727 L 107.72266 753.08008 z M 313.26562 753.08008 L 321.12695 766.69727 L 305.40234 766.69727 L 313.26562 753.08008 z M 724.35156 753.08008 L 732.21484 766.69727 L 716.49023 766.69727 L 724.35156 753.08008 z M 929.89453 753.08008 L 937.75781 766.69727 L 922.0332 766.69727 L 929.89453 753.08008 z M 51.314453 763.90625 L 75.076172 777.625 L 70.316406 785.86914 L 61.357422 801.38672 L 49.476562 794.52734 L 37.597656 787.66602 L 51.314453 763.90625 z M 164.12891 763.90625 L 177.84766 787.66602 L 154.08594 801.38672 L 140.36719 777.625 L 155.71094 768.76562 L 164.12891 763.90625 z M 256.85742 763.90625 L 256.85938 763.90625 L 280.61914 777.625 L 273.75977 789.50586 L 266.90039 801.38477 L 243.14062 787.66602 L 256.85742 763.90625 z M 369.67188 763.90625 L 383.38867 787.66602 L 359.63086 801.38477 L 345.91211 777.625 L 361.25781 768.76562 L 369.67188 763.90625 z M 462.40039 763.90625 L 462.40234 763.90625 L 486.16211 777.625 L 481.40234 785.86914 L 472.44336 801.38477 L 448.68359 787.66602 L 462.40039 763.90625 z M 575.21484 763.90625 L 588.93359 787.66602 L 565.17383 801.38477 L 551.45508 777.625 L 571.91406 765.8125 L 575.21484 763.90625 z M 667.94531 763.90625 L 691.70508 777.625 L 677.98633 801.38672 L 654.22656 787.66797 L 654.22656 787.66602 L 667.94531 763.90625 z M 780.75781 763.90625 L 794.47656 787.66602 L 770.7168 801.38477 L 756.99805 777.625 L 768.87891 770.76562 L 780.75781 763.90625 z M 873.48828 763.90625 L 897.24805 777.625 L 887.8125 793.96875 L 883.53125 801.38672 L 859.76953 787.66602 L 868.76953 772.07812 L 873.48828 763.90625 z M 90.623047 782.69727 L 124.82031 782.69727 L 126.51172 785.625 L 140.23047 809.38672 L 141.91992 812.31445 L 124.82031 841.93164 L 90.623047 841.93164 L 73.523438 812.31445 L 75.214844 809.38672 L 82.074219 797.50586 L 88.931641 785.625 L 90.623047 782.69727 z M 296.16602 782.69727 L 330.36523 782.69727 L 332.05664 785.625 L 345.77344 809.38672 L 347.46484 812.31445 L 330.36523 841.93164 L 296.16602 841.93164 L 279.06641 812.31445 L 280.75781 809.38672 L 294.47461 785.625 L 296.16602 782.69727 z M 501.70898 782.69727 L 535.9082 782.69727 L 537.59961 785.625 L 551.31641 809.38672 L 553.00781 812.31445 L 535.9082 841.93164 L 501.70898 841.93164 L 484.60938 812.31445 L 486.30078 809.38672 L 497.38672 790.18555 L 500.01758 785.625 L 501.70898 782.69727 z M 707.25391 782.69727 L 741.45117 782.69727 L 743.14258 785.625 L 756.85938 809.38672 L 758.55078 812.31445 L 741.45117 841.93164 L 707.25195 841.93164 L 690.15234 812.31445 L 691.84375 809.38672 L 705.5625 785.625 L 707.25391 782.69727 z M 912.79492 782.69727 L 912.79688 782.69727 L 946.99414 782.69727 L 948.68555 785.625 L 964.09375 812.31445 L 946.99414 841.93164 L 912.79492 841.93164 L 895.69727 812.31445 L 897.38672 809.38672 L 903.66602 798.51172 L 911.10547 785.625 L 912.79492 782.69727 z M 202.63281 798.5957 L 218.35547 798.5957 L 210.49414 812.21094 L 202.63281 798.5957 z M 408.17578 798.5957 L 423.89844 798.5957 L 416.03711 812.21094 L 408.17578 798.5957 z M 613.71875 798.5957 L 629.44141 798.5957 L 621.58008 812.21289 L 613.71875 798.5957 z M 819.26172 798.5957 L 834.98438 798.5957 L 827.12305 812.21289 L 819.26172 798.5957 z M 29.597656 801.52344 L 44.625 810.20117 L 53.357422 815.24219 L 39.640625 839.00195 L 15.878906 825.2832 L 29.597656 801.52344 z M 185.84766 801.52344 L 199.56641 825.2832 L 175.80469 839.00195 L 162.08594 815.24219 L 185.84766 801.52344 z M 235.14062 801.52344 L 258.90039 815.24219 L 245.18359 839.00195 L 221.42188 825.2832 L 235.14062 801.52344 z M 391.39062 801.52344 L 405.10938 825.2832 L 381.34766 839.00195 L 367.63086 815.24219 L 391.39062 801.52344 z M 440.68359 801.52344 L 464.44336 815.24219 L 450.72656 839.00195 L 426.96484 825.2832 L 440.68359 801.52344 z M 596.93359 801.52344 L 610.65234 825.2832 L 586.89062 839.00195 L 573.17383 815.24219 L 596.93359 801.52344 z M 646.22656 801.52344 L 669.98633 815.24219 L 656.26953 839.00195 L 632.50781 825.2832 L 646.22656 801.52344 z M 802.47656 801.52344 L 816.19531 825.2832 L 792.43359 839.00195 L 778.7168 815.24219 L 802.47656 801.52344 z M 851.76953 801.52344 L 875.53125 815.24219 L 861.8125 839.00195 L 838.05078 825.2832 L 851.76953 801.52344 z M 64.287109 828.31445 L 76.765625 849.93164 L 64.287109 871.54883 L 51.806641 849.93164 L 64.287109 828.31445 z M 151.1582 828.31445 L 163.63867 849.93164 L 151.1582 871.54883 L 138.67773 849.93164 L 151.1582 828.31445 z M 269.83008 828.31445 L 282.30859 849.93164 L 269.83008 871.54883 L 257.34961 849.93164 L 269.83008 828.31445 z M 356.70117 828.31445 L 369.18164 849.93164 L 356.70117 871.54883 L 344.22266 849.93164 L 356.70117 828.31445 z M 475.37305 828.31445 L 487.85156 849.93164 L 475.37305 871.54883 L 462.89258 849.93164 L 475.37305 828.31445 z M 562.24414 828.31445 L 574.72461 849.93164 L 562.24414 871.54883 L 549.76562 849.93164 L 562.24414 828.31445 z M 680.91602 828.31445 L 693.39648 849.93164 L 680.91602 871.54883 L 668.43555 849.93164 L 680.91602 828.31445 z M 767.78711 828.31445 L 780.26758 849.93164 L 767.78711 871.54883 L 755.30859 849.93164 L 767.78711 828.31445 z M 886.45898 828.31445 L 898.93945 849.93164 L 886.45898 871.54883 L 873.97852 849.93164 L 886.45898 828.31445 z M 210.49414 837.44922 L 232.11133 849.93164 L 210.49414 862.41211 L 188.87695 849.92969 L 210.49414 837.44922 z M 416.03711 837.44922 L 437.6543 849.92969 L 416.03711 862.41211 L 394.41992 849.92969 L 416.03711 837.44922 z M 621.58008 837.44922 L 643.19727 849.92969 L 621.58008 862.41211 L 599.96289 849.92969 L 621.58008 837.44922 z M 827.12305 837.44922 L 848.74023 849.92969 L 827.12305 862.41211 L 805.50586 849.92969 L 827.12305 837.44922 z M 90.623047 857.93164 L 124.82031 857.93164 L 141.91992 887.54883 L 140.23047 890.47656 L 126.51172 914.23633 L 124.82031 917.16406 L 90.623047 917.16406 L 90.621094 917.16406 L 88.931641 914.23633 L 86.710938 910.38867 L 75.214844 890.47656 L 73.523438 887.54688 L 90.623047 857.93164 z M 296.16602 857.93164 L 330.36523 857.93164 L 347.46484 887.54688 L 345.77344 890.47656 L 338.91406 902.35547 L 332.05664 914.23633 L 330.36523 917.16406 L 296.16602 917.16406 L 296.16406 917.16406 L 294.47461 914.23633 L 292.25391 910.38867 L 280.75781 890.47656 L 279.06641 887.54688 L 296.16602 857.93164 z M 501.70898 857.93164 L 535.9082 857.93164 L 553.00781 887.54688 L 551.31641 890.47656 L 539.82031 910.38867 L 537.59961 914.23633 L 535.91016 917.16406 L 535.9082 917.16406 L 501.70898 917.16406 L 500.01758 914.23633 L 493.16016 902.35547 L 486.30078 890.47656 L 484.60938 887.54688 L 501.70898 857.93164 z M 707.25195 857.93164 L 741.45117 857.93164 L 758.55078 887.54688 L 758.55078 887.54883 L 756.85938 890.47656 L 745.36328 910.38867 L 743.14258 914.23633 L 741.45312 917.16406 L 741.45117 917.16406 L 707.25195 917.16406 L 705.5625 914.23633 L 691.84375 890.47656 L 690.15234 887.54688 L 707.25195 857.93164 z M 912.79492 857.93164 L 946.99414 857.93164 L 964.09375 887.54883 L 946.99414 917.16406 L 912.79688 917.16406 L 912.79492 917.16406 L 911.10547 914.23633 L 897.38672 890.47656 L 897.28125 890.29492 L 895.69727 887.54883 L 912.79492 857.93164 z M 39.640625 860.85938 L 53.357422 884.61914 L 41.476562 891.47852 L 29.597656 898.33789 L 15.878906 874.57812 L 39.640625 860.85938 z M 175.80469 860.85938 L 199.56641 874.57812 L 185.84766 898.33789 L 162.08594 884.61914 L 175.80469 860.85938 z M 245.18359 860.85938 L 258.90039 884.61914 L 247.01953 891.47852 L 235.14062 898.33789 L 221.42188 874.57812 L 245.18359 860.85938 z M 381.34766 860.85938 L 405.10938 874.57812 L 391.39062 898.33789 L 367.63086 884.61914 L 381.34766 860.85938 z M 450.72656 860.85938 L 464.44336 884.61914 L 452.5625 891.47852 L 440.68359 898.33789 L 426.96484 874.57812 L 450.72656 860.85938 z M 586.89062 860.85938 L 610.65234 874.57812 L 596.93359 898.33789 L 573.17383 884.61914 L 586.89062 860.85938 z M 656.26953 860.85938 L 669.98633 884.61914 L 658.10547 891.47852 L 646.22656 898.33789 L 632.50781 874.57812 L 656.26953 860.85938 z M 792.43359 860.85938 L 816.19531 874.57812 L 802.47656 898.33789 L 778.7168 884.61914 L 792.43359 860.85938 z M 861.8125 860.85938 L 875.53125 884.61914 L 872.22852 886.52539 L 851.76953 898.33789 L 838.05078 874.57812 L 861.8125 860.85938 z M 61.357422 898.47656 L 75.076172 922.23633 L 63.195312 929.0957 L 51.314453 935.95508 L 37.597656 912.19336 L 61.357422 898.47656 z M 154.08594 898.47656 L 154.08789 898.47656 L 177.84766 912.19336 L 164.12891 935.95508 L 140.36914 922.23633 L 145.32617 913.65039 L 154.08594 898.47656 z M 266.90039 898.47656 L 280.61914 922.23633 L 268.73828 929.0957 L 256.85742 935.95508 L 243.14062 912.19336 L 266.90039 898.47656 z M 359.63086 898.47656 L 383.39062 912.19336 L 369.67188 935.95508 L 345.91211 922.23633 L 352.59961 910.6543 L 359.63086 898.47656 z M 472.44336 898.47656 L 486.16211 922.23633 L 474.28125 929.0957 L 462.40039 935.95508 L 448.68359 912.19336 L 472.44336 898.47656 z M 565.17383 898.47656 L 588.93359 912.19336 L 575.21484 935.95508 L 551.45508 922.23633 L 565.17383 898.47656 z M 677.98633 898.47656 L 691.70508 922.23633 L 691.70508 922.23828 L 667.94531 935.95508 L 654.22656 912.19336 L 677.98633 898.47656 z M 770.7168 898.47656 L 794.47656 912.19336 L 780.75781 935.95508 L 756.99805 922.23633 L 770.7168 898.47656 z M 883.5293 898.47656 L 883.53125 898.47656 L 897.24805 922.23633 L 873.48828 935.95508 L 859.76953 912.19336 L 871.65039 905.33594 L 883.5293 898.47656 z M 99.859375 933.16406 L 115.58398 933.16406 L 107.72266 946.78125 L 99.859375 933.16406 z M 305.40234 933.16406 L 321.12891 933.16406 L 313.26562 946.7832 L 305.40234 933.16406 z M 510.94531 933.16406 L 526.67188 933.16406 L 518.80859 946.7832 L 510.94531 933.16406 z M 716.49023 933.16406 L 732.21484 933.16406 L 724.35156 946.7832 L 716.49023 933.16406 z M 83.076172 936.09375 L 96.792969 959.85352 L 73.033203 973.57227 L 59.314453 949.81055 L 83.076172 936.09375 z M 132.36914 936.09375 L 156.12891 949.81055 L 142.41016 973.57227 L 118.65039 959.85352 L 132.36914 936.09375 z M 288.61914 936.09375 L 302.33594 959.85352 L 278.57617 973.57227 L 264.85742 949.81055 L 288.61914 936.09375 z M 337.91211 936.09375 L 361.67383 949.81055 L 347.95312 973.57227 L 324.19336 959.85352 L 337.91211 936.09375 z M 494.16211 936.09375 L 507.88086 959.85352 L 484.11914 973.57227 L 470.40039 949.81055 L 494.16211 936.09375 z M 543.45508 936.09375 L 567.21484 949.81055 L 553.49805 973.57227 L 529.73633 959.85352 L 543.45508 936.09375 z M 699.70508 936.09375 L 713.42383 959.85352 L 689.66406 973.57227 L 675.94531 949.81055 L 691.28906 940.95312 L 699.70508 936.09375 z M 748.99805 936.09375 L 772.75781 949.81055 L 759.04102 973.57227 L 735.2793 959.85352 L 748.99805 936.09375 z M 905.24805 936.09375 L 918.9668 959.85352 L 895.20703 973.57227 L 881.48828 949.81055 L 905.24805 936.09375 z "
     id="path832" />
</svg>
