<?xml version="1.0" encoding="UTF-8" standalone="no"?>
<svg
   xmlns:dc="http://purl.org/dc/elements/1.1/"
   xmlns:cc="http://creativecommons.org/ns#"
   xmlns:rdf="http://www.w3.org/1999/02/22-rdf-syntax-ns#"
   xmlns:svg="http://www.w3.org/2000/svg"
   xmlns="http://www.w3.org/2000/svg"
   xmlns:sodipodi="http://sodipodi.sourceforge.net/DTD/sodipodi-0.dtd"
   xmlns:inkscape="http://www.inkscape.org/namespaces/inkscape"
   inkscape:version="1.0.1 (3bc2e813f5, 2020-09-07)"
   sodipodi:docname="5-uniform_250.svg"
   id="c:\kuniform\5u\5-uniform_250.svg"
   height="1000.0"
   width="978.98517"
   version="1.0">
  <metadata
     id="metadata2424">
    <rdf:RDF>
      <cc:Work
         rdf:about="">
        <dc:format>image/svg+xml</dc:format>
        <dc:type
           rdf:resource="http://purl.org/dc/dcmitype/StillImage" />
        <dc:title></dc:title>
      </cc:Work>
    </rdf:RDF>
  </metadata>
  <defs
     id="defs2422" />
  <sodipodi:namedview
     inkscape:current-layer="c:\kuniform\5u\5-uniform_250.svg"
     inkscape:window-maximized="1"
     inkscape:window-y="-9"
     inkscape:window-x="-9"
     inkscape:cy="458.16026"
     inkscape:cx="429.18109"
     inkscape:zoom="0.46037735"
     showgrid="false"
     id="namedview2420"
     inkscape:window-height="1001"
     inkscape:window-width="1920"
     inkscape:pageshadow="2"
     inkscape:pageopacity="0"
     guidetolerance="10"
     gridtolerance="10"
     objecttolerance="10"
     borderopacity="1"
     inkscape:document-rotation="0"
     bordercolor="#666666"
     pagecolor="#ffffff" />
  <!-- X Coordinate transform: fx(x)=(x+68.545654)*0.86095566-->
  <!-- Y Coordinate transform: fy(y)=(1080.75-y)*0.86095566 -->
  <path
     style="color:#000000;font-style:normal;font-variant:normal;font-weight:normal;font-stretch:normal;font-size:medium;line-height:normal;font-family:sans-serif;font-variant-ligatures:normal;font-variant-position:normal;font-variant-caps:normal;font-variant-numeric:normal;font-variant-alternates:normal;font-variant-east-asian:normal;font-feature-settings:normal;font-variation-settings:normal;text-indent:0;text-align:start;text-decoration:none;text-decoration-line:none;text-decoration-style:solid;text-decoration-color:#000000;letter-spacing:normal;word-spacing:normal;text-transform:none;writing-mode:lr-tb;direction:ltr;text-orientation:mixed;dominant-baseline:auto;baseline-shift:baseline;text-anchor:start;white-space:normal;shape-padding:0;shape-margin:0;inline-size:0;clip-rule:nonzero;display:inline;overflow:visible;visibility:visible;isolation:auto;mix-blend-mode:normal;color-interpolation:sRGB;color-interpolation-filters:linearRGB;solid-color:#000000;solid-opacity:1;vector-effect:none;fill:#000000;fill-opacity:1;fill-rule:nonzero;stroke:none;stroke-width:18;stroke-linecap:butt;stroke-linejoin:miter;stroke-miterlimit:4;stroke-dasharray:none;stroke-dashoffset:0;stroke-opacity:1;color-rendering:auto;image-rendering:auto;shape-rendering:auto;text-rendering:auto;enable-background:accumulate;stop-color:#000000"
     d="M 70.40625,-10.638672 V -0.24609375 L 56.265625,7.9179688 42.126953,16.082031 l -9,-5.197265 v 10.392578 l -9,5.197265 9,5.195313 v 32.65625 L 0.34570312,83.251953 -13.154297,91.046875 0.34570312,98.839844 24.126953,112.57031 0.34570312,126.29883 -13.154297,134.09375 0.34570312,141.88867 33.126953,160.81445 v 10.39258 11.87109 10.39063 l -5.582031,3.22266 -27.19921888,15.70312 -13.50000012,7.79492 13.50000012,7.79297 23.78124988,13.73047 9,5.19531 v 0.002 10.39062 22.26367 L 0.34570312,298.49023 -13.154297,306.28516 0.34570312,314.08008 24.126953,327.80859 0.34570312,341.53906 -13.154297,349.33203 0.34570312,357.12695 33.126953,376.05273 v 10.39258 11.86914 10.39258 l -5.582031,3.22266 -27.19921888,15.70312 -13.50000012,7.79492 13.50000012,7.79493 23.78124988,13.72851 9,5.19727 v 10.39258 22.26171 L 0.34570312,513.73047 -13.154297,521.52344 0.34570312,529.31836 24.126953,543.04688 v 0.002 L 0.34570312,556.77734 -13.154297,564.57227 0.34570312,572.36719 33.126953,591.29297 v 10.39258 11.86914 10.39258 l -14.140625,8.16406 -18.64062488,10.76172 -13.50000012,7.79492 13.50000012,7.79297 23.78124988,13.73047 9,5.19531 v 10.39258 22.26367 L 18.986328,718.20703 0.34570312,728.96875 -13.154297,736.76367 0.34570312,744.55664 24.126953,758.28711 0.34570312,772.01758 -13.154297,779.81055 0.34570312,787.60547 33.126953,806.53125 v 10.39063 11.87109 10.39258 l -14.140625,8.16406 -18.64062488,10.76172 -13.50000012,7.79492 13.50000012,7.79492 23.78124988,13.72852 9,5.19726 v 10.39258 22.26172 l -14.140625,8.16406 -18.64062488,10.76172 -13.50000012,7.79492 13.50000012,7.79493 32.78124988,18.92578 4.5,2.59765 13.5,7.79492 23.779297,13.72857 4.5,2.5976 4.5,-2.5976 32.78125,-18.92583 32.78125,18.92583 4.5,2.5976 4.5,-2.5976 23.7793,-13.72857 13.50195,-7.79492 4.49805,-2.59765 19.28125,-11.13282 9,-5.19531 h 0.002 l 8.99805,5.19531 19.28125,11.13282 v 10.39257 l 9,-5.19726 9,5.19726 v -10.39257 l 13.04101,-7.5293 15.23828,-8.79883 19.28125,11.13086 9,5.19727 v 10.39257 l 9,-5.19726 9,5.19726 19.2793,11.12887 v 0 10.3906 l 9,-5.1953 9,5.1953 v -10.3906 l 5.58203,-3.22266 22.69727,-13.10547 h 0.002 l 9,5.19726 23.78125,13.72857 4.5,2.5976 4.49805,-2.5976 32.78125,-18.92583 32.78125,18.92583 4.5,2.5976 4.5,-2.5976 23.78125,-13.72857 10.15625,-5.86328 3.34375,-1.93164 4.5,-2.59765 19.27929,-11.13282 9,-5.19531 h 0.002 l 8.99804,5.19531 19.28125,11.13282 v 10.39257 l 9,-5.19726 9,5.19726 v -10.39257 l 13.04102,-7.5293 15.23828,-8.79883 19.2793,11.13086 9.00195,5.19727 v 10.39257 l 9,-5.19726 3.92969,2.26953 5.07031,2.92773 19.2793,11.12887 v 10.3926 l 9,-5.1953 h 0.002 l 8.99805,5.1953 v -10.3906 l 28.28125,-16.32813 9,5.19726 23.78125,13.72857 4.5,2.5976 4.5,-2.5976 32.7793,-18.92583 32.78124,18.92583 4.5,2.5976 4.5,-2.5976 18.64063,-10.76177 5.13867,-2.9668 7.92578,-4.57617 5.57422,-3.21875 4.5,-2.59765 32.78125,-18.92578 13.5,-7.79493 -13.5,-7.79492 -18.64062,-10.76172 -5.14063,-2.96875 23.78125,-13.72851 13.5,-7.79493 -13.5,-7.79296 -32.78125,-18.92578 V 871.8418 859.9707 849.57812 l 5.58203,-3.22265 27.19922,-15.70313 13.5,-7.79492 -13.5,-7.79297 -18.64062,-10.76367 -5.14063,-2.9668 -0.67773,-0.39062 -8.32227,-4.80469 v -0.002 -10.39063 -22.26171 l 32.78125,-18.92774 13.5,-7.79297 -13.5,-7.79492 -18.64062,-10.76172 -5.14063,-2.96875 23.78125,-13.72851 13.5,-7.79493 -13.5,-7.79492 -32.78125,-18.92578 v -10.39258 -11.86914 -10.39258 l 5.58203,-3.22265 27.19922,-15.70313 13.5,-7.79492 -13.5,-7.79492 -23.78125,-13.72852 -9,-5.19726 v -10.39063 -22.26367 l 32.78125,-18.92578 13.5,-7.79492 -13.5,-7.79297 -18.64062,-10.76172 -5.14063,-2.96875 23.78125,-13.73047 13.5,-7.79297 -13.5,-7.79492 -18.64062,-10.76172 -14.14063,-8.16406 v -10.39258 -11.87109 -10.39063 -0.002 l 32.78125,-18.92383 13.5,-7.79492 -13.5,-7.79492 -23.78125,-13.72852 -9,-5.19726 v -10.39258 -22.26172 l 32.78125,-18.92578 13.5,-7.79492 -13.5,-7.79493 -18.64062,-10.76171 -5.14063,-2.9668 v -0.002 l 23.78125,-13.72852 13.5,-7.79492 -13.5,-7.79297 -18.64062,-10.76367 -14.14063,-8.16211 v -0.002 -10.39062 -11.87109 -10.39063 -0.002 l 14.14063,-8.16211 18.64062,-10.76367 13.5,-7.79297 -13.5,-7.79492 -18.64062,-10.76172 -5.14063,-2.96875 -7.63476,-4.40821 -1.36524,-0.7871 V 140.0293 117.76562 l 32.78125,-18.925776 13.5,-7.792969 -13.5,-7.794922 -18.64062,-10.761719 -5.14063,-2.966796 v -0.002 l 23.78125,-13.728515 13.5,-7.794922 -13.5,-7.794922 -15.09765,-8.716797 -17.6836,-10.208984 V 10.884766 l -9,5.197265 -9,-5.197265 v 10.392578 l -20.84961,12.039062 -7.42969,4.289063 -19.28124,-11.13086 -9,-5.197265 V 10.884766 l -9,5.197265 -9,-5.197265 -19.2793,-11.13085975 V -10.638672 l -9,5.1972658 -9,-5.1972658 V -0.24609375 L 810.43555,2.9765625 787.73828,16.082031 h -0.002 l -9,-5.197265 -23.7793,-13.728516 -4.5,-2.5976562 -4.50195,2.5976562 -32.7793,18.925781 -32.78125,-18.925781 -4.5,-2.5976562 -4.5,2.5976562 -23.7793,13.728516 -7.92578,4.576172 -5.57422,3.21875 -4.5,2.597656 -19.28125,11.132812 -5.10546,2.947266 -3.89454,2.248047 -9,-5.195313 -19.27929,-11.132812 V 10.884766 l -9,5.197265 -9,-5.197265 V 21.277344 L 549.47266,24.5 l -22.69922,13.105469 -19.28125,-11.13086 -9,-5.197265 V 10.884766 l -9,5.197265 -9,-5.197265 -19.2793,-11.13085975 V -10.638672 l -9,5.1972658 -9,-5.1972658 v 10.39257825 l -2.97266,1.71679685 -25.30859,14.6113279 -9,-5.197265 -23.78125,-13.728516 -4.5,-2.5976562 -4.5,2.5976562 -32.7793,18.925781 -32.78125,-18.925781 -4.5,-2.5976562 -4.5,2.5976562 -23.77929,13.728516 -13.5,7.794922 -4.5,2.597656 -19.28125,11.132812 -5.10547,2.947266 -3.89453,2.248047 -9,-5.195313 -19.28125,-11.132812 V 10.884766 L 191.25,16.082031 182.24805,10.884766 V 21.279297 L 176.66797,24.5 153.96875,37.605469 h -0.002 l -19.2793,-11.13086 -6.30078,-3.638671 -2.69922,-1.558594 V 10.884766 l -9,5.197265 -9,-5.197265 -19.2812,-11.13085975 V -10.638672 l -9,5.1972658 z m 232.68359,25.980469 28.28125,16.328125 v 22.263672 10.390625 0.002 l -28.28125,16.328125 -14.14062,-8.164063 -5.13867,-2.96875 h -0.002 l -8.99804,-5.195312 V 53.933594 31.669922 Z m 74.56055,0 19.28125,11.132812 9,5.195313 v 32.65625 l -19.28125,11.130859 -9,5.197266 -9,-5.197266 -5.13867,-2.966797 -14.14063,-8.164062 V 53.933594 31.669922 Z m 298.24414,0 28.28125,16.328125 v 22.263672 10.390625 0.002 l -28.28125,16.328125 -14.14062,-8.164063 -5.13868,-2.96875 h -0.002 l -7.45703,-4.30664 -1.54102,-0.888672 V 53.933594 31.669922 Z m 74.56055,0 19.28125,11.132812 9,5.195313 v 32.65625 l -14.14063,8.164062 -5.14062,2.966797 -9,5.197266 -9,-5.197266 -19.2793,-11.130859 V 53.933594 31.669922 Z m -662.04883,5.195312 10.28125,5.935547 -5.140625,2.96875 -5.140625,2.96875 z m 354.80664,0 v 11.873047 l -10.28125,-5.935547 v -0.002 l 5.14063,-2.966797 z m 372.80469,0 v 11.873047 l -10.28125,-5.9375 z m -745.61133,0.002 V 32.408203 L 60.126953,26.474609 v -0.002 l 5.138672,-2.966797 z m 390.80664,0 10.2793,5.933594 v 0.002 l -10.2793,5.933594 z m 372.80469,0 10.2793,5.933594 v 0.002 l -4.04102,2.332032 -6.23828,3.601562 z M 51.126953,42.0625 l 10.279297,5.935547 -5.140625,2.966797 -5.138672,2.96875 z m 56.560547,0 v 11.871094 l -10.28125,-5.935547 5.14063,-2.966797 z m 18,0 10.28125,5.935547 -5.14063,2.966797 -5.14062,2.96875 z m 74.56055,0 10.27929,5.935547 -10.27929,5.935547 z m 56.5625,0 V 53.933594 L 246.5293,47.998047 Z m 167.12109,0 10.2793,5.935547 -10.2793,5.935547 z m 56.56055,0 v 11.871094 l -10.2793,-5.935547 5.13867,-2.966797 z m 18,0 10.28125,5.935547 -10.28125,5.935547 z m 56.5625,0 v 11.871094 l -10.2793,-5.935547 z m 74.56054,0 v 11.871094 l -10.28125,-5.935547 z m 167.1211,0 10.28125,5.935547 -10.28125,5.935547 z m 74.56055,0 10.27929,5.935547 -5.13867,2.966797 -5.14062,2.96875 z m 74.56054,0 10.2793,5.935547 -10.2793,5.935547 z m -763.60937,0.002 v 11.869141 l -10.2793,-5.935547 z m 390.80664,0 10.27929,5.933594 -10.27929,5.933594 z m 280.24219,0 v 11.869141 l -10.2793,-5.935547 5.13867,-2.966797 z m 74.56054,0 v 11.869141 l -10.2793,-5.935547 z M 79.40625,58.390625 h 0.002 l 8.998047,5.195313 19.281253,11.132812 v 10.392578 11.869141 10.392581 l -18.853519,10.88476 -9.425781,5.44336 h -0.002 L 51.126953,107.37305 V 96.982422 74.71875 l 14.138672,-8.164062 5.140625,-2.96875 z m 74.56055,0 h 0.002 l 14.14063,8.164063 14.13867,8.164062 v 10.392578 22.261722 l -14.13867,8.16406 -5.14063,2.96875 -9,5.19531 h -0.002 l -8.99805,-5.19531 -0.42773,-0.24805 -18.85352,-10.88476 V 96.982422 85.111328 74.71875 Z m 298.24414,0 h 0.002 l 28.2793,16.328125 v 10.392578 11.869141 10.392581 l -18.85352,10.88476 -9.42578,5.44336 h -0.002 l -19.2793,-11.13086 -6.30078,-3.63867 -2.69922,-1.55859 V 96.982422 74.71875 l 19.28125,-11.132812 z m 74.5625,0 14.14062,8.164063 5.14063,2.966796 2.81054,1.625 6.18946,3.572266 v 10.392578 22.261722 l -14.14063,8.16406 -5.14062,2.96875 -8.99805,5.19531 h -0.002 -0.002 l -8.99804,-5.19531 -5.14063,-2.96875 -14.14062,-8.16406 V 96.982422 85.111328 74.71875 Z m 298.24218,0 h 0.002 l 9,5.195313 5.13867,2.96875 14.14063,8.164062 v 10.392578 11.871094 10.390628 l -14.14063,8.16406 -14.13867,8.16406 h -0.002 l -19.27929,-11.13086 -1.65625,-0.95703 -7.34375,-4.24023 V 96.980469 74.71875 l 19.28125,-11.132812 z m 74.5625,0 14.14063,8.164063 14.13867,8.164062 v 10.392578 22.261722 l -14.13867,8.16406 -5.14063,2.96875 -6.32617,3.65039 -2.67383,1.54492 h -0.002 l -5.65429,-3.26562 -3.34376,-1.92969 -5.14062,-2.96875 -14.14062,-8.16406 V 96.980469 85.111328 74.71875 l 14.14062,-8.164062 z m -662.04882,5.195313 10.28125,5.9375 -10.28125,5.935546 z m 372.80468,0 10.2793,5.935546 -10.2793,5.935547 z m -390.80468,0.002 v 11.86914 L 214.38867,72.490234 209.25,69.523438 Z m 372.80468,0 v 11.86914 l -10.27929,-5.933593 v -0.002 l 5.14062,-2.966796 z M 256.81055,85.109375 v 11.871094 l -10.28125,-5.933594 5.14062,-2.96875 z m 372.80468,0 v 11.871094 l -10.28125,-5.933594 v -0.002 l 5.14063,-2.966797 z m -596.488277,0.002 v 11.869141 l -10.28125,-5.933594 z m 167.121097,0 10.28125,5.933594 v 0.002 l -10.28125,5.933594 z m 74.5625,0 10.27929,5.933594 v 0.002 l -10.27929,5.933594 z m 56.56054,0 v 11.869141 l -5.14062,-2.966797 -5.14063,-2.966797 v -0.002 l 5.14063,-2.966797 z m 18,0 5.14063,2.966797 5.13867,2.966797 v 0.002 l -10.2793,5.933594 z m 56.56055,0 v 11.869141 l -10.28125,-5.933594 v -0.002 l 5.14063,-2.966797 z m 167.12305,0 10.27929,5.933594 v 0.002 l -10.27929,5.933594 z m 74.56054,0 5.13868,2.966797 5.14062,2.966797 v 0.002 l -10.2793,5.933594 z m 56.56055,0 v 11.869141 l -10.28125,-5.933594 v -0.002 l 5.14063,-2.966797 z m 18,0 10.2793,5.933594 v 0.002 l -10.2793,5.933594 z m 56.56055,0 v 11.869141 l -5.14063,-2.966797 -5.13867,-2.966797 v -0.002 l 5.14063,-2.966797 z m 167.12109,0 10.28125,5.935547 -10.28125,5.933594 z M 228.5293,101.4395 l 9,5.19532 19.28125,11.13085 v 10.39258 11.8711 10.39258 l -5.58203,3.22265 -13.27149,7.66211 -9.42773,5.44336 -19.28125,-11.13086 v -0.002 l -9,-5.19727 V 140.0293 117.76562 l 19.28125,-11.13085 1.65625,-0.95704 z m 74.56054,0 19.28125,11.13086 2.86914,1.65625 6.13086,3.53906 v 10.39258 22.26368 l -14.14062,8.16406 -5.14063,2.96679 -9,5.19727 -9,-5.19727 -0.42578,-0.24609 -4.71484,-2.7207 -14.13867,-8.16406 V 140.0293 128.1582 117.76562 Z m 298.24414,0 9,5.19532 19.28125,11.13085 v 10.39258 11.8711 10.39258 l -5.58203,3.22265 -22.69922,13.10547 -14.13867,-8.16406 -5.14062,-2.96875 h -0.002 l -8.99804,-5.19531 V 140.0293 117.76562 l 19.27929,-11.13085 z m 74.56055,0 19.28125,11.13086 2.86914,1.65625 6.13086,3.53906 v 10.39258 22.26368 l -14.14062,8.16406 -5.14063,2.96679 -9,5.19727 -9,-5.19727 -0.42578,-0.24609 -4.71484,-2.7207 -14.13868,-8.16406 V 140.0293 128.1582 117.76562 Z m -307.24414,5.19532 v 11.86914 l -5.13867,-2.9668 -5.14063,-2.9668 v -0.002 z m 18,0 10.28125,5.93554 -10.28125,5.93555 z m 372.80469,0 10.28125,5.93554 -10.28125,5.93555 z m -18,0.002 v 11.86719 l -10.2793,-5.9336 z M 33.126953,128.1582 v 11.8711 l -10.28125,-5.93555 z m 18,0 10.279297,5.93555 -10.279297,5.93555 z m 56.560547,0 v 11.8711 l -10.279297,-5.93555 z m 18,0 10.2793,5.93555 -5.13868,2.96875 -5.14062,2.9668 z m 56.56055,0 v 11.86914 l -10.2793,-5.93359 5.14063,-2.96875 z m 167.12304,0 10.2793,5.93555 -10.2793,5.93555 z m 56.56055,0 v 11.8711 l -10.28125,-5.93555 5.14063,-2.96875 z m 18,0 10.2793,5.93555 -10.2793,5.93555 z m 74.56055,0 10.27929,5.93555 -10.27929,5.93555 z m 56.5625,0 v 11.8711 l -10.28125,-5.93555 5.14062,-2.96875 z m 167.12109,0 10.2793,5.93555 -10.2793,5.93555 z m 56.56055,0 v 11.8711 l -10.2793,-5.93555 z m 18,0 10.27929,5.93555 -5.13867,2.96875 -5.14062,2.9668 z m 56.56055,0 v 11.8711 l -10.2793,-5.93555 5.13867,-2.96875 z m 18,0 10.28124,5.93555 -10.28124,5.93555 z m 56.56054,0 v 11.8711 l -10.2793,-5.93555 5.14063,-2.96875 z m -447.36523,0.002 v 11.86914 l -10.2793,-5.93555 z m -401.08594,16.32617 19.28125,11.13086 9,5.19726 v 10.39258 22.26172 l -9.427734,5.44336 -9.853516,5.6875 -9,5.19727 h -0.002 l -8.998047,-5.19532 -5.140625,-2.96875 -14.138672,-8.16211 v -0.002 -10.39063 -11.87109 -10.39258 z m 298.24414,0 h 0.002 l 8.99805,5.19531 13.0918,7.56055 6.18945,3.57226 v 10.39258 11.87109 10.39063 l -18.85352,10.88477 -9.42578,5.44336 h -0.002 l -14.13867,-8.16407 -5.14063,-2.96679 -9,-5.19532 v -0.002 -10.39063 -22.26367 l 14.14063,-8.16406 5.13867,-2.96875 z m 74.56055,0 h 0.002 l 28.2793,16.32812 v 10.39258 22.26172 l -14.14063,8.16406 -5.13867,2.9668 -1.67969,0.9707 -7.32031,4.22657 h -0.002 l -6.12891,-3.53907 -2.86914,-1.65625 -5.14062,-2.96875 -14.14063,-8.16211 v -0.002 -10.39063 -11.87109 -10.39258 z m 298.24414,0 h 0.002 l 8.99805,5.19531 16.58203,9.57422 2.69922,1.55859 v 10.39258 11.87109 10.39063 0.002 l -14.14063,8.16211 -5.33789,3.08203 -8.80078,5.08204 h -0.002 l -9.42578,-5.44336 -9.85352,-5.6875 -1.65625,-0.95704 -7.34375,-4.24023 v -10.39063 -22.26367 z m 74.5625,0 14.13867,8.16406 5.14063,2.9668 9,5.19726 v 10.39258 22.26172 0.002 l -19.2793,11.13086 -9,5.19532 -5.65625,-3.26563 -3.34375,-1.93164 -19.28125,-11.13086 v -10.39063 -11.87109 -10.39258 z m -680.04883,5.19531 v 11.87305 l -10.28125,-5.93555 v -0.002 z m 372.80469,0 v 11.87305 l -10.28125,-5.93555 v -0.002 l 5.14062,-2.9668 z m 18,0 10.28125,5.93555 v 0.002 l -8.6836,5.01172 -1.59765,0.92383 z m 354.80468,0 v 11.87109 l -10.28124,-5.93359 v -0.002 l 5.14062,-2.9668 z m -727.60937,0.002 10.2793,5.9336 v 0.002 l -10.2793,5.93359 z m 745.60937,0 10.2793,5.9336 v 0.002 l -10.2793,5.93359 z m -353.52343,21.52149 v 11.87304 l -10.28125,-5.93554 v -0.002 l 5.14062,-2.96679 z m -429.36719,0.002 10.28125,5.93359 v 0.002 l -10.28125,5.93554 z m 56.56055,0 v 11.86914 l -10.2793,-5.93359 v -0.002 z m 18,0 10.27929,5.93555 -10.27929,5.93554 z m 56.5625,0 v 11.87109 l -10.2793,-5.93554 z m 18,0 10.27929,5.93555 -10.27929,5.93359 z m 56.56054,0 v 11.87109 l -10.27929,-5.93554 z m 167.1211,0 10.28125,5.93359 v 0.002 l -10.28125,5.93554 z m 74.5625,0 10.27929,5.93555 -10.27929,5.93359 z m 56.56054,0 v 11.87109 l -10.27929,-5.93554 z m 18,0 10.2793,5.93555 -10.2793,5.93359 z m 56.56055,0 v 11.87109 l -10.2793,-5.93554 z m 167.1211,0 10.28124,5.93359 v 0.002 l -10.28124,5.93554 z m 56.56054,0 v 11.86914 l -10.2793,-5.93359 v -0.002 l 5.14063,-2.96679 z m 18,0 10.28125,5.93359 -10.28125,5.9375 z m -791.88867,16.32813 9,5.19531 14.60352,8.43164 4.67578,2.69922 v 10.39258 11.87109 10.39258 l -14.13867,8.16211 -14.13868,8.16406 h -0.002 -0.002 l -19.2793,-11.13086 -3.4082,-1.9668 -5.5918,-3.22851 v -0.002 -10.39062 -22.26172 l 19.28125,-11.13281 z m 74.55859,0 h 0.002 0.002 l 14.13867,8.16406 5.14063,2.9668 2.86914,1.65625 6.13086,3.53906 v 0.002 10.39063 22.26171 0.002 l -16.96485,9.79297 -2.3164,1.33789 -1.05078,0.60547 -0.23633,0.13867 -7.71289,4.45117 -6.31446,-3.64453 -2.68554,-1.55078 -2.85352,-1.64844 -2.28711,-1.32031 -14.14062,-8.16407 V 226.125 214.25391 203.86328 Z m 298.2461,0 7.94922,4.58984 1.05078,0.60547 5.14062,2.96875 14.14063,8.16406 v 10.39063 11.87109 10.39062 0.002 l -11.31641,6.5332 -16.96289,9.79297 h -0.002 -0.002 l -19.27929,-11.13086 -2.86914,-1.65625 -6.13086,-3.53906 v -0.002 -10.39062 -22.26172 l 14.14062,-8.16406 5.14063,-2.96875 3.82617,-2.20899 z m 74.55859,0 h 0.002 0.002 l 14.13867,8.16406 5.14062,2.9668 2.86915,1.65625 6.13085,3.53906 v 0.002 10.39063 22.26171 0.002 l -14.14062,8.16211 -5.14063,2.96875 -1.05078,0.60547 -7.94922,4.58984 -9,-5.19531 -5.13867,-2.96875 -4.14648,-2.39258 -2.28321,-1.31836 -7.71093,-4.45117 V 226.125 214.25391 203.86328 Z m 298.24609,0 9,5.19531 19.2793,11.13086 v 0.002 10.39063 11.87109 10.39062 0.002 l -14.13867,8.16211 -14.13867,8.16406 h -0.002 -0.002 l -19.27929,-11.13086 -3.82618,-2.20898 -5.17382,-2.98633 v -0.002 -10.39062 -22.26172 -0.002 l 14.14062,-8.16211 5.14062,-2.96875 1.05079,-0.60547 z m -605.48828,5.19531 v 11.86914 l -10.27929,-5.93359 5.13867,-2.9668 z m 18,0 10.2793,5.93555 -10.2793,5.93554 z m 354.80469,0 v 11.86914 l -10.2793,-5.93359 5.13868,-2.9668 z m 18,0 10.2793,5.93555 -10.2793,5.93554 z M 33.126953,214.25391 V 226.125 l -10.28125,-5.93555 z m 18,0 3.392578,1.95898 6.886719,3.97656 -5.140625,2.9668 -5.138672,2.9668 z m 56.560547,0 V 226.125 l -10.279297,-5.93555 4.595707,-2.65429 z m 167.12305,0 10.27929,5.93554 -10.27929,5.9336 z m 56.56054,0 V 226.125 l -10.28125,-5.93555 5.14063,-2.96679 z m 18,0 10.2793,5.93554 -10.2793,5.9336 z m 56.56055,0 V 226.125 l -10.2793,-5.93555 5.13868,-2.96679 z m 18,0 4.59766,2.65429 0.54297,0.31446 5.13867,2.96679 -5.13867,2.9668 -5.14063,2.96875 z m 56.56055,0 v 11.86914 l -10.2793,-5.9336 5.13867,-2.96679 z m 167.12304,0 10.2793,5.93554 -10.2793,5.9336 z m 56.56055,0 V 226.125 l -10.28125,-5.93555 5.14063,-2.96679 z m 18,0 4.59766,2.65429 0.54297,0.31446 5.13867,2.96484 v 0.002 l -10.2793,5.9336 z m 56.56055,0 v 11.86914 l -10.2793,-5.9336 z m 18,0 10.27929,5.93554 -10.27929,5.93555 z m 56.56055,0 v 11.86914 l -10.2793,-5.9336 5.13867,-2.96679 z m -550.20704,16.32812 6.13086,3.53906 2.86914,1.65625 19.28125,11.13086 v 0.002 10.39062 11.8711 10.39257 l -17.68359,10.20899 -1.16992,0.67578 -9.42774,5.44336 -19.27929,-11.13086 -9,-5.19727 v -10.39257 -22.26172 -0.002 l 19.27929,-11.13086 1.17774,-0.67968 z m 74.5586,0 h 0.002 0.002 l 14.13868,8.16406 5.14062,2.9668 1.65625,0.95703 7.34375,4.23828 v 0.002 10.39062 22.26367 l -14.14062,8.16407 -5.14063,2.96875 -8.99805,5.19531 h -0.002 l -9,-5.19531 -0.42578,-0.24805 -4.71289,-2.7207 -14.14063,-8.16407 v -10.39257 -11.8711 -10.39062 z m 298.24609,0 6.13086,3.53906 2.86914,1.65625 5.14063,2.96875 14.14062,8.16211 v 0.002 10.39062 11.8711 10.39257 l -14.14062,8.16407 -14.14063,8.16406 -7.42969,-4.28906 -11.84961,-6.8418 -9,-5.19727 v -10.39257 -22.26172 -0.002 l 14.13868,-8.16211 5.14062,-2.96875 1.17774,-0.67968 z m 74.56055,0 h 0.002 l 19.2793,11.13086 1.65625,0.95703 0.14062,0.0801 0.082,0.0488 7.1211,4.11133 v 10.39062 22.26367 l -19.28125,11.13282 -8.99805,5.19531 h -0.002 l -9,-5.19531 -5.13867,-2.96875 -11.4668,-6.61914 -2.67383,-1.54493 v -10.39257 -11.8711 -10.39062 -0.002 l 7.20313,-4.1582 z m -680.04883,5.19531 v 11.8711 l -10.279297,-5.93555 5.138672,-2.9668 z m 18,0 10.28125,5.93555 -5.140625,2.9668 -5.140625,2.96875 z m 354.80664,0 v 11.8711 l -10.28125,-5.93555 z m 372.80469,0 v 11.8711 l -10.28125,-5.93555 5.14062,-2.9668 z m 18,0 10.2793,5.93555 -10.2793,5.93359 z m -372.80469,0.002 10.2793,5.93359 -10.2793,5.93359 z M 107.6875,257.30078 v 11.8711 l -10.279297,-5.93555 5.138677,-2.9668 z m 18,0 10.2793,5.93555 -10.2793,5.93555 z m 74.56055,0 10.28125,5.93555 v 0.002 l -10.28125,5.93555 z m 223.68359,0 10.2793,5.93555 -10.2793,5.93555 z m 74.56055,0 10.27929,5.93555 -10.27929,5.93555 z m 56.5625,0 v 11.8711 l -10.2793,-5.93555 z m 74.56054,0 v 11.8711 l -10.28125,-5.9336 v -0.002 z m 167.1211,0 10.27929,5.93555 -10.27929,5.93555 z m 74.56055,0 10.27929,5.93555 -10.27929,5.93555 z m 74.56054,0 10.28125,5.9375 -10.28125,5.93555 z m -894.730467,0.002 10.279297,5.9336 -10.279297,5.93555 z m 131.121097,0 v 11.86915 l -10.2793,-5.93555 z m 74.5625,0 v 11.86915 l -10.28125,-5.9336 v -0.002 z m 223.68164,0 v 11.86915 l -10.2793,-5.93555 z m 92.5625,0 10.27929,5.9336 v 0.002 l -5.13867,2.9668 -5.14062,2.9668 z m 280.24219,0 v 11.86915 l -10.2793,-5.9336 v -0.002 l 5.13867,-2.9668 z m 74.56054,0 v 11.86915 l -10.2793,-5.9336 v -0.002 z M 153.9668,273.62891 h 0.002 l 19.28125,11.13281 1.19336,0.68945 5.13086,2.96094 2.67383,1.54492 v 10.39258 22.26367 l -14.13867,8.16406 -5.14063,2.9668 -9,5.19531 -9,-5.19531 -19.28125,-11.13086 v -0.002 -10.39063 -11.87109 -10.39258 z m 298.24609,0 9,5.19726 19.2793,11.13086 v 10.39258 11.87109 10.39258 l -0.76563,0.44141 -27.51562,15.88476 -19.2793,-11.13086 -9,-5.19531 V 312.2207 289.95703 l 14.14063,-8.16406 5.14062,-2.9668 z m 74.56055,0 19.28125,11.13281 9,5.19531 v 10.39258 22.26367 l -19.28125,11.13086 -1.05078,0.60547 -7.94922,4.58984 -7.34375,-4.23828 -1.65625,-0.95703 -19.28125,-11.13086 v -0.002 -10.39063 -11.87109 -10.39258 l 14.14062,-8.16406 z m 298.24414,0 9,5.19726 5.13867,2.9668 14.14063,8.16406 v 10.39258 11.87109 10.39258 l -14.14063,8.16406 -14.14063,8.16211 -14.13867,-8.16211 -5.14062,-2.96875 -9,-5.19531 V 312.2207 289.95703 l 19.28125,-11.13086 z m 74.56054,0 14.14063,8.16406 14.13867,8.16406 v 10.39258 22.26367 l -5.65625,3.26563 -13.62305,7.86523 -9,5.19531 -9,-5.19531 -5.14062,-2.9668 -14.14062,-8.16406 V 312.2207 300.34961 289.95703 Z m -820.17187,0.002 9,5.19531 19.28125,11.13086 v 10.39258 11.87109 10.39063 0.002 l -7.712891,4.45117 -20.568359,11.875 -14.140625,-8.16211 -14.138672,-8.16406 V 312.2207 289.95703 l 14.138672,-8.16406 5.140625,-2.9668 z m 158.12305,5.19336 10.28125,5.9375 -10.28125,5.93555 z m 372.80468,0 10.28125,5.93555 v 0.002 l -8.68359,5.01172 -1.59766,0.92383 z m -390.80468,0.002 v 11.86914 L 209.25,284.76172 Z m 372.80468,0 v 11.86914 l -10.27929,-5.93359 v -0.002 z M 33.126953,300.34961 v 11.87109 l -10.28125,-5.93554 z m 167.121097,0 10.28125,5.93555 -10.28125,5.93554 z m 56.5625,0 v 11.87109 l -10.28125,-5.93554 5.14062,-2.96875 z m 18,0 10.27929,5.93555 -5.14062,2.96875 -5.13867,2.96679 z m 56.56054,0 v 11.87109 l -10.28125,-5.93554 5.14063,-2.96875 z m 18,0 5.14063,2.9668 5.13867,2.96875 -5.13867,2.96875 -5.14063,2.96679 z m 56.56055,0 v 11.87109 l -10.28125,-5.93554 5.14063,-2.96875 z m 167.12305,0 10.27929,5.93555 -5.13867,2.96875 -5.14062,2.96679 z m 56.56054,0 v 11.87109 l -10.28125,-5.93554 z m 18,0 5.13868,2.9668 5.14062,2.96875 -5.14062,2.96875 -5.13868,2.96679 z m 56.56055,0 v 11.87109 l -10.28125,-5.93554 z m 18,0 10.2793,5.93555 -5.13867,2.96875 -5.14063,2.96679 z m 56.56055,0 v 11.87109 l -5.14063,-2.96679 -5.13867,-2.96875 5.14063,-2.96875 z m 167.12109,0 10.28125,5.93555 -10.28125,5.93554 z m -717.32812,16.32812 9,5.19532 5.14062,2.96875 14.14063,8.16406 v 10.39258 11.86914 10.39258 l -18.85352,10.88476 -9.42773,5.44336 -19.2793,-11.13086 -9.00195,-5.19726 v -10.39063 -22.26367 l 14.14062,-8.16406 5.14063,-2.96875 z m 74.56054,0 h 0.002 l 14.13867,8.16407 5.14062,2.96679 9,5.19727 v 10.39258 22.26172 l -19.28125,11.13281 -2.86914,1.65625 -6.1289,3.53906 h -0.002 l -9,-5.19531 -0.42578,-0.24805 -16.17968,-9.33984 -2.67383,-1.54492 v -10.39063 -11.87305 -10.39062 l 14.13867,-8.16406 z m 298.24414,0 h 0.002 l 8.99804,5.19532 5.14063,2.96875 14.14062,8.16406 v 10.39258 11.86914 10.39258 l -28.27929,16.32812 h -0.002 l -7.42968,-4.28906 -11.84961,-6.8418 -9,-5.19726 v -10.39063 -22.26367 l 14.14062,-8.16406 5.13867,-2.96875 6.32618,-3.65039 z m 74.56055,0 14.14063,8.16407 5.14062,2.96679 9,5.19727 v 10.39062 22.26368 l -14.14062,8.16406 -5.14063,2.96875 -8.99805,5.19531 h -0.002 l -9,-5.19531 -5.14062,-2.96875 -14.13868,-8.16406 v -10.39063 -11.87305 -10.39062 l 14.13868,-8.16406 z m -289.24414,5.19532 10.28125,5.93554 -10.28125,5.93555 z m 372.80469,0 10.28125,5.93554 -10.28125,5.93555 z m -390.80469,0.002 v 11.86914 l -10.2793,-5.93555 z m 372.80469,0 v 11.86914 l -10.2793,-5.93555 z M 33.126953,343.39648 v 11.87305 l -10.28125,-5.9375 z m 372.804687,0 v 11.8711 l -10.28125,-5.9336 v -0.002 z m -354.804687,0.002 10.279297,5.93359 v 0.002 l -5.140625,2.9668 -5.138672,2.9668 z m 56.560547,0 v 11.86914 l -5.14062,-2.9668 -5.14063,-2.9668 v -0.002 z m 18,0 5.14062,2.96679 5.14063,2.9668 -5.14063,2.96875 -5.14062,2.96875 z m 56.56055,0 v 11.86914 l -10.2793,-5.93555 5.14063,-2.9668 z m 167.12304,0 10.2793,5.93359 v 0.002 l -5.13867,2.9668 -5.14063,2.9668 z m 74.56055,0 10.28125,5.93359 v 0.002 l -5.14062,2.9668 -5.14063,2.9668 z m 56.56055,0 v 11.86914 l -10.2793,-5.9336 v -0.002 z m 18,0 10.28125,5.93359 v 0.002 l -10.28125,5.93555 z m 56.5625,0 v 11.86914 l -10.28125,-5.9336 v -0.002 z m 167.12109,0 10.2793,5.93359 v 0.002 l -10.2793,5.9336 z m 56.56055,0 v 11.86914 l -10.2793,-5.9336 v -0.002 z m 18,0 10.28125,5.93359 v 0.002 l -5.14063,2.9668 -5.14062,2.9668 z m 56.56055,0 v 11.86914 l -10.2793,-5.9336 v -0.002 z m 18,0 10.28124,5.93359 v 0.002 l -10.28124,5.93555 z m 56.56054,0 v 11.86914 l -10.2793,-5.93555 5.14063,-2.9668 z m -848.45117,16.32617 19.28125,11.13281 5.10547,2.94727 3.89453,2.24804 v 10.39258 22.26172 l -14.140625,8.16406 -5.140625,2.96875 -2.869141,1.65625 -6.128906,3.53907 h -0.002 l -9,-5.19532 -0.425781,-0.24804 -4.714844,-2.72071 -14.138672,-8.16406 v -10.39062 -11.8711 -10.39258 z m 298.24414,0 9,5.19727 5.14063,2.96679 14.14062,8.16406 v 10.39258 11.86914 10.39258 l -28.2793,16.32813 h -0.002 l -19.2793,-11.13086 -2.89257,-1.67188 -6.10743,-3.52539 v -10.39062 -22.26368 l 14.14063,-8.16406 5.13867,-2.96679 6.32617,-3.65235 z m 74.56055,0 h 0.002 l 14.13867,8.16406 5.14258,2.96875 1.19336,0.68946 7.80469,4.50585 v 10.39258 22.26172 l -19.2793,11.13281 -9,5.19532 h -0.002 l -5.17969,-2.99024 -3.81836,-2.20508 -10.2832,-5.9375 -1.74219,-1.00586 -7.25586,-4.18945 v -10.39062 -11.8711 -10.39258 l 14.14063,-8.16406 z m 372.80664,0 14.13867,8.16406 5.14258,2.96875 8.99805,5.19531 v 10.39258 22.26172 l -14.14063,8.16406 -5.13867,2.96875 -9,5.19532 h -0.002 l -7.76953,-4.48633 -1.22851,-0.70899 -19.28125,-11.13281 v -10.39258 -11.86914 -10.39258 z m -74.5625,0.002 9,5.19532 19.28125,11.13085 v 10.39258 11.8711 10.39062 l -4.41406,2.54883 -23.86524,13.7793 h -0.002 l -7.32031,-4.22657 -6.81836,-3.9375 -5.14063,-2.96679 -9,-5.19727 v -10.39258 -22.26172 l 14.14063,-8.16406 5.13867,-2.96679 z m -605.48633,5.19336 v 11.87305 l -10.28125,-5.9375 z m 372.80469,0 v 11.87305 l -10.28125,-5.9375 z m 18,0 10.28125,5.93555 v 0.002 l -10.28125,5.93555 z m 354.80468,0 v 11.87305 l -10.28124,-5.93555 v -0.002 l 5.14062,-2.9668 z m -727.60937,0.002 5.14063,2.96679 5.14062,2.96875 -10.28125,5.9336 z m 745.60937,0 10.2793,5.93359 v 0.002 l -10.2793,5.9336 z m -782.89062,21.52343 10.2793,5.93555 -5.13868,2.9668 -5.14062,2.96679 z m 74.56055,0 10.27929,5.93555 -10.27929,5.93359 z m 56.5625,0 v 11.86914 l -5.14063,-2.96679 -5.13867,-2.9668 5.13867,-2.9668 z m 74.56054,0 v 11.86914 l -10.27929,-5.93359 5.13867,-2.9668 z m 167.1211,0 10.27929,5.93555 -5.13867,2.9668 -5.14062,2.96679 z m 56.5625,0 v 11.86914 l -10.2793,-5.93359 z m 74.56054,0 v 11.86914 l -5.14062,-2.96679 -5.13867,-2.9668 z m 18,0 10.2793,5.93555 -10.2793,5.93359 z m 56.56055,0 v 11.8711 l -10.2793,-5.93555 5.13868,-2.9668 z m 167.1211,0 10.27929,5.93555 -5.13867,2.9668 -5.14062,2.96679 z m 56.56054,0 v 11.86914 l -10.2793,-5.93359 5.14063,-2.9668 z m 18,0 10.2793,5.93555 -10.2793,5.93555 z m -763.60937,0.002 v 11.86718 l -10.2793,-5.93359 z m 92.5625,0 5.13867,2.96679 5.14062,2.9668 -10.27929,5.93359 z m 298.24414,0 5.14062,2.96679 5.13867,2.9668 -5.13867,2.9668 -5.14062,2.96679 z m -419.08594,16.32617 9,5.19531 19.2793,11.13086 v 10.39258 11.87109 10.39258 l -11.88867,6.86523 -14.63672,8.45118 -1.75391,1.01171 h -0.002 l -19.2793,-11.13281 h -0.002 l -6.29883,-3.63672 -2.69922,-1.55859 v -10.39258 -22.26172 l 14.14062,-8.16406 5.14063,-2.96875 z m 74.56055,0 19.28125,11.13086 2.86914,1.65625 6.13086,3.54101 v 10.39063 22.26367 l -14.14063,8.16406 -5.14062,2.9668 -9,5.19531 -9,-5.19531 -19.28125,-11.13086 v -10.39258 -11.87109 -10.39063 l 22.11133,-12.76562 z m 298.24414,0 9,5.19531 5.14062,2.96875 14.14063,8.16406 v 10.39063 11.87109 10.39258 l -28.28125,16.32812 -14.14063,-8.16406 -5.14062,-2.96875 -2.81055,-1.62305 -6.18945,-3.57226 v -10.39258 -22.26172 l 19.28125,-11.13281 3.82617,-2.20898 z m 74.56054,0 19.28125,11.13086 9,5.19726 v 10.39063 22.26367 l -14.14062,8.16406 -5.14063,2.9668 -9,5.19726 -9,-5.19726 -19.27929,-11.13086 v -10.39258 -11.87109 -10.39063 -0.002 z m 298.24219,0 h 0.002 l 9,5.19531 5.14063,2.96875 14.13867,8.16211 v 0.002 10.39063 11.87109 10.39258 l -28.2793,16.32812 -14.14062,-8.16406 -5.14062,-2.96875 -5.10547,-2.94726 -3.89453,-2.24805 V 441.3635 419.10178 l 14.14062,-8.16406 5.14062,-2.96875 2.86915,-1.65625 z m -587.48633,5.19531 10.2793,5.93555 -10.2793,5.93554 z m 372.80469,0 10.2793,5.93555 -10.2793,5.93554 z m -390.80469,0.002 v 11.86719 L 283.8125,413.9043 Z m 372.80469,0 v 11.86719 L 656.61719,413.9043 Z M 33.126953,429.49219 v 11.87109 l -10.279297,-5.93555 z m 74.560547,0 v 11.87109 l -10.279297,-5.93555 z m 223.68359,0 v 11.87109 l -10.27929,-5.93555 z m 74.56055,0 v 11.87109 l -10.2793,-5.93555 z m 18,0 10.2793,5.93554 -5.13867,2.9668 -5.14063,2.96875 z m 280.24414,0 v 11.87109 l -10.28125,-5.93555 z m 74.56055,0 v 11.87109 l -10.2793,-5.93555 z m 18,0 10.27929,5.93554 -5.13867,2.9668 -5.14062,2.96875 z m -745.609377,0.002 5.138672,2.9668 5.140625,2.96679 -5.140625,2.9668 -5.138672,2.96875 z m 223.683597,0 5.13867,2.9668 5.14062,2.96679 -5.14062,2.9668 -5.13867,2.96875 z m 74.56054,0 5.14063,2.9668 5.13867,2.96679 -10.2793,5.93555 z m 131.1211,0 v 11.86914 l -10.2793,-5.93555 z m 167.12304,0 10.2793,5.93359 -10.2793,5.93555 z m 74.56055,0 10.2793,5.93359 -7.48828,4.32422 -2.79102,1.61133 z m 131.1211,0 v 11.86914 l -10.2793,-5.93555 5.13867,-2.96679 z m -550.20704,16.32617 h 0.002 l 8.99804,5.19531 19.28125,11.13282 v 10.39258 11.87109 10.39062 l -28.27929,16.32813 h -0.002 -0.002 L 283.81055,500 l -9,-5.19531 v -0.002 -10.39062 -22.26367 l 14.13867,-8.16406 5.14062,-2.96876 z m 74.56055,0 14.14063,8.16407 5.14062,2.96679 9,5.19727 v 10.39258 22.26171 l -19.28125,11.13282 -9,5.19531 -9,-5.19531 -9.28516,-5.36133 -9.99414,-5.76953 v -10.39258 -11.87109 -10.39258 l 14.14063,-8.16406 z m 298.24414,0 h 0.002 l 8.99805,5.19531 19.28125,11.13282 v 10.39258 11.87109 10.39258 l -14.14062,8.16406 -14.13868,8.16211 h -0.002 -0.002 L 661.75391,502.96875 656.61523,500 l -1.8789,-1.08594 -7.1211,-4.10937 v -0.002 -10.39062 -22.26367 l 19.2793,-11.13282 z m 74.56055,0 h 0.002 l 14.13867,8.16407 5.14063,2.96679 6.30078,3.63867 2.69922,1.5586 v 10.39258 22.26171 l -19.28125,11.13282 -8.99805,5.19531 h -0.002 l -7.4707,-4.3125 -1.5293,-0.88281 -5.13867,-2.9668 -6.9375,-4.00586 -7.20313,-4.1582 v -0.002 -10.39062 -11.87109 -10.39258 l 9.60742,-5.54688 z m -307.24219,5.19531 v 11.8711 l -10.28125,-5.9336 v -0.002 z m 372.80469,0 v 11.87305 l -10.28125,-5.93555 v -0.002 z m -745.61133,0.002 v 11.86914 l -10.279297,-5.9336 v -0.002 l 5.138672,-2.96679 z m 18,0 10.28125,5.93359 v 0.002 l -5.140625,2.9668 -5.140625,2.96875 z m 372.80664,0 10.2793,5.93359 v 0.002 l -10.2793,5.9336 z m 372.80469,0 10.2793,5.93359 v 0.002 l -5.14063,2.9668 -5.13867,2.9668 z M 107.6875,472.53906 v 11.87305 l -10.28125,-5.93555 5.14063,-2.96875 z m 838.16992,0 10.28125,5.9375 -10.28125,5.93555 z m -894.730467,0.002 10.279297,5.93554 -10.279297,5.9336 z m 74.560547,0 10.2793,5.93554 -10.2793,5.93555 z m 56.56055,0 v 11.86914 l -10.2793,-5.9336 z m 18,0 10.28125,5.93554 -10.28125,5.93555 z m 56.5625,0 v 11.86914 l -10.2793,-5.9336 z m 167.12109,0 10.28125,5.93359 v 0.002 l -10.28125,5.93555 z m 56.56055,0 v 11.86914 l -10.2793,-5.9336 v -0.002 z m 18,0 10.27929,5.93554 -10.27929,5.93555 z m 56.5625,0 v 11.87109 l -10.28125,-5.93555 z m 18,0 10.27929,5.93359 v 0.002 l -5.13867,2.9668 -5.14062,2.9668 z m 56.56054,0 v 11.87109 l -10.27929,-5.93555 z m 167.1211,0 10.28125,5.93554 -10.28125,5.93555 z m 56.56055,0 v 11.86914 l -10.2793,-5.9336 5.13867,-2.96875 z m 18,0 10.27929,5.93554 -10.27929,5.93555 z m 56.56054,0 v 11.86914 l -10.2793,-5.9336 z M 79.40625,488.86914 h 0.002 l 8.998047,5.19531 19.281253,11.13086 v 0.002 10.39062 11.87109 10.39258 l -14.140628,8.16406 -3.542969,2.04493 -1.169922,0.67578 -9.427734,5.44336 L 51.127,537.8516 v -10.39258 -22.26171 -0.002 l 19.27925,-11.13086 z m 74.56055,0 h 0.002 0.002 l 14.13868,8.16211 L 173.25,500 l 3.42969,1.98047 1.59375,0.91992 3.97461,2.29492 v 0.002 10.39062 22.26367 0.002 l -19.2793,11.13086 -9,5.19531 h -0.002 l -8.99805,-5.19531 -0.42773,-0.24805 -18.85352,-10.88477 v -10.39258 -11.87109 -10.39258 l 5.5918,-3.22851 z m 298.24414,0 h 0.002 l 9,5.19531 12.07617,6.97266 7.20313,4.1582 v 0.002 10.39062 11.87109 10.39258 l -9.60742,5.54688 -18.67188,10.78125 -14.14062,-8.16407 -5.14063,-2.96679 -9,-5.19727 v -10.39258 -22.26171 -0.002 l 5.5918,-3.22851 8.54883,-4.93555 5.14062,-2.9668 z m 74.56054,0 h 0.002 0.002 l 14.13867,8.16211 5.14063,2.96875 9,5.19531 v 0.002 10.39062 22.26367 l -19.28125,11.13282 -7.63477,4.4082 -1.36523,0.78711 -9,-5.19531 -5.14063,-2.96876 -14.14062,-8.16406 v -10.39258 -11.87109 -10.39062 z m 298.2461,0 9,5.19531 9.28515,5.36133 2.28321,1.31836 7.71094,4.45117 v 10.39258 11.87109 10.39258 l -28.2793,16.32813 -6.18946,-3.57227 -7.95117,-4.5918 -5.14062,-2.96679 -9,-5.19727 v -10.39258 -22.26171 l 19.28125,-11.13282 3.82617,-2.20898 z m 74.55859,0 h 0.002 0.002 l 14.13867,8.16211 14.13867,8.16406 v 0.002 10.39062 22.26367 l -19.2793,11.13282 -9,5.19531 h -0.002 l -8.99805,-5.19531 -5.14062,-2.96876 -14.14062,-8.16406 v -10.39258 -11.87109 -10.39062 -0.002 l 7.71289,-4.45117 6.42773,-3.71289 z M 237.5293,494.06445 247.81055,500 l -5.14063,2.96875 -5.14062,2.9668 z m 354.80468,0 v 11.8711 L 582.05469,500 l 5.14062,-2.96875 z m 18,0 10.28125,5.93555 -5.14062,2.96875 -5.14063,2.9668 z m -390.80468,0.002 v 11.86914 l -5.14063,-2.9668 L 209.25,500 Z M 33.126953,515.58789 v 11.87109 l -10.28125,-5.93554 z m 223.683597,0 v 11.87109 l -10.2793,-5.93554 5.13867,-2.9668 z m 74.56054,0 v 11.87109 l -10.28125,-5.93554 z m 74.56055,0 v 11.87109 l -10.28125,-5.93554 z m 223.68359,0 v 11.87109 l -10.27929,-5.93554 5.13867,-2.9668 z m 74.56055,0 v 11.87109 l -10.2793,-5.93554 z m 241.68164,0 10.28125,5.93555 -10.28125,5.93554 z m -745.60937,0.002 10.27929,5.9336 -10.27929,5.93554 z m 74.5625,0 10.27929,5.9336 -10.27929,5.93554 z m 74.56054,0 10.2793,5.9336 v 0.002 l -10.2793,5.93359 z m 223.6836,0 10.27929,5.9336 -10.27929,5.93554 z m 74.56054,0 10.2793,5.9336 -10.2793,5.93554 z m 74.56055,0 10.2793,5.9336 -5.13867,2.96875 -5.14063,2.96679 z m 56.56055,0 v 11.86914 l -10.2793,-5.93359 v -0.002 z m -475.64649,16.32618 6.18946,3.57226 7.95117,4.5918 5.14062,2.96875 9,5.19531 v 10.39258 22.26172 l -19.28125,11.13281 -5.10546,2.94727 -3.89454,2.24804 -9,-5.19531 -19.27929,-11.13086 v -0.002 -10.39063 -11.87109 -10.39258 l 14.13867,-8.16406 z m 372.80469,0 19.28125,11.13281 5.10547,2.94726 3.89453,2.24805 v 10.39258 22.26172 l -14.14062,8.16406 -5.14063,2.96875 -2.86914,1.65625 -6.12891,3.53906 h -0.002 l -9,-5.19531 -5.14062,-2.96875 -14.13868,-8.16211 v -0.002 -10.39063 -11.87109 -10.39258 l 11.88868,-6.86523 8.96093,-5.17383 z m -447.36523,0.002 9,5.19531 19.28125,11.13086 v 10.39258 11.87109 10.39063 l -13.3086,7.68359 -14.97265,8.64453 L 209.25,586.0957 h -0.002 l -9,-5.19726 v -10.39063 -22.26367 l 14.14062,-8.16406 5.14063,-2.9668 z m 372.80468,0 9,5.19531 19.28125,11.13086 v 10.39258 11.87109 10.39258 l -13.30859,7.68164 -14.9707,8.64453 h -0.002 l -14.13867,-8.16406 -5.14062,-2.9668 -9,-5.19531 v -0.002 -10.39063 -22.26367 l 19.27929,-11.13086 z m -214.68359,5.19336 10.28125,5.93555 v 0.002 l -5.14062,2.96679 -5.14063,2.96876 z m 372.80469,0 10.28125,5.93555 v 0.002 l -10.28125,5.93555 z m -390.80469,0.002 v 11.86914 l -10.2793,-5.93359 v -0.002 l 5.14063,-2.9668 z m 372.80469,0 v 11.86914 l -10.2793,-5.93359 v -0.002 z M 33.126953,558.63672 v 11.87109 l -10.279297,-5.93554 z m 18,0 10.279297,5.93555 -5.140625,2.96679 -5.138672,2.96875 z m 56.560547,0 v 11.87109 l -10.279297,-5.93554 5.138677,-2.9668 z m 18,0 10.28125,5.93555 -5.14063,2.96679 -5.14062,2.96875 z m 56.56055,0 v 11.86914 l -10.2793,-5.93359 5.14063,-2.9668 z m 167.12304,0 5.14063,2.96875 5.13867,2.9668 -5.13867,2.96679 -5.14063,2.9668 z m 56.56055,0 v 11.87109 l -10.2793,-5.93554 5.13868,-2.9668 z m 18,0 5.14063,2.96875 5.13867,2.9668 -10.2793,5.93554 z m 56.56055,0 v 11.86914 l -10.2793,-5.93359 5.13867,-2.9668 z m 18,0 10.28125,5.93555 -10.28125,5.93554 z m 56.5625,0 v 11.87109 l -10.2793,-5.93554 5.13867,-2.9668 z m 167.12109,0 10.2793,5.93555 -10.2793,5.93359 z m 56.56055,0 v 11.87109 l -5.13867,-2.96875 -3.22461,-1.86133 -1.91602,-1.10546 5.13867,-2.9668 z m 18,0 10.27929,5.93555 -10.27929,5.93554 z m 56.56055,0 v 11.86914 l -5.14063,-2.9668 -5.13867,-2.96679 z m 18,0 10.27929,5.93555 -10.27929,5.93554 z m 56.56054,0 v 11.86914 l -10.2793,-5.93359 z m -848.45117,16.32812 5.65625,3.26563 8.484375,4.89844 5.140625,2.96679 9,5.19727 v 10.39258 22.26172 l -14.140625,8.16406 -5.140625,2.96679 -9,5.19727 -9,-5.19727 -19.279297,-11.13085 v -10.39258 -11.8711 -10.39062 l 14.138672,-8.16406 z m 298.24414,0 h 0.002 l 8.99805,5.19532 19.28125,11.13281 v 10.39258 11.86914 10.39258 l -28.28125,16.32812 -14.13867,-8.16406 -5.14258,-2.96875 -6.32422,-3.65039 -2.67383,-1.54492 v -10.39258 -22.26172 l 14.14063,-8.16406 5.13867,-2.96875 z m 74.56055,0 h 0.002 l 19.2793,11.13086 9,5.19727 v 10.39258 22.26172 l -9.60742,5.54687 -9.67188,5.58398 -6.66992,3.85157 -2.33008,1.3457 -9,-5.19727 -5.14062,-2.96679 -14.14063,-8.16406 v -10.39258 -11.8711 -10.39062 l 4.50391,-2.59961 z m 298.24414,0 h 0.002 l 8.99805,5.19532 19.28125,11.13281 v 10.39062 11.8711 10.39258 l -28.2793,16.32812 h -0.002 l -19.28125,-11.13281 -8.99805,-5.19531 v -10.39258 -22.26172 l 14.14063,-8.16406 5.13867,-2.96875 1.67969,-0.96875 z m 74.5625,0 19.2793,11.13086 9,5.19727 v 10.39062 22.26368 l -19.2793,11.13085 -9,5.19532 -9,-5.19532 -5.14063,-2.96679 -14.14062,-8.16406 v -10.39258 -11.86914 -10.39258 l 5.58203,-3.22266 6.30859,-3.64258 z m -680.04883,5.19532 v 11.87109 l -10.2793,-5.93555 z m 18,0 10.2793,5.93554 -10.2793,5.9336 z m 354.80469,0 v 11.87109 l -10.2793,-5.93555 5.13867,-2.96679 z m 18,0 10.27929,5.93554 -10.27929,5.93555 z m 354.80468,0 v 11.87109 l -10.27929,-5.93555 z m 18,0.002 5.14063,2.9668 5.13672,2.96679 -10.27735,5.9336 z m -782.89062,21.52148 10.2793,5.93555 -10.2793,5.93555 z m 372.80469,0 10.27929,5.93555 -10.27929,5.93555 z m 56.5625,0 v 11.8711 l -5.14063,-2.96875 -5.13867,-2.9668 z m -372.80664,0.002 v 11.86914 l -10.2793,-5.93555 z m 18,0 10.27929,5.93359 -5.13867,2.9668 -5.14062,2.96875 z m 56.5625,0 v 11.86914 l -10.2793,-5.93555 z m 18,0 5.13867,2.96679 5.14062,2.9668 -10.27929,5.93359 z m 56.56054,0 v 11.86914 l -10.27929,-5.93555 5.13867,-2.9668 z m 241.6836,0 5.14062,2.96679 5.13867,2.9668 -10.27929,5.93359 z m 56.56054,0 v 11.86914 l -10.27929,-5.93555 5.13867,-2.9668 z m 18,0 10.2793,5.93359 -5.14062,2.9668 -5.13868,2.96875 z m 56.56055,0 v 11.86914 l -10.2793,-5.93555 5.13868,-2.9668 z m 167.1211,0 10.27929,5.93359 -10.27929,5.93555 z m 56.56054,0 v 11.86718 l -5.13867,-2.96679 -5.14063,-2.9668 z m 18,0 10.2793,5.93359 -10.2793,5.93555 z m -791.88867,16.32617 5.02734,2.90234 0.62891,0.36328 3.34375,1.92969 19.2793,11.13281 v 10.39258 11.86914 10.39258 l -23.25196,13.42578 -5.02734,2.90235 h -0.002 l -19.2793,-11.13086 -4.58594,-2.64844 -1.71484,-0.99024 -2.69922,-1.55859 v -10.39062 -22.26368 l 14.14062,-8.16406 5.14063,-2.96875 5.10547,-2.94726 z m 74.56055,0 5.65625,3.26562 8.48437,4.89844 5.14063,2.9668 9,5.19726 v 10.39258 22.26172 l -19.28125,11.13281 -8.99805,5.19532 h -0.002 l -9,-5.19532 -5.14063,-2.96875 -14.14062,-8.16406 v -10.39062 -11.87305 -10.39063 l 14.14062,-8.16406 z m 298.24414,0 9,5.19531 19.28125,11.13281 v 10.39258 11.86914 10.39258 l -14.14063,8.16406 -14.14062,8.16407 -14.14063,-8.16407 -5.14062,-2.96679 -9,-5.19727 v -10.39062 -22.26368 l 19.28125,-11.13281 z m 74.56054,0 19.28125,11.13086 9,5.19726 v 10.39258 22.26172 l -14.14062,8.16406 -5.14063,2.96875 -5.10546,2.94727 -3.89454,2.24805 -9,-5.19532 -5.13867,-2.96875 -14.14062,-8.16406 v -10.39062 -11.87305 -10.39063 z m 298.24219,0 h 0.002 l 7.42969,4.28906 1.57031,0.90625 0.42579,0.24805 4.71484,2.7207 14.13867,8.16406 v 10.39063 11.87305 10.39062 l -28.2793,16.32813 -5.65624,-3.26563 -8.48438,-4.89844 -5.14062,-2.96679 -6.20704,-3.58399 -2.79296,-1.61328 v -10.39258 -22.26172 l 14.14062,-8.16406 5.14062,-2.96875 2.86915,-1.65625 z m -587.48633,5.19531 10.28125,5.93555 v 0.002 l -5.14062,2.9668 -5.14063,2.96875 z m -18,0.002 v 11.86914 l -10.27929,-5.93359 v -0.002 l 5.13867,-2.9668 z m 372.80469,0 v 11.86914 l -10.2793,-5.93359 v -0.002 l 5.13868,-2.9668 z m 18,0 10.28125,5.9336 v 0.002 l -5.14062,2.9668 -5.14063,2.96875 z M 33.126953,644.73047 v 11.87109 l -10.28125,-5.93359 z m 298.244137,0 v 11.87109 l -10.28125,-5.93359 5.14063,-2.96875 z m 372.80469,0 v 11.87109 l -10.28125,-5.93359 v -0.002 z m -653.048827,0.002 10.279297,5.9336 v 0.002 l -5.140625,2.9668 -5.138672,2.96679 z m 56.560547,0 v 11.86914 l -10.28125,-5.93359 v -0.002 l 5.14063,-2.9668 z m 167.12305,0 10.27929,5.93555 -5.14062,2.9668 -5.13867,2.96679 z m 74.56054,0 10.2793,5.9336 v 0.002 l -10.2793,5.93359 z m 56.56055,0 v 11.86914 l -5.14062,-2.96679 -5.14063,-2.9668 v -0.002 l 5.14063,-2.9668 z m 18,0 10.28125,5.9336 v 0.002 l -10.28125,5.93555 z m 56.56055,0 v 11.86914 l -10.2793,-5.93359 v -0.002 l 5.13867,-2.9668 z m 167.12304,0 10.2793,5.9336 v 0.002 l -5.14062,2.9668 -5.13868,2.96679 z m 74.56055,0 10.2793,5.9336 v 0.002 l -10.2793,5.93359 z m 56.56055,0 v 11.86914 l -10.2793,-5.93359 z m 18,0 10.28125,5.9336 v 0.002 l -5.14063,2.9668 -5.14062,2.96875 z m 56.56055,0 v 11.86914 l -10.2793,-5.93359 v -0.002 l 5.13867,-2.9668 z m -550.20704,16.32813 9,5.19531 19.28125,11.13086 v 10.39258 11.87109 10.39258 l -14.14062,8.16406 -14.14063,8.16406 -19.27929,-11.13281 h -0.002 l -8.99804,-5.19531 v -10.39258 -22.26367 l 5.65625,-3.26563 13.62304,-7.86523 z m 74.56055,0 19.28125,11.13086 1.28711,0.74414 7.71289,4.45117 v 0.002 10.39063 22.26367 l -19.28125,11.13086 -9,5.19726 -9,-5.19726 -19.2793,-11.13086 V 699.65039 687.7793 677.38672 Z m 298.24414,0 h 0.002 l 8.99805,5.19531 19.28125,11.13086 v 0.002 10.39063 11.87109 10.39258 l -6.18945,3.57226 -22.0918,12.75586 -19.2793,-11.13281 h -0.002 l -8.99805,-5.19531 v -10.39258 -22.26367 l 19.2793,-11.13086 z m 74.5625,0 19.2793,11.13086 9,5.19531 v 10.39258 22.26367 l -2.69922,1.55859 -11.44141,6.60547 -5.14062,2.9668 -9,5.19531 -9,-5.19531 -5.13867,-2.9668 -14.14063,-8.16406 V 699.65039 687.7793 677.38672 l 0.76563,-0.44141 z M 70.40625,666.25586 V 678.125 l -10.279297,-5.93359 v -0.002 z m 18,0 10.28125,5.93555 -10.28125,5.93554 z m 354.80664,0 v 11.87109 l -10.28125,-5.93554 z m 372.80469,0 v 11.87109 l -10.28125,-5.93554 z m 18,0 10.2793,5.93359 v 0.002 l -5.14063,2.96679 -5.13867,2.9668 z m -372.80469,0.002 10.2793,5.9336 -10.2793,5.93359 z m -410.085937,21.52149 10.279297,5.93554 -5.140625,2.96875 -5.138672,2.9668 z m 56.560547,0 v 11.87109 l -10.28125,-5.93555 z m 18,0 10.28125,5.93554 -5.14063,2.96875 -5.14062,2.9668 z m 56.56055,0 v 11.87109 l -10.2793,-5.93555 5.14063,-2.96875 z m 18,0 10.28125,5.93554 -10.28125,5.93555 z m 56.5625,0 v 11.87109 l -10.28125,-5.93555 5.14062,-2.96875 z m 167.12109,0 10.2793,5.93554 -10.2793,5.93555 z m 56.56055,0 v 11.87109 l -10.2793,-5.93555 5.13867,-2.96875 z m 18,0 10.28125,5.93554 -10.28125,5.93555 z m 56.5625,0 v 11.87109 l -10.28125,-5.93555 5.14062,-2.96875 z m 18,0 10.27929,5.93554 -10.27929,5.9336 z m 56.56054,0 v 11.87109 l -10.28125,-5.93555 5.14063,-2.96875 z m 167.1211,0 10.28125,5.93554 -10.28125,5.93555 z m 56.56055,0 v 11.87109 l -10.2793,-5.93555 5.13867,-2.96875 z m 18,0 10.28124,5.93554 -5.14062,2.96875 -5.14062,2.9668 z m 56.56054,0 v 11.87109 l -10.2793,-5.93555 5.14063,-2.96875 z m 18,0 10.28125,5.93554 -10.28125,5.93555 z M 79.40625,704.10742 h 0.002 l 8.998047,5.19531 19.281253,11.13282 v 10.39257 11.8711 10.39062 0.002 l -28.2793,16.32617 h -0.002 -0.002 l -14.138625,-8.1641 -14.138672,-8.16211 v -0.002 -10.39062 -22.26367 l 14.138672,-8.16407 5.140625,-2.96875 6.326172,-3.65039 z m 74.56055,0 h 0.002 l 25.60547,14.7832 2.67383,1.54493 v 10.39257 22.26172 0.002 l -7.20313,4.1582 -12.07617,6.97266 -1.17773,0.67968 -7.82227,4.51563 h -0.002 l -8.99805,-5.19531 -5.14063,-2.96875 -14.14062,-8.16407 v -10.39062 -11.8711 -10.39257 l 14.14062,-8.16407 z m 298.24414,0 h 0.002 l 6.42578,3.71094 21.85352,12.61719 v 10.39257 11.8711 10.39062 l -14.14063,8.16407 -14.13867,8.16406 h -0.002 l -19.2793,-11.13086 -1.65625,-0.95703 -7.34375,-4.23828 v -0.002 -10.39062 -22.26367 l 19.28125,-11.13282 z m 74.5625,0 19.28125,11.13086 2.81054,1.625 6.18946,3.57227 v 10.39257 22.26172 0.002 l -19.28125,11.13086 -9,5.19531 -9,-5.19531 -5.14063,-2.96875 -14.14062,-8.16211 v -0.002 -10.39062 -11.8711 -10.39257 l 17.68359,-10.20899 z m 298.24218,0 h 0.002 l 7.42969,4.28906 1.57031,0.90625 0.42578,0.24805 4.71289,2.7207 14.14063,8.16407 v 10.39257 11.8711 10.39062 0.002 l -28.27735,16.32617 h -0.002 -0.002 l -14.13867,-8.16406 -5.14062,-2.9668 -3.82617,-2.20899 -5.17383,-2.98632 v -0.002 -10.39062 -22.26367 l 14.14062,-8.16407 5.14063,-2.96875 z m 74.5625,0 14.14063,8.16406 14.13867,8.16407 v 10.39257 22.26172 0.002 l -19.2793,11.13086 -1.17773,0.67968 -7.82227,4.51563 h -0.002 l -8.99805,-5.19531 -5.14062,-2.96875 -8.9668,-5.17579 -5.17382,-2.98632 v -0.002 -10.39062 -11.8711 -10.39257 l 14.14062,-8.16407 4.71289,-2.7207 z m -662.04882,5.19531 10.28125,5.93555 v 0.002 l -5.14063,2.9668 -5.14062,2.96875 z m 372.80468,0 5.14063,2.96875 5.14062,2.9668 v 0.002 l -5.14062,2.9668 -5.14063,2.96875 z m -390.80468,0.002 v 11.86914 l -5.14063,-2.9668 -5.13867,-2.96875 z m 372.80468,0 v 11.86914 l -10.27929,-5.9336 v -0.002 l 5.14062,-2.9668 z m -335.52343,21.52148 v 11.87305 l -10.28125,-5.93555 v -0.002 z m 372.80468,0 v 11.87305 l -7.39062,-4.26758 -2.89063,-1.66797 v -0.002 l 5.14063,-2.9668 z m -596.488277,0.002 v 11.8711 l -10.28125,-5.9375 z m 167.121097,0 10.28125,5.9336 v 0.002 l -10.28125,5.93555 z m 74.5625,0 10.27929,5.93555 -10.27929,5.9336 z m 56.56054,0 v 11.8711 l -10.28125,-5.93555 v -0.002 z m 18,0 10.2793,5.93555 -5.13867,2.9668 -5.14063,2.9668 z m 56.56055,0 v 11.8711 l -10.2793,-5.93555 z m 167.12305,0 10.27929,5.9336 v 0.002 l -10.27929,5.9336 z m 74.56054,0 10.2793,5.93555 -10.2793,5.9336 z m 56.56055,0 v 11.8711 l -10.28125,-5.93555 v -0.002 z m 18,0 10.2793,5.9336 v 0.002 l -5.13867,2.9668 -5.14063,2.9668 z m 56.56055,0 v 11.86915 l -10.2793,-5.9336 z m 167.12109,0 10.28125,5.9336 -10.28125,5.9375 z M 228.5293,747.15625 h 0.002 l 8.99805,5.19531 5.14062,2.96875 8.9668,5.17578 5.17383,2.98633 v 0.002 10.39062 11.87109 10.39063 0.002 l -28.2793,16.32617 h -0.002 -0.002 l -14.13867,-8.16406 -5.13867,-2.9668 -9.00195,-5.19726 v -10.39063 -22.26171 l 14.14062,-8.16407 5.14063,-2.96875 z m 74.55859,0 h 0.002 0.002 l 19.27929,11.13086 0.041,0.0234 8.95898,5.17187 v 0.002 10.39062 22.26172 0.002 l -19.28125,11.13086 -1.05078,0.60547 -7.94922,4.58984 -9,-5.19531 -5.14062,-2.96875 -14.13867,-8.16211 v -0.002 -10.39063 -11.87109 -10.39062 -0.002 l 14.13867,-8.16211 z m 298.24609,0 9,5.19531 11.56836,6.67969 7.71289,4.45313 v 10.39062 11.87109 10.39063 0.002 l -28.27929,16.32617 h -0.002 -0.002 l -19.27734,-11.13086 -9,-5.19531 v -0.002 -10.39063 -22.26171 -0.002 l 14.14062,-8.16211 5.13867,-2.96875 z m 74.5586,0 h 0.002 0.002 l 19.2793,11.13086 9,5.19531 v 0.002 10.39062 22.26172 0.002 l -14.14062,8.16211 -5.14063,2.96875 -1.05078,0.60547 -7.94922,4.58984 -6.13281,-3.53906 -2.86719,-1.65625 -5.14062,-2.96875 -14.13868,-8.16211 v -0.002 -10.39063 -11.87109 -10.39258 l 7.71094,-4.45117 z m -289.24219,5.19531 10.28125,5.93555 -5.14062,2.9668 -5.14063,2.96875 z m 372.80469,0 10.28125,5.93555 -5.14063,2.9668 -5.14062,2.96875 z m -390.80469,0.002 v 11.86914 l -10.2793,-5.93555 z m 372.80469,0 v 11.86914 l -10.2793,-5.93555 z M 33.126953,773.875 v 11.87109 l -10.28125,-5.93554 z m 74.560547,0 v 11.87109 l -10.279297,-5.93554 z m 18,0 10.2793,5.93555 -5.13868,2.96679 -5.14062,2.96875 z m 280.24414,0 v 11.87109 l -4.59766,-2.65429 -0.54296,-0.31446 -5.13868,-2.96679 z m 18,0 10.2793,5.93555 -5.68164,3.28125 -4.59766,2.65429 z m 74.56055,0 10.28125,5.93555 -5.14063,2.96679 -5.14062,2.96875 z m 56.5625,0 v 11.87109 l -10.2793,-5.93554 z m 241.68164,0 10.27929,5.93555 -5.68164,3.28125 -4.59765,2.65429 z m 74.56055,0 10.28124,5.93555 -5.14062,2.96679 -5.14062,2.96875 z m -820.169927,0.002 10.279297,5.9336 -5.140625,2.96679 -5.138672,2.96875 z m 131.121097,0 v 11.86719 l -10.2793,-5.93359 z m 167.12304,0 10.2793,5.9336 v 0.002 l -10.2793,5.93359 z m 131.1211,0 v 11.86914 l -5.14063,-2.96875 -5.13867,-2.96679 z m 241.68359,0 10.2793,5.9336 v 0.002 l -5.13867,2.96484 -5.14063,2.96875 z m 56.56055,0 v 11.86914 l -10.2793,-5.93554 z m 74.56055,0 v 11.86914 l -10.2793,-5.93554 z m 74.56054,0 v 11.86719 l -10.2793,-5.93359 z m -848.45117,16.32617 5.65625,3.26563 8.484375,4.89844 5.140625,2.96679 9,5.19727 v 10.39063 22.26367 l -14.140625,8.16406 -5.140625,2.96875 -8.998047,5.19531 h -0.002 l -9,-5.19531 -5.140625,-2.96875 -14.138672,-8.16406 v -10.39258 -11.87109 -10.39063 -0.002 l 14.138672,-8.16211 z m 298.24414,0 9,5.19727 19.28125,11.13086 v 10.39063 11.87109 10.39258 l -14.14062,8.16406 -14.14063,8.16406 -14.13867,-8.16406 -5.14063,-2.9668 -9,-5.19726 v -10.39258 -22.26172 -0.002 l 10.66407,-6.15625 8.61523,-4.97461 4.80859,-2.77539 z m 74.5625,0 7.32031,4.22657 6.81836,3.9375 5.14063,2.96679 1.65625,0.95704 7.34375,4.24023 v 10.39063 22.26367 l -9.60742,5.54687 -4.53321,2.61719 -14.13867,8.16406 h -0.002 l -8.99805,-5.19531 -5.14062,-2.96875 -14.14063,-8.16406 V 828.79302 816.92193 806.5313 l 5.58203,-3.22266 6.3086,-3.64257 z m 298.24219,0 h 0.002 l 8.99805,5.19532 19.28125,11.13086 v 0.002 10.39063 11.87109 10.39258 l -4.41406,2.54883 -23.86524,13.77929 h -0.002 l -14.13867,-8.16406 -14.14063,-8.16406 v -10.39258 -22.26172 l 9.42578,-5.44336 9.85352,-5.6875 1.67969,-0.9707 z m 74.56054,0 h 0.002 l 19.2793,11.13086 9,5.19532 v 0.002 10.39063 22.26367 l -19.2793,11.13281 -9,5.19531 h -0.002 l -8.99804,-5.19531 -5.14063,-2.96875 -14.14062,-8.16406 v -10.39258 -11.87109 -10.39063 l 18.85351,-10.88477 z m -680.04687,5.19532 v 11.87109 l -10.2793,-5.93555 z m 372.80469,0 v 11.87109 l -10.2793,-5.93555 z m 18,0 10.27929,5.93554 -10.27929,5.93555 z m 354.80468,0 v 11.87109 l -10.27929,-5.93555 z m -727.60937,0.002 10.2793,5.93359 -10.2793,5.93555 z m 745.60937,0 10.2793,5.93359 -5.13867,2.9668 -5.14063,2.96875 z m -708.33007,21.52149 10.27929,5.93554 -10.27929,5.93555 z m 56.5625,0 v 11.87109 l -10.2793,-5.93555 z m 74.56054,0 v 11.87109 l -10.28125,-5.93359 v -0.002 z m 167.1211,0 10.28125,5.93554 v 0.002 l -10.28125,5.93359 z m 56.5625,0 v 11.87109 l -10.2793,-5.93555 5.13867,-2.9668 z m 74.56054,0 v 11.87109 l -10.27929,-5.93555 z m 74.56055,0 v 11.87109 l -10.28125,-5.93359 v -0.002 z m 167.1211,0 5.14062,2.96874 5.13867,2.9668 -10.27929,5.93555 z m 74.56054,0 10.28125,5.9375 -10.28125,5.93554 z m -820.16992,0.002 10.2793,5.93359 -10.2793,5.93555 z m 56.56055,0 v 11.86914 l -10.2793,-5.93555 z m 92.5625,0 10.27929,5.93359 v 0.002 l -5.14062,2.96679 -5.13867,2.9668 z m 298.24414,0 10.27929,5.93359 -10.27929,5.93555 z m 74.56054,0 10.2793,5.93359 v 0.002 l -5.14062,2.96679 -5.13868,2.9668 z m 280.24219,0 v 11.86914 l -10.2793,-5.93555 5.14063,-2.9668 z M 153.96875,833.25 l 5.02734,2.90234 3.97266,2.29493 16.60547,9.58593 2.67383,1.54492 v 10.39258 11.8711 10.39258 l -28.2793,16.32617 -19.28125,-11.13086 -9,-5.19531 V 871.8418 849.57812 l 14.14062,-8.16406 5.14063,-2.96679 z m 74.56055,0 10.59765,6.11914 3.54297,2.04492 5.14063,2.96875 9,5.19531 v 10.39258 22.26368 l -19.28125,11.13085 -1.05078,0.60547 -7.94922,4.58985 -7.34375,-4.23828 -1.65625,-0.95704 -19.28125,-11.13085 V 871.8418 859.9707 849.57812 l 14.14062,-8.16406 z m 372.80468,0 19.28125,11.13281 9,5.19531 v 10.39258 22.26368 l -19.28125,11.13085 -1.05078,0.60547 -7.94922,4.58985 -9,-5.19532 -19.27929,-11.13085 V 871.8418 859.9707 849.57812 l 14.14062,-8.16406 6.70899,-3.875 z m 298.24414,0 9,5.19727 0.42579,0.24609 4.71484,2.7207 14.13867,8.16406 v 10.39258 11.8711 10.39258 l -28.28125,16.32617 -14.13867,-8.16211 -5.14062,-2.96875 -5.10547,-2.94727 -3.89453,-2.24804 V 871.8418 849.57812 l 9.42773,-5.44335 1.16992,-0.67579 8.68359,-5.01171 z m -372.80468,0.002 9,5.19532 1.59765,0.92187 11.49414,6.63672 6.18946,3.57226 v 10.39258 11.8711 10.39258 l -14.14063,8.16406 -14.14062,8.16211 -14.14063,-8.16211 -5.14062,-2.96875 -2.86914,-1.65625 -6.13086,-3.53906 V 871.8418 849.57812 l 19.28125,-11.13085 z m -214.6836,5.19336 10.28125,5.93555 v 0.002 l -5.14062,2.9668 -5.14063,2.96875 z m 372.80469,0 10.28125,5.93555 v 0.002 l -5.14062,2.9668 -5.14063,2.96875 z m -390.80469,0.002 v 11.86914 l -10.27929,-5.9336 v -0.002 l 4.04101,-2.33203 z m 372.80469,0 v 11.86914 l -10.2793,-5.9336 v -0.002 z m 37.28125,21.52148 v 11.87305 l -10.28125,-5.93555 z m -671.048827,0.002 v 11.8711 l -10.28125,-5.93555 z m 18,0 10.279297,5.93555 -5.140625,2.96875 -5.138672,2.9668 z m 56.560547,0 v 11.8711 l -10.28125,-5.93555 5.14063,-2.96875 z m 167.12305,0 5.13867,2.9668 5.14062,2.96875 -5.14062,2.96875 -5.13867,2.9668 z m 56.56054,0 v 11.8711 l -10.27929,-5.93555 z m 18,0 5.14063,2.9668 5.13867,2.96875 -10.2793,5.93359 z m 56.56055,0 v 11.8711 l -10.2793,-5.93555 5.13868,-2.96875 z m 18,0 5.14063,2.9668 5.13867,2.96875 -10.2793,5.93555 z m 56.56055,0 v 11.8711 l -10.2793,-5.93555 5.13867,-2.96875 z m 167.12304,0 10.2793,5.93555 -5.14062,2.96875 -5.13868,2.9668 z m 74.56055,0 10.2793,5.93555 -10.2793,5.93359 z m 56.56055,0 v 11.8711 l -10.2793,-5.93555 z m 18,0 10.28125,5.93555 -5.14063,2.96875 -5.14062,2.9668 z m 56.56055,0 v 11.8711 l -10.2793,-5.93555 5.13867,-2.96875 z m -550.20704,16.32813 h 0.002 l 8.99804,5.19531 0.42774,0.24805 18.85351,10.88476 v 10.39258 11.86914 10.39258 l -6.18945,3.57227 -22.0918,12.75586 -14.14062,-8.16407 -5.13867,-2.96679 -9,-5.19727 v -10.39258 -22.26172 l 14.13867,-8.16406 5.14062,-2.96875 6.32618,-3.65039 z m 74.56055,0 9.42773,5.44336 9.85352,5.6875 1.65625,0.95703 7.34375,4.24023 v 10.39258 22.26172 l -6.18945,3.57227 -13.0918,7.56054 -8.99805,5.19532 h -0.002 l -9,-5.19532 -5.13867,-2.96875 -14.14063,-8.16406 v -10.39258 -11.87109 -10.39063 l 13.04102,-7.52929 5.8125,-3.35547 z m 298.24219,0 h 0.002 0.002 l 8.99805,5.19531 5.14063,2.96875 14.14062,8.16406 v 10.39063 11.87109 10.39258 l -6.18945,3.57227 -22.0918,12.75586 -14.14062,-8.16407 -5.13868,-2.96679 -9,-5.19727 v -10.39258 -22.26172 l 19.2793,-11.13281 6.32617,-3.65039 z m 74.5625,0 h 0.002 l 14.13867,8.16406 5.14063,2.9668 6.30078,3.63867 2.69922,1.55859 v 10.39063 22.26367 l -19.28125,11.13281 -8.99805,5.19532 h -0.002 l -28.2793,-16.32813 v -10.39258 -11.86914 -10.39258 l 9.60742,-5.54687 z m -662.04883,5.19531 10.28125,5.93555 -10.28125,5.93554 z m 354.80664,0 v 11.87109 l -10.28125,-5.93554 z m 372.80469,0 v 11.87109 l -10.28125,-5.93554 z m -745.61133,0.002 v 11.86914 l -10.279297,-5.93554 z m 390.80664,0 10.2793,5.9336 -10.2793,5.93359 z m 372.80469,0 5.13867,2.9668 5.14063,2.9668 v 0.002 l -10.2793,5.93359 z m -726.33008,21.5213 v 11.87109 l -10.28125,-5.93359 v -0.002 z m 18,0 10.28125,5.93554 v 0.002 l -5.14063,2.9668 -5.14062,2.96679 z m 298.24414,0 10.28125,5.93554 v 0.002 l -5.14062,2.9668 -5.14063,2.96679 z m 521.92578,0 10.28125,5.93554 -10.28125,5.9375 z m -894.730467,0.002 10.279297,5.93359 v 0.002 l -10.279297,5.93359 z m 131.121097,0 v 11.86914 l -10.2793,-5.93359 v -0.002 z m 18,0 10.28125,5.93359 v 0.002 l -10.28125,5.93554 z m 56.5625,0 v 11.86914 l -10.28125,-5.93359 v -0.002 z m 223.68164,0 v 11.86914 l -5.14063,-2.96679 -5.13867,-2.9668 v -0.002 z m 18,0 10.28125,5.93359 v 0.002 l -5.14063,2.9668 -5.14062,2.96679 z m 56.5625,0 v 11.86914 l -5.14063,-2.96679 -5.14062,-2.9668 v -0.002 z m 18,0 10.27929,5.93359 -5.13867,2.96876 -5.14062,2.96679 z m 56.56054,0 v 11.86914 l -10.28125,-5.93359 v -0.002 z m 167.1211,0 10.28125,5.93359 v 0.002 l -5.14063,2.9668 -5.14062,2.96679 z m 56.56055,0 v 11.86914 l -10.2793,-5.93359 v -0.002 l 5.13867,-2.96679 z m 18,0 10.28124,5.93359 v 0.002 l -5.14062,2.9668 -5.14062,2.96679 z m 56.56054,0 v 11.86914 l -10.2793,-5.93359 v -0.002 z m -848.45117,16.32617 9,5.19727 19.28125,11.13086 v 10.39258 22.26367 L 79.40625,984.65625 51.126953,968.33008 v -32.65625 l 14.138672,-8.16406 5.140625,-2.9668 6.326172,-3.65235 z m 74.56055,0 h 0.002 l 14.14063,8.16407 5.14062,2.96875 1.19336,0.68945 1.14258,0.6582 6.66211,3.84766 v 10.39258 22.26367 l -28.2793,16.32617 -28.28125,-16.32617 v -22.26367 -10.39258 l 14.14062,-8.16406 z m 298.24609,0 9,5.19727 19.2793,11.13086 v 10.39258 22.26367 l -28.2793,16.32617 h -0.002 l -19.2793,-11.13086 -6.50976,-3.75781 -2.49024,-1.4375 v -32.65625 l 14.14063,-8.16406 5.14062,-2.9668 z m 74.56055,0 19.28125,11.13282 9,5.19531 v 10.39258 22.26367 l -28.28125,16.32617 -28.28125,-16.32617 v -22.26367 -10.39063 -0.002 z m 298.24414,0 9,5.19727 5.13867,2.9668 14.14063,8.16406 v 10.39258 22.26367 l -28.2793,16.32617 -19.28125,-11.13086 -9,-5.19531 v -32.65625 l 9.42773,-5.44336 1.16992,-0.67578 8.6836,-5.01172 z m 74.56054,0 14.14063,8.16407 14.13867,8.16406 v 10.39258 22.26367 l -28.2793,16.32617 -28.28124,-16.32617 v -22.26367 -10.39063 -0.002 l 14.14062,-8.16406 z m -662.04882,5.19532 10.28125,5.93554 v 0.002 l -5.14063,2.96679 -5.14062,2.96875 z m 372.80468,0 10.28125,5.93554 v 0.002 l -5.14062,2.96679 -5.14063,2.96875 z m -390.80468,0.002 v 11.86914 L 209.25,930.47852 v -0.002 z m 372.80468,0 v 11.86914 l -10.27929,-5.93555 z M 33.126953,946.06641 v 11.87109 l -10.28125,-5.93555 z m 167.121097,0 10.28125,5.93554 -10.28125,5.93555 z m 56.5625,0 v 11.87109 l -10.2793,-5.93555 z m 18,0 10.27929,5.93554 -10.27929,5.9336 z m 56.56054,0 v 11.87109 l -10.27929,-5.93555 z m 18,0 10.2793,5.93554 -5.13867,2.9668 -5.14063,2.9668 z m 56.56055,0 v 11.87109 l -10.28125,-5.93555 z m 167.12305,0 10.27929,5.93554 -10.27929,5.93555 z m 56.56054,0 v 11.87109 l -10.27929,-5.93555 z m 18,0 10.2793,5.93554 -10.2793,5.9336 z m 56.56055,0 v 11.87109 l -10.28125,-5.93555 z m 18,0 10.2793,5.93554 -10.2793,5.9336 z m 56.56055,0 v 11.87109 l -5.14063,-2.96875 -5.13867,-2.9668 z m 167.12109,0 10.28125,5.93554 -10.28125,5.93555 z m -559.20703,21.52343 10.28125,5.93555 -10.28125,5.93555 z m 372.80469,0 10.28125,5.93555 -10.28125,5.93555 z m -390.80469,0.002 v 11.86914 l -10.2793,-5.93555 4.04102,-2.33203 z m 372.80469,0 v 11.86914 l -10.2793,-5.93555 z"
     id="path834" />
</svg>
