<?xml version="1.0" encoding="UTF-8" standalone="no"?>
<svg
   xmlns:dc="http://purl.org/dc/elements/1.1/"
   xmlns:cc="http://creativecommons.org/ns#"
   xmlns:rdf="http://www.w3.org/1999/02/22-rdf-syntax-ns#"
   xmlns:svg="http://www.w3.org/2000/svg"
   xmlns="http://www.w3.org/2000/svg"
   xmlns:sodipodi="http://sodipodi.sourceforge.net/DTD/sodipodi-0.dtd"
   xmlns:inkscape="http://www.inkscape.org/namespaces/inkscape"
   inkscape:version="1.0.1 (3bc2e813f5, 2020-09-07)"
   sodipodi:docname="5-uniform_262.svg"
   id="c:\kuniform\5u\5-uniform_262.svg"
   height="1000.0"
   width="978.98517"
   version="1.0">
  <metadata
     id="metadata34595">
    <rdf:RDF>
      <cc:Work
         rdf:about="">
        <dc:format>image/svg+xml</dc:format>
        <dc:type
           rdf:resource="http://purl.org/dc/dcmitype/StillImage" />
        <dc:title></dc:title>
      </cc:Work>
    </rdf:RDF>
  </metadata>
  <defs
     id="defs34593" />
  <sodipodi:namedview
     inkscape:current-layer="c:\kuniform\5u\5-uniform_262.svg"
     inkscape:window-maximized="1"
     inkscape:window-y="-9"
     inkscape:window-x="-9"
     inkscape:cy="349.58547"
     inkscape:cx="464.13908"
     inkscape:zoom="0.96210075"
     showgrid="false"
     id="namedview34591"
     inkscape:window-height="1001"
     inkscape:window-width="1920"
     inkscape:pageshadow="2"
     inkscape:pageopacity="0"
     guidetolerance="10"
     gridtolerance="10"
     objecttolerance="10"
     borderopacity="1"
     inkscape:document-rotation="0"
     bordercolor="#666666"
     pagecolor="#ffffff" />
  <!-- X Coordinate transform: fx(x)=(x+68.545654)*0.86095566-->
  <!-- Y Coordinate transform: fy(y)=(1080.75-y)*0.86095566 -->
  <path
     style="color:#000000;font-style:normal;font-variant:normal;font-weight:normal;font-stretch:normal;font-size:medium;line-height:normal;font-family:sans-serif;font-variant-ligatures:normal;font-variant-position:normal;font-variant-caps:normal;font-variant-numeric:normal;font-variant-alternates:normal;font-variant-east-asian:normal;font-feature-settings:normal;font-variation-settings:normal;text-indent:0;text-align:start;text-decoration:none;text-decoration-line:none;text-decoration-style:solid;text-decoration-color:#000000;letter-spacing:normal;word-spacing:normal;text-transform:none;writing-mode:lr-tb;direction:ltr;text-orientation:mixed;dominant-baseline:auto;baseline-shift:baseline;text-anchor:start;white-space:normal;shape-padding:0;shape-margin:0;inline-size:0;clip-rule:nonzero;display:inline;overflow:visible;visibility:visible;isolation:auto;mix-blend-mode:normal;color-interpolation:sRGB;color-interpolation-filters:linearRGB;solid-color:#000000;solid-opacity:1;vector-effect:none;fill:#000000;fill-opacity:1;fill-rule:nonzero;stroke:none;stroke-width:14;stroke-linecap:butt;stroke-linejoin:miter;stroke-miterlimit:4;stroke-dasharray:none;stroke-dashoffset:0;stroke-opacity:1;color-rendering:auto;image-rendering:auto;shape-rendering:auto;text-rendering:auto;enable-background:accumulate;stop-color:#000000"
     d="M 75.90625,-1.1113281 38.626953,20.412109 1.3457031,41.935547 l 3.5,6.0625 -3.5,6.0625 26.7812499,15.460937 -26.7812499,15.462891 3.5,6.0625 -3.5,6.060547 37.2812499,21.525388 33.779297,19.50196 v 34.96679 l -33.779297,19.50196 -37.2812499,21.52343 3.5,6.0625 -3.5,6.0625 33.7812499,19.50196 v 34.96679 l -33.7812499,19.50196 3.5,6.0625 -3.5,6.0625 37.2812499,21.52343 33.779297,19.50196 v 34.96679 l -33.779297,19.50196 -37.2812499,21.52343 3.5,6.0625 -3.5,6.0625 33.7812499,19.50196 v 34.96679 l -33.7812499,19.50196 3.5,6.0625 -3.5,6.0625 26.7812499,15.46094 -26.7812499,15.46289 3.5,6.0625 -3.5,6.0625 L 28.125,586.0957 1.3457031,601.55664 l 3.5,6.0625 -3.5,6.0625 37.2812499,21.52344 33.779297,19.50195 v 34.9668 l -33.779297,19.5039 -37.2812499,21.52344 3.5,6.06055 -3.5,6.0625 33.7812499,19.5039 v 34.96485 l -33.7812499,19.50195 3.5,6.0625 -3.5,6.0625 37.2812499,21.52344 33.779297,19.50391 v 34.96679 l -33.779297,19.50196 -37.2812499,21.52343 3.5,6.0625 -3.5,6.0625 37.2812499,21.52344 37.279297,21.52341 3.5,-6.06247 h 7 v -39.00586 l 30.28125,-17.48047 33.78125,19.50195 3.5,-6.0625 3.5,6.0625 33.7793,-19.50195 30.28125,17.48047 v 39.00586 h 7 l 3.5,6.06247 33.78125,-19.50192 33.77929,19.50192 3.5,-6.06247 3.5,6.06247 33.78125,-19.50192 33.7793,19.50192 3.5,-6.06247 3.5,6.06247 33.78125,-19.50192 33.78125,19.50192 3.5,-6.06247 3.49805,6.06247 33.78125,-19.50192 33.78125,19.50192 3.5,-6.06247 3.5,6.06247 33.78125,-19.50192 33.77929,19.50192 3.5,-6.06247 3.5,6.06247 33.78125,-19.50192 33.7793,19.50192 3.5,-6.06247 3.5,6.06247 33.78125,-19.50192 33.78125,19.50192 3.5,-6.06247 3.49805,6.06247 37.28125,-21.52341 33.78125,-19.50195 33.7793,19.50195 3.5,-6.0625 3.5,6.0625 33.78124,-19.50195 33.7793,19.50195 3.5,-6.0625 3.5,6.0625 37.28125,-21.52344 -3.5,-6.0625 3.5,-6.0625 -37.28125,-21.52343 -33.7793,-19.50196 v -34.96679 l 33.7793,-19.50391 37.28125,-21.52344 -3.5,-6.0625 3.5,-6.0625 -33.78125,-19.50195 v -34.96485 l 33.78125,-19.5039 -3.5,-6.0625 3.5,-6.06055 -37.28125,-21.52344 -33.7793,-19.5039 v -34.9668 l 33.7793,-19.50195 37.28125,-21.52344 -3.5,-6.0625 3.5,-6.0625 -33.78125,-19.50195 v -34.9668 l 33.78125,-19.50195 -3.5,-6.0625 3.5,-6.0625 L 950.85938,500 l 26.77929,-15.46094 -3.5,-6.0625 3.5,-6.0625 -26.78125,-15.46094 26.78125,-15.46289 -3.5,-6.0625 3.5,-6.0625 -37.28125,-21.52343 -33.7793,-19.50196 v -34.96679 l 33.7793,-19.50196 37.28125,-21.52343 -3.5,-6.0625 3.5,-6.0625 -33.78125,-19.50196 v -34.96679 l 33.78125,-19.50196 -3.5,-6.0625 3.5,-6.0625 -37.28125,-21.52343 -33.7793,-19.50196 v -34.96679 l 33.7793,-19.50196 37.28125,-21.525388 -3.5,-6.060547 3.5,-6.0625 -33.78125,-19.503906 v -39.00586 h -7 l 3.5,-6.0625 -37.2793,-21.5234371 -3.5,6.0605469 -3.5,-6.0605469 -33.78124,19.5019531 -33.7793,-19.5019531 -3.5,6.0605469 -3.5,-6.0605469 -33.78125,19.5019531 -33.78125,-19.5019531 -3.5,6.0605469 -3.5,-6.0605469 -33.7793,19.5019531 -33.78125,-19.5019531 -3.5,6.0605469 -3.5,-6.0605469 -33.7793,19.5019531 -33.78125,-19.5019531 -3.5,6.0605469 -3.5,-6.0605469 -37.27929,21.5234371 -33.78125,19.501953 -33.78125,-19.501953 -3.5,6.0625 -3.5,-6.0625 -33.7793,19.501953 -33.78125,-19.501953 -37.28125,-21.5234371 -3.5,6.0605469 h -7 V 43.957031 l -30.2793,17.480469 -33.78125,-19.501953 -3.5,6.0625 -3.5,-6.0625 L 265.81055,61.4375 235.5293,43.957031 V 4.9492188 h -7 l -3.5,-6.0605469 -33.78125,19.5019531 -33.7793,-19.5019531 -3.5,6.0605469 -3.5,-6.0605469 -33.78125,19.5019531 -33.78125,-19.5019531 -3.5,6.0605469 z m 3.5,14.1445311 30.28125,17.482422 V 65.480469 L 79.40625,82.962891 49.126953,65.480469 V 30.515625 Z m 74.5625,0 30.2793,17.482422 V 65.480469 L 153.96875,82.962891 123.6875,65.480469 V 30.515625 Z m 67.56055,4.041016 V 35.873047 L 205.25,26.474609 Z m 163.12109,0 16.28125,9.40039 -16.28125,9.398438 z m 209.68359,0 v 18.798828 l -16.27929,-9.398438 z m 14,0 16.28125,9.40039 -16.28125,9.398438 z m 60.56055,0 v 18.798828 l -16.2793,-9.398438 z m 14,0 16.28125,9.40039 -16.28125,9.398438 z m 60.56055,0 v 18.798828 l -16.2793,-9.398438 z m 14,0 16.28125,9.40039 -16.28125,9.398438 z m 60.5625,0 v 18.798828 l -16.28125,-9.398438 z m 14,0 16.2793,9.40039 -16.2793,9.398438 z m 60.56054,0 v 18.798828 l -16.28124,-9.398438 z m 14,0 16.2793,9.40039 -16.2793,9.398438 z M 787.73633,34.558594 818.01758,52.039062 V 87.005859 L 787.73633,104.48633 757.45508,87.005859 V 52.039062 Z m 74.56055,0 30.28124,17.480468 V 87.005859 L 862.29688,104.48633 832.01758,87.005859 V 52.039062 Z M 35.126953,38.599609 V 57.396484 L 18.847656,47.998047 Z m 163.121097,0 16.27929,9.398438 -16.27929,9.398437 z m 209.68359,0 v 18.796875 l -16.2793,-9.398437 z m 14,0 16.2793,9.398438 -16.2793,9.398437 z m 60.56055,0 v 18.796875 l -16.2793,-9.398437 z m 14,0 16.27929,9.398438 -16.27929,9.398437 z m 60.5625,0 v 18.796875 l -16.2793,-9.398437 z m 14,0 16.27929,9.398438 -16.27929,9.398437 z m 60.56054,0 v 18.796875 l -16.27929,-9.398437 z m 14,0 16.2793,9.398438 -16.2793,9.398437 z m 60.56055,0 v 18.796875 l -16.2793,-9.398437 z m 14,0 16.2793,9.398438 -16.2793,9.398437 z m 209.68164,0 v 18.796875 l -16.2793,-9.398437 z M 601.33398,56.082031 631.61523,73.5625 v 34.9668 L 601.33398,126.00977 571.05469,108.5293 V 73.5625 Z m 74.56055,0 30.28125,17.480469 v 34.9668 l -30.28125,17.48047 -30.2793,-17.48047 V 73.5625 Z M 221.5293,60.123047 V 78.921875 L 205.25,69.521484 Z m 14,0 16.28125,9.398437 -16.28125,9.400391 z m 60.56054,0 v 18.798828 l -16.27929,-9.400391 z m 14,0 16.28125,9.398437 -16.28125,9.400391 z m 60.56055,0 v 18.798828 l -16.2793,-9.400391 z m 14,0 16.28125,9.398437 -16.28125,9.400391 z m 60.5625,0 v 18.798828 l -16.28125,-9.400391 z m 14,0 16.2793,9.398437 -16.2793,9.400391 z m 60.56055,0 v 18.798828 l -16.28125,-9.400391 z m 14,0 16.28125,9.398437 -16.28125,9.400391 z m 209.68164,0 v 18.798828 l -16.2793,-9.400391 z m 163.12304,0 16.2793,9.398437 -16.2793,9.400391 z m -491.64648,17.482422 30.28125,17.480469 v 34.966792 l -30.28125,17.48243 -30.28125,-17.48243 V 95.085938 Z m 74.56055,0 30.28125,17.480469 v 34.966792 l -30.28125,17.48243 -30.2793,-17.48243 V 95.085938 Z M 35.126953,81.646484 v 18.798826 l -16.28125,-9.398435 z m 14,0 16.28125,9.400391 -16.28125,9.398435 z m 60.560547,0 V 100.44531 L 93.40625,91.046875 Z m 14,0 16.28125,9.400391 -16.28125,9.398435 z m 60.56055,0 V 100.44531 L 167.9668,91.046875 Z m 14,0 16.28125,9.400391 -16.28125,9.398435 z m 60.5625,0 V 100.44531 L 242.5293,91.046875 Z m 14,0 16.28125,9.400391 -16.28125,9.398435 z m 60.56054,0 v 18.798826 l -16.28125,-9.398435 z m 14,0 16.28125,9.400391 -16.28125,9.398435 z m 209.6836,0 v 18.798826 l -16.28125,-9.398435 z m 163.12109,0 16.28125,9.400391 -16.28125,9.398435 z m 209.68164,0 v 18.798826 l -16.28125,-9.398435 z m 14,0 16.28125,9.400391 -16.28125,9.398435 z M 228.5293,99.128906 258.81055,116.61133 v 34.96679 l -30.28125,17.48047 -30.28125,-17.48242 v -34.96289 z m 74.56054,0 30.28125,17.482424 v 34.96679 l -30.28125,17.48047 -30.27929,-17.48047 V 116.61133 Z M 72.40625,103.16992 v 18.79883 l -16.279297,-9.39844 z m 14,0 16.28125,9.40039 -16.28125,9.39844 z m 60.5625,0 v 18.79883 l -16.28125,-9.39844 z m 14,0 16.28125,9.40039 -16.28125,9.39844 z m 209.68164,0 v 18.79883 l -16.2793,-9.39844 z m 163.12305,0 16.28125,9.40039 -16.28125,9.39844 z m 209.68164,0 v 18.79883 l -16.2793,-9.39844 z m 14,0 16.28125,9.40039 -16.28125,9.39844 z m 60.5625,0 v 18.79883 l -16.28125,-9.39844 z m 14,0 16.2793,9.40039 -16.2793,9.39844 z m 60.56054,0 v 18.79883 l -16.28124,-9.39844 z m 14,0 16.2793,9.40039 -16.2793,9.39844 z m -789.89062,17.48438 30.28125,17.48047 v 34.96679 L 116.6875,190.58203 86.40625,173.10156 v -34.96679 z m 67.56055,4.04101 v 18.79883 l -16.2793,-9.40039 z m 163.12304,0 16.2793,9.39844 -16.2793,9.40039 z m 209.6836,0 v 18.79883 l -16.28125,-9.40039 z m 14,0 16.27929,9.39844 -16.27929,9.40039 z m 60.56054,0 v 18.79883 l -16.28125,-9.40039 z m 14,0 16.2793,9.39844 -16.2793,9.40039 z m 60.56055,0 v 18.79883 l -16.28125,-9.40039 z m 14,0 16.2793,9.39844 -16.2793,9.40039 z m 60.56055,0 v 18.79883 l -16.28125,-9.40039 z m 14,0 16.28125,9.39844 -16.28125,9.40039 z m 60.56055,0 v 18.79883 l -16.2793,-9.40039 z m 14,0 16.28124,9.39844 -16.28124,9.40039 z m -118.8418,17.48242 30.28125,17.48047 v 34.9668 l -30.2793,17.48242 -30.28125,-17.48242 v -34.9668 z m 74.5625,0 30.2793,17.48047 v 34.9668 l -30.2793,17.48047 -30.28125,-17.48047 v -34.9668 z m -664.04883,4.04102 16.28125,9.39844 -16.28125,9.40039 z m 209.68164,0 v 18.79883 l -16.28125,-9.40039 z m 14,0 16.28125,9.39844 -16.28125,9.40039 z m 60.5625,0 v 18.79883 l -16.28125,-9.40039 z m 14,0 16.28125,9.39844 -16.28125,9.40039 z m 60.56055,0 v 18.79883 l -16.28125,-9.40039 z m 14,0 16.28125,9.39844 -16.28125,9.40039 z m 60.56054,0 v 18.79883 l -16.28125,-9.40039 z m 14,0 16.28125,9.39844 -16.28125,9.40039 z m 60.56055,0 v 18.79883 l -16.28125,-9.40039 z m 14,0 16.28125,9.39844 -16.28125,9.40039 z m 209.68359,0 v 18.79883 l -16.28124,-9.40039 z m -328.52343,17.48242 30.27929,17.48242 v 34.96485 l -30.27929,17.48047 -30.28125,-17.48047 v -34.96485 z m 74.56054,0 30.2793,17.48242 v 34.96485 l -30.2793,17.48047 -30.28125,-17.48047 v -34.96485 z m -454.36718,4.04102 v 18.79883 l -16.2793,-9.39844 z m 14,0 16.28125,9.40039 -16.28125,9.39844 z m 60.5625,0 v 18.79883 l -16.28125,-9.39844 z m 14,0 16.27929,9.40039 -16.27929,9.39844 z m 60.56054,0 v 18.79883 l -16.28125,-9.39844 z m 14,0 16.2793,9.40039 -16.2793,9.39844 z m 60.56055,0 v 18.79883 l -16.28125,-9.39844 z m 14,0 16.28125,9.40039 -16.28125,9.39844 z m 60.56055,0 v 18.79883 l -16.2793,-9.39844 z m 14,0 16.28125,9.40039 -16.28125,9.39844 z m 209.68359,0 v 18.79883 l -16.28125,-9.39844 z m 163.1211,0 16.28124,9.40039 -16.28124,9.39844 z m -491.64649,17.48437 30.28125,17.48047 v 34.96485 l -30.28125,17.48242 -30.2793,-17.48242 v -34.96485 z m 74.5625,0 30.2793,17.48047 v 34.96485 l -30.2793,17.48242 -30.28125,-17.48242 v -34.96485 z m -379.80664,4.04102 v 18.79687 l -16.279297,-9.39843 z m 14,0 16.2793,9.39844 -16.2793,9.39843 z m 60.5625,0 v 18.79687 l -16.2793,-9.39843 z m 14,0 16.2793,9.39844 -16.2793,9.39843 z m 60.56055,0 v 18.79687 L 205.25,198.66602 Z m 14,0 16.27929,9.39844 -16.27929,9.39843 z m 60.56054,0 v 18.79687 l -16.27929,-9.39843 z m 14,0 16.2793,9.39844 -16.2793,9.39843 z m 209.6836,0 v 18.79687 l -16.2793,-9.39843 z m 163.12109,0 16.2793,9.39844 -16.2793,9.39843 z m 209.68359,0 v 18.79687 l -16.27929,-9.39843 z m 14,0 16.2793,9.39844 -16.2793,9.39843 z M 191.25,206.74805 l 30.2793,17.48242 v 34.9668 l -30.28125,17.48046 -30.2793,-17.48046 v -34.9668 z m 74.56055,0.002 30.27929,17.48047 v 34.9668 l -30.27929,17.48046 -30.28125,-17.48046 v -34.9668 z m -230.683597,4.04102 v 18.79687 L 18.847656,220.1895 Z m 14,0 16.279297,9.39843 -16.279297,9.39844 z m 60.560547,0 v 18.79687 L 93.408203,220.1895 Z m 14,0 16.2793,9.39843 -16.2793,9.39844 z m 209.68359,0 v 18.79687 L 317.0918,220.1895 Z m 163.1211,0 16.27929,9.39843 -16.27929,9.39844 z m 209.68359,0 v 18.79687 l -16.2793,-9.39844 z m 14,0 16.2793,9.39843 -16.2793,9.39844 z m 60.56055,0 v 18.79687 l -16.2793,-9.39844 z m 14,0 16.27929,9.39843 -16.27929,9.39844 z m 60.56055,0 v 18.79687 l -16.2793,-9.39844 z m 14,0 16.27929,9.39843 -16.27929,9.39844 z m 60.56054,0 v 18.79687 l -16.2793,-9.39844 z m 14,0 16.2793,9.39843 -16.2793,9.39844 z M 79.40625,228.27344 109.6875,245.75391 V 280.7207 L 79.40625,298.20117 49.126953,280.7207 v -34.96679 z m 820.17187,0 30.2793,17.48047 v 34.96679 l -30.2793,17.48047 -30.28124,-17.48047 v -34.96679 z m -752.60937,4.04101 v 18.79883 l -16.28125,-9.40039 z m 163.12109,0 16.28125,9.39844 -16.28125,9.40039 z m 209.6836,0 v 18.79883 l -16.28125,-9.40039 z m 14,0 16.28125,9.39844 -16.28125,9.40039 z m 60.56054,0 v 18.79883 l -16.27929,-9.40039 z m 14,0 16.28125,9.39844 -16.28125,9.40039 z m 60.56055,0 v 18.79883 l -16.2793,-9.40039 z m 14,0 16.28125,9.39844 -16.28125,9.40039 z m 60.56055,0 v 18.79883 l -16.2793,-9.40039 z m 14,0 16.28125,9.39844 -16.28125,9.40039 z m 60.5625,0 v 18.79883 l -16.28125,-9.40039 z m 14,0 16.2793,9.39844 -16.2793,9.40039 z m -118.8418,17.48243 30.2793,17.48046 v 34.9668 l -30.2793,17.48047 -30.28125,-17.48047 v -34.9668 z m 74.56055,0 30.28125,17.48046 v 34.9668 l -30.28125,17.48047 -30.28125,-17.48047 v -34.9668 z m -664.04883,4.04101 16.28125,9.40039 -16.28125,9.39844 z m 209.68359,0 v 18.79883 l -16.28125,-9.39844 z m 14,0 16.28125,9.40039 -16.28125,9.39844 z m 60.56055,0 v 18.79883 l -16.28125,-9.39844 z m 14,0 16.28125,9.40039 -16.28125,9.39844 z m 60.56055,0 v 18.79883 l -16.28125,-9.39844 z m 14,0 16.28125,9.40039 -16.28125,9.39844 z m 60.5625,0 v 18.79883 l -16.28125,-9.39844 z m 14,0 16.28125,9.40039 -16.28125,9.39844 z m 60.56054,0 v 18.79883 l -16.28125,-9.39844 z m 14,0 16.28125,9.40039 -16.28125,9.39844 z m 209.68165,0 v 18.79883 l -16.28126,-9.39844 z m -328.52344,17.48242 30.28125,17.48047 v 34.9668 L 526.77344,341.25 496.49219,323.76758 v -34.9668 z m 74.56054,0 30.28125,17.48047 v 34.9668 L 601.33398,341.25 571.05469,323.76758 v -34.9668 z m -454.36523,4.04102 v 18.79883 l -16.28125,-9.39844 z m 14,0 16.28125,9.40039 -16.28125,9.39844 z m 60.56055,0 v 18.79883 l -16.28125,-9.39844 z m 14,0 16.28125,9.40039 -16.28125,9.39844 z m 60.56054,0 v 18.79883 l -16.28125,-9.39844 z m 14,0 16.28125,9.40039 -16.28125,9.39844 z m 60.56055,0 v 18.79883 l -16.28125,-9.39844 z m 14,0 16.28125,9.40039 -16.28125,9.39844 z m 60.5625,0 v 18.79883 l -16.28125,-9.39844 z m 14,0 16.28125,9.40039 -16.28125,9.39844 z m 209.68164,0 v 18.79883 l -16.28125,-9.39844 z m 163.12305,0 16.28125,9.40039 -16.28125,9.39844 z m -491.64649,17.48242 30.2793,17.48242 v 34.9668 l -30.2793,17.48047 -30.28125,-17.48047 v -34.9668 z m 74.56055,0 30.28125,17.48242 v 34.9668 l -30.28125,17.48047 -30.28125,-17.48047 v -34.9668 z m -379.804687,4.04102 v 18.79882 l -16.28125,-9.39843 z m 14,0 16.279297,9.40039 -16.279297,9.39843 z m 60.560547,0 v 18.79882 l -16.28125,-9.39843 z m 14,0 16.28125,9.40039 -16.28125,9.39843 z m 60.56055,0 v 18.79882 l -16.2793,-9.39843 z m 14,0 16.28125,9.40039 -16.28125,9.39843 z m 60.5625,0 v 18.79882 l -16.28125,-9.39843 z m 14,0 16.27929,9.40039 -16.27929,9.39843 z m 209.68164,0 v 18.79882 l -16.2793,-9.39843 z m 163.12304,0 16.2793,9.40039 -16.2793,9.39843 z m 209.68165,0 v 18.79882 l -16.2793,-9.39843 z m 14,0 16.28124,9.40039 -16.28124,9.39843 z m 60.56054,0 v 18.79882 l -16.2793,-9.39843 z m 14,0 16.28125,9.40039 -16.28125,9.39843 z m -789.88867,17.48437 30.2793,17.48047 v 34.9668 l -30.2793,17.48047 -30.28125,-17.48047 v -34.9668 z m 74.56055,0 30.28125,17.48047 v 34.9668 l -30.28125,17.48047 -30.28125,-17.48243 v -34.96289 z m -156.12305,4.04102 v 18.79882 l -16.279297,-9.40039 z m 14,0 16.28125,9.39843 -16.28125,9.40039 z m 209.68359,0 v 18.79882 l -16.27929,-9.40039 z m 163.12305,0 16.2793,9.39843 -16.2793,9.40039 z m 209.68164,0 v 18.79882 l -16.2793,-9.40039 z m 14,0 16.28125,9.39843 -16.28125,9.40039 z m 60.56055,0 v 18.79882 l -16.2793,-9.40039 z m 14,0 16.28125,9.39843 -16.28125,9.40039 z m 60.5625,0 v 18.79882 l -16.28125,-9.40039 z m 14,0 16.2793,9.39843 -16.2793,9.40039 z m 60.56054,0 v 18.79882 l -16.28124,-9.40039 z m 14,0 16.2793,9.39843 -16.2793,9.40039 z m -44.28124,17.48242 30.28124,17.48047 v 34.96679 l -30.28124,17.48047 -30.2793,-17.48047 v -34.96679 z m -752.60938,4.04101 v 18.79883 l -16.28125,-9.40039 z m 163.12305,0 16.28125,9.39844 -16.28125,9.40039 z m 209.68164,0 v 18.79883 l -16.28125,-9.40039 z m 14,0 16.28125,9.39844 -16.28125,9.40039 z m 60.5625,0 v 18.79883 l -16.28125,-9.40039 z m 14,0 16.28125,9.39844 -16.28125,9.40039 z m 60.56054,0 v 18.79883 l -16.28125,-9.40039 z m 14,0 16.28125,9.39844 -16.28125,9.40039 z m 60.56055,0 v 18.79883 l -16.28125,-9.40039 z m 14,0 16.28125,9.39844 -16.28125,9.40039 z m 60.56055,0 v 18.79883 l -16.28125,-9.40039 z m 14,0 16.28125,9.39844 -16.28125,9.40039 z m -118.8418,17.48243 30.28125,17.48242 v 34.96484 l -30.28125,17.48047 -30.2793,-17.48047 v -34.96484 z m 74.56055,0 30.28125,17.48242 v 34.96484 l -30.28125,17.48047 -30.2793,-17.48047 v -34.96484 z m -664.04883,4.04101 16.28125,9.40039 -16.28125,9.39844 z m 209.68359,0 v 18.79883 l -16.27929,-9.39844 z m 14,0 16.28125,9.40039 -16.28125,9.39844 z m 60.56055,0 v 18.79883 l -16.2793,-9.39844 z m 14,0 16.28125,9.40039 -16.28125,9.39844 z m 60.5625,0 v 18.79883 l -16.28125,-9.39844 z m 14,0 16.2793,9.40039 -16.2793,9.39844 z m 60.56055,0 v 18.79883 l -16.28125,-9.39844 z m 14,0 16.28125,9.40039 -16.28125,9.39844 z m 60.56054,0 v 18.79883 l -16.27929,-9.39844 z m 14,0 16.28125,9.40039 -16.28125,9.39844 z m 209.6836,0 v 18.79883 l -16.28125,-9.39844 z m -328.52539,17.48438 30.28125,17.48047 v 34.96484 l -30.28125,17.48242 -30.2793,-17.48242 v -34.96484 z m 74.5625,0 30.27929,17.48047 v 34.96484 l -30.27929,17.48242 -30.28125,-17.48242 v -34.96484 z m -454.36719,4.04101 v 18.79688 l -16.279297,-9.39844 z m 14,0 16.2793,9.39844 -16.2793,9.39844 z m 60.56055,0 v 18.79688 l -16.2793,-9.39844 z m 14,0 16.28125,9.39844 -16.28125,9.40039 z m 60.5625,0 v 18.79688 l -16.2793,-9.39844 z m 14,0 16.27929,9.39844 -16.27929,9.39844 z m 60.56054,0 v 18.79688 l -16.27929,-9.39844 z m 14,0 16.2793,9.39844 -16.2793,9.39844 z m 60.56055,0 v 18.79688 l -16.2793,-9.39844 z m 14,0 16.2793,9.39844 -16.2793,9.39844 z m 209.68359,0 v 18.79688 l -16.27929,-9.39844 z m 163.1211,0 16.27929,9.39844 -16.27929,9.39844 z m -491.64649,17.48242 30.28125,17.48047 v 34.9668 l -30.28125,17.48047 -30.27929,-17.48047 v -34.9668 z m 74.56055,0 30.28125,17.48047 v 34.9668 l -30.28125,17.48047 -30.2793,-17.48047 v -34.9668 z m -305.24414,4.04102 v 18.79687 L 56.126953,413.9043 Z m 14,0 16.2793,9.39844 -16.2793,9.39843 z m 60.5625,0 v 18.79687 l -16.2793,-9.39843 z m 14,0 16.2793,9.39844 -16.2793,9.39843 z m 60.56055,0 v 18.79687 L 205.25,413.9043 Z m 14,0 16.27929,9.39844 -16.27929,9.39843 z m 209.68359,0 v 18.79687 l -16.2793,-9.39843 z m 163.12109,0 16.2793,9.39844 -16.2793,9.39843 z m 209.6836,0 v 18.79687 l -16.2793,-9.39843 z m 14,0 16.2793,9.39844 -16.2793,9.39843 z m 60.56054,0 v 18.79687 l -16.27929,-9.39843 z m 14,0 16.2793,9.39844 -16.2793,9.39843 z m -789.89062,17.48242 30.28125,17.48047 v 34.9668 L 116.6875,491.91602 86.40625,474.43555 v -34.9668 z m 74.56055,0 30.28125,17.48047 v 34.9668 l -30.28125,17.48047 -30.2793,-17.48047 v -34.9668 z M 35.126953,426.0293 v 18.79882 l -16.28125,-9.40039 z m 14,0 16.279297,9.39843 -16.279297,9.40039 z m 209.683597,0 v 18.79882 l -16.28125,-9.40039 z m 163.12109,0 16.28125,9.39843 -16.28125,9.40039 z m 209.68359,0 v 18.79882 l -16.28125,-9.40039 z m 14,0 16.2793,9.39843 -16.2793,9.40039 z m 60.56055,0 v 18.79882 l -16.28125,-9.40039 z m 14,0 16.2793,9.39843 -16.2793,9.40039 z m 60.56055,0 v 18.79882 l -16.28125,-9.40039 z m 14,0 16.28125,9.39843 -16.28125,9.40039 z m 60.56055,0 v 18.79882 l -16.2793,-9.40039 z m 14,0 16.28124,9.39843 -16.28124,9.40039 z m 60.56054,0 v 18.79882 l -16.2793,-9.40039 z m 14,0 16.28125,9.39843 -16.28125,9.40039 z m -118.83984,17.48242 30.2793,17.48047 v 34.96679 l -30.2793,17.48047 -30.28125,-17.48047 v -34.96679 z m 74.56054,0 30.2793,17.48047 v 34.96679 l -30.2793,17.48047 -30.28124,-17.48047 v -34.96679 z m -827.17187,4.04101 v 18.79883 L 56.125,456.95312 Z m 163.12305,0 16.28125,9.40039 -16.28125,9.39844 z m 209.68359,0 v 18.79883 l -16.28125,-9.39844 z m 14,0 16.28125,9.40039 -16.28125,9.39844 z m 60.56055,0 v 18.79883 l -16.28125,-9.39844 z m 14,0 16.28125,9.40039 -16.28125,9.39844 z m 60.56054,0 v 18.79883 l -16.28125,-9.39844 z m 14,0 16.28125,9.40039 -16.28125,9.39844 z m 60.56055,0 v 18.79883 l -16.28125,-9.39844 z m 14,0 16.28125,9.40039 -16.28125,9.39844 z m 60.56055,0 v 18.79883 l -16.28125,-9.39844 z m 14,0 16.28125,9.40039 -16.28125,9.39844 z m -118.83985,17.48243 30.2793,17.48242 v 34.96484 l -30.2793,17.48242 -30.28125,-17.48242 v -34.96484 z m 74.56055,0 30.2793,17.48242 v 34.96484 l -30.2793,17.48242 -30.28125,-17.48242 v -34.96484 z m -664.048827,4.04101 16.279297,9.40039 -16.279297,9.39844 z m 209.683597,0 V 487.875 l -16.28125,-9.39844 z m 14,0 16.27929,9.40039 -16.27929,9.39844 z m 60.56054,0 V 487.875 l -16.28125,-9.39844 z m 14,0 16.2793,9.40039 -16.2793,9.39844 z m 60.56055,0 V 487.875 l -16.28125,-9.39844 z m 14,0 16.28125,9.40039 -16.28125,9.39844 z m 60.56055,0 V 487.875 l -16.2793,-9.39844 z m 14,0 16.28125,9.40039 -16.28125,9.39844 z m 60.5625,0 V 487.875 l -16.28125,-9.39844 z m 14,0 16.27929,9.40039 -16.27929,9.39844 z m 209.68164,0 V 487.875 l -16.28125,-9.39844 z m 163.12109,0 16.28125,9.40039 -16.28125,9.39844 z m -491.64453,17.48438 30.2793,17.48047 v 34.96679 l -30.2793,17.48047 -30.28125,-17.48047 v -34.96679 z m 74.56055,0 30.28125,17.48047 v 34.96679 l -30.28125,17.48047 -30.28125,-17.48047 v -34.96679 z m -454.36719,4.04101 v 18.79688 L 56.126953,500 Z m 14,0 16.2793,9.39844 -16.2793,9.39844 z m 60.5625,0 v 18.79688 L 130.68945,500 Z m 14,0 16.2793,9.39844 -16.2793,9.39844 z m 60.56055,0 v 18.79688 L 205.25,500 Z m 14,0 16.27929,9.39844 -16.27929,9.39844 z m 60.56054,0 v 18.79688 L 279.81055,500 Z m 14,0 16.2793,9.39844 -16.2793,9.39844 z m 60.56055,0 v 18.79688 L 354.37109,500 Z m 14,0 16.2793,9.39844 -16.2793,9.39844 z m 209.68359,0 v 18.79688 L 578.05469,500 Z m 163.1211,0 16.2793,9.39844 -16.2793,9.39844 z m -491.64453,17.48242 30.27929,17.48047 v 34.9668 l -30.27929,17.48047 -30.28125,-17.48047 v -34.9668 z m 74.56054,0 30.2793,17.48047 v 34.9668 l -30.2793,17.48047 -30.28125,-17.48047 v -34.9668 z M 35.126953,512.125 v 18.79883 l -16.28125,-9.40039 z m 14,0 16.279297,9.39844 -16.279297,9.40039 z m 60.560547,0 v 18.79883 l -16.28125,-9.40039 z m 14,0 16.28125,9.39844 -16.28125,9.40039 z m 60.56055,0 v 18.79883 l -16.2793,-9.40039 z m 14,0 16.28125,9.39844 -16.28125,9.40039 z m 209.68359,0 v 18.79883 l -16.28125,-9.40039 z m 163.12305,0 16.27929,9.39844 -16.27929,9.40039 z m 209.68164,0 v 18.79883 l -16.28125,-9.40039 z m 14,0 16.28125,9.39844 -16.28125,9.40039 z m 60.56055,0 v 18.79883 l -16.2793,-9.40039 z m 14,0 16.28124,9.39844 -16.28124,9.40039 z m 60.56054,0 v 18.79883 l -16.2793,-9.40039 z m 14,0 16.28125,9.39844 -16.28125,9.40039 z m -864.45117,17.48242 30.28125,17.48047 v 34.9668 L 79.40625,599.53516 49.126953,582.05469 v -34.9668 z m 74.5625,0 30.2793,17.48047 v 34.9668 l -30.2793,17.48047 -30.28125,-17.48047 v -34.9668 z m 67.56055,4.04102 v 18.79883 l -16.28125,-9.40039 z m 163.12109,0 16.28125,9.39844 -16.28125,9.40039 z m 209.68359,0 v 18.79883 l -16.28125,-9.40039 z m 14,0 16.28125,9.39844 -16.28125,9.40039 z m 60.56055,0 v 18.79883 l -16.28125,-9.40039 z m 14,0 16.28125,9.39844 -16.28125,9.40039 z m 60.56055,0 v 18.79883 l -16.28125,-9.40039 z m 14,0 16.28125,9.39844 -16.28125,9.40039 z m 60.5625,0 v 18.79883 l -16.28125,-9.40039 z m 14,0 16.28125,9.39844 -16.28125,9.40039 z m 60.56054,0 v 18.79883 l -16.28124,-9.40039 z m 14,0 16.28126,9.39844 -16.28126,9.40039 z m -118.84179,17.48242 30.28125,17.48242 v 34.96484 l -30.28125,17.48047 -30.28125,-17.48047 v -34.96484 z m 74.56055,0 30.28124,17.48242 v 34.96484 l -30.28124,17.48047 -30.2793,-17.48047 v -34.96484 z m -827.169927,4.04102 v 18.79882 l -16.28125,-9.39843 z m 163.121097,0 16.28125,9.40039 -16.28125,9.39843 z m 209.68359,0 v 18.79882 l -16.28125,-9.39843 z m 14,0 16.28125,9.40039 -16.28125,9.39843 z m 60.56055,0 v 18.79882 l -16.2793,-9.39843 z m 14,0 16.28125,9.40039 -16.28125,9.39843 z m 60.5625,0 v 18.79882 l -16.28125,-9.39843 z m 14,0 16.27929,9.40039 -16.27929,9.39843 z m 60.56054,0 v 18.79882 l -16.28125,-9.39843 z m 14,0 16.2793,9.40039 -16.2793,9.39843 z m 60.56055,0 v 18.79882 l -16.28125,-9.39843 z m 14,0 16.2793,9.40039 -16.2793,9.39843 z m 209.68164,0 v 18.79882 l -16.2793,-9.39843 z m -328.52344,17.48437 30.28125,17.48047 v 34.96484 l -30.28125,17.48242 -30.27929,-17.48242 v -34.96484 z m 74.56055,0 30.28125,17.48047 v 34.96484 l -30.28125,17.48242 -30.2793,-17.48242 v -34.96484 z m -454.36523,4.04102 v 18.79687 L 205.25,586.0957 Z m 14,0 16.27929,9.39843 -16.27929,9.39844 z m 60.56054,0 v 18.79687 l -16.27929,-9.39844 z m 14,0 16.2793,9.39843 -16.2793,9.39844 z m 60.56055,0 v 18.79687 l -16.2793,-9.39844 z m 14,0 16.2793,9.39843 -16.2793,9.39844 z m 60.5625,0 v 18.79687 l -16.2793,-9.39844 z m 14,0 16.2793,9.39843 -16.2793,9.39844 z m 60.56055,0 v 18.79687 l -16.2793,-9.39844 z m 14,0 16.27929,9.39843 -16.27929,9.39844 z m 209.68164,0 v 18.79687 l -16.2793,-9.39844 z m 163.12304,0 16.2793,9.39843 -16.2793,9.39844 z m -491.64648,17.48242 30.28125,17.48047 v 34.96679 l -30.28125,17.48047 -30.28125,-17.48047 v -34.96679 z m 74.56055,0 30.28125,17.48047 v 34.96679 l -30.28125,17.48047 -30.2793,-17.48047 v -34.96679 z m -291.24414,4.03906 16.28125,9.40039 -16.28125,9.39844 z m -163.121097,0.002 v 18.79688 l -16.279297,-9.39844 z m 14,0 16.279297,9.39844 -16.279297,9.39844 z m 60.560547,0 v 18.79688 l -16.279297,-9.39844 z m 14,0 16.2793,9.39844 -16.2793,9.39844 z m 60.56055,0 v 18.79688 l -16.2793,-9.39844 z m 74.5625,0 v 18.79688 l -16.2793,-9.39844 z m 14,0 16.27929,9.39844 -16.27929,9.39844 z m 60.56054,0 v 18.79688 l -16.27929,-9.39844 z m 14,0 16.2793,9.39844 -16.2793,9.39844 z m 209.6836,0 v 18.79688 l -16.2793,-9.39844 z m 163.12109,0 16.2793,9.39844 -16.2793,9.39844 z m 209.68164,0 v 18.79688 l -16.2793,-9.39844 z m 14,0 16.2793,9.39844 -16.2793,9.39844 z m -715.32812,17.48242 30.28125,17.48047 v 34.9668 L 228.5293,685.63091 198.24805,668.14849 V 633.1856 Z m 74.56054,0 30.28125,17.48047 v 34.9668 l -30.28125,17.48047 -30.27929,-17.48047 v -34.9668 z m -230.68359,4.04102 v 18.79883 l -16.279297,-9.40039 z m 14,0 16.28125,9.39844 -16.28125,9.40039 z m 60.5625,0 v 18.79883 l -16.28125,-9.40039 z m 14,0 16.28125,9.39844 -16.28125,9.40039 z m 209.68164,0 v 18.79883 l -16.2793,-9.40039 z m 163.12305,0 16.28125,9.39844 -16.28125,9.40039 z m 209.68164,0 v 18.79883 l -16.2793,-9.40039 z m 14,0 16.28125,9.39844 -16.28125,9.40039 z m 60.5625,0 v 18.79883 l -16.28125,-9.40039 z m 14,0 16.2793,9.39844 -16.2793,9.40039 z m 60.56054,0 v 18.79883 l -16.28124,-9.40039 z m 14,0 16.2793,9.39844 -16.2793,9.40039 z m -789.89062,17.48242 30.28125,17.48047 v 34.9668 L 116.6875,707.15625 86.40625,689.67383 v -34.9668 z m 67.56055,4.04102 v 18.79883 l -16.28125,-9.39844 z m 163.12304,0 16.28125,9.40039 -16.28125,9.39844 z m 209.6836,0 v 18.79883 l -16.28125,-9.39844 z m 14,0 16.28125,9.40039 -16.28125,9.39844 z m 60.56054,0 v 18.79883 l -16.28125,-9.39844 z m 14,0 16.28125,9.40039 -16.28125,9.39844 z m 60.56055,0 v 18.79883 l -16.28125,-9.39844 z m 14,0 16.28125,9.40039 -16.28125,9.39844 z m 60.56055,0 v 18.79883 l -16.28125,-9.39844 z m 14,0 16.28125,9.40039 -16.28125,9.39844 z m 60.56055,0 v 18.79883 l -16.28126,-9.39844 z m 14,0 16.28124,9.40039 -16.28124,9.39844 z m -118.8418,17.48242 30.28125,17.48242 v 34.9668 l -30.28125,17.48047 -30.2793,-17.48047 v -34.9668 z m 74.5625,0 30.2793,17.48242 v 34.9668 l -30.2793,17.48047 -30.28125,-17.48047 v -34.9668 z m -664.04883,4.04102 16.28125,9.40039 -16.28125,9.39843 z m 209.68164,0 v 18.79882 l -16.2793,-9.39843 z m 14,0 16.28125,9.40039 -16.28125,9.39843 z m 60.5625,0 v 18.79882 l -16.28125,-9.39843 z m 14,0 16.2793,9.40039 -16.2793,9.39843 z m 60.56055,0 v 18.79882 l -16.28125,-9.39843 z m 14,0 16.28125,9.40039 -16.28125,9.39843 z m 60.56054,0 v 18.79882 l -16.27929,-9.39843 z m 14,0 16.28125,9.40039 -16.28125,9.39843 z m 60.56055,0 v 18.79882 l -16.2793,-9.39843 z m 14,0 16.28125,9.40039 -16.28125,9.39843 z m 209.68359,0 v 18.79882 l -16.28124,-9.39843 z m -328.52343,17.48437 30.27929,17.48047 v 34.9668 l -30.27929,17.48046 -30.28125,-17.48046 v -34.9668 z m 74.56054,0 30.2793,17.48047 v 34.9668 l -30.2793,17.48046 -30.28125,-17.48046 v -34.9668 z m -454.36718,4.04102 v 18.79882 l -16.2793,-9.40039 z m 14,0 16.28125,9.39843 -16.28125,9.40039 z m 60.5625,0 v 18.79882 l -16.28125,-9.40039 z m 14,0 16.27929,9.39843 -16.27929,9.40039 z m 60.56054,0 v 18.79882 l -16.28125,-9.40039 z m 14,0 16.2793,9.39843 -16.2793,9.40039 z m 60.56055,0 v 18.79882 l -16.28125,-9.40039 z m 14,0 16.28125,9.39843 -16.28125,9.40039 z m 60.56055,0 v 18.79882 l -16.2793,-9.40039 z m 14,0 16.28125,9.39843 -16.28125,9.40039 z m 209.68359,0 v 18.79882 l -16.28125,-9.40039 z m 163.1211,0 16.28124,9.39843 -16.28124,9.40039 z m -491.64649,17.48242 30.28125,17.48047 v 34.96679 l -30.28125,17.48047 -30.2793,-17.48047 V 719.2793 Z m 74.5625,0 30.2793,17.48047 v 34.96679 l -30.2793,17.48047 -30.28125,-17.48047 V 719.2793 Z m -379.80664,4.04101 v 18.79883 L 56.125,715.23828 Z m 14,0 16.28125,9.39844 -16.28125,9.40039 z m 60.5625,0 v 18.79883 l -16.28125,-9.40039 z m 14,0 16.28125,9.39844 -16.28125,9.40039 z m 60.56055,0 v 18.79883 l -16.28125,-9.40039 z m 14,0 16.28125,9.39844 -16.28125,9.40039 z m 60.56054,0 v 18.79883 l -16.28125,-9.40039 z m 14,0 16.28125,9.39844 -16.28125,9.40039 z m 209.6836,0 v 18.79883 l -16.28125,-9.40039 z m 163.12109,0 16.28125,9.39844 -16.28125,9.40039 z m 209.68359,0 v 18.79883 l -16.28124,-9.40039 z m 14,0 16.28126,9.39844 -16.28126,9.40039 z m -715.33007,17.48243 30.28125,17.48046 v 34.9668 L 191.25,793.25195 160.96875,775.76953 v -34.9668 z m 74.5625,0 30.27929,17.48046 v 34.9668 L 265.81055,793.25 235.5293,775.76953 v -34.9668 z m -230.683597,4.04101 v 18.79883 l -16.28125,-9.40039 z m 14,0 16.28125,9.39844 -16.28125,9.40039 z m 60.560547,0 v 18.79883 l -16.28125,-9.40039 z m 14,0 16.28125,9.39844 -16.28125,9.40039 z m 209.68359,0 v 18.79883 l -16.28125,-9.40039 z m 163.1211,0 16.28125,9.39844 -16.28125,9.40039 z m 209.68359,0 v 18.79883 l -16.28125,-9.40039 z m 14,0 16.28125,9.39844 -16.28125,9.40039 z m 60.56055,0 v 18.79883 l -16.28125,-9.40039 z m 14,0 16.28125,9.39844 -16.28125,9.40039 z m 60.56055,0 v 18.79883 l -16.28126,-9.40039 z m 14,0 16.28124,9.39844 -16.28124,9.40039 z m 60.56054,0 v 18.79883 l -16.28125,-9.40039 z m 14,0 16.28125,9.39844 -16.28125,9.40039 z M 79.40625,744.8457 109.6875,762.32812 v 34.96485 L 79.40625,814.77344 49.126953,797.29297 v -34.96485 z m 820.17187,0 30.2793,17.48242 v 34.96485 l -30.2793,17.48047 -30.28124,-17.48047 v -34.96485 z m -752.60937,4.04102 v 18.79883 l -16.28125,-9.39844 z m 163.12109,0 16.28125,9.40039 -16.28125,9.39844 z m 209.6836,0 v 18.79883 l -16.28125,-9.39844 z m 14,0 16.28125,9.40039 -16.28125,9.39844 z m 60.56054,0 v 18.79883 l -16.27929,-9.39844 z m 14,0 16.28125,9.40039 -16.28125,9.39844 z m 60.56055,0 v 18.79883 l -16.2793,-9.39844 z m 14,0 16.28125,9.40039 -16.28125,9.39844 z m 60.56055,0 v 18.79883 l -16.2793,-9.39844 z m 14,0 16.28125,9.40039 -16.28125,9.39844 z m 60.5625,0 v 18.79883 l -16.28125,-9.39844 z m 14,0 16.2793,9.40039 -16.2793,9.39844 z m -118.8418,17.48437 30.2793,17.48047 v 34.96485 l -30.2793,17.48242 -30.28125,-17.48242 v -34.96485 z m 74.56055,0 30.28125,17.48047 v 34.96485 l -30.28125,17.48242 -30.28125,-17.48242 v -34.96485 z m -664.04883,4.04102 16.2793,9.39844 -16.2793,9.39843 z m 209.68359,0 v 18.79687 l -16.27929,-9.39843 z m 14,0 16.2793,9.39844 -16.2793,9.39843 z m 60.56055,0 v 18.79687 l -16.2793,-9.39843 z m 14,0 16.2793,9.39844 -16.2793,9.39843 z m 60.56055,0 v 18.79687 l -16.2793,-9.39843 z m 14,0 16.27929,9.39844 -16.27929,9.39843 z m 60.5625,0 v 18.79687 l -16.2793,-9.39843 z m 14,0 16.27929,9.39844 -16.27929,9.39843 z m 60.56054,0 v 18.79687 l -16.27929,-9.39843 z m 14,0 16.2793,9.39844 -16.2793,9.39843 z m 209.68165,0 v 18.79687 l -16.2793,-9.39843 z m -328.52344,17.48242 30.28125,17.48047 v 34.9668 L 526.77344,857.82227 496.49219,840.3418 V 805.375 Z m 74.56054,0 30.28125,17.48047 v 34.9668 L 601.33398,857.82227 571.05469,840.3418 V 805.375 Z m -454.36523,4.04102 v 18.79687 l -16.2793,-9.39844 z m 14,0 16.2793,9.39843 -16.2793,9.39844 z m 60.56055,0 v 18.79687 L 205.25,801.33398 Z m 14,0 16.27929,9.39843 -16.27929,9.39844 z m 60.56054,0 v 18.79687 l -16.27929,-9.39844 z m 14,0 16.2793,9.39843 -16.2793,9.39844 z m 60.56055,0 v 18.79687 l -16.2793,-9.39844 z m 14,0 16.2793,9.39843 -16.2793,9.39844 z m 60.5625,0 v 18.79687 l -16.2793,-9.39844 z m 14,0 16.2793,9.39843 -16.2793,9.39844 z m 209.68164,0 v 18.79687 l -16.2793,-9.39844 z m 163.12305,0 16.2793,9.39843 -16.2793,9.39844 z m -491.64649,17.48242 30.2793,17.48047 v 34.96679 l -30.2793,17.48047 -30.28125,-17.48047 v -34.96679 z m 74.56055,0 30.28125,17.48047 v 34.96679 l -30.28125,17.48047 -30.28125,-17.48047 v -34.96679 z m -379.804687,4.04101 v 18.79883 l -16.28125,-9.40039 z m 14,0 16.279297,9.39844 -16.279297,9.40039 z m 60.560547,0 v 18.79883 l -16.28125,-9.40039 z m 14,0 16.28125,9.39844 -16.28125,9.40039 z m 60.56055,0 v 18.79883 l -16.2793,-9.40039 z m 14,0 16.28125,9.39844 -16.28125,9.40039 z m 60.5625,0 v 18.79883 l -16.28125,-9.40039 z m 14,0 16.27929,9.39844 -16.27929,9.40039 z m 209.68164,0 v 18.79883 l -16.2793,-9.40039 z m 163.12304,0 16.2793,9.39844 -16.2793,9.40039 z m 209.68165,0 v 18.79883 l -16.2793,-9.40039 z m 14,0 16.28124,9.39844 -16.28124,9.40039 z m 60.56054,0 v 18.79883 l -16.2793,-9.40039 z m 14,0 16.28125,9.39844 -16.28125,9.40039 z m -789.88867,17.48243 30.2793,17.48047 v 34.96679 l -30.2793,17.48242 -30.28125,-17.48242 v -34.96679 z m 74.56055,0 30.28125,17.48047 v 34.96679 l -30.28125,17.48242 -30.28125,-17.48437 v -34.96289 z m -156.12305,4.04101 v 18.79883 L 56.125,844.38281 Z m 14,0 16.28125,9.40039 -16.28125,9.39844 z m 209.68359,0 v 18.79883 l -16.28125,-9.39844 z m 163.12305,0 16.28125,9.40039 -16.28125,9.39844 z m 209.68164,0 v 18.79883 l -16.28125,-9.39844 z m 14,0 16.28125,9.40039 -16.28125,9.39844 z m 60.56055,0 v 18.79883 l -16.28125,-9.39844 z m 14,0 16.28125,9.40039 -16.28125,9.39844 z m 60.5625,0 v 18.79883 l -16.28125,-9.39844 z m 14,0 16.28125,9.40039 -16.28125,9.39844 z m 60.56054,0 v 18.79883 l -16.28124,-9.39844 z m 14,0 16.28126,9.40039 -16.28126,9.39844 z m -44.28124,17.48242 30.28124,17.48243 v 34.96679 l -30.28124,17.48047 -30.2793,-17.48047 v -34.96679 z m -752.60938,4.04102 v 18.79883 l -16.28125,-9.39844 z m 163.12305,0 16.27929,9.40039 -16.27929,9.39844 z m 209.68164,0 v 18.79883 l -16.2793,-9.39844 z m 14,0 16.28125,9.40039 -16.28125,9.39844 z m 60.5625,0 v 18.79883 l -16.28125,-9.39844 z m 14,0 16.27929,9.40039 -16.27929,9.39844 z m 60.56054,0 v 18.79883 l -16.28125,-9.39844 z m 14,0 16.2793,9.40039 -16.2793,9.39844 z m 60.56055,0 v 18.79883 l -16.28125,-9.39844 z m 14,0 16.2793,9.40039 -16.2793,9.39844 z m 60.56055,0 v 18.79883 l -16.28125,-9.39844 z m 14,0 16.28125,9.40039 -16.28125,9.39844 z m -118.8418,17.48437 30.28125,17.48047 v 34.9668 l -30.28125,17.48047 -30.2793,-17.48047 v -34.9668 z m 74.56055,0 30.28125,17.48047 v 34.9668 l -30.28125,17.48047 -30.2793,-17.48047 v -34.9668 z m -664.04883,4.04102 16.28125,9.39844 -16.28125,9.40039 z m 209.68359,0 v 18.79883 l -16.27929,-9.40039 z m 14,0 16.28125,9.39844 -16.28125,9.40039 z m 60.56055,0 v 18.79883 l -16.2793,-9.40039 z m 14,0 16.28125,9.39844 -16.28125,9.40039 z m 60.5625,0 v 18.79883 l -16.28125,-9.40039 z m 14,0 16.2793,9.39844 -16.2793,9.40039 z m 60.56055,0 v 18.79883 l -16.28125,-9.40039 z m 14,0 16.28125,9.39844 -16.28125,9.40039 z m 60.56054,0 v 18.79883 l -16.27929,-9.40039 z m 14,0 16.28125,9.39844 -16.28125,9.40039 z m 209.6836,0 v 18.79883 l -16.28125,-9.40039 z m -328.52539,17.48242 30.28125,17.48047 v 34.9668 l -30.28125,17.48047 -30.2793,-17.48047 v -34.9668 z m 74.5625,0 30.27929,17.48047 v 34.9668 l -30.27929,17.48047 -30.28125,-17.48047 v -34.9668 z m -454.36719,4.04102 v 18.79883 l -16.28125,-9.4004 z m 14,0 16.28125,9.39843 -16.28125,9.4004 z m 60.56055,0 v 18.79883 l -16.28125,-9.4004 z m 14,0 16.28125,9.39843 -16.28125,9.4004 z m 60.5625,0 v 18.79883 l -16.28125,-9.4004 z m 14,0 16.28125,9.39843 -16.28125,9.4004 z m 60.56054,0 v 18.79883 l -16.28125,-9.4004 z m 14,0 16.28125,9.39843 -16.28125,9.4004 z m 60.56055,0 v 18.79883 l -16.28125,-9.4004 z m 14,0 16.28125,9.39843 -16.28125,9.4004 z m 209.68359,0 v 18.79883 l -16.28125,-9.4004 z m 163.1211,0 16.28125,9.39843 -16.28125,9.4004 z m -491.64649,17.48242 30.28125,17.48242 v 34.96485 l -30.28125,17.48046 -30.27929,-17.48046 v -34.96485 z m 74.56055,0 30.28125,17.48242 v 34.96485 l -30.28125,17.48046 -30.2793,-17.48046 v -34.96485 z m -305.24414,4.04101 v 18.79883 l -16.279297,-9.39843 z m 14,0 16.28125,9.4004 -16.28125,9.39843 z m 60.5625,0 v 18.79883 l -16.28125,-9.39843 z m 14,0 16.28125,9.4004 -16.28125,9.39843 z m 60.56055,0 v 18.79883 L 205.25,930.47852 Z m 14,0 16.28125,9.4004 -16.28125,9.39843 z m 209.68359,0 v 18.79883 l -16.28125,-9.39843 z m 163.12109,0 16.28125,9.4004 -16.28125,9.39843 z m 209.6836,0 v 18.79883 l -16.28125,-9.39843 z m 14,0 16.2793,9.4004 -16.2793,9.39843 z m 60.56054,0 v 18.79883 l -16.28124,-9.39843 z m 14,0 16.2793,9.4004 -16.2793,9.39843 z m -871.451167,21.5254 v 18.79687 l -16.279297,-9.39844 z m 14,0 16.279297,9.39843 -16.279297,9.39844 z m 209.683597,0 v 18.79687 l -16.2793,-9.39844 z m 163.12109,0 16.2793,9.39843 -16.2793,9.39844 z m 209.68359,0 v 18.79687 l -16.27929,-9.39844 z m 14,0 16.2793,9.39843 -16.2793,9.39844 z m 60.56055,0 v 18.79687 l -16.2793,-9.39844 z m 14,0 16.2793,9.39843 -16.2793,9.39844 z m 60.56055,0 v 18.79687 l -16.2793,-9.39844 z m 14,0 16.27929,9.39843 -16.27929,9.39844 z m 60.56055,0 v 18.79687 l -16.2793,-9.39844 z m 14,0 16.27929,9.39843 -16.27929,9.39844 z m 60.56054,0 v 18.79687 l -16.2793,-9.39844 z m 14,0 16.2793,9.39843 -16.2793,9.39844 z M 72.40625,964.12695 v 18.79688 l -16.279297,-9.39844 z m 163.12305,0 16.27929,9.39844 -16.27929,9.39844 z m 209.68359,0 v 18.79688 l -16.2793,-9.39844 z m 14,0 16.2793,9.39844 -16.2793,9.39844 z m 60.56055,0 v 18.79688 l -16.2793,-9.39844 z m 14,0 16.27929,9.39844 -16.27929,9.39844 z m 60.56054,0 v 18.79688 l -16.27929,-9.39844 z m 14,0 16.2793,9.39844 -16.2793,9.39844 z m 60.56055,0 v 18.79688 l -16.2793,-9.39844 z m 14,0 16.2793,9.39844 -16.2793,9.39844 z m 60.56055,0 v 18.79688 l -16.2793,-9.39844 z m 14,0 16.28125,9.39844 -16.28125,9.40039 z"
     id="path834" />
</svg>
