<?xml version="1.0" encoding="UTF-8" standalone="no"?>
<svg
   xmlns:dc="http://purl.org/dc/elements/1.1/"
   xmlns:cc="http://creativecommons.org/ns#"
   xmlns:rdf="http://www.w3.org/1999/02/22-rdf-syntax-ns#"
   xmlns:svg="http://www.w3.org/2000/svg"
   xmlns="http://www.w3.org/2000/svg"
   xmlns:sodipodi="http://sodipodi.sourceforge.net/DTD/sodipodi-0.dtd"
   xmlns:inkscape="http://www.inkscape.org/namespaces/inkscape"
   inkscape:version="1.0.1 (3bc2e813f5, 2020-09-07)"
   sodipodi:docname="5-uniform_316.svg"
   id="c:\kuniform\5u\5-uniform_316.svg"
   height="999.99994"
   width="977.5618"
   version="1.0">
  <style
     id="style6577" />
  <metadata
     id="metadata6575">
    <rdf:RDF>
      <cc:Work
         rdf:about="">
        <dc:format>image/svg+xml</dc:format>
        <dc:type
           rdf:resource="http://purl.org/dc/dcmitype/StillImage" />
        <dc:title></dc:title>
      </cc:Work>
    </rdf:RDF>
  </metadata>
  <defs
     id="defs6573" />
  <sodipodi:namedview
     inkscape:current-layer="c:\kuniform\5u\5-uniform_316.svg"
     inkscape:window-maximized="1"
     inkscape:window-y="-9"
     inkscape:window-x="-9"
     inkscape:cy="468.37304"
     inkscape:cx="304.70655"
     inkscape:zoom="0.74986619"
     showgrid="false"
     id="namedview6571"
     inkscape:window-height="1001"
     inkscape:window-width="1920"
     inkscape:pageshadow="2"
     inkscape:pageopacity="0"
     guidetolerance="10"
     gridtolerance="10"
     objecttolerance="10"
     borderopacity="1"
     inkscape:document-rotation="0"
     bordercolor="#666666"
     pagecolor="#ffffff" />
  <!-- X Coordinate transform: fx(x)=(x+78.93713)*0.84427285-->
  <!-- Y Coordinate transform: fy(y)=(1088.8762-y)*0.84427285 -->
  <path
     style="color:#000000;font-style:normal;font-variant:normal;font-weight:normal;font-stretch:normal;font-size:medium;line-height:normal;font-family:sans-serif;font-variant-ligatures:normal;font-variant-position:normal;font-variant-caps:normal;font-variant-numeric:normal;font-variant-alternates:normal;font-variant-east-asian:normal;font-feature-settings:normal;font-variation-settings:normal;text-indent:0;text-align:start;text-decoration:none;text-decoration-line:none;text-decoration-style:solid;text-decoration-color:#000000;letter-spacing:normal;word-spacing:normal;text-transform:none;writing-mode:lr-tb;direction:ltr;text-orientation:mixed;dominant-baseline:auto;baseline-shift:baseline;text-anchor:start;white-space:normal;shape-padding:0;shape-margin:0;inline-size:0;clip-rule:nonzero;display:inline;overflow:visible;visibility:visible;isolation:auto;mix-blend-mode:normal;color-interpolation:sRGB;color-interpolation-filters:linearRGB;solid-color:#000000;solid-opacity:1;vector-effect:none;fill:#000000;fill-opacity:1;fill-rule:nonzero;stroke:none;stroke-width:15;stroke-linecap:butt;stroke-linejoin:miter;stroke-miterlimit:4;stroke-dasharray:none;stroke-dashoffset:0;stroke-opacity:1;color-rendering:auto;image-rendering:auto;shape-rendering:auto;text-rendering:auto;enable-background:accumulate;stop-color:#000000"
     d="m 47.052734,-10.050781 -6.49414,11.2499998 -14.613282,25.3105472 -4.330078,7.5 h -8.660156 l 4.330078,7.5 -4.330078,7.5 -14.611328,25.30664 -6.4960938,11.25 H 4.8398438 39.552734 V 112.7793 H 4.8398438 -8.1523438 l 6.4960938,11.25 14.611328,25.30859 4.330078,7.5 v 0.002 l -4.330078,7.49805 -12.44531238,21.55859 h -0.001953 -8.66015632 l 4.3300782,7.5 -4.3300782,7.5 h 8.66210944 l 16.77539026,29.0586 -1.583984,2.74414 2.74414,1.58398 v 33.55664 l -2.74414,1.58399 1.583984,2.74414 -16.77734338,29.05859 H -8.1523437 l 4.3300782,7.5 -4.3300782,7.5 h 8.66210944 l 16.77539026,29.0586 -1.583984,2.74414 2.74414,1.58398 v 33.55469 l -2.74414,1.58398 1.583984,2.74414 -16.77734338,29.06055 H -8.1523437 l 4.3300782,7.5 -4.3300782,7.5 h 8.66210944 l 12.44531226,21.55664 4.330078,7.5 v 0.002 l -4.330078,7.49805 -14.6113279,25.3086 -6.4960938,11.25 H 4.8398438 39.552734 v 27.21484 H 4.8398438 -8.1523438 l 6.4960938,11.25 14.611328,25.30664 4.330078,7.5 v 0.002 l -4.330078,7.49805 -12.4472655,21.55859 h -8.6601563 l 4.3300782,7.5 -4.3300782,7.5 h 8.6601563 0.001953 l 16.7753905,29.0586 -1.583984,2.74414 2.74414,1.58398 v 33.55664 l -2.74414,1.58399 1.583984,2.74414 -16.77734362,29.05859 H -8.1523439 l 4.3300782,7.5 -4.3300782,7.5 h 8.66015628 0.001953 l 16.77539062,29.05859 -1.583984,2.74415 2.74414,1.58398 v 33.55664 l -2.74414,1.58399 1.583984,2.74414 -16.77734374,29.05859 H -8.152344 l 4.3300782,7.5 -4.3300782,7.5 h 8.66015626 l 12.44726574,21.55859 4.330078,7.49805 v 0.002 l -4.330078,7.5 -14.6113282,25.30664 -6.4960938,11.25 H 4.8398438 39.552734 v 34.71289 12.99024 l 11.25,-6.49414 30.0625,-17.35547 17.357422,30.0625 6.496094,11.25 6.49414,-11.25 14.61328,-25.30859 14.61133,25.30859 6.49414,11.25 6.49609,-11.25 17.35547,-30.0625 26.31446,15.18945 v 3.16992 h 3.16796 0.002 l 18.9414,32.81055 6.49414,11.25002 6.49415,-11.25002 14.61328,-25.31055 14.61133,25.31055 6.49609,11.25002 6.49414,-11.25002 18.94141,-32.81055 h 3.16992 v -3.16796 -0.002 l 21.35742,-12.33008 4.95508,-2.85937 17.35742,30.0625 6.49609,11.25 6.49414,-11.25 14.61329,-25.30664 14.60937,25.30664 6.49609,11.25 6.49414,-11.25 17.35743,-30.0625 26.3125,15.18945 v 3.16992 h 3.16992 l 11.50195,19.92188 7.44141,12.88867 6.49414,11.25006 6.49609,-11.25006 10.55274,-18.28125 4.05859,-7.0293 14.61133,25.31055 6.49609,11.25006 6.49414,-11.25006 18.94141,-32.81055 h 3.16992 v -3.16796 -0.002 l 26.3125,-15.18945 17.35742,30.0625 6.49414,11.25 6.4961,-11.25 14.61132,-25.30859 14.61133,25.30859 6.4961,11.25 6.49609,-11.25 10.55274,-18.2793 6.80273,-11.78515 h 0.002 l 26.31055,15.1914 v 3.16992 h 3.16992 l 18.94336,32.81055 6.49414,11.25 6.49609,-11.25 14.61133,-25.30859 14.61133,25.30859 6.49414,11.25 6.4961,-11.25 18.9414,-32.81055 h 3.16992 v -3.16796 -0.002 l 21.35743,-12.33008 4.95507,-2.86132 h 0.002 l 17.35547,30.06445 6.49609,11.25 6.49414,-11.25 14.61133,-25.30859 14.61328,25.30859 6.49414,11.25 6.49609,-11.25 10.55274,-18.2793 6.80273,-11.78515 h 0.002 l 30.0625,17.35742 11.25,6.49414 v -12.99024 -34.71289 h 34.71289 12.99023 l -6.49609,-11.25 -10.55274,-18.27734 -4.05664,-7.0293 -4.33008,-7.5 4.33008,-7.5 12.44531,-21.55859 h 8.66016 l -4.33008,-7.5 4.33008,-7.5 h -8.66016 l -16.77539,-29.05859 1.58399,-2.74414 -2.7461,-1.58594 V 768.7207 l 2.7461,-1.58593 -1.58594,-2.7461 15.95313,-27.6289 0.82421,-1.42774 h 8.66016 l -4.33008,-7.5 4.33008,-7.5 h -8.66016 l -16.77734,-29.05664 1.58594,-2.74609 -2.7461,-1.58594 v -33.55274 l 2.7461,-1.58593 -1.58594,-2.7461 15.95313,-27.6289 0.82421,-1.42774 h 8.66016 l -4.33008,-7.5 4.33008,-7.5 h -8.66016 l -12.44531,-21.55859 -4.33008,-7.5 4.33008,-7.5 14.60938,-25.30664 6.49609,-11.25 h -12.99023 -34.71289 v -27.21484 h 34.71289 12.99023 l -6.49609,-11.25 -14.61133,-25.3086 h 0.002 l -4.33008,-7.49805 v -0.002 l 4.33008,-7.5 12.44531,-21.55664 h 8.66016 l -4.33008,-7.5 4.33008,-7.5 h -8.66016 l -16.77734,-29.05859 1.58594,-2.7461 -2.7461,-1.58593 v -33.55079 l 2.7461,-1.58593 -1.58594,-2.7461 13.18555,-22.83789 3.59179,-6.21875 h 8.66016 l -4.33008,-7.5 4.33008,-7.5 h -8.66016 l -16.77734,-29.05859 1.58594,-2.74609 -2.7461,-1.58594 v -33.55078 l 2.7461,-1.58594 -1.58594,-2.7461 15.95313,-27.6289 0.82421,-1.42774 h 8.66016 l -4.33008,-7.5 4.33008,-7.5 h -8.66016 l -12.44531,-21.55859 -4.33008,-7.49805 v -0.002 -0.002 l 4.33008,-7.49805 4.05664,-7.0293 10.55274,-18.27929 6.49609,-11.25 H 972.72266 938.00977 V 85.566406 h 34.71289 12.99023 l -6.49609,-11.25 -10.55274,-18.277344 -4.05859,-7.029296 -4.32813,-7.498047 v -0.002 l 4.33008,-7.5 h -8.66015 -0.002 l -4.33008,-7.5 L 937.00391,1.1992188 930.50977,-10.050781 924.01367,1.1992188 906.6582,31.263672 h -0.002 L 876.5937,13.90625 865.3437,7.4121094 V 20.402344 55.115234 H 838.13086 V 20.402344 7.4121094 l -11.25,6.4941406 -30.06445,17.359375 -17.35547,-30.0664062 h -0.002 L 772.96484,-10.050781 766.4707,1.1992188 751.85742,26.507812 737.24805,1.1992188 h -0.002 L 730.75195,-10.050781 724.25586,1.1992188 713.70312,19.480469 709.64453,26.507812 695.0332,1.1992188 688.53711,-10.050781 682.04297,1.1992188 664.6875,31.263672 h -0.002 L 634.623,13.90625 623.373,7.4121094 V 20.402344 55.115234 H 596.1582 V 20.402344 7.4121094 L 584.9082,13.90625 556.30273,30.423828 554.8457,31.263672 537.49023,1.1992188 530.99609,-10.050781 524.5,1.1992188 509.88867,26.509766 h -0.002 L 495.27539,1.1992188 488.78125,-10.050781 482.28516,1.1992188 471.73242,19.480469 467.67383,26.507812 453.0625,1.1992188 446.56641,-10.050781 440.07227,1.1992188 422.71484,31.263672 392.65234,13.90625 381.40234,7.4121094 V 20.402344 55.115234 H 354.18945 V 20.402344 7.4121094 l -11.25,6.4941406 -30.0625,17.357422 -1.57226,-2.71875 L 295.51953,1.1992188 289.02344,-10.050781 282.5293,1.1992188 267.91797,26.507812 h -0.002 L 253.30469,1.1992188 246.81055,-10.050781 240.31445,1.1992188 225.70312,26.507812 211.0918,1.1992188 204.59766,-10.050781 198.10156,1.1992188 180.74414,31.263672 150.68164,13.90625 139.43164,7.4121094 V 20.402344 55.115234 H 112.21875 V 20.402344 7.4121094 L 100.96875,13.90625 70.90625,31.263672 64.101562,19.480469 53.548828,1.1992188 Z m 0,30 8.117188,14.060547 H 38.935547 Z m 157.542966,0 8.11719,14.060547 h -16.23437 z m 42.21289,0 8.11719,14.060547 h -16.23242 z m 42.21485,0 8.11718,14.060547 H 280.9082 Z m 157.54297,0 h 0.002 l 8.11523,14.060547 h -16.23242 z m 42.21484,0 8.11719,14.060547 h -16.23438 z m 42.21289,0 8.11719,14.060547 h -16.23242 z m 157.54492,0 8.11524,14.060547 h -16.23242 z m 84.42578,0 8.11719,14.060547 h -16.23437 z m 157.54297,0 h 0.002 l 8.11718,14.060547 h -16.23437 z m -199.75586,0.002 8.11524,14.058594 H 722.63477 Z M 97.21875,33.392578 V 49.625 L 83.160156,41.509766 v -0.002 z m 57.21289,0 14.05859,8.115234 v 0.002 L 154.43164,49.625 Z m 184.75781,0 V 49.625 l -7.02929,-4.058594 -7.0293,-4.058594 z m 57.21289,0 14.05664,8.117188 -14.05664,8.115234 z m 184.75586,0 v 16.230469 l -14.05664,-8.113281 v -0.002 z m 57.21485,0 14.05859,8.115234 v 0.002 L 638.37305,49.625 Z m 184.75781,0 V 49.625 l -14.05859,-8.115234 v -0.002 z m 57.21289,0 14.05859,8.115234 v 0.002 L 880.34375,49.625 Z M 38.9375,49.009766 h 16.232422 l -2.507813,4.341796 -1.550781,2.6875 -4.058594,7.027344 z m 157.54297,0 h 16.23242 l -8.11523,14.05664 h -0.002 l -4.05664,-7.027344 z m 42.21289,0 h 16.23242 l -8.11523,14.05664 h -0.002 z m 42.21484,0 h 16.23242 l -8.11718,14.05664 z m 157.54297,0 h 16.23242 l -8.11718,14.05664 -4.0586,-7.027344 z m 42.21485,0 h 16.23046 l -8.11523,14.05664 -4.05859,-7.027344 z m 42.21289,0 h 16.23242 l -2.50781,4.341796 -1.55079,2.6875 -4.05664,7.027344 h -0.002 z m 157.54297,0 h 16.23242 l -8.11524,14.05664 h -0.002 z m 42.21484,0 h 16.23047 l -8.11524,14.05664 z m 42.21289,0 h 16.23047 l -4.05664,7.029296 -4.0586,7.027344 z m 157.54297,0 H 938.625 l -8.11523,14.05664 h -0.002 z m -851.488283,2.74414 h 0.002 l 21.78125,12.576172 1.785156,1.029297 v 0.002 L 87.671875,77.138672 80.865234,88.927734 57.298828,75.322266 v -0.002 l 6.802734,-11.78125 z m 241.972653,0 18.61133,10.746094 4.95508,2.859375 v 0.002 l -6.80078,11.777344 -6.80664,11.789062 -23.56641,-13.605468 v -0.002 l 6.80274,-11.78125 z m 241.97071,0 15.42773,8.908203 8.13867,4.697266 v 0.002 l -12.57617,21.78125 -1.0293,1.785156 -23.56836,-13.605468 v -0.002 l 6.80274,-11.78125 z m 109.83789,0 13.60742,23.56836 -22.10547,12.761718 -1.46289,0.84375 -13.60547,-23.566406 v -0.002 z m 132.13086,0 h 0.002 l 21.78125,12.576172 1.78516,1.029297 v 0.002 l -13.60743,23.566406 -23.5664,-13.605468 v -0.002 l 6.80273,-11.78125 z m 109.83984,0 6.80469,11.785156 6.80273,11.78125 v 0.002 L 898.1582,88.08403 896.69531,88.92778 883.08984,65.361374 v -0.002 l 11.78321,-6.800781 z m -725.91211,0.002 13.60742,23.564453 v 0.002 L 170.7832,88.927734 157.17773,65.361328 v -0.002 l 11.78321,-6.800781 z m 241.9707,0 6.80274,11.783203 6.80273,11.78125 v 0.002 l -23.5664,13.605468 -13.60547,-23.566406 11.7832,-6.802734 z M 25.945312,56.509766 34.0625,70.566406 H 17.830078 Z m 199.757808,0 8.11524,14.05664 h -16.23047 l 4.05664,-7.027344 z m 42.2129,0 h 0.002 l 8.11523,14.05664 h -16.23242 z m 199.75781,0 4.05859,7.029296 4.0586,7.027344 h -16.23243 z m 42.21289,0 h 0.002 l 8.11524,14.05664 h -16.23243 z m 199.75781,0 4.05859,7.029296 4.0586,7.027344 H 701.5293 Z m 42.21289,0 h 0.002 l 8.11523,14.05664 h -16.23242 z m 199.75781,0 h 0.002 l 8.11523,14.05664 H 943.5 Z M 117.70898,70.115234 h 16.23243 l -5.38086,9.320313 -2.73438,4.738281 z m 241.97071,0 h 16.23242 l -8.11523,14.056641 z m 241.9707,0 h 16.23242 l -8.11719,14.058594 z m 241.9707,0 h 16.23243 l -7.3379,12.710938 -0.77734,1.347656 h -0.002 l -4.05664,-7.029297 z m -738.90234,7.5 8.11523,14.058594 H 96.601562 Z m 42.21289,0 8.11719,14.058594 h -16.23242 z m 199.75781,0 7.33789,12.710938 0.77735,1.347656 h -16.23242 z m 526.1543,0 8.11719,14.058594 h -16.23242 z m -483.94141,0.002 8.11524,14.05664 h -16.23047 z m 199.75586,0 8.11719,14.05664 h -16.23242 z m 42.21485,0 8.11523,14.05664 h -16.23047 z m 199.75781,0 8.11523,14.05664 h -16.23242 z m -618.5332,7.949218 h 21.72265 5.49024 V 112.7793 h -5.49024 -21.72265 z m 42.21289,0 h 5.49023 21.72266 V 112.7793 h -21.72266 -5.49023 z m 199.75586,0 h 21.72461 5.49023 V 112.7793 h -5.49023 -21.72461 z m 42.21484,0 h 5.49023 21.72266 V 112.7793 h -21.72266 -5.49023 z m 199.75586,0 h 21.72461 5.49023 V 112.7793 h -5.49023 -21.72461 z m 42.21484,0 h 5.49024 21.72265 V 112.7793 h -21.72265 -5.49024 z m -683.699216,5.490235 7.029297,4.058593 7.029297,4.058594 -7.029297,4.056646 -7.029297,4.05859 z m 142.544926,0 v 16.232423 l -7.03125,-4.05859 -7.02735,-4.056646 7.02735,-4.058594 z m 99.42578,0 7.02929,4.058593 7.0293,4.058594 -7.0293,4.056646 -7.02929,4.05859 z m 241.9707,0 14.05859,8.117187 -7.0625,4.076176 -4.39062,2.53516 -2.60547,1.5039 z m 384.51563,0 v 16.232423 l -14.0586,-8.115236 7.0293,-4.058594 z m -483.94336,0.002 v 16.230463 l -3.60938,-2.08398 -3.41797,-1.97461 -7.02929,-4.056639 7.02929,-4.058594 z m 241.9707,0 v 16.230463 l -14.05664,-8.115229 7.02734,-4.058594 z m 99.42773,0 7.0293,4.05664 7.0293,4.058594 -7.0625,4.076169 -4.39063,2.53516 -2.60547,1.5039 z M 96.601562,106.67383 h 16.232418 l -8.11523,14.05664 -4.05859,-7.02735 z m 42.214848,0 h 16.23047 l -8.11524,14.05664 z m 199.75781,0 h 16.23047 l -8.11524,14.05664 z m 42.21289,0 h 16.23047 l -8.11524,14.05664 z m 199.75781,0 h 16.23047 l -8.11523,14.05664 h -0.002 z m 42.21289,0 h 16.23047 l -4.05859,7.02929 -4.05664,7.02735 z m 199.75781,0 h 16.23047 l -8.11523,14.05664 z m 42.2129,0 h 16.23046 l -4.05664,7.02929 -4.05859,7.02735 z m -693.94532,2.74414 h 0.002 l 23.5664,13.60742 -6.80078,11.77734 -1.39648,2.42188 -5.41016,9.36719 -11.7832,-6.80274 -11.78321,-6.80273 10.24415,-17.74414 z m 241.97071,0 h 0.002 l 8.36328,4.83008 15.20117,8.77539 v 0.002 l -13.60547,23.56641 -23.5664,-13.60547 6.80273,-11.78321 z m 152.05273,0 13.60742,23.56641 v 0.002 l -23.16797,13.37695 -0.39843,0.22852 -13.60743,-23.56641 11.04493,-6.37695 z m 89.91797,0 h 0.002 l 23.56446,13.60742 -12.57422,21.78125 -1.03125,1.78516 -23.56641,-13.60547 6.80274,-11.78321 3.4414,-5.96093 z m 152.05273,0 6.80469,11.78515 6.80274,11.78321 -9.75782,5.63476 -13.80859,7.97266 h -0.002 l -13.60547,-23.56836 19.86523,-11.4707 z m 89.91797,0 h 0.002 l 23.5664,13.60547 v 0.002 l -13.60742,23.56641 -23.56641,-13.60547 6.80274,-11.78321 3.4414,-5.96093 z m -815.830076,0.002 13.607422,23.56641 -11.783203,6.80273 -11.785156,6.80274 -6.802735,-11.78321 -6.802734,-11.7832 v -0.002 l 11.783203,-6.80078 z m 241.970706,0 13.60742,23.56641 -11.7832,6.80273 -11.78321,6.80274 h -0.002 l -6.80273,-11.78321 -6.80274,-11.7832 v -0.002 l 11.7832,-6.80078 z m -197.01172,4.75391 h 0.002 l 8.11524,14.05664 h -16.23243 z m 241.9707,0 h 0.002 l 8.11523,14.05664 h -16.23242 z m 241.9707,0 4.0586,7.02929 4.05859,7.02735 h -16.23242 z m 241.97071,0 h 0.002 l 8.11524,14.05664 h -16.23243 l 4.0586,-7.02735 z M 17.830078,127.7793 H 34.0625 l -5.380859,9.32031 -2.736329,4.73828 z m 199.757812,0 h 16.23047 l -8.11524,14.05664 z m 42.21289,0 h 16.23242 l -5.38086,9.32031 -2.73437,4.73828 z m 199.75781,0 h 16.23243 l -8.11719,14.05859 z m 42.21289,0 h 16.23243 l -8.11524,14.05859 z m 199.75782,0 h 16.23242 l -8.11719,14.05664 z m 42.21289,0 h 16.23242 l -5.38086,9.32031 -2.73437,4.73828 h -0.002 z m 199.75781,0 h 16.23242 l -8.11523,14.05664 z m -896.447266,7.5 4.058594,7.02929 4.058594,7.0293 H 38.9375 Z m 157.544926,0 4.93554,8.55078 3.17969,5.50781 h -16.23242 l 4.62695,-8.01367 z m 42.21289,0 5.38086,9.32031 2.73437,4.73828 h -16.23242 z m 42.21289,0 8.11718,14.05859 H 280.9082 l 4.05664,-7.0293 z m 199.75781,0 8.11523,14.05859 h -16.23242 l 4.0586,-7.0293 z m 284.18359,0 4.53907,7.86132 3.57617,6.19727 h -16.23047 z m 157.54493,0 8.11523,14.05859 h -16.23242 z m -483.94336,0.002 8.11718,14.05664 h -16.23242 l 4.05664,-7.0293 z m 84.42773,0 h 0.002 l 4.53711,7.85937 3.57618,6.19727 h -16.23047 z m 157.54297,0 8.11719,14.05664 h -16.23242 l 4.05859,-7.0293 z m 42.21484,0 4.05664,7.02734 4.0586,7.0293 h -16.23047 z m -618.5332,7.94922 h 27.21289 v 27.21484 h -27.21289 z m 241.9707,0 h 27.21289 v 27.21484 h -27.21289 z m 241.96875,0 h 27.21485 v 27.21484 H 596.1582 Z m 241.97266,0 h 27.21289 v 27.21484 h -27.21289 z m -740.91211,5.49219 v 16.23242 l -14.058594,-8.11719 z m 57.21289,0 14.05859,8.11523 -7.02929,4.05859 -7.0293,4.0586 z m 184.75781,0 v 16.23242 l -7.02929,-4.0586 -7.0293,-4.05859 z m 57.21289,0 14.05664,8.11523 -12.57031,7.25781 -1.48633,0.85938 z m 184.75586,0 v 16.23046 l -14.05664,-8.11523 7.02735,-4.05664 z m 57.21485,0 14.05664,8.11523 -5.08399,2.9375 -1.94336,1.12109 -7.02929,4.0586 z m 184.75781,0 v 16.23242 l -14.05859,-8.11719 z m 57.21289,0 14.05859,8.11523 -7.02929,4.05859 -7.0293,4.0586 z M 38.9375,164.33789 h 16.232422 l -8.117188,14.05859 z m 157.54297,0 h 16.23242 l -8.11719,14.05859 -4.05664,-7.02929 z m 42.21289,0 h 16.23242 l -8.11523,14.05859 z m 42.21484,0 h 16.23242 l -6.78906,11.75977 -1.32812,2.29882 z m 157.54297,0 h 16.23242 l -8.11523,14.05859 h -0.002 l -4.0586,-7.02929 z m 42.21289,0 h 16.23242 l -8.11523,14.05859 z m 42.21485,0 h 16.23242 l -8.11524,14.05664 h -0.002 z m 157.54297,0 h 16.23242 l -8.11524,14.05859 h -0.002 l -4.05664,-7.02929 z m 42.21484,0 h 16.23047 l -8.11524,14.05664 z m 42.21289,0 h 16.23242 l -4.05859,7.0293 -4.0586,7.02929 z m 157.54297,0 H 938.625 l -8.11523,14.05859 h -0.002 l -4.05859,-7.02929 z m -851.488283,2.74609 14.46875,8.35157 9.099609,5.2539 v 0.002 l -10.861328,18.8125 -1.220703,2.11328 -1.525391,2.64062 -13.353515,-7.71093 -10.212891,-5.89649 2.744141,-4.75391 4.058593,-7.02929 z m 109.839843,0 h 0.002 l 10.86133,18.8125 2.74414,4.75391 -11.78515,6.80273 -11.78321,6.80469 -1.81445,-3.14258 -0.93164,-1.61328 -10.85938,-18.8125 11.78321,-6.80273 z m 132.13086,0 h 0.002 l 23.56641,13.60547 -10.86133,18.81446 -2.74414,4.7539 h -0.002 l -6.01953,-3.47656 -16.61914,-9.5957 -0.92774,-0.53516 2.74414,-4.75391 1.38672,-2.40039 z m 109.83984,0 10.86133,18.8125 2.74414,4.75391 -11.78125,6.80273 -11.78515,6.80469 -2.74414,-4.7539 -10.86133,-18.8125 11.60156,-6.69922 6.21875,-3.5918 z m 132.13086,0 h 0.002 l 23.5664,13.60547 v 0.002 l -6.875,11.90625 -0.80664,1.39843 -3.17969,5.50586 v 0.002 l -2.74609,4.7539 -6.01953,-3.47656 -16.61914,-9.5957 -0.92774,-0.53516 2.7461,-4.75391 z m 109.83985,0 h 0.002 l 9.47461,16.41211 1.38477,2.40039 2.74414,4.75391 -0.92579,0.53516 -10.11718,5.84179 -9.01172,5.20313 -3.51172,2.02734 -2.74023,-4.74609 -0.004,-0.008 -4.05859,-7.0293 -6.80274,-11.7832 v -0.002 l 8.30859,-4.79687 0.84375,-0.48633 z m 132.13086,0 23.56836,13.60547 v 0.002 l -6.80079,11.77734 -4.06054,7.0332 -2.7461,4.75586 -23.5664,-13.60742 2.74414,-4.75391 2.05273,-3.55468 z m 109.83984,0 h 0.002 l 9.47461,16.41211 1.38477,2.40039 2.74414,4.75391 -15.0293,8.67773 -2.51562,1.45313 -2.90039,1.67383 -3.11914,1.80273 h -0.002 l -2.74414,-4.7539 -4.05859,-7.0293 -6.80274,-11.7832 v -0.002 l 8.3086,-4.79687 0.84375,-0.48633 z m -880.710938,4.75391 h 0.002 L 34.0625,185.89648 H 17.830078 Z m 241.972658,0 8.11523,14.05859 h -16.23242 z m 199.75586,0 4.05859,7.0293 4.0586,7.02929 h -16.23243 z m 42.21484,0 8.11524,14.05859 h -16.23243 z m 199.75586,0 4.05859,7.0293 4.0586,7.02929 H 701.5293 Z m -483.94141,0.002 8.11524,14.05664 h -16.23047 l 4.05664,-7.02929 z m 526.1543,0 8.11719,14.05664 h -16.23242 z m 199.75977,0 8.11523,14.05664 H 943.5 Z m -833.90821,13.60547 h 16.23243 l -5.38086,9.32031 -2.73438,4.73829 z m 241.97071,0 h 16.23242 l -8.11523,14.05664 z m 241.9707,0 h 16.23242 l -8.11719,14.0586 z m 241.9707,0 h 16.23243 l -7.3379,12.71094 -0.77734,1.34766 h -0.002 l -4.05664,-7.0293 z m -738.90234,7.5 8.11523,14.0586 H 96.601562 Z m 42.21289,0 8.11719,14.0586 h -16.23242 z m 199.75586,0 h 0.002 l 5.38086,9.32031 2.73438,4.73829 h -16.23242 z m 241.9707,0 h 0.002 l 8.11523,14.0586 h -16.23242 l 4.05859,-7.03125 2.42188,-4.19336 z m 241.97266,0 5.41211,9.375 2.70312,4.6836 h -16.23242 z m 42.21289,0 8.11719,14.0586 h -16.23242 z m -483.94141,0.002 8.11524,14.05664 h -16.23047 z m 241.97071,0 8.11523,14.05664 H 622.75781 Z M 17.830078,200.89648 H 34.0625 l -8.117188,14.05664 z m 199.757812,0 h 16.23047 l -8.11524,14.05664 -4.53906,-7.85937 z m 42.21289,0 h 16.23242 l -8.11523,14.05664 z m 199.75781,0 h 16.23243 l -4.0586,7.0293 -4.05859,7.02734 z m 42.21289,0 h 16.23243 l -4.0586,7.0293 -4.05664,7.02734 h -0.002 z m 199.75782,0 h 16.23047 l -8.11524,14.05664 z m 42.21289,0 h 16.23242 l -4.62695,8.01368 -3.49024,6.04492 z m 199.75781,0 h 16.23242 l -1.19922,2.07618 -6.91797,11.98046 z m -893.701172,2.7461 23.566406,13.60547 -2.74414,4.75586 -4.291016,7.42968 -6.570312,11.38282 -23.56836,-13.60743 10.861328,-18.8125 z m 152.052732,0 2.7461,4.7539 10.85937,18.8125 -11.7832,6.80274 -11.78321,6.80273 h -0.002 l -10.86133,-18.81054 -2.46289,-4.26758 -0.28125,-0.48633 v -0.002 l 11.78321,-6.80274 z m 89.91797,0 11.7832,6.80273 11.78321,6.80274 -2.66406,4.61523 -0.0801,0.14063 -4.0586,7.02734 -6.80273,11.7832 -23.56836,-13.60547 6.80273,-11.7832 4.0586,-7.0293 z m 152.05274,0 2.74414,4.75195 v 0.002 l 10.86132,18.8125 -11.7832,6.80274 -11.7832,6.80273 L 423,222.00391 l -2.74414,-4.75586 11.7832,-6.80274 z m 89.91796,0 23.56641,13.60547 -2.74414,4.75586 -0.14062,0.24218 -10.72071,18.56836 -23.5664,-13.60547 7.80468,-13.52148 3.05664,-5.29102 v -0.002 z m 152.05274,0 2.74414,4.75195 v 0.002 l 10.86133,18.8125 -23.56641,13.60547 -10.86133,-18.81054 -2.74414,-4.75586 0.92578,-0.53516 z m 89.91601,0 h 0.002 l 11.7832,6.80273 11.7832,6.80274 -2.74414,4.75586 -10.86132,18.81054 -23.56836,-13.60547 v -0.002 l 0.28125,-0.48633 10.58007,-18.32422 z m 152.05469,0 13.60547,23.5664 -23.56641,13.60547 -2.12695,-3.68359 -1.18555,-2.05274 -7.54882,-13.07421 -2.74414,-4.75586 z m -680.95312,4.7539 8.11523,14.05664 h -16.23047 z m 241.9707,0 8.11523,14.05664 h -16.23046 z m 241.9707,0 8.11524,14.05664 H 722.63672 Z M 96.601562,222.00391 h 16.232418 l -8.11523,14.05664 z m 42.214848,0 h 16.23047 l -8.11524,14.05664 z m 199.75586,0 h 16.23242 l -8.11524,14.05664 z m 42.21484,0 h 16.23047 l -8.11524,14.05664 z m 199.75586,0 h 16.23242 l -8.11523,14.05664 h -0.002 z m 42.21484,0 h 16.23047 l -8.11523,14.05664 z m 199.75781,0 h 16.23047 l -8.11523,14.05664 z m 42.2129,0 h 16.23046 l -8.11523,14.05664 z m -781.117192,7.5 8.115234,14.05664 H 75.496094 l 4.05664,-7.0293 z m 42.212892,0 h 0.002 l 8.11524,14.05664 h -16.23243 z m 42.21484,0 8.11524,14.05664 h -16.23047 z m 157.54297,0 8.11524,14.05664 H 317.4668 l 4.05664,-7.0293 z m 42.21289,0 h 0.002 l 8.11523,14.05664 h -16.23242 z m 42.21289,0 h 0.002 l 4.05664,7.02734 4.05859,7.0293 h -16.23242 z m 157.54492,0 8.11524,14.05664 H 559.4375 l 6.3125,-10.9336 z m 42.21289,0 4.0586,7.02734 4.05859,7.0293 h -16.23242 z m 42.21485,0 4.05859,7.02734 4.05664,7.0293 h -16.23047 z m 157.54297,0 8.11523,14.05664 H 801.4082 Z m 42.21289,0 h 0.002 l 8.11524,14.05664 h -16.23243 l 4.0586,-7.0293 z m 42.21484,0 8.11524,14.05664 h -16.23047 l 4.05664,-7.0293 z m -660.74805,7.94921 h 27.21485 v 27.21485 h -27.21485 z m 241.97071,0 h 27.21484 v 27.21485 h -27.21484 z m 241.9707,0 h 27.21289 v 27.21485 h -27.21289 z m 42.21289,5.49024 14.0586,8.11719 -12.01758,6.93945 -2.04102,1.17773 z m -725.912108,0.002 6.267579,3.61719 7.791015,4.49805 -14.058594,8.11718 z m 184.757808,0 v 16.23242 l -14.05859,-8.11718 z m 57.21485,0 14.05664,8.11524 -7.0293,4.05859 -7.02734,4.05664 z m 184.75586,0 v 16.23242 l -7.79102,-4.49804 -6.26758,-3.61914 z m 57.21484,0 7.0293,4.0586 7.02734,4.05664 -7.02734,4.05859 -7.0293,4.05859 z m 184.75586,0 v 16.23242 l -14.05664,-8.11718 z m 241.9707,0 v 16.23242 l -7.02929,-4.05859 -7.02735,-4.05859 11.45118,-6.61133 z M 75.494141,258.56055 h 16.232421 l -8.115234,14.05859 z m 42.214839,0 h 16.23243 l -8.11524,14.05664 z m 42.2129,0 h 16.23242 l -8.11719,14.05664 z m 157.54492,0 h 16.23047 l -8.11524,14.05664 z m 42.21289,0 h 16.23242 l -8.11523,14.05664 z m 42.21289,0 H 418.125 l -4.05859,7.02929 -4.05664,7.0293 z m 157.54492,0 h 16.23047 l -8.11524,14.05664 z m 42.21289,0 h 16.23242 l -8.11719,14.05859 z m 42.21289,0 h 16.23242 l -8.11523,14.05859 z m 157.54492,0 h 16.23047 l -8.11523,14.05664 -4.0586,-7.02735 z m 42.21289,0 h 16.23243 l -8.11719,14.05859 z m 42.21289,0 h 16.23243 l -8.11524,14.05859 z m -826.074214,2.74609 6.802734,11.7832 6.802734,11.78321 v 0.002 L 49.798828,298.48047 36.191406,274.91406 v -0.002 z m 132.128904,0 h 0.002 l 23.56641,13.60742 -4.71875,8.17578 -8.88672,15.39063 -11.78515,-6.80274 -11.78321,-6.80468 6.80274,-11.78321 z m 109.8418,0 13.60547,23.56641 v 0.002 l -23.56641,13.60547 -5.63476,-9.75781 -6.94141,-12.02344 -1.0293,-1.78516 z m 132.13086,0 23.5664,13.60742 -6.80273,11.78321 -6.80273,11.7832 -11.78321,-6.80274 -11.7832,-6.80468 6.80273,-11.78321 z m 109.83984,0 13.60547,23.56641 -23.56641,13.60742 -13.60546,-23.56641 11.7832,-6.80468 z m 132.13086,0 11.78516,6.80274 11.78125,6.80468 -6.80274,11.78321 -6.80273,11.7832 -23.56641,-13.60742 6.80274,-11.78321 z m 109.83985,0 8.96874,15.53516 4.63672,8.03125 -23.5664,13.60742 h -0.002 l -13.60546,-23.56641 v -0.002 z m 132.1289,0 h 0.002 l 23.56641,13.60547 v 0.002 l -6.80273,11.78321 -6.80274,11.7832 -23.5664,-13.60742 6.80273,-11.78321 3.49023,-6.04687 z m -813.08203,4.75391 8.11523,14.05859 H 96.601562 Z m 42.21289,0 8.11719,14.05859 h -16.23242 z m 199.75781,0 8.11524,14.05859 h -16.23242 l 4.05859,-7.0293 z m 241.96875,0 h 0.002 l 8.11523,14.05859 h -16.23242 z m 284.18555,0 4.05859,7.02929 4.0586,7.0293 h -16.23242 z m -483.94141,0.002 8.11524,14.05664 h -16.23047 z m 241.97071,0 8.11523,14.05664 h -16.23047 z m 199.75586,0 8.11718,14.05664 h -16.23242 z m -591.93555,13.60547 h 16.23242 l -8.11523,14.05859 z m 241.9707,0 h 16.23242 l -8.11523,14.05859 z m 241.97266,0 h 16.23047 l -4.0586,7.0293 -4.05664,7.02734 z m -696.691408,7.5 h 0.002 L 34.0625,301.22656 H 17.830078 L 23.96875,290.5918 Z m 241.972658,0 4.05859,7.0293 4.05664,7.02929 h -16.23242 z m 199.75586,0 4.05859,7.0293 4.0586,7.02929 h -16.23243 l 4.0586,-7.02929 z m 42.21484,0 4.05664,7.0293 4.0586,7.02929 h -16.23243 z m 199.75586,0 8.11719,14.05859 H 701.5293 l 4.05664,-7.02929 z m 42.21289,0 h 0.002 l 8.11523,14.05859 h -16.23242 z m 199.75781,0 2.95313,5.11523 5.16406,8.94336 H 943.5 l 4.05859,-7.02929 z m -725.91211,0.002 7.3379,12.70899 0.77734,1.34765 h -16.23047 l 4.05664,-7.02929 z m -134.591792,7.94922 h 21.722652 5.49024 v 27.21289 h -5.49024 -21.722652 z m 42.212892,0 h 5.49219 21.7207 v 27.21289 h -21.7207 -5.49219 z m 199.75781,0 h 21.72461 5.49024 v 27.21289 h -5.49024 -21.72461 z m 42.21485,0 h 5.49023 21.72266 v 27.21289 h -21.72266 -5.49023 z m 199.75585,0 h 21.72266 5.49023 v 27.21289 h -5.49023 -21.72266 z m 42.21289,0 h 5.49024 21.72461 v 27.21289 h -21.72461 -5.49024 z m 199.75782,0 h 21.72265 5.49024 v 27.21289 h -5.49024 -21.72265 z m 42.21289,0 h 5.49023 21.72461 v 27.21289 h -21.72461 -5.49023 z m -783.125002,5.49024 v 16.23242 l -14.058594,-8.11524 7.029297,-4.05859 z m 99.425782,0 7.0293,4.05859 7.02929,4.05859 -7.02929,4.0586 -7.0293,4.05859 z m 142.54492,0 v 16.23242 l -2.60547,-1.50391 -11.45117,-6.61133 z m 99.42774,0 7.02929,4.05859 7.02735,4.05859 -10.44727,6.03125 -3.60937,2.08399 z m 142.54296,0 v 16.23242 l -7.02929,-4.05664 -7.02735,-4.0586 z m 99.42774,0 7.02734,4.05859 7.0293,4.05859 -10.44727,6.03125 -3.60937,2.08399 z m 142.54297,0 v 16.23242 l -7.0293,-4.05664 -7.0293,-4.0586 7.0293,-4.05859 z m 99.42773,0 14.05664,8.11718 -11.45117,6.61133 -2.60547,1.50391 z M 17.830078,316.22656 H 34.0625 l -4.058594,7.02735 -4.058594,7.02929 z m 199.757812,0 h 16.23047 l -8.11524,14.05664 z m 42.21289,0 h 16.23242 l -4.05664,7.02735 -4.05859,7.02929 z m 199.75781,0 h 16.23243 l -4.0586,7.02735 -4.05859,7.02929 z m 42.21289,0 h 16.23243 l -4.0586,7.02735 -4.05664,7.02929 h -0.002 z m 199.75782,0 h 16.23242 l -4.0586,7.02735 -4.05859,7.02929 -4.05859,-7.02929 z m 42.21289,0 h 16.23242 l -4.05664,7.02735 -4.05859,7.02929 h -0.002 z m 199.75781,0 h 16.23242 l -5.43164,9.40625 -2.68555,4.65039 -4.05664,-7.02929 z m -893.701172,2.74414 23.566406,13.60742 -6.908203,11.96485 -6.697265,11.60156 -23.56836,-13.60547 z m 152.052732,0.002 13.60547,23.56445 v 0.002 l -11.7832,6.80274 -11.78321,6.80273 h -0.002 l -13.60542,-23.5665 z m 89.91602,0 h 0.002 l 23.56641,13.60546 -6.80274,11.78516 -4.87109,8.43555 -1.93164,3.3457 -23.56836,-13.60547 v -0.002 l 6.80273,-11.7832 z m 152.05469,0 6.80273,11.78125 6.80273,11.78515 -11.7832,6.80274 -11.7832,6.80273 -13.60742,-23.56641 21.92968,-12.66015 z m 89.91796,0 23.56641,13.60546 -13.60547,23.56641 -11.7832,-6.80273 -11.7832,-6.80274 z m 152.05274,0 6.80273,11.78125 6.80274,11.78515 -23.56641,13.60547 -13.60547,-23.56641 z m 89.91797,0 23.5664,13.60546 -3.08984,5.35352 -7.1543,12.39063 -3.36132,5.82226 -11.78516,-6.80273 -11.7832,-6.80274 v -0.002 z m 152.05273,0 6.80274,11.78125 6.80273,11.78515 -11.7832,6.80274 -11.78321,6.80273 -13.60546,-23.56641 z m -680.95508,4.7539 h 0.002 l 8.11523,14.05664 H 238.6934 Z m 241.97266,0 8.11523,14.05664 h -16.23046 z m 241.9707,0 4.05664,7.02735 4.0586,7.02929 H 722.63672 Z M 96.601562,337.33203 h 16.232418 l -8.11523,14.05859 h -0.002 z m 42.214848,0 h 16.23047 l -8.11524,14.05664 z m 199.75586,0 h 16.23242 l -8.11524,14.05859 z m 42.21289,0 h 16.23242 l -8.11524,14.05859 z m 199.75781,0 h 16.23242 l -8.11523,14.05859 h -0.002 z m 42.21484,0 h 16.23047 l -8.11523,14.05664 z m 199.75586,0 h 16.23242 l -8.11523,14.05859 h -0.002 z m 42.21485,0 h 16.23242 l -4.0586,7.0293 -4.05859,7.02929 z m -496.93164,7.5 8.11523,14.05859 h -16.23242 z m -284.185552,0.002 8.115234,14.05664 H 75.496094 l 4.05664,-7.02734 z m 42.212892,0 h 0.002 l 8.11524,14.05664 h -16.23243 z m 42.21289,0 8.11719,14.05664 h -16.23242 z m 157.54492,0 8.11524,14.05664 H 317.4668 l 4.05664,-7.02734 z m 84.42578,0 h 0.002 l 4.05664,7.0293 4.05859,7.02734 h -16.23242 z m 157.54492,0 4.11719,7.13086 3.99805,6.92578 H 559.4375 l 4.05859,-7.02734 z m 42.21289,0 8.11719,14.05664 h -16.23242 z m 42.21485,0 4.05859,7.0293 4.05664,7.02734 h -16.23047 z m 157.54297,0 8.11523,14.05664 H 801.4082 Z m 42.21289,0 h 0.002 l 8.11524,14.05664 h -16.23243 z m 42.21484,0 8.11524,14.05664 h -16.23047 z m -660.74805,7.94922 h 27.21485 v 27.21485 h -27.21485 z m 241.97071,0 h 27.21484 v 27.21485 h -27.21484 z m 241.9707,0 h 27.21289 v 27.21485 h -27.21289 z m -683.699218,5.49219 14.058594,8.11523 -14.058594,8.11719 z m 184.757808,0 v 16.23242 l -7.02929,-4.05859 -7.0293,-4.0586 7.0293,-4.05859 z m 57.21485,0 14.05664,8.11523 -7.0293,4.0586 -7.02734,4.05664 z m 184.75586,0 v 16.23047 l -6.19727,-3.57617 -7.85937,-4.53907 z m 57.21484,0 14.05664,8.11523 -7.02734,4.0586 -7.0293,4.05664 z m 184.75586,0 v 16.23047 l -14.05664,-8.11524 z m 57.21289,0 14.0586,8.11523 -7.0293,4.0586 -7.0293,4.05859 z m 184.75781,0 v 16.23242 l -14.05664,-8.11719 z M 75.494141,373.89062 h 16.232421 l -8.115234,14.0586 z m 42.214839,0 h 16.23243 l -8.11719,14.05665 z m 42.2129,0 h 16.23242 l -4.05664,7.0293 -4.0586,7.0293 z m 157.54492,0 h 16.23047 l -8.11524,14.05665 -4.05859,-7.02735 z m 42.21289,0 h 16.23242 l -8.11523,14.0586 h -0.002 z m 42.21289,0 H 418.125 l -4.05859,7.0293 -4.05664,7.0293 h -0.002 z m 157.54492,0 h 16.23047 l -8.11524,14.05665 -4.05664,-7.02735 z m 42.21289,0 h 16.23242 l -4.05859,7.0293 -4.0586,7.0293 z m 42.21289,0 h 16.23242 l -8.11523,14.0586 z m 157.54492,0 h 16.23047 l -8.11523,14.0586 -4.0586,-7.0293 z m 42.21289,0 h 16.23243 l -8.11719,14.0586 z m 42.21289,0 h 16.23243 l -4.0586,7.0293 -4.05664,7.0293 z m -826.074214,2.7461 10.861328,18.8125 2.74414,4.7539 -23.566406,13.60743 -2.746094,-4.75391 -10.861328,-18.8125 z m 132.130854,0 5.7754,3.33398 17.79101,10.27344 -10.85937,18.8125 -2.7461,4.75391 -23.56836,-13.60743 2.74414,-4.7539 z m 109.83985,0 10.86133,18.8125 2.74414,4.7539 -11.78321,6.80469 -11.7832,6.80274 -2.74609,-4.75391 -10.85938,-18.8125 z m 132.13086,0 23.5664,13.60547 v 0.002 l -10.86132,18.8125 v 0.002 l -2.74414,4.75196 h -0.002 l -22.63867,-13.07227 -0.92578,-0.53516 2.74414,-4.7539 1.38477,-2.40039 z m 109.83984,0 10.86133,18.8125 2.74414,4.7539 -23.56641,13.60743 -2.74414,-4.75196 v -0.002 l -10.86132,-18.8125 z m 132.13086,0 23.56641,13.60742 -10.86133,18.8125 v 0.002 l -2.74414,4.75196 -11.78516,-6.80274 -11.78125,-6.80469 2.74414,-4.7539 z m 109.83985,0 10.86132,18.8125 2.74414,4.7539 -11.7832,6.80469 -11.7832,6.80274 -2.7461,-4.75391 -10.86132,-18.8125 z m 132.1289,0 h 0.002 l 23.56641,13.60547 v 0.002 l -13.60547,23.56641 -23.5664,-13.60743 2.74414,-4.7539 4.05859,-7.0293 z m -813.08203,4.7539 8.11523,14.0586 H 96.601562 Z m 42.21289,0 8.11524,14.0586 h -16.23047 z m 199.75781,0 8.11524,14.0586 h -16.23242 z m 42.21289,0 8.11524,14.0586 h -16.23047 z m 483.94141,0 4.05859,7.0293 4.0586,7.0293 h -16.23242 z m -284.18555,0.002 8.11719,14.05664 h -16.23242 z m 42.21485,0 8.11523,14.05664 h -16.23047 z m 199.75586,0 8.11718,14.05664 h -16.23242 z m -591.93555,13.60547 h 16.23242 l -8.11523,14.05859 h -0.002 z m 241.9707,0 h 16.23242 l -8.11523,14.05859 z m 241.97266,0 h 16.23047 l -8.11524,14.05664 z m -696.691408,7.5 8.117188,14.05859 H 17.830078 Z m 241.972658,0 6.78906,11.75976 1.32617,2.29883 h -16.23242 z m 199.75586,0 4.05859,7.02929 4.0586,7.0293 h -16.23243 z m 42.21484,0 8.11524,14.05859 h -16.23243 z m 199.75586,0 4.05859,7.02929 4.0586,7.0293 H 701.5293 Z m 42.21289,0 h 0.002 l 8.11523,14.05859 h -16.23242 z m 199.75781,0 2.95313,5.11523 5.16406,8.94336 H 943.5 Z m -725.91211,0.002 8.11524,14.05664 h -16.23047 z m -129.101558,7.94922 h 16.232418 l -4.05664,7.0293 -4.05859,7.02929 z m 42.214848,0 h 16.23047 l -3.57618,6.19726 -4.53906,7.86133 z m 199.75586,0 h 16.23242 l -8.11524,14.05859 z m 42.21484,0 h 16.23047 l -8.11524,14.05859 z m 199.75781,0 h 16.23047 l -8.11523,14.05664 h -0.002 z m 42.21289,0 h 16.23047 l -8.11523,14.05664 z m 199.75586,0 h 16.23242 l -8.11718,14.05664 z m 42.21485,0 h 16.23046 l -8.11523,14.05859 -5.38086,-9.32031 z M 80.865234,413.1954 h 0.002 l 2.74414,4.75391 2.664063,4.61328 1.822265,3.1582 6.375,11.04102 -23.568359,13.60742 -10.861328,-18.8125 -0.08008,-0.14062 -2.664063,-4.61524 z m 89.917966,0 23.56836,13.60547 v 0.002 l -2.74414,4.75391 -10.86328,18.81055 -17.54687,-10.12891 -6.01954,-3.47656 6.86133,-11.88672 3.99805,-6.92578 z m 152.05274,0 h 0.002 l 2.74414,4.75391 2.66406,4.61328 8.19727,14.19922 -6.01953,3.47656 -17.54688,10.12891 -7.80664,-13.51953 -3.05664,-5.29102 -1.43555,-2.49023 -1.30859,-2.26368 v -0.002 z m 89.91797,0 22.64062,13.07031 0.92578,0.53516 -2.74414,4.75586 -10.86133,18.81055 -23.5664,-13.60547 10.08203,-17.46484 0.7793,-1.34766 v -0.002 z m 152.05273,0 2.74609,4.75391 10.85938,18.8125 -23.56641,13.60547 -10.85937,-18.81055 -2.7461,-4.75391 v -0.002 z m 89.91992,0 23.56641,13.60547 -2.74609,4.75586 -0.88477,1.53125 -9.97656,17.2793 -23.56641,-13.60547 10.86133,-18.8125 z m 152.05078,0 2.7461,4.75391 10.86133,18.8125 -23.56836,13.60742 -10.86133,-18.8125 -0.0801,-0.14062 -2.66406,-4.61524 z m 89.91797,0 23.56836,13.60547 -2.74609,4.75586 -10.86133,18.8125 -23.56641,-13.60742 6.80274,-11.7832 4.05859,-7.0293 z m -770.86914,4.75391 8.11524,14.05859 h -16.23243 z m 241.96875,0 h 0.002 l 8.11523,14.05859 h -16.23242 z m 241.9707,0 4.0586,7.0293 4.05859,7.02929 h -16.23242 z m 241.97071,0 8.11719,14.05859 h -16.23243 l 4.0586,-7.02929 z M 17.830078,431.55664 H 34.0625 l -8.115234,14.05664 h -0.002 z m 199.757812,0 h 16.23047 l -8.11524,14.05469 z m 42.21289,0 h 16.23242 l -8.11523,14.05664 h -0.002 z m 199.75781,0 h 16.23243 l -4.0586,7.0293 -4.05859,7.02734 z m 42.21289,0 h 16.23243 l -8.11524,14.05664 h -0.002 z m 199.75782,0 h 16.23242 l -4.0586,7.0293 -4.05859,7.02734 z m 42.21289,0 h 16.23242 l -8.11523,14.05664 h -0.002 z m 199.75781,0 h 16.23242 l -8.11523,14.05664 h -0.002 z m -896.447266,7.5 8.115235,14.05664 H 38.9375 Z m 157.542966,0 8.11719,14.05664 h -16.23242 l 4.05859,-7.02734 z m 42.21289,0 h 0.002 l 8.11523,14.05664 H 238.6934 Z m 42.21485,0 4.05859,7.0293 4.05859,7.02734 H 280.9082 l 4.05664,-7.02734 z m 157.54297,0 8.11718,14.05664 h -16.23242 z m 42.21484,0 8.11523,14.05664 h -16.23046 z m 42.21289,0 h 0.002 l 4.05664,7.0293 4.05665,7.02734 h -16.23047 z m 157.54297,0 h 0.002 l 8.11524,14.05664 h -16.23242 l 4.05859,-7.02734 z m 42.21484,0 4.05664,7.0293 4.0586,7.02734 h -16.23047 z m 42.21289,0 8.11524,14.05664 h -16.23047 z m 157.54297,0 h 0.002 l 8.11523,14.05664 h -16.23242 l 4.05664,-7.02734 z m -818.28906,7.95117 h 27.21289 v 27.21289 h -27.21289 z m 241.9707,0 h 27.21289 v 27.21289 h -27.21289 z m 241.96875,0 h 27.21485 V 474.2207 H 596.1582 Z m 241.97266,0 h 27.21289 v 27.21289 h -27.21289 z m -740.91211,5.49024 v 16.23242 l -14.058594,-8.11719 7.029297,-4.05859 z m 57.21289,0 7.0293,4.05664 7.02929,4.05859 -7.02929,4.0586 -7.0293,4.05859 z m 184.75781,0 v 16.23242 l -14.05859,-8.11719 z m 57.21289,0 14.05664,8.11523 -14.05664,8.11719 z m 184.75586,0 v 16.23242 l -7.02929,-4.05859 -7.02735,-4.05665 v -0.002 z m 57.21485,0 14.05859,8.11523 -14.05859,8.11719 z m 184.75781,0 v 16.23242 l -14.05859,-8.11524 v -0.002 l 7.02929,-4.05859 z m 57.21289,0 7.0293,4.05664 7.02929,4.05859 -7.02929,4.0586 -7.0293,4.05859 z M 38.9375,468.11328 h 16.232422 l -4.058594,7.0293 -4.058594,7.0293 z m 157.54297,0 h 16.23242 l -8.11523,14.0586 h -0.002 z m 42.21289,0 h 16.23242 l -8.11523,14.0586 z m 42.21484,0 h 16.23242 l -8.11718,14.0586 z m 157.54297,0 h 16.23242 l -8.11718,14.0586 z m 42.21289,0 h 16.23242 l -8.11523,14.0586 z m 42.21485,0 h 16.23242 l -8.11524,14.05664 h -0.002 z m 157.54297,0 h 16.23242 l -8.11719,14.0586 z m 42.21484,0 h 16.23047 l -4.0586,7.0293 -4.05664,7.02734 z m 42.21289,0 h 16.23242 l -8.11719,14.0586 z m 157.54297,0 H 938.625 l -8.11523,14.0586 z m -851.488283,2.7461 23.568359,13.60742 -13.605468,23.5664 h -0.002 l -23.566406,-13.60547 6.802734,-11.78515 z m 109.839843,0 13.60742,23.5664 v 0.002 l -11.78515,6.80274 -11.78321,6.80273 -13.60547,-23.5664 z m 132.13281,0 23.56641,13.60546 v 0.002 l -6.80274,11.7832 -6.80468,11.7832 -5.61133,-3.24023 -17.95508,-10.36524 v -0.002 l 6.80274,-11.7832 z m 109.83789,0 13.60743,23.56835 -11.78321,6.80274 -11.78515,6.80273 -13.60547,-23.5664 v -0.002 l 16.92383,-9.77148 z m 132.13086,0 23.56641,13.60742 -13.60352,23.5664 h -0.002 l -11.7832,-6.80273 -11.78321,-6.80274 6.41211,-11.10937 z m 109.83985,0 h 0.002 l 6.80078,11.7832 5.77344,9.99804 1.03125,1.78516 v 0.002 l -11.78516,6.80274 -11.7832,6.80273 -6.80273,-11.7832 -6.80274,-11.7832 v -0.002 z m 132.13086,0 23.56836,13.60742 -6.80274,11.7832 -6.80273,11.7832 h -0.002 l -14.41406,-8.32226 -9.15234,-5.28321 v -0.002 l 8.58203,-14.86523 z m 109.83984,0 h 0.002 l 13.60547,23.5664 v 0.002 l -11.7832,6.80274 -11.78516,6.80273 -13.60547,-23.5664 v -0.002 l 11.78321,-6.80273 z m -880.710938,4.7539 8.117188,14.0586 H 17.830078 Z m 441.728518,0 4.05859,7.0293 4.0586,7.0293 h -16.23243 z m 42.21289,0 h 0.002 l 8.11524,14.0586 h -16.23243 z m 199.75781,0 8.11719,14.0586 H 701.5293 Z m -483.94141,0.002 8.11524,14.05665 h -16.23047 z m 42.21485,0 8.11523,14.05665 h -16.23242 z m 483.93945,0 8.11719,14.05665 h -16.23242 z m 199.75781,0 h 0.002 l 8.11523,14.05665 H 943.5 Z M 117.70898,489.2207 h 16.23243 l -8.11719,14.05664 z m 241.97071,0 h 16.23242 l -8.11523,14.0586 h -0.002 z m 241.9707,0 h 16.23242 l -4.05859,7.0293 -4.0586,7.0293 z m 241.9707,0 h 16.23243 l -8.11719,14.0586 z m -738.90234,7.5 8.11523,14.0586 H 96.601562 l 4.058598,-7.0293 z m 241.9707,0 8.11524,14.0586 h -16.23242 l 4.05859,-7.0293 z m 241.97071,0 8.11523,14.0586 h -16.23242 l 4.05859,-7.0293 z m 284.18359,0 4.05859,7.0293 4.0586,7.0293 h -16.23242 z m -725.91211,0.002 4.05859,7.02734 4.05665,7.0293 h -16.23047 z m 241.9707,0 4.0586,7.02734 4.05664,7.0293 h -16.23047 z m 241.97071,0 8.11523,14.05664 h -16.23047 z m 199.75781,0 8.11523,14.05664 h -16.23242 z m -618.5332,7.94922 h 21.72265 5.49024 v 27.21484 h -5.49024 -21.72265 z m 42.21289,0 h 5.49023 21.72266 v 27.21484 h -21.72266 -5.49023 z m 199.75586,0 h 21.72461 5.49023 v 27.21484 h -5.49023 -21.72461 z m 42.21484,0 h 5.49023 21.72266 v 27.21484 h -21.72266 -5.49023 z m 199.75586,0 h 21.72461 5.49023 v 27.21484 h -5.49023 -21.72461 z m 42.21484,0 h 5.49024 21.72265 v 27.21484 h -21.72265 -5.49024 z m -683.699216,5.49023 14.058594,8.11719 -7.029297,4.05664 -7.029297,4.05859 z m 142.544926,0 v 16.23242 l -14.0586,-8.11523 7.02735,-4.0586 z m 99.42578,0 14.05859,8.11719 -7.0293,4.05664 -7.02929,4.05859 z m 241.9707,0 14.05859,8.11719 -14.05859,8.11523 z m 241.9707,0 7.0293,4.05859 7.0293,4.0586 -7.0293,4.05664 -7.0293,4.05859 z m 142.54493,0 v 16.23242 l -14.0586,-8.11523 9.71289,-5.60742 z m -483.94336,0.002 v 16.23047 l -14.05664,-8.11523 7.02929,-4.0586 z m 241.9707,0 v 16.23047 l -14.05664,-8.11523 7.02734,-4.0586 1.26758,-0.73242 z M 96.601562,525.7793 h 16.232418 l -4.05664,7.02929 -4.05859,7.0293 z m 42.214848,0 h 16.23047 l -8.11524,14.05664 z m 199.75586,0 h 16.23242 l -8.11524,14.05859 z m 42.21484,0 h 16.23047 l -8.11524,14.05859 z m 199.75781,0 h 16.23047 l -8.11523,14.05664 h -0.002 z m 42.21289,0 h 16.23047 l -8.11523,14.05664 z m 199.75586,0 h 16.23242 l -8.11523,14.05664 h -0.002 z m 42.21485,0 h 16.23046 l -8.11523,14.05859 z m -210.00391,2.74414 h 0.002 l 18.8711,10.89648 4.69531,2.71094 -6.80469,11.7832 -6.80078,11.78321 h -0.002 l -11.78321,-6.80274 -11.7832,-6.80273 11.67383,-20.22071 z m 241.9707,0 11.78516,6.80468 11.7832,6.80274 -6.80273,11.7832 -6.80469,11.78516 -23.56641,-13.60742 11.67383,-20.22071 z m -815.830076,0.002 1.435547,2.48633 1.394531,2.41406 10.777344,18.66602 -23.568359,13.60742 -10.941406,-18.95313 -2.664063,-4.61523 z m 89.917966,0 11.78321,6.80273 11.78515,6.80274 -13.60742,23.56641 -23.56641,-13.60547 3.08985,-5.35352 7.1543,-12.39062 z m 152.05274,0 13.60742,23.56641 v 0.002 l -6.01953,3.47461 -17.54688,10.12891 -7.80664,-13.51954 -5.80078,-10.04687 11.7832,-6.80274 z m 89.91797,0 23.5664,13.60547 -13.60547,23.56641 -23.5664,-13.60547 z m 152.05468,0 10.59766,18.35742 3.00781,5.20899 -2.29492,1.32422 -21.27148,12.28125 h -0.002 l -3.36132,-5.82227 -10.24415,-17.74414 11.78321,-6.80274 z m 241.96875,0 13.60743,23.56641 -7.35938,4.25 -16.20898,9.35742 -13.60547,-23.56836 11.7832,-6.80274 z m -680.95312,4.75391 h 0.002 l 8.11524,14.05859 h -16.23243 z m 241.9707,0 h 0.002 l 8.11523,14.05859 h -16.23242 z m 241.9707,0 8.11719,14.05859 h -16.23242 z m 241.97071,0 h 0.002 l 8.11524,14.05859 H 843.62109 Z M 17.830078,546.88672 H 34.0625 l -8.117188,14.05664 z m 199.757812,0 h 16.23047 l -8.11524,14.05664 z m 42.21289,0 h 16.23242 l -8.11523,14.05664 h -0.002 z m 199.75781,0 h 16.23047 l -8.11523,14.05664 z m 42.21289,0 h 16.23243 l -8.11524,14.05664 h -0.002 z m 199.75782,0 h 16.23242 l -4.0586,7.02734 -4.05859,7.0293 z m 42.21289,0 h 16.23242 l -8.11523,14.05664 h -0.002 z m 199.75781,0 h 16.23047 l -8.11524,14.05664 z m -896.447266,7.5 4.058594,7.02734 4.056641,7.0293 H 38.9375 Z m 157.542966,0 h 0.002 l 3.68945,6.39258 4.42578,7.66406 h -16.23242 l 4.05859,-7.0293 z m 42.21289,0 h 0.002 l 8.11523,14.05664 H 238.6934 Z m 42.21485,0 4.05859,7.02734 4.05859,7.0293 H 280.9082 l 4.05664,-7.0293 z m 157.54297,0 8.11718,14.05664 h -16.23242 l 4.05664,-7.0293 z m 42.21484,0 8.11523,14.05664 h -16.23242 l 4.0586,-7.0293 z m 42.21289,0 h 0.002 l 4.05664,7.02734 4.05665,7.0293 h -16.23047 z m 157.54297,0 h 0.002 l 8.11524,14.05664 h -16.23242 l 4.05859,-7.0293 z m 84.42773,0 4.0586,7.02734 4.05664,7.0293 h -16.23047 z m 157.54297,0 h 0.002 l 8.11523,14.05664 h -16.23242 z m -199.75586,0.002 8.11524,14.05469 h -16.23047 z m -618.5332,7.94922 h 27.21289 v 27.21289 h -27.21289 z m 241.9707,0 h 27.21289 v 27.21289 h -27.21289 z m 241.96875,0 h 27.21485 v 27.21289 H 596.1582 Z m 241.97266,0 h 27.21289 v 27.21289 h -27.21289 z m -740.91211,5.49023 v 16.23243 l -14.058594,-8.11719 7.029297,-4.05664 z m 57.21289,0 7.0293,4.0586 4.42383,2.55273 2.60546,1.50391 -14.05859,8.11719 z m 184.75781,0 v 16.23243 l -14.05859,-8.11719 7.0293,-4.05664 z m 57.21289,0 14.05664,8.11524 -14.05664,8.11719 z m 184.75586,0 v 16.23243 l -14.05664,-8.11524 v -0.002 l 3.60938,-2.08398 z m 57.21485,0 14.05859,8.11524 -14.05859,8.11719 z m 184.75781,0 v 16.23243 l -14.05859,-8.11524 v -0.002 l 11.18359,-6.45703 z m 57.21289,0 14.05859,8.11524 -14.05859,8.11719 z M 38.9375,583.44336 h 16.232422 l -4.539063,7.86133 -3.578125,6.19726 z m 157.54297,0 h 16.23242 l -8.11719,14.05859 z m 42.21289,0 h 16.23242 l -8.11523,14.05859 z m 42.21484,0 h 16.23242 l -8.11523,14.05859 h -0.002 z m 157.54297,0 h 16.23242 l -8.11718,14.05859 z m 42.21289,0 h 16.23242 l -8.11523,14.05859 z m 42.21485,0 h 16.23242 L 530.99609,597.5 Z m 157.54297,0 h 16.23242 l -8.11719,14.05859 z m 42.21484,0 h 16.23047 l -4.0586,7.0293 -4.05664,7.02734 z m 42.21289,0 h 16.23242 l -8.11719,14.05859 z m 157.54297,0 H 938.625 l -8.11719,14.05859 z m -851.488283,2.74609 23.568359,13.60547 v 0.002 l -10.861328,18.8125 -2.746094,4.7539 -23.566406,-13.60742 2.744141,-4.75391 6.064453,-10.5039 z m 109.839843,0 10.86328,18.8125 2.74414,4.75391 -11.78515,6.80273 -11.78321,6.80469 -2.74609,-4.7539 -10.85938,-18.8125 v -0.002 z m 132.13281,0 23.56641,13.60547 v 0.002 l -10.86133,18.8125 -1.2207,2.11328 -1.52539,2.64062 -23.56641,-13.60742 2.74414,-4.75391 z m 109.83789,0 10.86133,18.8125 2.74414,4.75391 -23.56445,13.60742 h -0.002 l -2.74414,-4.75195 v -0.002 l -10.86133,-18.8125 z m 132.13086,0 h 0.002 l 11.78125,6.80274 11.78515,6.80469 -7.68164,13.30468 -3.17969,5.50782 -2.74414,4.7539 h -0.002 l -22.63867,-13.07226 -0.92578,-0.53516 2.74414,-4.75391 z m 109.83985,0 h 0.002 l 10.85938,18.8125 1.2207,2.11328 1.52344,2.64063 -23.56446,13.60742 h -0.002 l -2.74414,-4.7539 -10.86133,-18.8125 v -0.002 l 11.7832,-6.80273 z m 132.13086,0 23.56836,13.60547 v 0.002 l -10.86133,18.8125 -2.74414,4.7539 h -0.002 l -11.7832,-6.80469 -11.7832,-6.80273 2.74414,-4.75391 z m 109.83984,0 h 0.002 l 10.85938,18.8125 2.74414,4.75391 -23.56641,13.60742 -2.74414,-4.7539 -10.86133,-18.8125 v -0.002 l 11.78321,-6.80273 z m -880.710938,4.75391 h 0.002 L 34.0625,605.00195 H 17.830078 Z m 441.728518,0 4.05859,7.0293 4.0586,7.02929 h -16.23243 z m 42.21484,0 8.11524,14.05859 h -16.23243 z m 199.75586,0 8.11719,14.05859 H 701.5293 Z m -483.94141,0.002 8.11524,14.05664 h -16.23047 l 4.05664,-7.02929 z m 42.21485,0 8.11523,14.05664 h -16.23242 z m 483.93945,0 8.11719,14.05664 h -16.23242 z m 199.75977,0 8.11523,14.05664 H 943.5 Z m -833.90821,13.60547 h 16.23243 l -8.11719,14.05664 z m 241.97071,0 h 16.23242 l -8.11523,14.05664 z m 241.9707,0 h 16.23242 l -8.11719,14.0586 z m 241.9707,0 h 16.23243 l -8.11719,14.0586 z m -738.90234,7.5 8.11523,14.0586 H 96.601562 l 4.058598,-7.0293 z m 42.21289,0 8.11719,14.0586 h -16.23242 z m 199.75781,0 8.11524,14.0586 h -16.23242 z m 241.97071,0 8.11523,14.0586 h -16.23242 l 0.38867,-0.67383 3.66992,-6.35547 z m 284.18359,0 4.05859,7.0293 4.0586,7.0293 h -16.23242 z m -483.94141,0.002 4.0586,7.02735 4.05664,7.0293 h -16.23047 z m 241.97071,0 4.05664,7.02735 4.05859,7.0293 h -16.23047 z m 199.75586,0 8.11718,14.05665 h -16.23242 l 4.05664,-7.0293 z M 17.830078,620.00195 H 34.0625 l -4.626953,8.01367 -3.490235,6.04493 z m 199.757812,0 h 16.23047 l -8.11524,14.05664 z m 42.21289,0 h 16.23242 l -8.11523,14.05664 z m 199.75781,0 h 16.23243 l -8.11719,14.05664 z m 42.21289,0 h 16.23243 l -8.11524,14.0586 z m 199.75782,0 h 16.23242 l -4.0586,7.0293 -4.05859,7.02734 z m 42.21289,0 h 16.23242 l -8.11523,14.0586 h -0.002 l -1.86133,-3.22657 z m 199.75781,0 h 16.23242 l -5.16406,8.94336 -2.95313,5.11524 z m -893.703125,2.7461 h 0.002 l 14.414063,8.32226 6.972656,4.02539 2.179687,1.25782 v 0.002 l -2.74414,4.75391 -10.861328,18.8125 h -0.002 L 36.191406,646.31641 v -0.002 l 10.861328,-18.8125 z m 152.054685,0 2.7461,4.7539 10.85937,18.8125 -11.7832,6.80274 -11.78321,6.80469 -10.86328,-18.8125 -2.74414,-4.75391 v -0.002 l 11.78321,-6.80274 7.45898,-4.30469 z m 89.91797,0 3.42774,1.97851 20.13867,11.62696 v 0.002 l -2.74414,4.75391 -10.86133,18.8125 h -0.002 l -19.28516,-11.13477 -4.2793,-2.47266 3.31055,-5.73633 6.16406,-10.67578 1.38477,-2.40039 z m 152.05078,0 h 0.002 l 2.74414,4.75195 v 0.002 l 10.86132,18.8125 -6.50195,3.75391 -5.28125,3.04883 -11.7832,6.80469 L 423,641.10938 l -2.74609,-4.75586 10.10547,-5.83399 1.67968,-0.96875 z m 89.91992,0 11.78321,6.80273 11.78515,6.80469 -2.74609,4.75391 -10.86133,18.8125 h -0.002 l -23.56445,-13.60743 10.86132,-18.8125 V 627.5 Z m 152.05274,0 2.74414,4.75195 v 0.002 l 10.86133,18.8125 -16.92383,9.77344 -6.64063,3.83399 h -0.002 l -0.28125,-0.48829 -7.01367,-12.14843 -3.56641,-6.17578 -2.74414,-4.75586 11.78125,-6.80274 1.26758,-0.73242 z m 89.91601,0 h 0.002 l 23.5664,13.60547 -2.74414,4.75586 -1.05664,1.82812 -9.80468,16.98242 -19.86524,-11.4668 -3.70312,-2.13671 v -0.002 l 10.86132,-18.8125 1.22071,-2.11328 z m 152.05469,0 13.60547,23.5664 v 0.002 l -17.46484,10.08203 -6.10157,3.52344 -10.86132,-18.8125 -1.22071,-2.11329 -1.52539,-2.64062 11.38086,-6.57227 8.68164,-5.01172 z m -680.95312,4.7539 8.11523,14.0586 h -16.23242 z m 241.9707,0 8.11523,14.0586 h -16.23242 l 4.0586,-7.0293 z m 241.9707,0.002 4.05664,7.02734 4.0586,7.0293 H 722.63672 Z M 96.601562,641.10938 h 16.232418 l -8.11523,14.05664 z m 42.214848,0 h 16.23047 l -8.11524,14.05664 z m 199.75586,0 h 16.23242 l -8.11524,14.05664 z m 42.21484,0 h 16.23047 l -5.10938,8.85156 -3.00586,5.20508 z m 199.75586,0 h 16.23242 l -8.11719,14.05664 z m 42.21484,0 h 16.23047 l -8.11523,14.05664 z m 199.75586,0 h 16.23242 l -8.11523,14.05664 h -0.002 z m 42.21485,0 h 16.23242 l -8.11719,14.05664 z m -781.117192,7.5 8.115234,14.05859 H 75.494141 Z m 42.212892,0 h 0.002 l 8.11524,14.05859 h -16.23243 z m 42.21484,0 8.11524,14.05859 h -16.23242 z m 199.75586,0 h 0.002 l 8.11523,14.05859 h -16.23242 z m 42.21485,0 8.11523,14.05859 h -16.23242 l 5.06445,-8.77344 z m 157.54296,0 8.11524,14.05859 H 559.4375 l 3.48828,-6.04492 z m 42.21289,0 8.11719,14.05859 h -16.23242 z m 42.21485,0 8.11523,14.05859 h -16.23242 z m 157.54297,0 8.11523,14.05859 H 801.4082 l 4.05664,-7.03125 z m 42.21289,0 h 0.002 l 8.11524,14.05859 h -16.23243 z m 42.21484,0 4.05664,7.02734 4.06055,7.03125 h -16.23438 z m -568.36914,0.002 8.11524,14.05664 H 317.4668 l 3.48828,-6.04492 z m -92.37891,7.94922 h 27.21485 v 27.21289 h -27.21485 z m 241.97071,0 h 27.21484 v 27.21289 h -27.21484 z m 241.9707,0 h 27.21289 v 27.21289 h -27.21289 z m -683.699218,5.49023 14.058594,8.11524 v 0.002 l -14.058594,8.11523 z m 184.757808,0 v 16.23242 l -14.05664,-8.11523 7.02735,-4.05859 z m 57.21485,0 14.05664,8.11524 v 0.002 l -14.05664,8.11523 z m 184.75586,0 v 16.23242 l -14.05664,-8.11523 v -0.002 z m 57.21484,0 14.05664,8.11524 v 0.002 l -14.05664,8.11523 z m 184.75586,0 v 16.23242 l -14.05664,-8.11523 v -0.002 l 7.0293,-4.05664 z m 57.21289,0 14.05664,8.11719 -14.05664,8.11523 z m 184.75781,0 v 16.23242 l -14.05859,-8.11523 v -0.002 z M 75.496094,677.66797 h 16.230468 l -8.115234,14.05664 -3.578125,-6.19727 z m 42.212886,0 h 16.23047 l -8.11523,14.05664 z m 42.21485,0 h 16.22851 l -8.11523,14.05469 z m 157.54297,0 h 16.23047 l -8.11524,14.05469 z m 42.21289,0 h 16.23242 l -8.11523,14.05664 h -0.002 z m 42.21484,0 H 418.125 l -4.05859,7.02734 -4.05664,7.0293 -3.05274,-5.28516 z m 157.54297,0 h 16.23047 l -8.11524,14.05664 z m 42.21289,0 h 16.23047 l -8.11524,14.05664 z m 42.21484,0 h 16.23047 l -8.11523,14.05664 z m 157.54297,0 h 16.23047 l -8.11523,14.05469 z m 42.21289,0 h 16.23243 l -8.11524,14.05664 h -0.002 z m 42.21485,0 h 16.23047 l -4.0586,7.02734 -4.05664,7.0293 z m -826.078128,2.74414 h 0.002 l 13.605468,23.56836 -14.414062,8.32226 -0.84375,0.48633 -8.308594,4.79688 -13.607422,-23.56641 z m 132.132808,0 5.7754,3.33398 6.00781,3.46875 11.7832,6.80469 -13.60547,23.56641 -4.32617,-2.49805 -19.24219,-11.10742 v -0.002 l 6.80274,-11.78321 z m 109.83985,0 10.24414,17.74414 0.69727,1.20898 2.66406,4.61524 -11.69532,6.75195 -3.5625,2.05664 -8.30859,4.79688 -6.80469,-11.78321 -2.32617,-4.0332 -4.47461,-7.75 17.2793,-9.97656 z m 241.96875,0 h 0.002 l 13.60547,23.56836 -9.09961,5.25391 -14.4668,8.35156 -13.60546,-23.56641 11.7832,-6.80469 z m 374.10351,0 11.78321,6.80273 11.7832,6.80469 -6.80273,11.7832 -6.80274,11.78321 -23.5664,-13.60742 7.91796,-13.71485 z m -483.9414,0.002 11.7832,6.80078 5.76367,3.32813 0.28321,0.16406 5.73632,3.3125 -13.60546,23.56641 -23.56641,-13.60547 9.13672,-15.82813 z m 241.9707,0 19.56445,11.29297 4.00196,2.3125 -13.60547,23.56641 -23.56641,-13.60547 z m 109.83985,0 10.93164,18.93164 2.67382,4.63477 -23.5664,13.60547 h -0.002 l -13.60546,-23.56641 2.03906,-1.17773 9.74414,-5.62696 z m -680.95508,4.75391 h 0.002 l 8.11523,14.05664 H 96.601562 Z m 42.21484,0 h 0.002 l 8.11329,14.05664 h -16.23047 l 5.41211,-9.375 z m 199.75781,0 8.11524,14.05664 h -16.23242 l 4.05859,-7.0293 z m 42.21289,0 8.11524,14.05664 h -16.23047 z m 199.75586,0 8.11719,14.05664 h -16.23242 z m 42.21485,0 8.11523,14.05664 h -16.23047 z m 199.75586,0 h 0.002 l 8.11523,14.05664 h -16.23242 z m 42.21484,0 4.05859,7.02734 4.0586,7.0293 h -16.23242 z m -634.15039,13.60547 h 16.23242 l -8.11523,14.05859 z m 241.9707,0 h 16.23242 l -8.11523,14.05859 z m 241.97266,0 h 16.23047 l -4.0586,7.02929 -4.05664,7.02735 z m -696.691408,7.5 8.117188,14.05859 H 17.830078 l 6.138672,-10.63476 z m 241.972658,0 4.05859,7.02929 4.05664,7.0293 h -16.23242 z m 441.72656,0 h 0.002 l 8.11524,14.05859 H 701.5293 l 4.05664,-7.0293 z m 241.9707,0 2.95313,5.11523 5.16406,8.94336 H 943.5 l 4.05859,-7.0293 z m -725.91211,0.002 8.11524,14.05664 h -16.23047 l 4.05664,-7.0293 z m 241.97071,0 4.05859,7.02734 4.0586,7.0293 h -16.23243 z m 42.21484,0 4.05664,7.02734 4.0586,7.0293 h -16.23243 z m 241.96875,0 8.11719,14.05664 h -16.23242 z m -660.746092,7.94922 h 21.722652 5.49024 v 27.21484 h -5.49024 -21.722652 z m 42.212892,0 h 5.49219 21.7207 v 27.21484 h -21.7207 -5.49219 z m 199.75781,0 h 21.72461 5.49024 v 27.21484 h -5.49024 -21.72461 z m 42.21485,0 h 5.49023 21.72266 v 27.21484 h -21.72266 -5.49023 z m 199.75585,0 h 21.72266 5.49023 v 27.21484 h -5.49023 -21.72266 z m 42.21289,0 h 5.49024 21.72461 v 27.21484 h -21.72461 -5.49024 z m 199.75782,0 h 21.72265 5.49024 v 27.21484 h -5.49024 -21.72265 z m 42.21289,0 h 5.49023 21.72461 v 27.21484 h -21.72461 -5.49023 z M 76.111328,719.7168 v 16.23047 l -7.029297,-4.05665 -7.027343,-4.05859 7.027343,-4.05859 z m 99.425782,0 14.05859,8.11523 -7.02929,4.05859 -7.0293,4.0586 z m 142.54492,0 v 16.23047 l -14.05664,-8.11524 z m 99.42774,0 7.02929,4.05664 7.02735,4.05859 -14.05664,8.11524 z m 142.54296,0 v 16.23047 l -14.05664,-8.11524 z m 99.42774,0 7.02734,4.05664 7.0293,4.05859 -14.05664,8.11524 z m 142.54297,0 v 16.23047 l -7.0293,-4.05665 -7.02734,-4.05859 7.02734,-4.05859 z m 99.42773,0 14.05664,8.11523 -14.05664,8.11524 z M 17.830078,735.33203 H 34.0625 l -8.117188,14.05859 z m 199.757812,0 h 16.23047 l -8.11524,14.05664 z m 42.21289,0 h 16.23242 l -4.05664,7.0293 -4.05859,7.02929 z m 199.75781,0 h 16.23243 l -8.11719,14.05664 z m 42.21289,0 h 16.23243 l -4.0586,7.0293 -4.05664,7.02734 z m 199.75782,0 h 16.23242 l -4.0586,7.0293 -4.05859,7.02734 -4.05859,-7.02734 z m 42.21289,0 h 16.23242 l -8.11523,14.05859 h -0.002 l -4.93554,-8.55078 z m 199.75781,0 h 16.23242 l -5.16406,8.94336 -2.95313,5.11523 -4.05664,-7.02929 z m -893.701172,2.74609 23.566406,13.60547 v 0.002 l -3.361328,5.82226 -3.441406,5.96094 -6.802734,11.7832 h -0.002 l -23.56636,-13.60746 z m 152.052732,0 13.60547,23.56641 -11.7832,6.80469 -6.04688,3.49023 -5.73633,3.3125 -6.80468,-11.7832 -6.80274,-11.7832 v -0.002 l 11.78321,-6.80273 z m 89.91602,0 h 0.002 l 23.56641,13.60547 v 0.002 l -6.80274,11.7832 -6.80273,11.7832 h -0.002 l -23.56446,-13.60742 6.80078,-11.7832 z m 152.05469,0 13.60546,23.56641 -11.7832,6.80469 -11.7832,6.80078 -6.80274,-11.78125 -6.80273,-11.78516 11.7832,-6.80273 z m 89.91796,0 23.56641,13.60547 -6.80273,11.78516 -6.80274,11.7832 h -0.002 l -23.56445,-13.60547 v -0.002 l 6.80273,-11.7832 z m 152.05274,0 13.60547,23.56641 v 0.002 l -11.78125,6.80274 -11.78321,6.80273 h -0.002 l -6.80273,-11.7832 -6.80274,-11.78516 11.78125,-6.80273 z m 89.91601,0 h 0.002 l 11.7832,6.80274 11.7832,6.80273 -6.70898,11.62305 -6.89648,11.94336 -15.03321,-8.67773 -6.49609,-3.75 -2.03906,-1.17579 v -0.002 z m 152.05469,0 6.80274,11.78321 6.80273,11.7832 -11.7832,6.80469 -11.78321,6.80273 -13.60546,-23.5664 11.7832,-6.80469 7.03711,-4.0625 z m -680.95508,4.75391 h 0.002 l 8.11523,14.05859 H 238.6934 l 7.33789,-12.71093 z m 241.97266,0 8.11523,14.05859 h -16.23242 l 4.0586,-7.02929 z m 241.9707,0.002 4.05664,7.02735 4.0586,7.02929 H 722.63672 Z M 96.601562,756.43945 h 16.232418 l -4.05664,7.0293 -4.05859,7.02734 z m 42.214848,0 h 16.23047 l -8.11524,14.05664 z m 199.75586,0 h 16.23242 l -8.11524,14.05664 z m 42.21484,0 h 16.23047 l -8.11524,14.05664 z m 199.75586,0 h 16.23242 l -8.11523,14.05664 h -0.002 z m 42.21484,0 h 16.23047 l -8.11523,14.05664 z m 199.75586,0 h 16.23242 l -8.11523,14.05664 h -0.002 z m 42.21485,0 h 16.23242 l -4.0586,7.0293 -4.05859,7.02734 z m -781.117192,7.5 8.115234,14.05664 H 75.496094 l 4.05664,-7.02734 z m 42.212892,0 8.11523,14.05664 h -16.23047 z m 42.21289,0 8.11523,14.05664 h -16.23046 z m 157.54492,0 8.11524,14.05664 H 317.4668 l 4.05664,-7.02734 z m 42.21289,0 h 0.002 l 8.11523,14.05664 h -16.23242 z m 42.21485,0 4.05664,7.0293 4.05859,7.02734 h -16.23047 z m 157.54296,0 8.11524,14.05664 H 559.4375 Z m 42.21289,0 4.0586,7.0293 4.05664,7.02734 h -16.23047 z m 42.21485,0 8.11523,14.05664 h -16.23242 l 4.0586,-7.02734 z m 157.54297,0 8.11523,14.05664 H 801.4082 Z m 42.21289,0 h 0.002 l 8.11524,14.05664 h -16.23243 z m 42.21484,0 4.05664,7.0293 4.0586,7.02734 h -16.23047 z m -660.74805,7.95117 h 27.21485 v 27.2129 h -27.21485 z m 241.97071,0 h 27.21484 v 27.2129 h -27.21484 z m 241.9707,0 h 27.21289 v 27.2129 h -27.21289 z m -683.699218,5.49024 14.058594,8.11523 v 0.002 l -14.058594,8.11523 z m 184.757808,0 v 16.23242 l -7.02929,-4.05859 -7.02735,-4.0586 z m 57.21485,0 14.05664,8.11523 v 0.002 l -14.05664,8.11523 z m 184.75586,0 v 16.23242 l -14.05664,-8.11523 v -0.002 z m 57.21484,0 14.05664,8.11523 v 0.002 l -14.05664,8.11523 z m 184.75586,0 v 16.23242 l -7.02734,-4.05859 -7.0293,-4.0586 7.0293,-4.05859 z m 57.21289,0 14.05664,8.11523 -7.02734,4.0586 -7.0293,4.05859 z m 184.75781,0 v 16.23242 l -14.05859,-8.11523 v -0.002 l 7.0293,-4.05859 z M 75.494141,792.99609 h 16.232421 l -8.115234,14.0586 z m 42.214839,0 h 16.23243 l -8.11719,14.0586 z m 42.2129,0 h 16.23242 l -8.11524,14.0586 z m 157.54492,0 h 16.23047 l -8.11524,14.05664 z m 42.21289,0 h 16.23242 l -8.11523,14.0586 h -0.002 z m 42.21289,0 H 418.125 l -8.11523,14.0586 z m 157.54492,0 h 16.23047 l -8.11524,14.0586 -4.62695,-8.01367 z m 42.21289,0 h 16.23242 l -8.11719,14.0586 z m 42.21289,0 h 16.23242 l -8.11523,14.0586 z m 157.54492,0 h 16.23047 l -8.11523,14.0586 -4.0586,-7.02735 z m 42.21289,0 h 16.23243 l -8.11524,14.0586 h -0.002 z m 42.21289,0 h 16.23438 l -4.06055,7.03125 -4.05664,7.02735 z m -826.074214,2.7461 10.861328,18.8125 2.74414,4.75586 -5.611328,3.24023 -1.30664,0.75391 -16.648438,9.61133 h -0.002 l -2.744141,-4.75391 -10.861328,-18.8125 10.626953,-6.13477 z m 132.130854,0 5.7754,3.33398 6.00781,3.47071 11.7832,6.80273 -10.85937,18.8125 -2.7461,4.75391 -1.25,-0.72266 -5.54492,-3.19922 -16.77344,-9.68359 v -0.002 l 2.74414,-4.7539 z m 109.83985,0 10.86133,18.8125 2.74414,4.75586 -9.09961,5.2539 -2.6836,1.54883 -11.7832,6.80274 -2.74609,-4.75391 -10.85938,-18.8125 16.5,-9.52734 3.0625,-1.76758 z m 132.13086,0 17.54687,10.13086 6.01953,3.47461 v 0.002 l -10.86132,18.8125 v 0.002 l -2.74414,4.75196 h -0.002 l -13.46093,-7.77149 -10.10547,-5.83398 v -0.002 L 423,814.55469 Z m 109.83789,0 h 0.002 l 10.86133,18.8125 0.19922,0.34375 2.54687,4.41211 -22.31836,12.88281 -1.25,0.72266 -2.74414,-4.75196 v -0.002 l -10.86132,-18.8125 11.7832,-6.80273 z m 132.13281,0 19.56445,11.29492 4.00196,2.3125 -10.86133,18.8125 v 0.002 l -2.74414,4.75196 -11.78516,-6.80274 -11.7832,-6.80273 2.74609,-4.75586 z m 241.96875,0 h 0.002 l 23.56641,13.60547 v 0.002 l -13.60547,23.56641 -1.25,-0.72266 -5.69726,-3.28711 -16.6211,-9.5957 v -0.002 l 2.7461,-4.7539 z m -132.1289,0.002 10.86132,18.81055 2.74414,4.75586 -6.91796,3.99414 -4.86524,2.80859 -11.7832,6.80274 h -0.002 l -2.74414,-4.75391 -10.86132,-18.8125 3.70312,-2.13867 1.08008,-0.62305 z m -680.95313,4.75195 4.05859,7.0293 4.05664,7.0293 H 96.601562 l 5.380858,-9.32031 z m 241.9707,0 8.11524,14.0586 h -16.23242 z m 241.96875,0 h 0.002 l 8.11523,14.0586 h -16.23242 l 8.11523,-14.05664 z m 241.97071,0 8.11718,14.0586 h -16.23242 l 5.38086,-9.32031 z m 42.21484,0 4.05859,7.0293 4.0586,7.0293 h -16.23242 z m -725.91211,0.002 8.11524,14.05664 h -16.23047 z m 241.9707,0 8.11524,14.05664 h -16.23047 z m 241.97071,0 8.11523,14.05664 h -16.23047 z m -392.17969,13.60547 h 16.23242 l -8.11523,14.05859 z m 241.9707,0 h 16.23242 l -8.11523,14.05859 z m 241.97266,0 h 16.23047 l -4.0586,7.02929 -4.05664,7.02735 z m -696.691408,7.5 4.058594,7.02929 4.058594,7.0293 H 17.830078 l 6.138672,-10.63477 z m 241.970708,0 h 0.002 l 4.05859,7.02929 4.05664,7.0293 h -16.23242 z m 199.75781,0 4.05859,7.02929 4.0586,7.0293 h -16.23243 z m 42.21289,0 h 0.002 l 4.05664,7.02929 4.0586,7.0293 h -16.23243 z m 199.75781,0 4.05859,7.02929 4.0586,7.0293 H 701.5293 Z m 42.21289,0 4.06055,7.02929 4.05664,7.0293 h -16.23242 z m 199.75781,0 h 0.002 l 8.11523,14.05859 H 943.5 Z m -725.91211,0.002 8.11524,14.05664 h -16.23047 z m -129.101558,7.94922 h 16.232418 l -8.11523,14.05859 -4.05859,-7.0293 z m 42.214848,0 h 16.23242 l -4.0586,7.02929 -4.05859,7.0293 z m 199.75586,0 h 16.23242 l -8.11524,14.05859 z m 42.21484,0 h 16.23047 l -4.05664,7.02929 -4.0586,7.02735 z m 199.75586,0 h 16.23242 l -8.11719,14.05664 z m 42.21484,0 h 16.23047 l -4.05859,7.02929 -4.05664,7.02735 -5.38086,-9.31836 z m 199.75586,0 h 16.23242 l -8.11718,14.05664 -4.0586,-7.02735 z m 42.21485,0 h 16.23242 l -4.0586,7.02929 -4.05859,7.0293 -5.38086,-9.32031 z m -783.863286,2.74609 h 0.002 l 2.74414,4.75391 10.861328,18.8125 -23.568359,13.60742 -2.740235,-4.74609 -2.283203,-3.95508 -5.83789,-10.11133 -2.744141,-4.75586 5.611328,-3.24023 z m 89.917966,0 23.56836,13.60547 v 0.002 l -2.74414,4.75391 -10.86328,18.8125 -23.56641,-13.60547 v -0.002 l 10,-17.32227 0.85938,-1.49023 z m 152.05274,0 h 0.002 l 2.74414,4.75391 10.86133,18.8125 -23.56641,13.60742 h -0.002 l -10.86133,-18.8125 -2.74414,-4.75586 7.6875,-4.4375 z m 89.91797,0 13.05078,7.53516 0.41211,0.23633 10.10547,5.83398 -2.7461,4.75586 -10.86133,18.8125 -23.5664,-13.60742 10.08203,-17.46485 0.7793,-1.34765 v -0.002 z m 152.05273,0 h 0.002 l 2.74414,4.75391 8.02149,13.89453 2.83984,4.91797 -16.92578,9.77343 -6.64062,3.83399 h -0.002 l -5.02343,-8.70117 -5.83594,-10.11133 -1.51953,-2.63086 -1.22657,-2.12305 v -0.002 l 16.15235,-9.32422 z m 89.91797,0 h 0.002 l 13.04883,7.53516 0.41211,0.23633 10.10547,5.83398 v 0.002 l -2.74609,4.75391 -4.0586,7.0293 -6.80078,11.7832 h -0.002 l -23.56641,-13.60547 v -0.002 l 10.86133,-18.8125 z m 152.05273,0 h 0.002 l 2.74414,4.75391 10.86133,18.8125 v 0.002 l -23.56836,13.60547 -10.86133,-18.8125 -2.74414,-4.75586 11.7832,-6.80273 z m 89.91797,0 h 0.002 l 23.5664,13.60547 v 0.002 l -2.74609,4.75391 -10.85938,18.8125 h -0.002 l -23.56641,-13.60547 v -0.002 l 10.86133,-18.8125 z m -770.87109,4.75391 8.11719,14.05859 h -16.23243 z m 241.9707,0 h 0.002 l 8.11523,14.05859 h -16.23242 l 7.33789,-12.71094 z m 241.9707,0 4.0586,7.02929 4.05859,7.0293 h -16.23242 z m 241.97071,0 8.11719,14.05859 H 843.62109 Z M 17.830078,850.66211 H 34.0625 l -8.117188,14.05859 z m 199.757812,0 h 16.23047 l -8.11524,14.05664 z m 42.21289,0 h 16.23242 l -8.11523,14.05664 z m 199.75781,0 h 16.23243 l -4.0586,7.0293 -4.05859,7.02929 z m 42.21289,0 h 16.23243 l -8.11524,14.05859 z m 199.75782,0 h 16.23242 l -4.0586,7.0293 -4.05859,7.02929 z m 42.21289,0 h 16.23242 l -8.11719,14.05664 z m 199.75781,0 h 16.23242 l -4.05859,7.0293 -4.0586,7.02929 z m -896.447266,7.5 3.578125,6.19727 4.539063,7.86132 H 38.9375 Z m 157.542966,0 h 0.002 l 0.0937,0.16406 8.02148,13.89453 h -16.23242 z m 42.21289,0 h 0.002 l 8.11523,14.05859 H 238.6934 Z m 42.21485,0 h 0.002 l 8.11523,14.05859 H 280.9082 Z m 157.54297,0 8.11718,14.05859 h -16.23242 z m 42.21484,0 8.11523,14.05859 h -16.23242 z m 42.21289,0 h 0.002 l 3.57618,6.19727 4.53906,7.86132 h -16.23242 z m 157.54297,0 8.11719,14.05859 h -16.23242 z m 84.42773,0 3.57813,6.19727 4.53906,7.86132 h -16.23242 z m 157.54297,0 8.11719,14.05859 h -16.23242 z m -199.75586,0.002 4.05664,7.02735 4.0586,7.02929 h -16.23047 z m -618.5332,7.94922 h 27.21289 v 27.21289 h -27.21289 z m 241.9707,0 h 27.21289 v 27.21289 h -27.21289 z m 241.96875,0 h 27.21485 v 27.21289 H 596.1582 Z m 241.97266,0 h 27.21289 v 27.21289 h -27.21289 z m -740.91211,5.49024 v 16.23242 L 83.160156,879.7207 Z m 57.21289,0 14.05859,8.11718 -7.02929,4.05664 -7.0293,4.0586 z m 184.75781,0 v 16.23242 l -7.02929,-4.0586 -7.0293,-4.05664 z m 57.21289,0 14.05664,8.11718 -7.02929,4.05664 -7.02735,4.0586 z m 184.75586,0 v 16.23242 l -14.05664,-8.11524 v -0.002 z m 57.21485,0 14.05664,8.11718 -7.02735,4.05664 -7.02929,4.0586 z m 184.75781,0 v 16.23242 l -7.0293,-4.0586 -7.02929,-4.05664 v -0.002 z m 57.21289,0 14.05859,8.11718 -7.02929,4.05664 -7.0293,4.0586 z M 38.9375,887.2207 h 16.230469 l -4.056641,7.0293 -4.058594,7.02734 z m 157.54297,0 h 16.23242 l -8.11523,14.05664 h -0.002 l -4.0566,-7.02734 z m 42.21289,0 h 16.23242 l -8.11523,14.05664 h -0.002 z m 42.21484,0 h 16.23242 l -4.05859,7.0293 -4.05859,7.02734 z m 157.54297,0 h 16.23242 l -8.11718,14.05664 z m 42.21485,0 h 16.23046 l -8.11523,14.05664 -4.05859,-7.02734 z m 42.21289,0 h 16.23047 l -4.05665,7.0293 -4.05859,7.02539 z m 157.54297,0 h 16.23242 l -8.11524,14.05664 h -0.002 z m 42.21484,0 h 16.23047 l -4.0586,7.0293 -4.05664,7.02734 z m 42.21289,0 h 16.23047 l -4.05664,7.0293 -4.0586,7.02734 z m 157.54297,0 H 938.625 l -8.11523,14.05664 h -0.002 z m -851.488283,2.74414 h 0.002 l 6.501953,3.75391 6.023438,3.47852 11.041015,6.375 -8.197265,14.19921 -5.408203,9.36719 h -0.002 L 69.082032,920.33594 57.298829,913.5332 64.00586,901.91602 Z m 241.972653,0 11.78321,6.80469 11.7832,6.80274 -13.60547,23.5664 h -0.002 l -23.56641,-13.60547 5.73633,-9.93554 z m 483.93946,0 11.78515,6.80469 11.78321,6.80274 -13.60547,23.5664 h -0.002 L 783.2109,913.5332 Z m -616.07227,0.002 2.88672,4.99609 10.7207,18.56836 v 0.002 l -23.56836,13.60547 -6.74414,-11.67969 -6.86133,-11.88671 5.77539,-3.33399 6.00782,-3.46875 z m 241.9707,0 13.60547,23.5664 -6.64062,3.83399 -16.92578,9.77148 -13.60547,-23.5664 11.7832,-6.80274 0.1582,-0.0918 z m 132.13086,0 18.32813,10.58008 5.23828,3.02539 -13.60352,23.5664 h -0.002 L 541.24023,913.5332 v -0.002 l 7.03516,-12.18359 z m 109.83985,0 6.80273,11.7832 6.80469,11.7832 -11.78516,6.80274 -11.7832,6.80273 -13.60547,-23.5664 11.7832,-6.80274 z m 241.9707,0 13.60742,23.5664 -13.60547,7.85547 -9.96289,5.75195 -13.60547,-23.56835 11.78321,-6.80274 z M 25.945312,894.7207 34.0625,908.77734 H 17.830078 Z m 199.757808,0 8.11524,14.05664 h -16.23047 l 3.68945,-6.39257 z m 42.2129,0 h 0.002 l 8.11523,14.05664 h -16.23242 z m 199.75781,0 4.05859,7.0293 4.0586,7.02734 h -16.23243 l 3.45703,-5.98828 z m 42.21289,0 h 0.002 l 8.11524,14.05664 h -16.23243 z m 199.75781,0 4.05859,7.0293 4.0586,7.02734 H 701.5293 Z m 42.21289,0 h 0.002 l 8.11523,14.05664 h -16.23242 z m 199.75781,0 8.11719,14.05664 H 943.5 Z m -833.90625,13.60547 h 16.23243 l -8.11719,14.05664 z m 241.97071,0 h 16.23242 l -8.11523,14.05664 z m 241.9707,0 h 16.23242 l -4.05859,7.0293 -4.0586,7.0293 z m 241.9707,0 h 16.23243 l -8.11719,14.0586 z m -738.90234,7.5 4.05859,7.0293 4.05664,7.0293 H 96.601562 l 4.626958,-8.01368 z m 42.21289,0 4.53906,7.86133 3.57618,6.19727 h -16.23047 z m 199.75781,0 8.11524,14.0586 h -16.23242 z m 526.1543,0 4.53906,7.86133 3.57617,6.19727 h -16.23046 z m -483.94141,0.002 8.11524,14.05665 h -16.23047 z m 199.75586,0 h 0.002 l 8.11523,14.05665 h -16.23242 z m 42.21485,0 8.11523,14.05665 h -16.23047 z m 199.75586,0 8.11718,14.05665 h -16.23242 z m -618.53125,7.94922 h 21.72265 5.49024 v 27.21289 h -5.49024 -21.72265 z m 42.21289,0 h 5.49023 21.72266 v 27.21289 h -21.72266 -5.49023 z m 199.75586,0 h 21.72461 5.49023 v 27.21289 h -5.49023 -21.72461 z m 42.21484,0 h 5.49023 21.72266 v 27.21289 h -21.72266 -5.49023 z m 199.75586,0 h 21.72461 5.49023 v 27.21289 h -5.49023 -21.72461 z m 42.21484,0 h 5.49024 21.72265 v 27.21289 h -21.72265 -5.49024 z m -541.15429,5.49024 V 945.5 l -14.0586,-8.11523 z m -142.544926,0.002 14.058594,8.11524 -14.058594,8.11718 z m 241.970706,0 14.05664,8.11524 -14.05664,8.11523 z m 142.54297,0 V 945.5 l -14.05664,-8.11523 z m 99.42773,0 14.05859,8.11524 -14.05859,8.11718 z m 142.54297,0 V 945.5 l -14.05664,-8.11523 7.02734,-4.05665 z m 99.42773,0 14.05664,8.11524 -14.05664,8.11523 z m 142.54493,0 v 16.23242 l -14.0586,-8.11718 12.20313,-7.04493 z M 96.601562,944.88477 h 16.232418 l -8.11523,14.05859 z m 42.214848,0 h 16.23242 l -8.11719,14.05859 z m 199.75586,0 h 16.23242 l -8.11524,14.05859 z m 42.21484,0 h 16.23047 l -8.11524,14.05859 z m 199.75586,0 h 16.23242 l -8.11523,14.05859 z m 42.21484,0 h 16.23047 l -8.11523,14.05664 z m 199.75586,0 h 16.23242 l -8.11523,14.05859 h -0.002 z m 42.21485,0 h 16.23242 l -8.11719,14.05859 z m -647.14258,21.10546 h 16.23437 l -8.11719,14.0586 z m 42.21484,0 h 16.23242 l -8.11523,14.06055 h -0.002 z m 199.75586,0 h 16.23438 l -8.11719,14.06055 z m 42.21484,0 h 16.23243 l -8.11524,14.06055 h -0.002 z m 199.75586,0 h 16.23438 l -8.11719,14.06055 z m 42.21485,0 h 16.23242 l -8.11523,14.0586 z"
     id="path835" />
</svg>
