<?xml version="1.0" encoding="UTF-8" standalone="no"?>
<svg
   xmlns:dc="http://purl.org/dc/elements/1.1/"
   xmlns:cc="http://creativecommons.org/ns#"
   xmlns:rdf="http://www.w3.org/1999/02/22-rdf-syntax-ns#"
   xmlns:svg="http://www.w3.org/2000/svg"
   xmlns="http://www.w3.org/2000/svg"
   xmlns:sodipodi="http://sodipodi.sourceforge.net/DTD/sodipodi-0.dtd"
   xmlns:inkscape="http://www.inkscape.org/namespaces/inkscape"
   version="1.0"
   width="975.79144"
   height="1000.0"
   id="c:\kuniform\5u\5-uniform_218.svg"
   sodipodi:docname="5-uniform_218.svg"
   inkscape:version="1.0.1 (3bc2e813f5, 2020-09-07)">
  <style
     id="style7881" />
  <metadata
     id="metadata7318">
    <rdf:RDF>
      <cc:Work
         rdf:about="">
        <dc:format>image/svg+xml</dc:format>
        <dc:type
           rdf:resource="http://purl.org/dc/dcmitype/StillImage" />
        <dc:title />
      </cc:Work>
    </rdf:RDF>
  </metadata>
  <defs
     id="defs7316" />
  <sodipodi:namedview
     pagecolor="#ffffff"
     bordercolor="#666666"
     inkscape:document-rotation="0"
     borderopacity="1"
     objecttolerance="10"
     gridtolerance="10"
     guidetolerance="10"
     inkscape:pageopacity="0"
     inkscape:pageshadow="2"
     inkscape:window-width="1920"
     inkscape:window-height="1001"
     id="namedview7314"
     showgrid="false"
     inkscape:zoom="0.50587555"
     inkscape:cx="458.85052"
     inkscape:cy="508.1087"
     inkscape:window-x="-9"
     inkscape:window-y="-9"
     inkscape:window-maximized="1"
     inkscape:current-layer="c:\kuniform\5u\5-uniform_218.svg" />
  <!-- X Coordinate transform: fx(x)=(x+72.17139)*0.85270905-->
  <!-- Y Coordinate transform: fy(y)=(1077.2158-y)*0.85270905 -->
  <path
     style="color:#000000;font-style:normal;font-variant:normal;font-weight:normal;font-stretch:normal;font-size:medium;line-height:normal;font-family:sans-serif;font-variant-ligatures:normal;font-variant-position:normal;font-variant-caps:normal;font-variant-numeric:normal;font-variant-alternates:normal;font-variant-east-asian:normal;font-feature-settings:normal;font-variation-settings:normal;text-indent:0;text-align:start;text-decoration:none;text-decoration-line:none;text-decoration-style:solid;text-decoration-color:#000000;letter-spacing:normal;word-spacing:normal;text-transform:none;writing-mode:lr-tb;direction:ltr;text-orientation:mixed;dominant-baseline:auto;baseline-shift:baseline;text-anchor:start;white-space:normal;shape-padding:0;shape-margin:0;inline-size:0;clip-rule:nonzero;display:inline;overflow:visible;visibility:visible;isolation:auto;mix-blend-mode:normal;color-interpolation:sRGB;color-interpolation-filters:linearRGB;solid-color:#000000;solid-opacity:1;vector-effect:none;fill:#000000;fill-opacity:1;fill-rule:nonzero;stroke:none;stroke-width:16;stroke-linecap:butt;stroke-linejoin:miter;stroke-miterlimit:4;stroke-dasharray:none;stroke-dashoffset:0;stroke-opacity:1;color-rendering:auto;image-rendering:auto;shape-rendering:auto;text-rendering:auto;enable-background:accumulate;stop-color:#000000"
     d="M 117.3125,-1.9765625 82.246094,18.267578 H 41.753906 v 8 l -6.927734,-4 -21.31836,36.923828 6.927735,4 -6.927735,4 17.31836,29.996094 -29.99609388,17.31641 4.00195308,6.92968 -3.99999995,6.92774 29.99414075,17.3164 -19.626953,33.9961 19.626953,33.99609 -29.99609388,17.31641 4.00195308,6.92773 -4.00195308,6.92969 29.99609388,17.31641 -17.31836,29.99609 6.927735,4 -6.927735,4 17.31836,29.99414 -29.99609388,17.31836 4.00195308,6.92773 -4.00195308,6.92774 29.99609388,17.31836 -19.626953,33.99609 19.626953,33.9961 -29.99414075,17.3164 3.99999995,6.92774 -4.00195308,6.92773 29.99609388,17.31836 -17.31836,29.99609 6.927735,4 -6.927735,4 17.31836,29.9961 -29.99609388,17.3164 4.00195308,6.92969 -3.99999995,6.92774 29.99414075,17.3164 -19.626953,33.9961 19.626953,33.99414 -29.99609388,17.31836 4.00195308,6.92773 -4.00195308,6.92773 29.99609388,17.31836 -17.31836,29.99414 6.927735,4.00196 -6.927735,4 17.31836,29.99414 -29.99609388,17.31836 4.00195308,6.92773 -4.00195308,6.92774 29.99609388,17.31836 -19.626953,33.99414 19.626953,33.99609 -29.99414075,17.31641 3.99999995,6.92968 -4.00195308,6.92774 38.78124988,22.39062 H 86.533203 L 127.16992,942.66406 147.25,907.88477 h 33.39648 l 20.08204,34.77929 36.92382,21.32032 20.24414,35.06445 6.92774,-4 6.92969,4 20.24414,-35.06445 28.14062,-16.24805 17.31641,29.99609 6.92773,-4 6.92969,4 14.38867,-24.92383 14.38867,24.92383 6.92969,-4 6.92774,4 17.31835,-29.99609 31.85157,18.39062 h 46.92187 l 40.63672,-23.46289 20.08008,-34.77929 h 33.39648 l 20.08204,34.77929 36.92382,21.32032 20.24414,35.06445 6.92969,-4 6.92774,4 20.24414,-35.06445 28.14062,-16.24805 17.31641,29.99609 6.92968,-4 6.92774,4 14.38867,-24.92383 14.39063,24.92383 6.92773,-4 6.92773,4 17.31836,-29.99609 31.85157,18.39062 h 46.92187 l 40.63672,-23.46289 23.46094,-40.63476 v -42.63477 l 22.55664,-39.06836 -22.55664,-39.06836 v -42.63476 l -20.08008,-34.7793 20.08008,-34.7793 v -42.63476 l 22.55664,-39.06836 -22.55664,-39.06836 v -42.63281 l -20.08008,-34.78125 20.08008,-34.7793 V 393.4668 l 22.55664,-39.07032 -22.55664,-39.06836 V 272.69531 L 937.5625,237.91406 957.64258,203.13477 V 160.50195 L 980.19922,121.43359 957.64258,82.363281 V 39.730469 l -22.38867,-38.77929712 -6.92969,4.00000002 -4,-6.9277344 -35.06445,20.2441405 h -38.34961 l -35.06641,-20.2441405 -4,6.9277344 L 804.91406,0.95117188 790.52539,25.875 776.13672,0.95117188 769.20703,4.9511719 762.2793,0.95117188 747.88867,25.873047 733.5,0.95117188 l -6.92773,4.00000002 -4,-6.9277344 -35.06641,20.2441405 H 649.1543 l -35.06446,-20.2441405 -4,6.9277344 L 603.16211,0.95117188 584.1543,33.873047 h -33.39844 l -19.00781,-32.92187512 -6.92969,4.00000002 -4,-6.9277344 -35.06445,20.2441405 H 447.4043 l -35.06641,-20.2441405 -4,6.9277344 L 401.4082,0.95117188 387.01953,25.875 372.62891,0.95117188 365.70117,4.9511719 358.77344,0.95117188 344.38477,25.873047 329.99414,0.95117188 l -6.92773,4.00000002 -4,-6.9277344 -35.06446,20.2441405 h -38.35156 l -35.06641,-20.2441405 -4,6.9277344 L 199.65625,0.95117188 180.64844,33.873047 H 147.24805 L 128.24023,0.95117188 121.3125,4.9511719 Z m 1.07227,17.8554685 13.31835,23.066406 -23.06835,13.320313 -13.318364,-23.068359 z m 91.12695,0 23.0664,13.316406 -13.3164,23.06836 -23.06836,-13.31836 z m 110.62695,0 13.31641,23.066406 -23.06641,13.31836 -13.3164,-23.066406 z m 91.12695,0 23.06641,13.316406 -13.31836,23.06836 -23.0664,-13.31836 z m 110.625,0 13.31836,23.066406 -23.0664,13.31836 -13.31836,-23.06836 z m 91.12696,0 23.0664,13.31836 -13.3164,23.066406 -23.06641,-13.31836 z m 110.62695,0 13.31836,23.066406 -23.06836,13.31836 -13.31641,-23.06836 z m 91.12695,0 23.06641,13.316406 -13.31836,23.06836 -23.06641,-13.31836 z m 110.625,0 13.31836,23.066406 -23.0664,13.31836 -13.31836,-23.06836 z m -559.69531,5.072266 7.46094,12.921875 h -14.92188 z m 403.50781,0 7.46094,12.921875 H 761.74805 Z M 46.373047,34.267578 H 79.769531 L 96.470703,63.191406 79.769531,92.115234 H 46.373047 L 29.671875,63.191406 Z m 210.990233,0 h 14.92383 l -7.46094,12.923828 z m 192.51563,0 h 33.39843 l 16.69922,28.923828 -16.69922,28.923828 H 449.87891 L 433.17969,63.191406 Z m 210.99023,0 h 14.92383 l -7.46289,12.923828 z m 192.51758,0 H 886.7832 L 903.48242,63.191406 886.7832,92.115234 H 853.38672 L 836.68555,63.191406 Z m -609.87891,8 7.46094,12.923828 h -14.92383 z m 446.14063,0 7.46289,12.923828 H 682.1875 Z m -403.50586,0.002 7.46094,12.921875 h -14.92188 z m 360.87109,0 7.46094,12.921875 h -14.92188 z m -496.38281,7.603516 h 26.63476 v 26.636719 h -26.63476 z m 201.75391,0 h 26.63476 v 26.636719 h -26.63476 z m 201.75195,0 h 26.63476 v 26.636719 h -26.63476 z m 201.7539,0 h 26.63477 v 26.636719 h -26.63477 z m -419.50585,5.855469 v 14.925781 l -12.92579,-7.462891 z m 260.38671,0 12.92383,7.46289 -12.92383,7.462891 z m -462.14062,0.002 V 70.652438 L 121.70703,63.1915 Z m 58.63476,0 12.92188,7.460937 -12.92188,7.460938 z m 201.75391,0 12.92383,7.460937 -12.92383,7.460938 z m 143.11719,0 V 70.652438 L 525.21484,63.1915 Z m 201.7539,0 V 70.654297 L 726.9668,63.191406 Z m 58.63477,0 12.92383,7.460937 -12.92383,7.460938 z m 143.11719,0 V 70.652344 L 928.7207,63.191406 Z M 236.04492,71.191406 h 14.92383 l -7.46094,12.923828 z m 42.63672,0 h 14.92188 l -7.46094,12.923828 z m 360.87109,0 h 14.92188 l -7.46094,12.921875 z m 42.63477,0 h 14.92383 l -7.46289,12.923828 z M 108.63477,74.119141 131.70312,87.4375 118.38477,110.50391 95.316406,97.185547 Z m 110.625,0 13.32031,23.068359 -23.06836,13.31836 -13.31836,-23.06836 z m 494.63671,0 23.06446,13.318359 -13.31836,23.06641 -23.06641,-13.31641 z m -403.50781,0.002 23.06641,13.316406 -13.31836,23.066413 -23.06641,-13.318366 z m 110.625,0 13.31836,23.066406 -23.06641,13.316413 -13.31835,-23.066413 z m 91.12891,0 23.0664,13.316406 -13.31836,23.066413 -23.0664,-13.316413 z m 110.625,0 13.31836,23.064453 -23.06836,13.320316 -13.31836,-23.068363 z m 201.75195,0 13.32031,23.064453 -23.06836,13.318366 -13.31836,-23.066413 z m 91.12891,0 23.0664,13.316406 -13.31836,23.066413 -23.0664,-13.316413 z m -650.82422,5.070312 7.46289,12.923828 h -14.92383 z m 403.50781,0 7.46094,12.923828 h -14.92383 z m -511.84375,13.31836 h 14.92188 l -7.46094,12.921877 z m 192.51367,0 h 33.39844 l 16.69922,28.923827 -16.69922,28.92188 h -33.39844 l -16.69922,-28.92188 z m 210.99219,0 h 14.92188 l -7.46094,12.923827 z m 192.51367,0 h 33.39844 l 16.69922,28.923827 -16.69922,28.92188 h -33.39844 l -16.69922,-28.92188 z m -206.37109,7.998047 7.46289,12.92578 h -14.92383 z m 403.50586,0 7.46094,12.92578 h -14.92188 z m -807.01172,0.002 7.46094,12.92382 h -14.92383 z m 42.63476,0 7.4629,12.92382 h -14.92383 z m 403.50586,0 7.4629,12.92382 H 581.31055 Z M 49.753906,108.11523 H 76.388672 V 134.75 H 49.753906 Z m 201.753904,0 h 26.63477 V 134.75 h -26.63477 z m 201.75196,0 h 26.63671 V 134.75 h -26.63671 z m 201.7539,0 h 26.63477 V 134.75 h -26.63477 z m 201.75391,0 h 26.63476 V 134.75 h -26.63476 z m -764.378908,5.85547 12.925778,7.46289 -12.925778,7.46094 z m 143.119138,0 v 14.92383 l -12.92383,-7.46094 z m 58.63477,0 12.92383,7.46289 -12.92383,7.46094 z m 344.87109,0 v 14.92383 l -12.92383,-7.46094 z m 58.63477,0 12.92383,7.46289 -12.92383,7.46094 z m 143.11914,0 v 14.92383 l -12.92383,-7.46094 z m 58.63476,0 12.92383,7.46094 -12.92383,7.46289 z m -865.648434,0.002 v 14.91992 l -12.921875,-7.45899 z m 403.505864,0 v 14.91992 l -12.92188,-7.45899 z m 58.63671,0 12.92188,7.46093 -12.92188,7.46094 z m -360.72656,15.46093 h 14.92188 l -7.46094,12.92188 z m 42.63477,0 h 14.92187 l -7.46094,12.92383 z m 360.87109,0 h 14.92383 l -7.46289,12.92383 z m 42.63477,0 h 14.92187 l -7.45898,12.92188 z m 360.87109,0 h 14.92188 l -7.46094,12.92383 z m -732.66992,2.92579 23.0664,13.31835 -13.31835,23.06836 -23.06641,-13.31836 z m -91.12695,0.002 13.31835,23.0664 -23.06835,13.31836 -13.318364,-23.06836 z m 201.75195,0 13.31836,23.0664 -23.06641,13.31836 -13.31836,-23.0664 z m 91.1289,0 23.06641,13.3164 -13.31641,23.06836 -23.06835,-13.31836 z m 110.625,0 13.31836,23.0664 -23.06836,13.31836 -13.3164,-23.06836 z m 91.12696,0 23.06836,13.31836 -13.31836,23.0664 -23.06641,-13.31836 z m 110.625,0 13.31836,23.0664 -23.06446,13.31836 -13.31836,-23.06836 z m 91.1289,0 23.06836,13.3164 -13.32031,23.06836 -23.06641,-13.31836 z m 110.625,0 13.31836,23.0664 -23.0664,13.31836 -13.31836,-23.06836 z m -357.9414,5.07031 7.46094,12.92383 h -14.92383 z m -403.50586,0.002 7.46094,12.92188 H 156.48633 Z M 55.611328,150.75 h 14.921875 l -7.460937,12.92383 z m 192.515622,0 h 33.39649 l 16.69922,28.92383 -16.69922,28.92383 h -33.39649 l -16.70117,-28.92383 z m 210.99024,0 h 14.92187 l -7.46094,12.92383 z m 192.51562,0 h 33.39649 l 16.70117,28.92383 -16.70117,28.92383 h -33.39649 l -16.69922,-28.92383 z m 210.99024,0 h 14.92187 l -7.46094,12.92383 z m 28.77929,7.99805 7.46094,12.92578 h -14.92383 z m -849.648434,0.002 7.462891,12.92383 H 34.292969 Z m 42.634766,0 7.46289,12.92383 H 76.927734 Z m 360.871098,0 7.46289,12.92383 h -14.92383 z m 42.63476,0 7.46289,12.92383 h -14.92383 z m 360.87305,0 7.46094,12.92383 h -14.92188 z m -698.13672,7.60547 h 26.63476 v 26.63672 h -26.63476 z m 201.75391,0 h 26.63476 v 26.63672 h -26.63476 z m 201.75195,0 h 26.63476 v 26.63672 h -26.63476 z m 201.7539,0 h 26.63477 v 26.63672 h -26.63477 z m -419.50585,5.85547 v 14.92578 l -12.92383,-7.46289 z m 260.38671,0 12.92579,7.46289 -12.92579,7.46289 z m -462.14062,0.002 v 14.92188 l -12.92383,-7.46094 z m 58.63476,0 12.92383,7.46094 -12.92383,7.46289 z m 201.75391,0 12.92188,7.46094 -12.92188,7.46094 z m 143.11719,0 v 14.92188 l -12.92188,-7.46094 z m 201.7539,0 v 14.92383 l -12.92382,-7.46289 z m 58.63477,0 12.92188,7.46094 -12.92188,7.46094 z m 143.11719,0 v 14.92383 l -12.92383,-7.46094 z M 34.292969,187.67383 h 14.923828 l -7.462891,12.92383 z m 42.634765,0 h 14.923828 l -7.46289,12.92383 z m 360.871096,0 h 14.92383 l -7.46289,12.92383 z m 42.63476,0 h 14.92383 l -7.46094,12.92383 z m 360.8711,0 h 14.92383 l -7.46094,12.92383 z m 42.63476,0 h 14.92383 l -7.46094,12.92383 z m -775.30468,2.92773 23.06835,13.31836 -13.31835,23.06641 -23.068364,-13.31836 z m 312.3789,0 13.31836,23.06836 -23.06641,13.31641 -13.31835,-23.06641 z m 91.12891,0 23.0664,13.31836 -13.31836,23.06641 -23.0664,-13.31641 z m -292.88281,0.002 13.32031,23.0664 -23.06836,13.31836 -13.31641,-23.06836 z m 91.1289,0 23.06641,13.3164 -13.31641,23.06641 -23.06836,-13.31836 z m 312.37891,0 13.31836,23.06445 -23.06641,13.31836 -13.31836,-23.06641 z m 91.1289,0 23.06641,13.3164 -13.32031,23.06641 -23.06641,-13.31641 z m 110.62305,0 13.32031,23.06445 -23.06836,13.31836 -13.31836,-23.06641 z m 91.12891,0 23.0664,13.3164 -13.31836,23.06641 -23.0664,-13.31641 z m -449.07032,5.06836 7.4629,12.92578 h -14.92579 z m -403.505854,0.002 7.460937,12.92383 H 55.609375 Z m 807.011714,0 7.4629,12.92383 H 862.62305 Z M 147.25,208.99219 h 33.39844 l 16.69922,28.92187 -16.69922,28.92383 H 147.25 l -16.69922,-28.92383 z m 210.99023,0 h 14.92188 l -7.46094,12.92187 z m 192.51563,0 h 33.39844 l 16.69922,28.92187 -16.69922,28.92383 h -33.39844 l -16.69922,-28.92383 z m 210.99023,0 h 14.92188 l -7.46094,12.92187 z m -374.72656,7.99804 7.46094,12.92383 h -14.92383 z m 403.50586,0 7.46094,12.92383 h -14.92188 z m -446.14062,0.002 7.46093,12.92187 h -14.92187 z m 403.5039,0 7.46289,12.92187 H 740.42969 Z M 49.753906,224.5977 h 26.634766 v 26.63476 H 49.753906 Z m 201.753904,0 h 26.63477 v 26.63476 h -26.63477 z m 201.75196,0 h 26.63671 v 26.63476 h -26.63671 z m 201.7539,0 h 26.63477 v 26.63476 h -26.63477 z m 201.75391,0 h 26.63476 v 26.63476 h -26.63476 z m -764.378908,5.85546 12.923828,7.46094 -12.923828,7.46289 z m 143.119138,0 v 14.92383 l -12.92383,-7.46289 z m 58.63477,0 12.92187,7.46094 -12.92187,7.46289 z m 344.87109,0 v 14.92383 l -12.92383,-7.46289 z m 58.63477,0 12.92383,7.4629 -12.92383,7.46093 z m 143.11914,0 v 14.92383 L 827.8418,237.9141 Z m -807.013674,0.002 V 245.375 l -12.921875,-7.46094 z m 403.505864,0 V 245.375 l -12.92188,-7.46094 z m 58.63671,0 12.92188,7.45898 -12.92188,7.46094 z m 403.50586,0 12.92188,7.45898 -12.92188,7.46094 z m -562.48046,15.45898 h 14.92382 l -7.46289,12.92383 z m 42.63476,0 h 14.92383 l -7.46094,12.92383 z m 360.87109,0 h 14.92383 l -7.46289,12.92383 z m 42.63672,0 h 14.92188 l -7.46094,12.92383 z m -573.55273,2.92774 23.0664,13.31836 -13.3164,23.06836 -23.06641,-13.31836 z m 110.625,0 13.31836,23.06836 -23.06641,13.3164 -13.31836,-23.06445 z m -201.75195,0.002 13.31835,23.06641 -23.06835,13.31836 -13.318364,-23.06641 z m 292.88085,0 23.06641,13.31641 -13.31836,23.0664 -23.0664,-13.3164 z m 110.625,0 13.31836,23.06641 -23.0664,13.3164 -13.31836,-23.0664 z m 91.12891,0 23.06641,13.31836 -13.31836,23.06445 -23.06641,-13.3164 z m 110.62305,0 13.31836,23.06641 -23.06641,13.31836 -13.31836,-23.06641 z m 91.1289,0 23.06836,13.31836 -13.32031,23.06445 -23.06641,-13.3164 z m 110.625,0 13.31836,23.06641 -23.0664,13.3164 -13.31836,-23.0664 z m -559.69531,5.07031 7.46289,12.92383 h -14.92383 z m 403.50586,0 7.46289,12.92383 H 761.74609 Z M 46.373047,267.23242 h 33.396484 l 16.701172,28.92383 -16.699219,28.92187 H 46.371094 L 29.671875,296.15625 Z m 210.990233,0 h 14.92383 l -7.46094,12.92383 z m 192.51563,0 h 33.39843 l 16.69922,28.92383 -16.69922,28.92187 h -33.39843 l -16.69922,-28.92187 z m 210.99023,0 h 14.92383 l -7.46094,12.92383 z m 192.51758,0 h 33.39648 l 16.69922,28.92383 -16.69922,28.92187 h -33.39843 l -16.69922,-28.92187 z m -609.87891,8 7.46094,12.92383 h -14.92383 z m 42.63477,0.002 7.46094,12.92187 h -14.92188 z m 360.87109,0 7.46094,12.92187 h -14.92188 z m 42.63477,0 7.46289,12.92187 H 682.1875 Z m -539.01758,7.60351 h 26.63476 v 26.63672 h -26.63476 z m 201.75391,0 h 26.63476 v 26.63672 h -26.63476 z m 201.75195,0 h 26.63476 v 26.63672 h -26.63476 z m 201.7539,0 h 26.63477 v 26.63672 h -26.63477 z m -562.625,5.85547 12.92383,7.46289 -12.92383,7.46289 z m 143.11915,0 v 14.92578 l -12.92579,-7.46289 z m 260.38671,0 12.92383,7.46289 -12.92383,7.46094 z m 143.11914,0 v 14.92578 l -12.92382,-7.46289 z m 201.75196,0 v 14.92383 l -12.92383,-7.46289 z m -807.01172,0.002 v 14.92188 l -12.92383,-7.46094 z m 260.38867,0 12.92383,7.46094 -12.92383,7.46094 z m 143.11719,0 v 14.92188 l -12.92188,-7.46094 z m 260.38867,0 12.92383,7.46094 -12.92383,7.46094 z m -562.47851,15.46094 h 14.92187 l -7.46094,12.92187 z m 42.63476,0 h 14.92188 l -7.46094,12.92187 z m 360.87109,0 h 14.92188 l -7.46094,12.92187 z m 42.63477,0 h 14.92383 l -7.46289,12.92187 z m -573.55273,2.92578 23.06835,13.32031 -13.31835,23.06641 -23.068364,-13.31836 z m 110.62695,0.002 13.3164,23.06641 -23.0664,13.31836 -13.31641,-23.06641 z m 91.12695,0 23.06641,13.31836 -13.31836,23.06641 -23.06641,-13.31836 z m 110.625,0 13.31836,23.06641 -23.06641,13.31836 -13.31835,-23.06641 z m 91.12891,0 23.0664,13.31836 -13.31836,23.06641 -23.0664,-13.31836 z m 110.625,0 13.31836,23.06641 -23.06641,13.31836 -13.32031,-23.06641 z m 91.12695,0 23.06641,13.31836 -13.31836,23.06641 -23.06446,-13.31836 z m 110.625,0 13.31836,23.06641 -23.06641,13.31836 -13.31836,-23.06641 z m 91.12891,0 23.0664,13.31836 -13.31836,23.06641 -23.0664,-13.31836 z m -650.82422,5.07227 7.46289,12.92187 h -14.92383 z m 403.50781,0 7.46094,12.92187 h -14.92383 z m -511.84375,13.31836 h 14.92188 l -7.46094,12.92187 z m 192.51367,0 h 33.39844 l 16.69922,28.92383 -16.69922,28.92187 h -33.39844 l -16.69922,-28.92187 z m 210.99024,0 h 14.92383 l -7.46094,12.92383 z m 192.51562,0 h 33.39844 l 16.69922,28.92383 -16.69922,28.92187 h -33.39648 l -16.70118,-28.92383 z m -609.87695,7.99805 7.46094,12.92382 h -14.92383 z m 42.63476,0 7.46094,12.92382 h -14.92187 z m 360.8711,0 7.46289,12.92382 h -14.92383 z m 403.50586,0 7.46094,12.92382 h -14.92188 z m -360.8711,0.002 7.46094,12.92187 h -14.92187 z m -539.017574,7.60351 h 26.634766 v 26.63672 H 49.753906 Z m 201.753904,0 h 26.63477 v 26.63672 h -26.63477 z m 201.75196,0 h 26.63671 v 26.63672 h -26.63671 z m 201.7539,0 h 26.63477 v 26.63672 h -26.63477 z m 201.75391,0 h 26.63476 v 26.63672 h -26.63476 z m -764.378908,5.85547 12.923828,7.46289 -12.923828,7.4629 z m 748.378908,0 v 14.92579 l -12.92578,-7.4629 z m -807.013674,0.002 v 14.92187 l -12.923828,-7.46094 z m 201.753904,0 v 14.92383 l -12.92383,-7.4629 z m 58.63477,0 12.92383,7.46093 -12.92383,7.4629 z m 143.11719,0 v 14.92383 l -12.92383,-7.4629 z m 58.63671,0 12.92383,7.46093 -12.92383,7.4629 z m 143.11719,0 v 14.92383 l -12.92383,-7.4629 z m 58.63477,0 12.92383,7.46093 -12.92383,7.4629 z m 201.7539,0 12.92383,7.46093 -12.92383,7.46094 z m -764.23242,15.46093 h 14.92188 l -7.46094,12.92383 z m 42.63477,0 h 14.92383 l -7.4629,12.92383 z m 360.87109,0 h 14.92383 l -7.46289,12.92383 z m 42.63477,0 h 14.92383 l -7.46094,12.92383 z m 360.87109,0 h 14.92188 l -7.46094,12.92579 z m -823.79687,2.92774 13.31835,23.06836 -23.06835,13.31836 -13.318364,-23.06641 z m 91.1289,0 23.06641,13.31836 -13.32031,23.0664 -23.06446,-13.3164 z m 110.62305,0.002 13.31836,23.06641 -23.06641,13.3164 -13.31836,-23.06445 z m 91.1289,0 23.06641,13.31836 -13.31641,23.06641 -23.06835,-13.31836 z m 110.625,0 13.31836,23.06641 -23.06836,13.31836 -13.3164,-23.06836 z m 91.12891,0 23.06641,13.31836 -13.31836,23.06445 -23.06641,-13.3164 z m 110.62305,0 13.31836,23.06641 -23.06446,13.3164 -13.32031,-23.0664 z m 91.1289,0 23.06836,13.31836 -13.32031,23.06445 -23.06641,-13.3164 z m 110.625,0 13.31836,23.06641 -23.0664,13.31836 -13.31836,-23.06836 z m -761.44726,5.07031 7.46094,12.92383 h -14.92188 z m 403.50586,0 7.46094,12.92383 H 559.99219 Z M 55.609375,383.71484 h 14.923828 l -7.460937,12.92383 z m 192.517575,0 h 33.39649 l 16.69922,28.92383 -16.69922,28.92383 h -33.39649 l -16.70117,-28.92383 z m 210.99024,0 h 14.92383 l -7.4629,12.92383 z m 192.51562,0 h 33.39649 l 16.70117,28.92383 -16.70117,28.92383 h -33.39649 l -16.69922,-28.92383 z m 210.99024,0 h 14.92383 l -7.4629,12.92383 z m -820.869144,8 7.462891,12.92383 H 34.292969 Z m 42.634766,0 7.46289,12.92383 H 76.927734 Z m 360.871098,0 7.46289,12.92383 h -14.92383 z m 42.63671,0 7.46094,12.92383 h -14.92383 z m 360.8711,0 7.46094,12.92383 h -14.92383 z m 42.63476,0 7.46094,12.92383 h -14.92383 z m -740.77148,7.60547 h 26.63476 v 26.63477 h -26.63476 z m 201.75391,0 h 26.63476 v 26.63477 h -26.63476 z m 201.75195,0 h 26.63476 v 26.63477 h -26.63476 z m 201.7539,0 h 26.63477 v 26.63477 h -26.63477 z m -562.625,5.85547 12.92383,7.46094 -12.92383,7.46289 z m 143.11915,0 v 14.92383 l -12.92383,-7.46289 z m 260.38671,0 12.92383,7.46094 -12.92383,7.46289 z m 143.11914,0 v 14.92383 l -12.92382,-7.46289 z m -605.25976,0.002 v 14.91993 l -12.92383,-7.46094 z m 260.38867,0 12.92383,7.46094 -12.92383,7.45899 z m 143.11719,0 v 14.91993 l -12.92188,-7.45899 z m 260.38867,0 12.92188,7.45899 -12.92188,7.46094 z m 143.11719,0 v 14.92188 L 928.7207,412.63867 Z M 34.292969,420.63867 h 14.923828 l -7.462891,12.92383 z m 42.634765,0 h 14.921875 l -7.460937,12.92383 z m 360.871096,0 h 14.92383 l -7.46289,12.92383 z m 42.63476,0 h 14.92383 l -7.46094,12.92383 z m 360.87305,0 h 14.92188 l -7.46094,12.92188 z m 42.63281,0 h 14.92383 l -7.46094,12.92383 z m -775.30468,2.92578 23.06835,13.31836 -13.31835,23.06836 -23.068364,-13.31836 z m 110.625,0.002 13.32031,23.06836 -23.06836,13.31835 -13.31836,-23.06835 z m 91.1289,0 23.06641,13.3164 -13.31641,23.06836 -23.06836,-13.31836 z m 110.625,0 13.31836,23.06836 -23.06641,13.3164 -13.31835,-23.06836 z m 91.12891,0 23.0664,13.3164 -13.31836,23.06836 -23.0664,-13.3164 z m 110.625,0 13.31836,23.0664 -23.06641,13.31836 -13.32031,-23.0664 z m 91.1289,0 23.06641,13.3164 -13.32031,23.06836 -23.06641,-13.3164 z m 110.62305,0 13.32031,23.0664 -23.06836,13.31836 -13.31836,-23.06836 z m 91.12891,0 23.0664,13.31836 -13.31836,23.0664 -23.0664,-13.3164 z m -449.07032,5.07031 7.4629,12.92578 h -14.92579 z m -403.505854,0.002 7.460937,12.92383 H 55.609375 Z m 807.011714,0 7.4629,12.92383 H 862.62305 Z M 147.25,441.95508 h 33.39648 l 16.70118,28.92383 -16.69922,28.92382 H 147.25 l -16.69922,-28.92382 z m 210.99023,0 h 14.92383 l -7.46289,12.92383 z m 192.51563,0 h 33.39648 l 16.70118,28.92383 -16.69922,28.92382 h -33.39844 l -16.69922,-28.92382 z m 210.99023,0 h 14.92383 l -7.46094,12.92383 z m -374.72656,8 7.46094,12.92383 h -14.92383 z m 403.50586,0 7.46094,12.92383 h -14.92188 z m -446.14062,0.002 7.46093,12.92188 h -14.92382 z m 403.5039,0 7.46289,12.92188 H 740.42969 Z M 49.753906,457.5625 h 26.634766 v 26.63477 H 49.753906 Z m 201.753904,0 h 26.63477 v 26.63477 h -26.63477 z m 201.75196,0 h 26.63671 v 26.63477 h -26.63671 z m 201.7539,0 h 26.63477 v 26.63477 h -26.63477 z m 201.75391,0 h 26.63476 v 26.63477 h -26.63476 z m -823.013674,5.85547 v 14.92187 l -12.923828,-7.46093 z m 58.634766,0 12.923828,7.46094 -12.923828,7.46289 z m 143.119138,0 v 14.92383 l -12.92383,-7.46289 z m 58.63477,0 12.92187,7.46094 -12.92187,7.46289 z m 201.7539,0 12.92383,7.46094 -12.92383,7.46289 z m 143.11719,0 v 14.92383 l -12.92383,-7.46289 z m 58.63477,0 12.92383,7.46094 -12.92383,7.46289 z m 143.11914,0 v 14.92383 l -12.92578,-7.46289 z m -403.50781,0.002 v 14.91992 l -12.92188,-7.46093 z m 462.14257,0 12.92188,7.45899 -12.92188,7.46093 z m -562.48046,15.45899 h 14.92382 l -7.46289,12.92382 z m 42.63476,0 h 14.92383 l -7.46094,12.92382 z m 360.87109,0 h 14.92383 l -7.46289,12.92382 z m 42.63672,0 h 14.92188 l -7.46094,12.92382 z m -573.55273,2.92773 23.0664,13.31836 -13.3164,23.06836 -23.06641,-13.31836 z m 110.625,0 13.31836,23.06836 -23.06641,13.31641 -13.31836,-23.06641 z m -201.75195,0.002 13.31835,23.06641 -23.06835,13.31836 L 95.318359,495.125 Z m 292.88085,0 23.06641,13.31641 -13.31836,23.06836 -23.0664,-13.31836 z m 110.625,0 13.31836,23.06641 -23.0664,13.31641 -13.31836,-23.06641 z m 91.12891,0 23.06445,13.31641 -13.3164,23.06641 -23.06641,-13.31641 z m 110.62305,0 13.31836,23.06641 -23.06446,13.31836 -13.31836,-23.06836 z m 91.1289,0 23.06641,13.31641 -13.31836,23.06641 -23.06641,-13.31641 z m 110.625,0 13.31836,23.06641 -23.0664,13.31641 -13.31836,-23.06641 z m -559.69531,5.07032 7.46094,12.92382 h -14.92188 z m 403.50586,0 7.46289,12.92382 H 761.74609 Z M 46.373047,500.19727 h 33.398437 l 16.699219,28.92382 -16.701172,28.92383 H 46.373047 L 29.671875,529.12109 Z m 210.990233,0 h 14.92383 l -7.46289,12.92382 z m 192.51563,0 h 33.39648 l 16.70117,28.92382 -16.69922,28.92383 h -33.39843 l -16.69922,-28.92383 z m 210.99023,0 h 14.92383 l -7.46094,12.92382 z m 192.51563,0 h 33.39843 l 16.69922,28.92382 -16.69922,28.92383 h -33.39648 l -16.70117,-28.92383 z m -609.87696,8 7.46094,12.92382 h -14.92383 z m 42.63477,0 7.46094,12.92382 h -14.92188 z m 360.87109,0 7.46094,12.92382 h -14.92188 z m 42.63672,0 7.46094,12.92382 H 682.1875 Z m -539.01953,7.60546 h 26.63476 v 26.63477 h -26.63476 z m 201.75391,0 h 26.63476 v 26.63477 h -26.63476 z m 201.75195,0 h 26.63476 v 26.63477 h -26.63476 z m 201.7539,0 h 26.63477 v 26.63477 h -26.63477 z m -562.625,5.85547 12.92383,7.46289 -12.92383,7.46094 z m 143.11915,0 v 14.92383 l -12.92383,-7.46094 z m 260.38671,0 12.92383,7.46289 -12.92383,7.46094 z m 143.11914,0 v 14.92383 l -12.92187,-7.46094 z m 201.75196,0 v 14.92383 l -12.92383,-7.46289 z m -807.01172,0.002 v 14.91992 l -12.92383,-7.45899 z m 260.38867,0 12.92188,7.45898 -12.92188,7.46094 z m 143.11719,0 v 14.91992 l -12.92188,-7.46094 z m 260.38867,0 12.92188,7.46093 -12.92188,7.46094 z m -562.47851,15.46093 h 14.92187 l -7.46289,12.92188 z m 42.63476,0 h 14.92188 l -7.46094,12.92188 z m 360.87109,0 h 14.92188 l -7.46094,12.92188 z m 42.63477,0 h 14.92383 l -7.46289,12.92188 z m -573.55273,2.92579 23.06835,13.31835 -13.31835,23.06836 -23.068364,-13.31836 z m 110.62695,0.002 13.31836,23.06836 -23.06836,13.3164 -13.31836,-23.0664 z m 91.12695,0 23.06836,13.31836 -13.32031,23.0664 -23.06641,-13.31836 z m 110.625,0 13.31836,23.06836 -23.06641,13.3164 -13.31835,-23.06836 z m 91.12891,0 23.0664,13.3164 -13.31836,23.06836 -23.0664,-13.3164 z m 110.625,0 13.31836,23.0664 -23.06641,13.31836 -13.31836,-23.06836 z m 91.12695,0 23.06836,13.3164 -13.32031,23.06836 -23.06446,-13.3164 z m 110.625,0 13.32031,23.0664 -23.06836,13.31836 -13.31836,-23.0664 z m 91.12891,0 23.0664,13.31836 -13.31836,23.0664 -23.0664,-13.3164 z m -650.82422,5.07226 7.46289,12.92383 h -14.92383 z m 403.50781,0 7.46094,12.92383 h -14.92383 z m -511.8457,13.31641 h 14.92383 l -7.46289,12.92383 z m 192.51758,0 h 33.39648 l 16.69922,28.92383 -16.69922,28.92383 h -33.39648 l -16.70118,-28.92383 z m 210.98828,0 h 14.92383 l -7.46094,12.92383 z m 192.51758,0 h 33.39648 l 16.69922,28.92383 -16.69922,28.92383 h -33.39648 l -16.70118,-28.92383 z m -609.87891,8 7.46094,12.92383 h -14.92383 z m 42.63476,0 7.46094,12.92383 h -14.92187 z m 360.8711,0 7.46289,12.92383 h -14.92383 z m 42.63476,0 7.4629,12.92383 h -14.92383 z m 360.8711,0 7.46094,12.92383 h -14.92188 z m -899.888674,7.60742 h 26.634766 v 26.63477 H 49.753906 Z m 201.753904,0 h 26.63477 v 26.63477 h -26.63477 z m 201.75196,0 h 26.63671 v 26.63477 h -26.63671 z m 201.7539,0 h 26.63477 v 26.63477 h -26.63477 z m 201.75391,0 h 26.63476 v 26.63477 h -26.63476 z m -764.378908,5.85547 12.923828,7.46094 -12.923828,7.46289 z m 143.119138,0 v 14.92383 l -12.92383,-7.46094 z m 58.63477,0 12.92383,7.46289 -12.92383,7.46094 z m 201.7539,0 12.92188,7.46094 -12.92188,7.46094 z m 143.11719,0 v 14.92383 l -12.92383,-7.46289 z m 58.63477,0 12.92383,7.46289 -12.92383,7.46094 z m 143.11914,0 v 14.92383 l -12.92383,-7.46094 z m -807.013674,0.002 v 14.91993 l -12.921875,-7.45899 z m 403.505864,0 v 14.91993 l -12.92188,-7.45899 z m 462.14257,0 12.92188,7.46094 -12.92188,7.45899 z m -764.23242,15.45899 h 14.92188 l -7.46094,12.92383 z m 42.63477,0 h 14.92383 l -7.4629,12.92383 z m 360.87109,0 h 14.92383 l -7.46289,12.92383 z m 42.63477,0 h 14.92383 l -7.4629,12.92383 z m 360.87109,0 h 14.92188 l -7.46094,12.92383 z m -823.79687,2.92773 13.31835,23.06836 -23.06835,13.31641 -13.318364,-23.06445 z m 494.63281,0 23.0664,13.31836 -13.3164,23.06641 -23.06836,-13.31641 z m -403.50586,0.002 23.0664,13.3164 -13.31835,23.06641 -23.06641,-13.31836 z m 110.625,0 13.32031,23.06445 -23.06836,13.31836 -13.3164,-23.06641 z m 91.1289,0 23.06641,13.3164 -13.31836,23.06641 -23.0664,-13.31641 z m 110.625,0 13.31836,23.06445 -23.0664,13.31836 -13.31836,-23.06641 z m 201.75196,0 13.32031,23.0664 -23.06641,13.31641 -13.31836,-23.06641 z m 91.1289,0 23.06641,13.3164 -13.31836,23.06641 -23.06641,-13.31641 z m 110.625,0 13.31836,23.0664 -23.0664,13.31836 -13.31836,-23.06836 z m -761.44921,5.07031 7.46289,12.92383 h -14.92383 z m 403.50781,0 7.46094,12.92383 H 559.99414 Z M 55.611328,616.67969 h 14.921875 l -7.460937,12.92383 z m 192.513672,0 h 33.39844 l 16.69922,28.92187 -16.69922,28.92383 H 248.125 l -16.69922,-28.92383 z m 210.99023,0 h 14.92579 l -7.4629,12.92578 z m 192.51758,0 h 33.39844 l 16.69922,28.92187 -16.69922,28.92383 h -33.39844 l -16.69922,-28.92383 z m 210.99024,0 h 14.92187 l -7.46094,12.92383 z m -820.869144,8 7.462891,12.92383 H 34.292969 Z m 42.634766,0 7.46289,12.92383 H 76.927734 Z m 360.871098,0 7.46289,12.92383 h -14.92383 z m 42.63671,0 7.46094,12.92383 h -14.92383 z m 360.86914,0 7.4629,12.92383 h -14.92383 z m 42.63672,0 7.46094,12.92383 h -14.92383 z m -740.77148,7.60547 h 26.63476 v 26.63476 h -26.63476 z m 201.75391,0 h 26.63476 v 26.63476 h -26.63476 z m 201.75195,0 h 26.63476 v 26.63476 h -26.63476 z m 201.7539,0 h 26.63477 v 26.63476 h -26.63477 z m -562.625,5.85546 12.92383,7.46094 -12.92383,7.46289 z m 143.11915,0 v 14.92383 l -12.92383,-7.46289 z m 201.75195,0 v 14.92188 l -12.92188,-7.46094 z m 58.63476,0 12.92383,7.4629 -12.92383,7.46093 z m 143.11914,0 v 14.92383 l -12.92382,-7.46289 z m -605.25976,0.002 v 14.92187 l -12.92383,-7.46093 z m 260.38867,0 12.92188,7.45898 -12.92188,7.46094 z m 403.50586,0 12.92188,7.45898 -12.92188,7.46094 z m 143.11719,0 v 14.92187 l -12.92188,-7.46097 z m -907.349611,15.4609 h 14.923828 l -7.462891,12.92382 z m 42.634765,0 h 14.923828 l -7.46289,12.92382 z m 360.871096,0 h 14.92383 l -7.46289,12.92382 z m 42.63476,0 h 14.92383 l -7.46094,12.92382 z m 360.87305,0 h 14.92188 l -7.4629,12.92187 z m 42.63281,0 h 14.92383 l -7.46094,12.92382 z m -775.30468,2.92773 23.06835,13.31641 -13.31835,23.06836 -23.068364,-13.31836 z m 110.625,0 13.31835,23.06641 -23.06445,13.31836 -13.32031,-23.06836 z m 91.1289,0 23.06836,13.31836 -13.32031,23.06641 -23.06641,-13.31836 z m 110.625,0 13.31836,23.06641 -23.06641,13.31836 -13.31835,-23.06836 z m 91.12891,0 23.0664,13.31641 -13.31836,23.06836 -23.0664,-13.31836 z m 110.625,0 13.31836,23.06641 -23.06641,13.31836 -13.32031,-23.06641 z m 91.1289,0 23.06641,13.31641 -13.32031,23.06836 -23.06446,-13.31836 z m 110.62305,0 13.31836,23.06641 -23.06641,13.31836 -13.31836,-23.06836 z m 91.12891,0 23.0664,13.31641 -13.31836,23.06836 -23.0664,-13.31836 z m -852.576174,5.07227 7.458984,12.92187 H 55.611328 Z m 403.505854,0 7.46094,12.92187 h -14.92187 z m 403.50586,0 7.46094,12.92187 H 862.62305 Z M 147.25,674.91992 h 33.39648 l 16.70118,28.92383 -16.70118,28.92383 H 147.25 l -16.69922,-28.92383 z m 210.99023,0 h 14.92188 l -7.46094,12.92383 z m 192.51563,0 h 33.39648 l 16.70118,28.92383 -16.70118,28.92383 h -33.39648 l -16.69922,-28.92383 z m 210.99023,0 h 14.92383 l -7.46094,12.92383 z m -374.72656,8 7.46094,12.92383 h -14.92383 z m 403.50586,0 7.46094,12.92383 h -14.92188 z m -446.14062,0.002 7.46093,12.92187 h -14.92187 z m 403.50585,0 7.46094,12.92187 h -14.92187 z m -698.136714,7.60351 h 26.634766 v 26.63672 H 49.753906 Z m 201.753904,0 h 26.63477 v 26.63672 h -26.63477 z m 201.75196,0 h 26.63671 v 26.63672 h -26.63671 z m 201.7539,0 h 26.63477 v 26.63672 h -26.63477 z m 201.75391,0 h 26.63476 v 26.63672 h -26.63476 z m -764.378908,5.85547 12.925778,7.46289 -12.925778,7.46289 z m 143.119138,0 v 14.92578 l -12.92383,-7.46289 z m 605.25977,0 v 14.92578 l -12.92578,-7.46289 z m -807.013674,0.002 v 14.92188 l -12.921875,-7.46094 z m 260.388674,0 12.92383,7.46094 -12.92383,7.46289 z m 143.11719,0 v 14.92188 l -12.92188,-7.46094 z m 58.63671,0 12.92188,7.46094 -12.92188,7.46094 z m 143.11719,0 v 14.92383 l -12.92383,-7.46289 z m 58.63477,0 12.92383,7.46094 -12.92383,7.46289 z m 201.7539,0 12.92383,7.46094 -12.92383,7.46094 z m -562.48046,15.46094 h 14.92382 l -7.46093,12.92187 z m 42.63476,0 h 14.92383 l -7.46094,12.92383 z m 360.87109,0 h 14.92383 l -7.46094,12.92187 z m 42.63672,0 h 14.92188 l -7.46094,12.92383 z m -573.55273,2.92773 23.0664,13.31836 -13.31835,23.06641 -23.06641,-13.31836 z m 605.25976,0 23.06641,13.31836 -13.31836,23.06641 -23.06641,-13.31836 z m -696.38671,0.002 13.31835,23.0664 -23.06835,13.31836 -13.316411,-23.06836 z m 201.75195,0 13.31836,23.06445 -23.06641,13.31836 -13.3164,-23.06641 z m 91.1289,0 23.06641,13.3164 -13.31836,23.06641 -23.0664,-13.31836 z m 110.625,0 13.31836,23.0664 -23.0664,13.31641 -13.31836,-23.06641 z m 91.12891,0 23.06445,13.3164 -13.3164,23.06641 -23.06836,-13.31836 z m 110.62305,0 13.32031,23.06445 -23.06641,13.31836 -13.31836,-23.06641 z m 201.7539,0 13.31836,23.06445 -23.0664,13.31836 -13.31836,-23.06641 z m -559.69531,5.07031 7.46289,12.92383 h -14.92383 z m 403.50586,0 7.46289,12.92383 H 761.74609 Z M 46.373047,733.16211 h 33.398437 l 16.699219,28.92383 -16.699219,28.92187 H 46.373047 L 29.673828,762.08594 Z m 210.990233,0 h 14.92383 l -7.46289,12.92187 z m 192.51563,0 h 33.39843 l 16.69922,28.92383 -16.69922,28.92187 h -33.39843 l -16.69922,-28.92187 z m 210.99023,0 h 14.92383 l -7.46094,12.92187 z m 192.51563,0 h 33.39843 l 16.69922,28.92383 -16.69922,28.92187 h -33.39843 l -16.69922,-28.92187 z m -609.87891,8 7.46289,12.92383 h -14.92383 z m 42.63672,0 7.46094,12.92383 h -14.92188 z m 360.87109,0 7.46094,12.92383 h -14.92188 z m 42.63672,0 7.46094,12.92383 H 682.1875 Z m -539.01953,7.60547 h 26.63476 v 26.63476 h -26.63476 z m 201.75391,0 h 26.63476 v 26.63476 h -26.63476 z m 201.75195,0 h 26.63476 v 26.63476 h -26.63476 z m 201.7539,0 h 26.63477 v 26.63476 h -26.63477 z m -562.625,5.85547 12.92383,7.46289 -12.92383,7.46094 z m 143.11915,0 v 14.92383 l -12.92383,-7.4629 z m 58.63476,0 12.92383,7.46289 -12.92383,7.46094 z m 201.75195,0 12.92383,7.46289 -12.92383,7.46094 z m 143.11914,0 v 14.92383 l -12.92187,-7.46094 z m 58.63477,0 12.92188,7.46093 -12.92188,7.46094 z m 143.11719,0 v 14.92383 l -12.92383,-7.4629 z m -807.01172,0.002 v 14.91992 l -12.92383,-7.45898 z m 403.50586,0 v 14.91992 l -12.92188,-7.45898 z m -302.08984,15.46094 h 14.91992 l -7.45899,12.92187 z m 42.63671,0 h 14.91993 l -7.46094,12.92187 z m 360.86914,0 h 14.91993 l -7.45899,12.92187 z m 42.63672,0 h 14.91993 l -7.46094,12.92187 z m -573.55468,2.92578 23.06835,13.31836 -13.31835,23.0664 -23.066411,-13.3164 z m 110.625,0.002 13.32031,23.06641 -23.06836,13.31836 -13.31836,-23.06641 z m 91.1289,0 23.06641,13.31641 -13.31836,23.0664 -23.06641,-13.3164 z m 110.625,0 13.31836,23.06641 -23.06641,13.3164 -13.31835,-23.06445 z m 91.12891,0 23.0664,13.31641 -13.31836,23.0664 -23.0664,-13.3164 z m 110.625,0 13.31836,23.06641 -23.06641,13.3164 -13.32031,-23.06445 z m 91.12695,0 23.06836,13.31641 -13.32031,23.0664 -23.06641,-13.3164 z m 110.625,0 13.31836,23.06641 -23.06641,13.3164 -13.31836,-23.0664 z m 91.12891,0 23.0664,13.31836 -13.31836,23.06445 -23.0664,-13.3164 z m -650.82422,5.07227 7.46094,12.92187 h -14.91993 z m 403.50781,0 7.45899,12.92187 h -14.91993 z m -511.8457,13.3164 h 14.92383 l -7.46094,12.92383 z m 192.51758,0 h 33.39648 l 16.69922,28.92383 -16.69922,28.92188 h -33.39844 l -16.69922,-28.92188 z m 210.98828,0 h 14.92383 l -7.46094,12.92383 z m 192.51758,0 h 33.39648 l 16.69922,28.92383 -16.69922,28.92188 h -33.39844 l -16.69922,-28.92188 z m -609.87891,8 7.46094,12.92383 h -14.92188 z m 42.63476,0 7.4629,12.92383 h -14.92383 z m 360.8711,0 7.46289,12.92383 h -14.92383 z m 42.63672,0 7.46094,12.92383 h -14.92383 z m 360.86914,0 7.46094,12.92383 h -14.92188 z m -899.888674,7.60547 h 26.634766 v 26.63672 H 49.753906 Z m 201.753904,0 h 26.63477 v 26.63672 h -26.63477 z m 201.75196,0 h 26.63671 v 26.63672 h -26.63671 z m 201.7539,0 h 26.63477 v 26.63672 h -26.63477 z m 201.75391,0 h 26.63476 v 26.63672 h -26.63476 z m -764.378908,5.85547 12.923828,7.46289 -12.923828,7.46094 z m 143.119138,0 v 14.92578 l -12.92383,-7.46289 z m 605.25977,0 v 14.92383 l -12.92383,-7.46094 z m -807.013674,0.002 v 14.92188 l -12.921875,-7.46094 z m 260.388674,0 12.92383,7.46094 -12.92383,7.46094 z m 143.11719,0 v 14.92188 l -12.92188,-7.46094 z m 58.63671,0 12.92188,7.46094 -12.92188,7.46094 z m 143.11719,0 v 14.92188 l -12.92383,-7.46094 z m 58.63477,0 12.92383,7.46094 -12.92383,7.46094 z m 201.7539,0 12.92188,7.46094 -12.92188,7.46094 z m -764.23242,15.46094 h 14.92188 l -7.46094,12.92188 z m 42.63477,0 h 14.92187 l -7.46094,12.92188 z m 360.87109,0 h 14.92383 L 546.13672,841.25 Z m 42.63477,0 h 14.92187 L 588.77148,841.25 Z m 360.87109,0 h 14.92188 L 949.64258,841.25 Z m -823.79687,2.92774 13.31835,23.0664 -23.06835,13.31836 -13.318364,-23.0664 z m 91.12695,0 23.0664,13.31836 -13.31835,23.0664 -23.06641,-13.31836 z m 110.625,0 13.31836,23.0664 -23.06641,13.31836 -13.31836,-23.0664 z m 91.1289,0 23.06641,13.31836 -13.31836,23.0664 -23.0664,-13.31836 z m 110.625,0 13.31836,23.0664 -23.0664,13.31836 -13.31836,-23.0664 z m 91.12891,0 23.06641,13.31836 -13.31836,23.0664 -23.06641,-13.31836 z m 110.62305,0 13.31836,23.0664 -23.06446,13.31836 -13.31836,-23.0664 z m 91.1289,0 23.06836,13.31836 -13.31836,23.0664 -23.06836,-13.31836 z m 110.625,0 13.31836,23.0664 -23.0664,13.31836 -13.31836,-23.0664 z m -761.44726,5.07226 7.45898,12.92188 h -14.91992 z m 403.50586,0 7.45898,12.92188 H 559.99414 Z M 55.611328,849.64453 h 14.921875 l -7.460937,12.92188 z m 192.513672,0 h 33.39844 l 16.69922,28.92188 -16.69922,28.92382 H 248.125 l -16.69922,-28.92382 z m 210.99219,0 h 14.92187 l -7.46094,12.92188 z m 192.51562,0 h 33.39844 l 16.69922,28.92188 -16.69922,28.92382 h -33.39844 l -16.69922,-28.92382 z m 210.99024,0 h 14.92187 l -7.46094,12.92188 z m -820.869144,7.99805 7.462891,12.92383 H 34.292969 Z m 403.505864,0 7.46289,12.92383 h -14.92383 z m 42.63671,0 7.46094,12.92383 h -14.92383 z m 403.50586,0 7.46094,12.92383 h -14.92383 z m -807.013668,0.002 7.460937,12.92188 H 76.927734 Z m 764.378908,0 7.46094,12.92188 h -14.92188 z m -698.13672,7.60352 h 26.63476 v 26.63672 h -26.63476 z m 201.75391,0 h 26.63476 v 26.63672 h -26.63476 z m 201.75195,0 h 26.63476 v 26.63672 h -26.63476 z m 201.7539,0 h 26.63477 v 26.63672 h -26.63477 z m -419.50585,5.85547 v 14.92578 l -12.92579,-7.46289 z m 260.38671,0 12.92579,7.46289 -12.92579,7.46289 z m -462.14062,0.002 v 14.92383 l -12.92383,-7.46289 z m 58.63476,0 12.92383,7.46094 -12.92383,7.46289 z m 201.75391,0 12.92383,7.46094 -12.92383,7.46093 z m 143.11719,0 v 14.92187 l -12.92383,-7.46093 z m 201.7539,0 v 14.92383 l -12.92382,-7.46289 z m 58.63477,0 12.92383,7.46094 -12.92383,7.46093 z m 143.11719,0 v 14.92383 l -12.92383,-7.46289 z M 34.292969,886.56641 h 14.923828 l -7.462891,12.92578 z m 42.634765,0 h 14.923828 l -7.46289,12.92382 z m 360.871096,0 h 14.92383 l -7.46289,12.92578 z m 42.63476,0 h 14.92383 l -7.46094,12.92578 z m 360.8711,0 h 14.92383 l -7.46094,12.92382 z m 42.63476,0 h 14.92383 l -7.46094,12.92382 z m -775.30468,2.92773 23.06835,13.31836 -13.31835,23.06641 -23.066411,-13.31641 z m 312.38085,0 13.31641,23.06836 -23.06641,13.31641 -13.31835,-23.06641 z m 91.125,0 23.06836,13.31836 -13.31836,23.06641 -23.0664,-13.31641 z m 312.38086,0 13.31836,23.06836 -23.06836,13.31836 -13.31836,-23.06836 z m -605.26171,0.002 13.31835,23.06641 -23.0664,13.31641 -13.31836,-23.06446 z m 91.1289,0 23.06836,13.31836 -13.31836,23.06641 -23.06836,-13.31836 z m 312.37891,0 13.3164,23.06641 -23.0664,13.31641 -13.31836,-23.06446 z m 91.1289,0 23.06641,13.31641 -13.32031,23.06836 -23.06446,-13.31836 z m 201.75196,0 23.0664,13.31641 -13.31836,23.06641 -23.0664,-13.31641 z m -852.576174,5.07032 7.460937,12.92382 H 55.611328 Z m 403.505854,0 7.46094,12.92382 h -14.92187 z m 403.50586,0 7.46094,12.92382 h -14.92187 z m -511.84375,13.31836 h 14.92383 l -7.46289,12.92382 z m 403.50586,0 h 14.92383 l -7.46094,12.92382 z m -374.72656,8 7.46094,12.92382 h -14.92383 z m 360.87109,0 7.46094,12.92382 h -14.92383 z m 42.63477,0 7.46094,12.92382 h -14.92188 z m -446.14062,0.002 7.46093,12.92187 h -14.92382 z m -294.630864,7.60351 h 26.634766 v 26.63672 H 49.753906 Z m 201.753904,0 h 26.63477 v 26.63672 h -26.63477 z m 201.75196,0 h 26.63671 v 26.63672 h -26.63671 z m 201.7539,0 h 26.63477 v 26.63672 h -26.63477 z m 201.75391,0 h 26.63476 v 26.63672 h -26.63476 z m -764.378908,5.85547 12.923828,7.46289 -12.923828,7.46289 z m 143.119138,0 v 14.92578 l -12.92383,-7.46289 z m 58.63477,0 12.92383,7.46289 -12.92383,7.46094 z m 344.87109,0 v 14.92383 l -12.92383,-7.46094 z m 58.63477,0 12.92383,7.46289 -12.92383,7.46094 z m -663.894534,0.002 v 14.92187 l -12.921875,-7.46094 z m 403.505864,0 v 14.92187 l -12.92383,-7.46094 z m 58.63671,0 12.92188,7.46093 -12.92188,7.46094 z m 344.8711,0 v 14.92187 l -12.92383,-7.46094 z m 58.63476,0 12.92188,7.46093 -12.92188,7.46094 z m -562.48046,15.46093 h 14.92382 l -7.46289,12.92383 z m 42.63476,0 h 14.92383 l -7.46289,12.92383 z m 360.87109,0 h 14.92383 l -7.46094,12.92383 z m 42.63672,0 h 14.92188 l -7.46094,12.92383 z m -525.69922,21.31836 h 14.91993 l -7.46094,12.92188 z m 403.50586,0 h 14.91993 l -7.45899,12.92188 z"
     id="path835" />
</svg>
