<?xml version="1.0" encoding="UTF-8" standalone="no"?>
<svg
   xmlns:dc="http://purl.org/dc/elements/1.1/"
   xmlns:cc="http://creativecommons.org/ns#"
   xmlns:rdf="http://www.w3.org/1999/02/22-rdf-syntax-ns#"
   xmlns:svg="http://www.w3.org/2000/svg"
   xmlns="http://www.w3.org/2000/svg"
   xmlns:sodipodi="http://sodipodi.sourceforge.net/DTD/sodipodi-0.dtd"
   xmlns:inkscape="http://www.inkscape.org/namespaces/inkscape"
   inkscape:version="1.0.1 (3bc2e813f5, 2020-09-07)"
   sodipodi:docname="5-uniform_229.svg"
   id="c:\kuniform\5u\5-uniform_229.svg"
   height="978.98517"
   width="1000.0"
   version="1.0">
  <metadata
     id="metadata5265">
    <rdf:RDF>
      <cc:Work
         rdf:about="">
        <dc:format>image/svg+xml</dc:format>
        <dc:type
           rdf:resource="http://purl.org/dc/dcmitype/StillImage" />
        <dc:title />
      </cc:Work>
    </rdf:RDF>
  </metadata>
  <defs
     id="defs5263" />
  <sodipodi:namedview
     inkscape:current-layer="c:\kuniform\5u\5-uniform_229.svg"
     inkscape:window-maximized="1"
     inkscape:window-y="-9"
     inkscape:window-x="-9"
     inkscape:cy="543.1921"
     inkscape:cx="379.89656"
     inkscape:zoom="0.65463671"
     showgrid="false"
     id="namedview5261"
     inkscape:window-height="1001"
     inkscape:window-width="1920"
     inkscape:pageshadow="2"
     inkscape:pageopacity="0"
     guidetolerance="10"
     gridtolerance="10"
     objecttolerance="10"
     borderopacity="1"
     inkscape:document-rotation="0"
     bordercolor="#666666"
     pagecolor="#ffffff" />
  <!-- X Coordinate transform: fx(x)=(x+80.75)*0.86095566-->
  <!-- Y Coordinate transform: fy(y)=(1068.5457-y)*0.86095566 -->
  <path
     style="color:#000000;font-style:normal;font-variant:normal;font-weight:normal;font-stretch:normal;font-size:medium;line-height:normal;font-family:sans-serif;font-variant-ligatures:normal;font-variant-position:normal;font-variant-caps:normal;font-variant-numeric:normal;font-variant-alternates:normal;font-variant-east-asian:normal;font-feature-settings:normal;font-variation-settings:normal;text-indent:0;text-align:start;text-decoration:none;text-decoration-line:none;text-decoration-style:solid;text-decoration-color:#000000;letter-spacing:normal;word-spacing:normal;text-transform:none;writing-mode:lr-tb;direction:ltr;text-orientation:mixed;dominant-baseline:auto;baseline-shift:baseline;text-anchor:start;white-space:normal;shape-padding:0;shape-margin:0;inline-size:0;clip-rule:nonzero;display:inline;overflow:visible;visibility:visible;isolation:auto;mix-blend-mode:normal;color-interpolation:sRGB;color-interpolation-filters:linearRGB;solid-color:#000000;solid-opacity:1;vector-effect:none;fill:#000000;fill-opacity:1;fill-rule:nonzero;stroke:none;stroke-width:16;stroke-linecap:butt;stroke-linejoin:miter;stroke-miterlimit:4;stroke-dasharray:none;stroke-dashoffset:0;stroke-opacity:1;color-rendering:auto;image-rendering:auto;shape-rendering:auto;text-rendering:auto;enable-background:accumulate;stop-color:#000000"
     d="m 134.09375,-11.154297 -6.92773,12.00000012 -19.21485,33.28124988 -2.30859,4 -6.929689,12 -7.666016,13.279297 -0.927734,1.607422 -3.691407,6.392578 H 61.853516 52.617188 l -4.619141,-8 -14.595703,-25.279297 -6.927735,-12 -6.929687,12 L 0.33203125,71.40625 H -8.90625 l 4.6191406,8 -4.6191406,8 h 9.23632812 0.001953 l 4.65039068,8.056641 7.6347662,13.224609 4.61914,8 -4.61914,8 h 9.236328 0.002 l 4.61914,8 7.667969,13.28125 4.617188,7.99805 v 0.002 l -4.619141,8 -11.802734,20.44141 -0.482422,0.83789 h -9.238281 l 4.617187,8 -4.404297,7.63086 -0.21289,0.36914 -12.28520375,21.2812 H 0.33007812 -8.90625 l 4.6191406,8 -4.6191406,8 h 9.23632812 0.001953 L 4.9824219,244.58594 17.236328,265.81055 0.33203125,295.08984 H -8.90625 l 4.6191406,8 -4.6191406,8 h 9.23632812 0.001953 l 12.28515688,21.28125 4.61914,8 -4.61914,8 h 9.236328 0.002 l 4.61914,8 12.285157,21.27735 v 0.002 l -4.619141,8 -7.666016,13.28125 -4.61914,8 h -0.002 -9.236328 l 4.61914,8 v 0.002 l -4.61914,7.99805 -3.8320319,6.64063 -8.45312498,14.64062 H -8.90625 l 4.6191406,8 -4.6191406,8 h 9.23632812 0.001953 L 17.236328,489.49219 0.33203125,518.77344 H -8.90625 l 4.6191406,8 -4.6191406,8 h 9.23632812 0.001953 l 12.28515688,21.28125 4.61914,8 -4.61914,8 h 9.236328 0.002 l 4.61914,8 12.285157,21.27734 v 0.002 l -4.619141,8 -7.666016,13.28125 -4.61914,8 h -0.002 -9.236328 l 4.61914,8 -4.61914,8 -3.8320319,6.63868 -8.45312498,14.64062 H -8.90625 l 4.6191406,8 -4.6191406,8 h 9.23632812 0.001953 l 2.55664068,4.43164 14.3476562,24.84961 -16.90429688,29.2793 H -8.90625 l 4.6191406,8 -4.6191406,8 h 9.23828125 l 8.45312495,14.64062 3.8320318,6.64063 4.61914,8 -4.61914,8 h 9.236328 0.002 l 4.61914,8 3.833985,6.64062 3.832031,6.64063 4.619141,8 v 0.002 l -4.617188,7.99805 -7.667969,13.2793 -4.61914,8 h -9.238281 l 4.61914,8 -4.355469,7.54492 -0.263671,0.45508 -12.28515675,21.28124 H -8.90625 l 4.6191406,8 -4.6191406,8 h 9.23632812 0.001953 l 19.21289088,33.2793 6.929687,12 6.927735,-12 14.595703,-25.2793 4.619141,-8 h 9.236328 15.335937 9.236328 0.002 l 4.619141,8 12.285158,21.2793 -4.619142,8 h 9.238282 l 4.61914,8 4.61914,-8 h 33.8086 l 4.61914,8 4.61914,-8 h 9.23828 l -4.61914,-8 12.28711,-21.2793 0.73047,-1.26562 3.88672,-6.73438 h 0.002 9.23633 15.33398 9.23828 l 4.61914,8 7.66797,13.2793 4.61719,7.99805 v 0.002 0.002 l -4.61719,7.99804 h 9.23633 l 4.61914,8 14.5957,25.28125 6.92774,12 6.92773,-12 h 0.002 l 14.5957,-25.28125 4.61719,-8 h 0.002 9.23633 l -4.61914,-8 4.61914,-8 12.28515,-21.2793 h 0.002 9.23632 15.33594 9.23828 l 8.45313,14.64063 3.83203,6.63867 2.95508,5.11914 1.66406,2.88086 -4.61914,8 h 9.23828 l 4.61914,8 12.28516,21.27735 2.31054,4.0039 6.92774,12 6.92773,-12 14.59571,-25.28125 4.61718,-8 h 0.002 9.23633 l -4.61915,-8 4.61915,-8 7.66796,-13.2793 4.61915,-8 h 9.23828 15.33398 9.23633 0.002 l 4.61914,8 12.28516,21.2793 -4.61914,8 h 9.23828 l 4.61914,8 4.61914,-8 h 33.81055 l 4.61914,8 4.61719,-8 h 0.002 9.23633 l -4.61914,-8 12.28711,-21.2793 0.73046,-1.26562 3.88672,-6.73438 h 0.002 9.23632 15.33399 H 603 l 4.61914,8 7.66797,13.2793 4.61914,8.00196 -4.61914,7.99804 h 9.23633 l 4.61914,8 14.59765,25.28125 6.92774,12 6.92773,-12 14.59571,-25.28125 4.61718,-8 h 0.002 9.23633 l -4.61915,-8 4.61915,-8 12.2871,-21.2793 h 9.23829 15.33398 9.23828 l 8.45313,14.64063 3.83203,6.63867 4.61914,8 -4.61914,8 h 9.23828 l 4.61914,8 14.5957,25.28125 6.92774,12 6.92773,-12 h 0.002 l 14.59375,-25.28125 4.61914,-8 h 9.23633 l -4.61718,-7.99804 v -0.002 -0.002 l 4.61718,-7.99805 7.66797,-13.2793 1.18555,-2.05273 3.43359,-5.94727 h 9.23828 15.33399 9.23828 l 4.61914,8 12.28516,21.28126 -4.61719,7.99804 h 9.23633 l 4.61914,8 4.61914,-8 h 33.81055 l 4.61914,8 4.61914,-8 h 9.23632 l -4.61718,-8 6.57617,-11.39062 5.70898,-9.88868 4.61914,-8 h 9.23633 29.19141 13.85548 l -6.9277,-12 -14.5938,-25.28124 -4.61914,-8 3.94336,-6.82813 0.67578,-1.17187 12.28516,-21.2793 h 9.23634 l -4.6172,-7.99805 v -0.002 -0.002 l 4.6172,-7.99804 h -9.23634 l -12.28516,-21.28125 -4.61914,-8 2.13867,-3.70313 2.48047,-4.29687 14.5938,-25.28125 6.9277,-12 h -13.85548 -38.42774 l -12.28711,-21.2793 -4.61718,-8 4.65039,-8.05664 7.63476,-13.22461 0.26367,-0.45508 4.35547,-7.54492 h 9.23829 29.18945 13.85548 l -6.9277,-12 -14.5938,-25.2793 -4.61914,-8 4.35547,-7.54492 0.26367,-0.45508 12.28516,-21.28125 h 9.23634 l -4.6172,-7.99804 v -0.002 -0.002 l 4.6172,-7.99805 h -9.23634 l -12.28516,-21.27929 -4.61914,-8 2.37695,-4.11719 2.24219,-3.88281 14.5938,-25.28125 6.9277,-12 h -13.85548 -38.42774 l -4.31445,-7.47266 -0.30469,-0.52734 -7.66797,-13.28125 -4.61718,-8 8.45117,-14.64063 3.83398,-6.64062 4.61719,-7.99805 h 0.002 9.23829 29.18945 13.85543 l -6.9277,-12 -14.59375,-25.28125 -4.61914,-8 v -0.002 l 4.61914,-7.99805 12.28516,-21.28125 h 9.23629 l -4.6172,-7.99805 v -0.002 -0.002 l 4.6172,-7.99805 h -9.23629 l -12.28516,-21.2793 -4.61914,-8 2.37695,-4.11718 2.24219,-3.88282 14.59375,-25.28125 6.9277,-12 h -13.85543 -38.42774 l -4.61914,-8 -7.66797,-13.27929 -4.61718,-8 8.45117,-14.64063 3.83398,-6.64062 4.61914,-8 h 9.23829 29.18945 13.85543 l -6.9277,-12 -14.59375,-25.28125 -4.61914,-7.99805 v -0.002 l 4.61914,-8 12.28516,-21.2793 h 9.23629 l -4.6172,-7.99805 v -0.002 -0.002 l 4.6172,-7.99805 h -9.23629 l -12.28516,-21.28125 -0.375,-0.64844 -4.24414,-7.35156 v -0.002 l 4.61914,-7.99805 14.59375,-25.28125 6.9277,-12 h -13.85543 -38.42774 l -4.61914,-8 -7.66797,-13.279297 -6.92773,-12 -2.30859,-4 -19.21485,-33.28124988 h -0.002 L 908.95312,-11.154297 902.02539,0.84570312 891.26367,19.486328 l -8.45312,14.640625 -2.3086,4 -6.92773,12 -7.66797,13.279297 -4.61914,8 h -24.57227 -9.23828 l -4.61914,-8 -3.83398,-6.640625 -3.83399,-6.638672 -4.61718,-8.001953 4.61718,-7.998047 h -9.23633 l -1.93554,-3.351562 -2.6836,-4.648438 -14.59375,-25.28124988 h -0.002 L 779.8105,-11.154297 772.88276,0.84570312 758.28706,26.126953 l -4.61914,8 h -9.23828 l 4.61914,8 v 0.002 l -4.61914,7.998047 -7.66602,13.279297 -1.18555,2.052734 -3.43359,5.947266 h -9.23828 -15.33398 -9.23829 l -4.61914,-8 L 686.04683,50.127 681.42964,42.125047 686.04683,34.127 h -9.23633 l -4.61914,-8 L 657.5957,0.84570312 650.66797,-11.154297 643.74023,0.84570312 h -0.002 l -14.5957,25.28124988 -4.61719,8 h -0.002 -9.23633 l 4.61914,8 -4.61914,8 -7.66797,13.279297 -4.61914,8 h -9.23828 -24.57031 l -2.33594,-4.046875 -2.2832,-3.953125 -7.66797,-13.279297 -6.92774,-12 -2.31054,-4 -19.2129,-33.28124988 h -0.002 L 521.52344,-11.154297 514.5957,0.84570312 503.83398,19.486328 l -8.45312,14.640625 -2.30859,4 -6.92774,12 -3.83594,6.638672 -3.83203,6.640625 -2.48047,4.294922 -2.13867,3.705078 h -24.57226 -9.23828 l -4.61915,-8 -7.66796,-13.279297 -4.61719,-8.001953 4.61719,-7.998047 h -9.23633 l -4.61914,-8 -14.59571,-25.28124988 -6.92773,-12.00000012 -6.92774,12.00000012 -14.5957,25.28124988 -4.61914,8 H 357 l 4.61914,8 -4.61914,8 -7.66797,13.279297 v 0.002 l -4.61719,7.998047 h -0.002 -9.23633 -15.33594 -9.23632 l -4.61914,-8 -7.66797,-13.279297 -4.61914,-8 4.61914,-8 h -9.23633 -0.002 l -4.61719,-8 -14.5957,-25.28124988 h -0.002 L 263.23619,-11.15425 256.30845,0.84575012 254.56431,3.8672345 241.71275,26.127 l -4.61914,8 h -9.23633 l 4.61719,7.998047 v 0.002 0.002 l -4.61719,7.998047 -7.66797,13.279297 -1.18554,2.052734 -3.4336,5.947266 h -9.23828 -24.57031 -0.002 l -4.61719,-7.998047 v -0.002 l -7.66797,-13.279297 -6.92773,-12 -2.31055,-4 -8.45117,-14.640625 -10.76368,-18.64062488 z m 0,32 7.66797,13.28125 h -15.33594 z m 258.28711,0 7.66797,13.28125 h -15.33594 z m 129.14258,0 7.66797,13.28125 h -15.33594 z m 129.14453,0 7.66797,13.28125 h -15.33789 z m 129.14258,0 7.66797,13.28125 h -15.33594 z m 129.14257,0 7.66797,13.28125 h -15.33593 z m -645.71679,0.002 7.66797,13.279297 h -15.33399 z m -146.04688,29.27925 h 33.8086 0.002 l 12.28516,21.279297 4.61914,8 L 151,108.6875 h -0.002 -9.23633 -15.33594 -9.23633 l -8.45312,-14.640625 -8.45313,-14.640625 4.61914,-8 z m 138.38086,0 h 15.33399 l -7.66797,13.279297 -3.83399,-6.640625 z m 129.14453,0 h 15.33399 l -7.66797,13.279297 z m 119.9043,0 h 33.80859 0.002 l 12.28515,21.279297 4.61914,8 v 0.002 l -11.70507,20.273438 -5.19922,9.005862 h -0.002 -9.23632 -15.33399 -9.23828 l -8.45312,-14.640628 -8.45118,-14.640625 3.0625,-5.306641 1.55469,-2.693359 3.83399,-6.640625 z m 138.38086,0 h 15.33398 l -7.66601,13.279297 h -0.002 l -3.83399,-6.640625 z m 129.14453,0 h 15.33399 l -7.66797,13.279297 z m 119.9043,0 h 33.81055 l 12.2871,21.279297 4.61719,8 -11.70508,20.275391 -5.19921,9.005859 h -0.002 -9.23633 -15.33398 -9.23828 L 883.59766,94.046875 875.14453,79.40625 Z m -865.574221,8 7.666016,13.279297 H 18.806641 Z m 215.238281,0 7.66797,13.279297 h -15.33594 z m 43.04688,0 h 0.002 l 7.66601,13.279297 H 277.0938 Z m 86.09765,0 7.66797,13.279297 h -15.33594 z m 43.04688,0 7.66797,13.279297 h -15.33399 l 3.83203,-6.640625 z m 215.23828,0 7.66797,13.279297 h -15.33594 z m 43.04883,0 7.66797,13.279297 h -15.33594 l 3.83398,-6.640625 z m 86.0957,0 7.66601,13.279297 h -15.33398 z m 43.04687,0 7.66797,13.279297 H 793.66797 L 797.5,64.765625 Z M 18.806641,87.40625 h 15.335937 l -7.667969,13.28125 z m 43.048828,0 h 15.333984 l -7.667969,13.28125 z m 129.142581,0 h 15.33398 l -7.66601,13.28125 z m 43.04883,0 h 15.33398 l -7.66797,13.28125 z m 43.04687,0 h 15.33594 l -7.66797,13.28125 z m 43.04883,0 h 15.33398 l -7.66797,13.28125 z m 43.04687,0 h 15.33594 l -7.66797,13.28125 z m 43.04688,0 h 0.002 15.33399 l -7.66797,13.28125 z m 43.04883,0 h 15.33398 l -7.66797,13.28125 z m 129.14453,0 h 15.33203 0.002 l -7.66797,13.28125 z m 43.04687,0 h 15.33399 l -7.66797,13.28125 z m 43.04688,0 h 15.33594 l -7.66797,13.28125 z m 43.04883,0 h 15.33398 l -7.66797,13.28125 z m 43.04687,0 h 15.33594 l -7.66797,13.28125 z m 43.04883,0 h 15.33398 L 801.33398,100.6875 797.5,94.046875 Z m 43.04687,0 h 15.33594 l -7.66797,13.28125 z m 129.14454,0 h 15.33398 l -7.66797,13.2793 z m -917.861333,8 7.667969,13.28125 H 40.330078 l 3.833984,-6.64062 z m 43.048828,0 3.832031,6.64063 3.833985,6.64062 H 83.378906 Z m 129.142575,0 7.66797,13.28125 h -15.33398 -0.002 l 3.83399,-6.64062 z m 43.04688,0 7.66797,13.28125 h -15.33399 l 3.83203,-6.64062 z m 43.04883,0 7.66796,13.28125 h -15.33593 l 3.83398,-6.64062 z m 43.04687,0 L 357,108.6875 H 341.66602 L 345.5,102.04688 Z m 43.04883,0 7.66797,13.28125 h -0.002 -15.33204 z m 43.04687,0 3.83399,6.64063 3.83398,6.64062 h -15.33398 z m 43.04883,0 3.83203,6.64063 3.83399,6.64062 h -15.33399 z m 129.14258,0 7.66602,13.28125 h -15.33204 -0.002 l 3.83399,-6.64062 z m 43.04688,0 h 0.002 l 7.66601,13.28125 H 643 l 3.83203,-6.64062 z m 43.04882,0 3.83399,6.64063 3.83398,6.64062 h -15.33398 z m 43.04883,0 3.83399,6.64063 3.83203,6.64062 H 729.0957 Z m 43.04688,0 3.83398,6.64063 3.83399,6.64062 h -0.002 -15.33203 z m 43.04687,0 7.66797,13.28125 h -15.33398 l 3.83203,-6.64062 z m 43.04883,0 3.83398,6.64063 3.83204,6.64062 h -15.33399 l 3.83399,-6.64062 z m 86.0957,0 7.66797,13.28125 h -15.33398 z m -774.85937,0.002 7.66601,13.2793 h -15.33398 l 3.83398,-6.64062 z m 387.42969,0 7.66601,13.2793 H 556.9043 l 3.83398,-6.64062 z M 40.330078,124.6875 h 15.335938 l -7.667969,13.28125 z m 43.048828,0 h 15.333985 l -7.666016,13.2793 z m 33.810544,0 h 9.23633 15.33594 9.23633 0.002 l 11.70508,20.27539 0.58008,1.00586 4.61914,8 -4.31446,7.47266 -0.30468,0.52734 -5.2461,9.08789 -2.42187,4.19336 -2.97657,5.1543 L 151,183.24805 h -9.23828 -15.33594 -9.23633 l -4.61914,-7.99805 -3.83398,-6.64062 -3.83399,-6.64063 -4.61914,-8 4.61914,-8 z m 52.28516,0 h 15.33594 l -7.66797,13.28125 z m 43.04687,0 h 15.33594 l -7.66797,13.2793 z m 33.81055,0 h 9.23828 15.33399 9.23632 0.002 l 4.61914,8 3.83203,6.64062 3.25391,5.63477 5.19922,9.00391 v 0.002 l -3.85938,6.68555 -0.75977,1.31445 -3.83398,6.64063 -8.45117,14.63867 h -24.57227 -9.23828 l -16.9043,-29.2793 v -0.002 l 4.61719,-7.99805 7.66797,-13.28125 z m 52.28516,0 h 15.33593 l -7.66796,13.28125 z m 43.04883,0 H 357 l -3.83203,6.64062 -3.83399,6.64063 h -0.002 z m 33.81054,0 h 9.23633 15.33399 9.23828 l 4.61914,8 3.83398,6.64062 3.83399,6.64063 4.61718,8 -2.49218,4.31641 -2.125,3.68359 -7.66797,13.2793 -4.61914,8 h -9.23828 -24.57032 l -4.61914,-7.99805 -3.83398,-6.64062 -3.83399,-6.64063 -1.55468,-2.69336 -3.06446,-5.30664 8.45313,-14.64063 3.83398,-6.64062 z m 52.28516,0 h 15.33398 l -7.66797,13.28125 z m 43.04687,0 h 15.33399 l -3.83399,6.64062 -3.83203,6.63868 z m 33.81055,0 h 9.23633 15.33594 9.23632 0.002 l 12.28515,21.28125 4.61914,7.99805 v 0.002 0.002 l -4.61914,7.99805 -3.83203,6.64063 -6.6289,11.47851 -1.82422,3.16016 h -9.23828 -15.33399 -9.23828 L 500,175.25 l -3.83398,-6.64062 -3.83399,-6.64063 -1.55469,-2.69336 -3.0625,-5.30664 4.61719,-8 z m 52.28516,0 h 15.33593 l -7.66796,13.28125 z m 43.04687,0 h 0.002 15.33204 l -7.66602,13.2793 z m 33.81055,0 H 643 h 15.33398 9.23829 l 4.61914,8 12.28515,21.28125 -12.28515,21.28125 -4.61914,7.99805 H 643 633.76172 l -16.9043,-29.2793 v -0.002 l 4.61719,-7.99805 3.83398,-6.64063 3.83399,-6.64062 z m 52.28711,0 h 15.33398 l -7.66797,13.28125 z m 43.04687,0 h 15.33399 l -3.83203,6.64062 -3.83399,6.64063 z m 33.81055,0 h 9.23633 15.33594 9.23632 l 4.61914,8 7.66797,13.28125 4.61719,8 -3.57031,6.1875 -1.04688,1.8125 -0.0937,0.16211 -1.99609,3.45703 -5.57813,9.66016 v 0.002 l -0.48437,0.83594 -4.13477,7.16211 h -9.23828 -24.57031 l -4.61914,-7.99805 -7.66797,-13.28125 -1.55469,-2.69336 -3.06445,-5.30664 8.45312,-14.64063 3.83399,-6.64062 z m 52.28516,0 h 15.33398 l -7.66797,13.28125 z m 43.04687,0 h 15.33399 l -7.66602,13.28125 z m 33.81055,0 h 9.23828 15.33398 9.23829 l 11.00781,19.06836 1.27929,2.21289 4.61719,7.99805 v 0.002 l -4.61914,8 -3.83203,6.64063 -6.62891,11.47851 -1.82421,3.16016 h -9.23829 -15.33398 -9.23828 l -8.45117,-14.63867 -8.45313,-14.64063 4.61719,-8 3.83594,-6.64063 z m 52.28711,0 h 15.33398 l -7.66797,13.2793 z m -874.814456,8 7.667969,13.28125 H 61.855469 l 3.832031,-6.64063 z m 129.144536,0 7.66796,13.28125 H 191 Z m 129.14257,0 7.66797,13.28125 h -15.33398 z m 129.14258,0 7.66797,13.28125 h -15.33398 l 3.83203,-6.64063 z m 129.14453,0 3.83399,6.64062 3.83398,6.64063 h -15.33398 z m 129.14258,0 7.66797,13.28125 h -15.33398 l 3.83398,-6.64063 z m 129.14453,0 3.83203,6.64062 3.83399,6.64063 h -15.33399 z m 129.14258,0.002 7.66602,13.2793 h -15.33203 l 3.83203,-6.64063 z M 61.855469,161.9688 h 15.333984 l -7.666015,13.2793 h -0.002 z m 129.142581,0 h 15.33398 l -7.66601,13.2793 z m 119.90625,0 h 33.80859 0.002 l 4.61719,7.99805 3.83594,6.64258 3.83203,6.63867 4.61914,8 v 0.002 l -16.9043,29.2793 h -0.002 -9.23633 -15.33594 -9.23632 l -8.45313,-14.64063 -8.45312,-14.64062 2.33593,-4.04688 2.28321,-3.95312 3.83398,-6.63867 3.83399,-6.64063 1.55468,-2.69336 z m 138.38086,0 h 15.33398 l -7.66602,13.2793 h -0.002 z m 129.14453,0 h 15.33398 l -7.66797,13.2793 z m 119.90429,0 h 33.81055 l 4.61914,8 7.66602,13.2793 4.61914,8 v 0.002 l -11.70508,20.27344 -5.19922,9.00586 h -0.002 -9.23633 -15.33398 -9.23829 L 681.42969,191.25 v -0.002 l 4.61719,-8 3.83398,-6.63867 3.83398,-6.64063 1.55469,-2.69336 z m 138.38086,0 h 15.33399 l -7.66602,13.2793 h -0.002 z m 129.14454,0 h 15.33203 l -7.66602,13.2793 z m -917.861333,8 7.666015,13.2793 H 40.330078 Z m 43.048828,0 3.832031,6.64063 3.833985,6.63867 H 83.378906 Z m 86.093745,0 h 0.002 l 7.66601,13.2793 h -15.33398 z m 43.04883,0 7.66602,13.2793 h -15.33203 z m 215.23828,0 7.66602,13.2793 h -15.33398 z m 43.04883,0 3.83203,6.64063 3.83399,6.63867 h -15.33399 z m 86.09571,0 7.66601,13.2793 H 556.9043 l 3.83398,-6.63867 z m 43.04687,0 7.66602,13.2793 h -15.33204 z m 215.23828,0 7.66797,13.2793 h -15.33398 l 3.83203,-6.63867 z m 43.04883,0 7.66602,13.2793 h -15.33204 z m 86.0957,0 7.66602,13.2793 H 944.33594 Z M 40.330078,199.2481 h 15.335938 l -7.667969,13.27929 z m 43.048828,0 h 15.335938 l -7.667969,13.28125 z m 43.046874,0 h 15.33594 l -7.66797,13.28125 z m 43.04883,0 h 15.33594 l -7.03711,12.18554 -0.63086,1.09571 z m 43.04687,0 h 15.33594 l -7.66797,13.28125 z m 43.04883,0 h 15.33399 l -7.66797,13.28125 z m 129.14258,0 h 15.33399 0.002 l -7.66797,13.28125 z m 43.04883,0 h 15.33398 l -7.66797,13.28125 z m 43.04687,0 h 15.33594 l -7.66797,13.28125 z m 43.04688,0 h 15.33594 l -7.66797,13.28125 z m 43.04883,0 h 15.33398 l -7.66601,13.28125 z m 43.04687,0 h 0.002 15.33399 l -7.66797,13.28125 z m 43.04883,0 h 15.33594 l -7.66797,13.28125 h -0.002 z m 129.14258,0 h 15.33594 l -7.66797,13.28125 z m 43.04883,0 h 15.33398 l -7.66797,13.28125 z m 43.04687,0 h 15.33594 l -7.66797,13.28125 z m 43.04883,0 h 15.33398 l -7.66797,13.28125 z m 43.04687,0 h 15.33594 l -7.66797,13.27929 z m -530.42968,8 7.66601,13.28125 h -15.33203 -0.002 z m 387.42968,0 L 809,220.5293 h -15.33203 -0.002 L 797.5,213.88867 Z M 26.472656,207.25 h 0.002 l 7.666016,13.2793 H 18.806641 Z m 43.048828,0 4.126954,7.14648 3.541015,6.13282 H 61.855469 l 3.832031,-6.64063 z m 43.048826,0 7.66797,13.2793 h -15.33594 z m 43.04688,0 1.95898,3.39062 5.70899,9.88868 h -15.33399 z m 43.04883,0 7.66796,13.2793 h -0.002 H 191 Z m 43.04687,0 7.66797,13.2793 h -15.33398 z m 43.04688,0 h 0.002 l 3.83203,6.64062 3.83398,6.63868 H 277.0938 Z m 86.09765,0 7.66602,13.2793 h -15.33399 l 6.66407,-11.54102 z m 86.09375,0 h 0.002 l 7.66602,13.2793 h -15.33398 z m 43.04883,0 7.66602,13.2793 h -15.33399 z m 43.04688,0 h 0.002 l 7.66601,13.2793 h -15.33398 z m 43.04882,0 3.83399,6.63867 3.83398,6.64063 h -0.002 -15.33399 z m 43.04688,0 7.66797,13.2793 h -15.33594 z m 43.04883,0 7.66601,13.2793 h -15.33398 z m 86.0957,0 7.66601,13.2793 h -15.33398 l 3.83398,-6.63868 z m 86.09375,0 h 0.002 l 3.83203,6.63867 3.83399,6.64063 h -15.33399 z m 43.04883,0 3.83398,6.63867 3.83399,6.64063 h -15.33399 z m 43.04883,0 7.66601,13.2793 h -15.33398 z m 43.04687,0 h 0.002 l 7.66602,13.2793 h -15.33398 l 3.83203,-6.64063 z M 18.806641,236.5293 h 15.333984 l -3.832031,6.64062 -3.833985,6.64063 z m 33.810547,0 h 9.238281 15.333984 9.236328 0.002 l 4.619141,8 7.085937,12.27539 5.199221,9.0039 v 0.002 l -1.13281,1.96093 -3.486332,6.03907 -3.833985,6.63867 -3.832031,6.64062 -4.619141,8 h -0.002 -24.572265 -9.236328 l -4.619141,-8 -12.285156,-21.27929 8.451171,-14.64063 3.833985,-6.64062 z m 52.285152,0 h 15.33594 l -7.66797,13.28125 z m 43.04883,0 h 15.33399 l -7.66797,13.28125 z m 33.81055,0 h 9.23633 15.33398 9.23828 l 4.61914,8 7.66797,13.28125 4.61719,7.99804 v 0.002 l -8.45117,14.63867 -3.83399,6.64062 -4.61914,8 h -9.23828 -24.57031 l -3.59766,-6.23046 -1.02148,-1.76758 v -0.002 l -7.66797,-13.27929 -1.55469,-2.69336 -3.06445,-5.30664 12.28711,-21.28125 z m 52.28516,0 h 15.33398 l -3.83398,6.64062 -3.83399,6.64063 z m 43.04687,0 h 15.33398 l -3.83398,6.64062 -3.83203,6.64063 z m 33.81055,0 h 9.23632 15.33594 9.23633 0.002 L 357,257.81055 l 4.61914,7.99804 v 0.002 l -4.61914,8 -3.83203,6.63867 -3.83594,6.64062 v 0.002 l -4.61719,7.99804 h -0.002 -9.23633 -15.33594 -9.23632 l -3.06446,-5.30664 -1.55468,-2.69336 -7.66797,-13.27929 -4.61914,-8 4.61914,-8 3.08593,-5.34571 0.74805,-1.29492 z m 52.28515,0 h 15.33594 l -7.66797,13.28125 z m 43.04688,0 h 0.002 15.33203 l -7.66601,13.28125 z m 33.81055,0 h 9.23828 15.33398 9.23633 0.002 l 4.61914,8 3.83203,6.64062 8.45313,14.64063 -8.45313,14.63867 -3.83203,6.64062 -4.61914,8 h -24.57226 -9.23828 l -4.61915,-8 -12.28515,-21.27929 4.61719,-8 3.83398,-6.64063 3.83398,-6.64062 z m 52.2871,0 h 15.33399 L 500,249.81055 Z m 43.04688,0 h 15.33398 l -7.66601,13.28125 z m 33.81055,0 h 9.23632 15.33399 H 603 l 4.61914,8 3.08594,5.3457 0.74804,1.29492 3.83399,6.64063 4.61719,8 -4.61719,8 -7.66797,13.27929 -1.02148,1.76954 L 603,295.08984 h -9.23828 -24.57031 l -2.33594,-4.04687 -0.72852,-1.25977 -1.55468,-2.69336 -3.83399,-6.64062 -3.83398,-6.63867 -2.28321,-3.95313 -2.33593,-4.04687 12.28711,-21.28125 z m 52.28515,0 h 15.33399 l -7.66797,13.28125 z m 43.04688,0 h 15.33398 l -0.5332,0.92382 -7.13281,12.35743 z m 33.81054,0 h 9.23829 15.33398 9.23633 0.002 l 8.45313,14.64062 3.83203,6.64063 4.61914,7.99804 v 0.002 l -4.61914,8 -7.66602,13.27929 -4.61914,8 h -0.002 -9.23633 -15.33398 -9.23829 l -3.06445,-5.30664 -1.55469,-2.69336 -7.66796,-13.27929 -1.02149,-1.76953 -3.5957,-6.23047 v -0.002 l 4.61719,-7.99804 z m 52.28516,0 h 15.33594 l -7.66797,13.28125 z m 43.04883,0 H 809 l -7.66602,13.27929 -3.83398,-6.63867 z m 33.80859,0 h 0.002 9.23632 15.33399 9.23828 l 4.61914,8 12.28516,21.28125 -4.61719,8 -7.66797,13.27929 -1.55469,2.69336 -3.06445,5.30664 h -24.57227 -9.23828 l -4.61914,-8 -3.83398,-6.64062 -8.45117,-14.63867 v -0.002 l 4.61718,-7.99804 3.83399,-6.64063 3.83398,-6.64062 z m 52.28711,0 h 15.33399 l -7.66797,13.28125 z m 43.04688,0 h 15.33398 l -7.66601,13.28125 z m -788.7168,8 7.66797,13.28125 h -15.33399 z m 129.14258,0 7.66797,13.28125 h -15.33399 l 3.83203,-6.64063 z m 129.14453,0 7.66797,13.28125 h -15.33399 z m 129.14258,0 7.66797,13.28125 h -15.33399 l 3.83399,-6.64063 z m 129.14258,0 h 0.002 l 7.66601,13.28125 H 643 l 3.83203,-6.64063 z m 129.14453,0 3.83398,6.64062 3.83399,6.64063 h -15.33399 z m 129.14257,0 7.66797,13.28125 h -15.33398 l 3.83398,-6.64063 z m -791.76367,29.28125 h 33.8086 0.002 l 4.61719,7.99804 v 0.002 l 7.66797,13.27929 4.61914,8 v 0.002 L 151,332.37109 h -9.23828 -15.33594 -9.23633 l -8.45312,-14.64062 -8.45313,-14.64063 4.61914,-8 7.66797,-13.27929 v -0.002 z m 138.38086,0 h 15.33399 l -7.66602,13.27929 h -0.002 z m 129.14258,0 h 15.33594 l -7.66797,13.27929 z m 119.90625,0 h 33.81055 l 4.61914,8 7.66601,13.27929 4.61914,8 -8.45117,14.64063 -8.45312,14.64062 h -0.002 -9.23632 -15.33399 -9.23828 l -16.9043,-29.28125 4.61719,-8 3.83399,-6.64062 3.83398,-6.63867 1.55469,-2.69336 z m 138.38086,0 h 15.33398 l -7.66601,13.27929 h -0.002 z m 129.14453,0 h 15.33399 l -7.66797,13.27929 z m 119.9043,0 h 33.81055 l 4.61914,8 7.66796,13.27929 4.61719,8 -8.45117,14.64063 -8.45312,14.64062 h -0.002 -9.23633 -15.33398 -9.23828 l -16.9043,-29.28125 8.45313,-14.64062 3.83203,-6.63867 z m -865.574221,8 7.666016,13.27929 H 18.806641 Z m 215.238281,0 3.83399,6.63867 3.83398,6.64062 h -15.33398 z m 43.04883,0 3.83203,6.63867 3.83398,6.64062 h -15.33398 z m 86.09375,0 h 0.002 l 7.66602,13.27929 H 363.1895 Z m 43.04883,0 7.66601,13.27929 h -15.33203 z m 215.23828,0 7.66797,13.27929 h -15.33399 z m 43.04883,0 7.66601,13.27929 h -15.33398 z m 86.0957,0 7.66601,13.27929 h -15.33398 z m 43.04687,0 L 809,295.08984 H 793.66797 L 797.5,288.44922 Z M 18.806641,311.08984 h 15.333984 l -3.832031,6.64063 -3.833985,6.63867 z m 43.048828,0 h 15.333984 l -7.667969,13.28125 z m 129.142581,0 h 15.33398 l -3.83203,6.64063 -3.83398,6.64062 z m 43.04687,0 h 15.33594 l -3.83398,6.64063 -3.83399,6.64062 z m 43.04883,0 h 15.33594 l -7.66797,13.28125 z m 43.04883,0 h 15.33398 l -3.83398,6.64063 -3.83399,6.64062 z m 43.04687,0 h 15.33399 l -7.66602,13.28125 z m 43.04688,0 h 0.002 15.33203 l -7.66601,13.28125 z m 43.04883,0 h 15.33398 l -7.66797,13.28125 z m 129.14453,0 h 15.33203 0.002 l -3.83398,6.64063 -3.83399,6.64062 z m 43.04687,0 h 15.33399 l -7.66797,13.28125 z m 43.04688,0 h 15.33398 l -7.66601,13.28125 z m 43.04883,0 h 15.33398 l -7.66797,13.28125 z m 43.04687,0 h 15.33398 l -7.66601,13.28125 z m 43.04883,0 h 15.33398 l -7.66797,13.28125 -3.83398,-6.64062 z m 43.04687,0 h 15.33399 l -3.83399,6.64063 -3.83203,6.64062 z m 129.14454,0 h 15.33398 l -7.66797,13.2793 z m -917.861333,8 7.667969,13.28125 H 40.330078 l 3.833984,-6.64062 z m 172.191403,0 7.66602,13.28125 h -15.33203 -0.002 l 3.83399,-6.64062 z m 43.04688,0 7.66797,13.28125 h -15.33399 z m 43.04883,0 7.66796,13.28125 h -15.33593 l 3.83398,-6.64062 z m 43.04687,0 h 0.002 L 357,332.37109 H 341.66602 L 345.5,325.73047 Z m 43.04883,0 3.83398,6.64063 3.83399,6.64062 h -0.002 -15.33399 z m 43.04687,0 3.83399,6.64063 3.83398,6.64062 h -15.33593 z m 43.04883,0 3.83203,6.64063 3.83399,6.64062 h -15.33399 z m 129.14258,0 7.66602,13.28125 h -15.33204 -0.002 z m 43.04688,0 h 0.002 l 3.83203,6.64063 3.83398,6.64062 H 643 Z m 43.04882,0 3.83399,6.64063 3.83398,6.64062 h -15.33593 z m 43.04883,0 3.83399,6.64063 3.83203,6.64062 H 729.0957 Z m 43.04688,0 3.83398,6.64063 3.83399,6.64062 h -0.002 -15.33398 z m 43.04687,0 7.66797,13.28125 h -15.33398 l 3.83203,-6.64062 z m 43.04883,0 3.83398,6.64063 3.83204,6.64062 h -15.33399 l 3.83399,-6.64062 z m 86.0957,0 3.83399,6.64063 3.83398,6.64062 h -15.33398 z m -860.955075,0.002 7.666016,13.27929 H 83.378906 Z m 86.095705,0 7.66601,13.27929 h -15.33398 l 3.83398,-6.64062 z m 387.42969,0 7.66601,13.27929 H 556.9043 l 3.83398,-6.64062 z M 40.330078,348.37109 h 15.333984 l -7.666015,13.2793 z m 43.048828,0 h 15.333985 l -3.833985,6.64063 -3.832031,6.63867 h -0.002 z m 33.810544,0 h 9.23633 15.33594 9.23633 0.002 l 6.57617,11.39063 5.70899,9.88867 4.61914,8 -4.35547,7.54492 -0.26367,0.45508 -7.66797,13.28125 v 0.002 L 151,406.93164 h -0.002 -9.23633 -15.33594 -9.23633 l -4.61914,-8 -7.66797,-13.28125 -4.61914,-8 4.61914,-8 3.83399,-6.63867 z m 52.28516,0 h 15.33398 l -3.83203,6.64063 -3.83398,6.63867 h -0.002 z m 43.04687,0 h 15.33399 l -7.66602,13.2793 z m 33.81055,0 h 9.23828 15.33399 9.23632 0.002 l 4.61914,8 12.28516,21.2793 -4.61915,8 -7.66601,13.28125 -4.61914,8 h -24.57227 -9.23828 l -4.61914,-8 -3.08594,-5.3457 -4.58203,-7.93555 -4.61914,-8 3.59766,-6.23047 1.02148,-1.76953 3.83399,-6.63867 3.83398,-6.64063 0.92969,-1.61132 z m 52.28516,0 h 15.33398 l -7.66601,13.2793 z m 43.04883,0 H 357 l -3.83203,6.64063 -3.83399,6.63867 h -0.002 z m 33.81054,0 h 9.23633 15.33399 9.23828 l 4.61914,8 3.83398,6.64063 8.45117,14.63867 v 0.002 l -4.61718,7.99805 -1.2793,2.21289 -6.38867,11.06836 -4.61914,8 h -9.23828 -24.57032 l -4.61914,-8 -3.83398,-6.64062 -3.83399,-6.64063 -4.61914,-8 6.70899,-11.61914 1.74414,-3.01953 3.83398,-6.64063 0.92969,-1.61132 z m 52.28516,0 h 15.33398 l -3.83398,6.64063 -3.83399,6.63867 z m 43.04687,0 h 15.33399 l -3.83399,6.64063 -3.83203,6.63867 h -0.002 z m 33.81055,0 h 9.23633 15.33594 9.23828 l 8.45312,14.64063 3.83203,6.63867 4.61914,7.99805 v 0.002 0.002 l -4.61914,7.99805 -3.83203,6.64063 -3.83398,6.64062 -4.61914,8 h -0.002 -9.23632 -15.33399 -9.23828 l -4.61914,-8 -7.66797,-13.28125 -4.61914,-8 3.57227,-6.1875 1.04687,-1.8125 z m 52.28516,0 h 15.33398 l -7.66601,13.2793 z m 43.04882,0 h 15.33204 l -7.66602,13.2793 -3.83398,-6.63867 z m 33.8086,0 H 643 h 15.33398 9.23829 l 4.61914,8 12.28515,21.2793 v 0.002 l -4.61718,7.99805 -3.83594,6.64063 -3.83203,6.64062 -4.61914,8 H 643 633.76172 l -4.24414,-7.35156 -0.375,-0.64844 -6.38867,-11.06836 -1.2793,-2.21289 -4.61719,-8 12.28516,-21.2793 2.79492,-4.83984 z m 52.28711,0 h 15.33398 l -3.83398,6.64063 -3.83399,6.63867 z m 43.04687,0 h 15.33399 l -3.83203,6.64063 -3.83399,6.63867 h -0.002 z m 33.81055,0 h 9.23633 15.33594 9.23632 l 3.59766,6.23047 1.02148,1.76953 3.83399,6.64063 3.83398,6.63867 1.55469,2.69336 3.0625,5.30664 -4.61719,8 -7.66797,13.28125 -4.61914,8 h -9.23828 -24.57031 l -4.61914,-8 -3.83399,-6.64062 -3.83398,-6.64063 -4.61914,-8 8.45312,-14.63867 3.83399,-6.64063 0.92969,-1.61132 z m 52.28516,0 h 15.33398 l -7.66601,13.2793 h -0.002 z m 43.04687,0 h 15.33399 l -7.66602,13.2793 z m 33.81055,0 h 9.23828 15.33398 9.23829 l 12.2871,21.2793 4.61719,7.99805 v 0.002 l -4.61914,8 -3.83203,6.64063 -3.83398,6.64062 -4.61914,8 h -0.002 -9.23633 -15.33398 -9.23828 l -4.61914,-8 -7.66797,-13.28125 -4.61719,-8 8.45313,-14.63867 7.31836,-12.67969 z m 52.28711,0 h 15.33203 l -7.66602,13.2793 z m -874.814456,8 7.667969,13.2793 H 61.855469 l 3.832031,-6.63867 z m 129.144536,0 3.83398,6.64063 3.83398,6.63867 H 191 Z m 129.14257,0 3.83399,6.64063 3.83398,6.63867 h -15.33398 z m 129.14258,0 h 0.002 l 7.66602,13.2793 h -15.33398 z m 129.14453,0 3.83399,6.64063 3.83398,6.63867 h -15.33594 z m 129.14258,0 h 0.002 l 7.66602,13.2793 h -15.33398 z m 129.14258,0 h 0.002 l 3.83203,6.64063 3.83399,6.63867 h -15.33399 z m 129.14453,0 7.66602,13.2793 h -15.33203 l 3.83203,-6.63867 z m -911.669921,29.2793 h 15.333984 l -7.667969,13.28125 z m 129.142581,0 h 15.33398 l -3.83203,6.64063 -3.83398,6.64062 z m 119.90625,0 h 33.80859 0.002 l 4.61719,7.99805 v 0.002 l 3.83594,6.64063 3.83203,6.64062 4.61914,8 -16.9043,29.28125 h -0.002 -9.23633 -15.33594 -9.23632 l -7.70508,-13.3457 -9.20117,-15.93555 1.60156,-2.77344 3.01758,-5.22656 3.83398,-6.64062 3.83399,-6.64063 z m 138.38086,0 h 15.33398 l -7.66797,13.2793 z m 129.14453,0 h 15.33398 l -3.83398,6.64063 -3.83399,6.64062 z m 119.90429,0 h 33.8086 0.002 l 4.61914,8 7.66602,13.28125 4.61914,8 -16.9043,29.28125 h -0.002 -9.23633 -15.33398 -9.23829 l -8.45117,-14.64062 -8.45312,-14.64063 4.61719,-8 3.83398,-6.64062 3.83398,-6.64063 z m 138.38086,0 h 15.33399 l -3.83399,6.64063 -3.83203,6.64062 z m 129.14454,0 h 15.33203 l -7.66602,13.2793 z m -917.861333,8 7.667969,13.28125 H 40.330078 Z m 129.144533,0 3.83398,6.64063 3.83203,6.64062 h -15.33398 z m 43.04687,0 7.66602,13.28125 h -15.33203 -0.002 l 3.83399,-6.64062 z m 215.23828,0 3.83399,6.64063 3.83398,6.64062 h -15.33593 z m 43.04883,0 3.83203,6.64063 3.83399,6.64062 h -15.33399 z m 129.14258,0 7.66602,13.28125 h -15.33204 -0.002 z m 215.23828,0 7.66797,13.28125 h -15.33594 z m 43.04883,0 7.66602,13.28125 h -15.33399 l 3.83399,-6.64062 z m 86.0957,0 3.83399,6.64063 3.83398,6.64062 h -15.33398 z m -860.955075,0.002 7.666016,13.2793 H 83.378906 Z m 473.525395,0 7.66601,13.2793 H 556.9043 l 3.83398,-6.64062 z m -524.240239,29.2793 h 15.332031 l -7.666015,13.2793 z m 43.046875,0 h 15.333985 l -3.833985,6.64063 -3.832031,6.64062 z m 43.048824,0 h 15.33399 l -3.83399,6.64063 -3.83398,6.63867 z m 43.04688,0 h 15.33398 l -3.83203,6.64063 -3.83398,6.64062 z m 43.04687,0 h 15.33399 l -7.66602,13.28125 z m 43.04883,0 h 15.33399 l -7.66797,13.2793 -3.83399,-6.63867 z m 129.14258,0 h 15.33399 0.002 l -3.83399,6.64063 -3.83398,6.63867 z m 43.04688,0 h 15.33593 l -3.83398,6.64063 -3.83399,6.64062 z m 43.04882,0 h 15.33399 l -3.83399,6.64063 -3.83203,6.64062 z m 43.04883,0 h 15.33399 l -7.66797,13.2793 -3.83203,-6.63867 z m 43.04688,0 h 15.33398 l -7.66601,13.28125 z m 43.04687,0 h 0.002 15.33204 l -7.66602,13.28125 z m 43.04883,0 h 15.33398 l -3.83398,6.64063 -3.83203,6.63867 v 0.002 h -0.002 z m 129.14453,0 h 15.33399 l -7.66797,13.2793 z m 43.04688,0 h 15.33398 l -7.66797,13.28125 z m 43.04687,0 h 15.33399 l -7.66602,13.28125 z m 43.04883,0 h 15.33398 l -7.66797,13.2793 z m 43.04687,0 h 15.33594 l -7.66797,13.28125 z m -917.859371,8 7.667969,13.28125 H 18.806641 Z m 43.046875,0 7.667969,13.28125 H 61.853516 Z m 43.048826,0 7.66797,13.28125 h -15.33594 z m 43.04688,0 7.66797,13.28125 h -15.33399 z m 43.04883,0 3.83398,6.64063 3.83398,6.64062 h -0.002 -15.33398 z m 43.04687,0 7.66797,13.28125 h -15.33594 z m 43.04883,0 3.83203,6.64063 3.83398,6.64062 h -15.33398 z m 86.0957,0 7.66602,13.28125 h -15.33399 l 1.01563,-1.75977 2.81836,-4.88085 z m 43.04688,0 7.66797,13.28125 h -15.33399 -0.002 z m 43.04687,0 7.66797,13.28125 h -15.33398 z m 86.09766,0 4.20312,7.2793 3.46485,6.00195 h -15.33594 z m 43.04687,0 3.83399,6.64063 3.83398,6.64062 h -0.002 -15.33399 z m 43.04688,0 7.66797,13.28125 h -15.33594 z m 43.04883,0 3.83203,6.64063 3.83398,6.64062 h -15.33398 z m 129.14257,0 7.66797,13.28125 h -15.33398 -0.002 L 797.5,437.57227 Z m 43.04883,0 7.66602,13.28125 h -15.33399 z m 43.04688,0 7.66797,13.28125 h -15.33594 z m 43.04883,0 7.66796,13.28125 h -15.33593 z m 43.04687,0 7.66797,13.28125 H 965.85742 Z M 500,430.93359 l 7.66797,13.2793 h -15.33594 z m 258.28711,0 7.66601,13.2793 h -15.33398 l 3.83398,-6.64062 z m -739.480469,29.2793 h 15.333984 l -3.832031,6.63867 -3.833985,6.64063 z m 33.810547,0 h 9.238281 15.333984 9.236328 0.002 l 8.451172,14.63867 6.628907,11.48047 1.82422,3.1582 v 0.002 l -3.484377,6.0332 -1.134765,1.9668 -3.833985,6.64062 -3.832031,6.64063 -4.619141,8 h -0.002 -24.572265 -9.236328 l -4.619141,-8 -4.203125,-7.2793 -8.083984,-14.00195 12.287109,-21.28125 z m 52.285152,0 h 15.33399 l -7.66602,13.2793 h -0.002 z m 43.04883,0 h 15.33399 l -7.66602,13.2793 h -0.002 z m 33.81055,0 h 9.23633 15.33398 9.23828 l 4.61914,8 7.66797,13.2793 4.61719,8 -1.21875,2.11133 -3.39844,5.88867 -2.97461,5.15039 -4.69336,8.13086 -1.36523,2.36328 -0.0586,0.10351 -3.19531,5.53321 h -9.23828 -24.57031 l -4.61914,-8 -3.83399,-6.64063 -3.83398,-6.64062 -4.61914,-8 8.45312,-14.64063 3.83399,-6.64062 z m 52.28516,0 h 15.33203 l -7.66602,13.2793 z m 43.04687,0 h 15.33398 l -3.83398,6.63867 -3.83203,6.64063 z m 33.81055,0 h 9.23632 15.33594 9.23828 L 357,481.49219 l 4.61914,7.99804 v 0.002 0.002 L 357,497.49219 l -3.46289,6.00195 -4.20508,7.2793 v 0.002 l -4.61719,7.99805 h -0.002 -9.23633 -15.33594 -9.23632 l -4.61914,-8 -3.83399,-6.64063 -3.83398,-6.64062 -3.24805,-5.625 -1.37109,-2.375 3.06445,-5.30664 1.55469,-2.69336 3.83398,-6.64063 z m 52.28515,0 h 15.33399 l -7.66602,13.2793 z m 43.04883,0 h 15.33203 l -7.66601,13.2793 -4.54297,-7.86914 z m 33.8086,0 h 9.23828 15.33398 9.23828 l 8.45117,14.63867 8.45313,14.64063 -4.61719,8 -7.66797,13.28125 -2.85547,4.94531 -1.76367,3.05469 h -0.002 -24.57031 -9.23828 l -4.61915,-8 -7.66796,-13.28125 -4.61719,-7.99805 v -0.002 z m 52.2871,0 h 15.33204 L 500,473.49219 Z m 43.04688,0 h 15.33398 l -3.83203,6.63867 -3.83398,6.64063 z m 33.81055,0 h 9.23632 15.33399 H 603 l 3.59766,6.23047 1.02148,1.76953 7.66797,13.2793 4.61914,8 -3.0918,5.35547 -1.52734,2.64453 -3.83399,6.64062 -3.83398,6.64063 -4.61914,8 h -9.23828 -24.57031 L 567.58984,516 l -3.01757,-5.22656 -7.66797,-13.28125 -4.61914,-8 12.28711,-21.28125 2.97656,-5.1543 z m 52.28515,0 h 15.33399 l -7.66797,13.2793 z m 43.04883,0 h 15.33203 l -7.66601,13.2793 z m 33.80859,0 h 9.23829 15.33398 9.23633 0.002 l 12.28516,21.2793 2.79492,4.83984 1.82422,3.1582 v 0.002 0.002 l -4.61914,7.99805 -3.83203,6.64062 -3.83399,6.64063 -2.35547,4.08008 -2.26367,3.91992 h -0.002 -9.23633 -15.33398 -9.23829 l -4.61914,-8 -4.20312,-7.2793 -3.46484,-6.00195 -1.52735,-2.64453 -3.08984,-5.35547 4.61719,-8 z m 52.28516,0 h 15.33398 l -7.66601,13.2793 z m 43.04883,0 H 809 l -7.66602,13.2793 z m 33.80859,0 h 9.23828 15.33399 9.23828 l 8.45312,14.63867 8.45118,14.64063 -4.61719,8 -3.83399,6.64062 -3.83398,6.64063 -4.61914,8 h -24.57227 -9.23632 -0.002 l -4.61914,-8 -7.66797,-13.28125 -4.61718,-8 4.61718,-8 z m 52.28711,0 h 15.33203 l -7.66601,13.2793 z m 43.04688,0 h 15.33398 l -7.66601,13.2793 z m -788.7168,8 3.83398,6.63867 3.83399,6.64063 h -15.33399 z m 129.14258,0 h 0.002 l 7.66602,13.2793 h -15.33399 l 3.83203,-6.64063 z m 129.14453,0 7.66602,13.2793 h -15.33204 z m 129.14258,0 h 0.002 l 7.66602,13.2793 h -15.33399 z m 129.14258,0 h 0.002 l 7.66601,13.2793 H 643 l 3.83203,-6.64063 z m 129.14453,0 7.66601,13.2793 h -15.33203 z m 129.14257,0 h 0.002 l 7.66601,13.2793 h -15.33398 l 3.83398,-6.64063 z m -791.76367,29.2793 h 33.8086 0.002 l 4.61719,8 7.66797,13.28125 4.61914,8 -8.45118,14.64062 -3.30078,5.7168 L 151,556.05469 h -9.23828 -15.33594 -9.23633 l -8.45312,-14.64063 -8.45313,-14.64062 4.61914,-8 7.66797,-13.28125 z m 138.37891,0 h 15.33594 l -7.66797,13.28125 z m 129.14453,0 h 15.33594 l -7.66797,13.28125 z m 119.90625,0 h 33.80859 0.002 l 4.61914,8 7.66601,13.28125 1.13477,1.96679 1.7207,2.97852 1.76367,3.05469 -8.45117,14.64062 -3.2539,5.63477 -5.19922,9.00586 h -0.002 -9.23632 -15.33399 -9.23828 l -8.45312,-14.64063 -8.45118,-14.64062 4.61719,-8 L 500,505.49219 Z m 138.37891,0 h 15.33789 l -7.66797,13.28125 h -0.002 z m 129.14453,0 h 15.33594 l -7.66797,13.28125 z m 119.90625,0 h 33.80859 0.002 l 4.61914,8 7.66796,13.28125 4.61719,8 -8.45117,14.64062 -8.45312,14.64063 h -0.002 -9.23633 -15.33398 -9.23828 l -16.9043,-29.28125 4.61719,-8 3.83594,-6.64063 3.83203,-6.64062 z m -650.33594,8 3.83399,6.64062 3.83398,6.64063 h -15.33398 z m 43.04883,0 3.83203,6.64062 3.83398,6.64063 h -15.33398 z m 86.0957,0 7.66602,13.28125 h -15.33399 z m 258.28516,0 7.66797,13.28125 h -15.33399 z m 43.04883,0 7.66797,13.28125 h -15.33594 l 3.83398,-6.64063 z m -645.716801,0.002 7.666016,13.2793 H 18.806641 Z m 387.429691,0 7.66601,13.2793 h -15.33203 -0.002 l 3.83398,-6.64063 z m 344.38281,0 7.66601,13.2793 h -15.33398 l 3.83398,-6.64063 z m 43.04687,0 4.98829,8.63867 2.67968,4.64063 h -15.33398 -0.002 L 797.5,512.13281 Z m -782.527339,29.2793 h 15.333984 l -3.832031,6.64062 -3.833985,6.63867 z m 43.048828,0 h 15.333984 l -7.667969,13.28125 z m 129.142581,0 h 15.33398 l -3.83203,6.64062 -3.83398,6.64063 z m 43.04883,0 h 15.33398 l -3.83398,6.64062 -3.83399,6.64063 z m 43.04687,0 h 15.33594 l -7.66797,13.28125 z m 43.04883,0 h 15.33398 l -7.66797,13.28125 z m 43.04687,0 h 15.33594 l -7.66797,13.28125 z m 43.04688,0 h 0.002 15.33399 l -7.66797,13.28125 z m 43.04883,0 h 15.33398 l -7.66797,13.28125 z m 129.14453,0 h 15.33203 0.002 l -7.66797,13.28125 z m 43.04687,0 h 15.33399 l -7.66797,13.28125 z m 43.04688,0 h 15.33594 l -7.66797,13.28125 z m 43.04883,0 h 15.33398 l -7.66797,13.28125 z m 43.04687,0 h 15.33398 l -7.66601,13.28125 z m 43.04883,0 h 15.33398 l -3.83398,6.64062 -3.83399,6.64063 z m 43.04687,0 h 15.33399 l -3.83399,6.64062 -3.83203,6.64063 z m 129.14454,0 h 15.33398 l -7.66797,13.27929 z m -917.861333,8 7.667969,13.28125 H 40.330078 l 3.833984,-6.64063 z m 43.048828,0 3.832031,6.64062 3.833985,6.64063 H 83.378906 Z m 129.142575,0 7.66797,13.28125 h -15.33398 -0.002 z m 43.04688,0 7.66797,13.28125 h -15.33399 l 3.83203,-6.64063 z m 43.04883,0 7.66601,13.28125 h -15.33398 l 3.83398,-6.64063 z m 43.04687,0 h 0.002 L 357,556.05469 H 341.66602 L 345.5,549.41406 Z m 43.04883,0 3.83398,6.64062 3.83399,6.64063 h -0.002 -15.33204 z m 43.04687,0 3.83399,6.64062 3.83398,6.64063 h -15.33398 z m 129.14454,0 7.66796,13.28125 H 556.9043 l 3.83398,-6.64063 z m 43.04687,0 7.66797,13.28125 h -15.33399 -0.002 l 3.83399,-6.64063 z m 43.04688,0 h 0.002 l 7.66601,13.28125 H 643 l 3.83203,-6.64063 z m 43.04882,0 7.66797,13.28125 h -15.33398 z m 86.09571,0 3.83398,6.64062 3.83399,6.64063 h -0.002 -15.33203 z m 43.04687,0 7.66797,13.28125 h -15.33594 z m 43.04883,0 3.83398,6.64062 3.83204,6.64063 h -15.33399 l 3.83399,-6.64063 z m 86.0957,0 3.83399,6.64062 3.83398,6.64063 h -15.33398 z m -774.85937,0.002 3.83398,6.63867 3.83203,6.64063 h -15.33398 l 3.83398,-6.64063 z m 301.33398,0 3.83203,6.63867 3.83399,6.64063 h -15.33399 z m 258.28711,0 7.66602,13.2793 H 729.0957 Z m -696.433592,29.2793 h 15.333984 l -7.666015,13.27929 z m 43.048828,0 h 15.333985 l -3.833985,6.64062 -3.832031,6.63867 h -0.002 z m 33.810544,0 h 9.23633 15.33594 H 151 l 12.28516,21.27929 4.61914,8 -4.61914,8 -7.66797,13.28125 v 0.002 L 151,630.61523 h -0.002 -9.23633 -15.33594 -9.23633 l -4.61914,-8 -7.66797,-13.28125 -4.61914,-8 4.61914,-8 3.83399,-6.63867 z m 52.28516,0 h 15.33398 l -3.83203,6.64062 -3.83398,6.63867 h -0.002 z m 43.04687,0 h 15.33399 l -7.66602,13.27929 z m 33.81055,0 h 9.23828 15.33399 9.23632 0.002 l 4.61914,8 3.83203,6.64062 8.45313,14.63867 -4.61915,8 -3.83398,6.64063 -3.83203,6.64062 -4.61914,8 h -0.002 -24.57031 -9.23828 l -4.61914,-8 -7.66797,-13.28125 -4.61719,-8 4.61719,-8 7.66797,-13.27929 z m 52.28516,0 h 15.33593 l -7.66796,13.27929 -3.83399,-6.63867 z m 43.04883,0 H 357 l -3.83203,6.64062 -3.83399,6.63867 h -0.002 z m 33.81054,0 h 9.23633 15.33399 9.23828 l 4.61914,8 7.66797,13.27929 0.36328,0.63282 4.2539,7.36718 v 0.002 l -4.61718,7.99804 -7.08789,12.2754 -0.58008,1.00585 -4.61914,8 h -9.23828 -24.57032 l -4.61914,-8 -7.66797,-13.28125 -4.61914,-8 v -0.002 l 12.28711,-21.27734 v -0.002 l 1.55469,-2.6914 z m 52.28516,0 h 15.33398 l -7.66797,13.27929 z m 43.04687,0 h 15.33399 l -7.66602,13.27929 h -0.002 z m 33.81055,0 h 9.23633 15.33594 9.23632 0.002 l 8.45312,14.64062 3.83203,6.63867 1.67188,2.89649 1.12305,1.94336 1.82421,3.16015 -4.61914,8 -7.08593,12.2754 -0.58008,1.00585 -2.35547,4.08008 -2.26367,3.91992 h -0.002 -9.23632 -15.33399 -9.23828 l -4.61914,-8 -7.66797,-13.28125 -4.61719,-8 4.61719,-8 z m 52.28516,0 h 15.33593 l -7.66796,13.27929 -3.83399,-6.63867 z m 43.04882,0 h 15.33399 l -7.66797,13.27929 -3.83398,-6.63867 z m 33.8086,0 H 643 h 15.33398 9.23829 l 4.61914,8 12.28515,21.27929 -4.61718,8 -3.83594,6.64063 -3.83203,6.64062 -4.61914,8 H 643 633.76172 l -4.61914,-8 -3.83399,-6.64062 -3.83398,-6.64063 -4.61719,-7.99804 v -0.002 l 4.25391,-7.36718 0.36328,-0.63282 7.66797,-13.27929 z m 52.28711,0 h 15.33398 l -7.66797,13.27929 z m 43.04687,0 h 15.33399 l -3.83203,6.64062 -3.83399,6.63867 h -0.002 z m 33.81055,0 h 9.23633 15.33594 9.23632 l 4.61914,8 7.66797,13.27929 4.61719,8 -4.61719,8 -3.83398,6.64063 -3.83399,6.64062 -4.61914,8 h -9.23828 -24.57031 l -4.61914,-8 -3.83399,-6.64062 -3.83398,-6.64063 -4.61914,-8 12.28711,-21.27929 1.55469,-2.69336 1.13281,-1.96094 z m 52.28516,0 h 15.33398 l -7.66601,13.27929 h -0.002 z m 43.04687,0 h 15.33399 l -7.66602,13.27929 z m 33.81055,0 h 9.23828 15.33398 9.23829 l 12.2871,21.27929 4.61719,7.99805 v 0.002 l -4.61914,8 -3.83203,6.64063 -3.83398,6.64062 -4.61914,8 h -0.002 -9.23633 -15.33398 -9.23828 l -4.61914,-8 -7.66797,-13.28125 -4.61719,-8 8.45313,-14.63867 7.31836,-12.67969 z m 52.28711,0 h 15.33203 l -7.66602,13.27929 z m -874.814456,8 7.667969,13.27929 H 61.855469 l 3.832031,-6.63867 z m 129.144536,0 3.83398,6.64062 3.83398,6.63867 H 191 Z m 129.14257,0 3.83399,6.64062 3.83398,6.63867 h -15.33398 z m 129.14258,0 h 0.002 l 7.66602,13.27929 h -15.33398 l 3.83203,-6.63867 z m 129.14453,0 7.66797,13.27929 h -15.33398 z m 129.14258,0 7.66797,13.27929 h -15.33398 l 3.83398,-6.63867 z m 129.14258,0 h 0.002 l 3.83203,6.64062 3.83399,6.63867 h -15.33399 z m 129.14453,0 7.66602,13.27929 h -15.33203 l 3.83203,-6.63867 z M 61.855469,609.33398 h 15.333984 l -7.667969,13.28125 z m 129.142581,0 h 15.33398 l -7.66601,13.28125 z m 119.90625,0 h 33.80859 0.002 l 4.61719,7.99805 v 0.002 l 7.66792,13.2812 1.13477,1.9668 3.48437,6.0332 v 0.002 l -15.08008,26.11719 -1.82422,3.16015 h -9.23828 -15.33594 -9.23632 -0.002 l -2.14843,-3.7207 -6.30274,-10.91992 -8.45312,-14.63868 4.61914,-8 3.83398,-6.64062 3.83399,-6.64063 z m 138.38086,0 h 15.33398 l -7.66797,13.28125 z m 129.14453,0 h 15.33398 l -7.66797,13.28125 z m 119.90429,0 h 33.8086 0.002 l 4.61914,8 3.83399,6.64063 3.83203,6.64062 3.71679,6.43555 0.90235,1.56445 -16.9043,29.2793 h -9.23828 -15.33398 -9.23829 l -8.45312,-14.64062 -8.45117,-14.63868 v -0.002 l 4.61719,-7.99805 6.65234,-11.52148 1.01562,-1.75977 0.26368,-0.45507 z m 138.38086,0 h 15.33399 l -3.83399,6.64063 -3.83203,6.64062 z m 129.14454,0 h 15.33203 l -7.66602,13.2793 z m -917.861333,8 7.667969,13.28125 H 40.330078 Z m 129.144533,0 3.83398,6.64063 3.83203,6.64062 h -15.33398 z m 43.04687,0 7.66797,13.28125 h -15.33398 -0.002 l 3.83399,-6.64062 z m 215.23828,0 3.83399,6.64063 3.83398,6.64062 h -15.33398 z m 43.04883,0 3.83203,6.64063 3.83399,6.64062 h -15.33399 z m 86.09571,0 7.66796,13.28125 H 556.9043 l 3.83398,-6.64062 z m 43.04687,0 7.66602,13.28125 h -15.33204 -0.002 l 3.83399,-6.64062 z m 215.23828,0 7.66797,13.28125 h -15.33398 l 3.83203,-6.64062 z m 43.04883,0 7.66602,13.28125 h -15.33399 z m 86.0957,0 3.83399,6.64063 3.83398,6.64062 h -15.33398 z m -860.955075,0.002 7.666016,13.27929 H 83.378906 Z m -50.714844,29.27929 h 15.332031 l -7.666015,13.2793 z m 43.046875,0 h 15.333985 l -7.666016,13.2793 h -0.002 l -3.833984,-6.64062 z m 43.048824,0 h 15.33399 l -3.83399,6.63868 -3.83398,6.64062 z m 43.04688,0 h 15.33398 l -3.83203,6.63868 -3.83398,6.64062 h -0.002 z m 43.04687,0 h 15.33594 l -7.66797,13.2793 z m 43.04883,0 h 15.33399 l -7.66602,13.2793 h -0.002 z m 129.14453,0 h 15.33204 l -7.66602,13.2793 z m 43.04688,0 h 15.33398 l -7.66797,13.2793 z m 43.04687,0 h 15.33399 l -7.66602,13.2793 h -0.002 z m 43.04883,0 h 15.33399 l -7.66797,13.2793 z m 43.04688,0 h 15.33593 l -7.66796,13.2793 z m 43.04882,0 h 15.33399 l -7.66797,13.2793 z m 43.04688,0 h 15.33398 l -7.66601,13.2793 h -0.002 l -3.83399,-6.64062 z m 129.14453,0 h 15.33399 l -3.83399,6.63868 -3.83398,6.64062 z m 43.04688,0 h 15.33398 l -7.66601,13.2793 h -0.002 z m 43.04687,0 h 15.33399 l -7.66602,13.2793 z m 43.04883,0 h 15.33398 l -3.83203,6.63868 -3.83398,6.64062 h -0.002 z m 43.04687,0 h 15.33594 l -7.66797,13.2793 z m -917.861324,8 h 0.002 l 7.666016,13.2793 H 18.806641 Z m 43.048828,0 7.667969,13.2793 H 61.855469 l 3.832031,-6.64062 z m 43.048826,0 7.66602,13.2793 h -15.33399 l 3.83399,-6.64062 z m 43.04688,0 h 0.002 l 7.66602,13.2793 h -15.33399 z m 43.04883,0 3.83398,6.63868 3.83203,6.64062 h -15.33398 z m 43.04687,0 7.66797,13.2793 h -15.33398 z m 43.04688,0 h 0.002 l 3.83203,6.63868 3.83398,6.64062 H 277.0938 Z m 86.0957,0 h 0.002 l 7.66602,13.2793 H 363.1895 Z m 43.04883,0 7.66601,13.2793 h -15.33203 l 3.83203,-6.64062 z m 43.04687,0 h 0.002 l 7.66602,13.2793 h -15.33398 l 3.83203,-6.64062 z m 43.04883,0 7.66797,13.2793 h -15.33399 z m 43.04688,0 h 0.002 l 7.66601,13.2793 h -15.33398 z m 43.04882,0 7.66602,13.2793 h -15.33203 z m 43.04688,0 7.66797,13.2793 h -15.33399 z m 43.04883,0 7.66601,13.2793 h -15.33398 l 3.83398,-6.64062 z m 86.0957,0 7.66797,13.2793 h -15.33594 l 3.83398,-6.64062 z m 43.04687,0 L 809,667.89453 H 793.66797 L 797.5,661.25391 Z m 43.04883,0 3.83203,6.63868 3.83399,6.64062 h -15.33399 z m 43.04688,0 3.83398,6.63868 3.83399,6.64062 h -15.33594 z m 43.04883,0 7.66601,13.2793 h -15.33398 z m 43.04687,0 7.66797,13.2793 h -15.33398 l 3.83203,-6.64062 z m -954.718749,29.2793 h 15.333984 l -3.832031,6.64063 -3.833985,6.64062 z m 33.810547,0 h 9.238281 15.333984 9.236328 0.002 l 3.253907,5.63672 1.365234,2.36328 12.285158,21.2793 v 0.002 l -4.619142,8 -3.833985,6.64063 -8.451172,14.63867 h -24.572265 -9.238281 -0.002 l -2.148437,-3.7207 -2.46875,-4.27735 -3.833985,-6.64062 -8.453124,-14.64063 3.091796,-5.35547 9.195313,-15.92578 z m 52.285152,0 h 15.33399 l -7.66602,13.2793 z m 43.04883,0 h 15.33399 l -7.66797,13.28125 z m 33.81055,0 h 9.23633 15.33398 9.23828 l 3.25391,5.63672 1.36523,2.36328 7.66797,13.28125 3.39844,5.88867 1.21875,2.11133 -8.45117,14.64063 -3.83399,6.63867 -4.61914,8 h -9.23828 -24.57031 -0.002 l -4.61719,-7.99805 -7.66797,-13.28125 -4.61914,-8 12.28711,-21.28125 4.61719,-7.99609 z m 52.28516,0 h 15.33398 l -7.66797,13.28125 z m 43.04687,0 h 15.33398 l -3.83398,6.64063 -3.83203,6.64062 z m 33.81055,0 h 9.23632 15.33594 9.23633 0.002 l 3.25391,5.63672 9.03125,15.64453 1.13477,1.9668 3.48437,6.03125 v 0.002 0.002 L 357,721.17578 l -7.66797,13.28125 -0.34961,0.60547 -4.26758,7.39258 h -9.23828 -15.33594 -9.23632 l -4.61914,-7.99805 -3.83399,-6.64062 -3.83398,-6.64063 -2.46875,-4.2793 -2.15039,-3.7207 4.61914,-8 z m 52.28515,0 h 15.33594 l -7.66797,13.28125 z m 43.04688,0 h 0.002 15.33203 l -7.66601,13.2793 z m 33.81055,0 h 9.23828 15.33398 9.23633 0.002 l 4.61914,8 12.28516,21.2793 v 0.002 l -4.61914,8 -3.83399,6.64063 -8.45117,14.63867 h -24.57226 -9.23828 l -16.9043,-29.2793 v -0.002 l 4.61719,-7.99805 3.83398,-6.64062 3.83398,-6.64063 z m 52.2871,0 h 15.33399 L 500,697.17383 Z m 43.04688,0 h 15.33398 l -3.83203,6.64063 -3.83398,6.64062 z m 33.81055,0 h 9.23632 15.33399 H 603 l 4.61914,8 3.83398,6.64063 3.83399,6.64062 3.24805,5.625 1.36914,2.375 -4.61719,8 -2.80859,4.86328 -4.85938,8.41602 -4.61914,8 h -9.23828 -24.57031 l -4.61914,-7.99805 -3.83399,-6.64062 -3.83398,-6.64063 -2.28321,-3.95312 -2.33593,-4.04688 8.36328,-14.48633 3.92383,-6.79492 z m 52.28515,0 h 15.33399 l -7.66797,13.28125 z m 43.04688,0 h 15.33398 l -7.66601,13.28125 z m 33.81054,0 h 9.23829 15.33398 9.23633 l 12.28711,21.28125 4.61914,7.99805 v 0.002 0.002 l -4.61914,7.99805 -3.83203,6.64063 -8.45313,14.63867 h -9.23828 -15.33398 -9.23829 l -8.45312,-14.63867 -3.83398,-6.64063 -1.02149,-1.76953 -3.5957,-6.23047 v -0.002 l 3.08984,-5.35352 1.52735,-2.64453 3.83398,-6.64062 z m 52.28516,0 h 15.33398 l -7.66601,13.2793 z m 43.04688,0 h 0.002 H 809 l -7.66602,13.2793 z m 33.81054,0 h 0.002 9.23632 15.33399 9.23828 l 4.35547,7.54492 0.26367,0.45508 1.01563,1.75977 3.67773,6.37109 7.5918,13.14844 v 0.002 l -4.61719,8 -12.28711,21.2793 h -24.57227 -9.23632 -0.002 l -16.90429,-29.2793 v -0.002 l 4.61718,-7.99805 3.83399,-6.64062 3.83398,-6.64063 2.35547,-4.08008 z m 52.28711,0 h 15.33399 l -3.83399,6.64063 -3.83398,6.64062 z m 43.04688,0 h 15.33398 l -7.66601,13.28125 z m -788.7168,8 7.66797,13.28125 h -15.33594 z m 129.14258,0 7.66797,13.28125 h -15.33594 z m 129.14453,0 3.83398,6.64063 3.83399,6.64062 h -15.33594 z m 129.14258,0 7.66797,13.28125 h -15.33594 z m 129.14258,0 h 0.002 l 7.66797,13.28125 H 642.9981 Z m 129.14453,0 3.83398,6.64063 3.83399,6.64062 h -15.33594 z m 129.14257,0 7.66797,13.28125 h -15.33593 z m -791.76367,29.28125 h 33.8086 0.002 l 4.61719,7.99805 7.66797,13.28125 4.61914,8 -13.65039,23.64453 L 151,779.73633 h -0.002 -9.23633 -15.33594 -9.23633 -0.002 l -3.74219,-6.48438 -3.55469,-6.15625 -9.60742,-16.64062 4.61914,-8 3.83399,-6.63867 3.83398,-6.64258 z m 138.38086,0 h 15.33399 l -7.66797,13.2793 z m 129.14453,0 h 15.33399 l -7.66797,13.2793 z m 119.9043,0 h 33.81055 l 8.45312,14.64063 3.83203,6.63867 4.61914,8 v 0.002 l -16.90429,29.2793 h -0.002 -9.23632 -15.33594 -9.23633 l -8.45312,-14.64063 -7.08204,-12.26562 -1.36914,-2.375 4.61719,-8 3.83399,-6.63867 z m 138.38086,0 h 15.33398 l -3.83398,6.64063 -3.83203,6.63867 h -0.002 z m 129.14258,0 h 15.33398 l -7.66601,13.2793 z m 119.90625,0 h 33.81055 l 8.45312,14.64063 3.83203,6.63867 4.61914,8 v 0.002 l -10.45117,18.10156 -3.9707,6.87891 -2.48242,4.29883 h -9.23829 -15.33398 -9.23828 l -16.9043,-29.28125 6.85352,-11.8711 5.43164,-9.41015 3.48633,-6.03711 z m -865.574221,8 3.833985,6.64063 3.832031,6.63867 H 18.806641 Z m 215.238281,0 7.66602,13.2793 h -15.33203 z m 43.04688,0 h 0.002 l 7.66601,13.2793 H 277.0938 Z m 86.0957,0 h 0.002 l 7.66602,13.2793 H 363.1895 Z m 43.04883,0 7.66601,13.2793 h -15.33203 z m 215.23828,0 7.66797,13.2793 h -15.33594 z m 43.04883,0 7.66601,13.2793 h -15.33398 z m 86.0957,0 7.66601,13.2793 h -15.33398 l 3.83398,-6.63867 z m 43.04687,0 7.66602,13.2793 h -15.33203 z m -782.527339,29.2793 h 15.335937 l -7.667969,13.28125 z m 43.046875,0 h 15.335937 l -7.667969,13.28125 z m 129.144534,0 h 15.33398 0.002 l -7.66796,13.28125 z m 43.04883,0 h 15.33398 l -7.66797,13.28125 z m 43.04687,0 h 15.33594 l -7.66797,13.28125 z m 43.04687,0 h 15.33594 l -7.66797,13.28125 z m 43.04883,0 h 15.33399 l -7.66602,13.28125 z m 43.04688,0 h 0.002 15.33399 l -7.66797,13.28125 z m 43.04883,0 h 15.33398 l -7.66797,13.28125 z m 129.14257,0 h 15.33399 0.002 l -7.66797,13.28125 z m 43.04883,0 h 15.33399 l -7.66797,13.28125 z m 43.04688,0 h 15.33594 l -7.66797,13.28125 z m 43.04883,0 h 15.33398 l -7.66797,13.28125 z m 43.04687,0 h 15.33398 l -7.66601,13.28125 z m 43.04688,0 h 0.002 15.33398 l -7.66797,13.28125 z m 43.04882,0 h 15.33594 l -7.66797,13.28125 z m 129.14258,0 h 15.33594 l -7.66797,13.2793 z m -788.71484,8 3.83398,6.64062 3.83203,6.64063 h -15.33398 z m 43.04687,0 7.66602,13.28125 h -15.33399 z m 86.09571,0 7.66796,13.28125 h -15.33593 l 3.83398,-6.64063 z m 43.04687,0 h 0.002 L 357,779.73633 H 341.66602 L 345.5,773.0957 Z m 86.0957,0 3.83399,6.64062 3.83398,6.64063 h -15.33593 z m 43.04883,0 3.83203,6.64062 3.83399,6.64063 h -15.33399 z m 129.14258,0 7.66797,13.28125 h -15.33399 -0.002 l 3.83399,-6.64063 z m 43.04688,0 h 0.002 v 0.002 l 7.66601,13.2793 H 643 l 3.83203,-6.64063 z m 43.04882,0 7.66797,13.28125 h -15.33398 z m 43.04883,0 3.83399,6.64062 3.83203,6.64063 H 729.0957 Z m 86.09375,0 7.66797,13.28125 h -15.33594 z m 43.04883,0 7.66602,13.28125 h -15.33399 z m -817.908203,0.002 7.666015,13.2793 H 40.330078 Z m 43.048828,0 3.832031,6.63867 3.833985,6.64063 H 83.378906 Z m 172.189455,0 7.66797,13.2793 h -15.33399 z m 129.14453,0 3.83398,6.63867 3.83399,6.64063 h -0.002 -15.33399 z m 172.19141,0 7.66601,13.2793 H 556.9043 Z m 215.23828,0 3.83398,6.63867 3.83399,6.64063 h -15.33594 z m 172.1914,0 7.66602,13.2793 h -15.33399 z m -911.671872,29.2793 h 15.335938 l -7.667969,13.28125 z m 43.048828,0 h 15.333985 l -3.833985,6.64062 -3.832031,6.63867 z m 33.810544,0 h 9.23633 15.33594 9.23633 0.002 l 12.28516,21.28125 4.61914,8 -4.61914,8 -3.83204,6.63867 -3.83593,6.64063 v 0.002 L 151,854.29688 h -0.002 -9.23633 -15.33594 -9.23633 l -4.61914,-8 -7.66797,-13.2793 -4.61914,-8 4.40625,-7.63086 0.21289,-0.36914 1.01563,-1.75977 2.07031,-3.58593 z m 52.28516,0 h 15.33398 l -3.83203,6.64062 -3.83398,6.64063 z m 43.04687,0 h 0.002 15.33203 l -7.66602,13.28125 z m 33.81055,0 h 9.23828 15.33399 9.23632 0.002 l 4.61914,8 12.28516,21.27929 v 0.002 l -4.61915,8 -3.83398,6.63867 -3.83203,6.64063 -4.61914,8 h -24.57227 -9.23828 l -4.61914,-8 -7.66797,-13.2793 -4.61719,-8 v -0.002 l 4.61719,-7.99804 3.83399,-6.64063 3.83398,-6.64062 z m 52.28516,0 h 15.33593 l -7.66796,13.28125 z m 43.04883,0 H 357 l -3.83203,6.64062 -3.83399,6.64063 h -0.002 z m 33.81054,0 h 9.23633 15.33399 9.23828 l 4.61914,8 7.66797,13.28125 4.61718,7.99804 v 0.002 l -8.45117,14.63867 -3.83398,6.64063 -4.61914,8 h -9.23828 -24.57032 l -3.06445,-5.30665 -1.55469,-2.6914 v -0.002 l -7.66797,-13.2793 -1.55468,-2.69336 -3.06446,-5.30664 12.28711,-21.28125 z m 52.28516,0 h 15.33398 l -7.66797,13.28125 z m 43.04687,0 h 15.33399 l -3.83399,6.64062 -3.83203,6.64063 z m 33.81055,0 h 9.23828 15.33399 9.23632 l 12.28711,21.28125 4.61914,7.99804 v 0.002 l -4.61914,8 -7.66601,13.2793 -4.61914,8 h -9.23828 -15.33594 -9.23633 l -3.06445,-5.30665 -1.55469,-2.69335 -7.66797,-13.2793 -1.55469,-2.69336 -3.0625,-5.30664 v -0.002 l 4.61719,-7.99804 3.83399,-6.64063 z m 52.28516,0 h 15.33593 l -7.66796,13.28125 z m 43.04687,0 h 0.002 15.33204 l -7.66602,13.28125 z m 33.81055,0 H 643 h 15.33398 9.23829 l 2.49609,4.32422 2.12305,3.67578 12.28515,21.28125 -3.4375,5.95508 -1.17968,2.04492 -7.66797,13.2793 -4.61914,8 H 643 633.76172 l -4.61914,-8 -12.28516,-21.2793 4.61719,-8 3.83398,-6.64063 3.83399,-6.64062 z m 52.28711,0 h 15.33398 l -3.83398,6.64062 -3.83399,6.64063 z m 43.04687,0 h 15.33399 l -3.83203,6.64062 -3.83399,6.64063 z m 33.81055,0 h 9.23633 15.33398 9.23828 l 4.61914,8 3.83399,6.64062 3.83398,6.64063 4.61719,8 -4.61719,8 -7.66797,13.2793 -4.61914,8 h -9.23632 -24.57227 l -3.14844,-5.45313 -0.42383,-0.73437 -1.04687,-1.8125 -7.66797,-13.2793 -1.29492,-2.24414 -3.32422,-5.75586 7.70508,-13.3457 0.74804,-1.29493 3.83399,-6.64062 z m 52.28516,0 h 15.33398 l -7.66797,13.28125 z m 43.04687,0 h 15.33399 l -7.66602,13.28125 z m 33.81055,0 h 9.23828 15.33398 9.23829 l 8.45312,14.64062 3.83203,6.64063 4.61914,8 v 0.002 l -4.2539,7.36524 -0.36329,0.63281 -1.49804,2.59375 -2.33594,4.04492 -3.83398,6.64063 -4.61914,8 h -9.23829 -15.33398 -9.23828 l -4.61914,-8 -12.28516,-21.2793 4.61719,-8 7.08789,-12.27539 z m 52.28711,0 h 15.33398 l -3.83398,6.64062 -3.83399,6.64063 z m -874.814456,8 7.667969,13.28125 H 61.853516 Z m 129.144536,0 3.83398,6.64062 3.83203,6.64063 h -15.33398 z m 129.14257,0 3.83399,6.64062 3.83398,6.64063 h -15.33398 z m 129.14258,0 7.66797,13.28125 h -15.33398 l 3.83203,-6.64063 z m 129.14453,0 7.66797,13.28125 h -15.33398 z m 129.14258,0 7.66797,13.28125 h -15.33594 z m 129.14453,0 3.83203,6.64062 3.83399,6.64063 h -15.33399 z m 129.14258,0.002 7.66602,13.2793 h -15.33399 z m -911.669921,29.2793 h 15.333984 l -7.666015,13.2793 h -0.002 z m 129.144531,0 h 15.33398 l -3.83398,6.63867 -3.83398,6.64063 z m 119.9043,0 h 33.80859 0.002 l 4.61719,7.99804 3.83594,6.64063 3.83203,6.64063 4.61914,8 v 0.002 l -8.45117,14.63867 -8.45313,14.64062 h -0.002 -9.23633 -15.33594 -9.23632 l -8.45313,-14.64062 -8.45312,-14.64062 3.14843,-5.45313 1.47071,-2.54687 3.83398,-6.64063 3.83399,-6.63867 1.55468,-2.69336 z m 138.38086,0 h 15.33398 l -7.66602,13.2793 h -0.002 z m 129.14257,0 h 15.33594 l -7.66797,13.2793 z m 119.90625,0 h 33.81055 l 4.61914,8 3.83399,6.63867 3.83203,6.64063 4.61914,8 v 0.002 l -16.9043,29.27929 h -0.002 -9.23633 -15.33398 -9.23829 l -7.70507,-13.3457 -8.38868,-14.5293 -0.8125,-1.40624 3.57227,-6.1875 1.04688,-1.8125 7.66796,-13.2793 0.92969,-1.61133 z m 138.38086,0 h 15.33399 l -3.83399,6.63867 -3.83203,6.64063 z m 129.14454,0 h 15.33203 l -7.66602,13.2793 z m -917.861333,8 7.666015,13.2793 H 40.330078 Z m 43.046875,0 h 0.002 l 3.832031,6.63867 3.833985,6.64063 H 83.378906 Z m 86.095698,0 h 0.002 l 3.83398,6.63867 3.83203,6.64063 h -15.33398 z m 43.04883,0 7.66602,13.2793 h -15.33399 z m 215.23828,0 3.83399,6.63867 3.83398,6.64063 h -15.33398 z m 43.04883,0 3.83203,6.63867 3.83399,6.64063 h -15.33399 z m 86.09571,0 7.66601,13.2793 H 556.9043 l 3.83398,-6.64063 z m 43.04687,0 7.66602,13.2793 h -15.33204 z m 215.23828,0 h 0.002 l 7.66601,13.2793 h -15.33398 z m 43.04883,0 7.66602,13.2793 h -15.33399 z m 86.0957,0 7.66602,13.2793 h -15.33399 z m -911.671872,29.2793 h 15.335938 l -3.833985,6.64062 -3.833984,6.64062 z m 43.048828,0 h 15.333985 l -3.833985,6.64062 -3.832031,6.64062 z m 43.048824,0 h 15.33399 l -3.83399,6.64062 -3.83398,6.64062 z m 43.04688,0 h 15.33398 l -3.83203,6.64062 -3.83398,6.64062 z m 43.04687,0 h 0.002 15.33203 l -7.66602,13.28124 z m 43.04883,0 h 15.33399 l -7.66797,13.28124 z m 129.14453,0 h 15.33204 0.002 l -3.83399,6.64062 -3.83398,6.64062 z m 43.04688,0 h 15.33398 l -3.83398,6.64062 -3.83399,6.64062 z m 43.04687,0 h 15.33399 l -3.83399,6.64062 -3.83203,6.64062 z m 43.04883,0 h 15.33399 l -7.66797,13.28124 z m 43.04688,0 h 15.33398 l -7.66601,13.28124 z m 43.04687,0 h 0.002 15.33204 l -7.66602,13.28124 z m 43.04883,0 h 15.33398 l -3.83398,6.64062 -3.83203,6.64062 z m 129.14258,0 h 15.33398 0.002 l -7.66797,13.28124 z m 43.04883,0 h 15.33398 l -7.66797,13.27929 z m 43.04687,0 h 15.33399 l -7.66602,13.28124 z m 43.04883,0 h 15.33398 l -7.66797,13.27929 z m 43.04687,0 h 15.33594 l -3.83398,6.64062 -3.83399,6.64062 z m -917.859371,8 3.833985,6.64062 3.832031,6.64062 H 18.806641 Z m 43.046875,0 7.667969,13.28124 H 61.855469 Z m 43.048826,0 7.66602,13.28124 h -15.33399 z m 43.04688,0 7.66797,13.28124 h -15.33399 z m 43.04883,0 3.83398,6.64062 3.83203,6.64062 h -15.33398 z m 43.04687,0 3.83399,6.64062 3.83398,6.64062 h -15.33594 z m 43.04883,0 3.83203,6.64062 3.83398,6.64062 h -15.33398 z m 86.0957,0 7.66602,13.28124 h -15.33399 z m 43.04688,0 7.66601,13.28124 h -15.33203 -0.002 z m 43.04687,0 7.66797,13.28124 h -15.33398 z m 43.04883,0 3.83398,6.64062 3.83399,6.64062 h -15.33594 z m 43.04883,0 3.83398,6.64062 3.83203,6.64062 h -15.33398 z m 43.04687,0 3.83399,6.64062 3.83398,6.64062 h -0.002 -15.33399 z m 43.04688,0 7.66797,13.28124 h -15.33594 l 0.0332,-0.0566 z m 43.04883,0 7.66601,13.28124 h -15.33398 z m 129.14257,0 3.83399,6.64062 3.83398,6.64062 h -15.33398 z m 43.04883,0 3.83203,6.64062 3.83399,6.64062 h -15.33399 z m 43.04688,0 3.83398,6.64062 3.83399,6.64062 h -15.33594 z m 43.04883,0 3.83398,6.64062 3.83203,6.64062 h -15.33398 z m 43.04687,0 7.66797,13.28124 h -15.33398 z m -215.23828,0.002 7.66601,13.27929 h -15.33398 z m -739.480469,29.2791 h 15.333984 l -7.666016,13.2793 z m 86.095699,0 h 15.33399 l -7.66602,13.2793 z m 43.04883,0 h 15.33399 l -7.66602,13.2793 h -0.002 z m 86.09375,0 h 15.33594 l -3.83398,6.64063 -3.83399,6.63867 z m 43.04883,0 h 15.33398 l -7.66601,13.2793 h -0.002 z m 86.0957,0 h 15.33399 l -7.66602,13.2793 z m 43.04883,0 h 15.33399 l -7.66797,13.2793 -3.83399,-6.63867 z m 86.09375,0 h 15.33399 L 500,920.85742 Z m 43.04883,0 h 15.33398 l -7.66601,13.2793 z m 86.09375,0 h 15.33594 l -7.66797,13.2793 z m 43.04883,0 h 15.33594 l -7.66797,13.2793 z m 86.0957,0 h 15.33398 l -7.66601,13.2793 z m 43.04883,0 h 15.33398 l -7.66797,13.2793 z m 86.09375,0 h 15.33594 l -3.83399,6.64063 -3.83398,6.63867 z m 43.04883,0 h 15.33593 l -7.66796,13.2793 z m -788.7168,8 3.83398,6.64063 3.83399,6.63867 h -15.33594 z m 129.14258,0 h 0.002 l 7.66602,13.2793 h -15.33399 z m 129.14453,0 3.83398,6.64063 3.83204,6.63867 h -15.33399 z m 129.14258,0 h 0.002 l 7.66602,13.2793 h -15.33399 z m 129.14258,0 h 0.002 l 3.83203,6.64063 3.83398,6.63867 H 643 Z m 129.14453,0 3.83398,6.64063 3.83203,6.63867 h -15.33203 l 4.70508,-8.15039 z m 129.14257,0 h 0.002 l 3.83398,6.64063 3.83203,6.63867 h -15.33398 z m -653.38281,29.2793 h 15.33399 l -7.66797,13.2793 z m 129.14258,0 h 15.33399 l -7.66602,13.28125 z m 258.28711,0 h 15.33398 l -7.66601,13.28125 h -0.002 z m 129.14453,0 h 15.33203 l -7.66601,13.28125 z"
     id="path834" />
</svg>
