<?xml version="1.0" encoding="UTF-8" standalone="no"?>
<svg
   xmlns:dc="http://purl.org/dc/elements/1.1/"
   xmlns:cc="http://creativecommons.org/ns#"
   xmlns:rdf="http://www.w3.org/1999/02/22-rdf-syntax-ns#"
   xmlns:svg="http://www.w3.org/2000/svg"
   xmlns="http://www.w3.org/2000/svg"
   xmlns:sodipodi="http://sodipodi.sourceforge.net/DTD/sodipodi-0.dtd"
   xmlns:inkscape="http://www.inkscape.org/namespaces/inkscape"
   inkscape:version="1.0.1 (3bc2e813f5, 2020-09-07)"
   sodipodi:docname="5-uniform_236.svg"
   id="c:\kuniform\5u\5-uniform_236.svg"
   height="978.98517"
   width="1000.0"
   version="1.0">
  <metadata
     id="metadata139153">
    <rdf:RDF>
      <cc:Work
         rdf:about="">
        <dc:format>image/svg+xml</dc:format>
        <dc:type
           rdf:resource="http://purl.org/dc/dcmitype/StillImage" />
        <dc:title></dc:title>
      </cc:Work>
    </rdf:RDF>
  </metadata>
  <defs
     id="defs139151" />
  <sodipodi:namedview
     inkscape:current-layer="c:\kuniform\5u\5-uniform_236.svg"
     inkscape:window-maximized="1"
     inkscape:window-y="-9"
     inkscape:window-x="-9"
     inkscape:cy="461.76519"
     inkscape:cx="230.31294"
     inkscape:zoom="0.49491202"
     showgrid="false"
     id="namedview139149"
     inkscape:window-height="1001"
     inkscape:window-width="1920"
     inkscape:pageshadow="2"
     inkscape:pageopacity="0"
     guidetolerance="10"
     gridtolerance="10"
     objecttolerance="10"
     borderopacity="1"
     inkscape:document-rotation="0"
     bordercolor="#666666"
     pagecolor="#ffffff" />
  <!-- X Coordinate transform: fx(x)=(x+80.75)*0.86095566-->
  <!-- Y Coordinate transform: fy(y)=(1068.5457-y)*0.86095566 -->
  <path
     style="color:#000000;font-style:normal;font-variant:normal;font-weight:normal;font-stretch:normal;font-size:medium;line-height:normal;font-family:sans-serif;font-variant-ligatures:normal;font-variant-position:normal;font-variant-caps:normal;font-variant-numeric:normal;font-variant-alternates:normal;font-variant-east-asian:normal;font-feature-settings:normal;font-variation-settings:normal;text-indent:0;text-align:start;text-decoration:none;text-decoration-line:none;text-decoration-style:solid;text-decoration-color:#000000;letter-spacing:normal;word-spacing:normal;text-transform:none;writing-mode:lr-tb;direction:ltr;text-orientation:mixed;dominant-baseline:auto;baseline-shift:baseline;text-anchor:start;white-space:normal;shape-padding:0;shape-margin:0;inline-size:0;clip-rule:nonzero;display:inline;overflow:visible;visibility:visible;isolation:auto;mix-blend-mode:normal;color-interpolation:sRGB;color-interpolation-filters:linearRGB;solid-color:#000000;solid-opacity:1;vector-effect:none;fill:#000000;fill-opacity:1;fill-rule:nonzero;stroke:none;stroke-width:16;stroke-linecap:butt;stroke-linejoin:miter;stroke-miterlimit:4;stroke-dasharray:none;stroke-dashoffset:0;stroke-opacity:1;color-rendering:auto;image-rendering:auto;shape-rendering:auto;text-rendering:auto;enable-background:accumulate;stop-color:#000000;stop-opacity:1;opacity:1"
     d="M 91.046875 -11.154297 L 84.119141 0.84570312 L 84.117188 0.84570312 L 64.904297 34.126953 L 55.666016 34.126953 L 60.285156 42.126953 L 55.666016 50.126953 L 64.902344 50.126953 L 64.904297 50.126953 L 81.808594 79.40625 L 64.902344 108.6875 L 26.474609 108.6875 L 12.617188 108.6875 L 19.544922 120.6875 L 38.759766 153.96875 L 21.855469 183.24805 L 12.617188 183.24805 L 17.236328 191.25 L 12.617188 199.24805 L 21.853516 199.24805 L 38.759766 228.52734 L 38.759766 228.5293 L 34.140625 236.5293 L 19.544922 261.81055 L 17.236328 265.81055 L 19.544922 269.81055 L 34.142578 295.08984 L 38.759766 303.08984 L 30.308594 317.73047 L 21.855469 332.37109 L 12.617188 332.37109 L 17.236328 340.37109 L 12.617188 348.37109 L 21.853516 348.37109 L 21.855469 348.37109 L 38.759766 377.64844 L 38.759766 377.65039 L 34.140625 385.65039 L 26.474609 398.93164 L 23.619141 403.87695 L 21.873047 406.90234 L 21.855469 406.93164 L 12.617188 406.93164 L 17.236328 414.93164 L 12.617188 422.93164 L 0.33203125 444.20898 L -1.9785156 448.21289 L -8.90625 460.21289 L 4.9492188 460.21289 L 43.378906 460.21289 L 43.380859 460.21289 L 47.998047 468.21094 L 55.666016 481.49219 L 60.283203 489.49219 L 43.378906 518.77344 L 34.142578 518.77344 L 38.759766 526.77148 L 38.759766 526.77344 L 34.140625 534.77344 L 43.378906 534.77344 L 55.666016 556.05469 L 60.283203 564.05078 L 60.283203 564.05469 L 55.666016 572.05469 L 47.998047 585.33398 L 43.378906 593.33398 L 34.142578 593.33398 L 4.9492188 593.33398 L -8.90625 593.33398 L -1.9785156 605.33398 L 17.236328 638.61523 L 12.617188 646.61523 L -1.9785156 671.89453 L -4.2871094 675.89453 L -1.9785156 679.89453 L 17.236328 713.17383 L 17.236328 713.17578 L -1.9785156 746.45508 L -4.2871094 750.45508 L -1.9785156 754.45508 L 12.617188 779.73633 L 19.544922 791.73633 L 21.855469 795.73633 L 38.759766 825.01758 L 34.142578 833.01758 L 26.474609 846.29688 L 19.544922 858.29688 L 17.236328 862.29688 L 0.33203125 891.57812 L -8.90625 891.57812 L -4.2871094 899.57812 L -8.90625 907.57812 L 0.33007812 907.57812 L 0.33203125 907.57812 L 19.544922 940.85742 L 26.474609 952.85742 L 33.402344 940.85742 L 52.617188 907.57812 L 61.853516 907.57812 L 77.189453 907.57812 L 86.427734 907.57812 L 98.712891 928.85742 L 101.66797 933.97656 L 103.33203 936.85547 L 103.33203 936.85742 L 98.712891 944.85742 L 107.95117 944.85742 L 112.57031 952.85742 L 127.16602 978.13867 L 134.09375 990.13867 L 141.02148 978.13867 L 151.78516 959.49805 L 155.61719 952.85742 L 170.21484 978.13867 L 177.14258 990.13867 L 184.07031 978.13867 L 203.28516 944.85742 L 205.59375 940.85742 L 212.52148 928.85742 L 216.35547 922.21875 L 220.18945 915.57812 L 224.80664 907.57812 L 224.80859 907.57812 L 258.61719 907.57812 L 258.61914 907.57812 L 263.23633 915.57617 L 270.9043 928.85742 L 277.83203 940.85742 L 280.14258 944.85742 L 299.35742 978.13867 L 306.28516 990.13867 L 313.21289 978.13867 L 332.42773 944.85742 L 366.23828 944.85742 L 385.45312 978.13867 L 392.38086 990.13867 L 399.30859 978.13867 L 413.9043 952.85742 L 428.5 978.13867 L 435.42773 990.13867 L 442.35547 978.13867 L 456.95117 952.85742 L 461.57031 944.85742 L 461.57227 944.85742 L 470.80859 944.85742 L 486.14258 944.85742 L 495.38086 944.85742 L 500 952.85742 L 514.5957 978.13867 L 521.52344 990.13867 L 528.45117 978.13867 L 528.45312 978.13867 L 547.66602 944.85742 L 547.66797 944.85742 L 556.9043 944.85742 L 572.24023 944.85742 L 581.47656 944.85742 L 589.92969 959.49805 L 600.69141 978.13867 L 607.61914 990.13867 L 614.54688 978.13867 L 629.14258 952.85742 L 633.76172 944.85742 L 643 944.85742 L 638.38086 936.85742 L 643 928.85742 L 655.28516 907.57812 L 689.0957 907.57812 L 689.09766 907.57812 L 691.02734 910.92383 L 706.00195 936.85742 L 701.38281 944.85742 L 710.61914 944.85742 L 710.62109 944.85742 L 715.23828 952.85742 L 719.85742 944.85742 L 753.66797 944.85742 L 758.28711 952.85742 L 762.90625 944.85742 L 772.14258 944.85742 L 767.52539 936.85742 L 774.10156 925.4668 L 779.81055 915.57812 L 780.99609 913.52539 L 784.42969 907.57812 L 793.66797 907.57812 L 809.00195 907.57812 L 818.23828 907.57812 L 818.24023 907.57812 L 822.85742 915.57617 L 822.85742 915.57812 L 837.45312 940.85742 L 844.38281 952.85742 L 851.31055 940.85742 L 870.52344 907.57812 L 870.52539 907.57812 L 879.76172 907.57812 L 895.09766 907.57812 L 904.33594 907.57812 L 908.58984 914.94531 L 916.62109 928.85742 L 921.24023 936.85742 L 916.62109 944.85742 L 925.85742 944.85742 L 925.85938 944.85742 L 930.47852 952.85742 L 934.3125 959.49805 L 945.07422 978.13867 L 952.00195 990.13867 L 958.92969 978.13867 L 978.14453 944.85742 L 987.38281 944.85742 L 982.76367 936.85742 L 987.38281 928.85742 L 978.14648 928.85742 L 978.14453 928.85742 L 961.24023 899.58008 L 961.24023 899.57812 L 965.85938 891.57812 L 978.14453 870.29688 L 980.45508 866.29688 L 986.51562 855.79688 L 987.38281 854.29688 L 1001.9766 829.01758 L 1004.2871 825.01758 L 1001.9766 821.01758 L 991.21484 802.37695 L 987.38281 795.73633 L 982.76367 787.73633 L 1001.9766 754.45508 L 1008.9043 742.45508 L 995.04883 742.45508 L 965.85938 742.45508 L 956.62109 742.45508 L 956.61914 742.45508 L 952.00195 734.45703 L 944.33398 721.17578 L 939.7168 713.17578 L 944.33398 705.17578 L 944.36719 705.11914 L 956.62109 683.89453 L 995.04883 683.89453 L 1008.9043 683.89453 L 1001.9766 671.89453 L 982.76367 638.61523 L 999.66797 609.33398 L 1008.9043 609.33398 L 1004.2871 601.33594 L 1004.2871 601.33398 L 1004.2871 601.33203 L 1008.9043 593.33398 L 999.66797 593.33398 L 982.76367 564.05664 L 982.76367 564.05469 L 984.69922 560.70312 L 987.38281 556.05469 L 991.21484 549.41406 L 1001.9766 530.77344 L 1004.2871 526.77344 L 1001.9766 522.77344 L 987.38281 497.49219 L 980.45508 485.49219 L 978.14453 481.49219 L 961.24023 452.21289 L 961.24023 452.21094 L 975.66211 427.23047 L 978.14453 422.93164 L 987.38281 422.93164 L 982.76367 414.93164 L 987.38281 406.93164 L 978.14648 406.93164 L 978.14453 406.93164 L 962.42773 379.70703 L 961.24023 377.65039 L 965.85742 369.65039 L 973.52539 356.37109 L 974.45312 354.76367 L 976.00586 352.07617 L 980.45508 344.37109 L 982.76367 340.37109 L 1001.9766 307.08984 L 1008.9043 295.08984 L 995.04883 295.08984 L 956.62109 295.08984 L 939.7168 265.81055 L 956.62109 236.5293 L 965.85938 236.5293 L 961.24023 228.5293 L 961.24023 228.52734 L 965.85742 220.5293 L 956.62109 220.5293 L 939.7168 191.24805 L 944.33398 183.24805 L 952.00195 169.96875 L 956.62109 161.96875 L 995.04883 161.96875 L 1008.9043 161.96875 L 1001.9766 149.96875 L 982.76367 116.6875 L 984.06836 114.42773 L 987.38281 108.6875 L 991.21484 102.04688 L 1001.9766 83.40625 L 1004.2871 79.40625 L 1001.9766 75.40625 L 991.21484 56.765625 L 980.45508 38.126953 L 978.14453 34.126953 L 973.52539 34.126953 L 944.33398 34.126953 L 935.0957 34.126953 L 915.88281 0.84570312 L 915.88086 0.84570312 L 908.95312 -11.154297 L 902.02539 0.84570312 L 887.42969 26.126953 L 872.83398 0.84570312 L 865.90625 -11.154297 L 858.97852 0.84570312 L 848.21484 19.486328 L 844.38281 26.126953 L 829.78711 0.84570312 L 829.78516 0.84570312 L 822.85742 -11.154297 L 815.92969 0.84570312 L 805.16797 19.486328 L 801.33398 26.126953 L 796.71484 34.126953 L 787.47656 34.126953 L 762.90625 34.126953 L 743.69141 0.84570312 L 736.76367 -11.154297 L 729.83594 0.84570312 L 729.83398 0.84570312 L 710.62109 34.126953 L 710.61914 34.126953 L 676.81055 34.126953 L 672.19141 26.126953 L 667.57227 34.126953 L 658.33398 34.126953 L 662.95312 42.126953 L 662.95312 42.128906 L 646.04883 71.40625 L 646.04688 71.40625 L 636.81055 71.40625 L 621.47461 71.40625 L 612.23828 71.40625 L 595.33398 42.126953 L 599.95312 34.126953 L 590.71484 34.126953 L 586.0957 26.126953 L 581.47656 34.126953 L 556.9043 34.126953 L 547.66797 34.126953 L 543.04883 26.126953 L 528.45312 0.84570312 L 528.45117 0.84570312 L 521.52344 -11.154297 L 514.5957 0.84570312 L 512.85156 3.8671875 L 500 26.126953 L 495.38086 34.126953 L 486.14258 34.126953 L 490.76172 42.126953 L 490.76172 42.128906 L 478.47656 63.40625 L 477.29102 65.458984 L 473.85742 71.40625 L 473.85547 71.40625 L 464.61914 71.40625 L 440.04688 71.40625 L 420.83203 38.126953 L 413.9043 26.126953 L 406.97656 38.126953 L 396.21484 56.765625 L 387.76367 71.40625 L 387.76172 71.40625 L 353.95117 71.40625 L 349.33203 63.40625 L 345.5 56.765625 L 341.66602 50.126953 L 334.73633 38.126953 L 332.42773 34.126953 L 313.21289 0.84570312 L 306.28516 -11.154297 L 299.35742 0.84570312 L 288.59375 19.486328 L 280.14258 34.126953 L 278.82812 36.402344 L 277.83203 38.126953 L 270.9043 50.126953 L 263.23633 63.40625 L 258.61914 71.40625 L 258.61719 71.40625 L 234.04492 71.40625 L 224.80859 71.40625 L 220.18945 63.40625 L 212.52148 50.126953 L 207.9043 42.128906 L 207.9043 42.126953 L 212.52344 34.126953 L 203.28516 34.126953 L 198.66602 26.126953 L 184.07031 0.84570312 L 177.14258 -11.154297 L 170.21484 0.84570312 L 170.21289 0.84570312 L 151 34.126953 L 150.99805 34.126953 L 141.76172 34.126953 L 126.42578 34.126953 L 117.18945 34.126953 L 108.73633 19.486328 L 97.974609 0.84570312 L 91.046875 -11.154297 z M 91.046875 20.845703 L 98.714844 34.126953 L 83.378906 34.126953 L 91.046875 20.845703 z M 177.14258 20.845703 L 184.81055 34.126953 L 169.47461 34.126953 L 177.14258 20.845703 z M 306.28516 20.845703 L 313.95312 34.126953 L 298.61719 34.126953 L 306.28516 20.845703 z M 736.76367 20.845703 L 744.42969 34.126953 L 729.0957 34.126953 L 736.76367 20.845703 z M 822.85742 20.845703 L 830.52539 34.126953 L 815.18945 34.126953 L 822.85742 20.845703 z M 865.90625 20.845703 L 873.57422 34.126953 L 858.23828 34.126953 L 865.90625 20.845703 z M 521.52344 20.847656 L 529.19141 34.126953 L 513.85742 34.126953 L 521.52344 20.847656 z M 908.95312 20.847656 L 916.62109 34.126953 L 901.28711 34.126953 L 908.95312 20.847656 z M 83.378906 50.126953 L 98.712891 50.126953 L 91.046875 63.40625 L 83.378906 50.126953 z M 117.1875 50.126953 L 117.18945 50.126953 L 126.42578 50.126953 L 141.76172 50.126953 L 150.99805 50.126953 L 151 50.126953 L 160.32422 66.277344 L 163.28516 71.40625 L 166.08008 76.246094 L 167.9043 79.40625 L 164.41992 85.439453 L 163.28516 87.40625 L 155.61719 100.6875 L 155.61719 100.68945 L 151 108.68359 L 151 108.6875 L 150.99805 108.6875 L 141.76172 108.6875 L 117.18945 108.6875 L 108.73633 94.046875 L 100.2832 79.40625 L 108.73633 64.765625 L 117.1875 50.126953 z M 169.47461 50.126953 L 184.80859 50.126953 L 177.14258 63.40625 L 177.14062 63.40625 L 169.47461 50.126953 z M 289.38086 50.126953 L 323.18945 50.126953 L 331.64258 64.765625 L 335.47656 71.40625 L 340.0957 79.40625 L 332.39062 92.751953 L 323.18945 108.6875 L 313.95312 108.6875 L 298.61719 108.6875 L 289.38086 108.6875 L 289.37891 108.6875 L 280.92578 94.046875 L 275.95898 85.439453 L 272.47461 79.408203 L 272.47461 79.40625 L 277.09375 71.40625 L 289.38086 50.126953 z M 513.85742 50.126953 L 529.19141 50.126953 L 521.52344 63.40625 L 517.69141 56.765625 L 513.85742 50.126953 z M 556.9043 50.126953 L 572.24023 50.126953 L 564.57227 63.40625 L 556.9043 50.126953 z M 686.04883 50.126953 L 701.38281 50.126953 L 697.54883 56.765625 L 693.71484 63.40625 L 686.04883 50.126953 z M 719.85742 50.126953 L 753.66797 50.126953 L 770.57227 79.40625 L 770.57227 79.408203 L 765.95508 87.40625 L 758.28711 100.6875 L 753.66797 108.6875 L 729.0957 108.6875 L 719.85742 108.6875 L 715.23828 100.6875 L 711.40625 94.046875 L 707.57227 87.40625 L 702.95312 79.408203 L 702.95312 79.40625 L 707.57227 71.40625 L 711.40625 64.765625 L 719.85742 50.126953 z M 772.14453 50.126953 L 787.47852 50.126953 L 779.81055 63.40625 L 772.14453 50.126953 z M 815.19141 50.126953 L 830.52539 50.126953 L 822.85938 63.40625 L 822.85742 63.40625 L 815.19141 50.126953 z M 849 50.126953 L 849.00195 50.126953 L 858.23828 50.126953 L 873.57422 50.126953 L 882.81055 50.126953 L 882.8125 50.126953 L 890.10938 62.765625 L 899.71484 79.40625 L 891.26367 94.046875 L 882.81055 108.6875 L 849.00195 108.6875 L 849 108.6875 L 844.38281 100.68945 L 844.38281 100.6875 L 836.71484 87.40625 L 836.45117 86.951172 L 832.0957 79.40625 L 849 50.126953 z M 901.28711 50.126953 L 916.62109 50.126953 L 908.95508 63.40625 L 908.95312 63.40625 L 905.12109 56.765625 L 901.28711 50.126953 z M 935.0957 50.126953 L 935.09766 50.126953 L 944.33398 50.126953 L 968.90625 50.126953 L 985.81055 79.40625 L 973.52539 100.6875 L 968.90625 108.6875 L 935.09766 108.6875 L 926.64453 94.046875 L 918.19141 79.40625 L 927.79883 62.765625 L 935.0957 50.126953 z M 198.66602 58.126953 L 206.33203 71.40625 L 191 71.40625 L 198.66602 58.126953 z M 413.9043 58.126953 L 421.57227 71.40625 L 406.23828 71.40625 L 413.9043 58.126953 z M 500 58.126953 L 507.66602 71.40625 L 492.33203 71.40625 L 500 58.126953 z M 543.04688 58.126953 L 543.04883 58.126953 L 546.88281 64.765625 L 550.71484 71.40625 L 535.38086 71.40625 L 543.04688 58.126953 z M 586.0957 58.126953 L 593.76172 71.40625 L 578.42969 71.40625 L 586.0957 58.126953 z M 672.19141 58.126953 L 679.85742 71.40625 L 664.52344 71.40625 L 672.19141 58.126953 z M 801.33398 58.126953 L 809 71.40625 L 793.66602 71.40625 L 797.5 64.765625 L 801.33398 58.126953 z M 190.99805 87.40625 L 206.33203 87.40625 L 198.66602 100.6875 L 190.99805 87.40625 z M 234.04688 87.40625 L 249.38086 87.40625 L 241.71289 100.6875 L 234.04688 87.40625 z M 363.18945 87.40625 L 378.52539 87.40625 L 370.85742 100.6875 L 363.18945 87.40625 z M 397 87.40625 L 430.80859 87.40625 L 439.26172 102.04688 L 447.71484 116.6875 L 443.0957 124.6875 L 435.42773 137.96875 L 430.80859 145.96875 L 406.23828 145.96875 L 397 145.96875 L 394.10156 140.94531 L 392.38086 137.96875 L 392.38086 137.9668 L 388.54688 131.32812 L 384.71289 124.6875 L 380.0957 116.6875 L 384.71289 108.6875 L 397 87.40625 z M 449.28516 87.40625 L 464.61914 87.40625 L 456.95117 100.6875 L 449.28516 87.40625 z M 492.33203 87.40625 L 507.66602 87.40625 L 500 100.6875 L 496.16602 94.046875 L 492.33203 87.40625 z M 526.14258 87.40625 L 526.14453 87.40625 L 535.38086 87.40625 L 550.71484 87.40625 L 559.95312 87.40625 L 562.66992 92.109375 L 564.57227 95.40625 L 576.85742 116.6875 L 565.15234 136.96289 L 559.95312 145.96875 L 526.14453 145.96875 L 526.14258 145.96875 L 521.52344 137.96875 L 517.69141 131.32812 L 513.85547 124.6875 L 509.23828 116.6875 L 517.69141 102.04688 L 521.52344 95.40625 L 526.14258 87.40625 z M 578.42969 87.40625 L 593.76172 87.40625 L 589.92969 94.046875 L 586.0957 100.68555 L 578.42969 87.40625 z M 612.23828 87.40625 L 621.47461 87.40625 L 636.81055 87.40625 L 646.04688 87.40625 L 646.04883 87.40625 L 658.33398 108.6875 L 662.95312 116.68555 L 662.95312 116.6875 L 662.95312 116.68945 L 658.33398 124.6875 L 654.5 131.32812 L 650.66797 137.96875 L 646.04883 145.96875 L 646.04688 145.96875 L 636.81055 145.96875 L 612.23828 145.96875 L 603.78516 131.32812 L 595.33398 116.68945 L 595.33398 116.6875 L 595.33398 116.68555 L 612.23828 87.40625 z M 664.52344 87.40625 L 679.85938 87.40625 L 672.19141 100.6875 L 664.52344 87.40625 z M 784.42969 87.40625 L 818.23828 87.40625 L 822.85742 95.40625 L 830.52539 108.6875 L 835.14453 116.68555 L 835.14453 116.6875 L 819.05078 144.5625 L 818.23828 145.96875 L 809.00195 145.96875 L 793.66797 145.96875 L 784.42969 145.96875 L 775.97656 131.32812 L 767.52539 116.6875 L 772.14258 108.6875 L 775.97656 102.04688 L 779.81055 95.40625 L 784.42969 87.40625 z M 91.046875 95.40625 L 94.878906 102.04688 L 98.712891 108.6875 L 83.378906 108.6875 L 91.046875 95.40625 z M 220.18945 95.40625 L 227.85742 108.6875 L 212.52344 108.6875 L 212.52148 108.6875 L 216.35547 102.04688 L 220.18945 95.40625 z M 263.23633 95.40625 L 270.9043 108.6875 L 255.57031 108.6875 L 259.40234 102.04688 L 263.23633 95.40625 z M 349.33203 95.40625 L 357 108.6875 L 341.66602 108.6875 L 345.5 102.04688 L 349.33203 95.40625 z M 478.47656 95.40625 L 482.30859 102.04688 L 486.14258 108.6875 L 470.80859 108.6875 L 478.47656 95.40625 z M 908.95312 95.40625 L 916.62109 108.6875 L 901.28711 108.6875 L 905.12109 102.04688 L 908.95312 95.40625 z M 177.14258 95.408203 L 184.80859 108.6875 L 169.47461 108.6875 L 177.14258 95.408203 z M 693.71484 95.408203 L 697.54883 102.04688 L 701.38281 108.6875 L 686.04883 108.6875 L 693.71484 95.408203 z M 40.330078 124.6875 L 55.666016 124.6875 L 47.998047 137.96875 L 40.330078 124.6875 z M 74.140625 124.6875 L 74.142578 124.6875 L 107.95117 124.6875 L 124.85547 153.96875 L 112.57031 175.25 L 107.95117 183.24805 L 83.378906 183.24805 L 74.140625 183.24805 L 65.6875 168.60938 L 57.236328 153.96875 L 63.132812 143.75586 L 65.6875 139.32812 L 74.140625 124.6875 z M 126.42773 124.6875 L 141.76172 124.6875 L 134.09375 137.96875 L 126.42773 124.6875 z M 169.47461 124.6875 L 184.81055 124.6875 L 177.14258 137.96875 L 169.47461 124.6875 z M 203.28516 124.6875 L 212.52148 124.6875 L 227.85742 124.6875 L 237.09375 124.6875 L 241.71289 132.6875 L 245.54688 139.32812 L 254 153.96875 L 247.29102 165.58789 L 245.54688 168.60938 L 237.09375 183.24805 L 203.28516 183.24805 L 199.6875 177.01758 L 198.66602 175.25 L 198.66602 175.24805 L 191.0918 162.13086 L 190.99805 161.96875 L 189.44336 159.27539 L 186.38086 153.96875 L 198.66602 132.6875 L 203.28516 124.6875 z M 255.57031 124.6875 L 270.9043 124.6875 L 263.23633 137.96875 L 255.57031 124.6875 z M 289.37891 124.6875 L 298.61719 124.6875 L 313.95312 124.6875 L 323.18945 124.6875 L 330.89453 138.0332 L 334.46094 144.20898 L 335.47656 145.96875 L 335.85156 146.61719 L 340.0957 153.96875 L 338.93164 155.98438 L 335.47656 161.96875 L 327.80859 175.25 L 325.12109 179.90234 L 323.19141 183.24805 L 323.18945 183.24805 L 313.95312 183.24805 L 289.38086 183.24805 L 289.37891 183.24805 L 272.47461 153.96875 L 280.92578 139.32812 L 283.48242 134.90039 L 289.37891 124.6875 z M 341.66602 124.6875 L 357.00195 124.6875 L 349.33398 137.96875 L 349.33203 137.96875 L 345.5 131.32812 L 341.66602 124.6875 z M 461.57031 124.6875 L 461.57227 124.6875 L 495.38086 124.6875 L 500 132.6875 L 507.66797 145.96875 L 512.28516 153.96875 L 503.83398 168.60938 L 500.66797 174.08984 L 495.38086 183.24805 L 486.14258 183.24805 L 470.80859 183.24805 L 461.57031 183.24805 L 445.85352 156.02539 L 444.66602 153.96875 L 449.28516 145.96875 L 453.11719 139.32812 L 456.95117 132.6875 L 461.57031 124.6875 z M 686.04883 124.6875 L 701.38281 124.6875 L 693.71484 137.96875 L 686.04883 124.6875 z M 729.0957 124.6875 L 744.43164 124.6875 L 736.76367 137.96875 L 729.0957 124.6875 z M 858.23828 124.6875 L 873.57227 124.6875 L 865.90625 137.96875 L 858.23828 124.6875 z M 892.04883 124.6875 L 925.85742 124.6875 L 925.85938 124.6875 L 936.11719 142.45508 L 936.86719 143.75586 L 942.76367 153.9668 L 942.76367 153.96875 L 938.14453 161.96875 L 934.3125 168.60938 L 925.85938 183.24805 L 901.28711 183.24805 L 892.04883 183.24805 L 883.59766 168.60938 L 875.14453 153.96875 L 879.76172 145.96875 L 883.59766 139.32812 L 892.04883 124.6875 z M 944.33594 124.6875 L 959.66992 124.6875 L 952.00195 137.9668 L 944.33594 124.6875 z M 155.61719 132.6875 L 159.64648 139.66406 L 163.28516 145.96875 L 147.95117 145.96875 L 151.78516 139.32812 L 155.61719 132.6875 z M 370.85742 132.6875 L 378.52344 145.96875 L 363.18945 145.96875 L 370.85742 132.6875 z M 586.0957 132.6875 L 589.92969 139.32812 L 593.76367 145.96875 L 593.76172 145.96875 L 578.42969 145.96875 L 586.0957 132.6875 z M 672.19141 132.6875 L 679.85742 145.96875 L 664.52344 145.96875 L 672.19141 132.6875 z M 715.23828 132.6875 L 722.90625 145.96875 L 707.57227 145.96875 L 711.40625 139.32812 L 715.23828 132.6875 z M 758.28711 132.6875 L 762.12109 139.32812 L 765.95312 145.96875 L 750.61914 145.96875 L 754.45312 139.32812 L 758.28711 132.6875 z M 844.38281 132.6875 L 848.21484 139.32812 L 852.04883 145.96875 L 836.71484 145.96875 L 844.38281 132.6875 z M 973.52539 132.6875 L 981.19336 145.96875 L 965.85938 145.96875 L 969.69141 139.32812 L 973.52539 132.6875 z M 138.71289 161.96875 L 172.52344 161.96875 L 177.14258 169.96875 L 180.97656 176.60938 L 189.42773 191.24805 L 177.72266 211.52344 L 173.71094 218.47266 L 172.52344 220.5293 L 163.28516 220.5293 L 147.95117 220.5293 L 138.71289 220.5293 L 133.07812 210.76953 L 129.40039 204.39844 L 121.80859 191.25 L 121.80859 191.24805 L 126.42578 183.24805 L 134.09375 169.96875 L 138.71289 161.96875 z M 363.18945 161.96875 L 378.52344 161.96875 L 370.85547 175.24805 L 370.82422 175.19336 L 363.18945 161.96875 z M 406.23828 161.96875 L 421.57031 161.96875 L 413.9043 175.24805 L 406.23828 161.96875 z M 535.38086 161.96875 L 550.71484 161.96875 L 546.88281 168.60938 L 543.04883 175.24805 L 543.04688 175.24805 L 535.38086 161.96875 z M 569.19141 161.96875 L 603 161.96875 L 611.45312 176.60938 L 619.9043 191.25 L 615.28711 199.24805 L 611.45312 205.88867 L 607.61914 212.5293 L 603 220.5293 L 578.42773 220.5293 L 569.19141 220.5293 L 564.57227 212.5293 L 556.9043 199.24805 L 552.28516 191.24805 L 556.9043 183.24805 L 569.19141 161.96875 z M 621.47656 161.96875 L 636.81055 161.96875 L 629.14258 175.24805 L 621.47656 161.96875 z M 664.52344 161.96875 L 679.85742 161.96875 L 672.19141 175.24805 L 667.78125 167.60938 L 664.52344 161.96875 z M 698.33398 161.96875 L 707.57227 161.96875 L 722.90625 161.96875 L 732.14258 161.96875 L 732.14453 161.96875 L 736.76367 169.96875 L 749.04883 191.24805 L 749.04883 191.25 L 735.39844 214.89258 L 732.14453 220.5293 L 732.14258 220.5293 L 698.33398 220.5293 L 693.71484 212.5293 L 686.04688 199.24805 L 681.42969 191.25 L 681.42969 191.24805 L 689.88086 176.60938 L 693.71484 169.96875 L 695.26953 167.27539 L 698.33398 161.96875 z M 750.61914 161.96875 L 765.95312 161.96875 L 763.14648 166.83203 L 758.28711 175.24805 L 754.45312 168.60938 L 750.61914 161.96875 z M 784.42969 161.96875 L 793.66797 161.96875 L 809.00195 161.96875 L 818.23828 161.96875 L 818.24023 161.96875 L 825.64453 174.79297 L 830.52539 183.24805 L 835.14453 191.24805 L 830.52539 199.24805 L 827.43945 204.59375 L 822.85742 212.5293 L 818.24023 220.52539 L 818.23828 220.5293 L 809.00195 220.5293 L 784.42969 220.5293 L 781.17578 214.89258 L 767.52539 191.25 L 767.52539 191.24805 L 783.29688 163.92969 L 784.42969 161.96875 z M 836.71484 161.96875 L 852.05078 161.96875 L 844.38281 175.24805 L 836.71484 161.96875 z M 47.998047 169.96875 L 55.664062 183.24805 L 40.330078 183.24805 L 47.998047 169.96875 z M 263.23633 169.96875 L 263.23828 169.96875 L 270.9043 183.24805 L 255.57031 183.24805 L 259.40234 176.60938 L 263.23633 169.96875 z M 349.33203 169.96875 L 352.11914 174.79297 L 357 183.24805 L 341.66602 183.24805 L 349.33203 169.96875 z M 392.38086 169.96875 L 400.04688 183.24805 L 384.71289 183.24805 L 392.38086 169.96875 z M 435.42773 169.96875 L 439.26172 176.60938 L 443.0957 183.24805 L 427.75977 183.24805 L 435.42773 169.96875 z M 521.52344 169.96875 L 529.19141 183.24805 L 513.85742 183.24805 L 517.69141 176.60938 L 521.52344 169.96875 z M 650.66602 169.96875 L 650.66797 169.96875 L 658.33398 183.24805 L 643 183.24805 L 650.66602 169.96875 z M 865.90625 169.96875 L 873.57227 183.24805 L 858.24023 183.24805 L 865.90625 169.96875 z M 40.330078 199.24805 L 55.666016 199.24805 L 47.998047 212.5293 L 40.330078 199.24805 z M 83.378906 199.24805 L 98.714844 199.24805 L 91.046875 212.5293 L 83.378906 199.24805 z M 212.52148 199.24805 L 227.85547 199.24805 L 220.18945 212.5293 L 212.52148 199.24805 z M 246.33203 199.24805 L 280.14062 199.24805 L 280.14258 199.24805 L 288.59375 213.88867 L 297.04688 228.52734 L 297.04688 228.5293 L 292.42773 236.5293 L 284.76172 249.81055 L 280.14258 257.81055 L 280.14062 257.81055 L 255.57031 257.81055 L 246.33203 257.81055 L 241.71289 249.81055 L 237.87891 243.16992 L 234.04492 236.5293 L 229.42773 228.5293 L 234.04492 220.5293 L 237.87891 213.88867 L 246.33203 199.24805 z M 298.61719 199.24805 L 313.95312 199.24805 L 306.28516 212.5293 L 298.61719 199.24805 z M 341.66602 199.24805 L 357 199.24805 L 349.33398 212.5293 L 349.33203 212.5293 L 341.66602 199.24805 z M 375.47656 199.24805 L 384.71289 199.24805 L 400.04688 199.24805 L 409.28516 199.24805 L 413.52148 206.58594 L 413.9043 207.24805 L 413.9043 207.25 L 426.18945 228.52734 L 426.18945 228.5293 L 426.18945 228.53125 L 417.73828 243.16992 L 409.28516 257.81055 L 375.47656 257.81055 L 370.85742 249.81055 L 367.02344 243.16992 L 363.18945 236.5293 L 358.57031 228.5293 L 369.85352 208.98828 L 370.85742 207.25 L 374.4668 200.99805 L 375.47656 199.24805 z M 427.76172 199.24805 L 443.0957 199.24805 L 435.42773 212.52734 L 427.76172 199.24805 z M 461.57227 199.24805 L 470.80859 199.24805 L 486.14453 199.24805 L 495.37891 199.24805 L 495.38086 199.24805 L 507.66797 220.5293 L 508.39844 221.79492 L 512.28516 228.5293 L 507.66797 236.5293 L 500 249.81055 L 499.73633 250.26562 L 495.38086 257.81055 L 486.14258 257.81055 L 461.57227 257.81055 L 461.57031 257.81055 L 449.86523 237.53516 L 444.66602 228.5293 L 451.39258 216.87695 L 461.57227 199.24805 z M 513.85742 199.24805 L 529.19141 199.24805 L 521.52344 212.52734 L 517.69141 205.88867 L 513.85742 199.24805 z M 633.76172 199.24805 L 633.76367 199.24805 L 667.57031 199.24805 L 667.57227 199.24805 L 672.19141 207.25 L 679.85938 220.5293 L 684.47656 228.5293 L 672.77148 248.80469 L 667.57227 257.81055 L 658.33398 257.81055 L 643 257.81055 L 633.76172 257.81055 L 625.30859 243.16992 L 616.85742 228.5293 L 620.29492 222.57422 L 621.47461 220.5293 L 629.14258 207.25 L 629.89258 205.94922 L 633.76172 199.24805 z M 858.23828 199.24805 L 873.57422 199.24805 L 865.90625 212.5293 L 858.23828 199.24805 z M 901.28711 199.24805 L 916.62109 199.24805 L 908.95312 212.5293 L 901.28711 199.24805 z M 69.521484 207.25 L 73.648438 214.39648 L 77.189453 220.5293 L 61.855469 220.5293 L 69.521484 207.25 z M 112.57031 207.25 L 120.23633 220.5293 L 104.90234 220.5293 L 108.73633 213.88867 L 112.57031 207.25 z M 198.66602 207.25 L 206.33398 220.5293 L 191 220.5293 L 198.66602 207.25 z M 327.80859 207.25 L 335.47656 220.5293 L 320.14062 220.5293 L 327.80859 207.25 z M 543.04688 207.25 L 543.04883 207.25 L 550.71484 220.5293 L 535.38086 220.5293 L 543.04688 207.25 z M 758.28711 207.25 L 765.95312 220.5293 L 750.61914 220.5293 L 754.45312 213.89062 L 758.28711 207.25 z M 844.38086 207.25 L 844.38281 207.25 L 848.21484 213.88867 L 852.04883 220.5293 L 836.71484 220.5293 L 838.33789 217.7168 L 844.38086 207.25 z M 887.42969 207.25 L 891.26367 213.88867 L 895.09766 220.5293 L 879.76367 220.5293 L 887.42969 207.25 z M 930.47852 207.25 L 938.14453 220.5293 L 922.81055 220.5293 L 930.47852 207.25 z M 52.617188 236.5293 L 77.189453 236.5293 L 86.425781 236.5293 L 86.427734 236.5293 L 91.046875 244.5293 L 94.878906 251.16992 L 98.132812 256.80469 L 103.33203 265.81055 L 88.251953 291.92969 L 86.427734 295.08984 L 52.617188 295.08984 L 49.552734 289.7832 L 47.998047 287.08984 L 35.710938 265.81055 L 47.998047 244.5293 L 52.617188 236.5293 z M 104.90234 236.5293 L 120.23828 236.5293 L 119.33594 238.0918 L 112.57031 249.81055 L 104.90234 236.5293 z M 138.71289 236.5293 L 147.95117 236.5293 L 163.28516 236.5293 L 172.52148 236.5293 L 172.52344 236.5293 L 184.22852 256.80469 L 184.81055 257.81055 L 189.42773 265.80859 L 189.42773 265.81055 L 177.14258 287.08984 L 175.95703 289.14258 L 174.34766 291.92969 L 172.52344 295.08984 L 172.52148 295.08984 L 163.28516 295.08984 L 138.71289 295.08984 L 130.25977 280.44922 L 121.80859 265.81055 L 138.71289 236.5293 z M 191 236.5293 L 206.33203 236.5293 L 198.66602 249.80859 L 191 236.5293 z M 310.9043 236.5293 L 344.71289 236.5293 L 344.71484 236.5293 L 349.33203 244.52734 L 353.16797 251.16992 L 357 257.81055 L 361.61914 265.81055 L 353.16797 280.44922 L 344.71484 295.08984 L 344.71289 295.08984 L 335.47656 295.08984 L 320.14062 295.08984 L 310.9043 295.08984 L 308.97266 291.74414 L 296.14844 269.53125 L 293.99805 265.81055 L 298.61719 257.81055 L 306.28516 244.5293 L 310.9043 236.5293 z M 535.38086 236.5293 L 550.71484 236.5293 L 546.88281 243.16992 L 543.04883 249.81055 L 535.38086 236.5293 z M 578.42969 236.5293 L 593.76367 236.5293 L 589.92969 243.16992 L 586.0957 249.81055 L 578.42969 236.5293 z M 707.57227 236.5293 L 722.90625 236.5293 L 715.23828 249.81055 L 707.57227 236.5293 z M 741.38086 236.5293 L 741.38281 236.5293 L 775.19141 236.5293 L 783.64453 251.16992 L 792.0957 265.81055 L 787.47852 273.81055 L 779.81055 287.08984 L 775.19336 295.08984 L 775.19141 295.08984 L 750.61914 295.08984 L 741.38281 295.08984 L 741.38086 295.08984 L 736.76367 287.0918 L 736.76367 287.08984 L 732.92969 280.44922 L 729.0957 273.81055 L 724.47656 265.81055 L 729.0957 257.81055 L 732.92969 251.16992 L 741.38086 236.5293 z M 793.66797 236.5293 L 809.00195 236.5293 L 801.33398 249.81055 L 797.5 243.16992 L 793.66797 236.5293 z M 836.71484 236.5293 L 852.04883 236.5293 L 848.21484 243.16992 L 844.38281 249.81055 L 836.71484 236.5293 z M 870.52539 236.5293 L 879.76172 236.5293 L 895.09766 236.5293 L 904.33398 236.5293 L 904.33594 236.5293 L 908.95312 244.5293 L 921.24023 265.81055 L 904.33594 295.08984 L 904.33398 295.08984 L 870.52539 295.08984 L 867.37695 289.63672 L 866.95312 288.90234 L 865.90625 287.08984 L 862.07227 280.44922 L 858.23828 273.81055 L 855.95508 269.85742 L 853.61914 265.81055 L 862.07227 251.16992 L 865.90625 244.5293 L 870.52539 236.5293 z M 922.81055 236.5293 L 938.14453 236.5293 L 930.47852 249.80859 L 922.81055 236.5293 z M 220.18945 244.5293 L 227.85547 257.81055 L 212.52148 257.81055 L 216.35547 251.16992 L 220.18945 244.5293 z M 435.42773 244.5293 L 439.26172 251.16992 L 443.0957 257.81055 L 427.76172 257.81055 L 435.42773 244.5293 z M 521.52344 244.5293 L 529.19141 257.81055 L 513.85742 257.81055 L 517.69141 251.16992 L 521.52344 244.5293 z M 564.57227 244.5293 L 572.23828 257.81055 L 556.9043 257.81055 L 564.57227 244.5293 z M 607.61914 244.5293 L 611.45312 251.16992 L 615.28516 257.81055 L 599.95117 257.81055 L 607.61914 244.5293 z M 693.71484 244.5293 L 701.38281 257.81055 L 686.04883 257.81055 L 693.71484 244.5293 z M 822.85742 244.5293 L 830.52539 257.81055 L 815.19141 257.81055 L 819.02344 251.16992 L 822.85742 244.5293 z M 212.52148 273.81055 L 227.85547 273.81055 L 220.18945 287.08984 L 216.35547 280.44922 L 212.52148 273.81055 z M 255.57031 273.81055 L 270.9043 273.81055 L 263.23828 287.08984 L 263.23633 287.08984 L 255.57031 273.81055 z M 384.71289 273.81055 L 400.04688 273.81055 L 392.38086 287.08984 L 384.71289 273.81055 z M 418.52344 273.81055 L 452.33203 273.81055 L 452.33398 273.81055 L 469.23828 303.08984 L 464.61914 311.08984 L 456.95117 324.37109 L 452.33398 332.37109 L 452.33203 332.37109 L 427.75977 332.37109 L 418.52344 332.37109 L 413.9043 324.37109 L 406.23828 311.08984 L 403.88281 307.00977 L 401.61914 303.0918 L 401.61914 303.08984 L 406.23828 295.08984 L 418.52344 273.81055 z M 470.80859 273.81055 L 486.14258 273.81055 L 482.30859 280.44922 L 478.47656 287.08984 L 478.47461 287.08984 L 470.80859 273.81055 z M 513.85742 273.81055 L 529.19141 273.81055 L 521.52539 287.08984 L 521.52344 287.08984 L 517.69141 280.44922 L 513.85742 273.81055 z M 547.66602 273.81055 L 547.66797 273.81055 L 556.9043 273.81055 L 572.24023 273.81055 L 581.47656 273.81055 L 586.0957 281.81055 L 598.38086 303.08984 L 598.38086 303.0918 L 589.92969 317.73047 L 581.47656 332.37109 L 547.66797 332.37109 L 547.66602 332.37109 L 543.04883 324.37109 L 535.38086 311.08984 L 530.76172 303.08984 L 543.04883 281.81055 L 543.04883 281.80859 L 547.66602 273.81055 z M 599.95312 273.81055 L 615.28516 273.81055 L 607.61914 287.08984 L 599.95312 273.81055 z M 633.76172 273.81055 L 643 273.81055 L 658.33398 273.81055 L 667.57227 273.81055 L 676.02344 288.44922 L 684.47656 303.08984 L 684.47656 303.0918 L 679.85938 311.08984 L 672.19141 324.37109 L 671.92773 324.82617 L 667.57227 332.37109 L 658.33398 332.37109 L 633.76172 332.37109 L 616.85742 303.0918 L 616.85742 303.08984 L 633.76172 273.81055 z M 686.04883 273.81055 L 701.38281 273.81055 L 697.54883 280.44922 L 693.71484 287.08984 L 686.04883 273.81055 z M 805.95312 273.81055 L 839.76367 273.81055 L 844.38281 281.81055 L 848.21484 288.44922 L 852.04883 295.08984 L 856.66797 303.08984 L 856.66797 303.0918 L 848.21484 317.73047 L 839.76367 332.37109 L 839.76172 332.37109 L 830.52539 332.37109 L 815.18945 332.37109 L 805.95312 332.37109 L 800.80078 323.44727 L 789.04883 303.08984 L 789.04883 303.08789 L 793.66797 295.08984 L 801.33398 281.81055 L 805.95312 273.81055 z M 112.57031 281.81055 L 120.23633 295.08984 L 104.90234 295.08984 L 112.57031 281.81055 z M 198.66602 281.81055 L 206.33203 295.08984 L 191 295.08984 L 198.66602 281.81055 z M 241.71289 281.81055 L 245.54688 288.44922 L 249.38086 295.08984 L 234.04688 295.08984 L 241.71289 281.81055 z M 284.76172 281.81055 L 292.42773 295.08984 L 277.09375 295.08984 L 284.76172 281.81055 z M 370.85742 281.81055 L 378.52344 295.08984 L 363.18945 295.08984 L 370.85742 281.81055 z M 500 281.81055 L 507.66602 295.08984 L 492.33203 295.08984 L 500 281.81055 z M 715.23828 281.81055 L 715.24023 281.81055 L 722.90625 295.08984 L 707.57227 295.08984 L 715.23828 281.81055 z M 930.47656 281.81055 L 930.47852 281.81055 L 938.14453 295.08984 L 922.81055 295.08984 L 930.47656 281.81055 z M 61.855469 311.08984 L 77.189453 311.08984 L 69.521484 324.37109 L 61.855469 311.08984 z M 95.664062 311.08984 L 95.666016 311.08984 L 129.47461 311.08984 L 137.92773 325.73047 L 146.38086 340.37109 L 142.80859 346.55859 L 141.76172 348.37109 L 137.92773 355.01172 L 134.09375 361.65039 L 131.81055 365.60352 L 129.47461 369.65039 L 104.90234 369.65039 L 95.666016 369.65039 L 95.664062 369.65039 L 91.046875 361.65234 L 91.046875 361.65039 L 83.378906 348.37109 L 78.759766 340.37109 L 81.476562 335.66797 L 83.378906 332.37109 L 95.664062 311.08984 z M 147.95117 311.08984 L 163.28516 311.08984 L 155.61719 324.37109 L 147.95117 311.08984 z M 190.99805 311.08984 L 206.33203 311.08984 L 202.5 317.73047 L 198.66602 324.37109 L 194.83203 317.73047 L 190.99805 311.08984 z M 224.80859 311.08984 L 234.04492 311.08984 L 249.38086 311.08984 L 258.61719 311.08984 L 258.61914 311.08984 L 263.23633 319.08789 L 270.32422 331.36523 L 275.52344 340.37109 L 267.07031 355.01172 L 258.61914 369.65039 L 258.61719 369.65039 L 224.80859 369.65039 L 220.18945 361.65039 L 212.52148 348.37109 L 207.9043 340.37109 L 220.18945 319.08984 L 224.80859 311.08984 z M 277.09375 311.08984 L 292.42773 311.08984 L 288.59375 317.73047 L 284.76172 324.37109 L 277.09375 311.08984 z M 310.9043 311.08984 L 320.14062 311.08984 L 335.47656 311.08984 L 344.71484 311.08984 L 357 332.37109 L 361.61914 340.36914 L 361.61914 340.37109 L 357 348.37109 L 349.33203 361.65039 L 349.33203 361.65234 L 344.71484 369.65039 L 344.71289 369.65039 L 335.47656 369.65039 L 310.9043 369.65039 L 304.19531 358.03125 L 302.45117 355.01172 L 294 340.37109 L 302.45117 325.73047 L 310.9043 311.08984 z M 363.18945 311.08984 L 378.52344 311.08984 L 370.85742 324.37109 L 363.18945 311.08984 z M 483.0957 311.08984 L 516.9043 311.08984 L 521.52344 319.08984 L 525.35742 325.73047 L 529.19141 332.37109 L 533.81055 340.37109 L 516.9043 369.65039 L 507.66797 369.65039 L 492.33203 369.65039 L 483.0957 369.65039 L 483.09375 369.65039 L 466.18945 340.37109 L 470.5957 332.74023 L 470.80859 332.37109 L 471.82422 330.61133 L 474.64258 325.73047 L 478.47656 319.08984 L 483.0957 311.08984 z M 707.57227 311.08984 L 722.90625 311.08984 L 715.23828 324.37109 L 707.57227 311.08984 z M 750.61914 311.08984 L 765.95508 311.08984 L 758.28711 324.37109 L 750.61914 311.08984 z M 879.76172 311.08984 L 895.09766 311.08984 L 887.42969 324.37109 L 879.76172 311.08984 z M 913.57227 311.08984 L 913.57422 311.08984 L 947.38281 311.08984 L 964.28906 340.37109 L 952.00195 361.65039 L 947.38281 369.65039 L 922.81055 369.65039 L 913.57422 369.65039 L 913.57227 369.65039 L 908.95312 361.65039 L 901.28711 348.37109 L 900.10156 346.31836 L 898.49219 343.53125 L 896.66797 340.37305 L 896.66797 340.37109 L 900.15234 334.33789 L 901.28711 332.37109 L 905.12109 325.73047 L 913.57227 311.08984 z M 965.85938 311.08984 L 981.19336 311.08984 L 973.52539 324.36914 L 965.85938 311.08984 z M 47.998047 319.08984 L 55.666016 332.37109 L 40.330078 332.37109 L 44.164062 325.73047 L 47.998047 319.08984 z M 607.61914 319.08984 L 615.28711 332.37109 L 599.95312 332.37109 L 607.61914 319.08984 z M 693.71484 319.08984 L 697.54883 325.73047 L 701.38281 332.37109 L 686.04883 332.37109 L 693.71484 319.08984 z M 736.76367 319.08984 L 740.59766 325.73047 L 744.42969 332.37109 L 729.0957 332.37109 L 736.76367 319.08984 z M 177.14258 319.0918 L 184.80859 332.37109 L 169.47461 332.37109 L 177.14258 319.0918 z M 392.38086 319.0918 L 400.04688 332.37109 L 384.71289 332.37109 L 392.38086 319.0918 z M 779.81055 319.0918 L 787.47656 332.37109 L 772.14453 332.37109 L 779.81055 319.0918 z M 865.90625 319.0918 L 873.57227 332.37109 L 858.23828 332.37109 L 862.07227 325.73047 L 865.90625 319.0918 z M 40.330078 348.37109 L 55.664062 348.37109 L 47.998047 361.65039 L 40.330078 348.37109 z M 160.23633 348.37109 L 194.04688 348.37109 L 198.66602 356.37109 L 206.33203 369.65039 L 210.95117 377.64844 L 210.95117 377.65039 L 199.19922 398.00781 L 194.04688 406.93164 L 184.81055 406.93164 L 169.47461 406.93164 L 160.23828 406.93164 L 160.23633 406.93164 L 143.33203 377.65234 L 143.33203 377.65039 L 147.95117 369.65039 L 151.78516 363.01172 L 155.61719 356.37109 L 160.23633 348.37109 z M 384.71289 348.37109 L 400.04883 348.37109 L 396.21484 355.01172 L 392.38086 361.65039 L 384.71289 348.37109 z M 427.75977 348.37109 L 443.0957 348.37109 L 439.26172 355.01172 L 435.42773 361.65039 L 427.75977 348.37109 z M 556.9043 348.37109 L 572.23828 348.37109 L 564.57227 361.65039 L 560.73828 355.01172 L 556.9043 348.37109 z M 590.71484 348.37109 L 624.52344 348.37109 L 632.97656 363.01172 L 641.42969 377.65039 L 636.81055 385.65039 L 632.97656 392.29102 L 629.14258 398.93164 L 624.52344 406.93164 L 599.95312 406.93164 L 590.71484 406.93164 L 586.0957 398.93164 L 583.41797 394.29102 L 579.70703 387.86328 L 578.42773 385.65039 L 573.81055 377.65039 L 588.89062 351.53125 L 590.71484 348.37109 z M 643 348.37109 L 658.33398 348.37109 L 654.5 355.01172 L 650.66797 361.65039 L 650.66602 361.65039 L 643 348.37109 z M 686.04883 348.37109 L 701.38281 348.37109 L 697.54883 355.01172 L 693.71484 361.65039 L 686.04883 348.37109 z M 719.85742 348.37109 L 719.85938 348.37109 L 729.0957 348.37109 L 744.42969 348.37109 L 753.66797 348.37109 L 756.73242 353.67773 L 758.28711 356.37109 L 762.12109 363.01172 L 770.57227 377.65039 L 762.12109 392.29102 L 753.66797 406.93164 L 719.85938 406.93164 L 719.85742 406.93164 L 715.23828 398.93164 L 711.40625 392.29102 L 707.57227 385.65039 L 702.95312 377.65039 L 702.95312 377.64844 L 715.23828 356.37109 L 715.80078 355.39844 L 716.42383 354.31836 L 719.85742 348.37109 z M 772.14453 348.37109 L 787.47656 348.37109 L 779.81055 361.65039 L 772.14453 348.37109 z M 805.95312 348.37109 L 815.18945 348.37109 L 830.52539 348.37109 L 839.76367 348.37109 L 848.21484 363.01172 L 852.04883 369.65039 L 856.66797 377.65039 L 853.18359 383.68359 L 852.04883 385.65039 L 844.38281 398.93164 L 839.76367 406.93164 L 839.76172 406.93164 L 830.52539 406.93164 L 805.95312 406.93164 L 789.04883 377.65234 L 789.04883 377.65039 L 798.65625 361.01172 L 805.95312 348.37109 z M 858.23828 348.37109 L 873.57227 348.37109 L 865.90625 361.65039 L 858.23828 348.37109 z M 69.521484 356.37109 L 77.189453 369.65039 L 61.855469 369.65039 L 65.6875 363.01172 L 69.521484 356.37109 z M 284.75977 356.37109 L 284.76172 356.37109 L 288.59375 363.01172 L 292.42773 369.65039 L 277.09375 369.65039 L 284.75977 356.37109 z M 370.85742 356.37109 L 378.52344 369.65039 L 363.18945 369.65039 L 370.85742 356.37109 z M 413.9043 356.37109 L 421.57031 369.65039 L 406.23828 369.65039 L 413.9043 356.37109 z M 456.95117 356.37109 L 456.95312 356.37109 L 460.78516 363.01172 L 464.61914 369.65039 L 449.28516 369.65039 L 456.95117 356.37109 z M 543.04688 356.37109 L 543.04883 356.37109 L 546.88281 363.01172 L 550.71484 369.65039 L 535.38086 369.65039 L 543.04688 356.37109 z M 672.19141 356.37109 L 679.85742 369.65039 L 664.52344 369.65039 L 672.19141 356.37109 z M 887.42969 356.37109 L 887.43164 356.37109 L 895.09766 369.65039 L 879.76367 369.65039 L 887.42969 356.37109 z M 61.855469 385.65039 L 77.189453 385.65039 L 69.521484 398.93164 L 61.855469 385.65039 z M 104.90234 385.65039 L 120.23633 385.65039 L 112.57031 398.93164 L 104.90234 385.65039 z M 234.04492 385.65039 L 249.38086 385.65039 L 245.54688 392.29102 L 241.71289 398.93164 L 234.04492 385.65039 z M 267.85547 385.65039 L 267.85742 385.65039 L 301.66602 385.65039 L 310.11914 400.29102 L 318.57031 414.93164 L 313.95312 422.93164 L 306.28516 436.21094 L 306.28516 436.21289 L 301.66602 444.21289 L 277.09375 444.21289 L 267.85742 444.21289 L 267.85547 444.21289 L 263.23633 436.21094 L 259.40234 429.57227 L 255.57031 422.93164 L 250.96875 414.96094 L 250.95117 414.93359 L 250.95117 414.93164 L 255.57031 406.93164 L 267.85547 385.65039 z M 320.14258 385.65039 L 335.47656 385.65039 L 331.64258 392.29102 L 327.80859 398.93164 L 320.14258 385.65039 z M 363.18945 385.65039 L 378.52344 385.65039 L 370.85742 398.93164 L 363.18945 385.65039 z M 397 385.65039 L 406.23828 385.65039 L 421.57227 385.65039 L 430.80859 385.65039 L 435.42773 393.65039 L 439.26172 400.29102 L 447.71484 414.93164 L 439.26172 429.57227 L 430.80859 444.21289 L 397 444.21289 L 392.38086 436.21289 L 392.38086 436.21094 L 391.36523 434.45312 L 384.71289 422.93164 L 380.0957 414.93164 L 392.38086 393.65039 L 397 385.65039 z M 449.28516 385.65039 L 464.61914 385.65039 L 456.95117 398.93164 L 449.28516 385.65039 z M 483.0957 385.65039 L 492.33203 385.65039 L 507.66797 385.65039 L 516.9043 385.65039 L 529.19141 406.93164 L 533.81055 414.93164 L 529.19141 422.93164 L 525.35742 429.57227 L 521.52344 436.21094 L 521.52344 436.21289 L 516.9043 444.21289 L 507.66797 444.21289 L 483.0957 444.21289 L 466.18945 414.93164 L 471.82422 405.17188 L 473.89453 401.58594 L 483.0957 385.65039 z M 535.38086 385.65039 L 550.71484 385.65039 L 546.88281 392.29102 L 543.04883 398.93164 L 535.38086 385.65039 z M 655.28516 385.65039 L 655.28711 385.65039 L 689.0957 385.65039 L 693.71484 393.65039 L 697.54883 400.29102 L 701.38281 406.93164 L 706.00195 414.93164 L 697.54883 429.57227 L 689.0957 444.21289 L 679.85938 444.21289 L 664.52344 444.21289 L 655.28516 444.21289 L 646.83203 429.57227 L 638.38086 414.93359 L 638.38086 414.93164 L 643 406.93164 L 646.83203 400.29102 L 650.66797 393.65039 L 650.66797 393.64844 L 655.28516 385.65039 z M 879.76367 385.65039 L 895.09766 385.65039 L 891.26367 392.29102 L 887.42969 398.93164 L 879.76367 385.65039 z M 922.81055 385.65039 L 938.14453 385.65039 L 934.3125 392.29102 L 930.47852 398.93164 L 922.81055 385.65039 z M 47.998047 393.65039 L 55.666016 406.93164 L 40.330078 406.93164 L 47.998047 393.65039 z M 349.33203 393.65039 L 349.33398 393.65039 L 353.16797 400.29102 L 357 406.93164 L 341.66406 406.93164 L 349.33203 393.65039 z M 564.57227 393.65039 L 571.70508 406.00781 L 572.23828 406.93164 L 556.9043 406.93164 L 564.57227 393.65039 z M 779.81055 393.65039 L 783.64453 400.29102 L 787.47852 406.93164 L 787.47656 406.93164 L 772.14453 406.93164 L 779.81055 393.65039 z M 908.95312 393.65039 L 916.62109 406.93164 L 901.28711 406.93164 L 905.12109 400.29102 L 908.95312 393.65039 z M 952.00195 393.65039 L 959.66992 406.93164 L 944.33398 406.93164 L 948.16797 400.29102 L 952.00195 393.65039 z M 91.046875 393.65234 L 98.712891 406.93164 L 83.378906 406.93164 L 91.046875 393.65234 z M 134.09375 393.65234 L 137.92773 400.29102 L 141.76172 406.93164 L 126.42773 406.93164 L 134.09375 393.65234 z M 220.18945 393.65234 L 227.85547 406.93164 L 212.52344 406.93164 L 216.35547 400.29102 L 220.18945 393.65234 z M 865.90625 393.65234 L 873.57227 406.93164 L 858.23828 406.93164 L 862.07227 400.29102 L 865.90625 393.65234 z M 40.332031 422.93164 L 55.664062 422.93164 L 47.998047 436.21094 L 40.332031 422.93164 z M 74.140625 422.93164 L 74.142578 422.93164 L 83.378906 422.93164 L 98.712891 422.93164 L 107.95117 422.93164 L 111.43555 428.96484 L 112.57031 430.93164 L 124.85547 452.21094 L 124.85547 452.21289 L 109.77539 478.33203 L 107.95117 481.49219 L 74.140625 481.49219 L 61.855469 460.21289 L 57.236328 452.21289 L 57.236328 452.21094 L 65.318359 438.21094 L 69.521484 430.93164 L 74.140625 422.93164 z M 126.42773 422.93164 L 141.76172 422.93164 L 137.92773 429.57227 L 134.09375 436.21094 L 126.42773 422.93164 z M 160.23633 422.93164 L 160.23828 422.93164 L 169.47461 422.93164 L 184.81055 422.93164 L 194.04688 422.93164 L 197.53125 428.96484 L 206.33203 444.21289 L 208.6875 448.29297 L 210.95117 452.21094 L 210.95117 452.21289 L 210.40625 453.15625 L 206.33203 460.21289 L 205.46094 461.72461 L 198.66602 473.49219 L 195.67383 478.67578 L 194.04883 481.49219 L 194.04688 481.49219 L 184.81055 481.49219 L 160.23633 481.49219 L 157.53711 476.81641 L 143.33203 452.21289 L 143.33203 452.21094 L 151.78516 437.57227 L 160.23633 422.93164 z M 212.52344 422.93164 L 227.85547 422.93164 L 220.18945 436.21094 L 216.35547 429.57227 L 212.52344 422.93164 z M 332.42773 422.93164 L 366.23828 422.93164 L 370.85742 430.93164 L 378.52539 444.21289 L 383.14258 452.21094 L 383.14258 452.21289 L 366.23828 481.49219 L 357 481.49219 L 341.66602 481.49219 L 332.42773 481.49219 L 315.65625 452.44141 L 315.52344 452.21289 L 315.52344 452.21094 L 320.14062 444.21289 L 323.97656 437.57227 L 327.80859 430.93164 L 332.42773 422.93164 z M 556.9043 422.93164 L 572.23828 422.93164 L 570.96094 425.14453 L 564.57227 436.21289 L 556.9043 422.93164 z M 599.95117 422.93164 L 599.95312 422.93164 L 615.28516 422.93164 L 607.61914 436.21289 L 599.95117 422.93164 z M 729.0957 422.93164 L 744.42969 422.93164 L 740.59766 429.57227 L 736.76367 436.21094 L 729.0957 422.93164 z M 762.90625 422.93164 L 796.71484 422.93164 L 810.5293 446.85742 L 813.61914 452.21094 L 813.61914 452.21289 L 809.00195 460.21289 L 801.33398 473.49219 L 796.71484 481.49219 L 772.14258 481.49219 L 762.90625 481.49219 L 758.28711 473.49414 L 757.95898 472.92383 L 754.97656 467.75977 L 750.61914 460.21289 L 749.06445 457.51953 L 746.00195 452.21094 L 750.61914 444.21289 L 754.36328 437.72656 L 762.90625 422.93164 z M 815.19141 422.93164 L 830.52539 422.93164 L 822.85742 436.21094 L 815.19141 422.93164 z M 858.23828 422.93164 L 873.57227 422.93164 L 865.90625 436.21289 L 858.23828 422.93164 z M 892.04883 422.93164 L 901.28711 422.93164 L 916.62109 422.93164 L 925.85742 422.93164 L 925.85938 422.93164 L 930.47852 430.93164 L 942.76367 452.21094 L 942.76367 452.21289 L 928.55859 476.81641 L 925.85938 481.49219 L 892.04883 481.49219 L 883.59766 466.85156 L 875.14453 452.21289 L 875.14453 452.21094 L 882.73633 439.0625 L 887.42969 430.93164 L 887.80469 430.2832 L 888.79492 428.56836 L 892.04883 422.93164 z M 944.33398 422.93164 L 959.66992 422.93164 L 952.00195 436.21094 L 944.33398 422.93164 z M 26.474609 430.93164 L 34.142578 444.21289 L 18.806641 444.21289 L 26.474609 430.93164 z M 241.71289 430.93164 L 249.38086 444.21289 L 234.04492 444.21289 L 241.71289 430.93164 z M 456.95117 430.93164 L 464.61914 444.21289 L 449.28516 444.21289 L 456.95117 430.93164 z M 543.04883 430.93164 L 550.7168 444.21289 L 535.38086 444.21289 L 543.04883 430.93164 z M 586.0957 430.93164 L 589.92969 437.57227 L 593.76367 444.21289 L 593.76172 444.21289 L 578.42773 444.21289 L 586.0957 430.93164 z M 629.14258 430.93164 L 632.97656 437.57227 L 636.81055 444.21289 L 621.47461 444.21289 L 629.14258 430.93164 z M 715.23828 430.93164 L 722.90625 444.21289 L 707.57227 444.21289 L 711.40625 437.57227 L 715.23828 430.93164 z M 844.38281 430.93164 L 852.05078 444.21289 L 836.71484 444.21289 L 844.38281 430.93164 z M 234.04688 460.21289 L 249.37891 460.21289 L 241.71289 473.49219 L 234.04688 460.21289 z M 277.09375 460.21289 L 292.42773 460.21289 L 284.76172 473.49219 L 277.09375 460.21289 z M 406.23633 460.21289 L 421.57031 460.21289 L 413.9043 473.49219 L 406.23633 460.21289 z M 440.04688 460.21289 L 473.85742 460.21289 L 482.30859 474.85156 L 490.76172 489.49219 L 486.14453 497.49219 L 478.47656 510.77344 L 475.62109 515.71875 L 473.85742 518.77344 L 473.85547 518.77344 L 449.28516 518.77344 L 440.04688 518.77344 L 435.42773 510.77344 L 427.75977 497.49219 L 423.14258 489.49414 L 423.14258 489.49219 L 440.04688 460.21289 z M 492.33398 460.21289 L 507.66602 460.21289 L 500 473.49219 L 492.33398 460.21289 z M 535.38086 460.21289 L 550.71484 460.21289 L 546.88281 466.85156 L 543.04883 473.49219 L 543.04688 473.49219 L 535.38086 460.21289 z M 569.19141 460.21289 L 578.42773 460.21289 L 593.76172 460.21289 L 603 460.21289 L 606.59766 466.44336 L 607.61914 468.21289 L 619.90625 489.49219 L 616.81445 494.84766 L 603 518.77344 L 569.19141 518.77344 L 567.58984 516 L 564.57227 510.77344 L 560.73828 504.13281 L 556.9043 497.49219 L 552.28516 489.49219 L 564.57227 468.21094 L 567.54883 463.05664 L 569.19141 460.21289 z M 621.47656 460.21289 L 636.81055 460.21289 L 629.14453 473.49219 L 629.14258 473.49219 L 621.47656 460.21289 z M 655.28516 460.21289 L 664.52344 460.21289 L 679.85938 460.21289 L 689.0957 460.21289 L 701.38281 481.49219 L 702.3125 483.10352 L 706.00195 489.49219 L 701.38281 497.49219 L 697.54883 504.13281 L 693.71484 510.77344 L 689.0957 518.77344 L 679.85938 518.77344 L 655.28711 518.77344 L 655.28516 518.77344 L 638.38086 489.49414 L 638.38086 489.49219 L 655.28516 460.21289 z M 707.57227 460.21289 L 722.90625 460.21289 L 715.23828 473.49219 L 707.57227 460.21289 z M 827.47656 460.21289 L 827.47852 460.21289 L 861.28711 460.21289 L 869.74023 474.85156 L 873.57422 481.49219 L 874.5957 483.26172 L 878.19141 489.49219 L 878.19141 489.49414 L 869.74023 504.13281 L 861.28711 518.77344 L 852.04883 518.77344 L 836.71484 518.77344 L 827.47852 518.77344 L 827.47656 518.77344 L 810.57227 489.49219 L 811.70508 487.53125 L 826.75977 461.45508 L 827.375 460.38867 L 827.47656 460.21289 z M 134.09375 468.21289 L 137.92773 474.85156 L 141.76172 481.49219 L 126.42773 481.49219 L 134.09375 468.21289 z M 220.18945 468.21289 L 227.85547 481.49219 L 212.52344 481.49219 L 220.18945 468.21289 z M 263.23633 468.21289 L 263.23828 468.21289 L 270.9043 481.49219 L 255.57031 481.49219 L 259.40234 474.85156 L 263.23633 468.21289 z M 306.28516 468.21289 L 313.95117 481.49219 L 298.61719 481.49219 L 302.45117 474.85156 L 306.28516 468.21289 z M 392.38086 468.21289 L 400.04688 481.49219 L 384.71484 481.49219 L 388.54688 474.85156 L 392.38086 468.21289 z M 521.52344 468.21289 L 529.19141 481.49219 L 513.85742 481.49219 L 521.52344 468.21289 z M 736.76172 468.21289 L 736.76367 468.21289 L 744.42969 481.49219 L 729.0957 481.49219 L 736.76172 468.21289 z M 952.00195 468.21289 L 959.66992 481.49219 L 944.33594 481.49219 L 952.00195 468.21289 z M 83.378906 497.49219 L 98.712891 497.49219 L 94.878906 504.13281 L 91.046875 510.77344 L 83.378906 497.49219 z M 117.18945 497.49219 L 150.99805 497.49219 L 151 497.49219 L 159.45312 512.13281 L 167.9043 526.77148 L 167.9043 526.77344 L 163.28516 534.77344 L 155.61719 548.05469 L 155.61719 548.05664 L 151 556.05469 L 150.99805 556.05469 L 126.42578 556.05469 L 117.18945 556.05469 L 112.57031 548.05469 L 104.90234 534.77344 L 100.2832 526.77344 L 104.90234 518.77344 L 117.18945 497.49219 z M 169.47461 497.49219 L 184.81055 497.49219 L 177.14258 510.77148 L 169.47461 497.49219 z M 212.52148 497.49219 L 227.85547 497.49219 L 220.18945 510.77344 L 212.52148 497.49219 z M 246.33203 497.49219 L 255.57031 497.49219 L 270.9043 497.49219 L 280.14258 497.49219 L 284.76172 505.49219 L 288.59375 512.13281 L 297.04688 526.77344 L 288.59375 541.41406 L 280.14258 556.05469 L 280.14062 556.05469 L 246.33203 556.05469 L 241.71289 548.05469 L 234.04492 534.77344 L 229.42773 526.77344 L 241.71289 505.49219 L 246.33203 497.49219 z M 298.61719 497.49219 L 313.95117 497.49219 L 306.28516 510.77344 L 298.61719 497.49219 z M 332.42773 497.49219 L 341.66602 497.49219 L 357 497.49219 L 366.23828 497.49219 L 378.52539 518.77344 L 383.14258 526.77344 L 378.52539 534.77344 L 370.85742 548.05469 L 370.59375 548.50977 L 366.23828 556.05469 L 357 556.05469 L 332.42773 556.05469 L 315.52344 526.77539 L 315.52344 526.77344 L 315.52344 526.77148 L 323.97656 512.13281 L 332.42773 497.49219 z M 384.71289 497.49219 L 400.04883 497.49219 L 392.38086 510.77344 L 384.71289 497.49219 z M 504.61914 497.49219 L 538.42773 497.49219 L 538.42969 497.49219 L 543.04883 505.49219 L 546.88281 512.13281 L 550.71484 518.77344 L 551.84961 520.74023 L 553.07031 522.85352 L 553.57031 523.71875 L 555.33398 526.77344 L 546.88281 541.41406 L 543.62891 547.04883 L 538.42969 556.05469 L 538.42773 556.05469 L 529.19141 556.05469 L 513.85742 556.05469 L 504.61914 556.05469 L 496.16602 541.41406 L 487.71484 526.77344 L 492.33203 518.77344 L 500 505.49219 L 504.61914 497.49219 z M 729.0957 497.49219 L 744.42969 497.49219 L 736.76367 510.77148 L 729.0957 497.49219 z M 772.14258 497.49219 L 787.47852 497.49219 L 783.64453 504.13281 L 779.81055 510.77344 L 772.14258 497.49219 z M 901.28516 497.49219 L 916.62109 497.49219 L 912.78906 504.13281 L 909.48828 509.84961 L 908.95508 510.77344 L 908.95312 510.77344 L 901.28516 497.49219 z M 935.09766 497.49219 L 968.90625 497.49219 L 985.81055 526.77344 L 973.52539 548.05469 L 968.90625 556.05469 L 944.33398 556.05469 L 935.09766 556.05469 L 930.47852 548.05469 L 923.82617 536.5332 L 922.81055 534.77344 L 918.19141 526.77344 L 918.19141 526.77148 L 922.81055 518.77344 L 935.09766 497.49219 z M 69.521484 505.49219 L 77.189453 518.77344 L 61.855469 518.77344 L 69.521484 505.49219 z M 198.66602 505.49219 L 206.33398 518.77344 L 191 518.77344 L 198.66602 505.49219 z M 629.14258 505.49219 L 636.81055 518.77344 L 621.47656 518.77344 L 629.14258 505.49219 z M 715.23828 505.49219 L 722.90625 518.77344 L 707.57227 518.77344 L 711.40625 512.13281 L 715.23828 505.49219 z M 758.28711 505.49219 L 765.95508 518.77344 L 750.61914 518.77344 L 754.45312 512.13281 L 758.28711 505.49219 z M 801.33398 505.49219 L 809 518.77344 L 793.66602 518.77344 L 797.5 512.13281 L 801.33398 505.49219 z M 887.42969 505.49219 L 891.26367 512.13281 L 895.09766 518.77344 L 879.76367 518.77344 L 887.42969 505.49219 z M 413.9043 505.49414 L 421.57031 518.77344 L 406.23633 518.77344 L 410.07031 512.13281 L 413.9043 505.49414 z M 61.855469 534.77344 L 77.189453 534.77344 L 69.521484 548.05273 L 61.855469 534.77344 z M 181.76172 534.77344 L 215.57031 534.77344 L 218.99609 540.70703 L 220.18945 542.77344 L 226.95508 554.49219 L 227.85742 556.05469 L 232.47461 564.05273 L 232.47461 564.05469 L 224.02344 578.69531 L 215.57031 593.33398 L 206.33203 593.33398 L 190.99805 593.33398 L 181.76172 593.33398 L 173.30859 578.69531 L 164.85547 564.05469 L 169.47461 556.05469 L 173.30859 549.41406 L 177.14258 542.77344 L 181.76172 534.77344 z M 406.23633 534.77344 L 421.57227 534.77344 L 413.9043 548.05469 L 406.23633 534.77344 z M 449.28516 534.77344 L 464.61914 534.77344 L 456.95117 548.05469 L 449.28516 534.77344 z M 578.42969 534.77344 L 593.76172 534.77344 L 586.0957 548.05273 L 578.42969 534.77344 z M 612.23828 534.77344 L 646.04688 534.77344 L 646.04883 534.77344 L 657.75391 555.04883 L 659.46875 558.02148 L 662.95312 564.05469 L 658.33398 572.05469 L 650.66797 585.33398 L 650.10547 586.30664 L 649.74023 586.94141 L 648.99609 588.23047 L 646.04883 593.33398 L 621.47461 593.33398 L 612.23828 593.33398 L 611.10547 591.37305 L 607.61914 585.33398 L 599.95312 572.05469 L 595.33398 564.05664 L 595.33398 564.05469 L 595.33398 564.05273 L 599.95312 556.05469 L 612.23828 534.77344 z M 664.52344 534.77344 L 679.85742 534.77344 L 672.19141 548.05273 L 664.52344 534.77344 z M 707.57227 534.77344 L 722.90625 534.77344 L 715.23828 548.05469 L 707.57227 534.77344 z M 741.38086 534.77344 L 741.38281 534.77344 L 750.61914 534.77344 L 765.95508 534.77344 L 775.19141 534.77344 L 779.81055 542.77344 L 792.0957 564.05273 L 792.0957 564.05469 L 792.0957 564.05664 L 775.19141 593.33398 L 741.38281 593.33398 L 741.38086 593.33398 L 736.76367 585.33594 L 736.76367 585.33398 L 732.92969 578.69531 L 729.0957 572.05469 L 724.47656 564.05469 L 724.47656 564.05273 L 727.96094 558.02148 L 732.92969 549.41406 L 736.76367 542.77344 L 736.76367 542.77148 L 741.38086 534.77344 z M 793.66797 534.77344 L 809.00195 534.77344 L 801.33398 548.05469 L 793.66797 534.77344 z M 827.47656 534.77344 L 827.47852 534.77344 L 836.71484 534.77344 L 852.04883 534.77344 L 861.28711 534.77344 L 866.92188 544.5332 L 873.57422 556.05469 L 878.19141 564.05273 L 878.19141 564.05469 L 874.5957 570.28516 L 873.57422 572.05469 L 865.90625 585.33398 L 864.35156 588.02734 L 861.28711 593.33398 L 852.04883 593.33398 L 827.47656 593.33398 L 819.02344 578.69531 L 810.57227 564.05469 L 827.47656 534.77344 z M 879.76367 534.77344 L 895.09766 534.77344 L 891.26367 541.41406 L 887.42969 548.05469 L 879.76367 534.77344 z M 306.28516 542.77344 L 313.95117 556.05469 L 298.61719 556.05469 L 302.45117 549.41406 L 306.28516 542.77344 z M 435.42773 542.77344 L 439.26172 549.41406 L 443.0957 556.05469 L 427.76172 556.05469 L 435.42773 542.77344 z M 564.57227 542.77344 L 572.24023 556.05469 L 556.9043 556.05469 L 560.73828 549.41406 L 564.57227 542.77344 z M 693.71484 542.77344 L 701.38281 556.05469 L 686.04883 556.05469 L 693.71484 542.77344 z M 908.95312 542.77344 L 916.62109 556.05469 L 901.28711 556.05469 L 905.12109 549.41406 L 908.95312 542.77344 z M 91.046875 542.77539 L 98.712891 556.05469 L 83.378906 556.05469 L 91.046875 542.77539 z M 392.38086 542.77539 L 396.21484 549.41406 L 400.04688 556.05469 L 384.71484 556.05469 L 392.38086 542.77539 z M 478.47656 542.77539 L 482.30859 549.41406 L 486.14258 556.05469 L 470.80859 556.05469 L 478.47656 542.77539 z M 83.378906 572.05469 L 98.712891 572.05469 L 94.878906 578.69531 L 91.046875 585.33398 L 91.044922 585.33398 L 89.548828 582.74023 L 83.378906 572.05469 z M 126.42773 572.05469 L 141.76172 572.05469 L 137.92773 578.69531 L 134.09375 585.33398 L 126.42773 572.05469 z M 255.57031 572.05469 L 270.9043 572.05469 L 263.23828 585.33398 L 263.23633 585.33398 L 255.57031 572.05469 z M 289.37891 572.05469 L 289.38086 572.05469 L 323.18945 572.05469 L 325.12109 575.40039 L 340.0957 601.33398 L 335.47656 609.33398 L 327.80859 622.61523 L 323.18945 630.61523 L 298.61719 630.61523 L 289.38086 630.61523 L 289.37891 630.61523 L 284.76172 622.61719 L 284.76172 622.61523 L 277.09375 609.33398 L 272.47461 601.33398 L 277.09375 593.33398 L 280.92578 586.69531 L 289.37891 572.05469 z M 341.66602 572.05469 L 357 572.05469 L 353.16797 578.69531 L 349.33398 585.33398 L 349.33203 585.33398 L 341.66602 572.05469 z M 384.71289 572.05469 L 400.04688 572.05469 L 392.38086 585.33398 L 384.71289 572.05469 z M 418.52344 572.05469 L 427.75977 572.05469 L 443.0957 572.05469 L 452.33203 572.05469 L 452.33398 572.05469 L 456.95117 580.05273 L 456.95117 580.05469 L 459.63086 584.69531 L 469.23828 601.33398 L 452.33398 630.61523 L 452.33203 630.61523 L 418.52344 630.61523 L 413.9043 622.61523 L 406.23828 609.33398 L 403.88281 605.25391 L 401.61914 601.33398 L 413.9043 580.05469 L 415.9668 576.48047 L 418.52344 572.05469 z M 470.80859 572.05469 L 486.14258 572.05469 L 478.47656 585.33398 L 478.47461 585.33398 L 470.80859 572.05469 z M 504.61914 572.05469 L 513.85547 572.05469 L 529.19141 572.05469 L 538.42773 572.05469 L 538.42969 572.05469 L 546.88281 586.69531 L 550.71484 593.33398 L 552.38672 596.23047 L 555.33398 601.33398 L 550.71484 609.33398 L 546.88281 615.97461 L 543.04883 622.61523 L 540.69336 626.69531 L 538.42969 630.61523 L 538.42773 630.61523 L 529.19141 630.61523 L 504.61914 630.61523 L 496.16602 615.97461 L 487.71484 601.33398 L 504.61914 572.05469 z M 556.9043 572.05469 L 572.24023 572.05469 L 564.57227 585.33398 L 560.73828 578.69531 L 556.9043 572.05469 z M 676.81055 572.05469 L 710.61914 572.05469 L 710.62109 572.05469 L 715.23828 580.05273 L 715.23828 580.05469 L 719.07422 586.69531 L 722.90625 593.33398 L 727.52539 601.33398 L 710.62109 630.61523 L 710.61914 630.61523 L 701.38281 630.61523 L 686.04688 630.61523 L 676.81055 630.61523 L 668.35742 615.97461 L 659.9043 601.33398 L 664.52344 593.33398 L 672.19141 580.05469 L 672.19141 580.05273 L 676.81055 572.05469 z M 901.28711 572.05469 L 916.62109 572.05469 L 908.95508 585.33398 L 908.95312 585.33398 L 901.28711 572.05469 z M 944.33398 572.05469 L 959.66797 572.05469 L 952.00195 585.33398 L 944.33398 572.05469 z M 69.521484 580.05469 L 77.189453 593.33398 L 61.855469 593.33398 L 69.521484 580.05469 z M 112.57031 580.05469 L 120.23828 593.33398 L 104.90234 593.33398 L 108.73633 586.69531 L 112.57031 580.05469 z M 155.61719 580.05469 L 155.61914 580.05469 L 163.28516 593.33398 L 147.95117 593.33398 L 151.78516 586.69531 L 155.61719 580.05469 z M 241.71289 580.05469 L 249.38086 593.33398 L 234.04688 593.33398 L 237.87891 586.69531 L 241.71289 580.05469 z M 370.85547 580.05469 L 370.85742 580.05469 L 378.52344 593.33398 L 363.18945 593.33398 L 370.85547 580.05469 z M 586.0957 580.05469 L 589.92969 586.69531 L 593.76172 593.33398 L 578.42969 593.33398 L 586.0957 580.05469 z M 801.33398 580.05469 L 809 593.33398 L 793.66797 593.33398 L 801.33398 580.05469 z M 887.42969 580.05469 L 891.26367 586.69531 L 895.09766 593.33398 L 879.76367 593.33398 L 887.42969 580.05469 z M 930.47656 580.05469 L 930.47852 580.05469 L 938.14453 593.33398 L 922.81055 593.33398 L 930.47656 580.05469 z M 973.52539 580.05664 L 981.19141 593.33398 L 965.85938 593.33398 L 969.69141 586.69531 L 973.52539 580.05664 z M 18.806641 609.33398 L 34.140625 609.33398 L 30.308594 615.97461 L 26.474609 622.61523 L 18.806641 609.33398 z M 61.855469 609.33398 L 77.189453 609.33398 L 69.521484 622.61523 L 61.855469 609.33398 z M 95.664062 609.33398 L 95.666016 609.33398 L 104.90234 609.33398 L 120.23828 609.33398 L 129.47461 609.33398 L 134.09375 617.33398 L 137.17969 622.67969 L 146.37891 638.61133 L 146.38086 638.61523 L 137.92773 653.25391 L 129.47461 667.89453 L 95.666016 667.89453 L 95.664062 667.89453 L 91.046875 659.89648 L 91.046875 659.89453 L 83.378906 646.61523 L 78.759766 638.61719 L 78.759766 638.61523 L 91.046875 617.33398 L 95.664062 609.33398 z M 147.95117 609.33398 L 163.28516 609.33398 L 155.61719 622.61328 L 151.78516 615.97461 L 147.95117 609.33398 z M 181.76172 609.33398 L 190.99805 609.33398 L 206.33203 609.33398 L 215.57031 609.33398 L 227.85742 630.61523 L 232.47461 638.61328 L 232.47461 638.61523 L 227.85742 646.61523 L 220.18945 659.89453 L 215.57031 667.89453 L 206.33203 667.89453 L 181.76172 667.89453 L 173.30859 653.25391 L 164.85547 638.61523 L 173.30859 623.97461 L 181.76172 609.33398 z M 234.04492 609.33398 L 249.38086 609.33398 L 241.71289 622.61523 L 234.04492 609.33398 z M 353.95117 609.33398 L 353.95312 609.33398 L 387.76172 609.33398 L 392.38086 617.33398 L 395.05859 621.97461 L 399.51367 629.69141 L 400.04688 630.61523 L 404.66602 638.61523 L 404.66602 638.61719 L 388.89453 665.93359 L 387.76172 667.89453 L 378.52539 667.89453 L 363.18945 667.89453 L 353.95117 667.89453 L 345.5 653.25391 L 337.04688 638.61523 L 341.66602 630.61523 L 345.5 623.97461 L 349.33203 617.33398 L 353.95117 609.33398 z M 578.42969 609.33398 L 593.76172 609.33398 L 586.0957 622.61328 L 578.42969 609.33398 z M 621.47656 609.33398 L 636.81055 609.33398 L 629.14258 622.61523 L 621.47656 609.33398 z M 750.61914 609.33398 L 765.95312 609.33398 L 758.28711 622.61523 L 750.61914 609.33398 z M 784.42969 609.33398 L 818.23828 609.33398 L 835.14453 638.61328 L 835.14453 638.61523 L 832.08008 643.92188 L 830.52539 646.61523 L 822.85742 659.89453 L 822.85742 659.89648 L 821.30273 662.58789 L 818.23828 667.89453 L 793.66797 667.89453 L 784.42969 667.89453 L 779.81055 659.89453 L 772.14258 646.61523 L 767.52539 638.61523 L 767.52539 638.61328 L 772.14258 630.61523 L 772.17578 630.55859 L 784.42969 609.33398 z M 836.71484 609.33398 L 852.04883 609.33398 L 848.21484 615.97461 L 844.38281 622.61523 L 836.71484 609.33398 z M 879.76172 609.33398 L 895.09766 609.33398 L 887.42969 622.61523 L 879.76172 609.33398 z M 913.57227 609.33398 L 913.57422 609.33398 L 922.81055 609.33398 L 938.14453 609.33398 L 947.38281 609.33398 L 952.00195 617.33398 L 964.28906 638.61523 L 947.38281 667.89453 L 913.57227 667.89453 L 908.95312 659.89453 L 905.12109 653.25391 L 901.28711 646.61523 L 899.61523 643.71875 L 896.66797 638.61523 L 900.15234 632.58203 L 905.12109 623.97461 L 908.95312 617.33398 L 913.57227 609.33398 z M 965.85938 609.33398 L 981.19141 609.33398 L 973.52539 622.61328 L 965.85938 609.33398 z M 47.998047 617.33398 L 55.666016 630.61523 L 40.330078 630.61523 L 47.998047 617.33398 z M 263.23633 617.33398 L 270.9043 630.61523 L 255.56836 630.61523 L 263.23633 617.33398 z M 478.47656 617.33398 L 482.30859 623.97461 L 486.14258 630.61523 L 470.80859 630.61523 L 478.47656 617.33398 z M 564.57227 617.33398 L 572.24023 630.61523 L 556.9043 630.61523 L 560.73828 623.97461 L 564.57227 617.33398 z M 607.61914 617.33398 L 615.28711 630.61523 L 599.95312 630.61523 L 603.78516 623.97461 L 607.61914 617.33398 z M 650.66602 617.33398 L 650.66797 617.33398 L 658.33398 630.61523 L 643 630.61523 L 646.83203 623.97461 L 650.66602 617.33398 z M 736.76367 617.33398 L 740.59766 623.97461 L 744.42969 630.61523 L 729.0957 630.61523 L 736.76367 617.33398 z M 865.90625 617.33398 L 873.57227 630.61523 L 858.23828 630.61523 L 862.07227 623.97461 L 865.90625 617.33398 z M 31.091797 646.61523 L 31.09375 646.61523 L 64.902344 646.61523 L 68.474609 652.80273 L 69.521484 654.61523 L 71.757812 658.48633 L 77.189453 667.89453 L 79.416016 671.75195 L 81.808594 675.89453 L 81.808594 675.89648 L 73.355469 690.53516 L 64.902344 705.17578 L 55.666016 705.17578 L 31.09375 705.17578 L 31.091797 705.17578 L 19.708984 685.45703 L 14.1875 675.89453 L 26.474609 654.61328 L 31.091797 646.61523 z M 255.57031 646.61523 L 270.9043 646.61523 L 263.23828 659.89453 L 263.23633 659.89453 L 255.57031 646.61523 z M 298.61719 646.61523 L 313.95312 646.61523 L 306.28516 659.89453 L 298.61719 646.61523 z M 427.76172 646.61523 L 443.0957 646.61523 L 439.26172 653.25391 L 435.42773 659.89453 L 427.76172 646.61523 z M 461.57031 646.61523 L 495.38086 646.61523 L 512.28516 675.89453 L 507.66797 683.89453 L 500 697.17578 L 495.38086 705.17578 L 470.80859 705.17578 L 461.57227 705.17578 L 461.57031 705.17578 L 456.95117 697.17578 L 453.11719 690.53516 L 449.28516 683.89453 L 444.66602 675.89648 L 444.66602 675.89453 L 449.28516 667.89453 L 453.11719 661.25391 L 461.57031 646.61523 z M 513.85742 646.61523 L 529.19141 646.61523 L 521.52344 659.89453 L 513.85742 646.61523 z M 556.9043 646.61523 L 572.24023 646.61523 L 564.57227 659.89453 L 556.9043 646.61523 z M 590.71484 646.61523 L 599.95312 646.61523 L 615.28711 646.61523 L 624.52344 646.61523 L 628.0957 652.80273 L 629.14258 654.61523 L 632.97656 661.25391 L 641.42969 675.89453 L 633.72461 689.24023 L 624.52344 705.17578 L 590.71484 705.17578 L 589.89062 703.74805 L 586.0957 697.17578 L 586.0957 697.17383 L 578.42773 683.89453 L 573.81055 675.89648 L 573.81055 675.89453 L 578.06445 668.52734 L 586.0957 654.61523 L 590.71484 646.61523 z M 643 646.61523 L 658.33398 646.61523 L 650.66797 659.89453 L 650.66602 659.89453 L 643 646.61523 z M 676.81055 646.61523 L 686.04688 646.61523 L 701.38281 646.61523 L 710.61914 646.61523 L 710.62109 646.61523 L 722.90625 667.89453 L 727.52539 675.89453 L 722.90625 683.89453 L 715.23828 697.17578 L 710.62109 705.17578 L 710.61914 705.17578 L 701.38281 705.17578 L 676.81055 705.17578 L 668.35742 690.53516 L 659.9043 675.89453 L 668.35742 661.25391 L 676.81055 646.61523 z M 729.0957 646.61523 L 744.42969 646.61523 L 740.59766 653.25391 L 736.76367 659.89453 L 736.76172 659.89453 L 729.0957 646.61523 z M 849 646.61523 L 849.00195 646.61523 L 882.81055 646.61523 L 885.875 651.92188 L 887.42969 654.61328 L 887.42969 654.61523 L 891.26367 661.25391 L 895.09766 667.89453 L 897.32422 671.75195 L 899.7168 675.89453 L 891.26367 690.53516 L 882.81055 705.17578 L 873.57422 705.17578 L 858.23828 705.17578 L 849.00195 705.17578 L 849 705.17578 L 832.0957 675.89453 L 833.22852 673.93359 L 836.71484 667.89453 L 844.38281 654.61523 L 844.38281 654.61328 L 849 646.61523 z M 155.61719 654.61523 L 155.61914 654.61523 L 163.28516 667.89453 L 147.95117 667.89453 L 151.78516 661.25391 L 155.61719 654.61523 z M 241.71289 654.61523 L 245.54688 661.25391 L 249.38086 667.89453 L 234.04688 667.89453 L 241.71289 654.61523 z M 284.75977 654.61523 L 284.76172 654.61523 L 288.59375 661.25391 L 292.42773 667.89453 L 277.09375 667.89453 L 284.75977 654.61523 z M 327.80859 654.61523 L 327.81055 654.61523 L 335.47656 667.89453 L 320.14258 667.89453 L 327.80859 654.61523 z M 413.9043 654.61523 L 421.57031 667.89453 L 406.23828 667.89453 L 410.07031 661.25391 L 413.9043 654.61523 z M 543.04688 654.61523 L 543.04883 654.61523 L 550.71484 667.89453 L 535.38086 667.89453 L 543.04688 654.61523 z M 758.28711 654.61523 L 765.95312 667.89453 L 750.61914 667.89453 L 758.28711 654.61523 z M 973.52539 654.61523 L 981.19336 667.89453 L 965.85938 667.89453 L 969.69141 661.25391 L 973.52539 654.61523 z M 104.90234 683.89453 L 120.23633 683.89453 L 112.57031 697.17578 L 104.90234 683.89453 z M 138.71289 683.89453 L 172.52148 683.89453 L 172.52344 683.89453 L 184.22852 704.16992 L 189.42773 713.17578 L 180.97656 727.81641 L 172.52344 742.45508 L 147.95117 742.45508 L 138.71289 742.45508 L 126.42578 721.17578 L 121.80859 713.17578 L 126.42578 705.17578 L 138.71289 683.89453 z M 191 683.89453 L 206.33203 683.89453 L 206.33398 683.89453 L 202.5 690.53516 L 198.66602 697.17578 L 191 683.89453 z M 234.04688 683.89453 L 249.38086 683.89453 L 245.54688 690.53516 L 241.71289 697.17383 L 234.04688 683.89453 z M 267.85547 683.89453 L 267.85742 683.89453 L 277.09375 683.89453 L 292.42773 683.89453 L 301.66602 683.89453 L 304.14844 688.19336 L 306.28516 691.89453 L 318.57227 713.17578 L 301.66602 742.45508 L 267.85547 742.45508 L 259.40234 727.81641 L 255.57031 721.17578 L 250.95117 713.17578 L 250.95117 713.17383 L 254.43555 707.14258 L 263.23633 691.89453 L 264.60156 689.53125 L 267.85547 683.89453 z M 320.14258 683.89453 L 335.47656 683.89453 L 327.80859 697.17578 L 320.14258 683.89453 z M 353.95117 683.89453 L 353.95312 683.89453 L 363.18945 683.89453 L 378.52539 683.89453 L 387.76172 683.89453 L 391.24609 689.92773 L 400.04688 705.17578 L 404.66602 713.17383 L 404.66602 713.17578 L 404.66602 713.17773 L 400.04688 721.17578 L 392.38086 734.45508 L 392.38086 734.45703 L 387.76172 742.45508 L 378.52539 742.45508 L 353.95117 742.45508 L 345.5 727.81641 L 337.04688 713.17578 L 337.04688 713.17383 L 353.95117 683.89453 z M 406.23828 683.89453 L 421.57227 683.89453 L 413.9043 697.17383 L 410.07031 690.53516 L 406.23828 683.89453 z M 526.14258 683.89453 L 526.14453 683.89453 L 559.95312 683.89453 L 564.57227 691.89453 L 568.40625 698.53516 L 572.24023 705.17578 L 576.85742 713.17383 L 576.85742 713.17578 L 559.95312 742.45508 L 550.71484 742.45508 L 535.38086 742.45508 L 526.14258 742.45508 L 517.69141 727.81641 L 509.23828 713.17578 L 517.69141 698.53516 L 521.52344 691.89453 L 526.14258 683.89453 z M 750.61914 683.89453 L 765.95312 683.89453 L 758.28711 697.17578 L 750.61914 683.89453 z M 793.66602 683.89453 L 793.66797 683.89453 L 809 683.89453 L 801.33398 697.17578 L 793.66602 683.89453 z M 922.81055 683.89453 L 938.14453 683.89453 L 930.47852 697.17578 L 922.81055 683.89453 z M 91.044922 691.89453 L 91.046875 691.89453 L 98.714844 705.17578 L 83.378906 705.17578 L 87.210938 698.53516 L 91.044922 691.89453 z M 220.18945 691.89453 L 227.85742 705.17578 L 212.52148 705.17578 L 216.35547 698.53516 L 220.18945 691.89453 z M 650.66602 691.89453 L 650.66797 691.89453 L 658.33398 705.17578 L 643 705.17578 L 646.83203 698.53516 L 650.66602 691.89453 z M 736.76367 691.89453 L 744.43164 705.17578 L 729.0957 705.17578 L 736.76367 691.89453 z M 779.81055 691.89453 L 783.64453 698.53516 L 787.47852 705.17578 L 772.14258 705.17578 L 779.81055 691.89453 z M 822.85742 691.89453 L 830.52539 705.17578 L 815.18945 705.17578 L 822.85742 691.89453 z M 908.95312 691.89453 L 916.62109 705.17578 L 901.28516 705.17578 L 908.95312 691.89453 z M 435.42773 691.89648 L 439.26172 698.53516 L 443.0957 705.17578 L 427.76172 705.17578 L 435.42773 691.89648 z M 31.09375 721.17578 L 55.666016 721.17578 L 64.902344 721.17578 L 74.570312 737.91992 L 77.189453 742.45508 L 78.119141 744.06641 L 81.679688 750.23242 L 81.808594 750.45508 L 77.189453 758.45508 L 73.355469 765.0957 L 69.521484 771.73633 L 69.521484 771.73828 L 64.902344 779.73633 L 55.666016 779.73633 L 31.09375 779.73633 L 31.091797 779.73633 L 14.1875 750.45508 L 31.09375 721.17578 z M 83.378906 721.17578 L 98.712891 721.17578 L 94.878906 727.81641 L 91.046875 734.45508 L 91.044922 734.45508 L 83.378906 721.17578 z M 203.28516 721.17578 L 237.09375 721.17578 L 241.71289 729.17383 L 249.38086 742.45508 L 250.93555 745.14844 L 251.66406 746.4082 L 254 750.45508 L 237.09375 779.73633 L 227.85742 779.73633 L 212.52148 779.73633 L 203.28516 779.73633 L 189.4707 755.81055 L 186.38086 750.45703 L 186.38086 750.45508 L 190.99805 742.45508 L 194.83203 735.81641 L 198.66602 729.17578 L 199.6875 727.40625 L 203.28516 721.17578 z M 427.76172 721.17578 L 443.0957 721.17578 L 435.42773 734.45508 L 427.76172 721.17578 z M 470.80859 721.17578 L 486.14258 721.17578 L 478.47656 734.45508 L 478.47461 734.45508 L 470.80859 721.17578 z M 599.95117 721.17578 L 615.28516 721.17578 L 607.61914 734.45508 L 599.95117 721.17578 z M 633.76172 721.17578 L 667.57227 721.17578 L 677.17969 737.81641 L 684.47656 750.45508 L 684.47656 750.45703 L 679.85938 758.45508 L 672.19141 771.73633 L 667.57227 779.73633 L 643 779.73633 L 633.76172 779.73633 L 633.20703 778.77344 L 629.14258 771.73633 L 625.30859 765.0957 L 621.47461 758.45508 L 616.85742 750.45508 L 623.43359 739.06445 L 631.9375 724.33594 L 633.76172 721.17578 z M 686.04883 721.17578 L 701.38281 721.17578 L 693.71484 734.45508 L 686.04883 721.17578 z M 729.0957 721.17578 L 744.42969 721.17578 L 740.59766 727.81641 L 736.76367 734.45508 L 736.76172 734.45508 L 729.0957 721.17578 z M 762.90625 721.17578 L 772.14258 721.17578 L 787.47656 721.17578 L 796.71484 721.17578 L 800.3125 727.40625 L 801.33398 729.17578 L 805.16797 735.81641 L 813.61914 750.45703 L 810.5293 755.81055 L 796.71484 779.73633 L 762.90625 779.73633 L 758.28711 771.73633 L 754.45312 765.0957 L 750.61914 758.45508 L 746.00195 750.45703 L 757.95898 729.74414 L 758.28711 729.17383 L 762.90625 721.17578 z M 815.19141 721.17578 L 830.52539 721.17578 L 822.85938 734.45508 L 822.85742 734.45508 L 815.19141 721.17578 z M 849 721.17578 L 849.00195 721.17578 L 858.23828 721.17578 L 873.57422 721.17578 L 882.81055 721.17578 L 895.09766 742.45508 L 896.65234 745.14844 L 899.71484 750.45703 L 895.36133 758 L 895.09766 758.45508 L 890.10938 767.0957 L 887.42969 771.73633 L 886.55469 773.25195 L 882.81055 779.73633 L 873.57422 779.73633 L 849.00195 779.73633 L 849 779.73633 L 841.45703 766.66992 L 832.0957 750.45508 L 849 721.17578 z M 901.28711 721.17578 L 916.62109 721.17578 L 908.95508 734.45508 L 908.95312 734.45508 L 901.28711 721.17578 z M 112.57031 729.17578 L 120.23633 742.45508 L 104.9043 742.45508 L 112.57031 729.17578 z M 327.80859 729.17578 L 335.47656 742.45508 L 320.14258 742.45508 L 327.80859 729.17578 z M 413.9043 729.17578 L 421.57031 742.45508 L 406.23828 742.45508 L 410.07031 735.81641 L 413.9043 729.17578 z M 456.95117 729.17578 L 456.95312 729.17578 L 464.61914 742.45508 L 449.28516 742.45508 L 456.95117 729.17578 z M 500 729.17578 L 507.66602 742.45508 L 492.33398 742.45508 L 500 729.17578 z M 586.0957 729.17578 L 593.76172 742.45508 L 578.42969 742.45508 L 586.0957 729.17578 z M 715.23828 729.17578 L 722.90625 742.45508 L 707.57227 742.45508 L 715.23828 729.17578 z M 930.47852 729.17578 L 938.14453 742.45508 L 922.81055 742.45508 L 930.47852 729.17578 z M 104.90234 758.45508 L 120.23828 758.45508 L 112.57031 771.73633 L 104.90234 758.45508 z M 147.95117 758.45508 L 163.28516 758.45508 L 155.61719 771.73633 L 147.95117 758.45508 z M 277.09375 758.45508 L 292.42773 758.45508 L 288.59375 765.0957 L 284.76172 771.73633 L 277.09375 758.45508 z M 310.9043 758.45508 L 344.71289 758.45508 L 344.71484 758.45508 L 361.61914 787.73633 L 357 795.73633 L 353.16797 802.37695 L 349.33203 809.01758 L 349.33203 809.01953 L 344.71484 817.01758 L 344.71289 817.01758 L 320.14062 817.01758 L 310.9043 817.01758 L 306.28516 809.01758 L 298.61719 795.73633 L 293.99805 787.73633 L 298.61719 779.73633 L 301.70312 774.39062 L 302.45117 773.0957 L 310.9043 758.45508 z M 363.18945 758.45508 L 378.52344 758.45508 L 370.85742 771.73438 L 363.18945 758.45508 z M 406.23633 758.45508 L 421.57031 758.45508 L 413.9043 771.73633 L 406.23633 758.45508 z M 440.04688 758.45508 L 449.28516 758.45508 L 464.61914 758.45508 L 473.85547 758.45508 L 473.85742 758.45508 L 478.47656 766.45703 L 490.76172 787.73438 L 490.76172 787.73633 L 490.76172 787.73828 L 473.85742 817.01758 L 473.85547 817.01758 L 440.04688 817.01758 L 435.42773 809.01758 L 431.59375 802.37695 L 427.75977 795.73633 L 423.14258 787.73633 L 434.84766 767.46094 L 435.42773 766.45703 L 440.04688 758.45508 z M 492.33203 758.45508 L 507.66602 758.45508 L 500 771.73633 L 492.33203 758.45508 z M 526.14258 758.45508 L 535.38086 758.45508 L 550.71484 758.45508 L 559.95312 758.45508 L 568.40625 773.0957 L 572.24023 779.73633 L 576.85742 787.73633 L 572.24023 795.73633 L 564.57227 809.01758 L 559.95312 817.01758 L 550.71484 817.01758 L 526.14453 817.01758 L 526.14258 817.01758 L 517.69141 802.37695 L 509.23828 787.73828 L 509.23828 787.73633 L 509.23828 787.73438 L 526.14258 758.45508 z M 578.42969 758.45508 L 593.76367 758.45508 L 586.0957 771.73633 L 578.42969 758.45508 z M 698.33398 758.45508 L 732.14258 758.45508 L 732.14453 758.45508 L 736.76367 766.45703 L 740.59766 773.0957 L 744.42969 779.73633 L 749.04883 787.73633 L 749.04883 787.73828 L 740.59766 802.37695 L 732.14453 817.01758 L 722.90625 817.01758 L 707.57227 817.01758 L 698.33398 817.01758 L 690.62891 803.67188 L 681.42969 787.74023 L 681.42969 787.73633 L 686.04688 779.73633 L 693.71484 766.45703 L 693.71484 766.45508 L 698.33398 758.45508 z M 922.81055 758.45508 L 938.14648 758.45508 L 930.47852 771.73633 L 922.81055 758.45508 z M 965.85742 758.45508 L 981.19336 758.45508 L 973.52539 771.73438 L 965.85742 758.45508 z M 134.09375 766.45508 L 137.92773 773.0957 L 141.76172 779.73633 L 126.42773 779.73633 L 134.09375 766.45508 z M 177.14258 766.45508 L 180.97656 773.0957 L 184.80859 779.73633 L 169.47461 779.73633 L 177.14258 766.45508 z M 392.38086 766.45508 L 396.21484 773.0957 L 400.04883 779.73633 L 384.71484 779.73633 L 392.38086 766.45508 z M 908.95312 766.45508 L 908.95508 766.45508 L 912.78906 773.0957 L 916.62109 779.73633 L 901.28711 779.73633 L 908.95312 766.45703 L 908.95312 766.45508 z M 91.046875 766.45703 L 98.712891 779.73633 L 83.378906 779.73633 L 91.046875 766.45703 z M 263.23633 766.45703 L 270.9043 779.73633 L 255.57031 779.73633 L 263.23633 766.45703 z M 607.61914 766.45703 L 615.28516 779.73633 L 599.95117 779.73633 L 603.78516 773.0957 L 607.61914 766.45703 z M 822.85742 766.45703 L 830.52539 779.73633 L 815.18945 779.73633 L 822.85742 766.45703 z M 952.00195 766.45703 L 959.66797 779.73633 L 944.33398 779.73633 L 952.00195 766.45703 z M 40.330078 795.73633 L 55.666016 795.73633 L 51.832031 802.37695 L 47.998047 809.01758 L 40.330078 795.73633 z M 83.378906 795.73633 L 98.712891 795.73633 L 94.878906 802.37695 L 91.046875 809.01758 L 83.378906 795.73633 z M 117.18945 795.73633 L 126.42578 795.73633 L 141.76172 795.73633 L 150.99805 795.73633 L 151 795.73633 L 155.61719 803.73438 L 155.61719 803.73633 L 167.9043 825.01758 L 159.45312 839.65625 L 151 854.29688 L 150.99805 854.29688 L 117.18945 854.29688 L 112.57031 846.29883 L 112.57031 846.29688 L 104.90234 833.01758 L 100.2832 825.01758 L 112.57031 803.73633 L 117.18945 795.73633 z M 169.47461 795.73633 L 184.80859 795.73633 L 180.97656 802.37695 L 177.14258 809.01758 L 169.47461 795.73633 z M 203.28516 795.73633 L 212.52344 795.73633 L 227.85742 795.73633 L 237.09375 795.73633 L 245.54688 810.37695 L 249.38086 817.01758 L 254 825.01758 L 249.38086 833.01758 L 245.54688 839.65625 L 241.71289 846.29688 L 240.1582 848.99023 L 237.09375 854.29688 L 227.85742 854.29688 L 203.28516 854.29688 L 186.38086 825.01758 L 194.08398 811.67188 L 194.83203 810.37695 L 203.28516 795.73633 z M 255.57031 795.73633 L 270.9043 795.73633 L 263.23633 809.01562 L 255.57031 795.73633 z M 375.47656 795.73633 L 409.28516 795.73633 L 413.9043 803.73633 L 421.03711 816.09375 L 421.57227 817.01758 L 426.18945 825.01562 L 426.18945 825.01758 L 417.73828 839.65625 L 409.28516 854.29688 L 400.04688 854.29688 L 384.71289 854.29688 L 375.47656 854.29688 L 358.57031 825.01758 L 363.18945 817.01758 L 367.02344 810.37695 L 370.85742 803.73633 L 375.47656 795.73633 z M 599.95117 795.73633 L 615.28516 795.73633 L 607.61914 809.01758 L 599.95117 795.73633 z M 643 795.73633 L 658.33398 795.73633 L 654.5 802.37695 L 650.66797 809.01758 L 643 795.73633 z M 772.14258 795.73633 L 787.47656 795.73633 L 787.47852 795.73633 L 779.81055 809.01758 L 772.14258 795.73633 z M 805.95312 795.73633 L 839.76172 795.73633 L 839.76367 795.73633 L 856.66797 825.01758 L 852.04883 833.01758 L 844.38281 846.29688 L 839.76367 854.29688 L 839.76172 854.29688 L 815.18945 854.29688 L 805.95312 854.29688 L 804.82031 852.33594 L 801.33398 846.29688 L 793.66797 833.01758 L 791.99609 830.12109 L 789.04883 825.01953 L 789.04883 825.01758 L 791.74219 820.35156 L 793.66797 817.01758 L 801.41992 803.58789 L 805.95312 795.73633 z M 858.23828 795.73633 L 873.57227 795.73633 L 865.90625 809.01562 L 862.07227 802.37695 L 858.23828 795.73633 z M 901.28711 795.73633 L 916.62109 795.73633 L 908.95312 809.01562 L 901.28711 795.73633 z M 935.09766 795.73633 L 944.33398 795.73633 L 968.90625 795.73633 L 973.52539 803.73633 L 985.81055 825.01758 L 968.90625 854.29688 L 935.09766 854.29688 L 931.52539 848.10938 L 930.47852 846.29883 L 930.47852 846.29688 L 922.81055 833.01758 L 921.88086 831.40625 L 918.19141 825.01758 L 925.89648 811.67188 L 926.64453 810.37695 L 930.47852 803.73633 L 935.09766 795.73633 z M 69.521484 803.73633 L 77.189453 817.01758 L 61.855469 817.01758 L 65.6875 810.37695 L 69.521484 803.73633 z M 284.76172 803.73633 L 288.59375 810.37695 L 292.42773 817.01758 L 277.09375 817.01758 L 284.76172 803.73633 z M 500 803.73633 L 507.66797 817.01758 L 492.33398 817.01758 L 500 803.73633 z M 586.0957 803.73633 L 593.76367 817.01758 L 578.42969 817.01758 L 586.0957 803.73633 z M 629.14258 803.73633 L 636.81055 817.01758 L 621.47656 817.01758 L 629.14258 803.73633 z M 672.19141 803.73633 L 679.32422 816.09375 L 679.85742 817.01758 L 664.52344 817.01758 L 672.19141 803.73633 z M 887.42969 803.73633 L 891.26367 810.37695 L 895.09766 817.01758 L 879.76367 817.01758 L 887.42969 803.73633 z M 758.28711 803.73828 L 765.95312 817.01758 L 750.61914 817.01758 L 754.45312 810.37695 L 758.28711 803.73828 z M 52.617188 833.01758 L 86.425781 833.01758 L 86.427734 833.01758 L 91.046875 841.01758 L 98.712891 854.29688 L 102.19922 860.33594 L 103.33203 862.29688 L 103.33203 862.29883 L 94.878906 876.9375 L 86.427734 891.57812 L 77.189453 891.57812 L 61.855469 891.57812 L 52.617188 891.57812 L 44.164062 876.9375 L 35.710938 862.29688 L 44.164062 847.65625 L 47.998047 841.01758 L 49.552734 838.32422 L 52.617188 833.01758 z M 277.09375 833.01758 L 292.42773 833.01758 L 288.59375 839.65625 L 284.76172 846.29688 L 284.75977 846.29688 L 277.09375 833.01758 z M 320.14258 833.01758 L 335.47656 833.01758 L 331.64258 839.65625 L 327.80859 846.29688 L 320.14258 833.01758 z M 449.28516 833.01758 L 464.61914 833.01758 L 456.95312 846.29688 L 456.95117 846.29688 L 449.28516 833.01758 z M 483.0957 833.01758 L 516.9043 833.01758 L 533.81055 862.29688 L 529.19141 870.29688 L 525.35742 876.9375 L 521.52344 883.57812 L 516.9043 891.57812 L 492.33203 891.57812 L 483.0957 891.57812 L 478.47656 883.57812 L 470.80859 870.29688 L 466.18945 862.29688 L 468.94922 857.51562 L 470.80859 854.29688 L 472.89844 850.67773 L 479.20703 839.75195 L 483.0957 833.01758 z M 535.38086 833.01758 L 550.71484 833.01758 L 546.88281 839.65625 L 543.04883 846.29688 L 543.04688 846.29688 L 535.38086 833.01758 z M 578.42773 833.01758 L 593.76172 833.01758 L 589.92969 839.65625 L 586.0957 846.29688 L 578.42773 833.01758 z M 612.23828 833.01758 L 621.47461 833.01758 L 636.81055 833.01758 L 646.04883 833.01758 L 647.18164 834.97852 L 650.66797 841.01758 L 654.5 847.65625 L 662.95312 862.29688 L 646.04883 891.57812 L 646.04688 891.57812 L 612.23828 891.57812 L 607.61914 883.57812 L 603.78516 876.9375 L 599.95312 870.29688 L 597.59766 866.2168 L 596.23633 863.86133 L 595.33398 862.29688 L 607.61914 841.01758 L 612.23828 833.01758 z M 664.52344 833.01758 L 679.85742 833.01758 L 672.19141 846.29688 L 664.52344 833.01758 z M 698.33398 833.01758 L 707.57227 833.01758 L 722.90625 833.01758 L 732.14453 833.01758 L 733.27734 834.97852 L 740.59766 847.65625 L 744.42969 854.29688 L 749.04883 862.29492 L 749.04883 862.29688 L 749.04883 862.29883 L 744.42969 870.29688 L 736.76367 883.57812 L 732.14453 891.57812 L 732.14258 891.57812 L 722.90625 891.57812 L 698.33398 891.57812 L 689.88086 876.9375 L 681.42969 862.29688 L 698.33398 833.01758 z M 750.61914 833.01758 L 765.95312 833.01758 L 758.28711 846.29688 L 750.61914 833.01758 z M 870.52539 833.01758 L 904.33398 833.01758 L 904.33594 833.01758 L 908.95312 841.01562 L 908.95312 841.01758 L 916.62109 854.29688 L 921.24023 862.29688 L 904.33594 891.57812 L 904.33398 891.57812 L 895.09766 891.57812 L 879.76172 891.57812 L 870.52539 891.57812 L 862.82031 878.23242 L 853.61914 862.29688 L 857.19141 856.10938 L 858.23828 854.29688 L 865.90625 841.01758 L 867.46094 838.32422 L 870.52539 833.01758 z M 177.14062 841.01758 L 177.14258 841.01758 L 180.97656 847.65625 L 184.80859 854.29688 L 169.47461 854.29688 L 177.14062 841.01758 z M 263.23633 841.01758 L 263.23828 841.01758 L 270.9043 854.29688 L 255.57031 854.29688 L 259.40234 847.65625 L 263.23633 841.01758 z M 306.28516 841.01758 L 313.95117 854.29688 L 298.61719 854.29688 L 306.28516 841.01758 z M 349.33203 841.01758 L 349.33398 841.01758 L 354.76562 850.42578 L 357 854.29688 L 341.66602 854.29688 L 349.33203 841.01758 z M 435.42773 841.01758 L 439.26172 847.65625 L 443.0957 854.29688 L 427.76172 854.29688 L 431.59375 847.65625 L 435.42773 841.01758 z M 564.57227 841.01758 L 572.23828 854.29688 L 556.9043 854.29688 L 564.57227 841.01758 z M 779.81055 841.01758 L 783.64453 847.65625 L 787.47656 854.29688 L 772.14258 854.29688 L 779.81055 841.01758 z M 126.42773 870.29688 L 141.76172 870.29688 L 137.92773 876.9375 L 134.09375 883.57617 L 126.42773 870.29688 z M 160.23633 870.29688 L 160.23828 870.29688 L 194.04688 870.29688 L 210.95117 899.57617 L 210.95117 899.57812 L 206.33203 907.57812 L 194.04688 928.85742 L 169.47461 928.85742 L 160.23828 928.85742 L 160.23633 928.85742 L 151.78516 914.21875 L 147.95117 907.57812 L 143.33203 899.57812 L 143.33203 899.57617 L 146.81641 893.54492 L 147.95117 891.57812 L 155.03711 879.30273 L 160.23633 870.29688 z M 212.52344 870.29688 L 227.85547 870.29688 L 220.18945 883.57617 L 216.35547 876.9375 L 212.52344 870.29688 z M 255.57031 870.29688 L 270.9043 870.29688 L 263.23633 883.57812 L 255.57031 870.29688 z M 289.37891 870.29688 L 289.38086 870.29688 L 298.61719 870.29688 L 313.95312 870.29688 L 323.18945 870.29688 L 327.80859 878.29688 L 340.0957 899.57812 L 331.64258 914.21875 L 323.18945 928.85742 L 289.38086 928.85742 L 277.09375 907.57812 L 272.47461 899.57812 L 275.95898 893.54492 L 284.76172 878.29688 L 284.76172 878.29492 L 289.37891 870.30078 L 289.37891 870.29688 z M 341.66602 870.29688 L 357 870.29688 L 349.33398 883.57812 L 349.33203 883.57812 L 345.5 876.9375 L 341.66602 870.29688 z M 375.47656 870.29688 L 384.71289 870.29688 L 400.04688 870.29688 L 409.28516 870.29688 L 417.73828 884.9375 L 421.57227 891.57812 L 426.18945 899.57617 L 426.18945 899.57812 L 417.73828 914.21875 L 409.28516 928.85742 L 400.04688 928.85742 L 375.47656 928.85742 L 375.47461 928.85742 L 358.57031 899.57812 L 367.02344 884.9375 L 375.47656 870.29688 z M 427.76172 870.29688 L 443.0957 870.29688 L 439.26172 876.9375 L 435.42773 883.57812 L 427.76172 870.29688 z M 547.66602 870.29688 L 547.66797 870.29688 L 581.47656 870.29688 L 585.83203 877.8418 L 586.0957 878.29688 L 593.76172 891.57812 L 598.38086 899.57812 L 598.38086 899.58008 L 581.47852 928.85742 L 581.47656 928.85742 L 572.24023 928.85742 L 556.9043 928.85742 L 547.66797 928.85742 L 547.66602 928.85742 L 530.76172 899.57812 L 535.38086 891.57812 L 539.21484 884.9375 L 543.04883 878.29688 L 543.04883 878.29492 L 547.66602 870.29688 z M 772.14258 870.29688 L 787.47656 870.29688 L 783.64453 876.9375 L 779.81055 883.57812 L 772.14258 870.29688 z M 815.19141 870.29688 L 830.52539 870.29688 L 822.85742 883.57617 L 815.19141 870.29688 z M 944.33398 870.29688 L 959.66992 870.29688 L 952.00195 883.57812 L 944.33398 870.29688 z M 26.474609 878.29688 L 30.308594 884.9375 L 34.140625 891.57812 L 18.806641 891.57812 L 26.474609 878.29688 z M 112.57031 878.29688 L 120.23633 891.57812 L 104.90234 891.57812 L 112.57031 878.29688 z M 241.71289 878.29688 L 245.54688 884.9375 L 249.38086 891.57812 L 234.04492 891.57812 L 241.71289 878.29688 z M 456.95117 878.29688 L 464.61914 891.57812 L 449.2832 891.57812 L 456.95117 878.29688 z M 672.19141 878.29688 L 679.85742 891.57812 L 664.52344 891.57812 L 672.19141 878.29688 z M 801.33398 878.29688 L 805.16797 884.9375 L 809.00195 891.57812 L 793.66797 891.57812 L 800.4082 879.90039 L 801.33398 878.29688 z M 844.38281 878.29688 L 848.21484 884.9375 L 852.04883 891.57812 L 836.71484 891.57812 L 844.38281 878.29688 z M 930.47852 878.29688 L 934.3125 884.9375 L 938.14453 891.57812 L 922.81055 891.57812 L 930.47852 878.29688 z M 758.28711 878.29883 L 765.95312 891.57812 L 750.61914 891.57812 L 758.28711 878.29883 z M 18.806641 907.57812 L 34.140625 907.57812 L 26.474609 920.85742 L 18.806641 907.57812 z M 104.90234 907.57812 L 120.23633 907.57812 L 112.57031 920.85742 L 104.90234 907.57812 z M 449.28516 907.57812 L 464.61914 907.57812 L 456.95312 920.85742 L 456.95117 920.85742 L 449.28516 907.57812 z M 492.33398 907.57812 L 507.66602 907.57812 L 500 920.85742 L 492.33398 907.57812 z M 621.47461 907.57812 L 636.81055 907.57812 L 629.14258 920.85742 L 621.47461 907.57812 z M 707.57227 907.57812 L 722.90625 907.57812 L 715.24023 920.85742 L 715.23828 920.85742 L 707.57227 907.57812 z M 750.61914 907.57812 L 765.95508 907.57812 L 758.28711 920.85742 L 750.61914 907.57812 z M 836.71484 907.57812 L 852.04883 907.57812 L 844.38281 920.85742 L 836.71484 907.57812 z M 922.81055 907.57812 L 938.14453 907.57812 L 930.47852 920.85742 L 922.81055 907.57812 z M 134.09375 915.57812 L 137.92773 922.21875 L 141.76172 928.85742 L 126.42578 928.85742 L 134.09375 915.57812 z M 349.33203 915.57812 L 349.33398 915.57812 L 357 928.85742 L 341.66602 928.85742 L 345.5 922.21875 L 349.33203 915.57812 z M 435.42773 915.57812 L 439.26172 922.21875 L 443.0957 928.85742 L 427.76172 928.85742 L 435.42773 915.57812 z M 478.47656 915.57812 L 482.30859 922.21875 L 486.14258 928.85742 L 470.80859 928.85742 L 478.47656 915.57812 z M 521.52344 915.57812 L 521.52539 915.57812 L 529.19141 928.85742 L 513.85742 928.85742 L 521.52344 915.57812 z M 607.61914 915.57812 L 615.28516 928.85742 L 599.95117 928.85742 L 607.61914 915.57812 z M 736.76172 915.57812 L 736.76367 915.57812 L 740.59766 922.21875 L 744.42969 928.85742 L 729.0957 928.85742 L 736.76172 915.57812 z M 952.00195 915.57812 L 959.66992 928.85742 L 944.33398 928.85742 L 952.00195 915.57812 z M 126.42578 944.85742 L 141.76172 944.85742 L 134.09375 958.13867 L 126.42578 944.85742 z M 169.47461 944.85742 L 184.81055 944.85742 L 177.14258 958.13867 L 169.47461 944.85742 z M 298.61719 944.85742 L 313.95312 944.85742 L 306.28516 958.13867 L 298.61719 944.85742 z M 384.71289 944.85742 L 400.04688 944.85742 L 400.04883 944.85742 L 392.38086 958.13867 L 384.71289 944.85742 z M 427.75977 944.85742 L 443.0957 944.85742 L 435.42773 958.13867 L 427.75977 944.85742 z M 513.85742 944.85742 L 529.19141 944.85742 L 521.52344 958.13867 L 513.85742 944.85742 z M 599.95117 944.85742 L 615.28711 944.85742 L 607.61914 958.13867 L 599.95117 944.85742 z M 944.33398 944.85742 L 959.66992 944.85742 L 952.00195 958.13867 L 944.33398 944.85742 z "
     id="path832" />
</svg>
